<svg version="1.1" baseProfile="full" xmlns="http://www.w3.org/2000/svg"
width="494.8" height="1024"
viewBox="-13.38 -64 31.41 65"
>
<rect x="-13.38" y="-64" width="100%" height="100%" fill="white" />
<path stroke="green" stroke-width="0.04" stroke-linecap="round" fill="none"
transform="scale(1 -1)"
d="	M 0 1
	L -0.342 1.94
	M 0 2
	L 0.342 2.94
	M 0 2
	L 0 3
	M -0.342 2.94
	L -0.9848 3.706
	M -0.684 3.879
	L -0.684 4.879
	M -0.684 3.879
	L -1.026 4.819
	M 0 2
	L -0.342 2.94
	L -0.684 3.879
	M 0 3
	L -0.342 3.94
	M 0 4
	L 0.342 4.94
	M 0 4
	L 0 5
	M 0.342 4.94
	L 0.342 5.94
	M 0.684 5.879
	L 1.327 6.645
	M 0.684 5.879
	L 1.026 6.819
	M 0 4
	L 0.342 4.94
	L 0.684 5.879
	M 0 5
	L -0.342 5.94
	M 0 6
	L 0.342 6.94
	M 0 6
	L 0 7
	M 0 4
	L 0 5
	L 0 6
	M -0.342 4.94
	L -0.9848 5.706
	M -0.684 5.879
	L -0.684 6.879
	M -0.684 5.879
	L -1.026 6.819
	M -1.327 6.645
	L -2.193 7.145
	M -1.97 7.411
	L -2.312 8.351
	M -1.97 7.411
	L -2.612 8.178
	M -0.684 5.879
	L -1.327 6.645
	L -1.97 7.411
	M -1.026 6.819
	L -1.669 7.585
	M -1.368 7.759
	L -1.368 8.759
	M -1.368 7.759
	L -1.71 8.698
	M -1.368 8.759
	L -1.71 9.698
	M -1.368 9.759
	L -1.026 10.7
	M -1.368 9.759
	L -1.368 10.76
	M -1.368 7.759
	L -1.368 8.759
	L -1.368 9.759
	M -1.71 8.698
	L -2.353 9.465
	M -2.052 9.638
	L -2.052 10.64
	M -2.052 9.638
	L -2.394 10.58
	M -1.368 7.759
	L -1.71 8.698
	L -2.052 9.638
	M 0 4
	L -0.342 4.94
	L -0.684 5.879
	L -1.026 6.819
	L -1.368 7.759
	M 0 5
	L -0.342 5.94
	M 0 6
	L 0.342 6.94
	M 0 6
	L 0 7
	M -0.342 6.94
	L -0.9848 7.706
	M -0.684 7.879
	L -0.684 8.879
	M -0.684 7.879
	L -1.026 8.819
	M 0 6
	L -0.342 6.94
	L -0.684 7.879
	M 0 7
	L -0.342 7.94
	M 0 8
	L 0.342 8.94
	M 0 8
	L 0 9
	M 0.342 8.94
	L 0.342 9.94
	M 0.684 9.879
	L 1.327 10.65
	M 0.684 9.879
	L 1.026 10.82
	M 0 8
	L 0.342 8.94
	L 0.684 9.879
	M 0 9
	L -0.342 9.94
	M 0 10
	L 0.342 10.94
	M 0 10
	L 0 11
	M 0 8
	L 0 9
	L 0 10
	M 0.342 8.94
	L 0.342 9.94
	M 0.684 9.879
	L 1.327 10.65
	M 0.684 9.879
	L 1.026 10.82
	M 0.684 10.88
	L 0.342 11.82
	M 0.684 11.88
	L 1.026 12.82
	M 0.684 11.88
	L 0.684 12.88
	M 0.684 9.879
	L 0.684 10.88
	L 0.684 11.88
	M 1.026 10.82
	L 1.026 11.82
	M 1.368 11.76
	L 2.011 12.52
	M 1.368 11.76
	L 1.71 12.7
	M 2.011 12.52
	L 2.353 13.46
	M 2.654 13.29
	L 3.52 13.79
	M 2.654 13.29
	L 3.296 14.06
	M 1.368 11.76
	L 2.011 12.52
	L 2.654 13.29
	M 1.71 12.7
	L 1.71 13.7
	M 2.052 13.64
	L 2.695 14.4
	M 2.052 13.64
	L 2.394 14.58
	M 1.368 11.76
	L 1.71 12.7
	L 2.052 13.64
	M 0 8
	L 0.342 8.94
	L 0.684 9.879
	L 1.026 10.82
	L 1.368 11.76
	M 0 9
	L -0.342 9.94
	M 0 10
	L 0.342 10.94
	M 0 10
	L 0 11
	M -0.342 10.94
	L -0.9848 11.71
	M -0.684 11.88
	L -0.684 12.88
	M -0.684 11.88
	L -1.026 12.82
	M 0 10
	L -0.342 10.94
	L -0.684 11.88
	M 0 11
	L -0.342 11.94
	M 0 12
	L 0.342 12.94
	M 0 12
	L 0 13
	M 0.342 12.94
	L 0.342 13.94
	M 0.684 13.88
	L 1.327 14.65
	M 0.684 13.88
	L 1.026 14.82
	M 0 12
	L 0.342 12.94
	L 0.684 13.88
	M 0 13
	L -0.342 13.94
	M 0 14
	L 0.342 14.94
	M 0 14
	L 0 15
	M 0 12
	L 0 13
	L 0 14
	M 0 8
	L 0 9
	L 0 10
	L 0 11
	L 0 12
	M -0.342 8.94
	L -0.9848 9.706
	M -0.684 9.879
	L -0.684 10.88
	M -0.684 9.879
	L -1.026 10.82
	M -1.327 10.65
	L -2.193 11.15
	M -1.97 11.41
	L -2.312 12.35
	M -1.97 11.41
	L -2.612 12.18
	M -0.684 9.879
	L -1.327 10.65
	L -1.97 11.41
	M -1.026 10.82
	L -1.669 11.59
	M -1.368 11.76
	L -1.368 12.76
	M -1.368 11.76
	L -1.71 12.7
	M -1.368 12.76
	L -1.71 13.7
	M -1.368 13.76
	L -1.026 14.7
	M -1.368 13.76
	L -1.368 14.76
	M -1.368 11.76
	L -1.368 12.76
	L -1.368 13.76
	M -1.71 12.7
	L -2.353 13.46
	M -2.052 13.64
	L -2.052 14.64
	M -2.052 13.64
	L -2.394 14.58
	M -1.368 11.76
	L -1.71 12.7
	L -2.052 13.64
	M -2.011 12.52
	L -2.877 13.02
	M -2.654 13.29
	L -2.996 14.23
	M -2.654 13.29
	L -3.296 14.06
	M -3.52 13.79
	L -4.504 13.96
	M -4.386 14.29
	L -5.028 15.06
	M -4.386 14.29
	L -5.252 14.79
	M -2.654 13.29
	L -3.52 13.79
	L -4.386 14.29
	M -3.296 14.06
	L -4.162 14.56
	M -3.939 14.82
	L -4.281 15.76
	M -3.939 14.82
	L -4.582 15.59
	M -4.281 15.76
	L -4.924 16.53
	M -4.623 16.7
	L -4.623 17.7
	M -4.623 16.7
	L -4.965 17.64
	M -3.939 14.82
	L -4.281 15.76
	L -4.623 16.7
	M -4.582 15.59
	L -5.448 16.09
	M -5.225 16.36
	L -5.567 17.29
	M -5.225 16.36
	L -5.868 17.12
	M -3.939 14.82
	L -4.582 15.59
	L -5.225 16.36
	M -1.368 11.76
	L -2.011 12.52
	L -2.654 13.29
	L -3.296 14.06
	L -3.939 14.82
	M -1.71 12.7
	L -2.353 13.46
	M -2.052 13.64
	L -2.052 14.64
	M -2.052 13.64
	L -2.394 14.58
	M -2.695 14.4
	L -3.561 14.9
	M -3.338 15.17
	L -3.68 16.11
	M -3.338 15.17
	L -3.98 15.94
	M -2.052 13.64
	L -2.695 14.4
	L -3.338 15.17
	M -2.394 14.58
	L -3.037 15.34
	M -2.736 15.52
	L -2.736 16.52
	M -2.736 15.52
	L -3.078 16.46
	M -2.736 16.52
	L -3.078 17.46
	M -2.736 17.52
	L -2.394 18.46
	M -2.736 17.52
	L -2.736 18.52
	M -2.736 15.52
	L -2.736 16.52
	L -2.736 17.52
	M -3.078 16.46
	L -3.721 17.22
	M -3.42 17.4
	L -3.42 18.4
	M -3.42 17.4
	L -3.762 18.34
	M -2.736 15.52
	L -3.078 16.46
	L -3.42 17.4
	M -2.736 16.52
	L -3.078 17.46
	M -2.736 17.52
	L -2.394 18.46
	M -2.736 17.52
	L -2.736 18.52
	M -3.078 18.46
	L -3.721 19.22
	M -3.42 19.4
	L -3.42 20.4
	M -3.42 19.4
	L -3.762 20.34
	M -2.736 17.52
	L -3.078 18.46
	L -3.42 19.4
	M -2.736 18.52
	L -3.078 19.46
	M -2.736 19.52
	L -2.394 20.46
	M -2.736 19.52
	L -2.736 20.52
	M -2.394 20.46
	L -2.394 21.46
	M -2.052 21.4
	L -1.409 22.16
	M -2.052 21.4
	L -1.71 22.34
	M -2.736 19.52
	L -2.394 20.46
	L -2.052 21.4
	M -2.736 20.52
	L -3.078 21.46
	M -2.736 21.52
	L -2.394 22.46
	M -2.736 21.52
	L -2.736 22.52
	M -2.736 19.52
	L -2.736 20.52
	L -2.736 21.52
	M -2.736 15.52
	L -2.736 16.52
	L -2.736 17.52
	L -2.736 18.52
	L -2.736 19.52
	M -3.078 16.46
	L -3.721 17.22
	M -3.42 17.4
	L -3.42 18.4
	M -3.42 17.4
	L -3.762 18.34
	M -4.063 18.16
	L -4.929 18.66
	M -4.706 18.93
	L -5.048 19.87
	M -4.706 18.93
	L -5.349 19.7
	M -3.42 17.4
	L -4.063 18.16
	L -4.706 18.93
	M -3.762 18.34
	L -4.405 19.1
	M -4.104 19.28
	L -4.104 20.28
	M -4.104 19.28
	L -4.446 20.22
	M -4.104 20.28
	L -4.446 21.22
	M -4.104 21.28
	L -3.762 22.22
	M -4.104 21.28
	L -4.104 22.28
	M -4.104 19.28
	L -4.104 20.28
	L -4.104 21.28
	M -4.446 20.22
	L -5.089 20.98
	M -4.788 21.16
	L -4.788 22.16
	M -4.788 21.16
	L -5.13 22.1
	M -4.104 19.28
	L -4.446 20.22
	L -4.788 21.16
	M -2.736 15.52
	L -3.078 16.46
	L -3.42 17.4
	L -3.762 18.34
	L -4.104 19.28
	M 0 8
	L -0.342 8.94
	L -0.684 9.879
	L -1.026 10.82
	L -1.368 11.76
	L -1.71 12.7
	L -2.052 13.64
	L -2.394 14.58
	L -2.736 15.52
	M 0 9
	L -0.342 9.94
	M 0 10
	L 0.342 10.94
	M 0 10
	L 0 11
	M -0.342 10.94
	L -0.9848 11.71
	M -0.684 11.88
	L -0.684 12.88
	M -0.684 11.88
	L -1.026 12.82
	M 0 10
	L -0.342 10.94
	L -0.684 11.88
	M 0 11
	L -0.342 11.94
	M 0 12
	L 0.342 12.94
	M 0 12
	L 0 13
	M 0.342 12.94
	L 0.342 13.94
	M 0.684 13.88
	L 1.327 14.65
	M 0.684 13.88
	L 1.026 14.82
	M 0 12
	L 0.342 12.94
	L 0.684 13.88
	M 0 13
	L -0.342 13.94
	M 0 14
	L 0.342 14.94
	M 0 14
	L 0 15
	M 0 12
	L 0 13
	L 0 14
	M -0.342 12.94
	L -0.9848 13.71
	M -0.684 13.88
	L -0.684 14.88
	M -0.684 13.88
	L -1.026 14.82
	M -1.327 14.65
	L -2.193 15.15
	M -1.97 15.41
	L -2.312 16.35
	M -1.97 15.41
	L -2.612 16.18
	M -0.684 13.88
	L -1.327 14.65
	L -1.97 15.41
	M -1.026 14.82
	L -1.669 15.59
	M -1.368 15.76
	L -1.368 16.76
	M -1.368 15.76
	L -1.71 16.7
	M -1.368 16.76
	L -1.71 17.7
	M -1.368 17.76
	L -1.026 18.7
	M -1.368 17.76
	L -1.368 18.76
	M -1.368 15.76
	L -1.368 16.76
	L -1.368 17.76
	M -1.71 16.7
	L -2.353 17.46
	M -2.052 17.64
	L -2.052 18.64
	M -2.052 17.64
	L -2.394 18.58
	M -1.368 15.76
	L -1.71 16.7
	L -2.052 17.64
	M 0 12
	L -0.342 12.94
	L -0.684 13.88
	L -1.026 14.82
	L -1.368 15.76
	M 0 13
	L -0.342 13.94
	M 0 14
	L 0.342 14.94
	M 0 14
	L 0 15
	M -0.342 14.94
	L -0.9848 15.71
	M -0.684 15.88
	L -0.684 16.88
	M -0.684 15.88
	L -1.026 16.82
	M 0 14
	L -0.342 14.94
	L -0.684 15.88
	M 0 15
	L -0.342 15.94
	M 0 16
	L 0.342 16.94
	M 0 16
	L 0 17
	M 0.342 16.94
	L 0.342 17.94
	M 0.684 17.88
	L 1.327 18.65
	M 0.684 17.88
	L 1.026 18.82
	M 0 16
	L 0.342 16.94
	L 0.684 17.88
	M 0 17
	L -0.342 17.94
	M 0 18
	L 0.342 18.94
	M 0 18
	L 0 19
	M 0 16
	L 0 17
	L 0 18
	M 0.342 16.94
	L 0.342 17.94
	M 0.684 17.88
	L 1.327 18.65
	M 0.684 17.88
	L 1.026 18.82
	M 0.684 18.88
	L 0.342 19.82
	M 0.684 19.88
	L 1.026 20.82
	M 0.684 19.88
	L 0.684 20.88
	M 0.684 17.88
	L 0.684 18.88
	L 0.684 19.88
	M 1.026 18.82
	L 1.026 19.82
	M 1.368 19.76
	L 2.011 20.52
	M 1.368 19.76
	L 1.71 20.7
	M 2.011 20.52
	L 2.353 21.46
	M 2.654 21.29
	L 3.52 21.79
	M 2.654 21.29
	L 3.296 22.06
	M 1.368 19.76
	L 2.011 20.52
	L 2.654 21.29
	M 1.71 20.7
	L 1.71 21.7
	M 2.052 21.64
	L 2.695 22.4
	M 2.052 21.64
	L 2.394 22.58
	M 1.368 19.76
	L 1.71 20.7
	L 2.052 21.64
	M 0 16
	L 0.342 16.94
	L 0.684 17.88
	L 1.026 18.82
	L 1.368 19.76
	M 0 17
	L -0.342 17.94
	M 0 18
	L 0.342 18.94
	M 0 18
	L 0 19
	M -0.342 18.94
	L -0.9848 19.71
	M -0.684 19.88
	L -0.684 20.88
	M -0.684 19.88
	L -1.026 20.82
	M 0 18
	L -0.342 18.94
	L -0.684 19.88
	M 0 19
	L -0.342 19.94
	M 0 20
	L 0.342 20.94
	M 0 20
	L 0 21
	M 0.342 20.94
	L 0.342 21.94
	M 0.684 21.88
	L 1.327 22.65
	M 0.684 21.88
	L 1.026 22.82
	M 0 20
	L 0.342 20.94
	L 0.684 21.88
	M 0 21
	L -0.342 21.94
	M 0 22
	L 0.342 22.94
	M 0 22
	L 0 23
	M 0 20
	L 0 21
	L 0 22
	M 0 16
	L 0 17
	L 0 18
	L 0 19
	L 0 20
	M 0.342 16.94
	L 0.342 17.94
	M 0.684 17.88
	L 1.327 18.65
	M 0.684 17.88
	L 1.026 18.82
	M 0.684 18.88
	L 0.342 19.82
	M 0.684 19.88
	L 1.026 20.82
	M 0.684 19.88
	L 0.684 20.88
	M 0.684 17.88
	L 0.684 18.88
	L 0.684 19.88
	M 1.026 18.82
	L 1.026 19.82
	M 1.368 19.76
	L 2.011 20.52
	M 1.368 19.76
	L 1.71 20.7
	M 2.011 20.52
	L 2.353 21.46
	M 2.654 21.29
	L 3.52 21.79
	M 2.654 21.29
	L 3.296 22.06
	M 1.368 19.76
	L 2.011 20.52
	L 2.654 21.29
	M 1.71 20.7
	L 1.71 21.7
	M 2.052 21.64
	L 2.695 22.4
	M 2.052 21.64
	L 2.394 22.58
	M 1.368 19.76
	L 1.71 20.7
	L 2.052 21.64
	M 1.368 20.76
	L 1.026 21.7
	M 1.368 21.76
	L 1.71 22.7
	M 1.368 21.76
	L 1.368 22.76
	M 1.026 22.7
	L 0.3833 23.46
	M 0.684 23.64
	L 0.684 24.64
	M 0.684 23.64
	L 0.342 24.58
	M 1.368 21.76
	L 1.026 22.7
	L 0.684 23.64
	M 1.368 22.76
	L 1.026 23.7
	M 1.368 23.76
	L 1.71 24.7
	M 1.368 23.76
	L 1.368 24.76
	M 1.71 24.7
	L 1.71 25.7
	M 2.052 25.64
	L 2.695 26.4
	M 2.052 25.64
	L 2.394 26.58
	M 1.368 23.76
	L 1.71 24.7
	L 2.052 25.64
	M 1.368 24.76
	L 1.026 25.7
	M 1.368 25.76
	L 1.71 26.7
	M 1.368 25.76
	L 1.368 26.76
	M 1.368 23.76
	L 1.368 24.76
	L 1.368 25.76
	M 1.368 19.76
	L 1.368 20.76
	L 1.368 21.76
	L 1.368 22.76
	L 1.368 23.76
	M 1.71 20.7
	L 1.71 21.7
	M 2.052 21.64
	L 2.695 22.4
	M 2.052 21.64
	L 2.394 22.58
	M 2.052 22.64
	L 1.71 23.58
	M 2.052 23.64
	L 2.394 24.58
	M 2.052 23.64
	L 2.052 24.64
	M 2.052 21.64
	L 2.052 22.64
	L 2.052 23.64
	M 2.394 22.58
	L 2.394 23.58
	M 2.736 23.52
	L 3.379 24.28
	M 2.736 23.52
	L 3.078 24.46
	M 3.379 24.28
	L 3.721 25.22
	M 4.022 25.05
	L 4.888 25.55
	M 4.022 25.05
	L 4.665 25.82
	M 2.736 23.52
	L 3.379 24.28
	L 4.022 25.05
	M 3.078 24.46
	L 3.078 25.46
	M 3.42 25.4
	L 4.063 26.16
	M 3.42 25.4
	L 3.762 26.34
	M 2.736 23.52
	L 3.078 24.46
	L 3.42 25.4
	M 3.379 24.28
	L 3.721 25.22
	M 4.022 25.05
	L 4.888 25.55
	M 4.022 25.05
	L 4.665 25.82
	M 4.364 25.99
	L 4.364 26.99
	M 4.706 26.93
	L 5.349 27.7
	M 4.706 26.93
	L 5.048 27.87
	M 4.022 25.05
	L 4.364 25.99
	L 4.706 26.93
	M 4.665 25.82
	L 5.007 26.76
	M 5.307 26.58
	L 6.173 27.08
	M 5.307 26.58
	L 5.95 27.35
	M 6.173 27.08
	L 6.816 27.85
	M 7.039 27.58
	L 8.024 27.76
	M 7.039 27.58
	L 7.905 28.08
	M 5.307 26.58
	L 6.173 27.08
	L 7.039 27.58
	M 5.95 27.35
	L 6.292 28.29
	M 6.593 28.11
	L 7.459 28.61
	M 6.593 28.11
	L 7.236 28.88
	M 5.307 26.58
	L 5.95 27.35
	L 6.593 28.11
	M 2.736 23.52
	L 3.379 24.28
	L 4.022 25.05
	L 4.665 25.82
	L 5.307 26.58
	M 3.078 24.46
	L 3.078 25.46
	M 3.42 25.4
	L 4.063 26.16
	M 3.42 25.4
	L 3.762 26.34
	M 3.42 26.4
	L 3.078 27.34
	M 3.42 27.4
	L 3.762 28.34
	M 3.42 27.4
	L 3.42 28.4
	M 3.42 25.4
	L 3.42 26.4
	L 3.42 27.4
	M 3.762 26.34
	L 3.762 27.34
	M 4.104 27.28
	L 4.747 28.04
	M 4.104 27.28
	L 4.446 28.22
	M 4.747 28.04
	L 5.089 28.98
	M 5.39 28.81
	L 6.256 29.31
	M 5.39 28.81
	L 6.033 29.57
	M 4.104 27.28
	L 4.747 28.04
	L 5.39 28.81
	M 4.446 28.22
	L 4.446 29.22
	M 4.788 29.16
	L 5.431 29.92
	M 4.788 29.16
	L 5.13 30.1
	M 4.104 27.28
	L 4.446 28.22
	L 4.788 29.16
	M 2.736 23.52
	L 3.078 24.46
	L 3.42 25.4
	L 3.762 26.34
	L 4.104 27.28
	M 0 16
	L 0.342 16.94
	L 0.684 17.88
	L 1.026 18.82
	L 1.368 19.76
	L 1.71 20.7
	L 2.052 21.64
	L 2.394 22.58
	L 2.736 23.52
	M 0 17
	L -0.342 17.94
	M 0 18
	L 0.342 18.94
	M 0 18
	L 0 19
	M -0.342 18.94
	L -0.9848 19.71
	M -0.684 19.88
	L -0.684 20.88
	M -0.684 19.88
	L -1.026 20.82
	M 0 18
	L -0.342 18.94
	L -0.684 19.88
	M 0 19
	L -0.342 19.94
	M 0 20
	L 0.342 20.94
	M 0 20
	L 0 21
	M 0.342 20.94
	L 0.342 21.94
	M 0.684 21.88
	L 1.327 22.65
	M 0.684 21.88
	L 1.026 22.82
	M 0 20
	L 0.342 20.94
	L 0.684 21.88
	M 0 21
	L -0.342 21.94
	M 0 22
	L 0.342 22.94
	M 0 22
	L 0 23
	M 0 20
	L 0 21
	L 0 22
	M -0.342 20.94
	L -0.9848 21.71
	M -0.684 21.88
	L -0.684 22.88
	M -0.684 21.88
	L -1.026 22.82
	M -1.327 22.65
	L -2.193 23.15
	M -1.97 23.41
	L -2.312 24.35
	M -1.97 23.41
	L -2.612 24.18
	M -0.684 21.88
	L -1.327 22.65
	L -1.97 23.41
	M -1.026 22.82
	L -1.669 23.59
	M -1.368 23.76
	L -1.368 24.76
	M -1.368 23.76
	L -1.71 24.7
	M -1.368 24.76
	L -1.71 25.7
	M -1.368 25.76
	L -1.026 26.7
	M -1.368 25.76
	L -1.368 26.76
	M -1.368 23.76
	L -1.368 24.76
	L -1.368 25.76
	M -1.71 24.7
	L -2.353 25.46
	M -2.052 25.64
	L -2.052 26.64
	M -2.052 25.64
	L -2.394 26.58
	M -1.368 23.76
	L -1.71 24.7
	L -2.052 25.64
	M 0 20
	L -0.342 20.94
	L -0.684 21.88
	L -1.026 22.82
	L -1.368 23.76
	M 0 21
	L -0.342 21.94
	M 0 22
	L 0.342 22.94
	M 0 22
	L 0 23
	M -0.342 22.94
	L -0.9848 23.71
	M -0.684 23.88
	L -0.684 24.88
	M -0.684 23.88
	L -1.026 24.82
	M 0 22
	L -0.342 22.94
	L -0.684 23.88
	M 0 23
	L -0.342 23.94
	M 0 24
	L 0.342 24.94
	M 0 24
	L 0 25
	M 0.342 24.94
	L 0.342 25.94
	M 0.684 25.88
	L 1.327 26.65
	M 0.684 25.88
	L 1.026 26.82
	M 0 24
	L 0.342 24.94
	L 0.684 25.88
	M 0 25
	L -0.342 25.94
	M 0 26
	L 0.342 26.94
	M 0 26
	L 0 27
	M 0 24
	L 0 25
	L 0 26
	M 0.342 24.94
	L 0.342 25.94
	M 0.684 25.88
	L 1.327 26.65
	M 0.684 25.88
	L 1.026 26.82
	M 0.684 26.88
	L 0.342 27.82
	M 0.684 27.88
	L 1.026 28.82
	M 0.684 27.88
	L 0.684 28.88
	M 0.684 25.88
	L 0.684 26.88
	L 0.684 27.88
	M 1.026 26.82
	L 1.026 27.82
	M 1.368 27.76
	L 2.011 28.52
	M 1.368 27.76
	L 1.71 28.7
	M 2.011 28.52
	L 2.353 29.46
	M 2.654 29.29
	L 3.52 29.79
	M 2.654 29.29
	L 3.296 30.06
	M 1.368 27.76
	L 2.011 28.52
	L 2.654 29.29
	M 1.71 28.7
	L 1.71 29.7
	M 2.052 29.64
	L 2.695 30.4
	M 2.052 29.64
	L 2.394 30.58
	M 1.368 27.76
	L 1.71 28.7
	L 2.052 29.64
	M 0 24
	L 0.342 24.94
	L 0.684 25.88
	L 1.026 26.82
	L 1.368 27.76
	M 0 25
	L -0.342 25.94
	M 0 26
	L 0.342 26.94
	M 0 26
	L 0 27
	M -0.342 26.94
	L -0.9848 27.71
	M -0.684 27.88
	L -0.684 28.88
	M -0.684 27.88
	L -1.026 28.82
	M 0 26
	L -0.342 26.94
	L -0.684 27.88
	M 0 27
	L -0.342 27.94
	M 0 28
	L 0.342 28.94
	M 0 28
	L 0 29
	M 0.342 28.94
	L 0.342 29.94
	M 0.684 29.88
	L 1.327 30.65
	M 0.684 29.88
	L 1.026 30.82
	M 0 28
	L 0.342 28.94
	L 0.684 29.88
	M 0 29
	L -0.342 29.94
	M 0 30
	L 0.342 30.94
	M 0 30
	L 0 31
	M 0 28
	L 0 29
	L 0 30
	M 0 24
	L 0 25
	L 0 26
	L 0 27
	L 0 28
	M 0 16
	L 0 17
	L 0 18
	L 0 19
	L 0 20
	L 0 21
	L 0 22
	L 0 23
	L 0 24
	M -0.342 16.94
	L -0.9848 17.71
	M -0.684 17.88
	L -0.684 18.88
	M -0.684 17.88
	L -1.026 18.82
	M -1.327 18.65
	L -2.193 19.15
	M -1.97 19.41
	L -2.312 20.35
	M -1.97 19.41
	L -2.612 20.18
	M -0.684 17.88
	L -1.327 18.65
	L -1.97 19.41
	M -1.026 18.82
	L -1.669 19.59
	M -1.368 19.76
	L -1.368 20.76
	M -1.368 19.76
	L -1.71 20.7
	M -1.368 20.76
	L -1.71 21.7
	M -1.368 21.76
	L -1.026 22.7
	M -1.368 21.76
	L -1.368 22.76
	M -1.368 19.76
	L -1.368 20.76
	L -1.368 21.76
	M -1.71 20.7
	L -2.353 21.46
	M -2.052 21.64
	L -2.052 22.64
	M -2.052 21.64
	L -2.394 22.58
	M -1.368 19.76
	L -1.71 20.7
	L -2.052 21.64
	M -2.011 20.52
	L -2.877 21.02
	M -2.654 21.29
	L -2.996 22.23
	M -2.654 21.29
	L -3.296 22.06
	M -3.52 21.79
	L -4.504 21.96
	M -4.386 22.29
	L -5.028 23.06
	M -4.386 22.29
	L -5.252 22.79
	M -2.654 21.29
	L -3.52 21.79
	L -4.386 22.29
	M -3.296 22.06
	L -4.162 22.56
	M -3.939 22.82
	L -4.281 23.76
	M -3.939 22.82
	L -4.582 23.59
	M -4.281 23.76
	L -4.924 24.53
	M -4.623 24.7
	L -4.623 25.7
	M -4.623 24.7
	L -4.965 25.64
	M -3.939 22.82
	L -4.281 23.76
	L -4.623 24.7
	M -4.582 23.59
	L -5.448 24.09
	M -5.225 24.36
	L -5.567 25.29
	M -5.225 24.36
	L -5.868 25.12
	M -3.939 22.82
	L -4.582 23.59
	L -5.225 24.36
	M -1.368 19.76
	L -2.011 20.52
	L -2.654 21.29
	L -3.296 22.06
	L -3.939 22.82
	M -1.71 20.7
	L -2.353 21.46
	M -2.052 21.64
	L -2.052 22.64
	M -2.052 21.64
	L -2.394 22.58
	M -2.695 22.4
	L -3.561 22.9
	M -3.338 23.17
	L -3.68 24.11
	M -3.338 23.17
	L -3.98 23.94
	M -2.052 21.64
	L -2.695 22.4
	L -3.338 23.17
	M -2.394 22.58
	L -3.037 23.34
	M -2.736 23.52
	L -2.736 24.52
	M -2.736 23.52
	L -3.078 24.46
	M -2.736 24.52
	L -3.078 25.46
	M -2.736 25.52
	L -2.394 26.46
	M -2.736 25.52
	L -2.736 26.52
	M -2.736 23.52
	L -2.736 24.52
	L -2.736 25.52
	M -3.078 24.46
	L -3.721 25.22
	M -3.42 25.4
	L -3.42 26.4
	M -3.42 25.4
	L -3.762 26.34
	M -2.736 23.52
	L -3.078 24.46
	L -3.42 25.4
	M -2.736 24.52
	L -3.078 25.46
	M -2.736 25.52
	L -2.394 26.46
	M -2.736 25.52
	L -2.736 26.52
	M -3.078 26.46
	L -3.721 27.22
	M -3.42 27.4
	L -3.42 28.4
	M -3.42 27.4
	L -3.762 28.34
	M -2.736 25.52
	L -3.078 26.46
	L -3.42 27.4
	M -2.736 26.52
	L -3.078 27.46
	M -2.736 27.52
	L -2.394 28.46
	M -2.736 27.52
	L -2.736 28.52
	M -2.394 28.46
	L -2.394 29.46
	M -2.052 29.4
	L -1.409 30.16
	M -2.052 29.4
	L -1.71 30.34
	M -2.736 27.52
	L -2.394 28.46
	L -2.052 29.4
	M -2.736 28.52
	L -3.078 29.46
	M -2.736 29.52
	L -2.394 30.46
	M -2.736 29.52
	L -2.736 30.52
	M -2.736 27.52
	L -2.736 28.52
	L -2.736 29.52
	M -2.736 23.52
	L -2.736 24.52
	L -2.736 25.52
	L -2.736 26.52
	L -2.736 27.52
	M -3.078 24.46
	L -3.721 25.22
	M -3.42 25.4
	L -3.42 26.4
	M -3.42 25.4
	L -3.762 26.34
	M -4.063 26.16
	L -4.929 26.66
	M -4.706 26.93
	L -5.048 27.87
	M -4.706 26.93
	L -5.349 27.7
	M -3.42 25.4
	L -4.063 26.16
	L -4.706 26.93
	M -3.762 26.34
	L -4.405 27.1
	M -4.104 27.28
	L -4.104 28.28
	M -4.104 27.28
	L -4.446 28.22
	M -4.104 28.28
	L -4.446 29.22
	M -4.104 29.28
	L -3.762 30.22
	M -4.104 29.28
	L -4.104 30.28
	M -4.104 27.28
	L -4.104 28.28
	L -4.104 29.28
	M -4.446 28.22
	L -5.089 28.98
	M -4.788 29.16
	L -4.788 30.16
	M -4.788 29.16
	L -5.13 30.1
	M -4.104 27.28
	L -4.446 28.22
	L -4.788 29.16
	M -2.736 23.52
	L -3.078 24.46
	L -3.42 25.4
	L -3.762 26.34
	L -4.104 27.28
	M -3.379 24.28
	L -4.245 24.78
	M -4.022 25.05
	L -4.364 25.99
	M -4.022 25.05
	L -4.665 25.82
	M -4.888 25.55
	L -5.873 25.72
	M -5.754 26.05
	L -6.397 26.82
	M -5.754 26.05
	L -6.62 26.55
	M -4.022 25.05
	L -4.888 25.55
	L -5.754 26.05
	M -4.665 25.82
	L -5.531 26.32
	M -5.307 26.58
	L -5.649 27.52
	M -5.307 26.58
	L -5.95 27.35
	M -5.649 27.52
	L -6.292 28.29
	M -5.991 28.46
	L -5.991 29.46
	M -5.991 28.46
	L -6.333 29.4
	M -5.307 26.58
	L -5.649 27.52
	L -5.991 28.46
	M -5.95 27.35
	L -6.816 27.85
	M -6.593 28.11
	L -6.935 29.05
	M -6.593 28.11
	L -7.236 28.88
	M -5.307 26.58
	L -5.95 27.35
	L -6.593 28.11
	M -6.173 27.08
	L -7.158 27.26
	M -7.039 27.58
	L -7.682 28.35
	M -7.039 27.58
	L -7.905 28.08
	M -8.024 27.76
	L -9.009 27.58
	M -9.009 27.93
	L -9.875 28.43
	M -9.009 27.93
	L -9.994 28.1
	M -7.039 27.58
	L -8.024 27.76
	L -9.009 27.93
	M -7.905 28.08
	L -8.89 28.26
	M -8.771 28.58
	L -9.414 29.35
	M -8.771 28.58
	L -9.637 29.08
	M -9.414 29.35
	L -10.28 29.85
	M -10.06 30.11
	L -10.4 31.05
	M -10.06 30.11
	L -10.7 30.88
	M -8.771 28.58
	L -9.414 29.35
	L -10.06 30.11
	M -9.637 29.08
	L -10.62 29.26
	M -10.5 29.58
	L -11.15 30.35
	M -10.5 29.58
	L -11.37 30.08
	M -8.771 28.58
	L -9.637 29.08
	L -10.5 29.58
	M -5.307 26.58
	L -6.173 27.08
	L -7.039 27.58
	L -7.905 28.08
	L -8.771 28.58
	M -5.95 27.35
	L -6.816 27.85
	M -6.593 28.11
	L -6.935 29.05
	M -6.593 28.11
	L -7.236 28.88
	M -7.459 28.61
	L -8.444 28.79
	M -8.325 29.11
	L -8.968 29.88
	M -8.325 29.11
	L -9.191 29.61
	M -6.593 28.11
	L -7.459 28.61
	L -8.325 29.11
	M -7.236 28.88
	L -8.102 29.38
	M -7.878 29.65
	L -8.22 30.59
	M -7.878 29.65
	L -8.521 30.41
	M -8.22 30.59
	L -8.863 31.35
	M -8.563 31.53
	L -8.563 32.53
	M -8.563 31.53
	L -8.905 32.46
	M -7.878 29.65
	L -8.22 30.59
	L -8.563 31.53
	M -8.521 30.41
	L -9.387 30.91
	M -9.164 31.18
	L -9.506 32.12
	M -9.164 31.18
	L -9.807 31.94
	M -7.878 29.65
	L -8.521 30.41
	L -9.164 31.18
	M -8.22 30.59
	L -8.863 31.35
	M -8.563 31.53
	L -8.563 32.53
	M -8.563 31.53
	L -8.905 32.46
	M -9.205 32.29
	L -10.07 32.79
	M -9.848 33.06
	L -10.19 34
	M -9.848 33.06
	L -10.49 33.82
	M -8.563 31.53
	L -9.205 32.29
	L -9.848 33.06
	M -8.905 32.46
	L -9.547 33.23
	M -9.247 33.4
	L -9.247 34.4
	M -9.247 33.4
	L -9.589 34.34
	M -9.247 34.4
	L -9.589 35.34
	M -9.247 35.4
	L -8.905 36.34
	M -9.247 35.4
	L -9.247 36.4
	M -9.247 33.4
	L -9.247 34.4
	L -9.247 35.4
	M -9.589 34.34
	L -10.23 35.11
	M -9.931 35.28
	L -9.931 36.28
	M -9.931 35.28
	L -10.27 36.22
	M -9.247 33.4
	L -9.589 34.34
	L -9.931 35.28
	M -7.878 29.65
	L -8.22 30.59
	L -8.563 31.53
	L -8.905 32.46
	L -9.247 33.4
	M -8.521 30.41
	L -9.387 30.91
	M -9.164 31.18
	L -9.506 32.12
	M -9.164 31.18
	L -9.807 31.94
	M -10.03 31.68
	L -11.01 31.85
	M -10.9 32.18
	L -11.54 32.94
	M -10.9 32.18
	L -11.76 32.68
	M -9.164 31.18
	L -10.03 31.68
	L -10.9 32.18
	M -9.807 31.94
	L -10.67 32.44
	M -10.45 32.71
	L -10.79 33.65
	M -10.45 32.71
	L -11.09 33.48
	M -10.79 33.65
	L -11.43 34.42
	M -11.13 34.59
	L -11.13 35.59
	M -11.13 34.59
	L -11.48 35.53
	M -10.45 32.71
	L -10.79 33.65
	L -11.13 34.59
	M -11.09 33.48
	L -11.96 33.98
	M -11.74 34.24
	L -12.08 35.18
	M -11.74 34.24
	L -12.38 35.01
	M -10.45 32.71
	L -11.09 33.48
	L -11.74 34.24
	M -7.878 29.65
	L -8.521 30.41
	L -9.164 31.18
	L -9.807 31.94
	L -10.45 32.71
	M -2.736 23.52
	L -3.379 24.28
	L -4.022 25.05
	L -4.665 25.82
	L -5.307 26.58
	L -5.95 27.35
	L -6.593 28.11
	L -7.236 28.88
	L -7.878 29.65
	M -3.078 24.46
	L -3.721 25.22
	M -3.42 25.4
	L -3.42 26.4
	M -3.42 25.4
	L -3.762 26.34
	M -4.063 26.16
	L -4.929 26.66
	M -4.706 26.93
	L -5.048 27.87
	M -4.706 26.93
	L -5.349 27.7
	M -3.42 25.4
	L -4.063 26.16
	L -4.706 26.93
	M -3.762 26.34
	L -4.405 27.1
	M -4.104 27.28
	L -4.104 28.28
	M -4.104 27.28
	L -4.446 28.22
	M -4.104 28.28
	L -4.446 29.22
	M -4.104 29.28
	L -3.762 30.22
	M -4.104 29.28
	L -4.104 30.28
	M -4.104 27.28
	L -4.104 28.28
	L -4.104 29.28
	M -4.446 28.22
	L -5.089 28.98
	M -4.788 29.16
	L -4.788 30.16
	M -4.788 29.16
	L -5.13 30.1
	M -4.104 27.28
	L -4.446 28.22
	L -4.788 29.16
	M -4.747 28.04
	L -5.613 28.54
	M -5.39 28.81
	L -5.732 29.75
	M -5.39 28.81
	L -6.033 29.57
	M -6.256 29.31
	L -7.241 29.48
	M -7.122 29.81
	L -7.765 30.57
	M -7.122 29.81
	L -7.988 30.31
	M -5.39 28.81
	L -6.256 29.31
	L -7.122 29.81
	M -6.033 29.57
	L -6.899 30.07
	M -6.675 30.34
	L -7.017 31.28
	M -6.675 30.34
	L -7.318 31.11
	M -7.017 31.28
	L -7.66 32.05
	M -7.359 32.22
	L -7.359 33.22
	M -7.359 32.22
	L -7.701 33.16
	M -6.675 30.34
	L -7.017 31.28
	L -7.359 32.22
	M -7.318 31.11
	L -8.184 31.61
	M -7.961 31.87
	L -8.303 32.81
	M -7.961 31.87
	L -8.604 32.64
	M -6.675 30.34
	L -7.318 31.11
	L -7.961 31.87
	M -4.104 27.28
	L -4.747 28.04
	L -5.39 28.81
	L -6.033 29.57
	L -6.675 30.34
	M -4.446 28.22
	L -5.089 28.98
	M -4.788 29.16
	L -4.788 30.16
	M -4.788 29.16
	L -5.13 30.1
	M -5.431 29.92
	L -6.297 30.42
	M -6.074 30.69
	L -6.416 31.63
	M -6.074 30.69
	L -6.717 31.45
	M -4.788 29.16
	L -5.431 29.92
	L -6.074 30.69
	M -5.13 30.1
	L -5.773 30.86
	M -5.472 31.04
	L -5.472 32.04
	M -5.472 31.04
	L -5.814 31.97
	M -5.472 32.04
	L -5.814 32.97
	M -5.472 33.04
	L -5.13 33.97
	M -5.472 33.04
	L -5.472 34.04
	M -5.472 31.04
	L -5.472 32.04
	L -5.472 33.04
	M -5.814 31.97
	L -6.457 32.74
	M -6.156 32.91
	L -6.156 33.91
	M -6.156 32.91
	L -6.498 33.85
	M -5.472 31.04
	L -5.814 31.97
	L -6.156 32.91
	M -5.472 32.04
	L -5.814 32.97
	M -5.472 33.04
	L -5.13 33.97
	M -5.472 33.04
	L -5.472 34.04
	M -5.814 33.97
	L -6.457 34.74
	M -6.156 34.91
	L -6.156 35.91
	M -6.156 34.91
	L -6.498 35.85
	M -5.472 33.04
	L -5.814 33.97
	L -6.156 34.91
	M -5.472 34.04
	L -5.814 34.97
	M -5.472 35.04
	L -5.13 35.97
	M -5.472 35.04
	L -5.472 36.04
	M -5.13 35.97
	L -5.13 36.97
	M -4.788 36.91
	L -4.145 37.68
	M -4.788 36.91
	L -4.446 37.85
	M -5.472 35.04
	L -5.13 35.97
	L -4.788 36.91
	M -5.472 36.04
	L -5.814 36.97
	M -5.472 37.04
	L -5.13 37.97
	M -5.472 37.04
	L -5.472 38.04
	M -5.472 35.04
	L -5.472 36.04
	L -5.472 37.04
	M -5.472 31.04
	L -5.472 32.04
	L -5.472 33.04
	L -5.472 34.04
	L -5.472 35.04
	M -5.814 31.97
	L -6.457 32.74
	M -6.156 32.91
	L -6.156 33.91
	M -6.156 32.91
	L -6.498 33.85
	M -6.799 33.68
	L -7.665 34.18
	M -7.442 34.45
	L -7.784 35.39
	M -7.442 34.45
	L -8.085 35.21
	M -6.156 32.91
	L -6.799 33.68
	L -7.442 34.45
	M -6.498 33.85
	L -7.141 34.62
	M -6.84 34.79
	L -6.84 35.79
	M -6.84 34.79
	L -7.182 35.73
	M -6.84 35.79
	L -7.182 36.73
	M -6.84 36.79
	L -6.498 37.73
	M -6.84 36.79
	L -6.84 37.79
	M -6.84 34.79
	L -6.84 35.79
	L -6.84 36.79
	M -7.182 35.73
	L -7.825 36.5
	M -7.524 36.67
	L -7.524 37.67
	M -7.524 36.67
	L -7.866 37.61
	M -6.84 34.79
	L -7.182 35.73
	L -7.524 36.67
	M -5.472 31.04
	L -5.814 31.97
	L -6.156 32.91
	L -6.498 33.85
	L -6.84 34.79
	M -5.472 32.04
	L -5.814 32.97
	M -5.472 33.04
	L -5.13 33.97
	M -5.472 33.04
	L -5.472 34.04
	M -5.814 33.97
	L -6.457 34.74
	M -6.156 34.91
	L -6.156 35.91
	M -6.156 34.91
	L -6.498 35.85
	M -5.472 33.04
	L -5.814 33.97
	L -6.156 34.91
	M -5.472 34.04
	L -5.814 34.97
	M -5.472 35.04
	L -5.13 35.97
	M -5.472 35.04
	L -5.472 36.04
	M -5.13 35.97
	L -5.13 36.97
	M -4.788 36.91
	L -4.145 37.68
	M -4.788 36.91
	L -4.446 37.85
	M -5.472 35.04
	L -5.13 35.97
	L -4.788 36.91
	M -5.472 36.04
	L -5.814 36.97
	M -5.472 37.04
	L -5.13 37.97
	M -5.472 37.04
	L -5.472 38.04
	M -5.472 35.04
	L -5.472 36.04
	L -5.472 37.04
	M -5.814 35.97
	L -6.457 36.74
	M -6.156 36.91
	L -6.156 37.91
	M -6.156 36.91
	L -6.498 37.85
	M -6.799 37.68
	L -7.665 38.18
	M -7.442 38.45
	L -7.784 39.39
	M -7.442 38.45
	L -8.085 39.21
	M -6.156 36.91
	L -6.799 37.68
	L -7.442 38.45
	M -6.498 37.85
	L -7.141 38.62
	M -6.84 38.79
	L -6.84 39.79
	M -6.84 38.79
	L -7.182 39.73
	M -6.84 39.79
	L -7.182 40.73
	M -6.84 40.79
	L -6.498 41.73
	M -6.84 40.79
	L -6.84 41.79
	M -6.84 38.79
	L -6.84 39.79
	L -6.84 40.79
	M -7.182 39.73
	L -7.825 40.5
	M -7.524 40.67
	L -7.524 41.67
	M -7.524 40.67
	L -7.866 41.61
	M -6.84 38.79
	L -7.182 39.73
	L -7.524 40.67
	M -5.472 35.04
	L -5.814 35.97
	L -6.156 36.91
	L -6.498 37.85
	L -6.84 38.79
	M -5.472 36.04
	L -5.814 36.97
	M -5.472 37.04
	L -5.13 37.97
	M -5.472 37.04
	L -5.472 38.04
	M -5.814 37.97
	L -6.457 38.74
	M -6.156 38.91
	L -6.156 39.91
	M -6.156 38.91
	L -6.498 39.85
	M -5.472 37.04
	L -5.814 37.97
	L -6.156 38.91
	M -5.472 38.04
	L -5.814 38.97
	M -5.472 39.04
	L -5.13 39.97
	M -5.472 39.04
	L -5.472 40.04
	M -5.13 39.97
	L -5.13 40.97
	M -4.788 40.91
	L -4.145 41.68
	M -4.788 40.91
	L -4.446 41.85
	M -5.472 39.04
	L -5.13 39.97
	L -4.788 40.91
	M -5.472 40.04
	L -5.814 40.97
	M -5.472 41.04
	L -5.13 41.97
	M -5.472 41.04
	L -5.472 42.04
	M -5.472 39.04
	L -5.472 40.04
	L -5.472 41.04
	M -5.13 39.97
	L -5.13 40.97
	M -4.788 40.91
	L -4.145 41.68
	M -4.788 40.91
	L -4.446 41.85
	M -4.788 41.91
	L -5.13 42.85
	M -4.788 42.91
	L -4.446 43.85
	M -4.788 42.91
	L -4.788 43.91
	M -4.788 40.91
	L -4.788 41.91
	L -4.788 42.91
	M -4.446 41.85
	L -4.446 42.85
	M -4.104 42.79
	L -3.461 43.56
	M -4.104 42.79
	L -3.762 43.73
	M -3.461 43.56
	L -3.119 44.5
	M -2.819 44.33
	L -1.953 44.83
	M -2.819 44.33
	L -2.176 45.09
	M -4.104 42.79
	L -3.461 43.56
	L -2.819 44.33
	M -3.762 43.73
	L -3.762 44.73
	M -3.42 44.67
	L -2.777 45.44
	M -3.42 44.67
	L -3.078 45.61
	M -4.104 42.79
	L -3.762 43.73
	L -3.42 44.67
	M -5.472 39.04
	L -5.13 39.97
	L -4.788 40.91
	L -4.446 41.85
	L -4.104 42.79
	M -5.472 40.04
	L -5.814 40.97
	M -5.472 41.04
	L -5.13 41.97
	M -5.472 41.04
	L -5.472 42.04
	M -5.814 41.97
	L -6.457 42.74
	M -6.156 42.91
	L -6.156 43.91
	M -6.156 42.91
	L -6.498 43.85
	M -5.472 41.04
	L -5.814 41.97
	L -6.156 42.91
	M -5.472 42.04
	L -5.814 42.97
	M -5.472 43.04
	L -5.13 43.97
	M -5.472 43.04
	L -5.472 44.04
	M -5.13 43.97
	L -5.13 44.97
	M -4.788 44.91
	L -4.145 45.68
	M -4.788 44.91
	L -4.446 45.85
	M -5.472 43.04
	L -5.13 43.97
	L -4.788 44.91
	M -5.472 44.04
	L -5.814 44.97
	M -5.472 45.04
	L -5.13 45.97
	M -5.472 45.04
	L -5.472 46.04
	M -5.472 43.04
	L -5.472 44.04
	L -5.472 45.04
	M -5.472 39.04
	L -5.472 40.04
	L -5.472 41.04
	L -5.472 42.04
	L -5.472 43.04
	M -5.472 31.04
	L -5.472 32.04
	L -5.472 33.04
	L -5.472 34.04
	L -5.472 35.04
	L -5.472 36.04
	L -5.472 37.04
	L -5.472 38.04
	L -5.472 39.04
	M -5.814 31.97
	L -6.457 32.74
	M -6.156 32.91
	L -6.156 33.91
	M -6.156 32.91
	L -6.498 33.85
	M -6.799 33.68
	L -7.665 34.18
	M -7.442 34.45
	L -7.784 35.39
	M -7.442 34.45
	L -8.085 35.21
	M -6.156 32.91
	L -6.799 33.68
	L -7.442 34.45
	M -6.498 33.85
	L -7.141 34.62
	M -6.84 34.79
	L -6.84 35.79
	M -6.84 34.79
	L -7.182 35.73
	M -6.84 35.79
	L -7.182 36.73
	M -6.84 36.79
	L -6.498 37.73
	M -6.84 36.79
	L -6.84 37.79
	M -6.84 34.79
	L -6.84 35.79
	L -6.84 36.79
	M -7.182 35.73
	L -7.825 36.5
	M -7.524 36.67
	L -7.524 37.67
	M -7.524 36.67
	L -7.866 37.61
	M -6.84 34.79
	L -7.182 35.73
	L -7.524 36.67
	M -7.483 35.56
	L -8.349 36.06
	M -8.126 36.33
	L -8.468 37.27
	M -8.126 36.33
	L -8.769 37.09
	M -8.992 36.83
	L -9.977 37
	M -9.858 37.33
	L -10.5 38.09
	M -9.858 37.33
	L -10.72 37.83
	M -8.126 36.33
	L -8.992 36.83
	L -9.858 37.33
	M -8.769 37.09
	L -9.635 37.59
	M -9.412 37.86
	L -9.754 38.8
	M -9.412 37.86
	L -10.05 38.62
	M -9.754 38.8
	L -10.4 39.56
	M -10.1 39.74
	L -10.1 40.74
	M -10.1 39.74
	L -10.44 40.68
	M -9.412 37.86
	L -9.754 38.8
	L -10.1 39.74
	M -10.05 38.62
	L -10.92 39.12
	M -10.7 39.39
	L -11.04 40.33
	M -10.7 39.39
	L -11.34 40.16
	M -9.412 37.86
	L -10.05 38.62
	L -10.7 39.39
	M -6.84 34.79
	L -7.483 35.56
	L -8.126 36.33
	L -8.769 37.09
	L -9.412 37.86
	M -7.182 35.73
	L -7.825 36.5
	M -7.524 36.67
	L -7.524 37.67
	M -7.524 36.67
	L -7.866 37.61
	M -8.167 37.44
	L -9.033 37.94
	M -8.81 38.21
	L -9.152 39.15
	M -8.81 38.21
	L -9.453 38.97
	M -7.524 36.67
	L -8.167 37.44
	L -8.81 38.21
	M -7.866 37.61
	L -8.509 38.38
	M -8.208 38.55
	L -8.208 39.55
	M -8.208 38.55
	L -8.551 39.49
	M -8.208 39.55
	L -8.551 40.49
	M -8.208 40.55
	L -7.866 41.49
	M -8.208 40.55
	L -8.208 41.55
	M -8.208 38.55
	L -8.208 39.55
	L -8.208 40.55
	M -8.551 39.49
	L -9.193 40.26
	M -8.893 40.43
	L -8.893 41.43
	M -8.893 40.43
	L -9.235 41.37
	M -8.208 38.55
	L -8.551 39.49
	L -8.893 40.43
	M -8.208 39.55
	L -8.551 40.49
	M -8.208 40.55
	L -7.866 41.49
	M -8.208 40.55
	L -8.208 41.55
	M -8.551 41.49
	L -9.193 42.26
	M -8.893 42.43
	L -8.893 43.43
	M -8.893 42.43
	L -9.235 43.37
	M -8.208 40.55
	L -8.551 41.49
	L -8.893 42.43
	M -8.208 41.55
	L -8.551 42.49
	M -8.208 42.55
	L -7.866 43.49
	M -8.208 42.55
	L -8.208 43.55
	M -7.866 43.49
	L -7.866 44.49
	M -7.524 44.43
	L -6.882 45.2
	M -7.524 44.43
	L -7.182 45.37
	M -8.208 42.55
	L -7.866 43.49
	L -7.524 44.43
	M -8.208 43.55
	L -8.551 44.49
	M -8.208 44.55
	L -7.866 45.49
	M -8.208 44.55
	L -8.208 45.55
	M -8.208 42.55
	L -8.208 43.55
	L -8.208 44.55
	M -8.208 38.55
	L -8.208 39.55
	L -8.208 40.55
	L -8.208 41.55
	L -8.208 42.55
	M -8.551 39.49
	L -9.193 40.26
	M -8.893 40.43
	L -8.893 41.43
	M -8.893 40.43
	L -9.235 41.37
	M -9.535 41.2
	L -10.4 41.7
	M -10.18 41.96
	L -10.52 42.9
	M -10.18 41.96
	L -10.82 42.73
	M -8.893 40.43
	L -9.535 41.2
	L -10.18 41.96
	M -9.235 41.37
	L -9.877 42.14
	M -9.577 42.31
	L -9.577 43.31
	M -9.577 42.31
	L -9.919 43.25
	M -9.577 43.31
	L -9.919 44.25
	M -9.577 44.31
	L -9.235 45.25
	M -9.577 44.31
	L -9.577 45.31
	M -9.577 42.31
	L -9.577 43.31
	L -9.577 44.31
	M -9.919 43.25
	L -10.56 44.02
	M -10.26 44.19
	L -10.26 45.19
	M -10.26 44.19
	L -10.6 45.13
	M -9.577 42.31
	L -9.919 43.25
	L -10.26 44.19
	M -8.208 38.55
	L -8.551 39.49
	L -8.893 40.43
	L -9.235 41.37
	L -9.577 42.31
	M -5.472 31.04
	L -5.814 31.97
	L -6.156 32.91
	L -6.498 33.85
	L -6.84 34.79
	L -7.182 35.73
	L -7.524 36.67
	L -7.866 37.61
	L -8.208 38.55
	M 0 16
	L -0.342 16.94
	L -0.684 17.88
	L -1.026 18.82
	L -1.368 19.76
	L -1.71 20.7
	L -2.052 21.64
	L -2.394 22.58
	L -2.736 23.52
	L -3.078 24.46
	L -3.42 25.4
	L -3.762 26.34
	L -4.104 27.28
	L -4.446 28.22
	L -4.788 29.16
	L -5.13 30.1
	L -5.472 31.04
	M 0 17
	L -0.342 17.94
	M 0 18
	L 0.342 18.94
	M 0 18
	L 0 19
	M -0.342 18.94
	L -0.9848 19.71
	M -0.684 19.88
	L -0.684 20.88
	M -0.684 19.88
	L -1.026 20.82
	M 0 18
	L -0.342 18.94
	L -0.684 19.88
	M 0 19
	L -0.342 19.94
	M 0 20
	L 0.342 20.94
	M 0 20
	L 0 21
	M 0.342 20.94
	L 0.342 21.94
	M 0.684 21.88
	L 1.327 22.65
	M 0.684 21.88
	L 1.026 22.82
	M 0 20
	L 0.342 20.94
	L 0.684 21.88
	M 0 21
	L -0.342 21.94
	M 0 22
	L 0.342 22.94
	M 0 22
	L 0 23
	M 0 20
	L 0 21
	L 0 22
	M -0.342 20.94
	L -0.9848 21.71
	M -0.684 21.88
	L -0.684 22.88
	M -0.684 21.88
	L -1.026 22.82
	M -1.327 22.65
	L -2.193 23.15
	M -1.97 23.41
	L -2.312 24.35
	M -1.97 23.41
	L -2.612 24.18
	M -0.684 21.88
	L -1.327 22.65
	L -1.97 23.41
	M -1.026 22.82
	L -1.669 23.59
	M -1.368 23.76
	L -1.368 24.76
	M -1.368 23.76
	L -1.71 24.7
	M -1.368 24.76
	L -1.71 25.7
	M -1.368 25.76
	L -1.026 26.7
	M -1.368 25.76
	L -1.368 26.76
	M -1.368 23.76
	L -1.368 24.76
	L -1.368 25.76
	M -1.71 24.7
	L -2.353 25.46
	M -2.052 25.64
	L -2.052 26.64
	M -2.052 25.64
	L -2.394 26.58
	M -1.368 23.76
	L -1.71 24.7
	L -2.052 25.64
	M 0 20
	L -0.342 20.94
	L -0.684 21.88
	L -1.026 22.82
	L -1.368 23.76
	M 0 21
	L -0.342 21.94
	M 0 22
	L 0.342 22.94
	M 0 22
	L 0 23
	M -0.342 22.94
	L -0.9848 23.71
	M -0.684 23.88
	L -0.684 24.88
	M -0.684 23.88
	L -1.026 24.82
	M 0 22
	L -0.342 22.94
	L -0.684 23.88
	M 0 23
	L -0.342 23.94
	M 0 24
	L 0.342 24.94
	M 0 24
	L 0 25
	M 0.342 24.94
	L 0.342 25.94
	M 0.684 25.88
	L 1.327 26.65
	M 0.684 25.88
	L 1.026 26.82
	M 0 24
	L 0.342 24.94
	L 0.684 25.88
	M 0 25
	L -0.342 25.94
	M 0 26
	L 0.342 26.94
	M 0 26
	L 0 27
	M 0 24
	L 0 25
	L 0 26
	M 0.342 24.94
	L 0.342 25.94
	M 0.684 25.88
	L 1.327 26.65
	M 0.684 25.88
	L 1.026 26.82
	M 0.684 26.88
	L 0.342 27.82
	M 0.684 27.88
	L 1.026 28.82
	M 0.684 27.88
	L 0.684 28.88
	M 0.684 25.88
	L 0.684 26.88
	L 0.684 27.88
	M 1.026 26.82
	L 1.026 27.82
	M 1.368 27.76
	L 2.011 28.52
	M 1.368 27.76
	L 1.71 28.7
	M 2.011 28.52
	L 2.353 29.46
	M 2.654 29.29
	L 3.52 29.79
	M 2.654 29.29
	L 3.296 30.06
	M 1.368 27.76
	L 2.011 28.52
	L 2.654 29.29
	M 1.71 28.7
	L 1.71 29.7
	M 2.052 29.64
	L 2.695 30.4
	M 2.052 29.64
	L 2.394 30.58
	M 1.368 27.76
	L 1.71 28.7
	L 2.052 29.64
	M 0 24
	L 0.342 24.94
	L 0.684 25.88
	L 1.026 26.82
	L 1.368 27.76
	M 0 25
	L -0.342 25.94
	M 0 26
	L 0.342 26.94
	M 0 26
	L 0 27
	M -0.342 26.94
	L -0.9848 27.71
	M -0.684 27.88
	L -0.684 28.88
	M -0.684 27.88
	L -1.026 28.82
	M 0 26
	L -0.342 26.94
	L -0.684 27.88
	M 0 27
	L -0.342 27.94
	M 0 28
	L 0.342 28.94
	M 0 28
	L 0 29
	M 0.342 28.94
	L 0.342 29.94
	M 0.684 29.88
	L 1.327 30.65
	M 0.684 29.88
	L 1.026 30.82
	M 0 28
	L 0.342 28.94
	L 0.684 29.88
	M 0 29
	L -0.342 29.94
	M 0 30
	L 0.342 30.94
	M 0 30
	L 0 31
	M 0 28
	L 0 29
	L 0 30
	M 0 24
	L 0 25
	L 0 26
	L 0 27
	L 0 28
	M -0.342 24.94
	L -0.9848 25.71
	M -0.684 25.88
	L -0.684 26.88
	M -0.684 25.88
	L -1.026 26.82
	M -1.327 26.65
	L -2.193 27.15
	M -1.97 27.41
	L -2.312 28.35
	M -1.97 27.41
	L -2.612 28.18
	M -0.684 25.88
	L -1.327 26.65
	L -1.97 27.41
	M -1.026 26.82
	L -1.669 27.59
	M -1.368 27.76
	L -1.368 28.76
	M -1.368 27.76
	L -1.71 28.7
	M -1.368 28.76
	L -1.71 29.7
	M -1.368 29.76
	L -1.026 30.7
	M -1.368 29.76
	L -1.368 30.76
	M -1.368 27.76
	L -1.368 28.76
	L -1.368 29.76
	M -1.71 28.7
	L -2.353 29.46
	M -2.052 29.64
	L -2.052 30.64
	M -2.052 29.64
	L -2.394 30.58
	M -1.368 27.76
	L -1.71 28.7
	L -2.052 29.64
	M -2.011 28.52
	L -2.877 29.02
	M -2.654 29.29
	L -2.996 30.23
	M -2.654 29.29
	L -3.296 30.06
	M -3.52 29.79
	L -4.504 29.96
	M -4.386 30.29
	L -5.028 31.06
	M -4.386 30.29
	L -5.252 30.79
	M -2.654 29.29
	L -3.52 29.79
	L -4.386 30.29
	M -3.296 30.06
	L -4.162 30.56
	M -3.939 30.82
	L -4.281 31.76
	M -3.939 30.82
	L -4.582 31.59
	M -4.281 31.76
	L -4.924 32.53
	M -4.623 32.7
	L -4.623 33.7
	M -4.623 32.7
	L -4.965 33.64
	M -3.939 30.82
	L -4.281 31.76
	L -4.623 32.7
	M -4.582 31.59
	L -5.448 32.09
	M -5.225 32.36
	L -5.567 33.29
	M -5.225 32.36
	L -5.868 33.12
	M -3.939 30.82
	L -4.582 31.59
	L -5.225 32.36
	M -1.368 27.76
	L -2.011 28.52
	L -2.654 29.29
	L -3.296 30.06
	L -3.939 30.82
	M -1.71 28.7
	L -2.353 29.46
	M -2.052 29.64
	L -2.052 30.64
	M -2.052 29.64
	L -2.394 30.58
	M -2.695 30.4
	L -3.561 30.9
	M -3.338 31.17
	L -3.68 32.11
	M -3.338 31.17
	L -3.98 31.94
	M -2.052 29.64
	L -2.695 30.4
	L -3.338 31.17
	M -2.394 30.58
	L -3.037 31.34
	M -2.736 31.52
	L -2.736 32.52
	M -2.736 31.52
	L -3.078 32.46
	M -2.736 32.52
	L -3.078 33.46
	M -2.736 33.52
	L -2.394 34.46
	M -2.736 33.52
	L -2.736 34.52
	M -2.736 31.52
	L -2.736 32.52
	L -2.736 33.52
	M -3.078 32.46
	L -3.721 33.22
	M -3.42 33.4
	L -3.42 34.4
	M -3.42 33.4
	L -3.762 34.34
	M -2.736 31.52
	L -3.078 32.46
	L -3.42 33.4
	M -2.736 32.52
	L -3.078 33.46
	M -2.736 33.52
	L -2.394 34.46
	M -2.736 33.52
	L -2.736 34.52
	M -3.078 34.46
	L -3.721 35.22
	M -3.42 35.4
	L -3.42 36.4
	M -3.42 35.4
	L -3.762 36.34
	M -2.736 33.52
	L -3.078 34.46
	L -3.42 35.4
	M -2.736 34.52
	L -3.078 35.46
	M -2.736 35.52
	L -2.394 36.46
	M -2.736 35.52
	L -2.736 36.52
	M -2.394 36.46
	L -2.394 37.46
	M -2.052 37.4
	L -1.409 38.16
	M -2.052 37.4
	L -1.71 38.34
	M -2.736 35.52
	L -2.394 36.46
	L -2.052 37.4
	M -2.736 36.52
	L -3.078 37.46
	M -2.736 37.52
	L -2.394 38.46
	M -2.736 37.52
	L -2.736 38.52
	M -2.736 35.52
	L -2.736 36.52
	L -2.736 37.52
	M -2.736 31.52
	L -2.736 32.52
	L -2.736 33.52
	L -2.736 34.52
	L -2.736 35.52
	M -3.078 32.46
	L -3.721 33.22
	M -3.42 33.4
	L -3.42 34.4
	M -3.42 33.4
	L -3.762 34.34
	M -4.063 34.16
	L -4.929 34.66
	M -4.706 34.93
	L -5.048 35.87
	M -4.706 34.93
	L -5.349 35.7
	M -3.42 33.4
	L -4.063 34.16
	L -4.706 34.93
	M -3.762 34.34
	L -4.405 35.1
	M -4.104 35.28
	L -4.104 36.28
	M -4.104 35.28
	L -4.446 36.22
	M -4.104 36.28
	L -4.446 37.22
	M -4.104 37.28
	L -3.762 38.22
	M -4.104 37.28
	L -4.104 38.28
	M -4.104 35.28
	L -4.104 36.28
	L -4.104 37.28
	M -4.446 36.22
	L -5.089 36.98
	M -4.788 37.16
	L -4.788 38.16
	M -4.788 37.16
	L -5.13 38.1
	M -4.104 35.28
	L -4.446 36.22
	L -4.788 37.16
	M -2.736 31.52
	L -3.078 32.46
	L -3.42 33.4
	L -3.762 34.34
	L -4.104 35.28
	M 0 24
	L -0.342 24.94
	L -0.684 25.88
	L -1.026 26.82
	L -1.368 27.76
	L -1.71 28.7
	L -2.052 29.64
	L -2.394 30.58
	L -2.736 31.52
	M 0 25
	L -0.342 25.94
	M 0 26
	L 0.342 26.94
	M 0 26
	L 0 27
	M -0.342 26.94
	L -0.9848 27.71
	M -0.684 27.88
	L -0.684 28.88
	M -0.684 27.88
	L -1.026 28.82
	M 0 26
	L -0.342 26.94
	L -0.684 27.88
	M 0 27
	L -0.342 27.94
	M 0 28
	L 0.342 28.94
	M 0 28
	L 0 29
	M 0.342 28.94
	L 0.342 29.94
	M 0.684 29.88
	L 1.327 30.65
	M 0.684 29.88
	L 1.026 30.82
	M 0 28
	L 0.342 28.94
	L 0.684 29.88
	M 0 29
	L -0.342 29.94
	M 0 30
	L 0.342 30.94
	M 0 30
	L 0 31
	M 0 28
	L 0 29
	L 0 30
	M -0.342 28.94
	L -0.9848 29.71
	M -0.684 29.88
	L -0.684 30.88
	M -0.684 29.88
	L -1.026 30.82
	M -1.327 30.65
	L -2.193 31.15
	M -1.97 31.41
	L -2.312 32.35
	M -1.97 31.41
	L -2.612 32.18
	M -0.684 29.88
	L -1.327 30.65
	L -1.97 31.41
	M -1.026 30.82
	L -1.669 31.59
	M -1.368 31.76
	L -1.368 32.76
	M -1.368 31.76
	L -1.71 32.7
	M -1.368 32.76
	L -1.71 33.7
	M -1.368 33.76
	L -1.026 34.7
	M -1.368 33.76
	L -1.368 34.76
	M -1.368 31.76
	L -1.368 32.76
	L -1.368 33.76
	M -1.71 32.7
	L -2.353 33.46
	M -2.052 33.64
	L -2.052 34.64
	M -2.052 33.64
	L -2.394 34.58
	M -1.368 31.76
	L -1.71 32.7
	L -2.052 33.64
	M 0 28
	L -0.342 28.94
	L -0.684 29.88
	L -1.026 30.82
	L -1.368 31.76
	M 0 29
	L -0.342 29.94
	M 0 30
	L 0.342 30.94
	M 0 30
	L 0 31
	M -0.342 30.94
	L -0.9848 31.71
	M -0.684 31.88
	L -0.684 32.88
	M -0.684 31.88
	L -1.026 32.82
	M 0 30
	L -0.342 30.94
	L -0.684 31.88
	M 0 31
	L -0.342 31.94
	M 0 32
	L 0.342 32.94
	M 0 32
	L 0 33
	M 0.342 32.94
	L 0.342 33.94
	M 0.684 33.88
	L 1.327 34.65
	M 0.684 33.88
	L 1.026 34.82
	M 0 32
	L 0.342 32.94
	L 0.684 33.88
	M 0 33
	L -0.342 33.94
	M 0 34
	L 0.342 34.94
	M 0 34
	L 0 35
	M 0 32
	L 0 33
	L 0 34
	M 0.342 32.94
	L 0.342 33.94
	M 0.684 33.88
	L 1.327 34.65
	M 0.684 33.88
	L 1.026 34.82
	M 0.684 34.88
	L 0.342 35.82
	M 0.684 35.88
	L 1.026 36.82
	M 0.684 35.88
	L 0.684 36.88
	M 0.684 33.88
	L 0.684 34.88
	L 0.684 35.88
	M 1.026 34.82
	L 1.026 35.82
	M 1.368 35.76
	L 2.011 36.52
	M 1.368 35.76
	L 1.71 36.7
	M 2.011 36.52
	L 2.353 37.46
	M 2.654 37.29
	L 3.52 37.79
	M 2.654 37.29
	L 3.296 38.06
	M 1.368 35.76
	L 2.011 36.52
	L 2.654 37.29
	M 1.71 36.7
	L 1.71 37.7
	M 2.052 37.64
	L 2.695 38.4
	M 2.052 37.64
	L 2.394 38.58
	M 1.368 35.76
	L 1.71 36.7
	L 2.052 37.64
	M 0 32
	L 0.342 32.94
	L 0.684 33.88
	L 1.026 34.82
	L 1.368 35.76
	M 0 33
	L -0.342 33.94
	M 0 34
	L 0.342 34.94
	M 0 34
	L 0 35
	M -0.342 34.94
	L -0.9848 35.71
	M -0.684 35.88
	L -0.684 36.88
	M -0.684 35.88
	L -1.026 36.82
	M 0 34
	L -0.342 34.94
	L -0.684 35.88
	M 0 35
	L -0.342 35.94
	M 0 36
	L 0.342 36.94
	M 0 36
	L 0 37
	M 0.342 36.94
	L 0.342 37.94
	M 0.684 37.88
	L 1.327 38.65
	M 0.684 37.88
	L 1.026 38.82
	M 0 36
	L 0.342 36.94
	L 0.684 37.88
	M 0 37
	L -0.342 37.94
	M 0 38
	L 0.342 38.94
	M 0 38
	L 0 39
	M 0 36
	L 0 37
	L 0 38
	M 0 32
	L 0 33
	L 0 34
	L 0 35
	L 0 36
	M 0.342 32.94
	L 0.342 33.94
	M 0.684 33.88
	L 1.327 34.65
	M 0.684 33.88
	L 1.026 34.82
	M 0.684 34.88
	L 0.342 35.82
	M 0.684 35.88
	L 1.026 36.82
	M 0.684 35.88
	L 0.684 36.88
	M 0.684 33.88
	L 0.684 34.88
	L 0.684 35.88
	M 1.026 34.82
	L 1.026 35.82
	M 1.368 35.76
	L 2.011 36.52
	M 1.368 35.76
	L 1.71 36.7
	M 2.011 36.52
	L 2.353 37.46
	M 2.654 37.29
	L 3.52 37.79
	M 2.654 37.29
	L 3.296 38.06
	M 1.368 35.76
	L 2.011 36.52
	L 2.654 37.29
	M 1.71 36.7
	L 1.71 37.7
	M 2.052 37.64
	L 2.695 38.4
	M 2.052 37.64
	L 2.394 38.58
	M 1.368 35.76
	L 1.71 36.7
	L 2.052 37.64
	M 1.368 36.76
	L 1.026 37.7
	M 1.368 37.76
	L 1.71 38.7
	M 1.368 37.76
	L 1.368 38.76
	M 1.026 38.7
	L 0.3833 39.46
	M 0.684 39.64
	L 0.684 40.64
	M 0.684 39.64
	L 0.342 40.58
	M 1.368 37.76
	L 1.026 38.7
	L 0.684 39.64
	M 1.368 38.76
	L 1.026 39.7
	M 1.368 39.76
	L 1.71 40.7
	M 1.368 39.76
	L 1.368 40.76
	M 1.71 40.7
	L 1.71 41.7
	M 2.052 41.64
	L 2.695 42.4
	M 2.052 41.64
	L 2.394 42.58
	M 1.368 39.76
	L 1.71 40.7
	L 2.052 41.64
	M 1.368 40.76
	L 1.026 41.7
	M 1.368 41.76
	L 1.71 42.7
	M 1.368 41.76
	L 1.368 42.76
	M 1.368 39.76
	L 1.368 40.76
	L 1.368 41.76
	M 1.368 35.76
	L 1.368 36.76
	L 1.368 37.76
	L 1.368 38.76
	L 1.368 39.76
	M 1.71 36.7
	L 1.71 37.7
	M 2.052 37.64
	L 2.695 38.4
	M 2.052 37.64
	L 2.394 38.58
	M 2.052 38.64
	L 1.71 39.58
	M 2.052 39.64
	L 2.394 40.58
	M 2.052 39.64
	L 2.052 40.64
	M 2.052 37.64
	L 2.052 38.64
	L 2.052 39.64
	M 2.394 38.58
	L 2.394 39.58
	M 2.736 39.52
	L 3.379 40.28
	M 2.736 39.52
	L 3.078 40.46
	M 3.379 40.28
	L 3.721 41.22
	M 4.022 41.05
	L 4.888 41.55
	M 4.022 41.05
	L 4.665 41.82
	M 2.736 39.52
	L 3.379 40.28
	L 4.022 41.05
	M 3.078 40.46
	L 3.078 41.46
	M 3.42 41.4
	L 4.063 42.16
	M 3.42 41.4
	L 3.762 42.34
	M 2.736 39.52
	L 3.078 40.46
	L 3.42 41.4
	M 3.379 40.28
	L 3.721 41.22
	M 4.022 41.05
	L 4.888 41.55
	M 4.022 41.05
	L 4.665 41.82
	M 4.364 41.99
	L 4.364 42.99
	M 4.706 42.93
	L 5.349 43.7
	M 4.706 42.93
	L 5.048 43.87
	M 4.022 41.05
	L 4.364 41.99
	L 4.706 42.93
	M 4.665 41.82
	L 5.007 42.76
	M 5.307 42.58
	L 6.173 43.08
	M 5.307 42.58
	L 5.95 43.35
	M 6.173 43.08
	L 6.816 43.85
	M 7.039 43.58
	L 8.024 43.76
	M 7.039 43.58
	L 7.905 44.08
	M 5.307 42.58
	L 6.173 43.08
	L 7.039 43.58
	M 5.95 43.35
	L 6.292 44.29
	M 6.593 44.11
	L 7.459 44.61
	M 6.593 44.11
	L 7.236 44.88
	M 5.307 42.58
	L 5.95 43.35
	L 6.593 44.11
	M 2.736 39.52
	L 3.379 40.28
	L 4.022 41.05
	L 4.665 41.82
	L 5.307 42.58
	M 3.078 40.46
	L 3.078 41.46
	M 3.42 41.4
	L 4.063 42.16
	M 3.42 41.4
	L 3.762 42.34
	M 3.42 42.4
	L 3.078 43.34
	M 3.42 43.4
	L 3.762 44.34
	M 3.42 43.4
	L 3.42 44.4
	M 3.42 41.4
	L 3.42 42.4
	L 3.42 43.4
	M 3.762 42.34
	L 3.762 43.34
	M 4.104 43.28
	L 4.747 44.04
	M 4.104 43.28
	L 4.446 44.22
	M 4.747 44.04
	L 5.089 44.98
	M 5.39 44.81
	L 6.256 45.31
	M 5.39 44.81
	L 6.033 45.57
	M 4.104 43.28
	L 4.747 44.04
	L 5.39 44.81
	M 4.446 44.22
	L 4.446 45.22
	M 4.788 45.16
	L 5.431 45.92
	M 4.788 45.16
	L 5.13 46.1
	M 4.104 43.28
	L 4.446 44.22
	L 4.788 45.16
	M 2.736 39.52
	L 3.078 40.46
	L 3.42 41.4
	L 3.762 42.34
	L 4.104 43.28
	M 0 32
	L 0.342 32.94
	L 0.684 33.88
	L 1.026 34.82
	L 1.368 35.76
	L 1.71 36.7
	L 2.052 37.64
	L 2.394 38.58
	L 2.736 39.52
	M 0 33
	L -0.342 33.94
	M 0 34
	L 0.342 34.94
	M 0 34
	L 0 35
	M -0.342 34.94
	L -0.9848 35.71
	M -0.684 35.88
	L -0.684 36.88
	M -0.684 35.88
	L -1.026 36.82
	M 0 34
	L -0.342 34.94
	L -0.684 35.88
	M 0 35
	L -0.342 35.94
	M 0 36
	L 0.342 36.94
	M 0 36
	L 0 37
	M 0.342 36.94
	L 0.342 37.94
	M 0.684 37.88
	L 1.327 38.65
	M 0.684 37.88
	L 1.026 38.82
	M 0 36
	L 0.342 36.94
	L 0.684 37.88
	M 0 37
	L -0.342 37.94
	M 0 38
	L 0.342 38.94
	M 0 38
	L 0 39
	M 0 36
	L 0 37
	L 0 38
	M -0.342 36.94
	L -0.9848 37.71
	M -0.684 37.88
	L -0.684 38.88
	M -0.684 37.88
	L -1.026 38.82
	M -1.327 38.65
	L -2.193 39.15
	M -1.97 39.41
	L -2.312 40.35
	M -1.97 39.41
	L -2.612 40.18
	M -0.684 37.88
	L -1.327 38.65
	L -1.97 39.41
	M -1.026 38.82
	L -1.669 39.59
	M -1.368 39.76
	L -1.368 40.76
	M -1.368 39.76
	L -1.71 40.7
	M -1.368 40.76
	L -1.71 41.7
	M -1.368 41.76
	L -1.026 42.7
	M -1.368 41.76
	L -1.368 42.76
	M -1.368 39.76
	L -1.368 40.76
	L -1.368 41.76
	M -1.71 40.7
	L -2.353 41.46
	M -2.052 41.64
	L -2.052 42.64
	M -2.052 41.64
	L -2.394 42.58
	M -1.368 39.76
	L -1.71 40.7
	L -2.052 41.64
	M 0 36
	L -0.342 36.94
	L -0.684 37.88
	L -1.026 38.82
	L -1.368 39.76
	M 0 37
	L -0.342 37.94
	M 0 38
	L 0.342 38.94
	M 0 38
	L 0 39
	M -0.342 38.94
	L -0.9848 39.71
	M -0.684 39.88
	L -0.684 40.88
	M -0.684 39.88
	L -1.026 40.82
	M 0 38
	L -0.342 38.94
	L -0.684 39.88
	M 0 39
	L -0.342 39.94
	M 0 40
	L 0.342 40.94
	M 0 40
	L 0 41
	M 0.342 40.94
	L 0.342 41.94
	M 0.684 41.88
	L 1.327 42.65
	M 0.684 41.88
	L 1.026 42.82
	M 0 40
	L 0.342 40.94
	L 0.684 41.88
	M 0 41
	L -0.342 41.94
	M 0 42
	L 0.342 42.94
	M 0 42
	L 0 43
	M 0 40
	L 0 41
	L 0 42
	M 0.342 40.94
	L 0.342 41.94
	M 0.684 41.88
	L 1.327 42.65
	M 0.684 41.88
	L 1.026 42.82
	M 0.684 42.88
	L 0.342 43.82
	M 0.684 43.88
	L 1.026 44.82
	M 0.684 43.88
	L 0.684 44.88
	M 0.684 41.88
	L 0.684 42.88
	L 0.684 43.88
	M 1.026 42.82
	L 1.026 43.82
	M 1.368 43.76
	L 2.011 44.52
	M 1.368 43.76
	L 1.71 44.7
	M 2.011 44.52
	L 2.353 45.46
	M 2.654 45.29
	L 3.52 45.79
	M 2.654 45.29
	L 3.296 46.06
	M 1.368 43.76
	L 2.011 44.52
	L 2.654 45.29
	M 1.71 44.7
	L 1.71 45.7
	M 2.052 45.64
	L 2.695 46.4
	M 2.052 45.64
	L 2.394 46.58
	M 1.368 43.76
	L 1.71 44.7
	L 2.052 45.64
	M 0 40
	L 0.342 40.94
	L 0.684 41.88
	L 1.026 42.82
	L 1.368 43.76
	M 0 41
	L -0.342 41.94
	M 0 42
	L 0.342 42.94
	M 0 42
	L 0 43
	M -0.342 42.94
	L -0.9848 43.71
	M -0.684 43.88
	L -0.684 44.88
	M -0.684 43.88
	L -1.026 44.82
	M 0 42
	L -0.342 42.94
	L -0.684 43.88
	M 0 43
	L -0.342 43.94
	M 0 44
	L 0.342 44.94
	M 0 44
	L 0 45
	M 0.342 44.94
	L 0.342 45.94
	M 0.684 45.88
	L 1.327 46.65
	M 0.684 45.88
	L 1.026 46.82
	M 0 44
	L 0.342 44.94
	L 0.684 45.88
	M 0 45
	L -0.342 45.94
	M 0 46
	L 0.342 46.94
	M 0 46
	L 0 47
	M 0 44
	L 0 45
	L 0 46
	M 0 40
	L 0 41
	L 0 42
	L 0 43
	L 0 44
	M 0 32
	L 0 33
	L 0 34
	L 0 35
	L 0 36
	L 0 37
	L 0 38
	L 0 39
	L 0 40
	M 0.342 32.94
	L 0.342 33.94
	M 0.684 33.88
	L 1.327 34.65
	M 0.684 33.88
	L 1.026 34.82
	M 0.684 34.88
	L 0.342 35.82
	M 0.684 35.88
	L 1.026 36.82
	M 0.684 35.88
	L 0.684 36.88
	M 0.684 33.88
	L 0.684 34.88
	L 0.684 35.88
	M 1.026 34.82
	L 1.026 35.82
	M 1.368 35.76
	L 2.011 36.52
	M 1.368 35.76
	L 1.71 36.7
	M 2.011 36.52
	L 2.353 37.46
	M 2.654 37.29
	L 3.52 37.79
	M 2.654 37.29
	L 3.296 38.06
	M 1.368 35.76
	L 2.011 36.52
	L 2.654 37.29
	M 1.71 36.7
	L 1.71 37.7
	M 2.052 37.64
	L 2.695 38.4
	M 2.052 37.64
	L 2.394 38.58
	M 1.368 35.76
	L 1.71 36.7
	L 2.052 37.64
	M 1.368 36.76
	L 1.026 37.7
	M 1.368 37.76
	L 1.71 38.7
	M 1.368 37.76
	L 1.368 38.76
	M 1.026 38.7
	L 0.3833 39.46
	M 0.684 39.64
	L 0.684 40.64
	M 0.684 39.64
	L 0.342 40.58
	M 1.368 37.76
	L 1.026 38.7
	L 0.684 39.64
	M 1.368 38.76
	L 1.026 39.7
	M 1.368 39.76
	L 1.71 40.7
	M 1.368 39.76
	L 1.368 40.76
	M 1.71 40.7
	L 1.71 41.7
	M 2.052 41.64
	L 2.695 42.4
	M 2.052 41.64
	L 2.394 42.58
	M 1.368 39.76
	L 1.71 40.7
	L 2.052 41.64
	M 1.368 40.76
	L 1.026 41.7
	M 1.368 41.76
	L 1.71 42.7
	M 1.368 41.76
	L 1.368 42.76
	M 1.368 39.76
	L 1.368 40.76
	L 1.368 41.76
	M 1.368 35.76
	L 1.368 36.76
	L 1.368 37.76
	L 1.368 38.76
	L 1.368 39.76
	M 1.71 36.7
	L 1.71 37.7
	M 2.052 37.64
	L 2.695 38.4
	M 2.052 37.64
	L 2.394 38.58
	M 2.052 38.64
	L 1.71 39.58
	M 2.052 39.64
	L 2.394 40.58
	M 2.052 39.64
	L 2.052 40.64
	M 2.052 37.64
	L 2.052 38.64
	L 2.052 39.64
	M 2.394 38.58
	L 2.394 39.58
	M 2.736 39.52
	L 3.379 40.28
	M 2.736 39.52
	L 3.078 40.46
	M 3.379 40.28
	L 3.721 41.22
	M 4.022 41.05
	L 4.888 41.55
	M 4.022 41.05
	L 4.665 41.82
	M 2.736 39.52
	L 3.379 40.28
	L 4.022 41.05
	M 3.078 40.46
	L 3.078 41.46
	M 3.42 41.4
	L 4.063 42.16
	M 3.42 41.4
	L 3.762 42.34
	M 2.736 39.52
	L 3.078 40.46
	L 3.42 41.4
	M 3.379 40.28
	L 3.721 41.22
	M 4.022 41.05
	L 4.888 41.55
	M 4.022 41.05
	L 4.665 41.82
	M 4.364 41.99
	L 4.364 42.99
	M 4.706 42.93
	L 5.349 43.7
	M 4.706 42.93
	L 5.048 43.87
	M 4.022 41.05
	L 4.364 41.99
	L 4.706 42.93
	M 4.665 41.82
	L 5.007 42.76
	M 5.307 42.58
	L 6.173 43.08
	M 5.307 42.58
	L 5.95 43.35
	M 6.173 43.08
	L 6.816 43.85
	M 7.039 43.58
	L 8.024 43.76
	M 7.039 43.58
	L 7.905 44.08
	M 5.307 42.58
	L 6.173 43.08
	L 7.039 43.58
	M 5.95 43.35
	L 6.292 44.29
	M 6.593 44.11
	L 7.459 44.61
	M 6.593 44.11
	L 7.236 44.88
	M 5.307 42.58
	L 5.95 43.35
	L 6.593 44.11
	M 2.736 39.52
	L 3.379 40.28
	L 4.022 41.05
	L 4.665 41.82
	L 5.307 42.58
	M 3.078 40.46
	L 3.078 41.46
	M 3.42 41.4
	L 4.063 42.16
	M 3.42 41.4
	L 3.762 42.34
	M 3.42 42.4
	L 3.078 43.34
	M 3.42 43.4
	L 3.762 44.34
	M 3.42 43.4
	L 3.42 44.4
	M 3.42 41.4
	L 3.42 42.4
	L 3.42 43.4
	M 3.762 42.34
	L 3.762 43.34
	M 4.104 43.28
	L 4.747 44.04
	M 4.104 43.28
	L 4.446 44.22
	M 4.747 44.04
	L 5.089 44.98
	M 5.39 44.81
	L 6.256 45.31
	M 5.39 44.81
	L 6.033 45.57
	M 4.104 43.28
	L 4.747 44.04
	L 5.39 44.81
	M 4.446 44.22
	L 4.446 45.22
	M 4.788 45.16
	L 5.431 45.92
	M 4.788 45.16
	L 5.13 46.1
	M 4.104 43.28
	L 4.446 44.22
	L 4.788 45.16
	M 2.736 39.52
	L 3.078 40.46
	L 3.42 41.4
	L 3.762 42.34
	L 4.104 43.28
	M 2.736 40.52
	L 2.394 41.46
	M 2.736 41.52
	L 3.078 42.46
	M 2.736 41.52
	L 2.736 42.52
	M 2.394 42.46
	L 1.751 43.22
	M 2.052 43.4
	L 2.052 44.4
	M 2.052 43.4
	L 1.71 44.34
	M 2.736 41.52
	L 2.394 42.46
	L 2.052 43.4
	M 2.736 42.52
	L 2.394 43.46
	M 2.736 43.52
	L 3.078 44.46
	M 2.736 43.52
	L 2.736 44.52
	M 3.078 44.46
	L 3.078 45.46
	M 3.42 45.4
	L 4.063 46.16
	M 3.42 45.4
	L 3.762 46.34
	M 2.736 43.52
	L 3.078 44.46
	L 3.42 45.4
	M 2.736 44.52
	L 2.394 45.46
	M 2.736 45.52
	L 3.078 46.46
	M 2.736 45.52
	L 2.736 46.52
	M 2.736 43.52
	L 2.736 44.52
	L 2.736 45.52
	M 2.394 44.46
	L 1.751 45.22
	M 2.052 45.4
	L 2.052 46.4
	M 2.052 45.4
	L 1.71 46.34
	M 1.409 46.16
	L 0.5433 46.66
	M 0.7665 46.93
	L 0.4245 47.87
	M 0.7665 46.93
	L 0.1238 47.7
	M 2.052 45.4
	L 1.409 46.16
	L 0.7665 46.93
	M 1.71 46.34
	L 1.067 47.1
	M 1.368 47.28
	L 1.368 48.28
	M 1.368 47.28
	L 1.026 48.22
	M 1.368 48.28
	L 1.026 49.22
	M 1.368 49.28
	L 1.71 50.22
	M 1.368 49.28
	L 1.368 50.28
	M 1.368 47.28
	L 1.368 48.28
	L 1.368 49.28
	M 1.026 48.22
	L 0.3833 48.98
	M 0.684 49.16
	L 0.684 50.16
	M 0.684 49.16
	L 0.342 50.1
	M 1.368 47.28
	L 1.026 48.22
	L 0.684 49.16
	M 2.736 43.52
	L 2.394 44.46
	L 2.052 45.4
	L 1.71 46.34
	L 1.368 47.28
	M 2.736 44.52
	L 2.394 45.46
	M 2.736 45.52
	L 3.078 46.46
	M 2.736 45.52
	L 2.736 46.52
	M 2.394 46.46
	L 1.751 47.22
	M 2.052 47.4
	L 2.052 48.4
	M 2.052 47.4
	L 1.71 48.34
	M 2.736 45.52
	L 2.394 46.46
	L 2.052 47.4
	M 2.736 46.52
	L 2.394 47.46
	M 2.736 47.52
	L 3.078 48.46
	M 2.736 47.52
	L 2.736 48.52
	M 3.078 48.46
	L 3.078 49.46
	M 3.42 49.4
	L 4.063 50.16
	M 3.42 49.4
	L 3.762 50.34
	M 2.736 47.52
	L 3.078 48.46
	L 3.42 49.4
	M 2.736 48.52
	L 2.394 49.46
	M 2.736 49.52
	L 3.078 50.46
	M 2.736 49.52
	L 2.736 50.52
	M 2.736 47.52
	L 2.736 48.52
	L 2.736 49.52
	M 3.078 48.46
	L 3.078 49.46
	M 3.42 49.4
	L 4.063 50.16
	M 3.42 49.4
	L 3.762 50.34
	M 3.42 50.4
	L 3.078 51.34
	M 3.42 51.4
	L 3.762 52.34
	M 3.42 51.4
	L 3.42 52.4
	M 3.42 49.4
	L 3.42 50.4
	L 3.42 51.4
	M 3.762 50.34
	L 3.762 51.34
	M 4.104 51.28
	L 4.747 52.04
	M 4.104 51.28
	L 4.446 52.22
	M 4.747 52.04
	L 5.089 52.98
	M 5.39 52.81
	L 6.256 53.31
	M 5.39 52.81
	L 6.033 53.57
	M 4.104 51.28
	L 4.747 52.04
	L 5.39 52.81
	M 4.446 52.22
	L 4.446 53.22
	M 4.788 53.16
	L 5.431 53.92
	M 4.788 53.16
	L 5.13 54.1
	M 4.104 51.28
	L 4.446 52.22
	L 4.788 53.16
	M 2.736 47.52
	L 3.078 48.46
	L 3.42 49.4
	L 3.762 50.34
	L 4.104 51.28
	M 2.736 48.52
	L 2.394 49.46
	M 2.736 49.52
	L 3.078 50.46
	M 2.736 49.52
	L 2.736 50.52
	M 2.394 50.46
	L 1.751 51.22
	M 2.052 51.4
	L 2.052 52.4
	M 2.052 51.4
	L 1.71 52.34
	M 2.736 49.52
	L 2.394 50.46
	L 2.052 51.4
	M 2.736 50.52
	L 2.394 51.46
	M 2.736 51.52
	L 3.078 52.46
	M 2.736 51.52
	L 2.736 52.52
	M 3.078 52.46
	L 3.078 53.46
	M 3.42 53.4
	L 4.063 54.16
	M 3.42 53.4
	L 3.762 54.34
	M 2.736 51.52
	L 3.078 52.46
	L 3.42 53.4
	M 2.736 52.52
	L 2.394 53.46
	M 2.736 53.52
	L 3.078 54.46
	M 2.736 53.52
	L 2.736 54.52
	M 2.736 51.52
	L 2.736 52.52
	L 2.736 53.52
	M 2.736 47.52
	L 2.736 48.52
	L 2.736 49.52
	L 2.736 50.52
	L 2.736 51.52
	M 2.736 39.52
	L 2.736 40.52
	L 2.736 41.52
	L 2.736 42.52
	L 2.736 43.52
	L 2.736 44.52
	L 2.736 45.52
	L 2.736 46.52
	L 2.736 47.52
	M 3.078 40.46
	L 3.078 41.46
	M 3.42 41.4
	L 4.063 42.16
	M 3.42 41.4
	L 3.762 42.34
	M 3.42 42.4
	L 3.078 43.34
	M 3.42 43.4
	L 3.762 44.34
	M 3.42 43.4
	L 3.42 44.4
	M 3.42 41.4
	L 3.42 42.4
	L 3.42 43.4
	M 3.762 42.34
	L 3.762 43.34
	M 4.104 43.28
	L 4.747 44.04
	M 4.104 43.28
	L 4.446 44.22
	M 4.747 44.04
	L 5.089 44.98
	M 5.39 44.81
	L 6.256 45.31
	M 5.39 44.81
	L 6.033 45.57
	M 4.104 43.28
	L 4.747 44.04
	L 5.39 44.81
	M 4.446 44.22
	L 4.446 45.22
	M 4.788 45.16
	L 5.431 45.92
	M 4.788 45.16
	L 5.13 46.1
	M 4.104 43.28
	L 4.446 44.22
	L 4.788 45.16
	M 4.104 44.28
	L 3.762 45.22
	M 4.104 45.28
	L 4.446 46.22
	M 4.104 45.28
	L 4.104 46.28
	M 3.762 46.22
	L 3.119 46.98
	M 3.42 47.16
	L 3.42 48.16
	M 3.42 47.16
	L 3.078 48.1
	M 4.104 45.28
	L 3.762 46.22
	L 3.42 47.16
	M 4.104 46.28
	L 3.762 47.22
	M 4.104 47.28
	L 4.446 48.22
	M 4.104 47.28
	L 4.104 48.28
	M 4.446 48.22
	L 4.446 49.22
	M 4.788 49.16
	L 5.431 49.92
	M 4.788 49.16
	L 5.13 50.1
	M 4.104 47.28
	L 4.446 48.22
	L 4.788 49.16
	M 4.104 48.28
	L 3.762 49.22
	M 4.104 49.28
	L 4.446 50.22
	M 4.104 49.28
	L 4.104 50.28
	M 4.104 47.28
	L 4.104 48.28
	L 4.104 49.28
	M 4.104 43.28
	L 4.104 44.28
	L 4.104 45.28
	L 4.104 46.28
	L 4.104 47.28
	M 4.446 44.22
	L 4.446 45.22
	M 4.788 45.16
	L 5.431 45.92
	M 4.788 45.16
	L 5.13 46.1
	M 4.788 46.16
	L 4.446 47.1
	M 4.788 47.16
	L 5.13 48.1
	M 4.788 47.16
	L 4.788 48.16
	M 4.788 45.16
	L 4.788 46.16
	L 4.788 47.16
	M 5.13 46.1
	L 5.13 47.1
	M 5.472 47.04
	L 6.115 47.8
	M 5.472 47.04
	L 5.814 47.97
	M 6.115 47.8
	L 6.457 48.74
	M 6.758 48.57
	L 7.624 49.07
	M 6.758 48.57
	L 7.401 49.33
	M 5.472 47.04
	L 6.115 47.8
	L 6.758 48.57
	M 5.814 47.97
	L 5.814 48.97
	M 6.156 48.91
	L 6.799 49.68
	M 6.156 48.91
	L 6.498 49.85
	M 5.472 47.04
	L 5.814 47.97
	L 6.156 48.91
	M 6.115 47.8
	L 6.457 48.74
	M 6.758 48.57
	L 7.624 49.07
	M 6.758 48.57
	L 7.401 49.33
	M 7.1 49.51
	L 7.1 50.51
	M 7.442 50.45
	L 8.085 51.21
	M 7.442 50.45
	L 7.784 51.39
	M 6.758 48.57
	L 7.1 49.51
	L 7.442 50.45
	M 7.401 49.33
	L 7.743 50.27
	M 8.043 50.1
	L 8.909 50.6
	M 8.043 50.1
	L 8.686 50.87
	M 8.909 50.6
	L 9.552 51.37
	M 9.776 51.1
	L 10.76 51.27
	M 9.776 51.1
	L 10.64 51.6
	M 8.043 50.1
	L 8.909 50.6
	L 9.776 51.1
	M 8.686 50.87
	L 9.028 51.8
	M 9.329 51.63
	L 10.2 52.13
	M 9.329 51.63
	L 9.972 52.4
	M 8.043 50.1
	L 8.686 50.87
	L 9.329 51.63
	M 5.472 47.04
	L 6.115 47.8
	L 6.758 48.57
	L 7.401 49.33
	L 8.043 50.1
	M 5.814 47.97
	L 5.814 48.97
	M 6.156 48.91
	L 6.799 49.68
	M 6.156 48.91
	L 6.498 49.85
	M 6.156 49.91
	L 5.814 50.85
	M 6.156 50.91
	L 6.498 51.85
	M 6.156 50.91
	L 6.156 51.91
	M 6.156 48.91
	L 6.156 49.91
	L 6.156 50.91
	M 6.498 49.85
	L 6.498 50.85
	M 6.84 50.79
	L 7.483 51.56
	M 6.84 50.79
	L 7.182 51.73
	M 7.483 51.56
	L 7.825 52.5
	M 8.126 52.33
	L 8.992 52.83
	M 8.126 52.33
	L 8.769 53.09
	M 6.84 50.79
	L 7.483 51.56
	L 8.126 52.33
	M 7.182 51.73
	L 7.182 52.73
	M 7.524 52.67
	L 8.167 53.44
	M 7.524 52.67
	L 7.866 53.61
	M 6.84 50.79
	L 7.182 51.73
	L 7.524 52.67
	M 5.472 47.04
	L 5.814 47.97
	L 6.156 48.91
	L 6.498 49.85
	L 6.84 50.79
	M 6.115 47.8
	L 6.457 48.74
	M 6.758 48.57
	L 7.624 49.07
	M 6.758 48.57
	L 7.401 49.33
	M 7.1 49.51
	L 7.1 50.51
	M 7.442 50.45
	L 8.085 51.21
	M 7.442 50.45
	L 7.784 51.39
	M 6.758 48.57
	L 7.1 49.51
	L 7.442 50.45
	M 7.401 49.33
	L 7.743 50.27
	M 8.043 50.1
	L 8.909 50.6
	M 8.043 50.1
	L 8.686 50.87
	M 8.909 50.6
	L 9.552 51.37
	M 9.776 51.1
	L 10.76 51.27
	M 9.776 51.1
	L 10.64 51.6
	M 8.043 50.1
	L 8.909 50.6
	L 9.776 51.1
	M 8.686 50.87
	L 9.028 51.8
	M 9.329 51.63
	L 10.2 52.13
	M 9.329 51.63
	L 9.972 52.4
	M 8.043 50.1
	L 8.686 50.87
	L 9.329 51.63
	M 8.385 51.04
	L 8.385 52.04
	M 8.728 51.98
	L 9.37 52.74
	M 8.728 51.98
	L 9.07 52.92
	M 8.728 52.98
	L 8.385 53.92
	M 8.728 53.98
	L 9.07 54.92
	M 8.728 53.98
	L 8.728 54.98
	M 8.728 51.98
	L 8.728 52.98
	L 8.728 53.98
	M 9.07 52.92
	L 9.07 53.92
	M 9.412 53.86
	L 10.05 54.62
	M 9.412 53.86
	L 9.754 54.8
	M 10.05 54.62
	L 10.4 55.56
	M 10.7 55.39
	L 11.56 55.89
	M 10.7 55.39
	L 11.34 56.16
	M 9.412 53.86
	L 10.05 54.62
	L 10.7 55.39
	M 9.754 54.8
	L 9.754 55.8
	M 10.1 55.74
	L 10.74 56.5
	M 10.1 55.74
	L 10.44 56.68
	M 9.412 53.86
	L 9.754 54.8
	L 10.1 55.74
	M 8.043 50.1
	L 8.385 51.04
	L 8.728 51.98
	L 9.07 52.92
	L 9.412 53.86
	M 8.686 50.87
	L 9.028 51.8
	M 9.329 51.63
	L 10.2 52.13
	M 9.329 51.63
	L 9.972 52.4
	M 9.671 52.57
	L 9.671 53.57
	M 10.01 53.51
	L 10.66 54.28
	M 10.01 53.51
	L 10.36 54.45
	M 9.329 51.63
	L 9.671 52.57
	L 10.01 53.51
	M 9.972 52.4
	L 10.31 53.34
	M 10.61 53.16
	L 11.48 53.66
	M 10.61 53.16
	L 11.26 53.93
	M 11.48 53.66
	L 12.12 54.43
	M 12.35 54.16
	L 13.33 54.34
	M 12.35 54.16
	L 13.21 54.66
	M 10.61 53.16
	L 11.48 53.66
	L 12.35 54.16
	M 11.26 53.93
	L 11.6 54.87
	M 11.9 54.7
	L 12.77 55.2
	M 11.9 54.7
	L 12.54 55.46
	M 10.61 53.16
	L 11.26 53.93
	L 11.9 54.7
	M 11.48 53.66
	L 12.12 54.43
	M 12.35 54.16
	L 13.33 54.34
	M 12.35 54.16
	L 13.21 54.66
	M 12.99 54.93
	L 13.33 55.87
	M 13.63 55.7
	L 14.5 56.2
	M 13.63 55.7
	L 14.28 56.46
	M 12.35 54.16
	L 12.99 54.93
	L 13.63 55.7
	M 13.21 54.66
	L 13.86 55.43
	M 14.08 55.16
	L 15.06 55.34
	M 14.08 55.16
	L 14.94 55.66
	M 15.06 55.34
	L 15.93 55.84
	M 16.05 55.51
	L 17.03 55.34
	M 16.05 55.51
	L 17.03 55.68
	M 14.08 55.16
	L 15.06 55.34
	L 16.05 55.51
	M 14.94 55.66
	L 15.59 56.43
	M 15.81 56.16
	L 16.8 56.34
	M 15.81 56.16
	L 16.68 56.66
	M 14.08 55.16
	L 14.94 55.66
	L 15.81 56.16
	M 10.61 53.16
	L 11.48 53.66
	L 12.35 54.16
	L 13.21 54.66
	L 14.08 55.16
	M 11.26 53.93
	L 11.6 54.87
	M 11.9 54.7
	L 12.77 55.2
	M 11.9 54.7
	L 12.54 55.46
	M 12.24 55.64
	L 12.24 56.64
	M 12.58 56.57
	L 13.23 57.34
	M 12.58 56.57
	L 12.93 57.51
	M 11.9 54.7
	L 12.24 55.64
	L 12.58 56.57
	M 12.54 55.46
	L 12.89 56.4
	M 13.19 56.23
	L 14.05 56.73
	M 13.19 56.23
	L 13.83 56.99
	M 14.05 56.73
	L 14.69 57.49
	M 14.92 57.23
	L 15.9 57.4
	M 14.92 57.23
	L 15.78 57.73
	M 13.19 56.23
	L 14.05 56.73
	L 14.92 57.23
	M 13.83 56.99
	L 14.17 57.93
	M 14.47 57.76
	L 15.34 58.26
	M 14.47 57.76
	L 15.11 58.53
	M 13.19 56.23
	L 13.83 56.99
	L 14.47 57.76
	M 10.61 53.16
	L 11.26 53.93
	L 11.9 54.7
	L 12.54 55.46
	L 13.19 56.23
	M 5.472 47.04
	L 6.115 47.8
	L 6.758 48.57
	L 7.401 49.33
	L 8.043 50.1
	L 8.686 50.87
	L 9.329 51.63
	L 9.972 52.4
	L 10.61 53.16
	M 5.814 47.97
	L 5.814 48.97
	M 6.156 48.91
	L 6.799 49.68
	M 6.156 48.91
	L 6.498 49.85
	M 6.156 49.91
	L 5.814 50.85
	M 6.156 50.91
	L 6.498 51.85
	M 6.156 50.91
	L 6.156 51.91
	M 6.156 48.91
	L 6.156 49.91
	L 6.156 50.91
	M 6.498 49.85
	L 6.498 50.85
	M 6.84 50.79
	L 7.483 51.56
	M 6.84 50.79
	L 7.182 51.73
	M 7.483 51.56
	L 7.825 52.5
	M 8.126 52.33
	L 8.992 52.83
	M 8.126 52.33
	L 8.769 53.09
	M 6.84 50.79
	L 7.483 51.56
	L 8.126 52.33
	M 7.182 51.73
	L 7.182 52.73
	M 7.524 52.67
	L 8.167 53.44
	M 7.524 52.67
	L 7.866 53.61
	M 6.84 50.79
	L 7.182 51.73
	L 7.524 52.67
	M 6.84 51.79
	L 6.498 52.73
	M 6.84 52.79
	L 7.182 53.73
	M 6.84 52.79
	L 6.84 53.79
	M 6.498 53.73
	L 5.856 54.5
	M 6.156 54.67
	L 6.156 55.67
	M 6.156 54.67
	L 5.814 55.61
	M 6.84 52.79
	L 6.498 53.73
	L 6.156 54.67
	M 6.84 53.79
	L 6.498 54.73
	M 6.84 54.79
	L 7.182 55.73
	M 6.84 54.79
	L 6.84 55.79
	M 7.182 55.73
	L 7.182 56.73
	M 7.524 56.67
	L 8.167 57.44
	M 7.524 56.67
	L 7.866 57.61
	M 6.84 54.79
	L 7.182 55.73
	L 7.524 56.67
	M 6.84 55.79
	L 6.498 56.73
	M 6.84 56.79
	L 7.182 57.73
	M 6.84 56.79
	L 6.84 57.79
	M 6.84 54.79
	L 6.84 55.79
	L 6.84 56.79
	M 6.84 50.79
	L 6.84 51.79
	L 6.84 52.79
	L 6.84 53.79
	L 6.84 54.79
	M 7.182 51.73
	L 7.182 52.73
	M 7.524 52.67
	L 8.167 53.44
	M 7.524 52.67
	L 7.866 53.61
	M 7.524 53.67
	L 7.182 54.61
	M 7.524 54.67
	L 7.866 55.61
	M 7.524 54.67
	L 7.524 55.67
	M 7.524 52.67
	L 7.524 53.67
	L 7.524 54.67
	M 7.866 53.61
	L 7.866 54.61
	M 8.208 54.55
	L 8.851 55.32
	M 8.208 54.55
	L 8.551 55.49
	M 8.851 55.32
	L 9.193 56.26
	M 9.494 56.08
	L 10.36 56.58
	M 9.494 56.08
	L 10.14 56.85
	M 8.208 54.55
	L 8.851 55.32
	L 9.494 56.08
	M 8.551 55.49
	L 8.551 56.49
	M 8.893 56.43
	L 9.535 57.2
	M 8.893 56.43
	L 9.235 57.37
	M 8.208 54.55
	L 8.551 55.49
	L 8.893 56.43
	M 8.851 55.32
	L 9.193 56.26
	M 9.494 56.08
	L 10.36 56.58
	M 9.494 56.08
	L 10.14 56.85
	M 9.836 57.02
	L 9.836 58.02
	M 10.18 57.96
	L 10.82 58.73
	M 10.18 57.96
	L 10.52 58.9
	M 9.494 56.08
	L 9.836 57.02
	L 10.18 57.96
	M 10.14 56.85
	L 10.48 57.79
	M 10.78 57.62
	L 11.65 58.12
	M 10.78 57.62
	L 11.42 58.38
	M 11.65 58.12
	L 12.29 58.88
	M 12.51 58.62
	L 13.5 58.79
	M 12.51 58.62
	L 13.38 59.12
	M 10.78 57.62
	L 11.65 58.12
	L 12.51 58.62
	M 11.42 58.38
	L 11.76 59.32
	M 12.07 59.15
	L 12.93 59.65
	M 12.07 59.15
	L 12.71 59.91
	M 10.78 57.62
	L 11.42 58.38
	L 12.07 59.15
	M 8.208 54.55
	L 8.851 55.32
	L 9.494 56.08
	L 10.14 56.85
	L 10.78 57.62
	M 8.551 55.49
	L 8.551 56.49
	M 8.893 56.43
	L 9.535 57.2
	M 8.893 56.43
	L 9.235 57.37
	M 8.893 57.43
	L 8.551 58.37
	M 8.893 58.43
	L 9.235 59.37
	M 8.893 58.43
	L 8.893 59.43
	M 8.893 56.43
	L 8.893 57.43
	L 8.893 58.43
	M 9.235 57.37
	L 9.235 58.37
	M 9.577 58.31
	L 10.22 59.08
	M 9.577 58.31
	L 9.919 59.25
	M 10.22 59.08
	L 10.56 60.02
	M 10.86 59.84
	L 11.73 60.34
	M 10.86 59.84
	L 11.5 60.61
	M 9.577 58.31
	L 10.22 59.08
	L 10.86 59.84
	M 9.919 59.25
	L 9.919 60.25
	M 10.26 60.19
	L 10.9 60.96
	M 10.26 60.19
	L 10.6 61.13
	M 9.577 58.31
	L 9.919 59.25
	L 10.26 60.19
	M 8.208 54.55
	L 8.551 55.49
	L 8.893 56.43
	L 9.235 57.37
	L 9.577 58.31
	M 5.472 47.04
	L 5.814 47.97
	L 6.156 48.91
	L 6.498 49.85
	L 6.84 50.79
	L 7.182 51.73
	L 7.524 52.67
	L 7.866 53.61
	L 8.208 54.55
	M 0 32
	L 0.342 32.94
	L 0.684 33.88
	L 1.026 34.82
	L 1.368 35.76
	L 1.71 36.7
	L 2.052 37.64
	L 2.394 38.58
	L 2.736 39.52
	L 3.078 40.46
	L 3.42 41.4
	L 3.762 42.34
	L 4.104 43.28
	L 4.446 44.22
	L 4.788 45.16
	L 5.13 46.1
	L 5.472 47.04
	M 0 33
	L -0.342 33.94
	M 0 34
	L 0.342 34.94
	M 0 34
	L 0 35
	M -0.342 34.94
	L -0.9848 35.71
	M -0.684 35.88
	L -0.684 36.88
	M -0.684 35.88
	L -1.026 36.82
	M 0 34
	L -0.342 34.94
	L -0.684 35.88
	M 0 35
	L -0.342 35.94
	M 0 36
	L 0.342 36.94
	M 0 36
	L 0 37
	M 0.342 36.94
	L 0.342 37.94
	M 0.684 37.88
	L 1.327 38.65
	M 0.684 37.88
	L 1.026 38.82
	M 0 36
	L 0.342 36.94
	L 0.684 37.88
	M 0 37
	L -0.342 37.94
	M 0 38
	L 0.342 38.94
	M 0 38
	L 0 39
	M 0 36
	L 0 37
	L 0 38
	M -0.342 36.94
	L -0.9848 37.71
	M -0.684 37.88
	L -0.684 38.88
	M -0.684 37.88
	L -1.026 38.82
	M -1.327 38.65
	L -2.193 39.15
	M -1.97 39.41
	L -2.312 40.35
	M -1.97 39.41
	L -2.612 40.18
	M -0.684 37.88
	L -1.327 38.65
	L -1.97 39.41
	M -1.026 38.82
	L -1.669 39.59
	M -1.368 39.76
	L -1.368 40.76
	M -1.368 39.76
	L -1.71 40.7
	M -1.368 40.76
	L -1.71 41.7
	M -1.368 41.76
	L -1.026 42.7
	M -1.368 41.76
	L -1.368 42.76
	M -1.368 39.76
	L -1.368 40.76
	L -1.368 41.76
	M -1.71 40.7
	L -2.353 41.46
	M -2.052 41.64
	L -2.052 42.64
	M -2.052 41.64
	L -2.394 42.58
	M -1.368 39.76
	L -1.71 40.7
	L -2.052 41.64
	M 0 36
	L -0.342 36.94
	L -0.684 37.88
	L -1.026 38.82
	L -1.368 39.76
	M 0 37
	L -0.342 37.94
	M 0 38
	L 0.342 38.94
	M 0 38
	L 0 39
	M -0.342 38.94
	L -0.9848 39.71
	M -0.684 39.88
	L -0.684 40.88
	M -0.684 39.88
	L -1.026 40.82
	M 0 38
	L -0.342 38.94
	L -0.684 39.88
	M 0 39
	L -0.342 39.94
	M 0 40
	L 0.342 40.94
	M 0 40
	L 0 41
	M 0.342 40.94
	L 0.342 41.94
	M 0.684 41.88
	L 1.327 42.65
	M 0.684 41.88
	L 1.026 42.82
	M 0 40
	L 0.342 40.94
	L 0.684 41.88
	M 0 41
	L -0.342 41.94
	M 0 42
	L 0.342 42.94
	M 0 42
	L 0 43
	M 0 40
	L 0 41
	L 0 42
	M 0.342 40.94
	L 0.342 41.94
	M 0.684 41.88
	L 1.327 42.65
	M 0.684 41.88
	L 1.026 42.82
	M 0.684 42.88
	L 0.342 43.82
	M 0.684 43.88
	L 1.026 44.82
	M 0.684 43.88
	L 0.684 44.88
	M 0.684 41.88
	L 0.684 42.88
	L 0.684 43.88
	M 1.026 42.82
	L 1.026 43.82
	M 1.368 43.76
	L 2.011 44.52
	M 1.368 43.76
	L 1.71 44.7
	M 2.011 44.52
	L 2.353 45.46
	M 2.654 45.29
	L 3.52 45.79
	M 2.654 45.29
	L 3.296 46.06
	M 1.368 43.76
	L 2.011 44.52
	L 2.654 45.29
	M 1.71 44.7
	L 1.71 45.7
	M 2.052 45.64
	L 2.695 46.4
	M 2.052 45.64
	L 2.394 46.58
	M 1.368 43.76
	L 1.71 44.7
	L 2.052 45.64
	M 0 40
	L 0.342 40.94
	L 0.684 41.88
	L 1.026 42.82
	L 1.368 43.76
	M 0 41
	L -0.342 41.94
	M 0 42
	L 0.342 42.94
	M 0 42
	L 0 43
	M -0.342 42.94
	L -0.9848 43.71
	M -0.684 43.88
	L -0.684 44.88
	M -0.684 43.88
	L -1.026 44.82
	M 0 42
	L -0.342 42.94
	L -0.684 43.88
	M 0 43
	L -0.342 43.94
	M 0 44
	L 0.342 44.94
	M 0 44
	L 0 45
	M 0.342 44.94
	L 0.342 45.94
	M 0.684 45.88
	L 1.327 46.65
	M 0.684 45.88
	L 1.026 46.82
	M 0 44
	L 0.342 44.94
	L 0.684 45.88
	M 0 45
	L -0.342 45.94
	M 0 46
	L 0.342 46.94
	M 0 46
	L 0 47
	M 0 44
	L 0 45
	L 0 46
	M 0 40
	L 0 41
	L 0 42
	L 0 43
	L 0 44
	M -0.342 40.94
	L -0.9848 41.71
	M -0.684 41.88
	L -0.684 42.88
	M -0.684 41.88
	L -1.026 42.82
	M -1.327 42.65
	L -2.193 43.15
	M -1.97 43.41
	L -2.312 44.35
	M -1.97 43.41
	L -2.612 44.18
	M -0.684 41.88
	L -1.327 42.65
	L -1.97 43.41
	M -1.026 42.82
	L -1.669 43.59
	M -1.368 43.76
	L -1.368 44.76
	M -1.368 43.76
	L -1.71 44.7
	M -1.368 44.76
	L -1.71 45.7
	M -1.368 45.76
	L -1.026 46.7
	M -1.368 45.76
	L -1.368 46.76
	M -1.368 43.76
	L -1.368 44.76
	L -1.368 45.76
	M -1.71 44.7
	L -2.353 45.46
	M -2.052 45.64
	L -2.052 46.64
	M -2.052 45.64
	L -2.394 46.58
	M -1.368 43.76
	L -1.71 44.7
	L -2.052 45.64
	M -2.011 44.52
	L -2.877 45.02
	M -2.654 45.29
	L -2.996 46.23
	M -2.654 45.29
	L -3.296 46.06
	M -3.52 45.79
	L -4.504 45.96
	M -4.386 46.29
	L -5.028 47.06
	M -4.386 46.29
	L -5.252 46.79
	M -2.654 45.29
	L -3.52 45.79
	L -4.386 46.29
	M -3.296 46.06
	L -4.162 46.56
	M -3.939 46.82
	L -4.281 47.76
	M -3.939 46.82
	L -4.582 47.59
	M -4.281 47.76
	L -4.924 48.53
	M -4.623 48.7
	L -4.623 49.7
	M -4.623 48.7
	L -4.965 49.64
	M -3.939 46.82
	L -4.281 47.76
	L -4.623 48.7
	M -4.582 47.59
	L -5.448 48.09
	M -5.225 48.36
	L -5.567 49.29
	M -5.225 48.36
	L -5.868 49.12
	M -3.939 46.82
	L -4.582 47.59
	L -5.225 48.36
	M -1.368 43.76
	L -2.011 44.52
	L -2.654 45.29
	L -3.296 46.06
	L -3.939 46.82
	M -1.71 44.7
	L -2.353 45.46
	M -2.052 45.64
	L -2.052 46.64
	M -2.052 45.64
	L -2.394 46.58
	M -2.695 46.4
	L -3.561 46.9
	M -3.338 47.17
	L -3.68 48.11
	M -3.338 47.17
	L -3.98 47.94
	M -2.052 45.64
	L -2.695 46.4
	L -3.338 47.17
	M -2.394 46.58
	L -3.037 47.34
	M -2.736 47.52
	L -2.736 48.52
	M -2.736 47.52
	L -3.078 48.46
	M -2.736 48.52
	L -3.078 49.46
	M -2.736 49.52
	L -2.394 50.46
	M -2.736 49.52
	L -2.736 50.52
	M -2.736 47.52
	L -2.736 48.52
	L -2.736 49.52
	M -3.078 48.46
	L -3.721 49.22
	M -3.42 49.4
	L -3.42 50.4
	M -3.42 49.4
	L -3.762 50.34
	M -2.736 47.52
	L -3.078 48.46
	L -3.42 49.4
	M -2.736 48.52
	L -3.078 49.46
	M -2.736 49.52
	L -2.394 50.46
	M -2.736 49.52
	L -2.736 50.52
	M -3.078 50.46
	L -3.721 51.22
	M -3.42 51.4
	L -3.42 52.4
	M -3.42 51.4
	L -3.762 52.34
	M -2.736 49.52
	L -3.078 50.46
	L -3.42 51.4
	M -2.736 50.52
	L -3.078 51.46
	M -2.736 51.52
	L -2.394 52.46
	M -2.736 51.52
	L -2.736 52.52
	M -2.394 52.46
	L -2.394 53.46
	M -2.052 53.4
	L -1.409 54.16
	M -2.052 53.4
	L -1.71 54.34
	M -2.736 51.52
	L -2.394 52.46
	L -2.052 53.4
	M -2.736 52.52
	L -3.078 53.46
	M -2.736 53.52
	L -2.394 54.46
	M -2.736 53.52
	L -2.736 54.52
	M -2.736 51.52
	L -2.736 52.52
	L -2.736 53.52
	M -2.736 47.52
	L -2.736 48.52
	L -2.736 49.52
	L -2.736 50.52
	L -2.736 51.52
	M -3.078 48.46
	L -3.721 49.22
	M -3.42 49.4
	L -3.42 50.4
	M -3.42 49.4
	L -3.762 50.34
	M -4.063 50.16
	L -4.929 50.66
	M -4.706 50.93
	L -5.048 51.87
	M -4.706 50.93
	L -5.349 51.7
	M -3.42 49.4
	L -4.063 50.16
	L -4.706 50.93
	M -3.762 50.34
	L -4.405 51.1
	M -4.104 51.28
	L -4.104 52.28
	M -4.104 51.28
	L -4.446 52.22
	M -4.104 52.28
	L -4.446 53.22
	M -4.104 53.28
	L -3.762 54.22
	M -4.104 53.28
	L -4.104 54.28
	M -4.104 51.28
	L -4.104 52.28
	L -4.104 53.28
	M -4.446 52.22
	L -5.089 52.98
	M -4.788 53.16
	L -4.788 54.16
	M -4.788 53.16
	L -5.13 54.1
	M -4.104 51.28
	L -4.446 52.22
	L -4.788 53.16
	M -2.736 47.52
	L -3.078 48.46
	L -3.42 49.4
	L -3.762 50.34
	L -4.104 51.28
	M 0 40
	L -0.342 40.94
	L -0.684 41.88
	L -1.026 42.82
	L -1.368 43.76
	L -1.71 44.7
	L -2.052 45.64
	L -2.394 46.58
	L -2.736 47.52
	M 0 41
	L -0.342 41.94
	M 0 42
	L 0.342 42.94
	M 0 42
	L 0 43
	M -0.342 42.94
	L -0.9848 43.71
	M -0.684 43.88
	L -0.684 44.88
	M -0.684 43.88
	L -1.026 44.82
	M 0 42
	L -0.342 42.94
	L -0.684 43.88
	M 0 43
	L -0.342 43.94
	M 0 44
	L 0.342 44.94
	M 0 44
	L 0 45
	M 0.342 44.94
	L 0.342 45.94
	M 0.684 45.88
	L 1.327 46.65
	M 0.684 45.88
	L 1.026 46.82
	M 0 44
	L 0.342 44.94
	L 0.684 45.88
	M 0 45
	L -0.342 45.94
	M 0 46
	L 0.342 46.94
	M 0 46
	L 0 47
	M 0 44
	L 0 45
	L 0 46
	M -0.342 44.94
	L -0.9848 45.71
	M -0.684 45.88
	L -0.684 46.88
	M -0.684 45.88
	L -1.026 46.82
	M -1.327 46.65
	L -2.193 47.15
	M -1.97 47.41
	L -2.312 48.35
	M -1.97 47.41
	L -2.612 48.18
	M -0.684 45.88
	L -1.327 46.65
	L -1.97 47.41
	M -1.026 46.82
	L -1.669 47.59
	M -1.368 47.76
	L -1.368 48.76
	M -1.368 47.76
	L -1.71 48.7
	M -1.368 48.76
	L -1.71 49.7
	M -1.368 49.76
	L -1.026 50.7
	M -1.368 49.76
	L -1.368 50.76
	M -1.368 47.76
	L -1.368 48.76
	L -1.368 49.76
	M -1.71 48.7
	L -2.353 49.46
	M -2.052 49.64
	L -2.052 50.64
	M -2.052 49.64
	L -2.394 50.58
	M -1.368 47.76
	L -1.71 48.7
	L -2.052 49.64
	M 0 44
	L -0.342 44.94
	L -0.684 45.88
	L -1.026 46.82
	L -1.368 47.76
	M 0 45
	L -0.342 45.94
	M 0 46
	L 0.342 46.94
	M 0 46
	L 0 47
	M -0.342 46.94
	L -0.9848 47.71
	M -0.684 47.88
	L -0.684 48.88
	M -0.684 47.88
	L -1.026 48.82
	M 0 46
	L -0.342 46.94
	L -0.684 47.88
	M 0 47
	L -0.342 47.94
	M 0 48
	L 0.342 48.94
	M 0 48
	L 0 49
	M 0.342 48.94
	L 0.342 49.94
	M 0.684 49.88
	L 1.327 50.65
	M 0.684 49.88
	L 1.026 50.82
	M 0 48
	L 0.342 48.94
	L 0.684 49.88
	M 0 49
	L -0.342 49.94
	M 0 50
	L 0.342 50.94
	M 0 50
	L 0 51
	M 0 48
	L 0 49
	L 0 50
	M 0.342 48.94
	L 0.342 49.94
	M 0.684 49.88
	L 1.327 50.65
	M 0.684 49.88
	L 1.026 50.82
	M 0.684 50.88
	L 0.342 51.82
	M 0.684 51.88
	L 1.026 52.82
	M 0.684 51.88
	L 0.684 52.88
	M 0.684 49.88
	L 0.684 50.88
	L 0.684 51.88
	M 1.026 50.82
	L 1.026 51.82
	M 1.368 51.76
	L 2.011 52.52
	M 1.368 51.76
	L 1.71 52.7
	M 2.011 52.52
	L 2.353 53.46
	M 2.654 53.29
	L 3.52 53.79
	M 2.654 53.29
	L 3.296 54.06
	M 1.368 51.76
	L 2.011 52.52
	L 2.654 53.29
	M 1.71 52.7
	L 1.71 53.7
	M 2.052 53.64
	L 2.695 54.4
	M 2.052 53.64
	L 2.394 54.58
	M 1.368 51.76
	L 1.71 52.7
	L 2.052 53.64
	M 0 48
	L 0.342 48.94
	L 0.684 49.88
	L 1.026 50.82
	L 1.368 51.76
	M 0 49
	L -0.342 49.94
	M 0 50
	L 0.342 50.94
	M 0 50
	L 0 51
	M -0.342 50.94
	L -0.9848 51.71
	M -0.684 51.88
	L -0.684 52.88
	M -0.684 51.88
	L -1.026 52.82
	M 0 50
	L -0.342 50.94
	L -0.684 51.88
	M 0 51
	L -0.342 51.94
	M 0 52
	L 0.342 52.94
	M 0 52
	L 0 53
	M 0.342 52.94
	L 0.342 53.94
	M 0.684 53.88
	L 1.327 54.65
	M 0.684 53.88
	L 1.026 54.82
	M 0 52
	L 0.342 52.94
	L 0.684 53.88
	M 0 53
	L -0.342 53.94
	M 0 54
	L 0.342 54.94
	M 0 54
	L 0 55
	M 0 52
	L 0 53
	L 0 54
	M 0 48
	L 0 49
	L 0 50
	L 0 51
	L 0 52
	M 0.342 48.94
	L 0.342 49.94
	M 0.684 49.88
	L 1.327 50.65
	M 0.684 49.88
	L 1.026 50.82
	M 0.684 50.88
	L 0.342 51.82
	M 0.684 51.88
	L 1.026 52.82
	M 0.684 51.88
	L 0.684 52.88
	M 0.684 49.88
	L 0.684 50.88
	L 0.684 51.88
	M 1.026 50.82
	L 1.026 51.82
	M 1.368 51.76
	L 2.011 52.52
	M 1.368 51.76
	L 1.71 52.7
	M 2.011 52.52
	L 2.353 53.46
	M 2.654 53.29
	L 3.52 53.79
	M 2.654 53.29
	L 3.296 54.06
	M 1.368 51.76
	L 2.011 52.52
	L 2.654 53.29
	M 1.71 52.7
	L 1.71 53.7
	M 2.052 53.64
	L 2.695 54.4
	M 2.052 53.64
	L 2.394 54.58
	M 1.368 51.76
	L 1.71 52.7
	L 2.052 53.64
	M 1.368 52.76
	L 1.026 53.7
	M 1.368 53.76
	L 1.71 54.7
	M 1.368 53.76
	L 1.368 54.76
	M 1.026 54.7
	L 0.3833 55.46
	M 0.684 55.64
	L 0.684 56.64
	M 0.684 55.64
	L 0.342 56.58
	M 1.368 53.76
	L 1.026 54.7
	L 0.684 55.64
	M 1.368 54.76
	L 1.026 55.7
	M 1.368 55.76
	L 1.71 56.7
	M 1.368 55.76
	L 1.368 56.76
	M 1.71 56.7
	L 1.71 57.7
	M 2.052 57.64
	L 2.695 58.4
	M 2.052 57.64
	L 2.394 58.58
	M 1.368 55.76
	L 1.71 56.7
	L 2.052 57.64
	M 1.368 56.76
	L 1.026 57.7
	M 1.368 57.76
	L 1.71 58.7
	M 1.368 57.76
	L 1.368 58.76
	M 1.368 55.76
	L 1.368 56.76
	L 1.368 57.76
	M 1.368 51.76
	L 1.368 52.76
	L 1.368 53.76
	L 1.368 54.76
	L 1.368 55.76
	M 1.71 52.7
	L 1.71 53.7
	M 2.052 53.64
	L 2.695 54.4
	M 2.052 53.64
	L 2.394 54.58
	M 2.052 54.64
	L 1.71 55.58
	M 2.052 55.64
	L 2.394 56.58
	M 2.052 55.64
	L 2.052 56.64
	M 2.052 53.64
	L 2.052 54.64
	L 2.052 55.64
	M 2.394 54.58
	L 2.394 55.58
	M 2.736 55.52
	L 3.379 56.28
	M 2.736 55.52
	L 3.078 56.46
	M 3.379 56.28
	L 3.721 57.22
	M 4.022 57.05
	L 4.888 57.55
	M 4.022 57.05
	L 4.665 57.82
	M 2.736 55.52
	L 3.379 56.28
	L 4.022 57.05
	M 3.078 56.46
	L 3.078 57.46
	M 3.42 57.4
	L 4.063 58.16
	M 3.42 57.4
	L 3.762 58.34
	M 2.736 55.52
	L 3.078 56.46
	L 3.42 57.4
	M 3.379 56.28
	L 3.721 57.22
	M 4.022 57.05
	L 4.888 57.55
	M 4.022 57.05
	L 4.665 57.82
	M 4.364 57.99
	L 4.364 58.99
	M 4.706 58.93
	L 5.349 59.7
	M 4.706 58.93
	L 5.048 59.87
	M 4.022 57.05
	L 4.364 57.99
	L 4.706 58.93
	M 4.665 57.82
	L 5.007 58.76
	M 5.307 58.58
	L 6.173 59.08
	M 5.307 58.58
	L 5.95 59.35
	M 6.173 59.08
	L 6.816 59.85
	M 7.039 59.58
	L 8.024 59.76
	M 7.039 59.58
	L 7.905 60.08
	M 5.307 58.58
	L 6.173 59.08
	L 7.039 59.58
	M 5.95 59.35
	L 6.292 60.29
	M 6.593 60.11
	L 7.459 60.61
	M 6.593 60.11
	L 7.236 60.88
	M 5.307 58.58
	L 5.95 59.35
	L 6.593 60.11
	M 2.736 55.52
	L 3.379 56.28
	L 4.022 57.05
	L 4.665 57.82
	L 5.307 58.58
	M 3.078 56.46
	L 3.078 57.46
	M 3.42 57.4
	L 4.063 58.16
	M 3.42 57.4
	L 3.762 58.34
	M 3.42 58.4
	L 3.078 59.34
	M 3.42 59.4
	L 3.762 60.34
	M 3.42 59.4
	L 3.42 60.4
	M 3.42 57.4
	L 3.42 58.4
	L 3.42 59.4
	M 3.762 58.34
	L 3.762 59.34
	M 4.104 59.28
	L 4.747 60.04
	M 4.104 59.28
	L 4.446 60.22
	M 4.747 60.04
	L 5.089 60.98
	M 5.39 60.81
	L 6.256 61.31
	M 5.39 60.81
	L 6.033 61.57
	M 4.104 59.28
	L 4.747 60.04
	L 5.39 60.81
	M 4.446 60.22
	L 4.446 61.22
	M 4.788 61.16
	L 5.431 61.92
	M 4.788 61.16
	L 5.13 62.1
	M 4.104 59.28
	L 4.446 60.22
	L 4.788 61.16
	M 2.736 55.52
	L 3.078 56.46
	L 3.42 57.4
	L 3.762 58.34
	L 4.104 59.28
	M 0 48
	L 0.342 48.94
	L 0.684 49.88
	L 1.026 50.82
	L 1.368 51.76
	L 1.71 52.7
	L 2.052 53.64
	L 2.394 54.58
	L 2.736 55.52
	M 0 49
	L -0.342 49.94
	M 0 50
	L 0.342 50.94
	M 0 50
	L 0 51
	M -0.342 50.94
	L -0.9848 51.71
	M -0.684 51.88
	L -0.684 52.88
	M -0.684 51.88
	L -1.026 52.82
	M 0 50
	L -0.342 50.94
	L -0.684 51.88
	M 0 51
	L -0.342 51.94
	M 0 52
	L 0.342 52.94
	M 0 52
	L 0 53
	M 0.342 52.94
	L 0.342 53.94
	M 0.684 53.88
	L 1.327 54.65
	M 0.684 53.88
	L 1.026 54.82
	M 0 52
	L 0.342 52.94
	L 0.684 53.88
	M 0 53
	L -0.342 53.94
	M 0 54
	L 0.342 54.94
	M 0 54
	L 0 55
	M 0 52
	L 0 53
	L 0 54
	M -0.342 52.94
	L -0.9848 53.71
	M -0.684 53.88
	L -0.684 54.88
	M -0.684 53.88
	L -1.026 54.82
	M -1.327 54.65
	L -2.193 55.15
	M -1.97 55.41
	L -2.312 56.35
	M -1.97 55.41
	L -2.612 56.18
	M -0.684 53.88
	L -1.327 54.65
	L -1.97 55.41
	M -1.026 54.82
	L -1.669 55.59
	M -1.368 55.76
	L -1.368 56.76
	M -1.368 55.76
	L -1.71 56.7
	M -1.368 56.76
	L -1.71 57.7
	M -1.368 57.76
	L -1.026 58.7
	M -1.368 57.76
	L -1.368 58.76
	M -1.368 55.76
	L -1.368 56.76
	L -1.368 57.76
	M -1.71 56.7
	L -2.353 57.46
	M -2.052 57.64
	L -2.052 58.64
	M -2.052 57.64
	L -2.394 58.58
	M -1.368 55.76
	L -1.71 56.7
	L -2.052 57.64
	M 0 52
	L -0.342 52.94
	L -0.684 53.88
	L -1.026 54.82
	L -1.368 55.76
	M 0 53
	L -0.342 53.94
	M 0 54
	L 0.342 54.94
	M 0 54
	L 0 55
	M -0.342 54.94
	L -0.9848 55.71
	M -0.684 55.88
	L -0.684 56.88
	M -0.684 55.88
	L -1.026 56.82
	M 0 54
	L -0.342 54.94
	L -0.684 55.88
	M 0 55
	L -0.342 55.94
	M 0 56
	L 0.342 56.94
	M 0 56
	L 0 57
	M 0.342 56.94
	L 0.342 57.94
	M 0.684 57.88
	L 1.327 58.65
	M 0.684 57.88
	L 1.026 58.82
	M 0 56
	L 0.342 56.94
	L 0.684 57.88
	M 0 57
	L -0.342 57.94
	M 0 58
	L 0.342 58.94
	M 0 58
	L 0 59
	M 0 56
	L 0 57
	L 0 58
	M 0.342 56.94
	L 0.342 57.94
	M 0.684 57.88
	L 1.327 58.65
	M 0.684 57.88
	L 1.026 58.82
	M 0.684 58.88
	L 0.342 59.82
	M 0.684 59.88
	L 1.026 60.82
	M 0.684 59.88
	L 0.684 60.88
	M 0.684 57.88
	L 0.684 58.88
	L 0.684 59.88
	M 1.026 58.82
	L 1.026 59.82
	M 1.368 59.76
	L 2.011 60.52
	M 1.368 59.76
	L 1.71 60.7
	M 2.011 60.52
	L 2.353 61.46
	M 2.654 61.29
	L 3.52 61.79
	M 2.654 61.29
	L 3.296 62.06
	M 1.368 59.76
	L 2.011 60.52
	L 2.654 61.29
	M 1.71 60.7
	L 1.71 61.7
	M 2.052 61.64
	L 2.695 62.4
	M 2.052 61.64
	L 2.394 62.58
	M 1.368 59.76
	L 1.71 60.7
	L 2.052 61.64
	M 0 56
	L 0.342 56.94
	L 0.684 57.88
	L 1.026 58.82
	L 1.368 59.76
	M 0 57
	L -0.342 57.94
	M 0 58
	L 0.342 58.94
	M 0 58
	L 0 59
	M -0.342 58.94
	L -0.9848 59.71
	M -0.684 59.88
	L -0.684 60.88
	M -0.684 59.88
	L -1.026 60.82
	M 0 58
	L -0.342 58.94
	L -0.684 59.88
	M 0 59
	L -0.342 59.94
	M 0 60
	L 0.342 60.94
	M 0 60
	L 0 61
	M 0.342 60.94
	L 0.342 61.94
	M 0.684 61.88
	L 1.327 62.65
	M 0.684 61.88
	L 1.026 62.82
	M 0 60
	L 0.342 60.94
	L 0.684 61.88
	M 0 61
	L -0.342 61.94
	M 0 62
	L 0.342 62.94
	M 0 62
	L 0 63
	M 0 60
	L 0 61
	L 0 62
	M 0 56
	L 0 57
	L 0 58
	L 0 59
	L 0 60
	M 0 48
	L 0 49
	L 0 50
	L 0 51
	L 0 52
	L 0 53
	L 0 54
	L 0 55
	L 0 56
	M 0 32
	L 0 33
	L 0 34
	L 0 35
	L 0 36
	L 0 37
	L 0 38
	L 0 39
	L 0 40
	L 0 41
	L 0 42
	L 0 43
	L 0 44
	L 0 45
	L 0 46
	L 0 47
	L 0 48
	M 0 0
	L 0 1
	L 0 2
	L 0 3
	L 0 4
	L 0 5
	L 0 6
	L 0 7
	L 0 8
	L 0 9
	L 0 10
	L 0 11
	L 0 12
	L 0 13
	L 0 14
	L 0 15
	L 0 16
	L 0 17
	L 0 18
	L 0 19
	L 0 20
	L 0 21
	L 0 22
	L 0 23
	L 0 24
	L 0 25
	L 0 26
	L 0 27
	L 0 28
	L 0 29
	L 0 30
	L 0 31
	L 0 32
"/>
</svg>
