<svg version="1.1" baseProfile="full" xmlns="http://www.w3.org/2000/svg"
width="658.6" height="1024"
viewBox="-12.17 -56.9 37.24 57.9"
>
<rect x="-12.17" y="-56.9" width="100%" height="100%" fill="white" />
<path stroke="green" stroke-width="0.04" stroke-linecap="round" fill="none"
transform="scale(1 -1)"
d="	M 0 2
	L 0.7071 2.707
	L 1.09 3.631
	L 1.09 4.631
	M 0 2
	L -0.3827 2.924
	L -0.3827 3.924
	L 0 4.848
	M 0 4
	L 0.7071 4.707
	L 1.09 5.631
	L 1.09 6.631
	M 0 4
	L -0.3827 4.924
	L -0.3827 5.924
	L 0 6.848
	M 1.414 5.414
	L 2.414 5.414
	L 3.338 5.797
	L 4.045 6.504
	M 1.414 5.414
	L 1.797 6.338
	L 2.504 7.045
	L 3.428 7.428
	M 2.18 7.262
	L 3.103 7.645
	L 3.811 8.352
	L 4.193 9.276
	M 2.18 7.262
	L 2.18 8.262
	L 2.562 9.186
	L 3.269 9.893
	M 2.18 9.262
	L 2.887 9.969
	L 3.269 10.89
	L 3.269 11.89
	M 2.18 9.262
	L 1.797 10.19
	L 1.797 11.19
	L 2.18 12.11
	M 0 4
	L 0.7071 4.707
	L 1.414 5.414
	L 1.797 6.338
	L 2.18 7.262
	L 2.18 8.262
	L 2.18 9.262
	M -0.7654 5.848
	L -0.3827 6.772
	L -0.3827 7.772
	L -0.7654 8.696
	M -0.7654 5.848
	L -1.472 6.555
	L -1.855 7.479
	L -1.855 8.479
	M -0.7654 7.848
	L -0.05826 8.555
	L 0.3244 9.479
	L 0.3244 10.48
	M -0.7654 7.848
	L -1.148 8.772
	L -1.148 9.772
	L -0.7654 10.7
	M 0 9.696
	L 0.9239 10.08
	L 1.631 10.79
	L 2.014 11.71
	M 0 9.696
	L 5.551e-17 10.7
	L 0.3827 11.62
	L 1.09 12.33
	M 0 4
	L -0.3827 4.924
	L -0.7654 5.848
	L -0.7654 6.848
	L -0.7654 7.848
	L -0.3827 8.772
	L 0 9.696
	M 0 6
	L 0.7071 6.707
	L 1.09 7.631
	L 1.09 8.631
	M 0 6
	L -0.3827 6.924
	L -0.3827 7.924
	L 0 8.848
	M 0 8
	L 0.7071 8.707
	L 1.09 9.631
	L 1.09 10.63
	M 0 8
	L -0.3827 8.924
	L -0.3827 9.924
	L 0 10.85
	M 1.414 9.414
	L 2.414 9.414
	L 3.338 9.797
	L 4.045 10.5
	M 1.414 9.414
	L 1.797 10.34
	L 2.504 11.05
	L 3.428 11.43
	M 2.18 11.26
	L 3.103 11.64
	L 3.811 12.35
	L 4.193 13.28
	M 2.18 11.26
	L 2.18 12.26
	L 2.562 13.19
	L 3.269 13.89
	M 2.18 13.26
	L 2.887 13.97
	L 3.269 14.89
	L 3.269 15.89
	M 2.18 13.26
	L 1.797 14.19
	L 1.797 15.19
	L 2.18 16.11
	M 0 8
	L 0.7071 8.707
	L 1.414 9.414
	L 1.797 10.34
	L 2.18 11.26
	L 2.18 12.26
	L 2.18 13.26
	M -0.7654 9.848
	L -0.3827 10.77
	L -0.3827 11.77
	L -0.7654 12.7
	M -0.7654 9.848
	L -1.472 10.55
	L -1.855 11.48
	L -1.855 12.48
	M -0.7654 11.85
	L -0.05826 12.55
	L 0.3244 13.48
	L 0.3244 14.48
	M -0.7654 11.85
	L -1.148 12.77
	L -1.148 13.77
	L -0.7654 14.7
	M 0 13.7
	L 0.9239 14.08
	L 1.631 14.79
	L 2.014 15.71
	M 0 13.7
	L 5.551e-17 14.7
	L 0.3827 15.62
	L 1.09 16.33
	M 0 8
	L -0.3827 8.924
	L -0.7654 9.848
	L -0.7654 10.85
	L -0.7654 11.85
	L -0.3827 12.77
	L 0 13.7
	M 1.414 9.414
	L 2.414 9.414
	L 3.338 9.797
	L 4.045 10.5
	M 1.414 9.414
	L 1.797 10.34
	L 2.504 11.05
	L 3.428 11.43
	M 2.828 10.83
	L 3.828 10.83
	L 4.752 11.21
	L 5.459 11.92
	M 2.828 10.83
	L 3.211 11.75
	L 3.918 12.46
	L 4.842 12.84
	M 4.828 10.83
	L 5.536 10.12
	L 6.459 9.739
	L 7.459 9.739
	M 4.828 10.83
	L 5.752 11.21
	L 6.752 11.21
	L 7.676 10.83
	M 6.676 11.59
	L 7.6 11.21
	L 8.6 11.21
	L 9.524 11.59
	M 6.676 11.59
	L 7.383 12.3
	L 8.307 12.68
	L 9.307 12.68
	M 8.09 13.01
	L 9.09 13.01
	L 10.01 13.39
	L 10.72 14.1
	M 8.09 13.01
	L 8.473 13.93
	L 9.18 14.64
	L 10.1 15.02
	M 2.828 10.83
	L 3.828 10.83
	L 4.828 10.83
	L 5.752 11.21
	L 6.676 11.59
	L 7.383 12.3
	L 8.09 13.01
	M 3.594 12.68
	L 4.518 13.06
	L 5.225 13.77
	L 5.607 14.69
	M 3.594 12.68
	L 3.594 13.68
	L 3.976 14.6
	L 4.684 15.31
	M 5.008 14.09
	L 6.008 14.09
	L 6.932 14.47
	L 7.639 15.18
	M 5.008 14.09
	L 5.391 15.01
	L 6.098 15.72
	L 7.022 16.1
	M 6.856 14.86
	L 7.78 14.47
	L 8.78 14.47
	L 9.704 14.86
	M 6.856 14.86
	L 7.563 15.56
	L 8.487 15.95
	L 9.487 15.95
	M 2.828 10.83
	L 3.211 11.75
	L 3.594 12.68
	L 4.301 13.38
	L 5.008 14.09
	L 5.932 14.47
	L 6.856 14.86
	M 3.594 12.68
	L 4.518 13.06
	L 5.225 13.77
	L 5.607 14.69
	M 3.594 12.68
	L 3.594 13.68
	L 3.976 14.6
	L 4.684 15.31
	M 4.359 14.52
	L 5.283 14.91
	L 5.99 15.61
	L 6.373 16.54
	M 4.359 14.52
	L 4.359 15.52
	L 4.742 16.45
	L 5.449 17.15
	M 6.207 15.29
	L 7.131 14.91
	L 8.131 14.91
	L 9.055 15.29
	M 6.207 15.29
	L 6.914 16
	L 7.838 16.38
	L 8.838 16.38
	M 7.621 16.7
	L 8.621 16.7
	L 9.545 17.09
	L 10.25 17.79
	M 7.621 16.7
	L 8.004 17.63
	L 8.711 18.33
	L 9.635 18.72
	M 8.387 18.55
	L 9.31 18.93
	L 10.02 19.64
	L 10.4 20.56
	M 8.387 18.55
	L 8.387 19.55
	L 8.769 20.48
	L 9.476 21.18
	M 4.359 14.52
	L 5.283 14.91
	L 6.207 15.29
	L 6.914 16
	L 7.621 16.7
	L 8.004 17.63
	L 8.387 18.55
	M 4.359 16.52
	L 5.066 17.23
	L 5.449 18.15
	L 5.449 19.15
	M 4.359 16.52
	L 3.976 17.45
	L 3.976 18.45
	L 4.359 19.37
	M 5.125 18.37
	L 6.048 18.75
	L 6.756 19.46
	L 7.138 20.39
	M 5.125 18.37
	L 5.125 19.37
	L 5.507 20.3
	L 6.214 21
	M 6.539 19.79
	L 7.539 19.79
	L 8.463 20.17
	L 9.17 20.88
	M 6.539 19.79
	L 6.921 20.71
	L 7.629 21.42
	L 8.552 21.8
	M 4.359 14.52
	L 4.359 15.52
	L 4.359 16.52
	L 4.742 17.45
	L 5.125 18.37
	L 5.832 19.08
	L 6.539 19.79
	M 4.359 16.52
	L 5.066 17.23
	L 5.449 18.15
	L 5.449 19.15
	M 4.359 16.52
	L 3.976 17.45
	L 3.976 18.45
	L 4.359 19.37
	M 4.359 18.52
	L 5.066 19.23
	L 5.449 20.15
	L 5.449 21.15
	M 4.359 18.52
	L 3.976 19.45
	L 3.976 20.45
	L 4.359 21.37
	M 5.773 19.94
	L 6.773 19.94
	L 7.697 20.32
	L 8.404 21.03
	M 5.773 19.94
	L 6.156 20.86
	L 6.863 21.57
	L 7.787 21.95
	M 6.539 21.79
	L 7.463 22.17
	L 8.17 22.88
	L 8.552 23.8
	M 6.539 21.79
	L 6.539 22.79
	L 6.921 23.71
	L 7.629 24.42
	M 6.539 23.79
	L 7.246 24.49
	L 7.629 25.42
	L 7.629 26.42
	M 6.539 23.79
	L 6.156 24.71
	L 6.156 25.71
	L 6.539 26.63
	M 4.359 18.52
	L 5.066 19.23
	L 5.773 19.94
	L 6.156 20.86
	L 6.539 21.79
	L 6.539 22.79
	L 6.539 23.79
	M 3.594 20.37
	L 3.976 21.3
	L 3.976 22.3
	L 3.594 23.22
	M 3.594 20.37
	L 2.887 21.08
	L 2.504 22
	L 2.504 23
	M 3.594 22.37
	L 4.301 23.08
	L 4.684 24
	L 4.684 25
	M 3.594 22.37
	L 3.211 23.3
	L 3.211 24.3
	L 3.594 25.22
	M 4.359 24.22
	L 5.283 24.6
	L 5.99 25.31
	L 6.373 26.23
	M 4.359 24.22
	L 4.359 25.22
	L 4.742 26.14
	L 5.449 26.85
	M 4.359 18.52
	L 3.976 19.45
	L 3.594 20.37
	L 3.594 21.37
	L 3.594 22.37
	L 3.976 23.3
	L 4.359 24.22
	M 0 8
	L 0.7071 8.707
	L 1.414 9.414
	L 2.121 10.12
	L 2.828 10.83
	L 3.211 11.75
	L 3.594 12.68
	L 3.976 13.6
	L 4.359 14.52
	L 4.359 15.52
	L 4.359 16.52
	L 4.359 17.52
	L 4.359 18.52
	M -0.7654 9.848
	L -0.3827 10.77
	L -0.3827 11.77
	L -0.7654 12.7
	M -0.7654 9.848
	L -1.472 10.55
	L -1.855 11.48
	L -1.855 12.48
	M -1.531 11.7
	L -1.148 12.62
	L -1.148 13.62
	L -1.531 14.54
	M -1.531 11.7
	L -2.238 12.4
	L -2.621 13.33
	L -2.621 14.33
	M -0.7654 13.54
	L 0.1585 13.93
	L 0.8656 14.63
	L 1.248 15.56
	M -0.7654 13.54
	L -0.7654 14.54
	L -0.3827 15.47
	L 0.3244 16.17
	M -0.7654 15.54
	L -0.05826 16.25
	L 0.3244 17.17
	L 0.3244 18.17
	M -0.7654 15.54
	L -1.148 16.47
	L -1.148 17.47
	L -0.7654 18.39
	M -1.531 17.39
	L -1.148 18.31
	L -1.148 19.31
	L -1.531 20.24
	M -1.531 17.39
	L -2.238 18.1
	L -2.621 19.02
	L -2.621 20.02
	M -1.531 11.7
	L -1.148 12.62
	L -0.7654 13.54
	L -0.7654 14.54
	L -0.7654 15.54
	L -1.148 16.47
	L -1.531 17.39
	M -2.945 13.11
	L -2.945 14.11
	L -3.328 15.03
	L -4.035 15.74
	M -2.945 13.11
	L -3.869 13.49
	L -4.576 14.2
	L -4.959 15.12
	M -3.71 14.96
	L -3.328 15.88
	L -3.328 16.88
	L -3.71 17.81
	M -3.71 14.96
	L -4.417 15.66
	L -4.8 16.59
	L -4.8 17.59
	M -3.71 16.96
	L -3.003 17.66
	L -2.621 18.59
	L -2.621 19.59
	M -3.71 16.96
	L -4.093 17.88
	L -4.093 18.88
	L -3.71 19.81
	M -1.531 11.7
	L -2.238 12.4
	L -2.945 13.11
	L -3.328 14.03
	L -3.71 14.96
	L -3.71 15.96
	L -3.71 16.96
	M -1.531 13.7
	L -0.8236 14.4
	L -0.4409 15.33
	L -0.4409 16.33
	M -1.531 13.7
	L -1.913 14.62
	L -1.913 15.62
	L -1.531 16.54
	M -1.531 15.7
	L -0.8236 16.4
	L -0.4409 17.33
	L -0.4409 18.33
	M -1.531 15.7
	L -1.913 16.62
	L -1.913 17.62
	L -1.531 18.54
	M -0.1165 17.11
	L 0.8835 17.11
	L 1.807 17.49
	L 2.514 18.2
	M -0.1165 17.11
	L 0.2662 18.03
	L 0.9733 18.74
	L 1.897 19.12
	M 0.6488 18.96
	L 1.573 19.34
	L 2.28 20.05
	L 2.663 20.97
	M 0.6488 18.96
	L 0.6488 19.96
	L 1.032 20.88
	L 1.739 21.59
	M 0.6488 20.96
	L 1.356 21.66
	L 1.739 22.59
	L 1.739 23.59
	M 0.6488 20.96
	L 0.2662 21.88
	L 0.2662 22.88
	L 0.6488 23.81
	M -1.531 15.7
	L -0.8236 16.4
	L -0.1165 17.11
	L 0.2662 18.03
	L 0.6488 18.96
	L 0.6488 19.96
	L 0.6488 20.96
	M -2.296 17.54
	L -1.913 18.47
	L -1.913 19.47
	L -2.296 20.39
	M -2.296 17.54
	L -3.003 18.25
	L -3.386 19.17
	L -3.386 20.17
	M -2.296 19.54
	L -1.589 20.25
	L -1.206 21.17
	L -1.206 22.17
	M -2.296 19.54
	L -2.679 20.47
	L -2.679 21.47
	L -2.296 22.39
	M -1.531 21.39
	L -0.6069 21.77
	L 0.1003 22.48
	L 0.4829 23.4
	M -1.531 21.39
	L -1.531 22.39
	L -1.148 23.31
	L -0.4409 24.02
	M -1.531 15.7
	L -1.913 16.62
	L -2.296 17.54
	L -2.296 18.54
	L -2.296 19.54
	L -1.913 20.47
	L -1.531 21.39
	M -0.7654 17.54
	L 0.1585 17.93
	L 0.8656 18.63
	L 1.248 19.56
	M -0.7654 17.54
	L -0.7654 18.54
	L -0.3827 19.47
	L 0.3244 20.17
	M 2.22e-16 19.39
	L 0.9239 19.77
	L 1.631 20.48
	L 2.014 21.4
	M 2.22e-16 19.39
	L 3.331e-16 20.39
	L 0.3827 21.31
	L 1.09 22.02
	M 1.848 20.16
	L 2.772 19.77
	L 3.772 19.77
	L 4.696 20.16
	M 1.848 20.16
	L 2.555 20.86
	L 3.479 21.25
	L 4.479 21.25
	M 3.262 21.57
	L 4.262 21.57
	L 5.186 21.95
	L 5.893 22.66
	M 3.262 21.57
	L 3.645 22.49
	L 4.352 23.2
	L 5.276 23.58
	M 4.027 23.42
	L 4.951 23.8
	L 5.658 24.51
	L 6.041 25.43
	M 4.027 23.42
	L 4.027 24.42
	L 4.41 25.34
	L 5.117 26.05
	M 2.22e-16 19.39
	L 0.9239 19.77
	L 1.848 20.16
	L 2.555 20.86
	L 3.262 21.57
	L 3.645 22.49
	L 4.027 23.42
	M 4.441e-16 21.39
	L 0.7071 22.1
	L 1.09 23.02
	L 1.09 24.02
	M 4.441e-16 21.39
	L -0.3827 22.31
	L -0.3827 23.31
	L 6.106e-16 24.24
	M 0.7654 23.24
	L 1.689 23.62
	L 2.396 24.33
	L 2.779 25.25
	M 0.7654 23.24
	L 0.7654 24.24
	L 1.148 25.16
	L 1.855 25.87
	M 2.18 24.65
	L 3.18 24.65
	L 4.103 25.04
	L 4.811 25.74
	M 2.18 24.65
	L 2.562 25.58
	L 3.269 26.28
	L 4.193 26.67
	M 2.22e-16 19.39
	L 3.331e-16 20.39
	L 4.441e-16 21.39
	L 0.3827 22.31
	L 0.7654 23.24
	L 1.472 23.95
	L 2.18 24.65
	M 0 8
	L -0.3827 8.924
	L -0.7654 9.848
	L -1.148 10.77
	L -1.531 11.7
	L -1.531 12.7
	L -1.531 13.7
	L -1.531 14.7
	L -1.531 15.7
	L -1.148 16.62
	L -0.7654 17.54
	L -0.3827 18.47
	L 2.22e-16 19.39
	M 0 10
	L 0.7071 10.71
	L 1.09 11.63
	L 1.09 12.63
	M 0 10
	L -0.3827 10.92
	L -0.3827 11.92
	L 0 12.85
	M 0 12
	L 0.7071 12.71
	L 1.09 13.63
	L 1.09 14.63
	M 0 12
	L -0.3827 12.92
	L -0.3827 13.92
	L 0 14.85
	M 1.414 13.41
	L 2.414 13.41
	L 3.338 13.8
	L 4.045 14.5
	M 1.414 13.41
	L 1.797 14.34
	L 2.504 15.05
	L 3.428 15.43
	M 2.18 15.26
	L 3.103 15.64
	L 3.811 16.35
	L 4.193 17.28
	M 2.18 15.26
	L 2.18 16.26
	L 2.562 17.19
	L 3.269 17.89
	M 2.18 17.26
	L 2.887 17.97
	L 3.269 18.89
	L 3.269 19.89
	M 2.18 17.26
	L 1.797 18.19
	L 1.797 19.19
	L 2.18 20.11
	M 0 12
	L 0.7071 12.71
	L 1.414 13.41
	L 1.797 14.34
	L 2.18 15.26
	L 2.18 16.26
	L 2.18 17.26
	M -0.7654 13.85
	L -0.3827 14.77
	L -0.3827 15.77
	L -0.7654 16.7
	M -0.7654 13.85
	L -1.472 14.55
	L -1.855 15.48
	L -1.855 16.48
	M -0.7654 15.85
	L -0.05826 16.55
	L 0.3244 17.48
	L 0.3244 18.48
	M -0.7654 15.85
	L -1.148 16.77
	L -1.148 17.77
	L -0.7654 18.7
	M 0 17.7
	L 0.9239 18.08
	L 1.631 18.79
	L 2.014 19.71
	M 0 17.7
	L 5.551e-17 18.7
	L 0.3827 19.62
	L 1.09 20.33
	M 0 12
	L -0.3827 12.92
	L -0.7654 13.85
	L -0.7654 14.85
	L -0.7654 15.85
	L -0.3827 16.77
	L 0 17.7
	M 0 14
	L 0.7071 14.71
	L 1.09 15.63
	L 1.09 16.63
	M 0 14
	L -0.3827 14.92
	L -0.3827 15.92
	L 0 16.85
	M 0 16
	L 0.7071 16.71
	L 1.09 17.63
	L 1.09 18.63
	M 0 16
	L -0.3827 16.92
	L -0.3827 17.92
	L 0 18.85
	M 1.414 17.41
	L 2.414 17.41
	L 3.338 17.8
	L 4.045 18.5
	M 1.414 17.41
	L 1.797 18.34
	L 2.504 19.05
	L 3.428 19.43
	M 2.18 19.26
	L 3.103 19.64
	L 3.811 20.35
	L 4.193 21.28
	M 2.18 19.26
	L 2.18 20.26
	L 2.562 21.19
	L 3.269 21.89
	M 2.18 21.26
	L 2.887 21.97
	L 3.269 22.89
	L 3.269 23.89
	M 2.18 21.26
	L 1.797 22.19
	L 1.797 23.19
	L 2.18 24.11
	M 0 16
	L 0.7071 16.71
	L 1.414 17.41
	L 1.797 18.34
	L 2.18 19.26
	L 2.18 20.26
	L 2.18 21.26
	M -0.7654 17.85
	L -0.3827 18.77
	L -0.3827 19.77
	L -0.7654 20.7
	M -0.7654 17.85
	L -1.472 18.55
	L -1.855 19.48
	L -1.855 20.48
	M -0.7654 19.85
	L -0.05826 20.55
	L 0.3244 21.48
	L 0.3244 22.48
	M -0.7654 19.85
	L -1.148 20.77
	L -1.148 21.77
	L -0.7654 22.7
	M 0 21.7
	L 0.9239 22.08
	L 1.631 22.79
	L 2.014 23.71
	M 0 21.7
	L 5.551e-17 22.7
	L 0.3827 23.62
	L 1.09 24.33
	M 0 16
	L -0.3827 16.92
	L -0.7654 17.85
	L -0.7654 18.85
	L -0.7654 19.85
	L -0.3827 20.77
	L 0 21.7
	M 1.414 17.41
	L 2.414 17.41
	L 3.338 17.8
	L 4.045 18.5
	M 1.414 17.41
	L 1.797 18.34
	L 2.504 19.05
	L 3.428 19.43
	M 2.828 18.83
	L 3.828 18.83
	L 4.752 19.21
	L 5.459 19.92
	M 2.828 18.83
	L 3.211 19.75
	L 3.918 20.46
	L 4.842 20.84
	M 4.828 18.83
	L 5.536 18.12
	L 6.459 17.74
	L 7.459 17.74
	M 4.828 18.83
	L 5.752 19.21
	L 6.752 19.21
	L 7.676 18.83
	M 6.676 19.59
	L 7.6 19.21
	L 8.6 19.21
	L 9.524 19.59
	M 6.676 19.59
	L 7.383 20.3
	L 8.307 20.68
	L 9.307 20.68
	M 8.09 21.01
	L 9.09 21.01
	L 10.01 21.39
	L 10.72 22.1
	M 8.09 21.01
	L 8.473 21.93
	L 9.18 22.64
	L 10.1 23.02
	M 2.828 18.83
	L 3.828 18.83
	L 4.828 18.83
	L 5.752 19.21
	L 6.676 19.59
	L 7.383 20.3
	L 8.09 21.01
	M 3.594 20.68
	L 4.518 21.06
	L 5.225 21.77
	L 5.607 22.69
	M 3.594 20.68
	L 3.594 21.68
	L 3.976 22.6
	L 4.684 23.31
	M 5.008 22.09
	L 6.008 22.09
	L 6.932 22.47
	L 7.639 23.18
	M 5.008 22.09
	L 5.391 23.01
	L 6.098 23.72
	L 7.022 24.1
	M 6.856 22.86
	L 7.78 22.47
	L 8.78 22.47
	L 9.704 22.86
	M 6.856 22.86
	L 7.563 23.56
	L 8.487 23.95
	L 9.487 23.95
	M 2.828 18.83
	L 3.211 19.75
	L 3.594 20.68
	L 4.301 21.38
	L 5.008 22.09
	L 5.932 22.47
	L 6.856 22.86
	M 3.594 20.68
	L 4.518 21.06
	L 5.225 21.77
	L 5.607 22.69
	M 3.594 20.68
	L 3.594 21.68
	L 3.976 22.6
	L 4.684 23.31
	M 4.359 22.52
	L 5.283 22.91
	L 5.99 23.61
	L 6.373 24.54
	M 4.359 22.52
	L 4.359 23.52
	L 4.742 24.45
	L 5.449 25.15
	M 6.207 23.29
	L 7.131 22.91
	L 8.131 22.91
	L 9.055 23.29
	M 6.207 23.29
	L 6.914 24
	L 7.838 24.38
	L 8.838 24.38
	M 7.621 24.7
	L 8.621 24.7
	L 9.545 25.09
	L 10.25 25.79
	M 7.621 24.7
	L 8.004 25.63
	L 8.711 26.33
	L 9.635 26.72
	M 8.387 26.55
	L 9.31 26.93
	L 10.02 27.64
	L 10.4 28.56
	M 8.387 26.55
	L 8.387 27.55
	L 8.769 28.48
	L 9.476 29.18
	M 4.359 22.52
	L 5.283 22.91
	L 6.207 23.29
	L 6.914 24
	L 7.621 24.7
	L 8.004 25.63
	L 8.387 26.55
	M 4.359 24.52
	L 5.066 25.23
	L 5.449 26.15
	L 5.449 27.15
	M 4.359 24.52
	L 3.976 25.45
	L 3.976 26.45
	L 4.359 27.37
	M 5.125 26.37
	L 6.048 26.75
	L 6.756 27.46
	L 7.138 28.39
	M 5.125 26.37
	L 5.125 27.37
	L 5.507 28.3
	L 6.214 29
	M 6.539 27.79
	L 7.539 27.79
	L 8.463 28.17
	L 9.17 28.88
	M 6.539 27.79
	L 6.921 28.71
	L 7.629 29.42
	L 8.552 29.8
	M 4.359 22.52
	L 4.359 23.52
	L 4.359 24.52
	L 4.742 25.45
	L 5.125 26.37
	L 5.832 27.08
	L 6.539 27.79
	M 4.359 24.52
	L 5.066 25.23
	L 5.449 26.15
	L 5.449 27.15
	M 4.359 24.52
	L 3.976 25.45
	L 3.976 26.45
	L 4.359 27.37
	M 4.359 26.52
	L 5.066 27.23
	L 5.449 28.15
	L 5.449 29.15
	M 4.359 26.52
	L 3.976 27.45
	L 3.976 28.45
	L 4.359 29.37
	M 5.773 27.94
	L 6.773 27.94
	L 7.697 28.32
	L 8.404 29.03
	M 5.773 27.94
	L 6.156 28.86
	L 6.863 29.57
	L 7.787 29.95
	M 6.539 29.79
	L 7.463 30.17
	L 8.17 30.88
	L 8.552 31.8
	M 6.539 29.79
	L 6.539 30.79
	L 6.921 31.71
	L 7.629 32.42
	M 6.539 31.79
	L 7.246 32.49
	L 7.629 33.42
	L 7.629 34.42
	M 6.539 31.79
	L 6.156 32.71
	L 6.156 33.71
	L 6.539 34.63
	M 4.359 26.52
	L 5.066 27.23
	L 5.773 27.94
	L 6.156 28.86
	L 6.539 29.79
	L 6.539 30.79
	L 6.539 31.79
	M 3.594 28.37
	L 3.976 29.3
	L 3.976 30.3
	L 3.594 31.22
	M 3.594 28.37
	L 2.887 29.08
	L 2.504 30
	L 2.504 31
	M 3.594 30.37
	L 4.301 31.08
	L 4.684 32
	L 4.684 33
	M 3.594 30.37
	L 3.211 31.3
	L 3.211 32.3
	L 3.594 33.22
	M 4.359 32.22
	L 5.283 32.6
	L 5.99 33.31
	L 6.373 34.23
	M 4.359 32.22
	L 4.359 33.22
	L 4.742 34.14
	L 5.449 34.85
	M 4.359 26.52
	L 3.976 27.45
	L 3.594 28.37
	L 3.594 29.37
	L 3.594 30.37
	L 3.976 31.3
	L 4.359 32.22
	M 0 16
	L 0.7071 16.71
	L 1.414 17.41
	L 2.121 18.12
	L 2.828 18.83
	L 3.211 19.75
	L 3.594 20.68
	L 3.976 21.6
	L 4.359 22.52
	L 4.359 23.52
	L 4.359 24.52
	L 4.359 25.52
	L 4.359 26.52
	M -0.7654 17.85
	L -0.3827 18.77
	L -0.3827 19.77
	L -0.7654 20.7
	M -0.7654 17.85
	L -1.472 18.55
	L -1.855 19.48
	L -1.855 20.48
	M -1.531 19.7
	L -1.148 20.62
	L -1.148 21.62
	L -1.531 22.54
	M -1.531 19.7
	L -2.238 20.4
	L -2.621 21.33
	L -2.621 22.33
	M -0.7654 21.54
	L 0.1585 21.93
	L 0.8656 22.63
	L 1.248 23.56
	M -0.7654 21.54
	L -0.7654 22.54
	L -0.3827 23.47
	L 0.3244 24.17
	M -0.7654 23.54
	L -0.05826 24.25
	L 0.3244 25.17
	L 0.3244 26.17
	M -0.7654 23.54
	L -1.148 24.47
	L -1.148 25.47
	L -0.7654 26.39
	M -1.531 25.39
	L -1.148 26.31
	L -1.148 27.31
	L -1.531 28.24
	M -1.531 25.39
	L -2.238 26.1
	L -2.621 27.02
	L -2.621 28.02
	M -1.531 19.7
	L -1.148 20.62
	L -0.7654 21.54
	L -0.7654 22.54
	L -0.7654 23.54
	L -1.148 24.47
	L -1.531 25.39
	M -2.945 21.11
	L -2.945 22.11
	L -3.328 23.03
	L -4.035 23.74
	M -2.945 21.11
	L -3.869 21.49
	L -4.576 22.2
	L -4.959 23.12
	M -3.71 22.96
	L -3.328 23.88
	L -3.328 24.88
	L -3.71 25.81
	M -3.71 22.96
	L -4.417 23.66
	L -4.8 24.59
	L -4.8 25.59
	M -3.71 24.96
	L -3.003 25.66
	L -2.621 26.59
	L -2.621 27.59
	M -3.71 24.96
	L -4.093 25.88
	L -4.093 26.88
	L -3.71 27.81
	M -1.531 19.7
	L -2.238 20.4
	L -2.945 21.11
	L -3.328 22.03
	L -3.71 22.96
	L -3.71 23.96
	L -3.71 24.96
	M -1.531 21.7
	L -0.8236 22.4
	L -0.4409 23.33
	L -0.4409 24.33
	M -1.531 21.7
	L -1.913 22.62
	L -1.913 23.62
	L -1.531 24.54
	M -1.531 23.7
	L -0.8236 24.4
	L -0.4409 25.33
	L -0.4409 26.33
	M -1.531 23.7
	L -1.913 24.62
	L -1.913 25.62
	L -1.531 26.54
	M -0.1165 25.11
	L 0.8835 25.11
	L 1.807 25.49
	L 2.514 26.2
	M -0.1165 25.11
	L 0.2662 26.03
	L 0.9733 26.74
	L 1.897 27.12
	M 0.6488 26.96
	L 1.573 27.34
	L 2.28 28.05
	L 2.663 28.97
	M 0.6488 26.96
	L 0.6488 27.96
	L 1.032 28.88
	L 1.739 29.59
	M 0.6488 28.96
	L 1.356 29.66
	L 1.739 30.59
	L 1.739 31.59
	M 0.6488 28.96
	L 0.2662 29.88
	L 0.2662 30.88
	L 0.6488 31.81
	M -1.531 23.7
	L -0.8236 24.4
	L -0.1165 25.11
	L 0.2662 26.03
	L 0.6488 26.96
	L 0.6488 27.96
	L 0.6488 28.96
	M -2.296 25.54
	L -1.913 26.47
	L -1.913 27.47
	L -2.296 28.39
	M -2.296 25.54
	L -3.003 26.25
	L -3.386 27.17
	L -3.386 28.17
	M -2.296 27.54
	L -1.589 28.25
	L -1.206 29.17
	L -1.206 30.17
	M -2.296 27.54
	L -2.679 28.47
	L -2.679 29.47
	L -2.296 30.39
	M -1.531 29.39
	L -0.6069 29.77
	L 0.1003 30.48
	L 0.4829 31.4
	M -1.531 29.39
	L -1.531 30.39
	L -1.148 31.31
	L -0.4409 32.02
	M -1.531 23.7
	L -1.913 24.62
	L -2.296 25.54
	L -2.296 26.54
	L -2.296 27.54
	L -1.913 28.47
	L -1.531 29.39
	M -0.7654 25.54
	L 0.1585 25.93
	L 0.8656 26.63
	L 1.248 27.56
	M -0.7654 25.54
	L -0.7654 26.54
	L -0.3827 27.47
	L 0.3244 28.17
	M 2.22e-16 27.39
	L 0.9239 27.77
	L 1.631 28.48
	L 2.014 29.4
	M 2.22e-16 27.39
	L 3.331e-16 28.39
	L 0.3827 29.31
	L 1.09 30.02
	M 1.848 28.16
	L 2.772 27.77
	L 3.772 27.77
	L 4.696 28.16
	M 1.848 28.16
	L 2.555 28.86
	L 3.479 29.25
	L 4.479 29.25
	M 3.262 29.57
	L 4.262 29.57
	L 5.186 29.95
	L 5.893 30.66
	M 3.262 29.57
	L 3.645 30.49
	L 4.352 31.2
	L 5.276 31.58
	M 4.027 31.42
	L 4.951 31.8
	L 5.658 32.51
	L 6.041 33.43
	M 4.027 31.42
	L 4.027 32.42
	L 4.41 33.34
	L 5.117 34.05
	M 2.22e-16 27.39
	L 0.9239 27.77
	L 1.848 28.16
	L 2.555 28.86
	L 3.262 29.57
	L 3.645 30.49
	L 4.027 31.42
	M 4.441e-16 29.39
	L 0.7071 30.1
	L 1.09 31.02
	L 1.09 32.02
	M 4.441e-16 29.39
	L -0.3827 30.31
	L -0.3827 31.31
	L 6.106e-16 32.24
	M 0.7654 31.24
	L 1.689 31.62
	L 2.396 32.33
	L 2.779 33.25
	M 0.7654 31.24
	L 0.7654 32.24
	L 1.148 33.16
	L 1.855 33.87
	M 2.18 32.65
	L 3.18 32.65
	L 4.103 33.04
	L 4.811 33.74
	M 2.18 32.65
	L 2.562 33.58
	L 3.269 34.28
	L 4.193 34.67
	M 2.22e-16 27.39
	L 3.331e-16 28.39
	L 4.441e-16 29.39
	L 0.3827 30.31
	L 0.7654 31.24
	L 1.472 31.95
	L 2.18 32.65
	M 0 16
	L -0.3827 16.92
	L -0.7654 17.85
	L -1.148 18.77
	L -1.531 19.7
	L -1.531 20.7
	L -1.531 21.7
	L -1.531 22.7
	L -1.531 23.7
	L -1.148 24.62
	L -0.7654 25.54
	L -0.3827 26.47
	L 2.22e-16 27.39
	M 1.414 17.41
	L 2.414 17.41
	L 3.338 17.8
	L 4.045 18.5
	M 1.414 17.41
	L 1.797 18.34
	L 2.504 19.05
	L 3.428 19.43
	M 2.828 18.83
	L 3.828 18.83
	L 4.752 19.21
	L 5.459 19.92
	M 2.828 18.83
	L 3.211 19.75
	L 3.918 20.46
	L 4.842 20.84
	M 4.828 18.83
	L 5.536 18.12
	L 6.459 17.74
	L 7.459 17.74
	M 4.828 18.83
	L 5.752 19.21
	L 6.752 19.21
	L 7.676 18.83
	M 6.676 19.59
	L 7.6 19.21
	L 8.6 19.21
	L 9.524 19.59
	M 6.676 19.59
	L 7.383 20.3
	L 8.307 20.68
	L 9.307 20.68
	M 8.09 21.01
	L 9.09 21.01
	L 10.01 21.39
	L 10.72 22.1
	M 8.09 21.01
	L 8.473 21.93
	L 9.18 22.64
	L 10.1 23.02
	M 2.828 18.83
	L 3.828 18.83
	L 4.828 18.83
	L 5.752 19.21
	L 6.676 19.59
	L 7.383 20.3
	L 8.09 21.01
	M 3.594 20.68
	L 4.518 21.06
	L 5.225 21.77
	L 5.607 22.69
	M 3.594 20.68
	L 3.594 21.68
	L 3.976 22.6
	L 4.684 23.31
	M 5.008 22.09
	L 6.008 22.09
	L 6.932 22.47
	L 7.639 23.18
	M 5.008 22.09
	L 5.391 23.01
	L 6.098 23.72
	L 7.022 24.1
	M 6.856 22.86
	L 7.78 22.47
	L 8.78 22.47
	L 9.704 22.86
	M 6.856 22.86
	L 7.563 23.56
	L 8.487 23.95
	L 9.487 23.95
	M 2.828 18.83
	L 3.211 19.75
	L 3.594 20.68
	L 4.301 21.38
	L 5.008 22.09
	L 5.932 22.47
	L 6.856 22.86
	M 4.243 20.24
	L 5.243 20.24
	L 6.167 20.63
	L 6.874 21.33
	M 4.243 20.24
	L 4.625 21.17
	L 5.332 21.87
	L 6.256 22.26
	M 5.657 21.66
	L 6.657 21.66
	L 7.581 22.04
	L 8.288 22.75
	M 5.657 21.66
	L 6.04 22.58
	L 6.747 23.29
	L 7.671 23.67
	M 7.657 21.66
	L 8.364 20.95
	L 9.288 20.57
	L 10.29 20.57
	M 7.657 21.66
	L 8.581 22.04
	L 9.581 22.04
	L 10.5 21.66
	M 9.505 22.42
	L 10.43 22.04
	L 11.43 22.04
	L 12.35 22.42
	M 9.505 22.42
	L 10.21 23.13
	L 11.14 23.51
	L 12.14 23.51
	M 10.92 23.84
	L 11.92 23.84
	L 12.84 24.22
	L 13.55 24.93
	M 10.92 23.84
	L 11.3 24.76
	L 12.01 25.47
	L 12.93 25.85
	M 5.657 21.66
	L 6.657 21.66
	L 7.657 21.66
	L 8.581 22.04
	L 9.505 22.42
	L 10.21 23.13
	L 10.92 23.84
	M 6.422 23.5
	L 7.346 23.89
	L 8.053 24.59
	L 8.436 25.52
	M 6.422 23.5
	L 6.422 24.5
	L 6.805 25.43
	L 7.512 26.14
	M 7.836 24.92
	L 8.836 24.92
	L 9.76 25.3
	L 10.47 26.01
	M 7.836 24.92
	L 8.219 25.84
	L 8.926 26.55
	L 9.85 26.93
	M 9.684 25.68
	L 10.61 25.3
	L 11.61 25.3
	L 12.53 25.68
	M 9.684 25.68
	L 10.39 26.39
	L 11.32 26.77
	L 12.32 26.77
	M 5.657 21.66
	L 6.04 22.58
	L 6.422 23.5
	L 7.129 24.21
	L 7.836 24.92
	L 8.76 25.3
	L 9.684 25.68
	M 7.657 21.66
	L 8.364 20.95
	L 9.288 20.57
	L 10.29 20.57
	M 7.657 21.66
	L 8.581 22.04
	L 9.581 22.04
	L 10.5 21.66
	M 9.657 21.66
	L 10.36 20.95
	L 11.29 20.57
	L 12.29 20.57
	M 9.657 21.66
	L 10.58 22.04
	L 11.58 22.04
	L 12.5 21.66
	M 11.07 20.24
	L 11.07 19.24
	L 11.45 18.32
	L 12.16 17.61
	M 11.07 20.24
	L 11.99 19.86
	L 12.7 19.15
	L 13.08 18.23
	M 12.92 19.48
	L 13.3 18.55
	L 14.01 17.85
	L 14.93 17.46
	M 12.92 19.48
	L 13.92 19.48
	L 14.84 19.09
	L 15.55 18.39
	M 14.92 19.48
	L 15.63 18.77
	L 16.55 18.39
	L 17.55 18.39
	M 14.92 19.48
	L 15.84 19.86
	L 16.84 19.86
	L 17.77 19.48
	M 9.657 21.66
	L 10.36 20.95
	L 11.07 20.24
	L 11.99 19.86
	L 12.92 19.48
	L 13.92 19.48
	L 14.92 19.48
	M 11.5 22.42
	L 12.43 22.04
	L 13.43 22.04
	L 14.35 22.42
	M 11.5 22.42
	L 12.21 23.13
	L 13.14 23.51
	L 14.14 23.51
	M 13.5 22.42
	L 14.21 21.72
	L 15.14 21.33
	L 16.14 21.33
	M 13.5 22.42
	L 14.43 22.8
	L 15.43 22.8
	L 16.35 22.42
	M 15.35 21.66
	L 15.74 20.73
	L 16.44 20.03
	L 17.37 19.64
	M 15.35 21.66
	L 16.35 21.66
	L 17.28 21.27
	L 17.98 20.57
	M 9.657 21.66
	L 10.58 22.04
	L 11.5 22.42
	L 12.5 22.42
	L 13.5 22.42
	L 14.43 22.04
	L 15.35 21.66
	M 11.5 22.42
	L 12.43 22.04
	L 13.43 22.04
	L 14.35 22.42
	M 11.5 22.42
	L 12.21 23.13
	L 13.14 23.51
	L 14.14 23.51
	M 13.35 23.19
	L 14.28 22.8
	L 15.28 22.8
	L 16.2 23.19
	M 13.35 23.19
	L 14.06 23.89
	L 14.98 24.28
	L 15.98 24.28
	M 15.2 22.42
	L 15.58 21.5
	L 16.29 20.79
	L 17.21 20.41
	M 15.2 22.42
	L 16.2 22.42
	L 17.12 22.04
	L 17.83 21.33
	M 17.2 22.42
	L 17.91 21.72
	L 18.83 21.33
	L 19.83 21.33
	M 17.2 22.42
	L 18.12 22.8
	L 19.12 22.8
	L 20.05 22.42
	M 19.05 23.19
	L 19.97 22.8
	L 20.97 22.8
	L 21.9 23.19
	M 19.05 23.19
	L 19.75 23.89
	L 20.68 24.28
	L 21.68 24.28
	M 13.35 23.19
	L 14.28 22.8
	L 15.2 22.42
	L 16.2 22.42
	L 17.2 22.42
	L 18.12 22.8
	L 19.05 23.19
	M 14.77 24.6
	L 15.77 24.6
	L 16.69 24.98
	L 17.4 25.69
	M 14.77 24.6
	L 15.15 25.53
	L 15.86 26.23
	L 16.78 26.62
	M 16.61 25.37
	L 17.54 24.98
	L 18.54 24.98
	L 19.46 25.37
	M 16.61 25.37
	L 17.32 26.07
	L 18.25 26.46
	L 19.25 26.46
	M 18.61 25.37
	L 19.32 24.66
	L 20.25 24.28
	L 21.25 24.28
	M 18.61 25.37
	L 19.54 25.75
	L 20.54 25.75
	L 21.46 25.37
	M 13.35 23.19
	L 14.06 23.89
	L 14.77 24.6
	L 15.69 24.98
	L 16.61 25.37
	L 17.61 25.37
	L 18.61 25.37
	M 14.77 24.6
	L 15.77 24.6
	L 16.69 24.98
	L 17.4 25.69
	M 14.77 24.6
	L 15.15 25.53
	L 15.86 26.23
	L 16.78 26.62
	M 16.18 26.02
	L 17.18 26.02
	L 18.1 26.4
	L 18.81 27.11
	M 16.18 26.02
	L 16.56 26.94
	L 17.27 27.65
	L 18.19 28.03
	M 18.18 26.02
	L 18.89 25.31
	L 19.81 24.93
	L 20.81 24.93
	M 18.18 26.02
	L 19.1 26.4
	L 20.1 26.4
	L 21.03 26.02
	M 20.03 26.78
	L 20.95 26.4
	L 21.95 26.4
	L 22.88 26.78
	M 20.03 26.78
	L 20.74 27.49
	L 21.66 27.87
	L 22.66 27.87
	M 21.44 28.2
	L 22.44 28.2
	L 23.37 28.58
	L 24.07 29.29
	M 21.44 28.2
	L 21.83 29.12
	L 22.53 29.83
	L 23.46 30.21
	M 16.18 26.02
	L 17.18 26.02
	L 18.18 26.02
	L 19.1 26.4
	L 20.03 26.78
	L 20.74 27.49
	L 21.44 28.2
	M 16.95 27.86
	L 17.87 28.25
	L 18.58 28.95
	L 18.96 29.88
	M 16.95 27.86
	L 16.95 28.86
	L 17.33 29.79
	L 18.04 30.49
	M 18.36 29.28
	L 19.36 29.28
	L 20.28 29.66
	L 20.99 30.37
	M 18.36 29.28
	L 18.74 30.2
	L 19.45 30.91
	L 20.37 31.29
	M 20.21 30.04
	L 21.13 29.66
	L 22.13 29.66
	L 23.06 30.04
	M 20.21 30.04
	L 20.92 30.75
	L 21.84 31.13
	L 22.84 31.13
	M 16.18 26.02
	L 16.56 26.94
	L 16.95 27.86
	L 17.65 28.57
	L 18.36 29.28
	L 19.28 29.66
	L 20.21 30.04
	M 5.657 21.66
	L 6.657 21.66
	L 7.657 21.66
	L 8.657 21.66
	L 9.657 21.66
	L 10.58 22.04
	L 11.5 22.42
	L 12.43 22.8
	L 13.35 23.19
	L 14.06 23.89
	L 14.77 24.6
	L 15.47 25.31
	L 16.18 26.02
	M 6.422 23.5
	L 7.346 23.89
	L 8.053 24.59
	L 8.436 25.52
	M 6.422 23.5
	L 6.422 24.5
	L 6.805 25.43
	L 7.512 26.14
	M 7.188 25.35
	L 8.111 25.74
	L 8.819 26.44
	L 9.201 27.37
	M 7.188 25.35
	L 7.188 26.35
	L 7.57 27.28
	L 8.277 27.98
	M 9.035 26.12
	L 9.959 25.74
	L 10.96 25.74
	L 11.88 26.12
	M 9.035 26.12
	L 9.742 26.82
	L 10.67 27.21
	L 11.67 27.21
	M 10.45 27.53
	L 11.45 27.53
	L 12.37 27.91
	L 13.08 28.62
	M 10.45 27.53
	L 10.83 28.46
	L 11.54 29.16
	L 12.46 29.55
	M 11.21 29.38
	L 12.14 29.76
	L 12.85 30.47
	L 13.23 31.39
	M 11.21 29.38
	L 11.21 30.38
	L 11.6 31.3
	L 12.3 32.01
	M 7.188 25.35
	L 8.111 25.74
	L 9.035 26.12
	L 9.742 26.82
	L 10.45 27.53
	L 10.83 28.46
	L 11.21 29.38
	M 7.188 27.35
	L 7.895 28.06
	L 8.277 28.98
	L 8.277 29.98
	M 7.188 27.35
	L 6.805 28.28
	L 6.805 29.28
	L 7.188 30.2
	M 7.953 29.2
	L 8.877 29.58
	L 9.584 30.29
	L 9.967 31.21
	M 7.953 29.2
	L 7.953 30.2
	L 8.336 31.12
	L 9.043 31.83
	M 9.367 30.61
	L 10.37 30.61
	L 11.29 31
	L 12 31.7
	M 9.367 30.61
	L 9.75 31.54
	L 10.46 32.25
	L 11.38 32.63
	M 7.188 25.35
	L 7.188 26.35
	L 7.188 27.35
	L 7.57 28.28
	L 7.953 29.2
	L 8.66 29.91
	L 9.367 30.61
	M 8.602 26.77
	L 9.602 26.77
	L 10.53 27.15
	L 11.23 27.86
	M 8.602 26.77
	L 8.984 27.69
	L 9.692 28.4
	L 10.62 28.78
	M 10.02 28.18
	L 11.02 28.18
	L 11.94 28.56
	L 12.65 29.27
	M 10.02 28.18
	L 10.4 29.1
	L 11.11 29.81
	L 12.03 30.19
	M 12.02 28.18
	L 12.72 27.47
	L 13.65 27.09
	L 14.65 27.09
	M 12.02 28.18
	L 12.94 28.56
	L 13.94 28.56
	L 14.86 28.18
	M 13.86 28.95
	L 14.79 28.56
	L 15.79 28.56
	L 16.71 28.95
	M 13.86 28.95
	L 14.57 29.65
	L 15.49 30.04
	L 16.49 30.04
	M 15.28 30.36
	L 16.28 30.36
	L 17.2 30.74
	L 17.91 31.45
	M 15.28 30.36
	L 15.66 31.28
	L 16.37 31.99
	L 17.29 32.37
	M 10.02 28.18
	L 11.02 28.18
	L 12.02 28.18
	L 12.94 28.56
	L 13.86 28.95
	L 14.57 29.65
	L 15.28 30.36
	M 10.78 30.03
	L 11.71 30.41
	L 12.41 31.12
	L 12.8 32.04
	M 10.78 30.03
	L 10.78 31.03
	L 11.16 31.95
	L 11.87 32.66
	M 12.2 31.44
	L 13.2 31.44
	L 14.12 31.83
	L 14.83 32.53
	M 12.2 31.44
	L 12.58 32.37
	L 13.29 33.07
	L 14.21 33.46
	M 14.04 32.21
	L 14.97 31.83
	L 15.97 31.83
	L 16.89 32.21
	M 14.04 32.21
	L 14.75 32.92
	L 15.67 33.3
	L 16.67 33.3
	M 10.02 28.18
	L 10.4 29.1
	L 10.78 30.03
	L 11.49 30.74
	L 12.2 31.44
	L 13.12 31.83
	L 14.04 32.21
	M 11.86 28.95
	L 12.79 28.56
	L 13.79 28.56
	L 14.71 28.95
	M 11.86 28.95
	L 12.57 29.65
	L 13.49 30.04
	L 14.49 30.04
	M 13.71 29.71
	L 14.64 29.33
	L 15.64 29.33
	L 16.56 29.71
	M 13.71 29.71
	L 14.42 30.42
	L 15.34 30.8
	L 16.34 30.8
	M 15.56 28.95
	L 15.94 28.02
	L 16.65 27.32
	L 17.57 26.93
	M 15.56 28.95
	L 16.56 28.95
	L 17.48 28.56
	L 18.19 27.86
	M 17.56 28.95
	L 18.27 28.24
	L 19.19 27.86
	L 20.19 27.86
	M 17.56 28.95
	L 18.48 29.33
	L 19.48 29.33
	L 20.41 28.95
	M 19.41 29.71
	L 20.33 29.33
	L 21.33 29.33
	L 22.25 29.71
	M 19.41 29.71
	L 20.11 30.42
	L 21.04 30.8
	L 22.04 30.8
	M 13.71 29.71
	L 14.64 29.33
	L 15.56 28.95
	L 16.56 28.95
	L 17.56 28.95
	L 18.48 29.33
	L 19.41 29.71
	M 15.13 31.13
	L 16.13 31.13
	L 17.05 31.51
	L 17.76 32.22
	M 15.13 31.13
	L 15.51 32.05
	L 16.22 32.76
	L 17.14 33.14
	M 16.97 31.89
	L 17.9 31.51
	L 18.9 31.51
	L 19.82 31.89
	M 16.97 31.89
	L 17.68 32.6
	L 18.6 32.98
	L 19.6 32.98
	M 18.97 31.89
	L 19.68 31.18
	L 20.6 30.8
	L 21.6 30.8
	M 18.97 31.89
	L 19.9 32.27
	L 20.9 32.27
	L 21.82 31.89
	M 13.71 29.71
	L 14.42 30.42
	L 15.13 31.13
	L 16.05 31.51
	L 16.97 31.89
	L 17.97 31.89
	L 18.97 31.89
	M 5.657 21.66
	L 6.04 22.58
	L 6.422 23.5
	L 6.805 24.43
	L 7.188 25.35
	L 7.895 26.06
	L 8.602 26.77
	L 9.309 27.47
	L 10.02 28.18
	L 10.94 28.56
	L 11.86 28.95
	L 12.79 29.33
	L 13.71 29.71
	M 6.422 23.5
	L 7.346 23.89
	L 8.053 24.59
	L 8.436 25.52
	M 6.422 23.5
	L 6.422 24.5
	L 6.805 25.43
	L 7.512 26.14
	M 7.188 25.35
	L 8.111 25.74
	L 8.819 26.44
	L 9.201 27.37
	M 7.188 25.35
	L 7.188 26.35
	L 7.57 27.28
	L 8.277 27.98
	M 9.035 26.12
	L 9.959 25.74
	L 10.96 25.74
	L 11.88 26.12
	M 9.035 26.12
	L 9.742 26.82
	L 10.67 27.21
	L 11.67 27.21
	M 10.45 27.53
	L 11.45 27.53
	L 12.37 27.91
	L 13.08 28.62
	M 10.45 27.53
	L 10.83 28.46
	L 11.54 29.16
	L 12.46 29.55
	M 11.21 29.38
	L 12.14 29.76
	L 12.85 30.47
	L 13.23 31.39
	M 11.21 29.38
	L 11.21 30.38
	L 11.6 31.3
	L 12.3 32.01
	M 7.188 25.35
	L 8.111 25.74
	L 9.035 26.12
	L 9.742 26.82
	L 10.45 27.53
	L 10.83 28.46
	L 11.21 29.38
	M 7.188 27.35
	L 7.895 28.06
	L 8.277 28.98
	L 8.277 29.98
	M 7.188 27.35
	L 6.805 28.28
	L 6.805 29.28
	L 7.188 30.2
	M 7.953 29.2
	L 8.877 29.58
	L 9.584 30.29
	L 9.967 31.21
	M 7.953 29.2
	L 7.953 30.2
	L 8.336 31.12
	L 9.043 31.83
	M 9.367 30.61
	L 10.37 30.61
	L 11.29 31
	L 12 31.7
	M 9.367 30.61
	L 9.75 31.54
	L 10.46 32.25
	L 11.38 32.63
	M 7.188 25.35
	L 7.188 26.35
	L 7.188 27.35
	L 7.57 28.28
	L 7.953 29.2
	L 8.66 29.91
	L 9.367 30.61
	M 7.953 27.2
	L 8.877 27.58
	L 9.584 28.29
	L 9.967 29.21
	M 7.953 27.2
	L 7.953 28.2
	L 8.336 29.12
	L 9.043 29.83
	M 8.718 29.05
	L 9.642 29.43
	L 10.35 30.14
	L 10.73 31.06
	M 8.718 29.05
	L 8.718 30.05
	L 9.101 30.97
	L 9.808 31.68
	M 10.57 29.81
	L 11.49 29.43
	L 12.49 29.43
	L 13.41 29.81
	M 10.57 29.81
	L 11.27 30.52
	L 12.2 30.9
	L 13.2 30.9
	M 11.98 31.23
	L 12.98 31.23
	L 13.9 31.61
	L 14.61 32.32
	M 11.98 31.23
	L 12.36 32.15
	L 13.07 32.86
	L 13.99 33.24
	M 12.75 33.08
	L 13.67 33.46
	L 14.38 34.17
	L 14.76 35.09
	M 12.75 33.08
	L 12.75 34.08
	L 13.13 35
	L 13.84 35.71
	M 8.718 29.05
	L 9.642 29.43
	L 10.57 29.81
	L 11.27 30.52
	L 11.98 31.23
	L 12.36 32.15
	L 12.75 33.08
	M 8.718 31.05
	L 9.425 31.75
	L 9.808 32.68
	L 9.808 33.68
	M 8.718 31.05
	L 8.336 31.97
	L 8.336 32.97
	L 8.718 33.9
	M 9.484 32.9
	L 10.41 33.28
	L 11.11 33.99
	L 11.5 34.91
	M 9.484 32.9
	L 9.484 33.9
	L 9.866 34.82
	L 10.57 35.53
	M 10.9 34.31
	L 11.9 34.31
	L 12.82 34.69
	L 13.53 35.4
	M 10.9 34.31
	L 11.28 35.23
	L 11.99 35.94
	L 12.91 36.32
	M 8.718 29.05
	L 8.718 30.05
	L 8.718 31.05
	L 9.101 31.97
	L 9.484 32.9
	L 10.19 33.6
	L 10.9 34.31
	M 10.57 29.81
	L 11.49 29.43
	L 12.49 29.43
	L 13.41 29.81
	M 10.57 29.81
	L 11.27 30.52
	L 12.2 30.9
	L 13.2 30.9
	M 12.41 30.58
	L 13.34 30.2
	L 14.34 30.2
	L 15.26 30.58
	M 12.41 30.58
	L 13.12 31.29
	L 14.04 31.67
	L 15.04 31.67
	M 14.26 29.81
	L 14.64 28.89
	L 15.35 28.18
	L 16.28 27.8
	M 14.26 29.81
	L 15.26 29.81
	L 16.19 29.43
	L 16.89 28.72
	M 16.26 29.81
	L 16.97 29.11
	L 17.89 28.72
	L 18.89 28.72
	M 16.26 29.81
	L 17.19 30.2
	L 18.19 30.2
	L 19.11 29.81
	M 18.11 30.58
	L 19.03 30.2
	L 20.03 30.2
	L 20.96 30.58
	M 18.11 30.58
	L 18.82 31.29
	L 19.74 31.67
	L 20.74 31.67
	M 12.41 30.58
	L 13.34 30.2
	L 14.26 29.81
	L 15.26 29.81
	L 16.26 29.81
	L 17.19 30.2
	L 18.11 30.58
	M 13.83 31.99
	L 14.83 31.99
	L 15.75 32.38
	L 16.46 33.08
	M 13.83 31.99
	L 14.21 32.92
	L 14.92 33.62
	L 15.84 34.01
	M 15.68 32.76
	L 16.6 32.38
	L 17.6 32.38
	L 18.52 32.76
	M 15.68 32.76
	L 16.38 33.47
	L 17.31 33.85
	L 18.31 33.85
	M 17.68 32.76
	L 18.38 32.05
	L 19.31 31.67
	L 20.31 31.67
	M 17.68 32.76
	L 18.6 33.14
	L 19.6 33.14
	L 20.52 32.76
	M 12.41 30.58
	L 13.12 31.29
	L 13.83 31.99
	L 14.75 32.38
	L 15.68 32.76
	L 16.68 32.76
	L 17.68 32.76
	M 13.83 31.99
	L 14.83 31.99
	L 15.75 32.38
	L 16.46 33.08
	M 13.83 31.99
	L 14.21 32.92
	L 14.92 33.62
	L 15.84 34.01
	M 15.24 33.41
	L 16.24 33.41
	L 17.17 33.79
	L 17.87 34.5
	M 15.24 33.41
	L 15.62 34.33
	L 16.33 35.04
	L 17.26 35.42
	M 17.24 33.41
	L 17.95 32.7
	L 18.87 32.32
	L 19.87 32.32
	M 17.24 33.41
	L 18.17 33.79
	L 19.17 33.79
	L 20.09 33.41
	M 19.09 34.17
	L 20.01 33.79
	L 21.01 33.79
	L 21.94 34.17
	M 19.09 34.17
	L 19.8 34.88
	L 20.72 35.26
	L 21.72 35.26
	M 20.5 35.59
	L 21.5 35.59
	L 22.43 35.97
	L 23.14 36.68
	M 20.5 35.59
	L 20.89 36.51
	L 21.59 37.22
	L 22.52 37.6
	M 15.24 33.41
	L 16.24 33.41
	L 17.24 33.41
	L 18.17 33.79
	L 19.09 34.17
	L 19.8 34.88
	L 20.5 35.59
	M 16.01 35.25
	L 16.93 35.64
	L 17.64 36.34
	L 18.02 37.27
	M 16.01 35.25
	L 16.01 36.25
	L 16.39 37.18
	L 17.1 37.89
	M 17.42 36.67
	L 18.42 36.67
	L 19.35 37.05
	L 20.05 37.76
	M 17.42 36.67
	L 17.8 37.59
	L 18.51 38.3
	L 19.44 38.68
	M 19.27 37.43
	L 20.19 37.05
	L 21.19 37.05
	L 22.12 37.43
	M 19.27 37.43
	L 19.98 38.14
	L 20.9 38.52
	L 21.9 38.52
	M 15.24 33.41
	L 15.62 34.33
	L 16.01 35.25
	L 16.71 35.96
	L 17.42 36.67
	L 18.35 37.05
	L 19.27 37.43
	M 16.01 35.25
	L 16.93 35.64
	L 17.64 36.34
	L 18.02 37.27
	M 16.01 35.25
	L 16.01 36.25
	L 16.39 37.18
	L 17.1 37.89
	M 16.77 37.1
	L 17.7 37.49
	L 18.4 38.19
	L 18.79 39.12
	M 16.77 37.1
	L 16.77 38.1
	L 17.16 39.03
	L 17.86 39.73
	M 18.62 37.87
	L 19.54 37.49
	L 20.54 37.49
	L 21.47 37.87
	M 18.62 37.87
	L 19.33 38.58
	L 20.25 38.96
	L 21.25 38.96
	M 20.03 39.28
	L 21.03 39.28
	L 21.96 39.66
	L 22.67 40.37
	M 20.03 39.28
	L 20.42 40.21
	L 21.12 40.91
	L 22.05 41.3
	M 20.8 41.13
	L 21.72 41.51
	L 22.43 42.22
	L 22.81 43.14
	M 20.8 41.13
	L 20.8 42.13
	L 21.18 43.05
	L 21.89 43.76
	M 16.77 37.1
	L 17.7 37.49
	L 18.62 37.87
	L 19.33 38.58
	L 20.03 39.28
	L 20.42 40.21
	L 20.8 41.13
	M 16.77 39.1
	L 17.48 39.81
	L 17.86 40.73
	L 17.86 41.73
	M 16.77 39.1
	L 16.39 40.03
	L 16.39 41.03
	L 16.77 41.95
	M 17.54 40.95
	L 18.46 41.33
	L 19.17 42.04
	L 19.55 42.96
	M 17.54 40.95
	L 17.54 41.95
	L 17.92 42.87
	L 18.63 43.58
	M 18.95 42.36
	L 19.95 42.36
	L 20.88 42.75
	L 21.58 43.45
	M 18.95 42.36
	L 19.34 43.29
	L 20.04 44
	L 20.97 44.38
	M 16.77 37.1
	L 16.77 38.1
	L 16.77 39.1
	L 17.16 40.03
	L 17.54 40.95
	L 18.25 41.66
	L 18.95 42.36
	M 8.718 29.05
	L 9.642 29.43
	L 10.57 29.81
	L 11.49 30.2
	L 12.41 30.58
	L 13.12 31.29
	L 13.83 31.99
	L 14.54 32.7
	L 15.24 33.41
	L 15.62 34.33
	L 16.01 35.25
	L 16.39 36.18
	L 16.77 37.1
	M 8.718 31.05
	L 9.425 31.75
	L 9.808 32.68
	L 9.808 33.68
	M 8.718 31.05
	L 8.336 31.97
	L 8.336 32.97
	L 8.718 33.9
	M 8.718 33.05
	L 9.425 33.75
	L 9.808 34.68
	L 9.808 35.68
	M 8.718 33.05
	L 8.336 33.97
	L 8.336 34.97
	L 8.718 35.9
	M 10.13 34.46
	L 11.13 34.46
	L 12.06 34.84
	L 12.76 35.55
	M 10.13 34.46
	L 10.52 35.39
	L 11.22 36.09
	L 12.15 36.48
	M 10.9 36.31
	L 11.82 36.69
	L 12.53 37.4
	L 12.91 38.32
	M 10.9 36.31
	L 10.9 37.31
	L 11.28 38.23
	L 11.99 38.94
	M 10.9 38.31
	L 11.61 39.02
	L 11.99 39.94
	L 11.99 40.94
	M 10.9 38.31
	L 10.52 39.23
	L 10.52 40.23
	L 10.9 41.16
	M 8.718 33.05
	L 9.425 33.75
	L 10.13 34.46
	L 10.52 35.39
	L 10.9 36.31
	L 10.9 37.31
	L 10.9 38.31
	M 7.953 34.9
	L 8.336 35.82
	L 8.336 36.82
	L 7.953 37.74
	M 7.953 34.9
	L 7.246 35.6
	L 6.863 36.53
	L 6.863 37.53
	M 7.953 36.9
	L 8.66 37.6
	L 9.043 38.53
	L 9.043 39.53
	M 7.953 36.9
	L 7.57 37.82
	L 7.57 38.82
	L 7.953 39.74
	M 8.718 38.74
	L 9.642 39.13
	L 10.35 39.83
	L 10.73 40.76
	M 8.718 38.74
	L 8.718 39.74
	L 9.101 40.67
	L 9.808 41.37
	M 8.718 33.05
	L 8.336 33.97
	L 7.953 34.9
	L 7.953 35.9
	L 7.953 36.9
	L 8.336 37.82
	L 8.718 38.74
	M 9.484 34.9
	L 10.41 35.28
	L 11.11 35.99
	L 11.5 36.91
	M 9.484 34.9
	L 9.484 35.9
	L 9.866 36.82
	L 10.57 37.53
	M 10.25 36.74
	L 11.17 37.13
	L 11.88 37.83
	L 12.26 38.76
	M 10.25 36.74
	L 10.25 37.74
	L 10.63 38.67
	L 11.34 39.37
	M 12.1 37.51
	L 13.02 37.13
	L 14.02 37.13
	L 14.94 37.51
	M 12.1 37.51
	L 12.8 38.22
	L 13.73 38.6
	L 14.73 38.6
	M 13.51 38.92
	L 14.51 38.92
	L 15.43 39.31
	L 16.14 40.01
	M 13.51 38.92
	L 13.89 39.85
	L 14.6 40.55
	L 15.52 40.94
	M 14.28 40.77
	L 15.2 41.15
	L 15.91 41.86
	L 16.29 42.78
	M 14.28 40.77
	L 14.28 41.77
	L 14.66 42.69
	L 15.37 43.4
	M 10.25 36.74
	L 11.17 37.13
	L 12.1 37.51
	L 12.8 38.22
	L 13.51 38.92
	L 13.89 39.85
	L 14.28 40.77
	M 10.25 38.74
	L 10.96 39.45
	L 11.34 40.37
	L 11.34 41.37
	M 10.25 38.74
	L 9.866 39.67
	L 9.866 40.67
	L 10.25 41.59
	M 11.01 40.59
	L 11.94 40.97
	L 12.65 41.68
	L 13.03 42.6
	M 11.01 40.59
	L 11.01 41.59
	L 11.4 42.52
	L 12.1 43.22
	M 12.43 42.01
	L 13.43 42.01
	L 14.35 42.39
	L 15.06 43.1
	M 12.43 42.01
	L 12.81 42.93
	L 13.52 43.64
	L 14.44 44.02
	M 10.25 36.74
	L 10.25 37.74
	L 10.25 38.74
	L 10.63 39.67
	L 11.01 40.59
	L 11.72 41.3
	L 12.43 42.01
	M 11.66 38.16
	L 12.66 38.16
	L 13.59 38.54
	L 14.29 39.25
	M 11.66 38.16
	L 12.05 39.08
	L 12.75 39.79
	L 13.68 40.17
	M 13.08 39.57
	L 14.08 39.57
	L 15 39.95
	L 15.71 40.66
	M 13.08 39.57
	L 13.46 40.5
	L 14.17 41.2
	L 15.09 41.59
	M 15.08 39.57
	L 15.78 38.86
	L 16.71 38.48
	L 17.71 38.48
	M 15.08 39.57
	L 16 39.95
	L 17 39.95
	L 17.93 39.57
	M 16.93 40.34
	L 17.85 39.95
	L 18.85 39.95
	L 19.77 40.34
	M 16.93 40.34
	L 17.63 41.04
	L 18.56 41.43
	L 19.56 41.43
	M 18.34 41.75
	L 19.34 41.75
	L 20.26 42.13
	L 20.97 42.84
	M 18.34 41.75
	L 18.72 42.68
	L 19.43 43.38
	L 20.35 43.77
	M 13.08 39.57
	L 14.08 39.57
	L 15.08 39.57
	L 16 39.95
	L 16.93 40.34
	L 17.63 41.04
	L 18.34 41.75
	M 13.84 41.42
	L 14.77 41.8
	L 15.47 42.51
	L 15.86 43.43
	M 13.84 41.42
	L 13.84 42.42
	L 14.23 43.34
	L 14.93 44.05
	M 15.26 42.83
	L 16.26 42.83
	L 17.18 43.22
	L 17.89 43.92
	M 15.26 42.83
	L 15.64 43.76
	L 16.35 44.46
	L 17.27 44.85
	M 17.1 43.6
	L 18.03 43.22
	L 19.03 43.22
	L 19.95 43.6
	M 17.1 43.6
	L 17.81 44.31
	L 18.74 44.69
	L 19.74 44.69
	M 13.08 39.57
	L 13.46 40.5
	L 13.84 41.42
	L 14.55 42.13
	L 15.26 42.83
	L 16.18 43.22
	L 17.1 43.6
	M 8.718 29.05
	L 8.718 30.05
	L 8.718 31.05
	L 8.718 32.05
	L 8.718 33.05
	L 9.101 33.97
	L 9.484 34.9
	L 9.866 35.82
	L 10.25 36.74
	L 10.96 37.45
	L 11.66 38.16
	L 12.37 38.86
	L 13.08 39.57
	M 8.718 31.05
	L 9.425 31.75
	L 9.808 32.68
	L 9.808 33.68
	M 8.718 31.05
	L 8.336 31.97
	L 8.336 32.97
	L 8.718 33.9
	M 8.718 33.05
	L 9.425 33.75
	L 9.808 34.68
	L 9.808 35.68
	M 8.718 33.05
	L 8.336 33.97
	L 8.336 34.97
	L 8.718 35.9
	M 10.13 34.46
	L 11.13 34.46
	L 12.06 34.84
	L 12.76 35.55
	M 10.13 34.46
	L 10.52 35.39
	L 11.22 36.09
	L 12.15 36.48
	M 10.9 36.31
	L 11.82 36.69
	L 12.53 37.4
	L 12.91 38.32
	M 10.9 36.31
	L 10.9 37.31
	L 11.28 38.23
	L 11.99 38.94
	M 10.9 38.31
	L 11.61 39.02
	L 11.99 39.94
	L 11.99 40.94
	M 10.9 38.31
	L 10.52 39.23
	L 10.52 40.23
	L 10.9 41.16
	M 8.718 33.05
	L 9.425 33.75
	L 10.13 34.46
	L 10.52 35.39
	L 10.9 36.31
	L 10.9 37.31
	L 10.9 38.31
	M 7.953 34.9
	L 8.336 35.82
	L 8.336 36.82
	L 7.953 37.74
	M 7.953 34.9
	L 7.246 35.6
	L 6.863 36.53
	L 6.863 37.53
	M 7.953 36.9
	L 8.66 37.6
	L 9.043 38.53
	L 9.043 39.53
	M 7.953 36.9
	L 7.57 37.82
	L 7.57 38.82
	L 7.953 39.74
	M 8.718 38.74
	L 9.642 39.13
	L 10.35 39.83
	L 10.73 40.76
	M 8.718 38.74
	L 8.718 39.74
	L 9.101 40.67
	L 9.808 41.37
	M 8.718 33.05
	L 8.336 33.97
	L 7.953 34.9
	L 7.953 35.9
	L 7.953 36.9
	L 8.336 37.82
	L 8.718 38.74
	M 8.718 35.05
	L 9.425 35.75
	L 9.808 36.68
	L 9.808 37.68
	M 8.718 35.05
	L 8.336 35.97
	L 8.336 36.97
	L 8.718 37.9
	M 8.718 37.05
	L 9.425 37.75
	L 9.808 38.68
	L 9.808 39.68
	M 8.718 37.05
	L 8.336 37.97
	L 8.336 38.97
	L 8.718 39.9
	M 10.13 38.46
	L 11.13 38.46
	L 12.06 38.84
	L 12.76 39.55
	M 10.13 38.46
	L 10.52 39.39
	L 11.22 40.09
	L 12.15 40.48
	M 10.9 40.31
	L 11.82 40.69
	L 12.53 41.4
	L 12.91 42.32
	M 10.9 40.31
	L 10.9 41.31
	L 11.28 42.23
	L 11.99 42.94
	M 10.9 42.31
	L 11.61 43.02
	L 11.99 43.94
	L 11.99 44.94
	M 10.9 42.31
	L 10.52 43.23
	L 10.52 44.23
	L 10.9 45.16
	M 8.718 37.05
	L 9.425 37.75
	L 10.13 38.46
	L 10.52 39.39
	L 10.9 40.31
	L 10.9 41.31
	L 10.9 42.31
	M 7.953 38.9
	L 8.336 39.82
	L 8.336 40.82
	L 7.953 41.74
	M 7.953 38.9
	L 7.246 39.6
	L 6.863 40.53
	L 6.863 41.53
	M 7.953 40.9
	L 8.66 41.6
	L 9.043 42.53
	L 9.043 43.53
	M 7.953 40.9
	L 7.57 41.82
	L 7.57 42.82
	L 7.953 43.74
	M 8.718 42.74
	L 9.642 43.13
	L 10.35 43.83
	L 10.73 44.76
	M 8.718 42.74
	L 8.718 43.74
	L 9.101 44.67
	L 9.808 45.37
	M 8.718 37.05
	L 8.336 37.97
	L 7.953 38.9
	L 7.953 39.9
	L 7.953 40.9
	L 8.336 41.82
	L 8.718 42.74
	M 10.13 38.46
	L 11.13 38.46
	L 12.06 38.84
	L 12.76 39.55
	M 10.13 38.46
	L 10.52 39.39
	L 11.22 40.09
	L 12.15 40.48
	M 11.55 39.88
	L 12.55 39.88
	L 13.47 40.26
	L 14.18 40.97
	M 11.55 39.88
	L 11.93 40.8
	L 12.64 41.51
	L 13.56 41.89
	M 13.55 39.88
	L 14.25 39.17
	L 15.18 38.79
	L 16.18 38.79
	M 13.55 39.88
	L 14.47 40.26
	L 15.47 40.26
	L 16.39 39.88
	M 15.39 40.64
	L 16.32 40.26
	L 17.32 40.26
	L 18.24 40.64
	M 15.39 40.64
	L 16.1 41.35
	L 17.03 41.73
	L 18.03 41.73
	M 16.81 42.06
	L 17.81 42.06
	L 18.73 42.44
	L 19.44 43.15
	M 16.81 42.06
	L 17.19 42.98
	L 17.9 43.69
	L 18.82 44.07
	M 11.55 39.88
	L 12.55 39.88
	L 13.55 39.88
	L 14.47 40.26
	L 15.39 40.64
	L 16.1 41.35
	L 16.81 42.06
	M 12.31 41.72
	L 13.24 42.11
	L 13.94 42.81
	L 14.33 43.74
	M 12.31 41.72
	L 12.31 42.72
	L 12.69 43.65
	L 13.4 44.36
	M 13.73 43.14
	L 14.73 43.14
	L 15.65 43.52
	L 16.36 44.23
	M 13.73 43.14
	L 14.11 44.06
	L 14.82 44.77
	L 15.74 45.15
	M 15.57 43.9
	L 16.5 43.52
	L 17.5 43.52
	L 18.42 43.9
	M 15.57 43.9
	L 16.28 44.61
	L 17.21 44.99
	L 18.21 44.99
	M 11.55 39.88
	L 11.93 40.8
	L 12.31 41.72
	L 13.02 42.43
	L 13.73 43.14
	L 14.65 43.52
	L 15.57 43.9
	M 12.31 41.72
	L 13.24 42.11
	L 13.94 42.81
	L 14.33 43.74
	M 12.31 41.72
	L 12.31 42.72
	L 12.69 43.65
	L 13.4 44.36
	M 13.08 43.57
	L 14 43.95
	L 14.71 44.66
	L 15.09 45.59
	M 13.08 43.57
	L 13.08 44.57
	L 13.46 45.5
	L 14.17 46.2
	M 14.93 44.34
	L 15.85 43.95
	L 16.85 43.95
	L 17.77 44.34
	M 14.93 44.34
	L 15.63 45.04
	L 16.56 45.43
	L 17.56 45.43
	M 16.34 45.75
	L 17.34 45.75
	L 18.26 46.13
	L 18.97 46.84
	M 16.34 45.75
	L 16.72 46.68
	L 17.43 47.38
	L 18.35 47.77
	M 17.1 47.6
	L 18.03 47.98
	L 18.74 48.69
	L 19.12 49.61
	M 17.1 47.6
	L 17.1 48.6
	L 17.49 49.52
	L 18.19 50.23
	M 13.08 43.57
	L 14 43.95
	L 14.93 44.34
	L 15.63 45.04
	L 16.34 45.75
	L 16.72 46.68
	L 17.1 47.6
	M 13.08 45.57
	L 13.78 46.28
	L 14.17 47.2
	L 14.17 48.2
	M 13.08 45.57
	L 12.69 46.5
	L 12.69 47.5
	L 13.08 48.42
	M 13.84 47.42
	L 14.77 47.8
	L 15.47 48.51
	L 15.86 49.43
	M 13.84 47.42
	L 13.84 48.42
	L 14.23 49.34
	L 14.93 50.05
	M 15.26 48.83
	L 16.26 48.83
	L 17.18 49.22
	L 17.89 49.92
	M 15.26 48.83
	L 15.64 49.76
	L 16.35 50.46
	L 17.27 50.85
	M 13.08 43.57
	L 13.08 44.57
	L 13.08 45.57
	L 13.46 46.5
	L 13.84 47.42
	L 14.55 48.13
	L 15.26 48.83
	M 13.08 45.57
	L 13.78 46.28
	L 14.17 47.2
	L 14.17 48.2
	M 13.08 45.57
	L 12.69 46.5
	L 12.69 47.5
	L 13.08 48.42
	M 13.08 47.57
	L 13.78 48.28
	L 14.17 49.2
	L 14.17 50.2
	M 13.08 47.57
	L 12.69 48.5
	L 12.69 49.5
	L 13.08 50.42
	M 14.49 48.99
	L 15.49 48.99
	L 16.42 49.37
	L 17.12 50.08
	M 14.49 48.99
	L 14.87 49.91
	L 15.58 50.62
	L 16.51 51
	M 15.26 50.83
	L 16.18 51.22
	L 16.89 51.92
	L 17.27 52.85
	M 15.26 50.83
	L 15.26 51.83
	L 15.64 52.76
	L 16.35 53.46
	M 15.26 52.83
	L 15.96 53.54
	L 16.35 54.46
	L 16.35 55.46
	M 15.26 52.83
	L 14.87 53.76
	L 14.87 54.76
	L 15.26 55.68
	M 13.08 47.57
	L 13.78 48.28
	L 14.49 48.99
	L 14.87 49.91
	L 15.26 50.83
	L 15.26 51.83
	L 15.26 52.83
	M 12.31 49.42
	L 12.69 50.34
	L 12.69 51.34
	L 12.31 52.27
	M 12.31 49.42
	L 11.61 50.13
	L 11.22 51.05
	L 11.22 52.05
	M 12.31 51.42
	L 13.02 52.13
	L 13.4 53.05
	L 13.4 54.05
	M 12.31 51.42
	L 11.93 52.34
	L 11.93 53.34
	L 12.31 54.27
	M 13.08 53.27
	L 14 53.65
	L 14.71 54.36
	L 15.09 55.28
	M 13.08 53.27
	L 13.08 54.27
	L 13.46 55.19
	L 14.17 55.9
	M 13.08 47.57
	L 12.69 48.5
	L 12.31 49.42
	L 12.31 50.42
	L 12.31 51.42
	L 12.69 52.34
	L 13.08 53.27
	M 8.718 37.05
	L 9.425 37.75
	L 10.13 38.46
	L 10.84 39.17
	L 11.55 39.88
	L 11.93 40.8
	L 12.31 41.72
	L 12.69 42.65
	L 13.08 43.57
	L 13.08 44.57
	L 13.08 45.57
	L 13.08 46.57
	L 13.08 47.57
	M 7.953 38.9
	L 8.336 39.82
	L 8.336 40.82
	L 7.953 41.74
	M 7.953 38.9
	L 7.246 39.6
	L 6.863 40.53
	L 6.863 41.53
	M 7.188 40.74
	L 7.57 41.67
	L 7.57 42.67
	L 7.188 43.59
	M 7.188 40.74
	L 6.48 41.45
	L 6.098 42.37
	L 6.098 43.37
	M 7.953 42.59
	L 8.877 42.97
	L 9.584 43.68
	L 9.967 44.6
	M 7.953 42.59
	L 7.953 43.59
	L 8.336 44.52
	L 9.043 45.22
	M 7.953 44.59
	L 8.66 45.3
	L 9.043 46.22
	L 9.043 47.22
	M 7.953 44.59
	L 7.57 45.52
	L 7.57 46.52
	L 7.953 47.44
	M 7.188 46.44
	L 7.57 47.36
	L 7.57 48.36
	L 7.188 49.29
	M 7.188 46.44
	L 6.48 47.15
	L 6.098 48.07
	L 6.098 49.07
	M 7.188 40.74
	L 7.57 41.67
	L 7.953 42.59
	L 7.953 43.59
	L 7.953 44.59
	L 7.57 45.52
	L 7.188 46.44
	M 5.773 42.16
	L 5.773 43.16
	L 5.391 44.08
	L 4.684 44.79
	M 5.773 42.16
	L 4.849 42.54
	L 4.142 43.25
	L 3.76 44.17
	M 5.008 44.01
	L 5.391 44.93
	L 5.391 45.93
	L 5.008 46.85
	M 5.008 44.01
	L 4.301 44.71
	L 3.918 45.64
	L 3.918 46.64
	M 5.008 46.01
	L 5.715 46.71
	L 6.098 47.64
	L 6.098 48.64
	M 5.008 46.01
	L 4.625 46.93
	L 4.625 47.93
	L 5.008 48.85
	M 7.188 40.74
	L 6.48 41.45
	L 5.773 42.16
	L 5.391 43.08
	L 5.008 44.01
	L 5.008 45.01
	L 5.008 46.01
	M 7.188 42.74
	L 7.895 43.45
	L 8.277 44.37
	L 8.277 45.37
	M 7.188 42.74
	L 6.805 43.67
	L 6.805 44.67
	L 7.188 45.59
	M 7.188 44.74
	L 7.895 45.45
	L 8.277 46.37
	L 8.277 47.37
	M 7.188 44.74
	L 6.805 45.67
	L 6.805 46.67
	L 7.188 47.59
	M 8.602 46.16
	L 9.602 46.16
	L 10.53 46.54
	L 11.23 47.25
	M 8.602 46.16
	L 8.984 47.08
	L 9.692 47.79
	L 10.62 48.17
	M 9.367 48.01
	L 10.29 48.39
	L 11 49.1
	L 11.38 50.02
	M 9.367 48.01
	L 9.367 49.01
	L 9.75 49.93
	L 10.46 50.64
	M 9.367 50.01
	L 10.07 50.71
	L 10.46 51.64
	L 10.46 52.64
	M 9.367 50.01
	L 8.984 50.93
	L 8.984 51.93
	L 9.367 52.85
	M 7.188 44.74
	L 7.895 45.45
	L 8.602 46.16
	L 8.984 47.08
	L 9.367 48.01
	L 9.367 49.01
	L 9.367 50.01
	M 6.422 46.59
	L 6.805 47.52
	L 6.805 48.52
	L 6.422 49.44
	M 6.422 46.59
	L 5.715 47.3
	L 5.332 48.22
	L 5.332 49.22
	M 6.422 48.59
	L 7.129 49.3
	L 7.512 50.22
	L 7.512 51.22
	M 6.422 48.59
	L 6.04 49.52
	L 6.04 50.52
	L 6.422 51.44
	M 7.188 50.44
	L 8.111 50.82
	L 8.819 51.53
	L 9.201 52.45
	M 7.188 50.44
	L 7.188 51.44
	L 7.57 52.36
	L 8.277 53.07
	M 7.188 44.74
	L 6.805 45.67
	L 6.422 46.59
	L 6.422 47.59
	L 6.422 48.59
	L 6.805 49.52
	L 7.188 50.44
	M 7.953 46.59
	L 8.877 46.97
	L 9.584 47.68
	L 9.967 48.6
	M 7.953 46.59
	L 7.953 47.59
	L 8.336 48.52
	L 9.043 49.22
	M 8.718 48.44
	L 9.642 48.82
	L 10.35 49.53
	L 10.73 50.45
	M 8.718 48.44
	L 8.718 49.44
	L 9.101 50.36
	L 9.808 51.07
	M 10.57 49.2
	L 11.49 48.82
	L 12.49 48.82
	L 13.41 49.2
	M 10.57 49.2
	L 11.27 49.91
	L 12.2 50.29
	L 13.2 50.29
	M 11.98 50.62
	L 12.98 50.62
	L 13.9 51
	L 14.61 51.71
	M 11.98 50.62
	L 12.36 51.54
	L 13.07 52.25
	L 13.99 52.63
	M 12.75 52.47
	L 13.67 52.85
	L 14.38 53.56
	L 14.76 54.48
	M 12.75 52.47
	L 12.75 53.47
	L 13.13 54.39
	L 13.84 55.1
	M 8.718 48.44
	L 9.642 48.82
	L 10.57 49.2
	L 11.27 49.91
	L 11.98 50.62
	L 12.36 51.54
	L 12.75 52.47
	M 8.718 50.44
	L 9.425 51.15
	L 9.808 52.07
	L 9.808 53.07
	M 8.718 50.44
	L 8.336 51.36
	L 8.336 52.36
	L 8.718 53.29
	M 9.484 52.29
	L 10.41 52.67
	L 11.11 53.38
	L 11.5 54.3
	M 9.484 52.29
	L 9.484 53.29
	L 9.866 54.21
	L 10.57 54.92
	M 10.9 53.7
	L 11.9 53.7
	L 12.82 54.08
	L 13.53 54.79
	M 10.9 53.7
	L 11.28 54.62
	L 11.99 55.33
	L 12.91 55.71
	M 8.718 48.44
	L 8.718 49.44
	L 8.718 50.44
	L 9.101 51.36
	L 9.484 52.29
	L 10.19 52.99
	L 10.9 53.7
	M 8.718 37.05
	L 8.336 37.97
	L 7.953 38.9
	L 7.57 39.82
	L 7.188 40.74
	L 7.188 41.74
	L 7.188 42.74
	L 7.188 43.74
	L 7.188 44.74
	L 7.57 45.67
	L 7.953 46.59
	L 8.336 47.52
	L 8.718 48.44
	M 0 16
	L 0.7071 16.71
	L 1.414 17.41
	L 2.121 18.12
	L 2.828 18.83
	L 3.536 19.54
	L 4.243 20.24
	L 4.95 20.95
	L 5.657 21.66
	L 6.04 22.58
	L 6.422 23.5
	L 6.805 24.43
	L 7.188 25.35
	L 7.57 26.28
	L 7.953 27.2
	L 8.336 28.12
	L 8.718 29.05
	L 8.718 30.05
	L 8.718 31.05
	L 8.718 32.05
	L 8.718 33.05
	L 8.718 34.05
	L 8.718 35.05
	L 8.718 36.05
	L 8.718 37.05
	M -0.7654 17.85
	L -0.3827 18.77
	L -0.3827 19.77
	L -0.7654 20.7
	M -0.7654 17.85
	L -1.472 18.55
	L -1.855 19.48
	L -1.855 20.48
	M -1.531 19.7
	L -1.148 20.62
	L -1.148 21.62
	L -1.531 22.54
	M -1.531 19.7
	L -2.238 20.4
	L -2.621 21.33
	L -2.621 22.33
	M -0.7654 21.54
	L 0.1585 21.93
	L 0.8656 22.63
	L 1.248 23.56
	M -0.7654 21.54
	L -0.7654 22.54
	L -0.3827 23.47
	L 0.3244 24.17
	M -0.7654 23.54
	L -0.05826 24.25
	L 0.3244 25.17
	L 0.3244 26.17
	M -0.7654 23.54
	L -1.148 24.47
	L -1.148 25.47
	L -0.7654 26.39
	M -1.531 25.39
	L -1.148 26.31
	L -1.148 27.31
	L -1.531 28.24
	M -1.531 25.39
	L -2.238 26.1
	L -2.621 27.02
	L -2.621 28.02
	M -1.531 19.7
	L -1.148 20.62
	L -0.7654 21.54
	L -0.7654 22.54
	L -0.7654 23.54
	L -1.148 24.47
	L -1.531 25.39
	M -2.945 21.11
	L -2.945 22.11
	L -3.328 23.03
	L -4.035 23.74
	M -2.945 21.11
	L -3.869 21.49
	L -4.576 22.2
	L -4.959 23.12
	M -3.71 22.96
	L -3.328 23.88
	L -3.328 24.88
	L -3.71 25.81
	M -3.71 22.96
	L -4.417 23.66
	L -4.8 24.59
	L -4.8 25.59
	M -3.71 24.96
	L -3.003 25.66
	L -2.621 26.59
	L -2.621 27.59
	M -3.71 24.96
	L -4.093 25.88
	L -4.093 26.88
	L -3.71 27.81
	M -1.531 19.7
	L -2.238 20.4
	L -2.945 21.11
	L -3.328 22.03
	L -3.71 22.96
	L -3.71 23.96
	L -3.71 24.96
	M -2.296 21.54
	L -1.913 22.47
	L -1.913 23.47
	L -2.296 24.39
	M -2.296 21.54
	L -3.003 22.25
	L -3.386 23.17
	L -3.386 24.17
	M -3.061 23.39
	L -2.679 24.31
	L -2.679 25.31
	L -3.061 26.24
	M -3.061 23.39
	L -3.769 24.1
	L -4.151 25.02
	L -4.151 26.02
	M -2.296 25.24
	L -1.372 25.62
	L -0.6651 26.33
	L -0.2824 27.25
	M -2.296 25.24
	L -2.296 26.24
	L -1.913 27.16
	L -1.206 27.87
	M -2.296 27.24
	L -1.589 27.95
	L -1.206 28.87
	L -1.206 29.87
	M -2.296 27.24
	L -2.679 28.16
	L -2.679 29.16
	L -2.296 30.09
	M -3.061 29.09
	L -2.679 30.01
	L -2.679 31.01
	L -3.061 31.93
	M -3.061 29.09
	L -3.769 29.79
	L -4.151 30.72
	L -4.151 31.72
	M -3.061 23.39
	L -2.679 24.31
	L -2.296 25.24
	L -2.296 26.24
	L -2.296 27.24
	L -2.679 28.16
	L -3.061 29.09
	M -4.476 24.81
	L -4.476 25.81
	L -4.858 26.73
	L -5.565 27.44
	M -4.476 24.81
	L -5.4 25.19
	L -6.107 25.9
	L -6.489 26.82
	M -5.241 26.65
	L -4.858 27.58
	L -4.858 28.58
	L -5.241 29.5
	M -5.241 26.65
	L -5.948 27.36
	L -6.331 28.28
	L -6.331 29.28
	M -5.241 28.65
	L -4.534 29.36
	L -4.151 30.28
	L -4.151 31.28
	M -5.241 28.65
	L -5.624 29.58
	L -5.624 30.58
	L -5.241 31.5
	M -3.061 23.39
	L -3.769 24.1
	L -4.476 24.81
	L -4.858 25.73
	L -5.241 26.65
	L -5.241 27.65
	L -5.241 28.65
	M -2.296 25.24
	L -1.372 25.62
	L -0.6651 26.33
	L -0.2824 27.25
	M -2.296 25.24
	L -2.296 26.24
	L -1.913 27.16
	L -1.206 27.87
	M -1.531 27.09
	L -0.6069 27.47
	L 0.1003 28.18
	L 0.4829 29.1
	M -1.531 27.09
	L -1.531 28.09
	L -1.148 29.01
	L -0.4409 29.72
	M 0.317 27.85
	L 1.241 27.47
	L 2.241 27.47
	L 3.165 27.85
	M 0.317 27.85
	L 1.024 28.56
	L 1.948 28.94
	L 2.948 28.94
	M 1.731 29.27
	L 2.731 29.27
	L 3.655 29.65
	L 4.362 30.36
	M 1.731 29.27
	L 2.114 30.19
	L 2.821 30.9
	L 3.745 31.28
	M 2.497 31.11
	L 3.42 31.5
	L 4.128 32.2
	L 4.51 33.13
	M 2.497 31.11
	L 2.497 32.11
	L 2.879 33.04
	L 3.586 33.74
	M -1.531 27.09
	L -0.6069 27.47
	L 0.317 27.85
	L 1.024 28.56
	L 1.731 29.27
	L 2.114 30.19
	L 2.497 31.11
	M -1.531 29.09
	L -0.8236 29.79
	L -0.4409 30.72
	L -0.4409 31.72
	M -1.531 29.09
	L -1.913 30.01
	L -1.913 31.01
	L -1.531 31.93
	M -0.7654 30.93
	L 0.1585 31.32
	L 0.8656 32.02
	L 1.248 32.95
	M -0.7654 30.93
	L -0.7654 31.93
	L -0.3827 32.86
	L 0.3244 33.57
	M 0.6488 32.35
	L 1.649 32.35
	L 2.573 32.73
	L 3.28 33.44
	M 0.6488 32.35
	L 1.032 33.27
	L 1.739 33.98
	L 2.663 34.36
	M -1.531 27.09
	L -1.531 28.09
	L -1.531 29.09
	L -1.148 30.01
	L -0.7654 30.93
	L -0.05826 31.64
	L 0.6488 32.35
	M -1.531 29.09
	L -0.8236 29.79
	L -0.4409 30.72
	L -0.4409 31.72
	M -1.531 29.09
	L -1.913 30.01
	L -1.913 31.01
	L -1.531 31.93
	M -1.531 31.09
	L -0.8236 31.79
	L -0.4409 32.72
	L -0.4409 33.72
	M -1.531 31.09
	L -1.913 32.01
	L -1.913 33.01
	L -1.531 33.93
	M -0.1165 32.5
	L 0.8835 32.5
	L 1.807 32.88
	L 2.514 33.59
	M -0.1165 32.5
	L 0.2662 33.42
	L 0.9733 34.13
	L 1.897 34.51
	M 0.6488 34.35
	L 1.573 34.73
	L 2.28 35.44
	L 2.663 36.36
	M 0.6488 34.35
	L 0.6488 35.35
	L 1.032 36.27
	L 1.739 36.98
	M 0.6488 36.35
	L 1.356 37.06
	L 1.739 37.98
	L 1.739 38.98
	M 0.6488 36.35
	L 0.2662 37.27
	L 0.2662 38.27
	L 0.6488 39.2
	M -1.531 31.09
	L -0.8236 31.79
	L -0.1165 32.5
	L 0.2662 33.42
	L 0.6488 34.35
	L 0.6488 35.35
	L 0.6488 36.35
	M -2.296 32.93
	L -1.913 33.86
	L -1.913 34.86
	L -2.296 35.78
	M -2.296 32.93
	L -3.003 33.64
	L -3.386 34.57
	L -3.386 35.57
	M -2.296 34.93
	L -1.589 35.64
	L -1.206 36.57
	L -1.206 37.57
	M -2.296 34.93
	L -2.679 35.86
	L -2.679 36.86
	L -2.296 37.78
	M -1.531 36.78
	L -0.6069 37.16
	L 0.1003 37.87
	L 0.4829 38.8
	M -1.531 36.78
	L -1.531 37.78
	L -1.148 38.71
	L -0.4409 39.41
	M -1.531 31.09
	L -1.913 32.01
	L -2.296 32.93
	L -2.296 33.93
	L -2.296 34.93
	L -1.913 35.86
	L -1.531 36.78
	M -2.296 32.93
	L -1.913 33.86
	L -1.913 34.86
	L -2.296 35.78
	M -2.296 32.93
	L -3.003 33.64
	L -3.386 34.57
	L -3.386 35.57
	M -3.061 34.78
	L -2.679 35.71
	L -2.679 36.71
	L -3.061 37.63
	M -3.061 34.78
	L -3.769 35.49
	L -4.151 36.41
	L -4.151 37.41
	M -2.296 36.63
	L -1.372 37.01
	L -0.6651 37.72
	L -0.2824 38.64
	M -2.296 36.63
	L -2.296 37.63
	L -1.913 38.55
	L -1.206 39.26
	M -2.296 38.63
	L -1.589 39.34
	L -1.206 40.26
	L -1.206 41.26
	M -2.296 38.63
	L -2.679 39.55
	L -2.679 40.55
	L -2.296 41.48
	M -3.061 40.48
	L -2.679 41.4
	L -2.679 42.4
	L -3.061 43.33
	M -3.061 40.48
	L -3.769 41.18
	L -4.151 42.11
	L -4.151 43.11
	M -3.061 34.78
	L -2.679 35.71
	L -2.296 36.63
	L -2.296 37.63
	L -2.296 38.63
	L -2.679 39.55
	L -3.061 40.48
	M -4.476 36.2
	L -4.476 37.2
	L -4.858 38.12
	L -5.565 38.83
	M -4.476 36.2
	L -5.4 36.58
	L -6.107 37.29
	L -6.489 38.21
	M -5.241 38.04
	L -4.858 38.97
	L -4.858 39.97
	L -5.241 40.89
	M -5.241 38.04
	L -5.948 38.75
	L -6.331 39.68
	L -6.331 40.68
	M -5.241 40.04
	L -4.534 40.75
	L -4.151 41.68
	L -4.151 42.68
	M -5.241 40.04
	L -5.624 40.97
	L -5.624 41.97
	L -5.241 42.89
	M -3.061 34.78
	L -3.769 35.49
	L -4.476 36.2
	L -4.858 37.12
	L -5.241 38.04
	L -5.241 39.04
	L -5.241 40.04
	M -3.061 23.39
	L -2.679 24.31
	L -2.296 25.24
	L -1.913 26.16
	L -1.531 27.09
	L -1.531 28.09
	L -1.531 29.09
	L -1.531 30.09
	L -1.531 31.09
	L -1.913 32.01
	L -2.296 32.93
	L -2.679 33.86
	L -3.061 34.78
	M -4.476 24.81
	L -4.476 25.81
	L -4.858 26.73
	L -5.565 27.44
	M -4.476 24.81
	L -5.4 25.19
	L -6.107 25.9
	L -6.489 26.82
	M -5.89 26.22
	L -5.89 27.22
	L -6.273 28.14
	L -6.98 28.85
	M -5.89 26.22
	L -6.814 26.6
	L -7.521 27.31
	L -7.904 28.23
	M -5.89 28.22
	L -5.183 28.93
	L -4.8 29.85
	L -4.8 30.85
	M -5.89 28.22
	L -6.273 29.14
	L -6.273 30.14
	L -5.89 31.07
	M -6.655 30.07
	L -6.273 30.99
	L -6.273 31.99
	L -6.655 32.91
	M -6.655 30.07
	L -7.362 30.77
	L -7.745 31.7
	L -7.745 32.7
	M -8.069 31.48
	L -8.069 32.48
	L -8.452 33.41
	L -9.159 34.11
	M -8.069 31.48
	L -8.993 31.86
	L -9.7 32.57
	L -10.08 33.5
	M -5.89 26.22
	L -5.89 27.22
	L -5.89 28.22
	L -6.273 29.14
	L -6.655 30.07
	L -7.362 30.77
	L -8.069 31.48
	M -7.738 26.98
	L -8.12 27.91
	L -8.827 28.62
	L -9.751 29
	M -7.738 26.98
	L -8.738 26.98
	L -9.662 27.37
	L -10.37 28.07
	M -9.152 28.4
	L -9.152 29.4
	L -9.535 30.32
	L -10.24 31.03
	M -9.152 28.4
	L -10.08 28.78
	L -10.78 29.49
	L -11.17 30.41
	M -9.917 30.25
	L -9.535 31.17
	L -9.535 32.17
	L -9.917 33.09
	M -9.917 30.25
	L -10.62 30.95
	L -11.01 31.88
	L -11.01 32.88
	M -5.89 26.22
	L -6.814 26.6
	L -7.738 26.98
	L -8.445 27.69
	L -9.152 28.4
	L -9.535 29.32
	L -9.917 30.25
	M -6.655 28.07
	L -6.273 28.99
	L -6.273 29.99
	L -6.655 30.91
	M -6.655 28.07
	L -7.362 28.77
	L -7.745 29.7
	L -7.745 30.7
	M -7.421 29.91
	L -7.038 30.84
	L -7.038 31.84
	L -7.421 32.76
	M -7.421 29.91
	L -8.128 30.62
	L -8.51 31.55
	L -8.51 32.55
	M -6.655 31.76
	L -5.731 32.15
	L -5.024 32.85
	L -4.642 33.78
	M -6.655 31.76
	L -6.655 32.76
	L -6.273 33.69
	L -5.565 34.39
	M -6.655 33.76
	L -5.948 34.47
	L -5.565 35.39
	L -5.565 36.39
	M -6.655 33.76
	L -7.038 34.69
	L -7.038 35.69
	L -6.655 36.61
	M -7.421 35.61
	L -7.038 36.53
	L -7.038 37.53
	L -7.421 38.46
	M -7.421 35.61
	L -8.128 36.32
	L -8.51 37.24
	L -8.51 38.24
	M -7.421 29.91
	L -7.038 30.84
	L -6.655 31.76
	L -6.655 32.76
	L -6.655 33.76
	L -7.038 34.69
	L -7.421 35.61
	M -8.835 31.33
	L -8.835 32.33
	L -9.218 33.25
	L -9.925 33.96
	M -8.835 31.33
	L -9.759 31.71
	L -10.47 32.42
	L -10.85 33.34
	M -9.6 33.18
	L -9.218 34.1
	L -9.218 35.1
	L -9.6 36.02
	M -9.6 33.18
	L -10.31 33.88
	L -10.69 34.81
	L -10.69 35.81
	M -9.6 35.18
	L -8.893 35.88
	L -8.51 36.81
	L -8.51 37.81
	M -9.6 35.18
	L -9.983 36.1
	L -9.983 37.1
	L -9.6 38.02
	M -7.421 29.91
	L -8.128 30.62
	L -8.835 31.33
	L -9.218 32.25
	L -9.6 33.18
	L -9.6 34.18
	L -9.6 35.18
	M -7.421 31.91
	L -6.714 32.62
	L -6.331 33.55
	L -6.331 34.55
	M -7.421 31.91
	L -7.803 32.84
	L -7.803 33.84
	L -7.421 34.76
	M -7.421 33.91
	L -6.714 34.62
	L -6.331 35.55
	L -6.331 36.55
	M -7.421 33.91
	L -7.803 34.84
	L -7.803 35.84
	L -7.421 36.76
	M -6.006 35.33
	L -5.006 35.33
	L -4.083 35.71
	L -3.375 36.42
	M -6.006 35.33
	L -5.624 36.25
	L -4.917 36.96
	L -3.993 37.34
	M -5.241 37.18
	L -4.317 37.56
	L -3.61 38.27
	L -3.227 39.19
	M -5.241 37.18
	L -5.241 38.18
	L -4.858 39.1
	L -4.151 39.81
	M -5.241 39.18
	L -4.534 39.88
	L -4.151 40.81
	L -4.151 41.81
	M -5.241 39.18
	L -5.624 40.1
	L -5.624 41.1
	L -5.241 42.02
	M -7.421 33.91
	L -6.714 34.62
	L -6.006 35.33
	L -5.624 36.25
	L -5.241 37.18
	L -5.241 38.18
	L -5.241 39.18
	M -8.186 35.76
	L -7.803 36.69
	L -7.803 37.69
	L -8.186 38.61
	M -8.186 35.76
	L -8.893 36.47
	L -9.276 37.39
	L -9.276 38.39
	M -8.186 37.76
	L -7.479 38.47
	L -7.096 39.39
	L -7.096 40.39
	M -8.186 37.76
	L -8.569 38.69
	L -8.569 39.69
	L -8.186 40.61
	M -7.421 39.61
	L -6.497 39.99
	L -5.79 40.7
	L -5.407 41.62
	M -7.421 39.61
	L -7.421 40.61
	L -7.038 41.53
	L -6.331 42.24
	M -7.421 33.91
	L -7.803 34.84
	L -8.186 35.76
	L -8.186 36.76
	L -8.186 37.76
	L -7.803 38.69
	L -7.421 39.61
	M -3.061 23.39
	L -3.769 24.1
	L -4.476 24.81
	L -5.183 25.51
	L -5.89 26.22
	L -6.273 27.14
	L -6.655 28.07
	L -7.038 28.99
	L -7.421 29.91
	L -7.421 30.91
	L -7.421 31.91
	L -7.421 32.91
	L -7.421 33.91
	M -3.061 25.39
	L -2.354 26.1
	L -1.972 27.02
	L -1.972 28.02
	M -3.061 25.39
	L -3.444 26.31
	L -3.444 27.31
	L -3.061 28.24
	M -3.061 27.39
	L -2.354 28.1
	L -1.972 29.02
	L -1.972 30.02
	M -3.061 27.39
	L -3.444 28.31
	L -3.444 29.31
	L -3.061 30.24
	M -1.647 28.81
	L -0.6473 28.81
	L 0.2766 29.19
	L 0.9837 29.9
	M -1.647 28.81
	L -1.265 29.73
	L -0.5575 30.44
	L 0.3664 30.82
	M -0.8819 30.65
	L 0.04199 31.04
	L 0.7491 31.74
	L 1.132 32.67
	M -0.8819 30.65
	L -0.8819 31.65
	L -0.4992 32.58
	L 0.2079 33.28
	M -0.8819 32.65
	L -0.1748 33.36
	L 0.2079 34.28
	L 0.2079 35.28
	M -0.8819 32.65
	L -1.265 33.58
	L -1.265 34.58
	L -0.8819 35.5
	M -3.061 27.39
	L -2.354 28.1
	L -1.647 28.81
	L -1.265 29.73
	L -0.8819 30.65
	L -0.8819 31.65
	L -0.8819 32.65
	M -3.827 29.24
	L -3.444 30.16
	L -3.444 31.16
	L -3.827 32.09
	M -3.827 29.24
	L -4.534 29.95
	L -4.917 30.87
	L -4.917 31.87
	M -3.827 31.24
	L -3.12 31.95
	L -2.737 32.87
	L -2.737 33.87
	M -3.827 31.24
	L -4.21 32.16
	L -4.21 33.16
	L -3.827 34.09
	M -3.061 33.09
	L -2.138 33.47
	L -1.43 34.18
	L -1.048 35.1
	M -3.061 33.09
	L -3.061 34.09
	L -2.679 35.01
	L -1.972 35.72
	M -3.061 27.39
	L -3.444 28.31
	L -3.827 29.24
	L -3.827 30.24
	L -3.827 31.24
	L -3.444 32.16
	L -3.061 33.09
	M -3.061 29.39
	L -2.354 30.1
	L -1.972 31.02
	L -1.972 32.02
	M -3.061 29.39
	L -3.444 30.31
	L -3.444 31.31
	L -3.061 32.24
	M -3.061 31.39
	L -2.354 32.1
	L -1.972 33.02
	L -1.972 34.02
	M -3.061 31.39
	L -3.444 32.31
	L -3.444 33.31
	L -3.061 34.24
	M -1.647 32.81
	L -0.6473 32.81
	L 0.2766 33.19
	L 0.9837 33.9
	M -1.647 32.81
	L -1.265 33.73
	L -0.5575 34.44
	L 0.3664 34.82
	M -0.8819 34.65
	L 0.04199 35.04
	L 0.7491 35.74
	L 1.132 36.67
	M -0.8819 34.65
	L -0.8819 35.65
	L -0.4992 36.58
	L 0.2079 37.28
	M -0.8819 36.65
	L -0.1748 37.36
	L 0.2079 38.28
	L 0.2079 39.28
	M -0.8819 36.65
	L -1.265 37.58
	L -1.265 38.58
	L -0.8819 39.5
	M -3.061 31.39
	L -2.354 32.1
	L -1.647 32.81
	L -1.265 33.73
	L -0.8819 34.65
	L -0.8819 35.65
	L -0.8819 36.65
	M -3.827 33.24
	L -3.444 34.16
	L -3.444 35.16
	L -3.827 36.09
	M -3.827 33.24
	L -4.534 33.95
	L -4.917 34.87
	L -4.917 35.87
	M -3.827 35.24
	L -3.12 35.95
	L -2.737 36.87
	L -2.737 37.87
	M -3.827 35.24
	L -4.21 36.16
	L -4.21 37.16
	L -3.827 38.09
	M -3.061 37.09
	L -2.138 37.47
	L -1.43 38.18
	L -1.048 39.1
	M -3.061 37.09
	L -3.061 38.09
	L -2.679 39.01
	L -1.972 39.72
	M -3.061 31.39
	L -3.444 32.31
	L -3.827 33.24
	L -3.827 34.24
	L -3.827 35.24
	L -3.444 36.16
	L -3.061 37.09
	M -1.647 32.81
	L -0.6473 32.81
	L 0.2766 33.19
	L 0.9837 33.9
	M -1.647 32.81
	L -1.265 33.73
	L -0.5575 34.44
	L 0.3664 34.82
	M -0.233 34.22
	L 0.767 34.22
	L 1.691 34.6
	L 2.398 35.31
	M -0.233 34.22
	L 0.1496 35.14
	L 0.8567 35.85
	L 1.781 36.23
	M 1.767 34.22
	L 2.474 33.51
	L 3.398 33.13
	L 4.398 33.13
	M 1.767 34.22
	L 2.691 34.6
	L 3.691 34.6
	L 4.615 34.22
	M 3.615 34.98
	L 4.539 34.6
	L 5.539 34.6
	L 6.462 34.98
	M 3.615 34.98
	L 4.322 35.69
	L 5.246 36.07
	L 6.246 36.07
	M 5.029 36.4
	L 6.029 36.4
	L 6.953 36.78
	L 7.66 37.49
	M 5.029 36.4
	L 5.412 37.32
	L 6.119 38.03
	L 7.043 38.41
	M -0.233 34.22
	L 0.767 34.22
	L 1.767 34.22
	L 2.691 34.6
	L 3.615 34.98
	L 4.322 35.69
	L 5.029 36.4
	M 0.5323 36.07
	L 1.456 36.45
	L 2.163 37.16
	L 2.546 38.08
	M 0.5323 36.07
	L 0.5323 37.07
	L 0.915 37.99
	L 1.622 38.7
	M 1.947 37.48
	L 2.947 37.48
	L 3.87 37.86
	L 4.578 38.57
	M 1.947 37.48
	L 2.329 38.41
	L 3.036 39.11
	L 3.96 39.5
	M 3.794 38.25
	L 4.718 37.86
	L 5.718 37.86
	L 6.642 38.25
	M 3.794 38.25
	L 4.501 38.95
	L 5.425 39.34
	L 6.425 39.34
	M -0.233 34.22
	L 0.1496 35.14
	L 0.5323 36.07
	L 1.239 36.77
	L 1.947 37.48
	L 2.87 37.86
	L 3.794 38.25
	M 0.5323 36.07
	L 1.456 36.45
	L 2.163 37.16
	L 2.546 38.08
	M 0.5323 36.07
	L 0.5323 37.07
	L 0.915 37.99
	L 1.622 38.7
	M 1.298 37.91
	L 2.222 38.3
	L 2.929 39
	L 3.311 39.93
	M 1.298 37.91
	L 1.298 38.91
	L 1.68 39.84
	L 2.387 40.55
	M 3.145 38.68
	L 4.069 38.3
	L 5.069 38.3
	L 5.993 38.68
	M 3.145 38.68
	L 3.853 39.39
	L 4.776 39.77
	L 5.776 39.77
	M 4.56 40.09
	L 5.56 40.09
	L 6.484 40.48
	L 7.191 41.18
	M 4.56 40.09
	L 4.942 41.02
	L 5.649 41.73
	L 6.573 42.11
	M 5.325 41.94
	L 6.249 42.33
	L 6.956 43.03
	L 7.339 43.96
	M 5.325 41.94
	L 5.325 42.94
	L 5.708 43.87
	L 6.415 44.57
	M 1.298 37.91
	L 2.222 38.3
	L 3.145 38.68
	L 3.853 39.39
	L 4.56 40.09
	L 4.942 41.02
	L 5.325 41.94
	M 1.298 39.91
	L 2.005 40.62
	L 2.387 41.55
	L 2.387 42.55
	M 1.298 39.91
	L 0.915 40.84
	L 0.915 41.84
	L 1.298 42.76
	M 2.063 41.76
	L 2.987 42.15
	L 3.694 42.85
	L 4.077 43.78
	M 2.063 41.76
	L 2.063 42.76
	L 2.446 43.69
	L 3.153 44.39
	M 3.477 43.18
	L 4.477 43.18
	L 5.401 43.56
	L 6.108 44.27
	M 3.477 43.18
	L 3.86 44.1
	L 4.567 44.81
	L 5.491 45.19
	M 1.298 37.91
	L 1.298 38.91
	L 1.298 39.91
	L 1.68 40.84
	L 2.063 41.76
	L 2.77 42.47
	L 3.477 43.18
	M 1.298 39.91
	L 2.005 40.62
	L 2.387 41.55
	L 2.387 42.55
	M 1.298 39.91
	L 0.915 40.84
	L 0.915 41.84
	L 1.298 42.76
	M 1.298 41.91
	L 2.005 42.62
	L 2.387 43.55
	L 2.387 44.55
	M 1.298 41.91
	L 0.915 42.84
	L 0.915 43.84
	L 1.298 44.76
	M 2.712 43.33
	L 3.712 43.33
	L 4.636 43.71
	L 5.343 44.42
	M 2.712 43.33
	L 3.095 44.25
	L 3.802 44.96
	L 4.726 45.34
	M 3.477 45.18
	L 4.401 45.56
	L 5.108 46.27
	L 5.491 47.19
	M 3.477 45.18
	L 3.477 46.18
	L 3.86 47.1
	L 4.567 47.81
	M 3.477 47.18
	L 4.184 47.88
	L 4.567 48.81
	L 4.567 49.81
	M 3.477 47.18
	L 3.095 48.1
	L 3.095 49.1
	L 3.477 50.02
	M 1.298 41.91
	L 2.005 42.62
	L 2.712 43.33
	L 3.095 44.25
	L 3.477 45.18
	L 3.477 46.18
	L 3.477 47.18
	M 0.5323 43.76
	L 0.915 44.69
	L 0.915 45.69
	L 0.5323 46.61
	M 0.5323 43.76
	L -0.1748 44.47
	L -0.5575 45.39
	L -0.5575 46.39
	M 0.5323 45.76
	L 1.239 46.47
	L 1.622 47.39
	L 1.622 48.39
	M 0.5323 45.76
	L 0.1496 46.69
	L 0.1496 47.69
	L 0.5323 48.61
	M 1.298 47.61
	L 2.222 47.99
	L 2.929 48.7
	L 3.311 49.62
	M 1.298 47.61
	L 1.298 48.61
	L 1.68 49.53
	L 2.387 50.24
	M 1.298 41.91
	L 0.915 42.84
	L 0.5323 43.76
	L 0.5323 44.76
	L 0.5323 45.76
	L 0.915 46.69
	L 1.298 47.61
	M -3.061 31.39
	L -2.354 32.1
	L -1.647 32.81
	L -0.9401 33.51
	L -0.233 34.22
	L 0.1496 35.14
	L 0.5323 36.07
	L 0.915 36.99
	L 1.298 37.91
	L 1.298 38.91
	L 1.298 39.91
	L 1.298 40.91
	L 1.298 41.91
	M -3.827 33.24
	L -3.444 34.16
	L -3.444 35.16
	L -3.827 36.09
	M -3.827 33.24
	L -4.534 33.95
	L -4.917 34.87
	L -4.917 35.87
	M -4.592 35.09
	L -4.21 36.01
	L -4.21 37.01
	L -4.592 37.93
	M -4.592 35.09
	L -5.299 35.79
	L -5.682 36.72
	L -5.682 37.72
	M -3.827 36.93
	L -2.903 37.32
	L -2.196 38.02
	L -1.813 38.95
	M -3.827 36.93
	L -3.827 37.93
	L -3.444 38.86
	L -2.737 39.57
	M -3.827 38.93
	L -3.12 39.64
	L -2.737 40.57
	L -2.737 41.57
	M -3.827 38.93
	L -4.21 39.86
	L -4.21 40.86
	L -3.827 41.78
	M -4.592 40.78
	L -4.21 41.71
	L -4.21 42.71
	L -4.592 43.63
	M -4.592 40.78
	L -5.299 41.49
	L -5.682 42.41
	L -5.682 43.41
	M -4.592 35.09
	L -4.21 36.01
	L -3.827 36.93
	L -3.827 37.93
	L -3.827 38.93
	L -4.21 39.86
	L -4.592 40.78
	M -6.006 36.5
	L -6.006 37.5
	L -6.389 38.42
	L -7.096 39.13
	M -6.006 36.5
	L -6.93 36.88
	L -7.637 37.59
	L -8.02 38.51
	M -6.772 38.35
	L -6.389 39.27
	L -6.389 40.27
	L -6.772 41.2
	M -6.772 38.35
	L -7.479 39.06
	L -7.862 39.98
	L -7.862 40.98
	M -6.772 40.35
	L -6.065 41.06
	L -5.682 41.98
	L -5.682 42.98
	M -6.772 40.35
	L -7.154 41.27
	L -7.154 42.27
	L -6.772 43.2
	M -4.592 35.09
	L -5.299 35.79
	L -6.006 36.5
	L -6.389 37.42
	L -6.772 38.35
	L -6.772 39.35
	L -6.772 40.35
	M -4.592 37.09
	L -3.885 37.79
	L -3.502 38.72
	L -3.502 39.72
	M -4.592 37.09
	L -4.975 38.01
	L -4.975 39.01
	L -4.592 39.93
	M -4.592 39.09
	L -3.885 39.79
	L -3.502 40.72
	L -3.502 41.72
	M -4.592 39.09
	L -4.975 40.01
	L -4.975 41.01
	L -4.592 41.93
	M -3.178 40.5
	L -2.178 40.5
	L -1.254 40.88
	L -0.547 41.59
	M -3.178 40.5
	L -2.795 41.42
	L -2.088 42.13
	L -1.164 42.51
	M -2.413 42.35
	L -1.489 42.73
	L -0.7816 43.44
	L -0.399 44.36
	M -2.413 42.35
	L -2.413 43.35
	L -2.03 44.27
	L -1.323 44.98
	M -2.413 44.35
	L -1.706 45.06
	L -1.323 45.98
	L -1.323 46.98
	M -2.413 44.35
	L -2.795 45.27
	L -2.795 46.27
	L -2.413 47.2
	M -4.592 39.09
	L -3.885 39.79
	L -3.178 40.5
	L -2.795 41.42
	L -2.413 42.35
	L -2.413 43.35
	L -2.413 44.35
	M -5.358 40.93
	L -4.975 41.86
	L -4.975 42.86
	L -5.358 43.78
	M -5.358 40.93
	L -6.065 41.64
	L -6.447 42.57
	L -6.447 43.57
	M -5.358 42.93
	L -4.65 43.64
	L -4.268 44.57
	L -4.268 45.57
	M -5.358 42.93
	L -5.74 43.86
	L -5.74 44.86
	L -5.358 45.78
	M -4.592 44.78
	L -3.668 45.16
	L -2.961 45.87
	L -2.579 46.8
	M -4.592 44.78
	L -4.592 45.78
	L -4.21 46.71
	L -3.502 47.41
	M -4.592 39.09
	L -4.975 40.01
	L -5.358 40.93
	L -5.358 41.93
	L -5.358 42.93
	L -4.975 43.86
	L -4.592 44.78
	M -3.827 40.93
	L -2.903 41.32
	L -2.196 42.02
	L -1.813 42.95
	M -3.827 40.93
	L -3.827 41.93
	L -3.444 42.86
	L -2.737 43.57
	M -3.061 42.78
	L -2.138 43.16
	L -1.43 43.87
	L -1.048 44.8
	M -3.061 42.78
	L -3.061 43.78
	L -2.679 44.71
	L -1.972 45.41
	M -1.214 43.55
	L -0.2898 43.16
	L 0.7102 43.16
	L 1.634 43.55
	M -1.214 43.55
	L -0.5066 44.25
	L 0.4173 44.64
	L 1.417 44.64
	M 0.2005 44.96
	L 1.201 44.96
	L 2.124 45.34
	L 2.831 46.05
	M 0.2005 44.96
	L 0.5832 45.89
	L 1.29 46.59
	L 2.214 46.98
	M 0.9659 46.81
	L 1.89 47.19
	L 2.597 47.9
	L 2.98 48.82
	M 0.9659 46.81
	L 0.9659 47.81
	L 1.349 48.73
	L 2.056 49.44
	M -3.061 42.78
	L -2.138 43.16
	L -1.214 43.55
	L -0.5066 44.25
	L 0.2005 44.96
	L 0.5832 45.89
	L 0.9659 46.81
	M -3.061 44.78
	L -2.354 45.49
	L -1.972 46.41
	L -1.972 47.41
	M -3.061 44.78
	L -3.444 45.71
	L -3.444 46.71
	L -3.061 47.63
	M -2.296 46.63
	L -1.372 47.01
	L -0.6651 47.72
	L -0.2824 48.64
	M -2.296 46.63
	L -2.296 47.63
	L -1.913 48.55
	L -1.206 49.26
	M -0.8819 48.04
	L 0.1181 48.04
	L 1.042 48.43
	L 1.749 49.13
	M -0.8819 48.04
	L -0.4992 48.97
	L 0.2079 49.68
	L 1.132 50.06
	M -3.061 42.78
	L -3.061 43.78
	L -3.061 44.78
	L -2.679 45.71
	L -2.296 46.63
	L -1.589 47.34
	L -0.8819 48.04
	M -3.061 31.39
	L -3.444 32.31
	L -3.827 33.24
	L -4.21 34.16
	L -4.592 35.09
	L -4.592 36.09
	L -4.592 37.09
	L -4.592 38.09
	L -4.592 39.09
	L -4.21 40.01
	L -3.827 40.93
	L -3.444 41.86
	L -3.061 42.78
	M -2.296 33.24
	L -1.372 33.62
	L -0.6651 34.33
	L -0.2824 35.25
	M -2.296 33.24
	L -2.296 34.24
	L -1.913 35.16
	L -1.206 35.87
	M -1.531 35.09
	L -0.6069 35.47
	L 0.1003 36.18
	L 0.4829 37.1
	M -1.531 35.09
	L -1.531 36.09
	L -1.148 37.01
	L -0.4409 37.72
	M 0.317 35.85
	L 1.241 35.47
	L 2.241 35.47
	L 3.165 35.85
	M 0.317 35.85
	L 1.024 36.56
	L 1.948 36.94
	L 2.948 36.94
	M 1.731 37.27
	L 2.731 37.27
	L 3.655 37.65
	L 4.362 38.36
	M 1.731 37.27
	L 2.114 38.19
	L 2.821 38.9
	L 3.745 39.28
	M 2.497 39.11
	L 3.42 39.5
	L 4.128 40.2
	L 4.51 41.13
	M 2.497 39.11
	L 2.497 40.11
	L 2.879 41.04
	L 3.586 41.74
	M -1.531 35.09
	L -0.6069 35.47
	L 0.317 35.85
	L 1.024 36.56
	L 1.731 37.27
	L 2.114 38.19
	L 2.497 39.11
	M -1.531 37.09
	L -0.8236 37.79
	L -0.4409 38.72
	L -0.4409 39.72
	M -1.531 37.09
	L -1.913 38.01
	L -1.913 39.01
	L -1.531 39.93
	M -0.7654 38.93
	L 0.1585 39.32
	L 0.8656 40.02
	L 1.248 40.95
	M -0.7654 38.93
	L -0.7654 39.93
	L -0.3827 40.86
	L 0.3244 41.57
	M 0.6488 40.35
	L 1.649 40.35
	L 2.573 40.73
	L 3.28 41.44
	M 0.6488 40.35
	L 1.032 41.27
	L 1.739 41.98
	L 2.663 42.36
	M -1.531 35.09
	L -1.531 36.09
	L -1.531 37.09
	L -1.148 38.01
	L -0.7654 38.93
	L -0.05826 39.64
	L 0.6488 40.35
	M -0.7654 36.93
	L 0.1585 37.32
	L 0.8656 38.02
	L 1.248 38.95
	M -0.7654 36.93
	L -0.7654 37.93
	L -0.3827 38.86
	L 0.3244 39.57
	M 9.992e-16 38.78
	L 0.9239 39.16
	L 1.631 39.87
	L 2.014 40.8
	M 9.992e-16 38.78
	L 1.11e-15 39.78
	L 0.3827 40.71
	L 1.09 41.41
	M 1.848 39.55
	L 2.772 39.16
	L 3.772 39.16
	L 4.696 39.55
	M 1.848 39.55
	L 2.555 40.25
	L 3.479 40.64
	L 4.479 40.64
	M 3.262 40.96
	L 4.262 40.96
	L 5.186 41.34
	L 5.893 42.05
	M 3.262 40.96
	L 3.645 41.89
	L 4.352 42.59
	L 5.276 42.98
	M 4.027 42.81
	L 4.951 43.19
	L 5.658 43.9
	L 6.041 44.82
	M 4.027 42.81
	L 4.027 43.81
	L 4.41 44.73
	L 5.117 45.44
	M 9.992e-16 38.78
	L 0.9239 39.16
	L 1.848 39.55
	L 2.555 40.25
	L 3.262 40.96
	L 3.645 41.89
	L 4.027 42.81
	M 1.221e-15 40.78
	L 0.7071 41.49
	L 1.09 42.41
	L 1.09 43.41
	M 1.221e-15 40.78
	L -0.3827 41.71
	L -0.3827 42.71
	L 1.388e-15 43.63
	M 0.7654 42.63
	L 1.689 43.01
	L 2.396 43.72
	L 2.779 44.64
	M 0.7654 42.63
	L 0.7654 43.63
	L 1.148 44.55
	L 1.855 45.26
	M 2.18 44.04
	L 3.18 44.04
	L 4.103 44.43
	L 4.811 45.13
	M 2.18 44.04
	L 2.562 44.97
	L 3.269 45.68
	L 4.193 46.06
	M 9.992e-16 38.78
	L 1.11e-15 39.78
	L 1.221e-15 40.78
	L 0.3827 41.71
	L 0.7654 42.63
	L 1.472 43.34
	L 2.18 44.04
	M 1.848 39.55
	L 2.772 39.16
	L 3.772 39.16
	L 4.696 39.55
	M 1.848 39.55
	L 2.555 40.25
	L 3.479 40.64
	L 4.479 40.64
	M 3.696 40.31
	L 4.619 39.93
	L 5.619 39.93
	L 6.543 40.31
	M 3.696 40.31
	L 4.403 41.02
	L 5.327 41.4
	L 6.327 41.4
	M 5.543 39.55
	L 5.926 38.62
	L 6.633 37.92
	L 7.557 37.53
	M 5.543 39.55
	L 6.543 39.55
	L 7.467 39.16
	L 8.174 38.46
	M 7.543 39.55
	L 8.25 38.84
	L 9.174 38.46
	L 10.17 38.46
	M 7.543 39.55
	L 8.467 39.93
	L 9.467 39.93
	L 10.39 39.55
	M 9.391 40.31
	L 10.31 39.93
	L 11.31 39.93
	L 12.24 40.31
	M 9.391 40.31
	L 10.1 41.02
	L 11.02 41.4
	L 12.02 41.4
	M 3.696 40.31
	L 4.619 39.93
	L 5.543 39.55
	L 6.543 39.55
	L 7.543 39.55
	L 8.467 39.93
	L 9.391 40.31
	M 5.11 41.73
	L 6.11 41.73
	L 7.034 42.11
	L 7.741 42.82
	M 5.11 41.73
	L 5.492 42.65
	L 6.2 43.36
	L 7.123 43.74
	M 6.957 42.49
	L 7.881 42.11
	L 8.881 42.11
	L 9.805 42.49
	M 6.957 42.49
	L 7.665 43.2
	L 8.588 43.58
	L 9.588 43.58
	M 8.957 42.49
	L 9.665 41.79
	L 10.59 41.4
	L 11.59 41.4
	M 8.957 42.49
	L 9.881 42.88
	L 10.88 42.88
	L 11.81 42.49
	M 3.696 40.31
	L 4.403 41.02
	L 5.11 41.73
	L 6.034 42.11
	L 6.957 42.49
	L 7.957 42.49
	L 8.957 42.49
	M 5.11 41.73
	L 6.11 41.73
	L 7.034 42.11
	L 7.741 42.82
	M 5.11 41.73
	L 5.492 42.65
	L 6.2 43.36
	L 7.123 43.74
	M 6.524 43.14
	L 7.524 43.14
	L 8.448 43.52
	L 9.155 44.23
	M 6.524 43.14
	L 6.907 44.07
	L 7.614 44.77
	L 8.538 45.15
	M 8.524 43.14
	L 9.231 42.43
	L 10.15 42.05
	L 11.15 42.05
	M 8.524 43.14
	L 9.448 43.52
	L 10.45 43.52
	L 11.37 43.14
	M 10.37 43.91
	L 11.3 43.52
	L 12.3 43.52
	L 13.22 43.91
	M 10.37 43.91
	L 11.08 44.61
	L 12 45
	L 13 45
	M 11.79 45.32
	L 12.79 45.32
	L 13.71 45.7
	L 14.42 46.41
	M 11.79 45.32
	L 12.17 46.24
	L 12.88 46.95
	L 13.8 47.33
	M 6.524 43.14
	L 7.524 43.14
	L 8.524 43.14
	L 9.448 43.52
	L 10.37 43.91
	L 11.08 44.61
	L 11.79 45.32
	M 7.289 44.99
	L 8.213 45.37
	L 8.92 46.08
	L 9.303 47
	M 7.289 44.99
	L 7.289 45.99
	L 7.672 46.91
	L 8.379 47.62
	M 8.704 46.4
	L 9.704 46.4
	L 10.63 46.79
	L 11.33 47.49
	M 8.704 46.4
	L 9.086 47.33
	L 9.793 48.03
	L 10.72 48.42
	M 10.55 47.17
	L 11.48 46.79
	L 12.48 46.79
	L 13.4 47.17
	M 10.55 47.17
	L 11.26 47.88
	L 12.18 48.26
	L 13.18 48.26
	M 6.524 43.14
	L 6.907 44.07
	L 7.289 44.99
	L 7.996 45.7
	L 8.704 46.4
	L 9.627 46.79
	L 10.55 47.17
	M 7.289 44.99
	L 8.213 45.37
	L 8.92 46.08
	L 9.303 47
	M 7.289 44.99
	L 7.289 45.99
	L 7.672 46.91
	L 8.379 47.62
	M 8.055 46.84
	L 8.979 47.22
	L 9.686 47.93
	L 10.07 48.85
	M 8.055 46.84
	L 8.055 47.84
	L 8.437 48.76
	L 9.144 49.47
	M 9.902 47.6
	L 10.83 47.22
	L 11.83 47.22
	L 12.75 47.6
	M 9.902 47.6
	L 10.61 48.31
	L 11.53 48.69
	L 12.53 48.69
	M 11.32 49.02
	L 12.32 49.02
	L 13.24 49.4
	L 13.95 50.11
	M 11.32 49.02
	L 11.7 49.94
	L 12.41 50.65
	L 13.33 51.03
	M 12.08 50.86
	L 13.01 51.25
	L 13.71 51.95
	L 14.1 52.88
	M 12.08 50.86
	L 12.08 51.86
	L 12.46 52.79
	L 13.17 53.5
	M 8.055 46.84
	L 8.979 47.22
	L 9.902 47.6
	L 10.61 48.31
	L 11.32 49.02
	L 11.7 49.94
	L 12.08 50.86
	M 8.055 48.84
	L 8.762 49.54
	L 9.144 50.47
	L 9.144 51.47
	M 8.055 48.84
	L 7.672 49.76
	L 7.672 50.76
	L 8.055 51.68
	M 8.82 50.68
	L 9.744 51.07
	L 10.45 51.77
	L 10.83 52.7
	M 8.82 50.68
	L 8.82 51.68
	L 9.203 52.61
	L 9.91 53.32
	M 10.23 52.1
	L 11.23 52.1
	L 12.16 52.48
	L 12.87 53.19
	M 10.23 52.1
	L 10.62 53.02
	L 11.32 53.73
	L 12.25 54.11
	M 8.055 46.84
	L 8.055 47.84
	L 8.055 48.84
	L 8.437 49.76
	L 8.82 50.68
	L 9.527 51.39
	L 10.23 52.1
	M 9.992e-16 38.78
	L 0.9239 39.16
	L 1.848 39.55
	L 2.772 39.93
	L 3.696 40.31
	L 4.403 41.02
	L 5.11 41.73
	L 5.817 42.43
	L 6.524 43.14
	L 6.907 44.07
	L 7.289 44.99
	L 7.672 45.91
	L 8.055 46.84
	M 1.221e-15 40.78
	L 0.7071 41.49
	L 1.09 42.41
	L 1.09 43.41
	M 1.221e-15 40.78
	L -0.3827 41.71
	L -0.3827 42.71
	L 1.388e-15 43.63
	M 1.332e-15 42.78
	L 0.7071 43.49
	L 1.09 44.41
	L 1.09 45.41
	M 1.332e-15 42.78
	L -0.3827 43.71
	L -0.3827 44.71
	L 1.499e-15 45.63
	M 1.414 44.2
	L 2.414 44.2
	L 3.338 44.58
	L 4.045 45.29
	M 1.414 44.2
	L 1.797 45.12
	L 2.504 45.83
	L 3.428 46.21
	M 2.18 46.04
	L 3.103 46.43
	L 3.811 47.13
	L 4.193 48.06
	M 2.18 46.04
	L 2.18 47.04
	L 2.562 47.97
	L 3.269 48.68
	M 2.18 48.04
	L 2.887 48.75
	L 3.269 49.68
	L 3.269 50.68
	M 2.18 48.04
	L 1.797 48.97
	L 1.797 49.97
	L 2.18 50.89
	M 1.332e-15 42.78
	L 0.7071 43.49
	L 1.414 44.2
	L 1.797 45.12
	L 2.18 46.04
	L 2.18 47.04
	L 2.18 48.04
	M -0.7654 44.63
	L -0.3827 45.55
	L -0.3827 46.55
	L -0.7654 47.48
	M -0.7654 44.63
	L -1.472 45.34
	L -1.855 46.26
	L -1.855 47.26
	M -0.7654 46.63
	L -0.05826 47.34
	L 0.3244 48.26
	L 0.3244 49.26
	M -0.7654 46.63
	L -1.148 47.55
	L -1.148 48.55
	L -0.7654 49.48
	M 1.554e-15 48.48
	L 0.9239 48.86
	L 1.631 49.57
	L 2.014 50.49
	M 1.554e-15 48.48
	L 1.665e-15 49.48
	L 0.3827 50.4
	L 1.09 51.11
	M 1.332e-15 42.78
	L -0.3827 43.71
	L -0.7654 44.63
	L -0.7654 45.63
	L -0.7654 46.63
	L -0.3827 47.55
	L 1.554e-15 48.48
	M 0.7654 44.63
	L 1.689 45.01
	L 2.396 45.72
	L 2.779 46.64
	M 0.7654 44.63
	L 0.7654 45.63
	L 1.148 46.55
	L 1.855 47.26
	M 1.531 46.48
	L 2.455 46.86
	L 3.162 47.57
	L 3.544 48.49
	M 1.531 46.48
	L 1.531 47.48
	L 1.913 48.4
	L 2.621 49.11
	M 3.378 47.24
	L 4.302 46.86
	L 5.302 46.86
	L 6.226 47.24
	M 3.378 47.24
	L 4.086 47.95
	L 5.009 48.33
	L 6.009 48.33
	M 4.793 48.66
	L 5.793 48.66
	L 6.717 49.04
	L 7.424 49.75
	M 4.793 48.66
	L 5.175 49.58
	L 5.882 50.29
	L 6.806 50.67
	M 5.558 50.5
	L 6.482 50.89
	L 7.189 51.59
	L 7.572 52.52
	M 5.558 50.5
	L 5.558 51.5
	L 5.941 52.43
	L 6.648 53.14
	M 1.531 46.48
	L 2.455 46.86
	L 3.378 47.24
	L 4.086 47.95
	L 4.793 48.66
	L 5.175 49.58
	L 5.558 50.5
	M 1.531 48.48
	L 2.238 49.18
	L 2.621 50.11
	L 2.621 51.11
	M 1.531 48.48
	L 1.148 49.4
	L 1.148 50.4
	L 1.531 51.33
	M 2.296 50.33
	L 3.22 50.71
	L 3.927 51.42
	L 4.31 52.34
	M 2.296 50.33
	L 2.296 51.33
	L 2.679 52.25
	L 3.386 52.96
	M 3.71 51.74
	L 4.71 51.74
	L 5.634 52.12
	L 6.341 52.83
	M 3.71 51.74
	L 4.093 52.66
	L 4.8 53.37
	L 5.724 53.75
	M 1.531 46.48
	L 1.531 47.48
	L 1.531 48.48
	L 1.913 49.4
	L 2.296 50.33
	L 3.003 51.03
	L 3.71 51.74
	M 2.945 47.89
	L 3.945 47.89
	L 4.869 48.27
	L 5.576 48.98
	M 2.945 47.89
	L 3.328 48.82
	L 4.035 49.52
	L 4.959 49.91
	M 4.359 49.31
	L 5.359 49.31
	L 6.283 49.69
	L 6.99 50.4
	M 4.359 49.31
	L 4.742 50.23
	L 5.449 50.94
	L 6.373 51.32
	M 6.359 49.31
	L 7.066 48.6
	L 7.99 48.22
	L 8.99 48.22
	M 6.359 49.31
	L 7.283 49.69
	L 8.283 49.69
	L 9.207 49.31
	M 8.207 50.07
	L 9.131 49.69
	L 10.13 49.69
	L 11.05 50.07
	M 8.207 50.07
	L 8.914 50.78
	L 9.838 51.16
	L 10.84 51.16
	M 9.621 51.49
	L 10.62 51.49
	L 11.55 51.87
	L 12.25 52.58
	M 9.621 51.49
	L 10 52.41
	L 10.71 53.12
	L 11.63 53.5
	M 4.359 49.31
	L 5.359 49.31
	L 6.359 49.31
	L 7.283 49.69
	L 8.207 50.07
	L 8.914 50.78
	L 9.621 51.49
	M 5.125 51.15
	L 6.048 51.54
	L 6.756 52.24
	L 7.138 53.17
	M 5.125 51.15
	L 5.125 52.15
	L 5.507 53.08
	L 6.214 53.78
	M 6.539 52.57
	L 7.539 52.57
	L 8.463 52.95
	L 9.17 53.66
	M 6.539 52.57
	L 6.921 53.49
	L 7.629 54.2
	L 8.552 54.58
	M 8.387 53.33
	L 9.31 52.95
	L 10.31 52.95
	L 11.23 53.33
	M 8.387 53.33
	L 9.094 54.04
	L 10.02 54.42
	L 11.02 54.42
	M 4.359 49.31
	L 4.742 50.23
	L 5.125 51.15
	L 5.832 51.86
	L 6.539 52.57
	L 7.463 52.95
	L 8.387 53.33
	M 9.992e-16 38.78
	L 1.11e-15 39.78
	L 1.221e-15 40.78
	L 1.277e-15 41.78
	L 1.332e-15 42.78
	L 0.3827 43.71
	L 0.7654 44.63
	L 1.148 45.55
	L 1.531 46.48
	L 2.238 47.18
	L 2.945 47.89
	L 3.652 48.6
	L 4.359 49.31
	M 0 16
	L -0.3827 16.92
	L -0.7654 17.85
	L -1.148 18.77
	L -1.531 19.7
	L -1.913 20.62
	L -2.296 21.54
	L -2.679 22.47
	L -3.061 23.39
	L -3.061 24.39
	L -3.061 25.39
	L -3.061 26.39
	L -3.061 27.39
	L -3.061 28.39
	L -3.061 29.39
	L -3.061 30.39
	L -3.061 31.39
	L -2.679 32.31
	L -2.296 33.24
	L -1.913 34.16
	L -1.531 35.09
	L -1.148 36.01
	L -0.7654 36.93
	L -0.3827 37.86
	L 9.992e-16 38.78
	M 0 0
	L 0 1
	L 0 2
	L 0 3
	L 0 4
	L 0 5
	L 0 6
	L 0 7
	L 0 8
	L 0 9
	L 0 10
	L 0 11
	L 0 12
	L 0 13
	L 0 14
	L 0 15
	L 0 16
"/>
</svg>
