<svg version="1.1" baseProfile="full" xmlns="http://www.w3.org/2000/svg"
width="877.5" height="1024"
viewBox="-55.56 -65 56.56 66"
>
<rect x="-55.56" y="-65" width="100%" height="100%" fill="white" />
<path stroke="green" stroke-width="0.04" stroke-linecap="round" fill="none"
transform="scale(1 -1)"
d="	M 0 0
	L 0 1
	L -0.866 1.5
	L -1.732 1
	L -2.598 1.5
	L -2.598 2.5
	L -1.732 3
	L -0.866 2.5
	L 0 3
	L -5.551e-17 4
	L -0.866 4.5
	L -0.866 5.5
	L 0 6
	L 0 7
	L -0.866 7.5
	L -1.732 7
	L -1.732 6
	L -2.598 5.5
	L -3.464 6
	L -4.33 5.5
	L -4.33 4.5
	L -3.464 4
	L -3.464 3
	L -4.33 2.5
	L -5.196 3
	L -5.196 4
	L -6.062 4.5
	L -6.928 4
	L -7.794 4.5
	L -7.794 5.5
	L -6.928 6
	L -6.928 7
	L -7.794 7.5
	L -8.66 7
	L -8.66 6
	L -9.526 5.5
	L -10.39 6
	L -10.39 7
	L -11.26 7.5
	L -12.12 7
	L -12.99 7.5
	L -12.99 8.5
	L -12.12 9
	L -11.26 8.5
	L -10.39 9
	L -10.39 10
	L -9.526 10.5
	L -8.66 10
	L -8.66 9
	L -7.794 8.5
	L -6.928 9
	L -6.928 10
	L -7.794 10.5
	L -7.794 11.5
	L -6.928 12
	L -6.062 11.5
	L -5.196 12
	L -5.196 13
	L -4.33 13.5
	L -3.464 13
	L -3.464 12
	L -4.33 11.5
	L -4.33 10.5
	L -3.464 10
	L -2.598 10.5
	L -1.732 10
	L -1.732 9
	L -0.866 8.5
	L 6.661e-16 9
	L 6.106e-16 10
	L -0.866 10.5
	L -0.866 11.5
	L 6.661e-16 12
	L 6.661e-16 13
	L -0.866 13.5
	L -1.732 13
	L -2.598 13.5
	L -2.598 14.5
	L -1.732 15
	L -0.866 14.5
	L 8.882e-16 15
	L 8.327e-16 16
	L -0.866 16.5
	L -0.866 17.5
	L 8.882e-16 18
	L 8.882e-16 19
	L -0.866 19.5
	L -1.732 19
	L -1.732 18
	L -2.598 17.5
	L -3.464 18
	L -3.464 19
	L -4.33 19.5
	L -5.196 19
	L -6.062 19.5
	L -6.062 20.5
	L -5.196 21
	L -4.33 20.5
	L -3.464 21
	L -3.464 22
	L -2.598 22.5
	L -1.732 22
	L -1.732 21
	L -0.866 20.5
	L 6.661e-16 21
	L 6.106e-16 22
	L -0.866 22.5
	L -0.866 23.5
	L 6.661e-16 24
	L 6.661e-16 25
	L -0.866 25.5
	L -1.732 25
	L -2.598 25.5
	L -2.598 26.5
	L -1.732 27
	L -0.866 26.5
	L 8.882e-16 27
	L 8.327e-16 28
	L -0.866 28.5
	L -0.866 29.5
	L 8.882e-16 30
	L 8.882e-16 31
	L -0.866 31.5
	L -1.732 31
	L -1.732 30
	L -2.598 29.5
	L -3.464 30
	L -4.33 29.5
	L -4.33 28.5
	L -3.464 28
	L -3.464 27
	L -4.33 26.5
	L -5.196 27
	L -5.196 28
	L -6.062 28.5
	L -6.928 28
	L -6.928 27
	L -7.794 26.5
	L -8.66 27
	L -9.526 26.5
	L -9.526 25.5
	L -8.66 25
	L -7.794 25.5
	L -6.928 25
	L -6.928 24
	L -7.794 23.5
	L -7.794 22.5
	L -6.928 22
	L -6.928 21
	L -7.794 20.5
	L -8.66 21
	L -8.66 22
	L -9.526 22.5
	L -10.39 22
	L -11.26 22.5
	L -11.26 23.5
	L -10.39 24
	L -10.39 25
	L -11.26 25.5
	L -12.12 25
	L -12.12 24
	L -12.99 23.5
	L -13.86 24
	L -14.72 23.5
	L -14.72 22.5
	L -13.86 22
	L -13.86 21
	L -14.72 20.5
	L -15.59 21
	L -15.59 22
	L -16.45 22.5
	L -17.32 22
	L -17.32 21
	L -18.19 20.5
	L -19.05 21
	L -19.92 20.5
	L -19.92 19.5
	L -19.05 19
	L -18.19 19.5
	L -17.32 19
	L -17.32 18
	L -16.45 17.5
	L -15.59 18
	L -15.59 19
	L -14.72 19.5
	L -13.86 19
	L -13.86 18
	L -14.72 17.5
	L -14.72 16.5
	L -13.86 16
	L -13.86 15
	L -14.72 14.5
	L -15.59 15
	L -16.45 14.5
	L -16.45 13.5
	L -15.59 13
	L -14.72 13.5
	L -13.86 13
	L -13.86 12
	L -14.72 11.5
	L -14.72 10.5
	L -13.86 10
	L -13.86 9
	L -14.72 8.5
	L -15.59 9
	L -15.59 10
	L -16.45 10.5
	L -17.32 10
	L -18.19 10.5
	L -18.19 11.5
	L -17.32 12
	L -17.32 13
	L -18.19 13.5
	L -19.05 13
	L -19.05 12
	L -19.92 11.5
	L -20.78 12
	L -20.78 13
	L -21.65 13.5
	L -22.52 13
	L -23.38 13.5
	L -23.38 14.5
	L -22.52 15
	L -21.65 14.5
	L -20.78 15
	L -20.78 16
	L -21.65 16.5
	L -21.65 17.5
	L -20.78 18
	L -20.78 19
	L -21.65 19.5
	L -22.52 19
	L -22.52 18
	L -23.38 17.5
	L -24.25 18
	L -25.11 17.5
	L -25.11 16.5
	L -24.25 16
	L -24.25 15
	L -25.11 14.5
	L -25.98 15
	L -25.98 16
	L -26.85 16.5
	L -27.71 16
	L -28.58 16.5
	L -28.58 17.5
	L -27.71 18
	L -27.71 19
	L -28.58 19.5
	L -29.44 19
	L -29.44 18
	L -30.31 17.5
	L -31.18 18
	L -31.18 19
	L -32.04 19.5
	L -32.91 19
	L -33.77 19.5
	L -33.77 20.5
	L -32.91 21
	L -32.04 20.5
	L -31.18 21
	L -31.18 22
	L -30.31 22.5
	L -29.44 22
	L -29.44 21
	L -28.58 20.5
	L -27.71 21
	L -27.71 22
	L -28.58 22.5
	L -28.58 23.5
	L -27.71 24
	L -27.71 25
	L -28.58 25.5
	L -29.44 25
	L -30.31 25.5
	L -30.31 26.5
	L -29.44 27
	L -28.58 26.5
	L -27.71 27
	L -27.71 28
	L -28.58 28.5
	L -28.58 29.5
	L -27.71 30
	L -27.71 31
	L -28.58 31.5
	L -29.44 31
	L -29.44 30
	L -30.31 29.5
	L -31.18 30
	L -32.04 29.5
	L -32.04 28.5
	L -31.18 28
	L -31.18 27
	L -32.04 26.5
	L -32.91 27
	L -32.91 28
	L -33.77 28.5
	L -34.64 28
	L -34.64 27
	L -35.51 26.5
	L -36.37 27
	L -37.24 26.5
	L -37.24 25.5
	L -36.37 25
	L -35.51 25.5
	L -34.64 25
	L -34.64 24
	L -35.51 23.5
	L -35.51 22.5
	L -34.64 22
	L -34.64 21
	L -35.51 20.5
	L -36.37 21
	L -36.37 22
	L -37.24 22.5
	L -38.11 22
	L -38.97 22.5
	L -38.97 23.5
	L -38.11 24
	L -38.11 25
	L -38.97 25.5
	L -39.84 25
	L -39.84 24
	L -40.7 23.5
	L -41.57 24
	L -41.57 25
	L -42.44 25.5
	L -43.3 25
	L -44.17 25.5
	L -44.17 26.5
	L -43.3 27
	L -42.44 26.5
	L -41.57 27
	L -41.57 28
	L -42.44 28.5
	L -42.44 29.5
	L -41.57 30
	L -41.57 31
	L -42.44 31.5
	L -43.3 31
	L -43.3 30
	L -44.17 29.5
	L -45.03 30
	L -45.9 29.5
	L -45.9 28.5
	L -45.03 28
	L -45.03 27
	L -45.9 26.5
	L -46.77 27
	L -46.77 28
	L -47.63 28.5
	L -48.5 28
	L -49.36 28.5
	L -49.36 29.5
	L -48.5 30
	L -48.5 31
	L -49.36 31.5
	L -50.23 31
	L -50.23 30
	L -51.1 29.5
	L -51.96 30
	L -51.96 31
	L -52.83 31.5
	L -53.69 31
	L -54.56 31.5
	L -54.56 32.5
	L -53.69 33
	L -52.83 32.5
	L -51.96 33
	L -51.96 34
	L -51.1 34.5
	L -50.23 34
	L -50.23 33
	L -49.36 32.5
	L -48.5 33
	L -48.5 34
	L -49.36 34.5
	L -49.36 35.5
	L -48.5 36
	L -47.63 35.5
	L -46.77 36
	L -46.77 37
	L -45.9 37.5
	L -45.03 37
	L -45.03 36
	L -45.9 35.5
	L -45.9 34.5
	L -45.03 34
	L -44.17 34.5
	L -43.3 34
	L -43.3 33
	L -42.44 32.5
	L -41.57 33
	L -41.57 34
	L -42.44 34.5
	L -42.44 35.5
	L -41.57 36
	L -41.57 37
	L -42.44 37.5
	L -43.3 37
	L -44.17 37.5
	L -44.17 38.5
	L -43.3 39
	L -42.44 38.5
	L -41.57 39
	L -41.57 40
	L -40.7 40.5
	L -39.84 40
	L -39.84 39
	L -38.97 38.5
	L -38.11 39
	L -38.11 40
	L -38.97 40.5
	L -38.97 41.5
	L -38.11 42
	L -37.24 41.5
	L -36.37 42
	L -36.37 43
	L -35.51 43.5
	L -34.64 43
	L -34.64 42
	L -35.51 41.5
	L -35.51 40.5
	L -34.64 40
	L -34.64 39
	L -35.51 38.5
	L -36.37 39
	L -37.24 38.5
	L -37.24 37.5
	L -36.37 37
	L -35.51 37.5
	L -34.64 37
	L -34.64 36
	L -33.77 35.5
	L -32.91 36
	L -32.91 37
	L -32.04 37.5
	L -31.18 37
	L -31.18 36
	L -32.04 35.5
	L -32.04 34.5
	L -31.18 34
	L -30.31 34.5
	L -29.44 34
	L -29.44 33
	L -28.58 32.5
	L -27.71 33
	L -27.71 34
	L -28.58 34.5
	L -28.58 35.5
	L -27.71 36
	L -27.71 37
	L -28.58 37.5
	L -29.44 37
	L -30.31 37.5
	L -30.31 38.5
	L -29.44 39
	L -28.58 38.5
	L -27.71 39
	L -27.71 40
	L -28.58 40.5
	L -28.58 41.5
	L -27.71 42
	L -27.71 43
	L -28.58 43.5
	L -29.44 43
	L -29.44 42
	L -30.31 41.5
	L -31.18 42
	L -31.18 43
	L -32.04 43.5
	L -32.91 43
	L -33.77 43.5
	L -33.77 44.5
	L -32.91 45
	L -32.04 44.5
	L -31.18 45
	L -31.18 46
	L -30.31 46.5
	L -29.44 46
	L -29.44 45
	L -28.58 44.5
	L -27.71 45
	L -27.71 46
	L -28.58 46.5
	L -28.58 47.5
	L -27.71 48
	L -26.85 47.5
	L -25.98 48
	L -25.98 49
	L -25.11 49.5
	L -24.25 49
	L -24.25 48
	L -25.11 47.5
	L -25.11 46.5
	L -24.25 46
	L -23.38 46.5
	L -22.52 46
	L -22.52 45
	L -21.65 44.5
	L -20.78 45
	L -20.78 46
	L -21.65 46.5
	L -21.65 47.5
	L -20.78 48
	L -20.78 49
	L -21.65 49.5
	L -22.52 49
	L -23.38 49.5
	L -23.38 50.5
	L -22.52 51
	L -21.65 50.5
	L -20.78 51
	L -20.78 52
	L -19.92 52.5
	L -19.05 52
	L -19.05 51
	L -18.19 50.5
	L -17.32 51
	L -17.32 52
	L -18.19 52.5
	L -18.19 53.5
	L -17.32 54
	L -16.45 53.5
	L -15.59 54
	L -15.59 55
	L -14.72 55.5
	L -13.86 55
	L -13.86 54
	L -14.72 53.5
	L -14.72 52.5
	L -13.86 52
	L -13.86 51
	L -14.72 50.5
	L -15.59 51
	L -16.45 50.5
	L -16.45 49.5
	L -15.59 49
	L -14.72 49.5
	L -13.86 49
	L -13.86 48
	L -14.72 47.5
	L -14.72 46.5
	L -13.86 46
	L -13.86 45
	L -14.72 44.5
	L -15.59 45
	L -15.59 46
	L -16.45 46.5
	L -17.32 46
	L -17.32 45
	L -18.19 44.5
	L -19.05 45
	L -19.92 44.5
	L -19.92 43.5
	L -19.05 43
	L -18.19 43.5
	L -17.32 43
	L -17.32 42
	L -16.45 41.5
	L -15.59 42
	L -15.59 43
	L -14.72 43.5
	L -13.86 43
	L -13.86 42
	L -14.72 41.5
	L -14.72 40.5
	L -13.86 40
	L -12.99 40.5
	L -12.12 40
	L -12.12 39
	L -11.26 38.5
	L -10.39 39
	L -10.39 40
	L -11.26 40.5
	L -11.26 41.5
	L -10.39 42
	L -9.526 41.5
	L -8.66 42
	L -8.66 43
	L -7.794 43.5
	L -6.928 43
	L -6.928 42
	L -7.794 41.5
	L -7.794 40.5
	L -6.928 40
	L -6.928 39
	L -7.794 38.5
	L -8.66 39
	L -9.526 38.5
	L -9.526 37.5
	L -8.66 37
	L -7.794 37.5
	L -6.928 37
	L -6.928 36
	L -6.062 35.5
	L -5.196 36
	L -5.196 37
	L -4.33 37.5
	L -3.464 37
	L -3.464 36
	L -4.33 35.5
	L -4.33 34.5
	L -3.464 34
	L -2.598 34.5
	L -1.732 34
	L -1.732 33
	L -0.866 32.5
	L -5.995e-15 33
	L -5.385e-15 34
	L -0.866 34.5
	L -0.866 35.5
	L -3.997e-15 36
	L -3.386e-15 37
	L -0.866 37.5
	L -1.732 37
	L -2.598 37.5
	L -2.598 38.5
	L -1.732 39
	L -0.866 38.5
	L -2.22e-15 39
	L -1.61e-15 40
	L -0.866 40.5
	L -0.866 41.5
	L -2.22e-16 42
	L 3.886e-16 43
	L -0.866 43.5
	L -1.732 43
	L -1.732 42
	L -2.598 41.5
	L -3.464 42
	L -3.464 43
	L -4.33 43.5
	L -5.196 43
	L -6.062 43.5
	L -6.062 44.5
	L -5.196 45
	L -4.33 44.5
	L -3.464 45
	L -3.464 46
	L -2.598 46.5
	L -1.732 46
	L -1.732 45
	L -0.866 44.5
	L 2.887e-15 45
	L 3.497e-15 46
	L -0.866 46.5
	L -0.866 47.5
	L 4.885e-15 48
	L 5.496e-15 49
	L -0.866 49.5
	L -1.732 49
	L -2.598 49.5
	L -2.598 50.5
	L -1.732 51
	L -0.866 50.5
	L 6.661e-15 51
	L 7.272e-15 52
	L -0.866 52.5
	L -0.866 53.5
	L 8.66e-15 54
	L 9.27e-15 55
	L -0.866 55.5
	L -1.732 55
	L -1.732 54
	L -2.598 53.5
	L -3.464 54
	L -4.33 53.5
	L -4.33 52.5
	L -3.464 52
	L -3.464 51
	L -4.33 50.5
	L -5.196 51
	L -5.196 52
	L -6.062 52.5
	L -6.928 52
	L -7.794 52.5
	L -7.794 53.5
	L -6.928 54
	L -6.928 55
	L -7.794 55.5
	L -8.66 55
	L -8.66 54
	L -9.526 53.5
	L -10.39 54
	L -10.39 55
	L -11.26 55.5
	L -12.12 55
	L -12.99 55.5
	L -12.99 56.5
	L -12.12 57
	L -11.26 56.5
	L -10.39 57
	L -10.39 58
	L -9.526 58.5
	L -8.66 58
	L -8.66 57
	L -7.794 56.5
	L -6.928 57
	L -6.928 58
	L -7.794 58.5
	L -7.794 59.5
	L -6.928 60
	L -6.062 59.5
	L -5.196 60
	L -5.196 61
	L -4.33 61.5
	L -3.464 61
	L -3.464 60
	L -4.33 59.5
	L -4.33 58.5
	L -3.464 58
	L -2.598 58.5
	L -1.732 58
	L -1.732 57
	L -0.866 56.5
	L 9.992e-15 57
	L 1.06e-14 58
	L -0.866 58.5
	L -0.866 59.5
	L 1.199e-14 60
	L 1.26e-14 61
	L -0.866 61.5
	L -1.732 61
	L -2.598 61.5
	L -2.598 62.5
	L -1.732 63
	L -0.866 62.5
	L 1.377e-14 63
	L 1.438e-14 64
"/>
</svg>
