<svg version="1.1" baseProfile="full" xmlns="http://www.w3.org/2000/svg"
width="1024" height="1024"
viewBox="-1 -82 83 83"
>
<rect x="-1" y="-82" width="100%" height="100%" fill="white" />
<path stroke="green" stroke-width="0.04" stroke-linecap="round" fill="none"
transform="scale(1 -1)"
d="	M 0 0
	L 0 1
	L 0 2
	L 1 2
	L 0 2
	L -2.449e-16 3
	L -4.899e-16 4
	L -7.348e-16 5
	L 1 5
	L -7.772e-16 5
	L -1.267e-15 6
	L 1 6
	L 2 6
	L 2 5
	L 2 6
	L 3 6
	L 2 6
	L 1 6
	L 1 7
	L 1 6
	L -1.221e-15 6
	L -2.446e-15 7
	L -3.671e-15 8
	L 1 8
	L -3.664e-15 8
	L -5.133e-15 9
	L -6.603e-15 10
	L -8.072e-15 11
	L 1 11
	L -8.105e-15 11
	L -9.819e-15 12
	L -1.153e-14 13
	L -1.325e-14 14
	L 1 14
	L -1.321e-14 14
	L -1.517e-14 15
	L 1 15
	L 2 15
	L 2 14
	L 2 15
	L 3 15
	L 2 15
	L 1 15
	L 1 16
	L 1 15
	L -1.499e-14 15
	L -1.768e-14 16
	L -2.038e-14 17
	L 1 17
	L -2.043e-14 17
	L -2.337e-14 18
	L 1 18
	L 2 18
	L 2 17
	L 2 18
	L 3 18
	L 4 18
	L 5 18
	L 5 17
	L 5 18
	L 6 18
	L 6 17
	L 6 16
	L 5 16
	L 6 16
	L 6 15
	L 6 16
	L 6 17
	L 7 17
	L 6 17
	L 6 18
	L 7 18
	L 8 18
	L 8 17
	L 8 18
	L 9 18
	L 8 18
	L 7 18
	L 7 19
	L 7 18
	L 6 18
	L 5 18
	L 4 18
	L 4 19
	L 4 18
	L 3 18
	L 3 19
	L 3 20
	L 4 20
	L 3 20
	L 3 21
	L 3 20
	L 3 19
	L 2 19
	L 3 19
	L 3 18
	L 2 18
	L 1 18
	L 1 19
	L 1 18
	L -2.431e-14 18
	L -3.044e-14 19
	L -3.656e-14 20
	L 1 20
	L -3.653e-14 20
	L -4.289e-14 21
	L -4.926e-14 22
	L -5.563e-14 23
	L 1 23
	L -5.562e-14 23
	L -6.224e-14 24
	L 1 24
	L 2 24
	L 2 23
	L 2 24
	L 3 24
	L 2 24
	L 1 24
	L 1 25
	L 1 24
	L -6.206e-14 24
	L -6.941e-14 25
	L -7.676e-14 26
	L 1 26
	L -7.672e-14 26
	L -8.431e-14 27
	L -9.19e-14 28
	L -9.949e-14 29
	L 1 29
	L -9.948e-14 29
	L -1.073e-13 30
	L -1.152e-13 31
	L -1.23e-13 32
	L 1 32
	L -1.23e-13 32
	L -1.311e-13 33
	L 1 33
	L 2 33
	L 2 32
	L 2 33
	L 3 33
	L 2 33
	L 1 33
	L 1 34
	L 1 33
	L -1.313e-13 33
	L -1.402e-13 34
	L -1.49e-13 35
	L 1 35
	L -1.49e-13 35
	L -1.581e-13 36
	L -1.671e-13 37
	L -1.762e-13 38
	L 1 38
	L -1.762e-13 38
	L -1.855e-13 39
	L -1.948e-13 40
	L -2.041e-13 41
	L 1 41
	L -2.041e-13 41
	L -2.136e-13 42
	L 1 42
	L 2 42
	L 2 41
	L 2 42
	L 3 42
	L 2 42
	L 1 42
	L 1 43
	L 1 42
	L -2.134e-13 42
	L -2.237e-13 43
	L -2.34e-13 44
	L 1 44
	L -2.339e-13 44
	L -2.445e-13 45
	L 1 45
	L 2 45
	L 2 44
	L 2 45
	L 3 45
	L 4 45
	L 5 45
	L 5 44
	L 5 45
	L 6 45
	L 6 44
	L 6 43
	L 5 43
	L 6 43
	L 6 42
	L 6 43
	L 6 44
	L 7 44
	L 6 44
	L 6 45
	L 7 45
	L 8 45
	L 8 44
	L 8 45
	L 9 45
	L 8 45
	L 7 45
	L 7 46
	L 7 45
	L 6 45
	L 5 45
	L 4 45
	L 4 46
	L 4 45
	L 3 45
	L 3 46
	L 3 47
	L 4 47
	L 3 47
	L 3 48
	L 3 47
	L 3 46
	L 2 46
	L 3 46
	L 3 45
	L 2 45
	L 1 45
	L 1 46
	L 1 45
	L -2.437e-13 45
	L -2.574e-13 46
	L -2.711e-13 47
	L 1 47
	L -2.711e-13 47
	L -2.851e-13 48
	L -2.99e-13 49
	L -3.13e-13 50
	L 1 50
	L -3.13e-13 50
	L -3.272e-13 51
	L 1 51
	L 2 51
	L 2 50
	L 2 51
	L 3 51
	L 2 51
	L 1 51
	L 1 52
	L 1 51
	L -3.272e-13 51
	L -3.421e-13 52
	L -3.571e-13 53
	L 1 53
	L -3.57e-13 53
	L -3.722e-13 54
	L 1 54
	L 2 54
	L 2 53
	L 2 54
	L 3 54
	L 4 54
	L 5 54
	L 5 53
	L 5 54
	L 6 54
	L 6 53
	L 6 52
	L 5 52
	L 6 52
	L 6 51
	L 6 52
	L 6 53
	L 7 53
	L 6 53
	L 6 54
	L 7 54
	L 8 54
	L 8 53
	L 8 54
	L 9 54
	L 10 54
	L 11 54
	L 11 53
	L 11 54
	L 12 54
	L 13 54
	L 14 54
	L 14 53
	L 14 54
	L 15 54
	L 15 53
	L 15 52
	L 14 52
	L 15 52
	L 15 51
	L 15 52
	L 15 53
	L 16 53
	L 15 53
	L 15 54
	L 16 54
	L 17 54
	L 17 53
	L 17 54
	L 18 54
	L 18 53
	L 18 52
	L 17 52
	L 18 52
	L 18 51
	L 18 50
	L 18 49
	L 17 49
	L 18 49
	L 18 48
	L 17 48
	L 16 48
	L 16 49
	L 16 48
	L 15 48
	L 16 48
	L 17 48
	L 17 47
	L 17 48
	L 18 48
	L 18 47
	L 18 46
	L 17 46
	L 18 46
	L 18 45
	L 18 46
	L 18 47
	L 19 47
	L 18 47
	L 18 48
	L 18 49
	L 18 50
	L 19 50
	L 18 50
	L 18 51
	L 19 51
	L 20 51
	L 20 50
	L 20 51
	L 21 51
	L 20 51
	L 19 51
	L 19 52
	L 19 51
	L 18 51
	L 18 52
	L 18 53
	L 19 53
	L 18 53
	L 18 54
	L 19 54
	L 20 54
	L 20 53
	L 20 54
	L 21 54
	L 22 54
	L 23 54
	L 23 53
	L 23 54
	L 24 54
	L 24 53
	L 24 52
	L 23 52
	L 24 52
	L 24 51
	L 24 52
	L 24 53
	L 25 53
	L 24 53
	L 24 54
	L 25 54
	L 26 54
	L 26 53
	L 26 54
	L 27 54
	L 26 54
	L 25 54
	L 25 55
	L 25 54
	L 24 54
	L 23 54
	L 22 54
	L 22 55
	L 22 54
	L 21 54
	L 21 55
	L 21 56
	L 22 56
	L 21 56
	L 21 57
	L 21 56
	L 21 55
	L 20 55
	L 21 55
	L 21 54
	L 20 54
	L 19 54
	L 19 55
	L 19 54
	L 18 54
	L 17 54
	L 16 54
	L 16 55
	L 16 54
	L 15 54
	L 14 54
	L 13 54
	L 13 55
	L 13 54
	L 12 54
	L 12 55
	L 12 56
	L 13 56
	L 12 56
	L 12 57
	L 12 56
	L 12 55
	L 11 55
	L 12 55
	L 12 54
	L 11 54
	L 10 54
	L 10 55
	L 10 54
	L 9 54
	L 9 55
	L 9 56
	L 10 56
	L 9 56
	L 9 57
	L 9 58
	L 9 59
	L 10 59
	L 9 59
	L 9 60
	L 10 60
	L 11 60
	L 11 59
	L 11 60
	L 12 60
	L 11 60
	L 10 60
	L 10 61
	L 10 60
	L 9 60
	L 9 61
	L 9 62
	L 10 62
	L 9 62
	L 9 63
	L 9 62
	L 9 61
	L 8 61
	L 9 61
	L 9 60
	L 9 59
	L 9 58
	L 8 58
	L 9 58
	L 9 57
	L 8 57
	L 7 57
	L 7 58
	L 7 57
	L 6 57
	L 7 57
	L 8 57
	L 8 56
	L 8 57
	L 9 57
	L 9 56
	L 9 55
	L 8 55
	L 9 55
	L 9 54
	L 8 54
	L 7 54
	L 7 55
	L 7 54
	L 6 54
	L 5 54
	L 4 54
	L 4 55
	L 4 54
	L 3 54
	L 3 55
	L 3 56
	L 4 56
	L 3 56
	L 3 57
	L 3 56
	L 3 55
	L 2 55
	L 3 55
	L 3 54
	L 2 54
	L 1 54
	L 1 55
	L 1 54
	L -3.822e-13 54
	L -4.129e-13 55
	L -4.435e-13 56
	L 1 56
	L -4.435e-13 56
	L -4.744e-13 57
	L -5.053e-13 58
	L -5.361e-13 59
	L 1 59
	L -5.361e-13 59
	L -5.672e-13 60
	L 1 60
	L 2 60
	L 2 59
	L 2 60
	L 3 60
	L 2 60
	L 1 60
	L 1 61
	L 1 60
	L -5.67e-13 60
	L -5.988e-13 61
	L -6.307e-13 62
	L 1 62
	L -6.307e-13 62
	L -6.628e-13 63
	L -6.949e-13 64
	L -7.27e-13 65
	L 1 65
	L -7.27e-13 65
	L -7.593e-13 66
	L -7.916e-13 67
	L -8.24e-13 68
	L 1 68
	L -8.24e-13 68
	L -8.566e-13 69
	L 1 69
	L 2 69
	L 2 68
	L 2 69
	L 3 69
	L 2 69
	L 1 69
	L 1 70
	L 1 69
	L -8.57e-13 69
	L -8.903e-13 70
	L -9.236e-13 71
	L 1 71
	L -9.236e-13 71
	L -9.571e-13 72
	L 1 72
	L 2 72
	L 2 71
	L 2 72
	L 3 72
	L 4 72
	L 5 72
	L 5 71
	L 5 72
	L 6 72
	L 6 71
	L 6 70
	L 5 70
	L 6 70
	L 6 69
	L 6 70
	L 6 71
	L 7 71
	L 6 71
	L 6 72
	L 7 72
	L 8 72
	L 8 71
	L 8 72
	L 9 72
	L 8 72
	L 7 72
	L 7 73
	L 7 72
	L 6 72
	L 5 72
	L 4 72
	L 4 73
	L 4 72
	L 3 72
	L 3 73
	L 3 74
	L 4 74
	L 3 74
	L 3 75
	L 3 74
	L 3 73
	L 2 73
	L 3 73
	L 3 72
	L 2 72
	L 1 72
	L 1 73
	L 1 72
	L -9.587e-13 72
	L -9.954e-13 73
	L -1.032e-12 74
	L 1 74
	L -1.032e-12 74
	L -1.069e-12 75
	L -1.106e-12 76
	L -1.143e-12 77
	L 1 77
	L -1.143e-12 77
	L -1.18e-12 78
	L 1 78
	L 2 78
	L 2 77
	L 2 78
	L 3 78
	L 2 78
	L 1 78
	L 1 79
	L 1 78
	L -1.18e-12 78
	L -1.218e-12 79
	L -1.256e-12 80
	L 1 80
	L -1.256e-12 80
	L -1.294e-12 81
	L 1 81
	L 2 81
	L 2 80
	L 2 81
	L 3 81
	L 4 81
	L 5 81
	L 5 80
	L 5 81
	L 6 81
	L 6 80
	L 6 79
	L 5 79
	L 6 79
	L 6 78
	L 6 79
	L 6 80
	L 7 80
	L 6 80
	L 6 81
	L 7 81
	L 8 81
	L 8 80
	L 8 81
	L 9 81
	L 10 81
	L 11 81
	L 11 80
	L 11 81
	L 12 81
	L 13 81
	L 14 81
	L 14 80
	L 14 81
	L 15 81
	L 15 80
	L 15 79
	L 14 79
	L 15 79
	L 15 78
	L 15 79
	L 15 80
	L 16 80
	L 15 80
	L 15 81
	L 16 81
	L 17 81
	L 17 80
	L 17 81
	L 18 81
	L 18 80
	L 18 79
	L 17 79
	L 18 79
	L 18 78
	L 18 77
	L 18 76
	L 17 76
	L 18 76
	L 18 75
	L 17 75
	L 16 75
	L 16 76
	L 16 75
	L 15 75
	L 16 75
	L 17 75
	L 17 74
	L 17 75
	L 18 75
	L 18 74
	L 18 73
	L 17 73
	L 18 73
	L 18 72
	L 18 73
	L 18 74
	L 19 74
	L 18 74
	L 18 75
	L 18 76
	L 18 77
	L 19 77
	L 18 77
	L 18 78
	L 19 78
	L 20 78
	L 20 77
	L 20 78
	L 21 78
	L 20 78
	L 19 78
	L 19 79
	L 19 78
	L 18 78
	L 18 79
	L 18 80
	L 19 80
	L 18 80
	L 18 81
	L 19 81
	L 20 81
	L 20 80
	L 20 81
	L 21 81
	L 22 81
	L 23 81
	L 23 80
	L 23 81
	L 24 81
	L 24 80
	L 24 79
	L 23 79
	L 24 79
	L 24 78
	L 24 79
	L 24 80
	L 25 80
	L 24 80
	L 24 81
	L 25 81
	L 26 81
	L 26 80
	L 26 81
	L 27 81
	L 28 81
	L 29 81
	L 29 80
	L 29 81
	L 30 81
	L 31 81
	L 32 81
	L 32 80
	L 32 81
	L 33 81
	L 33 80
	L 33 79
	L 32 79
	L 33 79
	L 33 78
	L 33 79
	L 33 80
	L 34 80
	L 33 80
	L 33 81
	L 34 81
	L 35 81
	L 35 80
	L 35 81
	L 36 81
	L 37 81
	L 38 81
	L 38 80
	L 38 81
	L 39 81
	L 40 81
	L 41 81
	L 41 80
	L 41 81
	L 42 81
	L 42 80
	L 42 79
	L 41 79
	L 42 79
	L 42 78
	L 42 79
	L 42 80
	L 43 80
	L 42 80
	L 42 81
	L 43 81
	L 44 81
	L 44 80
	L 44 81
	L 45 81
	L 45 80
	L 45 79
	L 44 79
	L 45 79
	L 45 78
	L 45 77
	L 45 76
	L 44 76
	L 45 76
	L 45 75
	L 44 75
	L 43 75
	L 43 76
	L 43 75
	L 42 75
	L 43 75
	L 44 75
	L 44 74
	L 44 75
	L 45 75
	L 45 74
	L 45 73
	L 44 73
	L 45 73
	L 45 72
	L 45 73
	L 45 74
	L 46 74
	L 45 74
	L 45 75
	L 45 76
	L 45 77
	L 46 77
	L 45 77
	L 45 78
	L 46 78
	L 47 78
	L 47 77
	L 47 78
	L 48 78
	L 47 78
	L 46 78
	L 46 79
	L 46 78
	L 45 78
	L 45 79
	L 45 80
	L 46 80
	L 45 80
	L 45 81
	L 46 81
	L 47 81
	L 47 80
	L 47 81
	L 48 81
	L 49 81
	L 50 81
	L 50 80
	L 50 81
	L 51 81
	L 51 80
	L 51 79
	L 50 79
	L 51 79
	L 51 78
	L 51 79
	L 51 80
	L 52 80
	L 51 80
	L 51 81
	L 52 81
	L 53 81
	L 53 80
	L 53 81
	L 54 81
	L 54 80
	L 54 79
	L 53 79
	L 54 79
	L 54 78
	L 54 77
	L 54 76
	L 53 76
	L 54 76
	L 54 75
	L 53 75
	L 52 75
	L 52 76
	L 52 75
	L 51 75
	L 52 75
	L 53 75
	L 53 74
	L 53 75
	L 54 75
	L 54 74
	L 54 73
	L 53 73
	L 54 73
	L 54 72
	L 54 71
	L 54 70
	L 53 70
	L 54 70
	L 54 69
	L 54 68
	L 54 67
	L 53 67
	L 54 67
	L 54 66
	L 53 66
	L 52 66
	L 52 67
	L 52 66
	L 51 66
	L 52 66
	L 53 66
	L 53 65
	L 53 66
	L 54 66
	L 54 65
	L 54 64
	L 53 64
	L 54 64
	L 54 63
	L 53 63
	L 52 63
	L 52 64
	L 52 63
	L 51 63
	L 50 63
	L 49 63
	L 49 64
	L 49 63
	L 48 63
	L 48 64
	L 48 65
	L 49 65
	L 48 65
	L 48 66
	L 48 65
	L 48 64
	L 47 64
	L 48 64
	L 48 63
	L 47 63
	L 46 63
	L 46 64
	L 46 63
	L 45 63
	L 46 63
	L 47 63
	L 47 62
	L 47 63
	L 48 63
	L 49 63
	L 50 63
	L 50 62
	L 50 63
	L 51 63
	L 51 62
	L 51 61
	L 50 61
	L 51 61
	L 51 60
	L 51 61
	L 51 62
	L 52 62
	L 51 62
	L 51 63
	L 52 63
	L 53 63
	L 53 62
	L 53 63
	L 54 63
	L 54 62
	L 54 61
	L 53 61
	L 54 61
	L 54 60
	L 54 59
	L 54 58
	L 53 58
	L 54 58
	L 54 57
	L 53 57
	L 52 57
	L 52 58
	L 52 57
	L 51 57
	L 52 57
	L 53 57
	L 53 56
	L 53 57
	L 54 57
	L 54 56
	L 54 55
	L 53 55
	L 54 55
	L 54 54
	L 54 55
	L 54 56
	L 55 56
	L 54 56
	L 54 57
	L 54 58
	L 54 59
	L 55 59
	L 54 59
	L 54 60
	L 55 60
	L 56 60
	L 56 59
	L 56 60
	L 57 60
	L 56 60
	L 55 60
	L 55 61
	L 55 60
	L 54 60
	L 54 61
	L 54 62
	L 55 62
	L 54 62
	L 54 63
	L 54 64
	L 54 65
	L 55 65
	L 54 65
	L 54 66
	L 54 67
	L 54 68
	L 55 68
	L 54 68
	L 54 69
	L 55 69
	L 56 69
	L 56 68
	L 56 69
	L 57 69
	L 56 69
	L 55 69
	L 55 70
	L 55 69
	L 54 69
	L 54 70
	L 54 71
	L 55 71
	L 54 71
	L 54 72
	L 55 72
	L 56 72
	L 56 71
	L 56 72
	L 57 72
	L 58 72
	L 59 72
	L 59 71
	L 59 72
	L 60 72
	L 60 71
	L 60 70
	L 59 70
	L 60 70
	L 60 69
	L 60 70
	L 60 71
	L 61 71
	L 60 71
	L 60 72
	L 61 72
	L 62 72
	L 62 71
	L 62 72
	L 63 72
	L 62 72
	L 61 72
	L 61 73
	L 61 72
	L 60 72
	L 59 72
	L 58 72
	L 58 73
	L 58 72
	L 57 72
	L 57 73
	L 57 74
	L 58 74
	L 57 74
	L 57 75
	L 57 74
	L 57 73
	L 56 73
	L 57 73
	L 57 72
	L 56 72
	L 55 72
	L 55 73
	L 55 72
	L 54 72
	L 54 73
	L 54 74
	L 55 74
	L 54 74
	L 54 75
	L 54 76
	L 54 77
	L 55 77
	L 54 77
	L 54 78
	L 55 78
	L 56 78
	L 56 77
	L 56 78
	L 57 78
	L 56 78
	L 55 78
	L 55 79
	L 55 78
	L 54 78
	L 54 79
	L 54 80
	L 55 80
	L 54 80
	L 54 81
	L 55 81
	L 56 81
	L 56 80
	L 56 81
	L 57 81
	L 58 81
	L 59 81
	L 59 80
	L 59 81
	L 60 81
	L 60 80
	L 60 79
	L 59 79
	L 60 79
	L 60 78
	L 60 79
	L 60 80
	L 61 80
	L 60 80
	L 60 81
	L 61 81
	L 62 81
	L 62 80
	L 62 81
	L 63 81
	L 64 81
	L 65 81
	L 65 80
	L 65 81
	L 66 81
	L 67 81
	L 68 81
	L 68 80
	L 68 81
	L 69 81
	L 69 80
	L 69 79
	L 68 79
	L 69 79
	L 69 78
	L 69 79
	L 69 80
	L 70 80
	L 69 80
	L 69 81
	L 70 81
	L 71 81
	L 71 80
	L 71 81
	L 72 81
	L 72 80
	L 72 79
	L 71 79
	L 72 79
	L 72 78
	L 72 77
	L 72 76
	L 71 76
	L 72 76
	L 72 75
	L 71 75
	L 70 75
	L 70 76
	L 70 75
	L 69 75
	L 70 75
	L 71 75
	L 71 74
	L 71 75
	L 72 75
	L 72 74
	L 72 73
	L 71 73
	L 72 73
	L 72 72
	L 72 73
	L 72 74
	L 73 74
	L 72 74
	L 72 75
	L 72 76
	L 72 77
	L 73 77
	L 72 77
	L 72 78
	L 73 78
	L 74 78
	L 74 77
	L 74 78
	L 75 78
	L 74 78
	L 73 78
	L 73 79
	L 73 78
	L 72 78
	L 72 79
	L 72 80
	L 73 80
	L 72 80
	L 72 81
	L 73 81
	L 74 81
	L 74 80
	L 74 81
	L 75 81
	L 76 81
	L 77 81
	L 77 80
	L 77 81
	L 78 81
	L 78 80
	L 78 79
	L 77 79
	L 78 79
	L 78 78
	L 78 79
	L 78 80
	L 79 80
	L 78 80
	L 78 81
	L 79 81
	L 80 81
	L 80 80
	L 80 81
	L 81 81
	L 81 80
	L 81 79
	L 80 79
	L 81 79
	L 81 78
	L 81 77
	L 81 76
	L 80 76
	L 81 76
	L 81 75
	L 80 75
	L 79 75
	L 79 76
	L 79 75
	L 78 75
	L 79 75
	L 80 75
	L 80 74
	L 80 75
	L 81 75
	L 81 74
	L 81 73
	L 80 73
	L 81 73
	L 81 72
	L 81 71
	L 81 70
	L 80 70
	L 81 70
	L 81 69
	L 81 68
	L 81 67
	L 80 67
	L 81 67
	L 81 66
	L 80 66
	L 79 66
	L 79 67
	L 79 66
	L 78 66
	L 79 66
	L 80 66
	L 80 65
	L 80 66
	L 81 66
	L 81 65
	L 81 64
	L 80 64
	L 81 64
	L 81 63
	L 80 63
	L 79 63
	L 79 64
	L 79 63
	L 78 63
	L 77 63
	L 76 63
	L 76 64
	L 76 63
	L 75 63
	L 75 64
	L 75 65
	L 76 65
	L 75 65
	L 75 66
	L 75 65
	L 75 64
	L 74 64
	L 75 64
	L 75 63
	L 74 63
	L 73 63
	L 73 64
	L 73 63
	L 72 63
	L 73 63
	L 74 63
	L 74 62
	L 74 63
	L 75 63
	L 76 63
	L 77 63
	L 77 62
	L 77 63
	L 78 63
	L 78 62
	L 78 61
	L 77 61
	L 78 61
	L 78 60
	L 78 61
	L 78 62
	L 79 62
	L 78 62
	L 78 63
	L 79 63
	L 80 63
	L 80 62
	L 80 63
	L 81 63
	L 81 62
	L 81 61
	L 80 61
	L 81 61
	L 81 60
	L 81 59
	L 81 58
	L 80 58
	L 81 58
	L 81 57
	L 80 57
	L 79 57
	L 79 58
	L 79 57
	L 78 57
	L 79 57
	L 80 57
	L 80 56
	L 80 57
	L 81 57
	L 81 56
	L 81 55
	L 80 55
	L 81 55
	L 81 54
	L 81 53
	L 81 52
	L 80 52
	L 81 52
	L 81 51
	L 81 50
	L 81 49
	L 80 49
	L 81 49
	L 81 48
	L 80 48
	L 79 48
	L 79 49
	L 79 48
	L 78 48
	L 79 48
	L 80 48
	L 80 47
	L 80 48
	L 81 48
	L 81 47
	L 81 46
	L 80 46
	L 81 46
	L 81 45
	L 81 44
	L 81 43
	L 80 43
	L 81 43
	L 81 42
	L 81 41
	L 81 40
	L 80 40
	L 81 40
	L 81 39
	L 80 39
	L 79 39
	L 79 40
	L 79 39
	L 78 39
	L 79 39
	L 80 39
	L 80 38
	L 80 39
	L 81 39
	L 81 38
	L 81 37
	L 80 37
	L 81 37
	L 81 36
	L 80 36
	L 79 36
	L 79 37
	L 79 36
	L 78 36
	L 77 36
	L 76 36
	L 76 37
	L 76 36
	L 75 36
	L 75 37
	L 75 38
	L 76 38
	L 75 38
	L 75 39
	L 75 38
	L 75 37
	L 74 37
	L 75 37
	L 75 36
	L 74 36
	L 73 36
	L 73 37
	L 73 36
	L 72 36
	L 73 36
	L 74 36
	L 74 35
	L 74 36
	L 75 36
	L 76 36
	L 77 36
	L 77 35
	L 77 36
	L 78 36
	L 78 35
	L 78 34
	L 77 34
	L 78 34
	L 78 33
	L 78 34
	L 78 35
	L 79 35
	L 78 35
	L 78 36
	L 79 36
	L 80 36
	L 80 35
	L 80 36
	L 81 36
	L 81 35
	L 81 34
	L 80 34
	L 81 34
	L 81 33
	L 81 32
	L 81 31
	L 80 31
	L 81 31
	L 81 30
	L 80 30
	L 79 30
	L 79 31
	L 79 30
	L 78 30
	L 79 30
	L 80 30
	L 80 29
	L 80 30
	L 81 30
	L 81 29
	L 81 28
	L 80 28
	L 81 28
	L 81 27
	L 80 27
	L 79 27
	L 79 28
	L 79 27
	L 78 27
	L 77 27
	L 76 27
	L 76 28
	L 76 27
	L 75 27
	L 75 28
	L 75 29
	L 76 29
	L 75 29
	L 75 30
	L 75 29
	L 75 28
	L 74 28
	L 75 28
	L 75 27
	L 74 27
	L 73 27
	L 73 28
	L 73 27
	L 72 27
	L 71 27
	L 70 27
	L 70 28
	L 70 27
	L 69 27
	L 68 27
	L 67 27
	L 67 28
	L 67 27
	L 66 27
	L 66 28
	L 66 29
	L 67 29
	L 66 29
	L 66 30
	L 66 29
	L 66 28
	L 65 28
	L 66 28
	L 66 27
	L 65 27
	L 64 27
	L 64 28
	L 64 27
	L 63 27
	L 63 28
	L 63 29
	L 64 29
	L 63 29
	L 63 30
	L 63 31
	L 63 32
	L 64 32
	L 63 32
	L 63 33
	L 64 33
	L 65 33
	L 65 32
	L 65 33
	L 66 33
	L 65 33
	L 64 33
	L 64 34
	L 64 33
	L 63 33
	L 63 34
	L 63 35
	L 64 35
	L 63 35
	L 63 36
	L 63 35
	L 63 34
	L 62 34
	L 63 34
	L 63 33
	L 63 32
	L 63 31
	L 62 31
	L 63 31
	L 63 30
	L 62 30
	L 61 30
	L 61 31
	L 61 30
	L 60 30
	L 61 30
	L 62 30
	L 62 29
	L 62 30
	L 63 30
	L 63 29
	L 63 28
	L 62 28
	L 63 28
	L 63 27
	L 62 27
	L 61 27
	L 61 28
	L 61 27
	L 60 27
	L 59 27
	L 58 27
	L 58 28
	L 58 27
	L 57 27
	L 57 28
	L 57 29
	L 58 29
	L 57 29
	L 57 30
	L 57 29
	L 57 28
	L 56 28
	L 57 28
	L 57 27
	L 56 27
	L 55 27
	L 55 28
	L 55 27
	L 54 27
	L 55 27
	L 56 27
	L 56 26
	L 56 27
	L 57 27
	L 58 27
	L 59 27
	L 59 26
	L 59 27
	L 60 27
	L 60 26
	L 60 25
	L 59 25
	L 60 25
	L 60 24
	L 60 25
	L 60 26
	L 61 26
	L 60 26
	L 60 27
	L 61 27
	L 62 27
	L 62 26
	L 62 27
	L 63 27
	L 64 27
	L 65 27
	L 65 26
	L 65 27
	L 66 27
	L 67 27
	L 68 27
	L 68 26
	L 68 27
	L 69 27
	L 69 26
	L 69 25
	L 68 25
	L 69 25
	L 69 24
	L 69 25
	L 69 26
	L 70 26
	L 69 26
	L 69 27
	L 70 27
	L 71 27
	L 71 26
	L 71 27
	L 72 27
	L 72 26
	L 72 25
	L 71 25
	L 72 25
	L 72 24
	L 72 23
	L 72 22
	L 71 22
	L 72 22
	L 72 21
	L 71 21
	L 70 21
	L 70 22
	L 70 21
	L 69 21
	L 70 21
	L 71 21
	L 71 20
	L 71 21
	L 72 21
	L 72 20
	L 72 19
	L 71 19
	L 72 19
	L 72 18
	L 72 19
	L 72 20
	L 73 20
	L 72 20
	L 72 21
	L 72 22
	L 72 23
	L 73 23
	L 72 23
	L 72 24
	L 73 24
	L 74 24
	L 74 23
	L 74 24
	L 75 24
	L 74 24
	L 73 24
	L 73 25
	L 73 24
	L 72 24
	L 72 25
	L 72 26
	L 73 26
	L 72 26
	L 72 27
	L 73 27
	L 74 27
	L 74 26
	L 74 27
	L 75 27
	L 76 27
	L 77 27
	L 77 26
	L 77 27
	L 78 27
	L 78 26
	L 78 25
	L 77 25
	L 78 25
	L 78 24
	L 78 25
	L 78 26
	L 79 26
	L 78 26
	L 78 27
	L 79 27
	L 80 27
	L 80 26
	L 80 27
	L 81 27
	L 81 26
	L 81 25
	L 80 25
	L 81 25
	L 81 24
	L 81 23
	L 81 22
	L 80 22
	L 81 22
	L 81 21
	L 80 21
	L 79 21
	L 79 22
	L 79 21
	L 78 21
	L 79 21
	L 80 21
	L 80 20
	L 80 21
	L 81 21
	L 81 20
	L 81 19
	L 80 19
	L 81 19
	L 81 18
	L 81 17
	L 81 16
	L 80 16
	L 81 16
	L 81 15
	L 81 14
	L 81 13
	L 80 13
	L 81 13
	L 81 12
	L 80 12
	L 79 12
	L 79 13
	L 79 12
	L 78 12
	L 79 12
	L 80 12
	L 80 11
	L 80 12
	L 81 12
	L 81 11
	L 81 10
	L 80 10
	L 81 10
	L 81 9
	L 80 9
	L 79 9
	L 79 10
	L 79 9
	L 78 9
	L 77 9
	L 76 9
	L 76 10
	L 76 9
	L 75 9
	L 75 10
	L 75 11
	L 76 11
	L 75 11
	L 75 12
	L 75 11
	L 75 10
	L 74 10
	L 75 10
	L 75 9
	L 74 9
	L 73 9
	L 73 10
	L 73 9
	L 72 9
	L 73 9
	L 74 9
	L 74 8
	L 74 9
	L 75 9
	L 76 9
	L 77 9
	L 77 8
	L 77 9
	L 78 9
	L 78 8
	L 78 7
	L 77 7
	L 78 7
	L 78 6
	L 78 7
	L 78 8
	L 79 8
	L 78 8
	L 78 9
	L 79 9
	L 80 9
	L 80 8
	L 80 9
	L 81 9
	L 81 8
	L 81 7
	L 80 7
	L 81 7
	L 81 6
	L 81 5
	L 81 4
	L 80 4
	L 81 4
	L 81 3
	L 80 3
	L 79 3
	L 79 4
	L 79 3
	L 78 3
	L 79 3
	L 80 3
	L 80 2
	L 80 3
	L 81 3
	L 81 2
	L 81 1
	L 80 1
	L 81 1
	L 81 4.386e-12
	L 80 4.271e-12
	L 79 4.156e-12
	L 79 1
	L 79 4.156e-12
	L 78 4.041e-12
	L 77 3.926e-12
	L 76 3.811e-12
	L 76 1
	L 76 3.811e-12
	L 75 3.696e-12
	L 75 1
	L 75 2
	L 76 2
	L 75 2
	L 75 3
	L 75 2
	L 75 1
	L 74 1
	L 75 1
	L 75 3.696e-12
	L 74 3.58e-12
	L 73 3.464e-12
	L 73 1
	L 73 3.464e-12
	L 72 3.348e-12
	L 71 3.231e-12
	L 70 3.115e-12
	L 70 1
	L 70 3.115e-12
	L 69 2.999e-12
	L 68 2.882e-12
	L 67 2.765e-12
	L 67 1
	L 67 2.766e-12
	L 66 2.649e-12
	L 66 1
	L 66 2
	L 67 2
	L 66 2
	L 66 3
	L 66 2
	L 66 1
	L 65 1
	L 66 1
	L 66 2.649e-12
	L 65 2.531e-12
	L 64 2.414e-12
	L 64 1
	L 64 2.414e-12
	L 63 2.296e-12
	L 63 1
	L 63 2
	L 64 2
	L 63 2
	L 63 3
	L 63 4
	L 63 5
	L 64 5
	L 63 5
	L 63 6
	L 64 6
	L 65 6
	L 65 5
	L 65 6
	L 66 6
	L 65 6
	L 64 6
	L 64 7
	L 64 6
	L 63 6
	L 63 7
	L 63 8
	L 64 8
	L 63 8
	L 63 9
	L 63 8
	L 63 7
	L 62 7
	L 63 7
	L 63 6
	L 63 5
	L 63 4
	L 62 4
	L 63 4
	L 63 3
	L 62 3
	L 61 3
	L 61 4
	L 61 3
	L 60 3
	L 61 3
	L 62 3
	L 62 2
	L 62 3
	L 63 3
	L 63 2
	L 63 1
	L 62 1
	L 63 1
	L 63 2.294e-12
	L 62 2.173e-12
	L 61 2.052e-12
	L 61 1
	L 61 2.052e-12
	L 60 1.931e-12
	L 59 1.81e-12
	L 58 1.689e-12
	L 58 1
	L 58 1.689e-12
	L 57 1.567e-12
	L 57 1
	L 57 2
	L 58 2
	L 57 2
	L 57 3
	L 57 2
	L 57 1
	L 56 1
	L 57 1
	L 57 1.568e-12
	L 56 1.446e-12
	L 55 1.324e-12
	L 55 1
	L 55 1.324e-12
	L 54 1.201e-12
	L 53 1.079e-12
	L 52 9.564e-13
	L 52 1
	L 52 9.563e-13
	L 51 8.337e-13
	L 50 7.11e-13
	L 49 5.884e-13
	L 49 1
	L 49 5.884e-13
	L 48 4.655e-13
	L 48 1
	L 48 2
	L 49 2
	L 48 2
	L 48 3
	L 48 2
	L 48 1
	L 47 1
	L 48 1
	L 48 4.654e-13
	L 47 3.418e-13
	L 46 2.181e-13
	L 46 1
	L 46 2.18e-13
	L 45 9.417e-14
	L 44 -2.97e-14
	L 43 -1.536e-13
	L 43 1
	L 43 -1.535e-13
	L 42 -2.777e-13
	L 41 -4.018e-13
	L 40 -5.259e-13
	L 40 1
	L 40 -5.259e-13
	L 39 -6.503e-13
	L 39 1
	L 39 2
	L 40 2
	L 39 2
	L 39 3
	L 39 2
	L 39 1
	L 38 1
	L 39 1
	L 39 -6.5e-13
	L 38 -7.751e-13
	L 37 -9.002e-13
	L 37 1
	L 37 -9.003e-13
	L 36 -1.026e-12
	L 36 1
	L 36 2
	L 37 2
	L 36 2
	L 36 3
	L 36 4
	L 36 5
	L 37 5
	L 36 5
	L 36 6
	L 37 6
	L 38 6
	L 38 5
	L 38 6
	L 39 6
	L 38 6
	L 37 6
	L 37 7
	L 37 6
	L 36 6
	L 36 7
	L 36 8
	L 37 8
	L 36 8
	L 36 9
	L 36 8
	L 36 7
	L 35 7
	L 36 7
	L 36 6
	L 36 5
	L 36 4
	L 35 4
	L 36 4
	L 36 3
	L 35 3
	L 34 3
	L 34 4
	L 34 3
	L 33 3
	L 34 3
	L 35 3
	L 35 2
	L 35 3
	L 36 3
	L 36 2
	L 36 1
	L 35 1
	L 36 1
	L 36 -1.025e-12
	L 35 -1.154e-12
	L 34 -1.282e-12
	L 34 1
	L 34 -1.282e-12
	L 33 -1.411e-12
	L 32 -1.54e-12
	L 31 -1.669e-12
	L 31 1
	L 31 -1.669e-12
	L 30 -1.798e-12
	L 30 1
	L 30 2
	L 31 2
	L 30 2
	L 30 3
	L 30 2
	L 30 1
	L 29 1
	L 30 1
	L 30 -1.797e-12
	L 29 -1.927e-12
	L 28 -2.057e-12
	L 28 1
	L 28 -2.057e-12
	L 27 -2.187e-12
	L 27 1
	L 27 2
	L 28 2
	L 27 2
	L 27 3
	L 27 4
	L 27 5
	L 28 5
	L 27 5
	L 27 6
	L 28 6
	L 29 6
	L 29 5
	L 29 6
	L 30 6
	L 29 6
	L 28 6
	L 28 7
	L 28 6
	L 27 6
	L 27 7
	L 27 8
	L 28 8
	L 27 8
	L 27 9
	L 27 10
	L 27 11
	L 28 11
	L 27 11
	L 27 12
	L 27 13
	L 27 14
	L 28 14
	L 27 14
	L 27 15
	L 28 15
	L 29 15
	L 29 14
	L 29 15
	L 30 15
	L 29 15
	L 28 15
	L 28 16
	L 28 15
	L 27 15
	L 27 16
	L 27 17
	L 28 17
	L 27 17
	L 27 18
	L 28 18
	L 29 18
	L 29 17
	L 29 18
	L 30 18
	L 31 18
	L 32 18
	L 32 17
	L 32 18
	L 33 18
	L 33 17
	L 33 16
	L 32 16
	L 33 16
	L 33 15
	L 33 16
	L 33 17
	L 34 17
	L 33 17
	L 33 18
	L 34 18
	L 35 18
	L 35 17
	L 35 18
	L 36 18
	L 35 18
	L 34 18
	L 34 19
	L 34 18
	L 33 18
	L 32 18
	L 31 18
	L 31 19
	L 31 18
	L 30 18
	L 30 19
	L 30 20
	L 31 20
	L 30 20
	L 30 21
	L 30 20
	L 30 19
	L 29 19
	L 30 19
	L 30 18
	L 29 18
	L 28 18
	L 28 19
	L 28 18
	L 27 18
	L 27 19
	L 27 20
	L 28 20
	L 27 20
	L 27 21
	L 27 22
	L 27 23
	L 28 23
	L 27 23
	L 27 24
	L 28 24
	L 29 24
	L 29 23
	L 29 24
	L 30 24
	L 29 24
	L 28 24
	L 28 25
	L 28 24
	L 27 24
	L 27 25
	L 27 26
	L 28 26
	L 27 26
	L 27 27
	L 27 26
	L 27 25
	L 26 25
	L 27 25
	L 27 24
	L 27 23
	L 27 22
	L 26 22
	L 27 22
	L 27 21
	L 26 21
	L 25 21
	L 25 22
	L 25 21
	L 24 21
	L 25 21
	L 26 21
	L 26 20
	L 26 21
	L 27 21
	L 27 20
	L 27 19
	L 26 19
	L 27 19
	L 27 18
	L 27 17
	L 27 16
	L 26 16
	L 27 16
	L 27 15
	L 27 14
	L 27 13
	L 26 13
	L 27 13
	L 27 12
	L 26 12
	L 25 12
	L 25 13
	L 25 12
	L 24 12
	L 25 12
	L 26 12
	L 26 11
	L 26 12
	L 27 12
	L 27 11
	L 27 10
	L 26 10
	L 27 10
	L 27 9
	L 26 9
	L 25 9
	L 25 10
	L 25 9
	L 24 9
	L 23 9
	L 22 9
	L 22 10
	L 22 9
	L 21 9
	L 21 10
	L 21 11
	L 22 11
	L 21 11
	L 21 12
	L 21 11
	L 21 10
	L 20 10
	L 21 10
	L 21 9
	L 20 9
	L 19 9
	L 19 10
	L 19 9
	L 18 9
	L 19 9
	L 20 9
	L 20 8
	L 20 9
	L 21 9
	L 22 9
	L 23 9
	L 23 8
	L 23 9
	L 24 9
	L 24 8
	L 24 7
	L 23 7
	L 24 7
	L 24 6
	L 24 7
	L 24 8
	L 25 8
	L 24 8
	L 24 9
	L 25 9
	L 26 9
	L 26 8
	L 26 9
	L 27 9
	L 27 8
	L 27 7
	L 26 7
	L 27 7
	L 27 6
	L 27 5
	L 27 4
	L 26 4
	L 27 4
	L 27 3
	L 26 3
	L 25 3
	L 25 4
	L 25 3
	L 24 3
	L 25 3
	L 26 3
	L 26 2
	L 26 3
	L 27 3
	L 27 2
	L 27 1
	L 26 1
	L 27 1
	L 27 -2.196e-12
	L 26 -2.341e-12
	L 25 -2.487e-12
	L 25 1
	L 25 -2.487e-12
	L 24 -2.632e-12
	L 23 -2.778e-12
	L 22 -2.924e-12
	L 22 1
	L 22 -2.924e-12
	L 21 -3.07e-12
	L 21 1
	L 21 2
	L 22 2
	L 21 2
	L 21 3
	L 21 2
	L 21 1
	L 20 1
	L 21 1
	L 21 -3.069e-12
	L 20 -3.216e-12
	L 19 -3.363e-12
	L 19 1
	L 19 -3.363e-12
	L 18 -3.51e-12
	L 17 -3.657e-12
	L 16 -3.803e-12
	L 16 1
	L 16 -3.803e-12
	L 15 -3.951e-12
	L 14 -4.098e-12
	L 13 -4.245e-12
	L 13 1
	L 13 -4.245e-12
	L 12 -4.392e-12
	L 12 1
	L 12 2
	L 13 2
	L 12 2
	L 12 3
	L 12 2
	L 12 1
	L 11 1
	L 12 1
	L 12 -4.392e-12
	L 11 -4.54e-12
	L 10 -4.689e-12
	L 10 1
	L 10 -4.689e-12
	L 9 -4.837e-12
	L 9 1
	L 9 2
	L 10 2
	L 9 2
	L 9 3
	L 9 4
	L 9 5
	L 10 5
	L 9 5
	L 9 6
	L 10 6
	L 11 6
	L 11 5
	L 11 6
	L 12 6
	L 11 6
	L 10 6
	L 10 7
	L 10 6
	L 9 6
	L 9 7
	L 9 8
	L 10 8
	L 9 8
	L 9 9
	L 9 8
	L 9 7
	L 8 7
	L 9 7
	L 9 6
	L 9 5
	L 9 4
	L 8 4
	L 9 4
	L 9 3
	L 8 3
	L 7 3
	L 7 4
	L 7 3
	L 6 3
	L 7 3
	L 8 3
	L 8 2
	L 8 3
	L 9 3
	L 9 2
	L 9 1
	L 8 1
	L 9 1
	L 9 -4.838e-12
	L 8 -4.989e-12
	L 7 -5.141e-12
	L 7 1
	L 7 -5.141e-12
	L 6 -5.293e-12
	L 5 -5.444e-12
	L 4 -5.596e-12
	L 4 1
	L 4 -5.596e-12
	L 3 -5.748e-12
	L 3 1
	L 3 2
	L 4 2
	L 3 2
	L 3 3
	L 3 2
	L 3 1
	L 2 1
	L 3 1
	L 3 -5.748e-12
	L 2 -5.901e-12
	L 1 -6.054e-12
	L 1 1
	L 1 -6.054e-12
	L 6.301e-12 -6.207e-12
"/>
</svg>
