<svg version="1.1" baseProfile="full" xmlns="http://www.w3.org/2000/svg"
width="1024" height="380.8"
viewBox="-1 -71.72 218.1 81.13"
>
<rect x="-1" y="-71.72" width="100%" height="100%" fill="white" />
<path stroke="green" stroke-width="0.04" stroke-linecap="round" fill="none"
transform="scale(1 -1)"
d="	M 18.03 1.301
	L 17.72 2.252
	M 17.88 3.239
	L 17.17 3.946
	M 18.19 2.288
	L 17.88 3.239
	L 17.57 4.19
	M 18.35 3.276
	L 18.93 4.085
	M 18.19 5.215
	L 17.49 5.922
	M 17.18 6.873
	L 16.23 7.182
	M 17.88 6.166
	L 17.18 6.873
	L 16.47 7.58
	M 17.58 7.117
	L 16.87 7.824
	M 17.42 9.056
	L 17.11 10.01
	M 17.27 8.068
	L 17.42 9.056
	L 17.58 10.04
	M 16.96 9.019
	L 16.25 9.726
	M 18.5 4.264
	L 18.19 5.215
	L 17.88 6.166
	L 17.58 7.117
	L 17.27 8.068
	L 16.96 9.019
	L 16.65 9.97
	M 18.66 5.251
	L 18.35 6.202
	M 18.51 7.19
	L 17.8 7.897
	M 18.82 6.239
	L 18.51 7.19
	L 18.2 8.141
	M 18.97 7.227
	L 18.66 8.178
	M 19.13 8.214
	L 19.72 9.023
	M 19.87 10.01
	L 20.76 10.47
	M 20.62 11.81
	L 20.31 12.76
	M 20.77 12.8
	L 21.36 13.6
	M 20.46 10.82
	L 20.62 11.81
	L 20.77 12.8
	L 20.93 13.78
	M 21.05 11.63
	L 21.94 12.08
	M 22.53 12.89
	L 23.53 12.89
	M 21.64 12.44
	L 22.53 12.89
	L 23.42 13.35
	M 22.22 13.25
	L 23.11 13.7
	M 19.28 9.202
	L 19.87 10.01
	L 20.46 10.82
	L 21.05 11.63
	L 21.64 12.44
	L 22.22 13.25
	L 22.81 14.06
	M 19.44 10.19
	L 19.13 11.14
	M 19.6 11.18
	L 20.19 11.99
	M 20.34 12.97
	L 20.5 13.96
	M 20.93 13.78
	L 21.82 14.24
	M 19.75 12.17
	L 20.34 12.97
	L 20.93 13.78
	L 21.52 14.59
	M 19.91 13.15
	L 20.5 13.96
	M 19.76 15.09
	L 19.05 15.8
	M 18.74 16.75
	L 17.79 17.06
	M 18.03 17.46
	L 17.73 18.41
	M 19.45 16.04
	L 18.74 16.75
	L 18.03 17.46
	L 17.33 18.16
	M 19.14 16.99
	L 19.3 17.98
	M 18.12 18.65
	L 17.17 18.96
	M 16.47 19.67
	L 15.48 19.51
	M 17.42 19.36
	L 16.47 19.67
	L 15.51 19.98
	M 16.71 20.07
	L 15.76 20.38
	M 16 20.77
	L 15.69 21.72
	M 14.99 22.43
	L 14.28 23.14
	M 15.3 21.48
	L 14.99 22.43
	L 14.68 23.38
	M 14.59 22.19
	L 13.64 22.5
	M 18.83 17.94
	L 18.12 18.65
	L 17.42 19.36
	L 16.71 20.07
	L 16 20.77
	L 15.3 21.48
	L 14.59 22.19
	L 13.88 22.89
	M 18.52 18.9
	L 18.68 19.88
	M 18.37 20.83
	L 18.06 21.79
	M 18.53 21.82
	L 19.11 22.63
	M 18.21 19.85
	L 18.37 20.83
	L 18.53 21.82
	L 18.68 22.81
	M 17.9 20.8
	L 17.2 21.51
	M 17.59 21.75
	L 17.75 22.74
	M 17.44 23.69
	L 17.13 24.64
	M 17.29 25.63
	L 17.45 26.61
	M 17.6 24.68
	L 17.29 25.63
	L 16.98 26.58
	M 17.76 25.66
	L 17.45 26.61
	M 17.91 26.65
	L 18.5 27.46
	M 17.29 22.7
	L 17.44 23.69
	L 17.6 24.68
	L 17.76 25.66
	L 17.91 26.65
	L 18.07 27.64
	M 16.98 23.65
	L 17.13 24.64
	M 15.96 25.31
	L 15.65 26.26
	M 16.67 24.6
	L 15.96 25.31
	L 15.25 26.02
	M 16.36 25.55
	L 15.65 26.26
	M 16.05 26.5
	L 16.21 27.49
	M 20.07 14.14
	L 19.76 15.09
	L 19.45 16.04
	L 19.14 16.99
	L 18.83 17.94
	L 18.52 18.9
	L 18.21 19.85
	L 17.9 20.8
	L 17.59 21.75
	L 17.29 22.7
	L 16.98 23.65
	L 16.67 24.6
	L 16.36 25.55
	L 16.05 26.5
	L 15.74 27.46
	M 20.22 15.13
	L 19.91 16.08
	M 20.38 16.12
	L 20.97 16.92
	M 20.23 18.05
	L 19.52 18.76
	M 20.54 17.1
	L 20.23 18.05
	L 19.92 19.01
	M 20.69 18.09
	L 20.38 19.04
	M 20.54 20.03
	L 20.7 21.02
	M 19.52 21.69
	L 18.57 22
	M 20.23 20.98
	L 19.52 21.69
	L 18.82 22.4
	M 19.92 21.93
	L 19.21 22.64
	M 19.77 23.87
	L 19.46 24.82
	M 19.61 22.88
	L 19.77 23.87
	L 19.93 24.86
	M 19.3 23.83
	L 18.6 24.54
	M 19 24.79
	L 19.15 25.77
	M 20.85 19.08
	L 20.54 20.03
	L 20.23 20.98
	L 19.92 21.93
	L 19.61 22.88
	L 19.3 23.83
	L 19 24.79
	L 18.69 25.74
	M 21.01 20.07
	L 20.7 21.02
	M 21.16 21.05
	L 21.75 21.86
	M 21.01 22.99
	L 20.3 23.7
	M 21.32 22.04
	L 21.01 22.99
	L 20.7 23.94
	M 21.47 23.03
	L 21.17 23.98
	M 21.63 24.02
	L 22.22 24.83
	M 22.38 25.81
	L 22.53 26.8
	M 21.79 25.01
	L 22.38 25.81
	L 22.96 26.62
	M 21.94 25.99
	L 22.53 26.8
	M 22.69 27.79
	L 22.84 28.78
	M 24.17 29.05
	L 24.75 29.86
	M 23.28 28.6
	L 24.17 29.05
	L 25.06 29.51
	M 23.86 29.41
	L 24.02 30.4
	M 24.61 31.2
	L 24.3 32.16
	M 24.46 33.14
	L 23.75 33.85
	M 24.15 34.09
	L 24.3 35.08
	M 24.76 32.19
	L 24.46 33.14
	L 24.15 34.09
	L 23.84 35.05
	M 24.92 33.18
	L 24.61 34.13
	M 25.08 34.17
	L 25.67 34.98
	M 25.82 35.96
	L 26.71 36.42
	M 25.23 35.15
	L 25.82 35.96
	L 26.41 36.77
	M 25.39 36.14
	L 25.08 37.09
	M 25.55 37.13
	L 26.13 37.94
	M 24.45 30.22
	L 24.61 31.2
	L 24.76 32.19
	L 24.92 33.18
	L 25.08 34.17
	L 25.23 35.15
	L 25.39 36.14
	L 25.55 37.13
	L 25.7 38.12
	M 25.04 31.03
	L 25.2 32.01
	M 25.63 31.83
	L 26.52 32.29
	M 27.11 33.1
	L 27.69 33.91
	M 28 33.55
	L 29 33.55
	M 26.22 32.64
	L 27.11 33.1
	L 28 33.55
	L 28.89 34.01
	M 26.8 33.45
	L 27.69 33.91
	M 28.28 34.72
	L 28.87 35.52
	M 29.76 35.98
	L 29.92 36.97
	M 30.35 36.79
	L 31.24 37.24
	M 29.17 35.17
	L 29.76 35.98
	L 30.35 36.79
	L 30.94 37.6
	M 30.06 35.62
	L 30.65 36.43
	M 31.95 36.08
	L 32.85 36.53
	M 32.95 36.08
	L 33.85 35.62
	M 34.85 36.53
	L 35.43 37.34
	M 33.95 36.08
	L 34.85 36.53
	L 35.74 36.99
	M 34.95 36.08
	L 35.85 35.62
	M 36.85 35.62
	L 37.85 35.62
	M 35.95 36.08
	L 36.85 35.62
	L 37.74 35.17
	M 36.95 36.08
	L 37.85 36.53
	M 37.95 36.08
	L 38.85 35.62
	M 30.95 36.08
	L 31.95 36.08
	L 32.95 36.08
	L 33.95 36.08
	L 34.95 36.08
	L 35.95 36.08
	L 36.95 36.08
	L 37.95 36.08
	L 38.95 36.08
	M 31.85 36.53
	L 32.85 36.53
	M 33.32 37.79
	L 33.48 38.78
	M 32.74 36.99
	L 33.32 37.79
	L 33.91 38.6
	M 33.63 37.44
	L 34.63 37.44
	M 27.39 34.26
	L 28.28 34.72
	L 29.17 35.17
	L 30.06 35.62
	L 30.95 36.08
	L 31.85 36.53
	L 32.74 36.99
	L 33.63 37.44
	L 34.52 37.89
	M 27.98 35.07
	L 28.13 36.06
	M 29.46 36.33
	L 30.05 37.14
	M 28.57 35.88
	L 29.46 36.33
	L 30.35 36.79
	M 29.15 36.69
	L 29.31 37.68
	M 30.63 37.95
	L 31.22 38.76
	M 32.11 39.21
	L 33 39.67
	M 31.52 38.41
	L 32.11 39.21
	L 32.7 40.02
	M 32.41 38.86
	L 33 39.67
	M 34.31 39.31
	L 35.2 39.77
	M 35.31 39.31
	L 36.2 38.86
	M 33.31 39.31
	L 34.31 39.31
	L 35.31 39.31
	L 36.31 39.31
	M 34.2 39.77
	L 34.78 40.58
	M 35.09 40.22
	L 36.09 40.22
	M 29.74 37.5
	L 30.63 37.95
	L 31.52 38.41
	L 32.41 38.86
	L 33.31 39.31
	L 34.2 39.77
	L 35.09 40.22
	L 35.98 40.68
	M 30.33 38.31
	L 31.22 38.76
	M 31.81 39.57
	L 32.4 40.38
	M 32.7 40.02
	L 33.7 40.02
	M 30.92 39.12
	L 31.81 39.57
	L 32.7 40.02
	L 33.59 40.48
	M 31.51 39.92
	L 31.66 40.91
	M 32.09 40.73
	L 32.98 41.19
	M 22.1 26.98
	L 22.69 27.79
	L 23.28 28.6
	L 23.86 29.41
	L 24.45 30.22
	L 25.04 31.03
	L 25.63 31.83
	L 26.22 32.64
	L 26.8 33.45
	L 27.39 34.26
	L 27.98 35.07
	L 28.57 35.88
	L 29.15 36.69
	L 29.74 37.5
	L 30.33 38.31
	L 30.92 39.12
	L 31.51 39.92
	L 32.09 40.73
	L 32.68 41.54
	M 22.26 27.97
	L 22.84 28.78
	M 22.1 29.91
	L 21.4 30.61
	M 21.8 30.86
	L 21.95 31.85
	M 22.41 28.96
	L 22.1 29.91
	L 21.8 30.86
	L 21.49 31.81
	M 22.57 29.94
	L 22.26 30.89
	M 23.31 31.74
	L 23.47 32.73
	M 23.9 32.55
	L 24.79 33
	M 22.73 30.93
	L 23.31 31.74
	L 23.9 32.55
	L 24.49 33.36
	M 22.88 31.92
	L 22.57 32.87
	M 23.04 32.91
	L 23.63 33.72
	M 22.89 34.85
	L 22.18 35.55
	M 21.87 36.5
	L 21.56 37.45
	M 22.58 35.8
	L 21.87 36.5
	L 21.16 37.21
	M 22.27 36.75
	L 22.43 37.74
	M 22.12 38.69
	L 22.7 39.5
	M 21.96 37.7
	L 22.12 38.69
	L 22.27 39.67
	M 21.65 38.65
	L 20.94 39.36
	M 23.2 33.89
	L 22.89 34.85
	L 22.58 35.8
	L 22.27 36.75
	L 21.96 37.7
	L 21.65 38.65
	L 21.34 39.6
	M 23.35 34.88
	L 23.04 35.83
	M 23.51 35.87
	L 24.1 36.68
	M 23.36 37.81
	L 22.65 38.52
	M 23.66 36.86
	L 23.36 37.81
	L 23.05 38.76
	M 23.82 37.85
	L 23.51 38.8
	M 23.98 38.83
	L 24.57 39.64
	M 24.72 40.63
	L 25.61 41.08
	M 24.13 39.82
	L 24.72 40.63
	L 25.31 41.44
	M 24.29 40.81
	L 23.98 41.76
	M 24.45 41.8
	L 25.03 42.6
	M 25.19 43.59
	L 25.35 44.58
	M 25.94 45.39
	L 25.63 46.34
	M 26.09 46.38
	L 26.68 47.19
	M 25.78 44.4
	L 25.94 45.39
	L 26.09 46.38
	L 26.25 47.36
	M 26.37 45.21
	L 26.52 46.2
	M 27.85 46.47
	L 28.85 46.47
	M 26.95 46.02
	L 27.85 46.47
	L 28.74 46.93
	M 27.54 46.83
	L 27.7 47.82
	M 28.13 47.64
	L 29.02 48.09
	M 29.61 48.9
	L 30.2 49.71
	M 30.5 49.35
	L 31.5 49.35
	M 31.98 50.62
	L 32.14 51.61
	M 32.57 51.43
	L 33.46 51.88
	M 31.39 49.81
	L 31.98 50.62
	L 32.57 51.43
	L 33.15 52.24
	M 32.28 50.26
	L 32.87 51.07
	M 33.17 50.72
	L 34.17 50.72
	M 35.06 51.17
	L 35.96 51.62
	M 36.06 51.17
	L 36.96 50.72
	M 34.06 51.17
	L 35.06 51.17
	L 36.06 51.17
	L 37.06 51.17
	M 34.96 51.62
	L 35.96 51.62
	M 28.72 48.45
	L 29.61 48.9
	L 30.5 49.35
	L 31.39 49.81
	L 32.28 50.26
	L 33.17 50.72
	L 34.06 51.17
	L 34.96 51.62
	L 35.85 52.08
	M 29.31 49.26
	L 29.46 50.24
	M 30.05 51.05
	L 29.74 52
	M 29.89 50.06
	L 30.05 51.05
	L 30.21 52.04
	M 30.48 50.87
	L 31.37 51.33
	M 24.6 42.78
	L 25.19 43.59
	L 25.78 44.4
	L 26.37 45.21
	L 26.95 46.02
	L 27.54 46.83
	L 28.13 47.64
	L 28.72 48.45
	L 29.31 49.26
	L 29.89 50.06
	L 30.48 50.87
	L 31.07 51.68
	M 24.76 43.77
	L 24.45 44.72
	M 24.61 45.71
	L 23.9 46.42
	M 24.92 44.76
	L 24.61 45.71
	L 24.3 46.66
	M 25.07 45.75
	L 24.76 46.7
	M 24.92 47.69
	L 24.21 48.39
	M 24.77 49.62
	L 24.46 50.58
	M 24.92 50.61
	L 25.51 51.42
	M 24.61 48.64
	L 24.77 49.62
	L 24.92 50.61
	L 25.08 51.6
	M 24.3 49.59
	L 23.6 50.29
	M 25.23 46.73
	L 24.92 47.69
	L 24.61 48.64
	L 24.3 49.59
	L 23.99 50.54
	M 25.39 47.72
	L 25.08 48.67
	M 25.54 48.71
	L 26.13 49.52
	M 25.39 50.65
	L 24.68 51.36
	M 25.08 51.6
	L 25.24 52.59
	M 25.7 49.7
	L 25.39 50.65
	L 25.08 51.6
	L 24.77 52.55
	M 25.86 50.68
	L 25.55 51.64
	M 26.6 52.48
	L 26.76 53.47
	M 27.19 53.29
	L 28.08 53.74
	M 26.01 51.67
	L 26.6 52.48
	L 27.19 53.29
	L 27.77 54.1
	M 26.17 52.66
	L 25.86 53.61
	M 26.32 53.65
	L 26.91 54.46
	M 17.88 0.3129
	L 18.03 1.301
	L 18.19 2.288
	L 18.35 3.276
	L 18.5 4.264
	L 18.66 5.251
	L 18.82 6.239
	L 18.97 7.227
	L 19.13 8.214
	L 19.28 9.202
	L 19.44 10.19
	L 19.6 11.18
	L 19.75 12.17
	L 19.91 13.15
	L 20.07 14.14
	L 20.22 15.13
	L 20.38 16.12
	L 20.54 17.1
	L 20.69 18.09
	L 20.85 19.08
	L 21.01 20.07
	L 21.16 21.05
	L 21.32 22.04
	L 21.47 23.03
	L 21.63 24.02
	L 21.79 25.01
	L 21.94 25.99
	L 22.1 26.98
	L 22.26 27.97
	L 22.41 28.96
	L 22.57 29.94
	L 22.73 30.93
	L 22.88 31.92
	L 23.04 32.91
	L 23.2 33.89
	L 23.35 34.88
	L 23.51 35.87
	L 23.66 36.86
	L 23.82 37.85
	L 23.98 38.83
	L 24.13 39.82
	L 24.29 40.81
	L 24.45 41.8
	L 24.6 42.78
	L 24.76 43.77
	L 24.92 44.76
	L 25.07 45.75
	L 25.23 46.73
	L 25.39 47.72
	L 25.54 48.71
	L 25.7 49.7
	L 25.86 50.68
	L 26.01 51.67
	L 26.17 52.66
	L 26.32 53.65
	L 26.48 54.64
	M 45.84 0.04908
	L 46.42 0.8581
	M 45.68 1.988
	L 44.98 2.695
	M 45.37 2.939
	L 45.53 3.927
	M 45.99 1.037
	L 45.68 1.988
	L 45.37 2.939
	L 45.07 3.89
	M 46.15 2.024
	L 45.84 2.976
	M 46.89 3.821
	L 47.05 4.809
	M 47.48 4.63
	L 48.37 5.084
	M 46.31 3.012
	L 46.89 3.821
	L 47.48 4.63
	L 48.07 5.439
	M 46.46 4
	L 46.15 4.951
	M 46.62 4.988
	L 47.21 5.797
	M 47.36 6.784
	L 48.25 7.238
	M 48.84 8.047
	L 49.84 8.047
	M 47.95 7.593
	L 48.84 8.047
	L 49.73 8.501
	M 48.54 8.402
	L 48.69 9.39
	M 49.13 9.211
	L 50.02 9.665
	M 46.77 5.975
	L 47.36 6.784
	L 47.95 7.593
	L 48.54 8.402
	L 49.13 9.211
	L 49.71 10.02
	M 46.93 6.963
	L 47.52 7.772
	M 46.78 8.902
	L 46.07 9.609
	M 46.47 9.853
	L 46.63 10.84
	M 47.09 7.951
	L 46.78 8.902
	L 46.47 9.853
	L 46.16 10.8
	M 47.24 8.938
	L 46.94 9.889
	M 47.4 9.926
	L 47.99 10.73
	M 48.14 11.72
	L 48.3 12.71
	M 48.73 12.53
	L 49.62 12.99
	M 47.56 10.91
	L 48.14 11.72
	L 48.73 12.53
	L 49.32 13.34
	M 47.71 11.9
	L 48.3 12.71
	M 48.46 13.7
	L 48.61 14.69
	M 49.2 15.49
	L 48.89 16.45
	M 49.05 14.51
	L 49.2 15.49
	L 49.36 16.48
	M 49.63 15.32
	L 49.79 16.3
	M 50.38 17.11
	L 50.97 17.92
	M 51.12 18.91
	L 51.28 19.9
	M 51.71 19.72
	L 52.6 20.17
	M 50.53 18.1
	L 51.12 18.91
	L 51.71 19.72
	L 52.3 20.53
	M 50.69 19.09
	L 51.28 19.9
	M 50.22 16.13
	L 50.38 17.11
	L 50.53 18.1
	L 50.69 19.09
	L 50.85 20.08
	M 50.81 16.93
	L 50.97 17.92
	M 52.29 18.2
	L 52.88 19.01
	M 53.18 18.65
	L 54.18 18.65
	M 51.4 17.74
	L 52.29 18.2
	L 53.18 18.65
	L 54.07 19.11
	M 51.98 18.55
	L 52.88 19.01
	M 47.87 12.89
	L 48.46 13.7
	L 49.05 14.51
	L 49.63 15.32
	L 50.22 16.13
	L 50.81 16.93
	L 51.4 17.74
	L 51.98 18.55
	L 52.57 19.36
	M 48.03 13.88
	L 47.72 14.83
	M 47.87 15.82
	L 47.17 16.52
	M 48.18 14.86
	L 47.87 15.82
	L 47.56 16.77
	M 48.34 15.85
	L 48.03 16.8
	M 48.5 16.84
	L 49.08 17.65
	M 48.34 18.78
	L 48.5 19.77
	M 47.33 20.44
	L 47.02 21.39
	M 48.03 19.73
	L 47.33 20.44
	L 46.62 21.14
	M 47.73 20.68
	L 47.88 21.67
	M 48.65 17.83
	L 48.34 18.78
	L 48.03 19.73
	L 47.73 20.68
	L 47.42 21.63
	M 48.81 18.82
	L 48.5 19.77
	M 48.66 20.75
	L 47.95 21.46
	M 48.35 21.7
	L 48.5 22.69
	M 48.97 19.8
	L 48.66 20.75
	L 48.35 21.7
	L 48.04 22.66
	M 49.12 20.79
	L 48.81 21.74
	M 49.87 22.59
	L 50.02 23.57
	M 50.45 23.4
	L 51.34 23.85
	M 49.28 21.78
	L 49.87 22.59
	L 50.45 23.4
	L 51.04 24.21
	M 49.43 22.77
	L 50.02 23.57
	M 49.28 24.7
	L 48.57 25.41
	M 48.97 25.66
	L 49.13 26.64
	M 48.82 27.59
	L 48.51 28.55
	M 48.66 26.61
	L 48.82 27.59
	L 48.98 28.58
	M 48.35 27.56
	L 47.65 28.26
	M 48.05 28.51
	L 48.2 29.5
	M 47.89 30.45
	L 47.58 31.4
	M 47.74 32.39
	L 47.03 33.09
	M 48.05 31.44
	L 47.74 32.39
	L 47.43 33.34
	M 48.21 32.42
	L 48.79 33.23
	M 48.95 34.22
	L 49.84 34.67
	M 48.36 33.41
	L 48.95 34.22
	L 49.54 35.03
	M 48.52 34.4
	L 48.21 35.35
	M 48.68 35.39
	L 49.26 36.2
	M 47.74 29.46
	L 47.89 30.45
	L 48.05 31.44
	L 48.21 32.42
	L 48.36 33.41
	L 48.52 34.4
	L 48.68 35.39
	L 48.83 36.37
	M 47.43 30.41
	L 46.72 31.12
	M 46.41 32.07
	L 45.46 32.38
	M 47.12 31.36
	L 46.41 32.07
	L 45.7 32.78
	M 46.81 32.31
	L 46.1 33.02
	M 46.66 34.25
	L 46.35 35.2
	M 46.81 35.24
	L 47.4 36.05
	M 46.5 33.26
	L 46.66 34.25
	L 46.81 35.24
	L 46.97 36.23
	M 46.19 34.22
	L 46.35 35.2
	M 45.18 35.87
	L 44.22 36.18
	M 43.52 36.89
	L 42.53 36.73
	M 42.57 37.2
	L 41.86 37.91
	M 44.47 36.58
	L 43.52 36.89
	L 42.57 37.2
	L 41.62 37.51
	M 43.76 37.29
	L 43.45 38.24
	M 42.75 38.95
	L 42.9 39.93
	M 43.05 37.99
	L 42.75 38.95
	L 42.44 39.9
	M 42.35 38.7
	L 41.4 39.01
	M 41.64 39.41
	L 41.33 40.36
	M 40.62 41.07
	L 39.92 41.77
	M 40.31 42.02
	L 40.47 43.01
	M 39.3 43.68
	L 38.35 43.99
	M 40.01 42.97
	L 39.3 43.68
	L 38.59 44.38
	M 39.7 43.92
	L 38.99 44.63
	M 40.93 40.12
	L 40.62 41.07
	L 40.31 42.02
	L 40.01 42.97
	L 39.7 43.92
	L 39.39 44.87
	M 40.23 40.82
	L 39.27 41.13
	M 39.52 41.53
	L 39.21 42.48
	M 38.5 43.19
	L 37.8 43.9
	M 38.19 44.14
	L 38.35 45.13
	M 38.81 42.24
	L 38.5 43.19
	L 38.19 44.14
	L 37.88 45.09
	M 38.1 42.94
	L 37.15 43.25
	M 37.4 43.65
	L 37.09 44.6
	M 45.88 35.17
	L 45.18 35.87
	L 44.47 36.58
	L 43.76 37.29
	L 43.05 37.99
	L 42.35 38.7
	L 41.64 39.41
	L 40.93 40.12
	L 40.23 40.82
	L 39.52 41.53
	L 38.81 42.24
	L 38.1 42.94
	L 37.4 43.65
	L 36.69 44.36
	M 45.57 36.12
	L 44.87 36.82
	M 45.42 38.06
	L 45.11 39.01
	M 45.26 37.07
	L 45.42 38.06
	L 45.58 39.04
	M 44.96 38.02
	L 44.25 38.73
	M 44.8 39.96
	L 44.49 40.91
	M 44.65 41.9
	L 43.94 42.6
	M 44.34 42.85
	L 44.5 43.84
	M 44.96 40.95
	L 44.65 41.9
	L 44.34 42.85
	L 44.03 43.8
	M 45.12 41.93
	L 44.81 42.88
	M 44.65 38.97
	L 44.8 39.96
	L 44.96 40.95
	L 45.12 41.93
	L 45.27 42.92
	M 44.34 39.92
	L 43.63 40.63
	M 44.03 40.87
	L 44.18 41.86
	M 43.88 42.81
	L 43.57 43.76
	M 44.03 43.8
	L 44.62 44.61
	M 43.72 41.82
	L 43.88 42.81
	L 44.03 43.8
	L 44.19 44.79
	M 43.41 42.77
	L 43.57 43.76
	M 49.59 23.75
	L 49.28 24.7
	L 48.97 25.66
	L 48.66 26.61
	L 48.35 27.56
	L 48.05 28.51
	L 47.74 29.46
	L 47.43 30.41
	L 47.12 31.36
	L 46.81 32.31
	L 46.5 33.26
	L 46.19 34.22
	L 45.88 35.17
	L 45.57 36.12
	L 45.26 37.07
	L 44.96 38.02
	L 44.65 38.97
	L 44.34 39.92
	L 44.03 40.87
	L 43.72 41.82
	L 43.41 42.77
	L 43.1 43.73
	M 49.75 24.74
	L 50.33 25.55
	M 49.59 26.68
	L 48.89 27.39
	M 49.9 25.73
	L 49.59 26.68
	L 49.29 27.63
	M 50.06 26.72
	L 49.75 27.67
	M 50.22 27.7
	L 50.8 28.51
	M 50.96 29.5
	L 51.85 29.96
	M 50.37 28.69
	L 50.96 29.5
	L 51.55 30.31
	M 50.53 29.68
	L 50.22 30.63
	M 50.69 30.67
	L 51.27 31.48
	M 50.53 32.61
	L 49.83 33.31
	M 50.22 33.56
	L 50.38 34.54
	M 49.21 35.22
	L 48.26 35.52
	M 49.92 34.51
	L 49.21 35.22
	L 48.5 35.92
	M 49.61 35.46
	L 48.9 36.17
	M 49.45 37.4
	L 49.14 38.35
	M 49.61 38.39
	L 50.2 39.19
	M 49.3 36.41
	L 49.45 37.4
	L 49.61 38.39
	L 49.77 39.37
	M 48.99 37.36
	L 49.14 38.35
	M 50.84 31.66
	L 50.53 32.61
	L 50.22 33.56
	L 49.92 34.51
	L 49.61 35.46
	L 49.3 36.41
	L 48.99 37.36
	L 48.68 38.31
	M 51 32.64
	L 50.69 33.59
	M 51.16 33.63
	L 51.74 34.44
	M 51 35.57
	L 51.16 36.56
	M 51.31 34.62
	L 51 35.57
	L 50.69 36.52
	M 51.47 35.61
	L 51.16 36.56
	M 52.21 37.4
	L 53.1 37.86
	M 52.96 39.2
	L 52.65 40.15
	M 53.11 40.19
	L 53.7 41
	M 52.8 38.21
	L 52.96 39.2
	L 53.11 40.19
	L 53.27 41.17
	M 53.39 39.02
	L 53.54 40.01
	M 53.98 39.83
	L 54.87 40.28
	M 55.45 41.09
	L 56.04 41.9
	M 56.35 41.55
	L 57.35 41.55
	M 54.56 40.64
	L 55.45 41.09
	L 56.35 41.55
	L 57.24 42
	M 55.15 41.45
	L 55.31 42.44
	M 51.62 36.59
	L 52.21 37.4
	L 52.8 38.21
	L 53.39 39.02
	L 53.98 39.83
	L 54.56 40.64
	L 55.15 41.45
	L 55.74 42.26
	M 51.78 37.58
	L 52.37 38.39
	M 52.53 39.38
	L 52.68 40.37
	M 51.94 38.57
	L 52.53 39.38
	L 53.11 40.19
	M 52.09 39.56
	L 51.78 40.51
	M 52.84 41.35
	L 52.99 42.34
	M 53.43 42.16
	L 54.32 42.62
	M 54.9 43.43
	L 55.49 44.23
	M 54.01 42.97
	L 54.9 43.43
	L 55.8 43.88
	M 54.6 43.78
	L 54.76 44.77
	M 55.19 44.59
	L 56.08 45.04
	M 55.93 46.39
	L 55.62 47.34
	M 55.78 48.32
	L 55.07 49.03
	M 55.47 49.28
	L 55.63 50.26
	M 56.09 47.37
	L 55.78 48.32
	L 55.47 49.28
	L 55.16 50.23
	M 56.25 48.36
	L 55.94 49.31
	M 56.4 49.35
	L 56.99 50.16
	M 57.15 51.15
	L 57.3 52.13
	M 57.73 51.95
	L 58.63 52.41
	M 56.56 50.34
	L 57.15 51.15
	L 57.73 51.95
	L 58.32 52.76
	M 56.72 51.32
	L 56.41 52.28
	M 56.87 52.31
	L 57.46 53.12
	M 55.78 45.4
	L 55.93 46.39
	L 56.09 47.37
	L 56.25 48.36
	L 56.4 49.35
	L 56.56 50.34
	L 56.72 51.32
	L 56.87 52.31
	L 57.03 53.3
	M 56.36 46.21
	L 56.52 47.2
	M 56.95 47.02
	L 57.84 47.47
	M 57.7 48.81
	L 57.39 49.76
	M 57.85 49.8
	L 58.44 50.61
	M 57.54 47.83
	L 57.7 48.81
	L 57.85 49.8
	L 58.01 50.79
	M 58.13 48.63
	L 59.02 49.09
	M 52.25 40.54
	L 52.84 41.35
	L 53.43 42.16
	L 54.01 42.97
	L 54.6 43.78
	L 55.19 44.59
	L 55.78 45.4
	L 56.36 46.21
	L 56.95 47.02
	L 57.54 47.83
	L 58.13 48.63
	L 58.72 49.44
	M 52.41 41.53
	L 52.1 42.48
	M 52.25 43.47
	L 52.41 44.46
	M 52.56 42.52
	L 52.25 43.47
	L 51.94 44.42
	M 52.72 43.51
	L 53.31 44.32
	M 53.46 45.3
	L 54.35 45.76
	M 52.88 44.5
	L 53.46 45.3
	L 54.05 46.11
	M 53.03 45.48
	L 53.62 46.29
	M 52.88 47.42
	L 52.17 48.13
	M 51.86 49.08
	L 50.91 49.39
	M 52.57 48.37
	L 51.86 49.08
	L 51.16 49.79
	M 52.26 49.32
	L 52.42 50.31
	M 53.19 46.47
	L 52.88 47.42
	L 52.57 48.37
	L 52.26 49.32
	L 51.95 50.27
	M 53.35 47.46
	L 53.93 48.27
	M 53.19 49.4
	L 52.49 50.1
	M 53.5 48.45
	L 53.19 49.4
	L 52.88 50.35
	M 53.66 49.43
	L 53.35 50.38
	M 53.81 50.42
	L 54.4 51.23
	M 54.56 52.22
	L 55.45 52.67
	M 53.97 51.41
	L 54.56 52.22
	L 55.15 53.03
	M 54.13 52.4
	L 54.72 53.21
	M 54.87 54.19
	L 55.03 55.18
	M 56.35 55.46
	L 56.94 56.27
	M 55.46 55
	L 56.35 55.46
	L 57.24 55.91
	M 56.05 55.81
	L 56.2 56.8
	M 56.63 56.62
	L 57.53 57.07
	M 54.28 53.38
	L 54.87 54.19
	L 55.46 55
	L 56.05 55.81
	L 56.63 56.62
	L 57.22 57.43
	M 54.44 54.37
	L 54.13 55.32
	M 54.6 55.36
	L 55.18 56.17
	M 55.34 57.16
	L 55.5 58.14
	M 55.93 57.97
	L 56.82 58.42
	M 54.75 56.35
	L 55.34 57.16
	L 55.93 57.97
	L 56.52 58.77
	M 54.91 57.34
	L 55.5 58.14
	M 45.68 -0.9386
	L 45.84 0.04908
	L 45.99 1.037
	L 46.15 2.024
	L 46.31 3.012
	L 46.46 4
	L 46.62 4.988
	L 46.77 5.975
	L 46.93 6.963
	L 47.09 7.951
	L 47.24 8.938
	L 47.4 9.926
	L 47.56 10.91
	L 47.71 11.9
	L 47.87 12.89
	L 48.03 13.88
	L 48.18 14.86
	L 48.34 15.85
	L 48.5 16.84
	L 48.65 17.83
	L 48.81 18.82
	L 48.97 19.8
	L 49.12 20.79
	L 49.28 21.78
	L 49.43 22.77
	L 49.59 23.75
	L 49.75 24.74
	L 49.9 25.73
	L 50.06 26.72
	L 50.22 27.7
	L 50.37 28.69
	L 50.53 29.68
	L 50.69 30.67
	L 50.84 31.66
	L 51 32.64
	L 51.16 33.63
	L 51.31 34.62
	L 51.47 35.61
	L 51.62 36.59
	L 51.78 37.58
	L 51.94 38.57
	L 52.09 39.56
	L 52.25 40.54
	L 52.41 41.53
	L 52.56 42.52
	L 52.72 43.51
	L 52.88 44.5
	L 53.03 45.48
	L 53.19 46.47
	L 53.35 47.46
	L 53.5 48.45
	L 53.66 49.43
	L 53.81 50.42
	L 53.97 51.41
	L 54.13 52.4
	L 54.28 53.38
	L 54.44 54.37
	L 54.6 55.36
	L 54.75 56.35
	L 54.91 57.34
	L 55.07 58.32
	M 92.68 2.485
	L 91.98 3.192
	M 92.53 4.423
	L 92.22 5.374
	M 92.37 3.436
	L 92.53 4.423
	L 92.69 5.411
	M 92.07 4.387
	L 91.36 5.094
	M 91.76 5.338
	L 91.91 6.325
	M 90.74 6.996
	L 90.43 7.947
	M 89.72 8.654
	L 89.88 9.642
	M 90.03 7.703
	L 89.72 8.654
	L 89.42 9.605
	M 89.33 8.41
	L 89.02 9.361
	M 91.45 6.289
	L 90.74 6.996
	L 90.03 7.703
	L 89.33 8.41
	L 88.62 9.117
	M 91.14 7.24
	L 90.43 7.947
	M 90.99 9.179
	L 91.57 9.988
	M 90.83 8.191
	L 90.99 9.179
	L 91.14 10.17
	M 90.52 9.142
	L 89.81 9.849
	M 89.5 10.8
	L 88.55 11.11
	M 87.85 11.82
	L 86.86 11.66
	M 88.8 11.51
	L 87.85 11.82
	L 86.9 12.13
	M 88.09 12.21
	L 87.14 12.52
	M 87.07 13.87
	L 86.37 14.58
	M 87.38 12.92
	L 87.07 13.87
	L 86.77 14.82
	M 86.68 13.63
	L 85.73 13.94
	M 85.66 15.29
	L 84.95 15.99
	M 84.64 16.94
	L 83.69 17.25
	M 83.94 17.65
	L 83.63 18.6
	M 85.35 16.24
	L 84.64 16.94
	L 83.94 17.65
	L 83.23 18.36
	M 85.04 17.19
	L 85.2 18.18
	M 85.97 14.34
	L 85.66 15.29
	L 85.35 16.24
	L 85.04 17.19
	L 84.73 18.14
	M 85.26 15.04
	L 84.31 15.35
	M 83.6 16.06
	L 82.62 15.9
	M 84.55 15.75
	L 83.6 16.06
	L 82.65 16.37
	M 83.85 16.46
	L 82.9 16.77
	M 83.14 17.16
	L 82.83 18.12
	M 82.12 18.82
	L 81.42 19.53
	M 81.82 19.77
	L 81.97 20.76
	M 82.43 17.87
	L 82.12 18.82
	L 81.82 19.77
	L 81.51 20.72
	M 81.73 18.58
	L 80.78 18.89
	M 81.02 19.29
	L 80.71 20.24
	M 90.21 10.09
	L 89.5 10.8
	L 88.8 11.51
	L 88.09 12.21
	L 87.38 12.92
	L 86.68 13.63
	L 85.97 14.34
	L 85.26 15.04
	L 84.55 15.75
	L 83.85 16.46
	L 83.14 17.16
	L 82.43 17.87
	L 81.73 18.58
	L 81.02 19.29
	L 80.31 19.99
	M 89.9 11.04
	L 89.2 11.75
	M 89.59 12
	L 89.75 12.98
	M 89.44 13.93
	L 90.03 14.74
	M 89.28 12.95
	L 89.44 13.93
	L 89.6 14.92
	M 88.98 13.9
	L 88.27 14.6
	M 88.67 14.85
	L 88.82 15.84
	M 88.51 16.79
	L 89.1 17.6
	M 88.36 18.73
	L 87.65 19.43
	M 88.05 19.68
	L 88.21 20.66
	M 88.67 17.77
	L 88.36 18.73
	L 88.05 19.68
	L 87.74 20.63
	M 88.83 18.76
	L 89.41 19.57
	M 88.36 15.8
	L 88.51 16.79
	L 88.67 17.77
	L 88.83 18.76
	L 88.98 19.75
	M 88.05 16.75
	L 88.21 17.74
	M 87.03 18.41
	L 86.72 19.36
	M 87.74 17.7
	L 87.03 18.41
	L 86.33 19.12
	M 87.43 18.65
	L 86.72 19.36
	M 87.28 20.59
	L 86.97 21.54
	M 88.02 22.39
	L 88.18 23.38
	M 87.43 21.58
	L 88.02 22.39
	L 88.61 23.2
	M 87.59 22.57
	L 87.28 23.52
	M 88.34 24.36
	L 88.49 25.35
	M 88.92 25.17
	L 89.81 25.63
	M 90.4 26.44
	L 90.99 27.24
	M 91.29 26.89
	L 92.29 26.89
	M 89.51 25.98
	L 90.4 26.44
	L 91.29 26.89
	L 92.18 27.34
	M 90.1 26.79
	L 90.25 27.78
	M 87.75 23.55
	L 88.34 24.36
	L 88.92 25.17
	L 89.51 25.98
	L 90.1 26.79
	L 90.69 27.6
	M 87.9 24.54
	L 87.59 25.49
	M 88.65 26.34
	L 89.54 26.79
	M 88.06 25.53
	L 88.65 26.34
	L 89.24 27.15
	M 88.22 26.52
	L 87.91 27.47
	M 88.37 27.51
	L 88.96 28.31
	M 87.12 19.6
	L 87.28 20.59
	L 87.43 21.58
	L 87.59 22.57
	L 87.75 23.55
	L 87.9 24.54
	L 88.06 25.53
	L 88.22 26.52
	L 88.37 27.51
	L 88.53 28.49
	M 86.81 20.55
	L 86.11 21.26
	M 86.5 21.51
	L 86.66 22.49
	M 86.35 23.44
	L 86.04 24.4
	M 86.19 22.46
	L 86.35 23.44
	L 86.51 24.43
	M 85.89 23.41
	L 85.18 24.11
	M 85.73 25.35
	L 85.42 26.3
	M 85.58 27.29
	L 84.87 27.99
	M 85.27 28.24
	L 85.43 29.22
	M 85.89 26.33
	L 85.58 27.29
	L 85.27 28.24
	L 84.96 29.19
	M 86.05 27.32
	L 85.74 28.27
	M 86.2 28.31
	L 86.79 29.12
	M 85.58 24.36
	L 85.73 25.35
	L 85.89 26.33
	L 86.05 27.32
	L 86.2 28.31
	L 86.36 29.3
	M 85.27 25.31
	L 85.42 26.3
	M 84.25 26.97
	L 83.94 27.92
	M 84.96 26.26
	L 84.25 26.97
	L 83.54 27.68
	M 84.65 27.21
	L 83.94 27.92
	M 84.5 29.15
	L 85.08 29.96
	M 84.34 28.16
	L 84.5 29.15
	L 84.65 30.14
	M 84.03 29.11
	L 83.32 29.82
	M 83.72 30.07
	L 83.88 31.05
	M 82.71 31.72
	L 81.76 32.03
	M 82 32.43
	L 81.69 33.38
	M 80.34 33.45
	L 79.35 33.29
	M 81.29 33.14
	L 80.34 33.45
	L 79.39 33.76
	M 80.58 33.84
	L 79.63 34.15
	M 79.57 35.5
	L 78.86 36.21
	M 79.88 34.55
	L 79.57 35.5
	L 79.26 36.45
	M 79.17 35.26
	L 78.22 35.57
	M 78.15 36.92
	L 78.31 37.9
	M 77.14 38.58
	L 76.19 38.88
	M 77.85 37.87
	L 77.14 38.58
	L 76.43 39.28
	M 77.54 38.82
	L 77.69 39.81
	M 78.46 35.97
	L 78.15 36.92
	L 77.85 37.87
	L 77.54 38.82
	L 77.23 39.77
	M 77.76 36.67
	L 76.81 36.98
	M 77.05 37.38
	L 76.74 38.33
	M 76.03 39.04
	L 75.33 39.75
	M 76.34 38.09
	L 76.03 39.04
	L 75.72 39.99
	M 75.64 38.79
	L 75.33 39.75
	M 74.62 40.45
	L 73.91 41.16
	M 74.31 41.4
	L 74.47 42.39
	M 74.16 43.34
	L 74.75 44.15
	M 74 42.35
	L 74.16 43.34
	L 74.31 44.33
	M 73.69 43.31
	L 73.85 44.29
	M 72.68 44.96
	L 71.72 45.27
	M 71.66 46.62
	L 70.95 47.33
	M 71.97 45.67
	L 71.66 46.62
	L 71.35 47.57
	M 71.26 46.38
	L 70.31 46.69
	M 73.38 44.26
	L 72.68 44.96
	L 71.97 45.67
	L 71.26 46.38
	L 70.55 47.09
	M 73.07 45.21
	L 72.37 45.92
	M 72.76 46.16
	L 72.92 47.15
	M 71.75 47.82
	L 70.8 48.13
	M 72.46 47.11
	L 71.75 47.82
	L 71.04 48.52
	M 72.15 48.06
	L 71.44 48.77
	M 74.93 39.5
	L 74.62 40.45
	L 74.31 41.4
	L 74 42.35
	L 73.69 43.31
	L 73.38 44.26
	L 73.07 45.21
	L 72.76 46.16
	L 72.46 47.11
	L 72.15 48.06
	L 71.84 49.01
	M 74.22 40.21
	L 73.27 40.52
	M 72.56 41.22
	L 71.86 41.93
	M 73.51 40.92
	L 72.56 41.22
	L 71.61 41.53
	M 72.81 41.62
	L 72.5 42.57
	M 71.15 42.64
	L 70.16 42.48
	M 69.21 42.79
	L 68.4 42.2
	M 70.2 42.95
	L 69.21 42.79
	L 68.22 42.64
	M 69.25 43.26
	L 68.26 43.1
	M 68.3 43.57
	L 67.59 44.27
	M 66.64 44.58
	L 65.69 44.89
	M 67.34 43.88
	L 66.64 44.58
	L 65.93 45.29
	M 66.39 44.18
	L 65.41 44.03
	M 72.1 42.33
	L 71.15 42.64
	L 70.2 42.95
	L 69.25 43.26
	L 68.3 43.57
	L 67.34 43.88
	L 66.39 44.18
	L 65.44 44.49
	M 71.39 43.04
	L 71.08 43.99
	M 69.73 44.05
	L 69.03 44.76
	M 70.69 43.74
	L 69.73 44.05
	L 68.78 44.36
	M 69.98 44.45
	L 69.67 45.4
	M 83.41 31.02
	L 82.71 31.72
	L 82 32.43
	L 81.29 33.14
	L 80.58 33.84
	L 79.88 34.55
	L 79.17 35.26
	L 78.46 35.97
	L 77.76 36.67
	L 77.05 37.38
	L 76.34 38.09
	L 75.64 38.79
	L 74.93 39.5
	L 74.22 40.21
	L 73.51 40.92
	L 72.81 41.62
	L 72.1 42.33
	L 71.39 43.04
	L 70.69 43.74
	L 69.98 44.45
	L 69.27 45.16
	M 83.1 31.97
	L 82.4 32.67
	M 82.8 32.92
	L 82.95 33.91
	M 81.78 34.58
	L 80.83 34.89
	M 82.49 33.87
	L 81.78 34.58
	L 81.07 35.28
	M 82.18 34.82
	L 82.33 35.81
	M 82.02 36.76
	L 82.61 37.57
	M 81.87 35.77
	L 82.02 36.76
	L 82.18 37.75
	M 81.56 36.72
	L 80.85 37.43
	M 81.41 38.66
	L 81.1 39.61
	M 81.56 39.65
	L 82.15 40.46
	M 81.41 41.59
	L 80.7 42.29
	M 81.72 40.64
	L 81.41 41.59
	L 81.1 42.54
	M 81.88 41.62
	L 81.57 42.58
	M 82.03 42.61
	L 82.62 43.42
	M 81.25 37.67
	L 81.41 38.66
	L 81.56 39.65
	L 81.72 40.64
	L 81.88 41.62
	L 82.03 42.61
	L 82.19 43.6
	M 80.94 38.62
	L 80.23 39.33
	M 80.63 39.58
	L 80.79 40.56
	M 79.62 41.23
	L 79.31 42.19
	M 80.32 40.53
	L 79.62 41.23
	L 78.91 41.94
	M 80.01 41.48
	L 79.31 42.19
	M 79.71 42.43
	L 79.86 43.42
	M 79.55 44.37
	L 80.14 45.18
	M 79.4 43.38
	L 79.55 44.37
	L 79.71 45.36
	M 79.09 44.33
	L 78.38 45.04
	M 78.93 46.27
	L 79.52 47.08
	M 78.78 48.21
	L 78.07 48.92
	M 79.09 47.26
	L 78.78 48.21
	L 78.47 49.16
	M 79.25 48.25
	L 79.84 49.05
	M 79.99 50.04
	L 80.15 51.03
	M 80.58 50.85
	L 81.47 51.3
	M 79.4 49.23
	L 79.99 50.04
	L 80.58 50.85
	L 81.17 51.66
	M 79.56 50.22
	L 80.15 51.03
	M 79.41 52.16
	L 78.7 52.87
	M 78.39 53.82
	L 77.44 54.13
	M 77.68 54.52
	L 77.38 55.48
	M 79.1 53.11
	L 78.39 53.82
	L 77.68 54.52
	L 76.98 55.23
	M 78.79 54.06
	L 78.08 54.77
	M 79.72 51.21
	L 79.41 52.16
	L 79.1 53.11
	L 78.79 54.06
	L 78.48 55.01
	M 79.87 52.2
	L 79.56 53.15
	M 79.72 54.13
	L 79.88 55.12
	M 80.03 53.18
	L 79.72 54.13
	L 79.41 55.09
	M 80.19 54.17
	L 80.77 54.98
	M 80.93 55.97
	L 81.82 56.42
	M 81.67 57.76
	L 81.37 58.72
	M 81.83 58.75
	L 82.42 59.56
	M 81.52 56.78
	L 81.67 57.76
	L 81.83 58.75
	L 81.99 59.74
	M 82.11 57.59
	L 82.26 58.57
	M 83.58 58.85
	L 84.17 59.66
	M 84.48 59.3
	L 85.48 59.3
	M 82.69 58.4
	L 83.58 58.85
	L 84.48 59.3
	L 85.37 59.76
	M 83.28 59.2
	L 84.17 59.66
	M 80.34 55.16
	L 80.93 55.97
	L 81.52 56.78
	L 82.11 57.59
	L 82.69 58.4
	L 83.28 59.2
	L 83.87 60.01
	M 80.5 56.15
	L 80.19 57.1
	M 80.66 57.13
	L 81.24 57.94
	M 80.5 59.07
	L 79.8 59.78
	M 80.19 60.02
	L 80.35 61.01
	M 80.81 58.12
	L 80.5 59.07
	L 80.19 60.02
	L 79.88 60.98
	M 80.97 59.11
	L 81.56 59.92
	M 81.71 60.91
	L 81.87 61.89
	M 81.12 60.1
	L 81.71 60.91
	L 82.3 61.72
	M 81.28 61.09
	L 80.97 62.04
	M 78.78 45.28
	L 78.93 46.27
	L 79.09 47.26
	L 79.25 48.25
	L 79.4 49.23
	L 79.56 50.22
	L 79.72 51.21
	L 79.87 52.2
	L 80.03 53.18
	L 80.19 54.17
	L 80.34 55.16
	L 80.5 56.15
	L 80.66 57.13
	L 80.81 58.12
	L 80.97 59.11
	L 81.12 60.1
	L 81.28 61.09
	L 81.44 62.07
	M 78.47 46.23
	L 77.76 46.94
	M 77.45 47.89
	L 77.14 48.84
	M 78.16 47.18
	L 77.45 47.89
	L 76.75 48.6
	M 77.85 48.14
	L 77.14 48.84
	M 77.7 50.07
	L 78.29 50.88
	M 77.54 49.09
	L 77.7 50.07
	L 77.85 51.06
	M 77.23 50.04
	L 76.53 50.74
	M 76.92 50.99
	L 77.08 51.98
	M 75.91 52.65
	L 75.6 53.6
	M 74.89 54.3
	L 74.18 55.01
	M 74.58 55.26
	L 74.74 56.24
	M 75.2 53.35
	L 74.89 54.3
	L 74.58 55.26
	L 74.27 56.21
	M 74.49 54.06
	L 73.54 54.37
	M 73.79 54.77
	L 73.48 55.72
	M 76.61 51.94
	L 75.91 52.65
	L 75.2 53.35
	L 74.49 54.06
	L 73.79 54.77
	L 73.08 55.48
	M 76.31 52.89
	L 75.6 53.6
	M 75.29 54.55
	L 74.98 55.5
	M 76 53.84
	L 75.29 54.55
	L 74.58 55.26
	M 75.69 54.79
	L 75.84 55.78
	M 92.99 1.534
	L 92.68 2.485
	L 92.37 3.436
	L 92.07 4.387
	L 91.76 5.338
	L 91.45 6.289
	L 91.14 7.24
	L 90.83 8.191
	L 90.52 9.142
	L 90.21 10.09
	L 89.9 11.04
	L 89.59 12
	L 89.28 12.95
	L 88.98 13.9
	L 88.67 14.85
	L 88.36 15.8
	L 88.05 16.75
	L 87.74 17.7
	L 87.43 18.65
	L 87.12 19.6
	L 86.81 20.55
	L 86.5 21.51
	L 86.19 22.46
	L 85.89 23.41
	L 85.58 24.36
	L 85.27 25.31
	L 84.96 26.26
	L 84.65 27.21
	L 84.34 28.16
	L 84.03 29.11
	L 83.72 30.07
	L 83.41 31.02
	L 83.1 31.97
	L 82.8 32.92
	L 82.49 33.87
	L 82.18 34.82
	L 81.87 35.77
	L 81.56 36.72
	L 81.25 37.67
	L 80.94 38.62
	L 80.63 39.58
	L 80.32 40.53
	L 80.01 41.48
	L 79.71 42.43
	L 79.4 43.38
	L 79.09 44.33
	L 78.78 45.28
	L 78.47 46.23
	L 78.16 47.18
	L 77.85 48.14
	L 77.54 49.09
	L 77.23 50.04
	L 76.92 50.99
	L 76.61 51.94
	L 76.31 52.89
	L 76 53.84
	L 75.69 54.79
	L 75.38 55.74
	M 120.6 0.6228
	L 120.4 1.61
	M 120.9 1.574
	L 121.6 2.281
	M 121 3.513
	L 121.3 4.464
	M 121.2 2.525
	L 121 3.513
	L 120.9 4.5
	M 121.5 3.476
	L 121.3 4.464
	M 121.8 4.427
	L 122.5 5.134
	M 122 6.366
	L 121.4 7.175
	M 121.2 8.162
	L 120.3 8.616
	M 120.6 8.971
	L 120.5 9.959
	M 121.8 7.353
	L 121.2 8.162
	L 120.6 8.971
	L 120 9.78
	M 121.6 8.341
	L 121.1 9.15
	M 121.8 10.28
	L 121.6 11.27
	M 122.1 11.23
	L 122.8 11.94
	M 121.5 9.329
	L 121.8 10.28
	L 122.1 11.23
	L 122.4 12.18
	M 121.3 10.32
	L 120.7 11.13
	M 122.1 5.378
	L 122 6.366
	L 121.8 7.353
	L 121.6 8.341
	L 121.5 9.329
	L 121.3 10.32
	L 121.2 11.3
	M 122.4 6.329
	L 123.1 7.036
	M 122.6 8.268
	L 122 9.077
	M 122.7 7.28
	L 122.6 8.268
	L 122.4 9.256
	M 123 8.231
	L 122.9 9.219
	M 124.1 9.889
	L 124.4 10.84
	M 124.8 10.6
	L 125.7 10.91
	M 125.8 12.25
	L 125.6 13.24
	M 125.5 11.3
	L 125.8 12.25
	L 126.1 13.21
	M 126.2 12.01
	L 127.1 12.32
	M 127.8 13.03
	L 128.5 13.73
	M 126.9 12.72
	L 127.8 13.03
	L 128.8 13.34
	M 127.6 13.42
	L 127.9 14.38
	M 123.3 9.182
	L 124.1 9.889
	L 124.8 10.6
	L 125.5 11.3
	L 126.2 12.01
	L 126.9 12.72
	L 127.6 13.42
	L 128.3 14.13
	M 123.7 10.13
	L 124.4 10.84
	M 123.8 12.07
	L 123.2 12.88
	M 123.7 13.06
	L 124 14.01
	M 124 11.08
	L 123.8 12.07
	L 123.7 13.06
	L 123.5 14.05
	M 124.3 12.04
	L 124.1 13.02
	M 125.3 13.69
	L 125.6 14.64
	M 126.3 15.35
	L 126.2 16.34
	M 126.6 16.3
	L 127.3 17.01
	M 126 14.4
	L 126.3 15.35
	L 126.6 16.3
	L 126.9 17.25
	M 126.7 15.11
	L 127 16.06
	M 127.4 15.81
	L 128.4 16.12
	M 128.4 17.47
	L 128.3 18.46
	M 128.6 19.41
	L 128 20.22
	M 128.4 20.4
	L 128.7 21.35
	M 128.7 18.42
	L 128.6 19.41
	L 128.4 20.4
	L 128.3 21.39
	M 129 19.38
	L 128.9 20.36
	M 128.1 16.52
	L 128.4 17.47
	L 128.7 18.42
	L 129 19.38
	L 129.4 20.33
	M 128.8 17.23
	L 129.8 17.54
	M 129.8 18.89
	L 130.5 19.59
	M 129.5 17.94
	L 129.8 18.89
	L 130.2 19.84
	M 130.2 18.64
	L 131.2 18.95
	M 131.9 19.66
	L 132.6 20.37
	M 130.9 19.35
	L 131.9 19.66
	L 132.9 19.97
	M 131.7 20.06
	L 132 21.01
	M 124.6 12.99
	L 125.3 13.69
	L 126 14.4
	L 126.7 15.11
	L 127.4 15.81
	L 128.1 16.52
	L 128.8 17.23
	L 129.5 17.94
	L 130.2 18.64
	L 130.9 19.35
	L 131.7 20.06
	L 132.4 20.76
	M 124.9 13.94
	L 125.6 14.64
	M 125.9 15.6
	L 126.2 16.55
	M 125.2 14.89
	L 125.9 15.6
	L 126.6 16.3
	M 125.5 15.84
	L 125.4 16.83
	M 125.8 16.79
	L 126.5 17.5
	M 126 18.73
	L 126.3 19.68
	M 125.2 20.53
	L 125.1 21.51
	M 125.8 19.72
	L 125.2 20.53
	L 124.6 21.34
	M 125.7 20.7
	L 126 21.66
	M 126.1 17.74
	L 126 18.73
	L 125.8 19.72
	L 125.7 20.7
	L 125.5 21.69
	M 126.4 18.69
	L 126.3 19.68
	M 126.6 20.63
	L 126.9 21.58
	M 126.7 19.64
	L 126.6 20.63
	L 126.4 21.62
	M 127.1 20.59
	L 126.9 21.58
	M 127.4 21.55
	L 128.1 22.25
	M 128.4 23.2
	L 128.7 24.16
	M 129.1 23.91
	L 130 24.22
	M 130.1 25.57
	L 130.8 26.28
	M 129.8 24.62
	L 130.1 25.57
	L 130.4 26.52
	M 130.5 25.33
	L 131.5 25.63
	M 132.2 26.34
	L 133.1 26.19
	M 131.2 26.03
	L 132.2 26.34
	L 133.1 26.65
	M 131.9 26.74
	L 132.2 27.69
	M 127.7 22.5
	L 128.4 23.2
	L 129.1 23.91
	L 129.8 24.62
	L 130.5 25.33
	L 131.2 26.03
	L 131.9 26.74
	L 132.6 27.45
	M 128 23.45
	L 127.8 24.44
	M 128.1 25.39
	L 127.5 26.2
	M 128 26.37
	L 128.3 27.33
	M 128.3 24.4
	L 128.1 25.39
	L 128 26.37
	L 127.8 27.36
	M 128.6 25.35
	L 128.4 26.34
	M 129.6 27.01
	L 130.6 27.32
	M 131.3 28.02
	L 132 28.73
	M 130.3 27.72
	L 131.3 28.02
	L 132.2 28.33
	M 131 28.42
	L 132 28.73
	M 132 30.08
	L 131.9 31.07
	M 132.4 31.03
	L 133.1 31.74
	M 132.5 32.97
	L 131.9 33.78
	M 132.7 31.98
	L 132.5 32.97
	L 132.4 33.96
	M 133 32.93
	L 133.7 33.64
	M 131.7 29.13
	L 132 30.08
	L 132.4 31.03
	L 132.7 31.98
	L 133 32.93
	L 133.3 33.89
	M 132.4 29.84
	L 132.8 30.79
	M 133.2 30.54
	L 134.1 30.85
	M 134.8 31.56
	L 135.5 32.27
	M 133.9 31.25
	L 134.8 31.56
	L 135.8 31.87
	M 134.6 31.96
	L 135.5 32.27
	M 136.2 32.97
	L 136.9 33.68
	M 137.9 33.99
	L 138.8 34.3
	M 137.2 33.28
	L 137.9 33.99
	L 138.6 34.7
	M 138.1 33.59
	L 138.8 34.3
	M 140.1 33.74
	L 141 34.05
	M 139.1 33.9
	L 140.1 33.74
	L 141.1 33.59
	M 140 34.21
	L 140.7 34.92
	M 141 34.52
	L 142 34.36
	M 135.3 32.67
	L 136.2 32.97
	L 137.2 33.28
	L 138.1 33.59
	L 139.1 33.9
	L 140 34.21
	L 141 34.52
	L 141.9 34.83
	M 136 33.37
	L 136.3 34.32
	M 137 35.03
	L 137.7 35.74
	M 136.7 34.08
	L 137 35.03
	L 137.3 35.98
	M 137.4 34.79
	L 137.7 35.74
	M 138.4 36.44
	L 138.3 37.43
	M 138.7 37.4
	L 139.4 38.1
	M 138.9 39.33
	L 138.3 40.14
	M 138.7 40.32
	L 139 41.27
	M 139 38.35
	L 138.9 39.33
	L 138.7 40.32
	L 138.6 41.31
	M 139.3 39.3
	L 140 40.01
	M 140.4 40.96
	L 140.7 41.91
	M 139.6 40.25
	L 140.4 40.96
	L 141.1 41.66
	M 140 41.2
	L 139.8 42.19
	M 140.3 42.15
	L 141 42.86
	M 140.4 44.09
	L 139.8 44.9
	M 139.7 45.89
	L 138.8 46.34
	M 139.1 46.7
	L 138.9 47.68
	M 140.3 45.08
	L 139.7 45.89
	L 139.1 46.7
	L 138.5 47.5
	M 140.1 46.07
	L 139.5 46.87
	M 140.6 43.1
	L 140.4 44.09
	L 140.3 45.08
	L 140.1 46.07
	L 139.9 47.05
	M 140.9 44.05
	L 141.6 44.76
	M 141 45.99
	L 140.4 46.8
	M 140.9 46.98
	L 141.2 47.93
	M 141.2 45
	L 141 45.99
	L 140.9 46.98
	L 140.7 47.97
	M 141.5 45.96
	L 142.2 46.66
	M 138.1 35.49
	L 138.4 36.44
	L 138.7 37.4
	L 139 38.35
	L 139.3 39.3
	L 139.6 40.25
	L 140 41.2
	L 140.3 42.15
	L 140.6 43.1
	L 140.9 44.05
	L 141.2 45
	L 141.5 45.96
	L 141.8 46.91
	M 138.8 36.2
	L 139.1 37.15
	M 139.5 36.91
	L 140.5 37.22
	M 141.2 37.92
	L 142.2 37.77
	M 140.2 37.62
	L 141.2 37.92
	L 142.1 38.23
	M 140.9 38.32
	L 141.2 39.27
	M 141.6 39.03
	L 142.6 39.34
	M 143.3 40.05
	L 144 40.75
	M 145 41.06
	L 145.9 41.37
	M 144.2 40.35
	L 145 41.06
	L 145.7 41.77
	M 145.2 40.66
	L 146.2 40.51
	M 142.3 39.74
	L 143.3 40.05
	L 144.2 40.35
	L 145.2 40.66
	L 146.1 40.97
	M 143.1 40.44
	L 144 40.75
	M 144.7 41.46
	L 145.4 42.17
	M 143.8 41.15
	L 144.7 41.46
	L 145.7 41.77
	M 144.5 41.86
	L 144.8 42.81
	M 146.1 42.87
	L 146.8 43.58
	M 147.1 43.18
	L 148.1 43.03
	M 149 43.34
	L 150 43.64
	M 150 43.18
	L 150.8 42.59
	M 148 43.49
	L 149 43.34
	L 150 43.18
	L 151 43.02
	M 149 43.8
	L 150 43.64
	M 150.6 44.82
	L 150.9 45.77
	M 151.7 46.48
	L 151.5 47.46
	M 151.3 45.52
	L 151.7 46.48
	L 152 47.43
	M 152.1 46.23
	L 152.4 47.18
	M 152.8 46.94
	L 153.7 47.25
	M 149.9 44.11
	L 150.6 44.82
	L 151.3 45.52
	L 152.1 46.23
	L 152.8 46.94
	L 153.5 47.65
	M 150.9 44.42
	L 151.6 45.13
	M 152.5 45.43
	L 152.8 46.39
	M 151.8 44.73
	L 152.5 45.43
	L 153.2 46.14
	M 152.8 45.04
	L 153.5 45.74
	M 153.7 45.35
	L 154.7 45.19
	M 145.2 42.56
	L 146.1 42.87
	L 147.1 43.18
	L 148 43.49
	L 149 43.8
	L 149.9 44.11
	L 150.9 44.42
	L 151.8 44.73
	L 152.8 45.04
	L 153.7 45.35
	L 154.7 45.65
	M 145.9 43.27
	L 146.2 44.22
	M 146.6 43.98
	L 147.5 44.29
	M 147.6 45.64
	L 148.3 46.34
	M 147.3 44.69
	L 147.6 45.64
	L 147.9 46.59
	M 148 45.39
	L 149 45.7
	M 149 47.05
	L 148.9 48.04
	M 149.3 48
	L 150 48.71
	M 149.5 49.94
	L 148.9 50.75
	M 149.3 50.93
	L 149.6 51.88
	M 149.6 48.95
	L 149.5 49.94
	L 149.3 50.93
	L 149.2 51.92
	M 149.9 49.9
	L 149.8 50.89
	M 150.3 50.86
	L 151 51.56
	M 151.3 52.51
	L 151.6 53.46
	M 152 53.22
	L 152.9 53.53
	M 150.6 51.81
	L 151.3 52.51
	L 152 53.22
	L 152.7 53.93
	M 150.9 52.76
	L 150.7 53.75
	M 148.7 46.1
	L 149 47.05
	L 149.3 48
	L 149.6 48.95
	L 149.9 49.9
	L 150.3 50.86
	L 150.6 51.81
	L 150.9 52.76
	L 151.2 53.71
	M 149.4 46.81
	L 149.7 47.76
	M 150.1 47.51
	L 151.1 47.82
	M 151.8 48.53
	L 152.8 48.37
	M 150.8 48.22
	L 151.8 48.53
	L 152.7 48.84
	M 151.5 48.93
	L 151.8 49.88
	M 152.2 49.64
	L 153.2 49.94
	M 153.9 50.65
	L 154.9 50.5
	M 155.6 51.67
	L 155.9 52.62
	M 156.3 52.38
	L 157.2 52.68
	M 154.9 50.96
	L 155.6 51.67
	L 156.3 52.38
	L 157 53.08
	M 155.8 51.27
	L 156.5 51.98
	M 156.8 51.58
	L 157.7 51.42
	M 158.7 51.73
	L 159.5 51.14
	M 157.7 51.89
	L 158.7 51.73
	L 159.7 51.58
	M 158.7 52.2
	L 159.6 52.04
	M 153 50.34
	L 153.9 50.65
	L 154.9 50.96
	L 155.8 51.27
	L 156.8 51.58
	L 157.7 51.89
	L 158.7 52.2
	L 159.6 52.51
	M 153.7 51.05
	L 154.6 51.36
	M 154.7 52.71
	L 154.5 53.7
	M 155 53.66
	L 155.7 54.37
	M 154.4 51.76
	L 154.7 52.71
	L 155 53.66
	L 155.3 54.61
	M 155.1 52.46
	L 156 52.77
	M 156.7 53.48
	L 157.4 54.19
	M 155.8 53.17
	L 156.7 53.48
	L 157.7 53.79
	M 156.5 53.88
	L 157.4 54.19
	M 128.9 26.3
	L 129.6 27.01
	L 130.3 27.72
	L 131 28.42
	L 131.7 29.13
	L 132.4 29.84
	L 133.2 30.54
	L 133.9 31.25
	L 134.6 31.96
	L 135.3 32.67
	L 136 33.37
	L 136.7 34.08
	L 137.4 34.79
	L 138.1 35.49
	L 138.8 36.2
	L 139.5 36.91
	L 140.2 37.62
	L 140.9 38.32
	L 141.6 39.03
	L 142.3 39.74
	L 143.1 40.44
	L 143.8 41.15
	L 144.5 41.86
	L 145.2 42.56
	L 145.9 43.27
	L 146.6 43.98
	L 147.3 44.69
	L 148 45.39
	L 148.7 46.1
	L 149.4 46.81
	L 150.1 47.51
	L 150.8 48.22
	L 151.5 48.93
	L 152.2 49.64
	L 153 50.34
	L 153.7 51.05
	L 154.4 51.76
	L 155.1 52.46
	L 155.8 53.17
	L 156.5 53.88
	L 157.2 54.59
	M 129.2 27.25
	L 129.9 27.96
	M 130.2 28.91
	L 131.2 29.22
	M 129.5 28.2
	L 130.2 28.91
	L 130.9 29.62
	M 129.8 29.15
	L 129.7 30.14
	M 130.9 30.81
	L 131.2 31.76
	M 131.6 31.52
	L 132.5 31.83
	M 132.6 33.18
	L 132.4 34.17
	M 132.9 34.13
	L 133.6 34.84
	M 132.3 32.23
	L 132.6 33.18
	L 132.9 34.13
	L 133.2 35.08
	M 133 32.93
	L 133.3 33.89
	M 133.7 33.64
	L 134.6 33.95
	M 130.1 30.11
	L 130.9 30.81
	L 131.6 31.52
	L 132.3 32.23
	L 133 32.93
	L 133.7 33.64
	L 134.4 34.35
	M 130.5 31.06
	L 131.2 31.76
	M 130.6 33
	L 130 33.8
	M 130.8 32.01
	L 130.6 33
	L 130.5 33.98
	M 131.1 32.96
	L 130.9 33.95
	M 131.2 34.9
	L 130.6 35.71
	M 131.1 35.89
	L 131.4 36.84
	M 130.3 37.68
	L 130.2 38.67
	M 130.9 36.87
	L 130.3 37.68
	L 129.7 38.49
	M 130.8 37.86
	L 130.2 38.67
	M 130.9 39.8
	L 130.8 40.79
	M 131.2 40.75
	L 131.9 41.46
	M 130.6 38.85
	L 130.9 39.8
	L 131.2 40.75
	L 131.5 41.7
	M 130.4 39.84
	L 129.9 40.64
	M 130.6 41.77
	L 130.4 42.76
	M 130.9 42.73
	L 131.6 43.43
	M 131.9 44.38
	L 132.9 44.69
	M 131.2 43.68
	L 131.9 44.38
	L 132.6 45.09
	M 131.5 44.63
	L 131.4 45.62
	M 131.8 45.58
	L 132.5 46.29
	M 130.3 40.82
	L 130.6 41.77
	L 130.9 42.73
	L 131.2 43.68
	L 131.5 44.63
	L 131.8 45.58
	L 132.1 46.53
	M 130.1 41.81
	L 130.4 42.76
	M 129.4 43.61
	L 128.5 44.06
	M 128.8 44.42
	L 128.6 45.4
	M 130 42.8
	L 129.4 43.61
	L 128.8 44.42
	L 128.2 45.23
	M 129.8 43.79
	L 130.1 44.74
	M 131.4 33.91
	L 131.2 34.9
	L 131.1 35.89
	L 130.9 36.87
	L 130.8 37.86
	L 130.6 38.85
	L 130.4 39.84
	L 130.3 40.82
	L 130.1 41.81
	L 130 42.8
	L 129.8 43.79
	L 129.7 44.77
	M 131.7 34.86
	L 131.5 35.85
	M 132.7 36.52
	L 133 37.47
	M 132 35.81
	L 132.7 36.52
	L 133.4 37.23
	M 132.3 36.76
	L 133 37.47
	M 133.3 38.42
	L 133.6 39.37
	M 134.3 40.08
	L 134.2 41.07
	M 134.7 41.03
	L 135.4 41.74
	M 134 39.13
	L 134.3 40.08
	L 134.7 41.03
	L 135 41.98
	M 134.7 39.84
	L 135 40.79
	M 136.4 40.85
	L 137.1 41.56
	M 137.3 41.16
	L 138.3 41
	M 135.4 40.54
	L 136.4 40.85
	L 137.3 41.16
	L 138.3 41.47
	M 136.2 41.25
	L 136.5 42.2
	M 132.6 37.71
	L 133.3 38.42
	L 134 39.13
	L 134.7 39.84
	L 135.4 40.54
	L 136.2 41.25
	L 136.9 41.96
	M 132.9 38.67
	L 132.8 39.65
	M 133.9 40.32
	L 134.9 40.63
	M 133.2 39.62
	L 133.9 40.32
	L 134.7 41.03
	M 133.5 40.57
	L 134.3 41.27
	M 134.6 42.23
	L 135.5 42.53
	M 135.6 43.88
	L 135.4 44.87
	M 135.9 44.83
	L 136.6 45.54
	M 135.3 42.93
	L 135.6 43.88
	L 135.9 44.83
	L 136.2 45.79
	M 136 43.64
	L 136.9 43.95
	M 137.6 44.66
	L 138.3 45.36
	M 139.3 45.67
	L 140.2 45.98
	M 138.6 44.96
	L 139.3 45.67
	L 140 46.38
	M 139.5 45.27
	L 140.5 45.12
	M 136.7 44.35
	L 137.6 44.66
	L 138.6 44.96
	L 139.5 45.27
	L 140.5 45.58
	M 137.4 45.05
	L 138.3 45.36
	M 139 46.07
	L 140 45.91
	M 138.1 45.76
	L 139 46.07
	L 140 46.38
	M 138.8 46.47
	L 139.1 47.42
	M 139.5 47.18
	L 140.5 47.48
	M 133.9 41.52
	L 134.6 42.23
	L 135.3 42.93
	L 136 43.64
	L 136.7 44.35
	L 137.4 45.05
	L 138.1 45.76
	L 138.8 46.47
	L 139.5 47.18
	L 140.2 47.88
	M 134.2 42.47
	L 134.9 43.18
	M 134.3 44.41
	L 134.6 45.36
	M 134.5 43.42
	L 134.3 44.41
	L 134.2 45.4
	M 134.8 44.37
	L 134.6 45.36
	M 135.1 45.32
	L 135.8 46.03
	M 135.2 47.26
	L 135.6 48.21
	M 134.5 49.06
	L 134.3 50.05
	M 135.1 48.25
	L 134.5 49.06
	L 133.9 49.87
	M 134.9 49.24
	L 134.3 50.05
	M 134.8 50.22
	L 135.1 51.18
	M 134.9 52.16
	L 135.6 52.87
	M 134.6 51.21
	L 134.9 52.16
	L 135.2 53.11
	M 134.5 52.2
	L 133.9 53.01
	M 135.4 46.27
	L 135.2 47.26
	L 135.1 48.25
	L 134.9 49.24
	L 134.8 50.22
	L 134.6 51.21
	L 134.5 52.2
	L 134.3 53.19
	M 135.7 47.22
	L 135.6 48.21
	M 136 48.18
	L 136.7 48.88
	M 136.2 50.11
	L 135.6 50.92
	M 136.3 49.13
	L 136.2 50.11
	L 136 51.1
	M 136.6 50.08
	L 136.5 51.07
	M 136.9 51.03
	L 137.7 51.74
	M 138 52.69
	L 138.3 53.64
	M 138.7 53.39
	L 139.6 53.7
	M 137.3 51.98
	L 138 52.69
	L 138.7 53.39
	L 139.4 54.1
	M 137.6 52.93
	L 138.3 53.64
	M 138.6 54.59
	L 138.9 55.54
	M 139.3 55.3
	L 140.2 55.61
	M 140.9 56.31
	L 141.7 57.02
	M 140 56
	L 140.9 56.31
	L 141.9 56.62
	M 140.7 56.71
	L 141.7 57.02
	M 137.9 53.88
	L 138.6 54.59
	L 139.3 55.3
	L 140 56
	L 140.7 56.71
	L 141.4 57.42
	M 138.2 54.83
	L 138.9 55.54
	M 138.3 56.77
	L 138.6 57.72
	M 138.5 55.78
	L 138.3 56.77
	L 138.2 57.76
	M 138.8 56.74
	L 138.6 57.72
	M 139.1 57.69
	L 139.8 58.39
	M 140.1 59.34
	L 140.4 60.3
	M 139.4 58.64
	L 140.1 59.34
	L 140.8 60.05
	M 139.7 59.59
	L 139.6 60.58
	M 120.3 -0.3283
	L 120.6 0.6228
	L 120.9 1.574
	L 121.2 2.525
	L 121.5 3.476
	L 121.8 4.427
	L 122.1 5.378
	L 122.4 6.329
	L 122.7 7.28
	L 123 8.231
	L 123.3 9.182
	L 123.7 10.13
	L 124 11.08
	L 124.3 12.04
	L 124.6 12.99
	L 124.9 13.94
	L 125.2 14.89
	L 125.5 15.84
	L 125.8 16.79
	L 126.1 17.74
	L 126.4 18.69
	L 126.7 19.64
	L 127.1 20.59
	L 127.4 21.55
	L 127.7 22.5
	L 128 23.45
	L 128.3 24.4
	L 128.6 25.35
	L 128.9 26.3
	L 129.2 27.25
	L 129.5 28.2
	L 129.8 29.15
	L 130.1 30.11
	L 130.5 31.06
	L 130.8 32.01
	L 131.1 32.96
	L 131.4 33.91
	L 131.7 34.86
	L 132 35.81
	L 132.3 36.76
	L 132.6 37.71
	L 132.9 38.67
	L 133.2 39.62
	L 133.5 40.57
	L 133.9 41.52
	L 134.2 42.47
	L 134.5 43.42
	L 134.8 44.37
	L 135.1 45.32
	L 135.4 46.27
	L 135.7 47.22
	L 136 48.18
	L 136.3 49.13
	L 136.6 50.08
	L 136.9 51.03
	L 137.3 51.98
	L 137.6 52.93
	L 137.9 53.88
	L 138.2 54.83
	L 138.5 55.78
	L 138.8 56.74
	L 139.1 57.69
	L 139.4 58.64
	L 139.7 59.59
	L 140 60.54
	M 167 -6.788
	L 166.4 -5.979
	M 166.9 -5.8
	L 167.2 -4.849
	M 166.1 -4.003
	L 165.2 -3.549
	M 166.7 -4.812
	L 166.1 -4.003
	L 165.5 -3.194
	M 166.6 -3.825
	L 166.9 -2.874
	M 166.7 -1.886
	L 166.5 -0.8983
	M 167 -0.9349
	L 167.7 -0.2278
	M 167.2 1.004
	L 166.6 1.813
	M 167.3 0.01611
	L 167.2 1.004
	L 167 1.991
	M 167.6 0.9672
	L 167.5 1.955
	M 167.9 1.918
	L 168.6 2.625
	M 166.4 -2.837
	L 166.7 -1.886
	L 167 -0.9349
	L 167.3 0.01611
	L 167.6 0.9672
	L 167.9 1.918
	L 168.3 2.869
	M 166.2 -1.849
	L 165.7 -1.04
	M 166.4 0.08937
	L 167.1 0.7965
	M 166.1 -0.8617
	L 166.4 0.08937
	L 166.7 1.04
	M 165.9 0.126
	L 165.3 0.935
	M 165.8 1.114
	L 166.1 2.065
	M 165 2.91
	L 164.1 3.364
	M 163.5 4.173
	L 162.5 4.173
	M 164.4 3.719
	L 163.5 4.173
	L 162.7 4.627
	M 163.9 4.528
	L 163 4.982
	M 162.4 5.791
	L 161.8 6.6
	M 160.5 6.245
	L 159.6 6.699
	M 161.5 6.245
	L 160.5 6.245
	L 159.5 6.245
	M 160.6 6.699
	L 159.6 6.699
	M 163.3 5.337
	L 162.4 5.791
	L 161.5 6.245
	L 160.6 6.699
	L 159.7 7.153
	M 162.7 6.146
	L 161.8 6.6
	M 162.1 6.955
	L 161.9 7.943
	M 160.6 8.218
	L 159.6 8.218
	M 161.5 7.765
	L 160.6 8.218
	L 159.7 8.672
	M 160.9 8.574
	L 160 9.028
	M 160.2 10.37
	L 159.6 11.18
	M 160 11.36
	L 160.3 12.31
	M 160.3 9.383
	L 160.2 10.37
	L 160 11.36
	L 159.9 12.35
	M 159.7 10.19
	L 158.8 10.65
	M 159 11.99
	L 158.4 12.8
	M 159.1 13.93
	L 159.9 14.63
	M 158.8 12.98
	L 159.1 13.93
	L 159.5 14.88
	M 158.7 13.96
	L 158.1 14.77
	M 159.1 11
	L 159 11.99
	L 158.8 12.98
	L 158.7 13.96
	L 158.5 14.95
	M 158.6 11.81
	L 157.7 12.26
	M 158 12.62
	L 157.8 13.61
	M 157.2 14.42
	L 156.6 15.22
	M 157.4 13.43
	L 157.2 14.42
	L 157.1 15.4
	M 156.8 14.24
	L 155.9 14.69
	M 156.2 15.05
	L 156.1 16.03
	M 165.6 2.101
	L 165 2.91
	L 164.4 3.719
	L 163.9 4.528
	L 163.3 5.337
	L 162.7 6.146
	L 162.1 6.955
	L 161.5 7.765
	L 160.9 8.574
	L 160.3 9.383
	L 159.7 10.19
	L 159.1 11
	L 158.6 11.81
	L 158 12.62
	L 157.4 13.43
	L 156.8 14.24
	L 156.2 15.05
	L 155.6 15.85
	M 165.5 3.089
	L 164.9 3.898
	M 164.7 4.886
	L 163.8 5.34
	M 164.1 5.695
	L 164 6.682
	M 165.3 4.077
	L 164.7 4.886
	L 164.1 5.695
	L 163.5 6.504
	M 165.1 5.064
	L 165.5 6.016
	M 165.3 7.003
	L 165.1 7.991
	M 165.6 7.954
	L 166.3 8.661
	M 165 6.052
	L 165.3 7.003
	L 165.6 7.954
	L 165.9 8.905
	M 164.8 7.04
	L 164.2 7.849
	M 164.7 8.028
	L 165 8.979
	M 163.9 9.824
	L 163 10.28
	M 163.3 10.63
	L 163.2 11.62
	M 161.9 11.9
	L 160.9 11.9
	M 162.8 11.44
	L 161.9 11.9
	L 161 12.35
	M 162.2 12.25
	L 161.3 12.71
	M 161.6 13.06
	L 161.4 14.05
	M 164.5 9.015
	L 163.9 9.824
	L 163.3 10.63
	L 162.8 11.44
	L 162.2 12.25
	L 161.6 13.06
	L 161 13.87
	M 164.4 10
	L 163.8 10.81
	M 164.5 11.94
	L 164.4 12.93
	M 164.2 10.99
	L 164.5 11.94
	L 164.8 12.89
	M 164.1 11.98
	L 163.5 12.79
	M 163.3 13.77
	L 163.1 14.76
	M 162.6 15.57
	L 162 16.38
	M 162.7 14.58
	L 162.6 15.57
	L 162.4 16.56
	M 162.1 15.39
	L 162 16.38
	M 160.7 16.66
	L 159.7 16.66
	M 158.8 17.11
	L 157.9 16.66
	M 159.8 17.11
	L 158.8 17.11
	L 157.8 17.11
	M 158.9 17.56
	L 157.9 17.56
	M 158 18.02
	L 157.4 18.83
	M 156.5 19.28
	L 155.6 19.73
	M 157.1 18.47
	L 156.5 19.28
	L 155.9 20.09
	M 156.2 18.93
	L 155.2 18.93
	M 155.3 19.38
	L 154.7 20.19
	M 161.5 16.2
	L 160.7 16.66
	L 159.8 17.11
	L 158.9 17.56
	L 158 18.02
	L 157.1 18.47
	L 156.2 18.93
	L 155.3 19.38
	L 154.4 19.83
	M 161 17.01
	L 160.1 17.47
	M 160.4 17.82
	L 160.2 18.81
	M 158.9 19.08
	L 158.3 19.89
	M 159.8 18.63
	L 158.9 19.08
	L 158 19.54
	M 159.2 19.44
	L 158.3 19.89
	M 158.6 20.25
	L 158.4 21.23
	M 157.9 22.04
	L 157.3 22.85
	M 157.7 23.03
	L 158 23.98
	M 158 21.06
	L 157.9 22.04
	L 157.7 23.03
	L 157.5 24.02
	M 157.4 21.87
	L 157.3 22.85
	M 156.7 23.66
	L 157 24.61
	M 155.9 25.46
	L 155 25.91
	M 155.4 26.27
	L 155.2 27.26
	M 156.5 24.65
	L 155.9 25.46
	L 155.4 26.27
	L 154.8 27.08
	M 156.4 25.64
	L 155.8 26.45
	M 156.5 27.58
	L 156.4 28.56
	M 156.8 28.53
	L 157.5 29.23
	M 156.2 26.62
	L 156.5 27.58
	L 156.8 28.53
	L 157.1 29.48
	M 156.1 27.61
	L 156.4 28.56
	M 156.8 22.67
	L 156.7 23.66
	L 156.5 24.65
	L 156.4 25.64
	L 156.2 26.62
	L 156.1 27.61
	L 155.9 28.6
	M 156.3 23.48
	L 155.4 23.94
	M 155.7 24.29
	L 155.5 25.28
	M 154.2 25.56
	L 153.2 25.56
	M 155.1 25.1
	L 154.2 25.56
	L 153.3 26.01
	M 154.5 25.91
	L 153.6 26.36
	M 153.9 26.72
	L 153.7 27.71
	M 152.4 27.98
	L 151.4 27.98
	M 150.9 29.25
	L 150.1 29.7
	M 151.5 28.44
	L 150.9 29.25
	L 150.4 30.05
	M 150.6 28.89
	L 150.1 29.7
	M 148.7 29.34
	L 147.9 29.8
	M 146.9 28.89
	L 146.3 28.08
	M 147.7 29.34
	L 146.9 28.89
	L 146 28.44
	M 146.7 29.34
	L 145.9 28.89
	M 144.9 29.8
	L 143.9 29.8
	M 144 30.25
	L 143.4 31.06
	M 145.7 29.34
	L 144.9 29.8
	L 144 30.25
	L 143.1 30.71
	M 144.7 29.34
	L 143.9 29.8
	M 149.7 29.34
	L 148.7 29.34
	L 147.7 29.34
	L 146.7 29.34
	L 145.7 29.34
	L 144.7 29.34
	L 143.7 29.34
	M 148.9 29.8
	L 147.9 29.8
	M 148 30.25
	L 147.4 31.06
	M 146.1 30.71
	L 145.2 30.25
	M 147.1 30.71
	L 146.1 30.71
	L 145.1 30.71
	M 146.2 31.16
	L 145.2 31.16
	M 153.3 27.53
	L 152.4 27.98
	L 151.5 28.44
	L 150.6 28.89
	L 149.7 29.34
	L 148.9 29.8
	L 148 30.25
	L 147.1 30.71
	L 146.2 31.16
	L 145.3 31.61
	M 152.7 28.34
	L 152.6 29.32
	M 151.2 29.6
	L 150.7 30.41
	M 152.1 29.15
	L 151.2 29.6
	L 150.4 30.05
	M 151.6 29.96
	L 150.7 30.41
	M 150.8 31.75
	L 150.2 32.56
	M 150.1 33.55
	L 149.9 34.54
	M 150.6 32.74
	L 150.1 33.55
	L 149.5 34.36
	M 150.5 33.73
	L 150.8 34.68
	M 150.6 35.67
	L 150.5 36.65
	M 151 36.62
	L 151.7 37.32
	M 150.3 34.72
	L 150.6 35.67
	L 151 36.62
	L 151.3 37.57
	M 150.2 35.7
	L 149.6 36.51
	M 151 30.76
	L 150.8 31.75
	L 150.6 32.74
	L 150.5 33.73
	L 150.3 34.72
	L 150.2 35.7
	L 150 36.69
	M 150.4 31.57
	L 150.2 32.56
	M 149.6 33.37
	L 149 34.18
	M 149.8 32.38
	L 149.6 33.37
	L 149.5 34.36
	M 149.2 33.19
	L 148.3 33.65
	M 163.9 12.97
	L 163.3 13.77
	L 162.7 14.58
	L 162.1 15.39
	L 161.5 16.2
	L 161 17.01
	L 160.4 17.82
	L 159.8 18.63
	L 159.2 19.44
	L 158.6 20.25
	L 158 21.06
	L 157.4 21.87
	L 156.8 22.67
	L 156.3 23.48
	L 155.7 24.29
	L 155.1 25.1
	L 154.5 25.91
	L 153.9 26.72
	L 153.3 27.53
	L 152.7 28.34
	L 152.1 29.15
	L 151.6 29.96
	L 151 30.76
	L 150.4 31.57
	L 149.8 32.38
	L 149.2 33.19
	L 148.6 34
	M 163.7 13.95
	L 163.1 14.76
	M 163.6 14.94
	L 163.9 15.89
	M 162.8 16.74
	L 161.9 17.19
	M 162.2 17.55
	L 162.1 18.53
	M 163.4 15.93
	L 162.8 16.74
	L 162.2 17.55
	L 161.7 18.36
	M 163.3 16.92
	L 162.7 17.73
	M 163.4 18.86
	L 163.3 19.84
	M 163.1 17.9
	L 163.4 18.86
	L 163.7 19.81
	M 163 18.89
	L 162.4 19.7
	M 162.8 19.88
	L 163.1 20.83
	M 162.1 21.68
	L 161.2 22.13
	M 161.3 23.47
	L 160.7 24.28
	M 161.2 24.46
	L 161.5 25.41
	M 161.5 22.49
	L 161.3 23.47
	L 161.2 24.46
	L 161 25.45
	M 160.9 23.29
	L 160 23.75
	M 162.6 20.87
	L 162.1 21.68
	L 161.5 22.49
	L 160.9 23.29
	L 160.3 24.1
	M 162.5 21.86
	L 161.9 22.66
	M 161.7 23.65
	L 160.9 24.11
	M 161.2 24.46
	L 161 25.45
	M 162.3 22.84
	L 161.7 23.65
	L 161.2 24.46
	L 160.6 25.27
	M 162.2 23.83
	L 162.5 24.78
	M 162.3 25.77
	L 162.2 26.76
	M 162.6 26.72
	L 163.3 27.43
	M 163.7 28.38
	L 164.6 28.69
	M 162.9 27.67
	L 163.7 28.38
	L 164.4 29.09
	M 163.3 28.62
	L 163.1 29.61
	M 162 24.82
	L 162.3 25.77
	L 162.6 26.72
	L 162.9 27.67
	L 163.3 28.62
	L 163.6 29.57
	M 161.9 25.81
	L 161.3 26.61
	M 161.7 26.79
	L 162 27.74
	M 161 28.59
	L 160.8 29.58
	M 161.5 27.78
	L 161 28.59
	L 160.4 29.4
	M 161.4 28.77
	L 161.7 29.72
	M 161.5 30.71
	L 162.3 31.41
	M 161.2 29.76
	L 161.5 30.71
	L 161.9 31.66
	M 161.1 30.74
	L 161.4 31.7
	M 160.3 32.54
	L 160.2 33.53
	M 159.6 34.34
	L 159 35.15
	M 159.7 33.35
	L 159.6 34.34
	L 159.4 35.33
	M 159.2 34.16
	L 159 35.15
	M 157.7 35.42
	L 156.7 35.42
	M 156.8 35.88
	L 156.2 36.69
	M 154.9 36.33
	L 154 35.88
	M 155.9 36.33
	L 154.9 36.33
	L 153.9 36.33
	M 155 36.78
	L 154 36.78
	M 158.6 34.97
	L 157.7 35.42
	L 156.8 35.88
	L 155.9 36.33
	L 155 36.78
	L 154.1 37.24
	M 158 35.78
	L 157.1 36.23
	M 157.4 36.59
	L 157.2 37.57
	M 156.7 38.38
	L 157 39.33
	M 156.8 37.4
	L 156.7 38.38
	L 156.5 39.37
	M 156.2 38.2
	L 155.3 38.66
	M 155.5 40
	L 155.8 40.95
	M 155.6 41.94
	L 155.5 42.93
	M 155.3 40.99
	L 155.6 41.94
	L 155.9 42.89
	M 155.2 41.98
	L 155.5 42.93
	M 155.6 39.01
	L 155.5 40
	L 155.3 40.99
	L 155.2 41.98
	L 155 42.96
	M 155 39.82
	L 154.9 40.81
	M 153.6 41.09
	L 152.6 41.09
	M 154.5 40.63
	L 153.6 41.09
	L 152.7 41.54
	M 153.9 41.44
	L 153 41.89
	M 153.3 42.25
	L 153.1 43.24
	M 160.9 31.73
	L 160.3 32.54
	L 159.7 33.35
	L 159.2 34.16
	L 158.6 34.97
	L 158 35.78
	L 157.4 36.59
	L 156.8 37.4
	L 156.2 38.2
	L 155.6 39.01
	L 155 39.82
	L 154.5 40.63
	L 153.9 41.44
	L 153.3 42.25
	L 152.7 43.06
	M 160.8 32.72
	L 161.1 33.67
	M 160 34.52
	L 159.9 35.5
	M 160.6 33.71
	L 160 34.52
	L 159.4 35.33
	M 160.5 34.7
	L 160.8 35.65
	M 159.7 36.49
	L 158.8 36.95
	M 158.2 37.75
	L 157.6 38.56
	M 159.1 37.3
	L 158.2 37.75
	L 157.3 38.21
	M 158.5 38.11
	L 157.6 38.56
	M 157.9 38.92
	L 157.8 39.91
	M 160.3 35.68
	L 159.7 36.49
	L 159.1 37.3
	L 158.5 38.11
	L 157.9 38.92
	L 157.4 39.73
	M 160.1 36.67
	L 159.6 37.48
	M 160 37.66
	L 160.3 38.61
	M 160.1 39.6
	L 160.8 40.3
	M 159.8 38.65
	L 160.1 39.6
	L 160.4 40.55
	M 159.7 39.63
	L 159.1 40.44
	M 159.5 40.62
	L 159.8 41.57
	M 167.2 -7.776
	L 167 -6.788
	L 166.9 -5.8
	L 166.7 -4.812
	L 166.6 -3.825
	L 166.4 -2.837
	L 166.2 -1.849
	L 166.1 -0.8617
	L 165.9 0.126
	L 165.8 1.114
	L 165.6 2.101
	L 165.5 3.089
	L 165.3 4.077
	L 165.1 5.064
	L 165 6.052
	L 164.8 7.04
	L 164.7 8.028
	L 164.5 9.015
	L 164.4 10
	L 164.2 10.99
	L 164.1 11.98
	L 163.9 12.97
	L 163.7 13.95
	L 163.6 14.94
	L 163.4 15.93
	L 163.3 16.92
	L 163.1 17.9
	L 163 18.89
	L 162.8 19.88
	L 162.6 20.87
	L 162.5 21.86
	L 162.3 22.84
	L 162.2 23.83
	L 162 24.82
	L 161.9 25.81
	L 161.7 26.79
	L 161.5 27.78
	L 161.4 28.77
	L 161.2 29.76
	L 161.1 30.74
	L 160.9 31.73
	L 160.8 32.72
	L 160.6 33.71
	L 160.5 34.7
	L 160.3 35.68
	L 160.1 36.67
	L 160 37.66
	L 159.8 38.65
	L 159.7 39.63
	L 159.5 40.62
	L 159.4 41.61
	M 171 -6.162
	L 171.3 -5.211
	M 170.2 -4.365
	L 169.3 -3.911
	M 169.6 -3.556
	L 169.5 -2.569
	M 170.8 -5.174
	L 170.2 -4.365
	L 169.6 -3.556
	L 169.1 -2.747
	M 170.7 -4.187
	L 170.1 -3.378
	M 170.5 -3.199
	L 170.8 -2.248
	M 170.7 -1.26
	L 171.4 -0.5532
	M 170.3 -2.211
	L 170.7 -1.26
	L 171 -0.3092
	M 170.2 -1.224
	L 169.6 -0.4146
	M 169.4 0.5731
	L 168.6 1.027
	M 168.9 1.382
	L 168.7 2.37
	M 168.1 3.179
	L 168.4 4.13
	M 168.3 2.191
	L 168.1 3.179
	L 168 4.166
	M 167.7 3
	L 166.8 3.454
	M 170 -0.2359
	L 169.4 0.5731
	L 168.9 1.382
	L 168.3 2.191
	L 167.7 3
	L 167.1 3.809
	M 169.9 0.7517
	L 169.3 1.561
	M 169.7 1.739
	L 170 2.69
	M 169 3.536
	L 168.1 3.99
	M 168.4 4.345
	L 168.2 5.333
	M 169.6 2.727
	L 169 3.536
	L 168.4 4.345
	L 167.8 5.154
	M 169.4 3.715
	L 168.8 4.524
	M 169.3 4.702
	L 169.6 5.654
	M 169.4 6.641
	L 169.2 7.629
	M 169.1 5.69
	L 169.4 6.641
	L 169.7 7.592
	M 168.9 6.678
	L 168.4 7.487
	M 168.8 7.666
	L 169.1 8.617
	M 168.9 9.604
	L 168.8 10.59
	M 169.2 10.56
	L 170 11.26
	M 169.4 12.49
	L 169.7 13.45
	M 169.6 11.51
	L 169.4 12.49
	L 169.2 13.48
	M 169.9 12.46
	L 169.7 13.45
	M 170.9 14.12
	L 171.2 15.07
	M 170.2 13.41
	L 170.9 14.12
	L 171.6 14.82
	M 170.5 14.36
	L 170.3 15.35
	M 168.6 8.653
	L 168.9 9.604
	L 169.2 10.56
	L 169.6 11.51
	L 169.9 12.46
	L 170.2 13.41
	L 170.5 14.36
	L 170.8 15.31
	M 168.5 9.641
	L 168.8 10.59
	M 168.6 11.58
	L 169.3 12.29
	M 168.3 10.63
	L 168.6 11.58
	L 168.9 12.53
	M 168.2 11.62
	L 167.6 12.43
	M 168.3 13.56
	L 168.2 14.54
	M 168.5 15.49
	L 168.8 16.44
	M 168.6 14.51
	L 168.5 15.49
	L 168.3 16.48
	M 168.9 15.46
	L 169.6 16.16
	M 169.9 17.12
	L 170.3 18.07
	M 170.7 17.82
	L 171.6 18.13
	M 171.7 19.48
	L 171.5 20.47
	M 171.4 18.53
	L 171.7 19.48
	L 172 20.43
	M 172.1 19.24
	L 173 19.55
	M 169.2 16.41
	L 169.9 17.12
	L 170.7 17.82
	L 171.4 18.53
	L 172.1 19.24
	L 172.8 19.94
	M 169.5 17.36
	L 169.4 18.35
	M 169.7 19.3
	L 169.1 20.11
	M 169.9 18.31
	L 169.7 19.3
	L 169.5 20.29
	M 170.2 19.26
	L 170.9 19.97
	M 168 12.6
	L 168.3 13.56
	L 168.6 14.51
	L 168.9 15.46
	L 169.2 16.41
	L 169.5 17.36
	L 169.9 18.31
	L 170.2 19.26
	L 170.5 20.21
	M 167.8 13.59
	L 168.2 14.54
	M 168 15.53
	L 167.8 16.52
	M 167.7 14.58
	L 168 15.53
	L 168.3 16.48
	M 167.5 15.57
	L 167.8 16.52
	M 166.8 17.36
	L 165.9 17.82
	M 166.2 18.17
	L 166 19.16
	M 165.5 19.97
	L 165.8 20.92
	M 165.6 18.98
	L 165.5 19.97
	L 165.3 20.96
	M 165 19.79
	L 164.1 20.24
	M 167.4 16.55
	L 166.8 17.36
	L 166.2 18.17
	L 165.6 18.98
	L 165 19.79
	L 164.4 20.6
	M 167.2 17.54
	L 167.5 18.49
	M 167.4 19.48
	L 167.2 20.47
	M 167.1 18.53
	L 167.4 19.48
	L 167.7 20.43
	M 166.9 19.52
	L 167.2 20.47
	M 167.1 21.46
	L 167.8 22.16
	M 167.2 23.4
	L 167.5 24.35
	M 167.4 22.41
	L 167.2 23.4
	L 167.1 24.38
	M 167.7 23.36
	L 167.5 24.35
	M 168.7 25.02
	L 169.6 25.33
	M 168 24.31
	L 168.7 25.02
	L 169.4 25.72
	M 168.3 25.26
	L 169 25.97
	M 169.3 26.92
	L 169.6 27.87
	M 170 27.63
	L 171 27.94
	M 171 29.28
	L 170.9 30.27
	M 170.7 28.33
	L 171 29.28
	L 171.3 30.24
	M 171.4 29.04
	L 171.7 29.99
	M 173.1 30.06
	L 174.1 29.9
	M 172.1 29.75
	L 173.1 30.06
	L 174 30.37
	M 172.8 30.45
	L 173.2 31.41
	M 173.6 31.16
	L 174.5 31.47
	M 168.6 26.21
	L 169.3 26.92
	L 170 27.63
	L 170.7 28.33
	L 171.4 29.04
	L 172.1 29.75
	L 172.8 30.45
	L 173.6 31.16
	L 174.3 31.87
	M 168.9 27.16
	L 168.8 28.15
	M 169.2 28.11
	L 169.9 28.82
	M 169.4 30.05
	L 168.8 30.86
	M 169.2 31.04
	L 169.5 31.99
	M 169.5 29.07
	L 169.4 30.05
	L 169.2 31.04
	L 169.1 32.03
	M 169.8 30.02
	L 169.7 31
	M 170.1 30.97
	L 170.9 31.67
	M 171.2 32.63
	L 171.5 33.58
	M 171.9 33.33
	L 172.8 33.64
	M 170.5 31.92
	L 171.2 32.63
	L 171.9 33.33
	L 172.6 34.04
	M 170.8 32.87
	L 170.6 33.86
	M 171.1 33.82
	L 171.8 34.53
	M 171.2 35.76
	L 171.5 36.71
	M 170.5 37.56
	L 169.6 38.01
	M 171.1 36.75
	L 170.5 37.56
	L 169.9 38.36
	M 170.9 37.73
	L 170.3 38.54
	M 170.8 38.72
	L 171.1 39.67
	M 170.9 40.66
	L 170.8 41.65
	M 171.2 41.61
	L 171.9 42.32
	M 171.4 43.55
	L 170.8 44.36
	M 171.2 44.54
	L 171.5 45.49
	M 171.5 42.56
	L 171.4 43.55
	L 171.2 44.54
	L 171.1 45.53
	M 171.8 43.51
	L 171.7 44.5
	M 170.6 39.71
	L 170.9 40.66
	L 171.2 41.61
	L 171.5 42.56
	L 171.8 43.51
	L 172.1 44.47
	M 170.4 40.7
	L 170.8 41.65
	M 169.7 42.49
	L 169.5 43.48
	M 170.3 41.69
	L 169.7 42.49
	L 169.1 43.3
	M 170.1 42.67
	L 170.4 43.62
	M 170.3 44.61
	L 170.1 45.6
	M 170.6 45.56
	L 171.3 46.27
	M 170 43.66
	L 170.3 44.61
	L 170.6 45.56
	L 170.9 46.51
	M 169.8 44.65
	L 169.2 45.46
	M 169.7 45.64
	L 170 46.59
	M 171.4 34.77
	L 171.2 35.76
	L 171.1 36.75
	L 170.9 37.73
	L 170.8 38.72
	L 170.6 39.71
	L 170.4 40.7
	L 170.3 41.69
	L 170.1 42.67
	L 170 43.66
	L 169.8 44.65
	L 169.7 45.64
	L 169.5 46.62
	M 171.7 35.72
	L 172.4 36.43
	M 172.7 37.38
	L 173.7 37.69
	M 172 36.67
	L 172.7 37.38
	L 173.4 38.09
	M 172.3 37.62
	L 173 38.33
	M 173.3 39.28
	L 173.6 40.23
	M 174.3 40.94
	L 174.2 41.93
	M 174 39.99
	L 174.3 40.94
	L 174.7 41.89
	M 174.7 40.7
	L 175.1 41.65
	M 175.4 41.4
	L 176.4 41.71
	M 177.1 42.42
	L 177.8 43.13
	M 178.1 42.73
	L 179 42.57
	M 176.2 42.11
	L 177.1 42.42
	L 178.1 42.73
	L 179 43.04
	M 176.9 42.82
	L 177.2 43.77
	M 172.6 38.58
	L 173.3 39.28
	L 174 39.99
	L 174.7 40.7
	L 175.4 41.4
	L 176.2 42.11
	L 176.9 42.82
	L 177.6 43.53
	M 172.9 39.53
	L 173.6 40.23
	M 173.9 41.18
	L 174.3 42.14
	M 173.2 40.48
	L 173.9 41.18
	L 174.7 41.89
	M 173.5 41.43
	L 173.4 42.42
	M 173.9 42.38
	L 174.6 43.09
	M 166.7 20.51
	L 167.1 21.46
	L 167.4 22.41
	L 167.7 23.36
	L 168 24.31
	L 168.3 25.26
	L 168.6 26.21
	L 168.9 27.16
	L 169.2 28.11
	L 169.5 29.07
	L 169.8 30.02
	L 170.1 30.97
	L 170.5 31.92
	L 170.8 32.87
	L 171.1 33.82
	L 171.4 34.77
	L 171.7 35.72
	L 172 36.67
	L 172.3 37.62
	L 172.6 38.58
	L 172.9 39.53
	L 173.2 40.48
	L 173.5 41.43
	L 173.9 42.38
	L 174.2 43.33
	M 166.6 21.49
	L 166.9 22.44
	M 166.7 23.43
	L 166.6 24.42
	M 167.1 24.38
	L 167.8 25.09
	M 166.4 22.48
	L 166.7 23.43
	L 167.1 24.38
	L 167.4 25.33
	M 166.3 23.47
	L 165.7 24.28
	M 166.4 25.41
	L 167.1 26.11
	M 166.6 27.35
	L 166 28.16
	M 166.7 26.36
	L 166.6 27.35
	L 166.4 28.33
	M 167.1 27.31
	L 166.9 28.3
	M 168.1 28.97
	L 169 29.28
	M 167.4 28.26
	L 168.1 28.97
	L 168.8 29.67
	M 167.7 29.21
	L 168.4 29.92
	M 166.1 24.46
	L 166.4 25.41
	L 166.7 26.36
	L 167.1 27.31
	L 167.4 28.26
	L 167.7 29.21
	L 168 30.16
	M 166 25.44
	L 166.3 26.4
	M 165.2 27.24
	L 164.3 27.69
	M 165.8 26.43
	L 165.2 27.24
	L 164.6 28.05
	M 165.7 27.42
	L 165.1 28.23
	M 164.9 29.22
	L 164 29.67
	M 163.4 30.48
	L 162.8 31.29
	M 164.3 30.03
	L 163.4 30.48
	L 162.5 30.93
	M 163.7 30.83
	L 163.6 31.82
	M 163 32.63
	L 162.4 33.44
	M 162.8 33.62
	L 163.1 34.57
	M 163.1 31.64
	L 163 32.63
	L 162.8 33.62
	L 162.7 34.61
	M 162.6 32.45
	L 161.7 32.91
	M 162 33.26
	L 161.8 34.25
	M 160.5 34.52
	L 159.9 35.33
	M 158.6 34.98
	L 157.7 34.52
	M 159.6 34.98
	L 158.6 34.98
	L 157.6 34.98
	M 158.7 35.43
	L 158.1 36.24
	M 157.2 36.7
	L 156.3 37.15
	M 157.8 35.89
	L 157.2 36.7
	L 156.6 37.5
	M 156.9 36.34
	L 155.9 36.34
	M 161.4 34.07
	L 160.5 34.52
	L 159.6 34.98
	L 158.7 35.43
	L 157.8 35.89
	L 156.9 36.34
	L 156 36.79
	M 160.8 34.88
	L 159.9 35.33
	M 160.2 35.69
	L 160.1 36.68
	M 158.7 36.95
	L 157.7 36.95
	M 159.6 36.5
	L 158.7 36.95
	L 157.8 37.41
	M 159 37.31
	L 158.9 38.29
	M 158.3 39.1
	L 158.6 40.05
	M 158.4 38.12
	L 158.3 39.1
	L 158.1 40.09
	M 157.9 38.92
	L 157 39.38
	M 157.1 40.72
	L 156.5 41.53
	M 156.4 42.52
	L 155.5 42.97
	M 155.8 43.33
	L 155.6 44.31
	M 157 41.71
	L 156.4 42.52
	L 155.8 43.33
	L 155.2 44.14
	M 156.8 42.7
	L 156.2 43.51
	M 156.6 43.68
	L 157 44.64
	M 157.3 39.73
	L 157.1 40.72
	L 157 41.71
	L 156.8 42.7
	L 156.6 43.68
	L 156.5 44.67
	M 156.7 40.54
	L 156.5 41.53
	M 155.2 41.81
	L 154.6 42.61
	M 156.1 41.35
	L 155.2 41.81
	L 154.3 42.26
	M 155.5 42.16
	L 154.6 42.61
	M 165.5 28.41
	L 164.9 29.22
	L 164.3 30.03
	L 163.7 30.83
	L 163.1 31.64
	L 162.6 32.45
	L 162 33.26
	L 161.4 34.07
	L 160.8 34.88
	L 160.2 35.69
	L 159.6 36.5
	L 159 37.31
	L 158.4 38.12
	L 157.9 38.92
	L 157.3 39.73
	L 156.7 40.54
	L 156.1 41.35
	L 155.5 42.16
	L 154.9 42.97
	M 165.3 29.39
	L 164.8 30.2
	M 164.6 31.19
	L 163.7 31.65
	M 164 32
	L 163.9 32.99
	M 165.2 30.38
	L 164.6 31.19
	L 164 32
	L 163.4 32.81
	M 165 31.37
	L 165.3 32.32
	M 164.3 33.17
	L 164.1 34.15
	M 162.8 34.43
	L 161.8 34.43
	M 161.9 34.88
	L 161.3 35.69
	M 163.7 33.98
	L 162.8 34.43
	L 161.9 34.88
	L 161 35.34
	M 163.1 34.78
	L 162.2 35.24
	M 162.4 36.58
	L 162.7 37.53
	M 162.5 35.59
	L 162.4 36.58
	L 162.2 37.57
	M 161.9 36.4
	L 161 36.86
	M 161.3 37.21
	L 161.2 38.2
	M 164.9 32.36
	L 164.3 33.17
	L 163.7 33.98
	L 163.1 34.78
	L 162.5 35.59
	L 161.9 36.4
	L 161.3 37.21
	L 160.8 38.02
	M 164.7 33.35
	L 164.1 34.15
	M 164.6 34.33
	L 164.9 35.28
	M 163.8 36.13
	L 163.7 37.12
	M 164.4 35.32
	L 163.8 36.13
	L 163.2 36.94
	M 164.2 36.31
	L 163.7 37.12
	M 164.4 38.25
	L 164.2 39.23
	M 164.1 37.3
	L 164.4 38.25
	L 164.7 39.2
	M 163.9 38.28
	L 163.3 39.09
	M 171.1 -7.15
	L 171 -6.162
	L 170.8 -5.174
	L 170.7 -4.187
	L 170.5 -3.199
	L 170.3 -2.211
	L 170.2 -1.224
	L 170 -0.2359
	L 169.9 0.7517
	L 169.7 1.739
	L 169.6 2.727
	L 169.4 3.715
	L 169.3 4.702
	L 169.1 5.69
	L 168.9 6.678
	L 168.8 7.666
	L 168.6 8.653
	L 168.5 9.641
	L 168.3 10.63
	L 168.2 11.62
	L 168 12.6
	L 167.8 13.59
	L 167.7 14.58
	L 167.5 15.57
	L 167.4 16.55
	L 167.2 17.54
	L 167.1 18.53
	L 166.9 19.52
	L 166.7 20.51
	L 166.6 21.49
	L 166.4 22.48
	L 166.3 23.47
	L 166.1 24.46
	L 166 25.44
	L 165.8 26.43
	L 165.7 27.42
	L 165.5 28.41
	L 165.3 29.39
	L 165.2 30.38
	L 165 31.37
	L 164.9 32.36
	L 164.7 33.35
	L 164.6 34.33
	L 164.4 35.32
	L 164.2 36.31
	L 164.1 37.3
	L 163.9 38.28
	L 163.8 39.27
	M 178.6 -4.337
	L 178.7 -3.349
	M 178.4 -2.398
	L 179 -1.589
	M 178.3 -3.386
	L 178.4 -2.398
	L 178.6 -1.41
	M 178 -2.435
	L 177.3 -1.728
	M 177.6 -1.484
	L 177.8 -0.496
	M 176.6 0.1744
	L 176.3 1.125
	M 175.6 1.833
	L 174.9 2.54
	M 175.3 2.784
	L 175.5 3.771
	M 175.9 0.8815
	L 175.6 1.833
	L 175.3 2.784
	L 175 3.735
	M 175.2 1.589
	L 174.3 1.898
	M 174.5 2.296
	L 174.2 3.247
	M 177.3 -0.5327
	L 176.6 0.1744
	L 175.9 0.8815
	L 175.2 1.589
	L 174.5 2.296
	L 173.8 3.003
	M 177 0.4184
	L 177.2 1.406
	M 176 2.077
	L 175.1 2.386
	M 176.7 1.369
	L 176 2.077
	L 175.3 2.784
	M 176.4 2.32
	L 176.6 3.308
	M 175.4 3.979
	L 175.1 4.93
	M 173.7 4.995
	L 173 5.702
	M 174.7 4.686
	L 173.7 4.995
	L 172.8 5.304
	M 174 5.393
	L 173 5.702
	M 173.3 6.1
	L 173 7.051
	M 172.3 7.758
	L 171.6 8.465
	M 172 8.709
	L 172.1 9.697
	M 172.6 6.807
	L 172.3 7.758
	L 172 8.709
	L 171.6 9.66
	M 171.9 7.514
	L 171.6 8.465
	M 170.2 8.53
	L 169.5 9.237
	M 168.5 9.546
	L 168.2 10.5
	M 169.3 8.839
	L 168.5 9.546
	L 167.8 10.25
	M 168.3 9.148
	L 167.3 8.992
	M 171.2 8.221
	L 170.2 8.53
	L 169.3 8.839
	L 168.3 9.148
	L 167.3 9.457
	M 170.4 8.928
	L 169.5 9.237
	M 169.7 9.636
	L 169.4 10.59
	M 168.1 10.65
	L 167.1 10.5
	M 167.1 10.96
	L 166.4 11.67
	M 169 10.34
	L 168.1 10.65
	L 167.1 10.96
	L 166.2 11.27
	M 168.3 11.05
	L 167.4 11.36
	M 176.1 3.272
	L 175.4 3.979
	L 174.7 4.686
	L 174 5.393
	L 173.3 6.1
	L 172.6 6.807
	L 171.9 7.514
	L 171.2 8.221
	L 170.4 8.928
	L 169.7 9.636
	L 169 10.34
	L 168.3 11.05
	L 167.6 11.76
	M 175.8 4.223
	L 176 5.21
	M 175.6 6.161
	L 176.2 6.97
	M 175.5 5.174
	L 175.6 6.161
	L 175.8 7.149
	M 175.2 6.125
	L 174.5 6.832
	M 174.9 7.076
	L 175 8.063
	M 174.7 9.015
	L 174.4 9.966
	M 175.5 10.81
	L 176.4 11.27
	M 174.9 10
	L 175.5 10.81
	L 176 11.62
	M 175 10.99
	L 174.7 11.94
	M 174.6 8.027
	L 174.7 9.015
	L 174.9 10
	L 175 10.99
	L 175.2 11.98
	M 174.2 8.978
	L 173.5 9.685
	M 173.2 10.64
	L 172.3 10.95
	M 173.9 9.929
	L 173.2 10.64
	L 172.5 11.34
	M 173.6 10.88
	L 172.9 11.59
	M 173.5 12.82
	L 173.2 13.77
	M 173.3 14.76
	L 172.6 15.46
	M 173 15.71
	L 173.2 16.7
	M 173.6 13.81
	L 173.3 14.76
	L 173 15.71
	L 172.7 16.66
	M 173.8 14.79
	L 173.5 15.75
	M 174.5 16.59
	L 175.4 17.04
	M 176 17.85
	L 177 17.85
	M 175.1 17.4
	L 176 17.85
	L 176.9 18.31
	M 175.7 18.21
	L 175.9 19.2
	M 176.3 19.02
	L 177.2 19.47
	M 173.9 15.78
	L 174.5 16.59
	L 175.1 17.4
	L 175.7 18.21
	L 176.3 19.02
	L 176.9 19.83
	M 174.1 16.77
	L 173.8 17.72
	M 174 18.71
	L 174.1 19.7
	M 174.3 17.76
	L 174 18.71
	L 173.6 19.66
	M 174.4 18.74
	L 175 19.55
	M 175.2 20.54
	L 175.3 21.53
	M 174.6 19.73
	L 175.2 20.54
	L 175.7 21.35
	M 174.7 20.72
	L 175.3 21.53
	M 173.3 11.83
	L 173.5 12.82
	L 173.6 13.81
	L 173.8 14.79
	L 173.9 15.78
	L 174.1 16.77
	L 174.3 17.76
	L 174.4 18.74
	L 174.6 19.73
	L 174.7 20.72
	L 174.9 21.71
	M 173 12.78
	L 172.3 13.49
	M 172.7 13.73
	L 172.9 14.72
	M 171.7 15.39
	L 170.7 15.7
	M 172.4 14.68
	L 171.7 15.39
	L 171 16.1
	M 172.1 15.64
	L 171.4 16.34
	M 171.1 17.29
	L 170.1 17.6
	M 170.4 18
	L 170.1 18.95
	M 168.7 19.02
	L 167.7 18.86
	M 169.7 18.71
	L 168.7 19.02
	L 167.8 19.33
	M 168.9 19.41
	L 168.6 20.37
	M 171.8 16.59
	L 171.1 17.29
	L 170.4 18
	L 169.7 18.71
	L 168.9 19.41
	L 168.2 20.12
	M 171.5 17.54
	L 170.8 18.24
	M 170.5 19.2
	L 170.1 20.15
	M 171.2 18.49
	L 170.5 19.2
	L 169.7 19.9
	M 170.9 19.44
	L 171 20.43
	M 170.7 21.38
	L 170.4 22.33
	M 170.9 22.37
	L 171.4 23.17
	M 170.7 24.3
	L 170 25.01
	M 170.4 25.26
	L 170.5 26.24
	M 171 23.35
	L 170.7 24.3
	L 170.4 25.26
	L 170.1 26.21
	M 171.2 24.34
	L 170.9 25.29
	M 171.3 25.33
	L 171.9 26.14
	M 172.1 27.13
	L 172.2 28.11
	M 171.5 26.32
	L 172.1 27.13
	L 172.7 27.93
	M 171.6 27.3
	L 171.3 28.26
	M 170.5 20.39
	L 170.7 21.38
	L 170.9 22.37
	L 171 23.35
	L 171.2 24.34
	L 171.3 25.33
	L 171.5 26.32
	L 171.6 27.3
	L 171.8 28.29
	M 170.2 21.34
	L 170.4 22.33
	M 170.1 23.28
	L 170.7 24.09
	M 169.9 22.29
	L 170.1 23.28
	L 170.2 24.27
	M 169.6 23.24
	L 169.8 24.23
	M 168.6 24.9
	L 167.6 25.21
	M 167.9 25.61
	L 167.6 26.56
	M 166.9 27.27
	L 167 28.25
	M 167.2 26.32
	L 166.9 27.27
	L 166.6 28.22
	M 166.5 27.02
	L 165.5 27.33
	M 164.8 28.04
	L 163.8 27.88
	M 163.9 28.35
	L 163.2 29.06
	M 161.9 28.5
	L 161.1 27.91
	M 162.9 28.66
	L 161.9 28.5
	L 160.9 28.34
	M 162 28.97
	L 161 28.81
	M 160.3 29.98
	L 159.4 30.29
	M 159.6 30.69
	L 159.3 31.64
	M 161 29.28
	L 160.3 29.98
	L 159.6 30.69
	L 158.9 31.4
	M 160.1 29.58
	L 159.1 29.43
	M 159.1 29.89
	L 158.4 30.6
	M 165.8 27.73
	L 164.8 28.04
	L 163.9 28.35
	L 162.9 28.66
	L 162 28.97
	L 161 29.28
	L 160.1 29.58
	L 159.1 29.89
	L 158.2 30.2
	M 165.1 28.44
	L 164.8 29.39
	M 163.4 29.45
	L 162.4 29.3
	M 164.4 29.14
	L 163.4 29.45
	L 162.5 29.76
	M 163.6 29.85
	L 162.7 30.16
	M 162.9 30.56
	L 162.6 31.51
	M 161.9 32.22
	L 161.2 32.92
	M 161.6 33.17
	L 161.8 34.16
	M 162.2 31.27
	L 161.9 32.22
	L 161.6 33.17
	L 161.3 34.12
	M 161.5 31.97
	L 160.6 32.28
	M 160.5 33.63
	L 160.7 34.62
	M 159.5 35.29
	L 158.5 35.6
	M 158.8 36
	L 158.5 36.95
	M 160.2 34.58
	L 159.5 35.29
	L 158.8 36
	L 158.1 36.7
	M 159.9 35.53
	L 159.2 36.24
	M 159.7 37.47
	L 159.4 38.42
	M 159.9 38.46
	L 160.5 39.27
	M 159.6 36.48
	L 159.7 37.47
	L 159.9 38.46
	L 160.1 39.45
	M 159.3 37.44
	L 158.6 38.14
	M 159.1 39.37
	L 159.7 40.18
	M 159.9 41.17
	L 160.8 41.62
	M 159.3 40.36
	L 159.9 41.17
	L 160.5 41.98
	M 159.4 41.35
	L 159.1 42.3
	M 159 38.39
	L 159.1 39.37
	L 159.3 40.36
	L 159.4 41.35
	L 159.6 42.34
	M 158.7 39.34
	L 158.8 40.33
	M 157.6 41
	L 156.7 41.3
	M 156.9 41.7
	L 156.6 42.65
	M 158.3 40.29
	L 157.6 41
	L 156.9 41.7
	L 156.2 42.41
	M 158 41.24
	L 157.3 41.95
	M 157.7 42.19
	L 157.9 43.18
	M 160.8 32.68
	L 160.5 33.63
	L 160.2 34.58
	L 159.9 35.53
	L 159.6 36.48
	L 159.3 37.44
	L 159 38.39
	L 158.7 39.34
	L 158.3 40.29
	L 158 41.24
	L 157.7 42.19
	L 157.4 43.14
	M 160.1 33.39
	L 159.2 33.7
	M 158.5 34.4
	L 157.5 34.25
	M 159.4 34.09
	L 158.5 34.4
	L 157.5 34.71
	M 158.7 34.8
	L 158.4 35.75
	M 157 35.82
	L 156.1 35.66
	M 156.1 36.13
	L 155.4 36.83
	M 154.2 36.28
	L 153.3 35.69
	M 155.1 36.44
	L 154.2 36.28
	L 153.2 36.12
	M 154.2 36.74
	L 153.2 36.59
	M 158 35.51
	L 157 35.82
	L 156.1 36.13
	L 155.1 36.44
	L 154.2 36.74
	L 153.2 37.05
	M 157.3 36.22
	L 156.3 36.52
	M 156.6 36.92
	L 156.3 37.87
	M 155.6 38.58
	L 155.7 39.57
	M 155.9 37.63
	L 155.6 38.58
	L 155.3 39.53
	M 155.2 38.34
	L 154.9 39.29
	M 154.1 40
	L 154.3 40.98
	M 153.1 41.65
	L 152.2 41.96
	M 153.8 40.95
	L 153.1 41.65
	L 152.4 42.36
	M 153.5 41.9
	L 153.7 42.88
	M 154.5 39.04
	L 154.1 40
	L 153.8 40.95
	L 153.5 41.9
	L 153.2 42.85
	M 153.7 39.75
	L 152.8 40.06
	M 152.1 40.77
	L 151.1 40.61
	M 153 40.46
	L 152.1 40.77
	L 151.1 41.08
	M 152.3 41.17
	L 151.4 41.47
	M 169.3 24.19
	L 168.6 24.9
	L 167.9 25.61
	L 167.2 26.32
	L 166.5 27.02
	L 165.8 27.73
	L 165.1 28.44
	L 164.4 29.14
	L 163.6 29.85
	L 162.9 30.56
	L 162.2 31.27
	L 161.5 31.97
	L 160.8 32.68
	L 160.1 33.39
	L 159.4 34.09
	L 158.7 34.8
	L 158 35.51
	L 157.3 36.22
	L 156.6 36.92
	L 155.9 37.63
	L 155.2 38.34
	L 154.5 39.04
	L 153.7 39.75
	L 153 40.46
	L 152.3 41.17
	L 151.6 41.87
	M 169 25.15
	L 169.2 26.13
	M 168 26.8
	L 167 27.11
	M 168.7 26.1
	L 168 26.8
	L 167.3 27.51
	M 168.4 27.05
	L 168.5 28.04
	M 168.2 28.99
	L 168.8 29.8
	M 169 30.78
	L 169.1 31.77
	M 168.4 29.97
	L 169 30.78
	L 169.6 31.59
	M 168.5 30.96
	L 169.1 31.77
	M 168.1 28
	L 168.2 28.99
	L 168.4 29.97
	L 168.5 30.96
	L 168.7 31.95
	M 167.8 28.95
	L 167.1 29.66
	M 167.5 29.9
	L 167.6 30.89
	M 166.4 31.56
	L 165.5 31.87
	M 167.1 30.85
	L 166.4 31.56
	L 165.7 32.27
	M 166.8 31.8
	L 167 32.79
	M 166.7 33.74
	L 167.3 34.55
	M 166.5 35.68
	L 166.7 36.67
	M 166.8 34.73
	L 166.5 35.68
	L 166.2 36.63
	M 167 35.72
	L 167.6 36.53
	M 166.8 37.66
	L 166.1 38.36
	M 166.7 39.59
	L 167.3 40.4
	M 166.5 38.61
	L 166.7 39.59
	L 166.8 40.58
	M 166.2 39.56
	L 166.4 40.55
	M 167.2 36.71
	L 166.8 37.66
	L 166.5 38.61
	L 166.2 39.56
	L 165.9 40.51
	M 167.3 37.69
	L 167 38.64
	M 167.5 38.68
	L 168.1 39.49
	M 167.3 40.62
	L 166.6 41.33
	M 167.6 39.67
	L 167.3 40.62
	L 167 41.57
	M 167.8 40.66
	L 167.5 41.61
	M 168.5 42.45
	L 168.7 43.44
	M 167.9 41.64
	L 168.5 42.45
	L 169.1 43.26
	M 168.1 42.63
	L 168.7 43.44
	M 168.8 44.43
	L 169.7 44.88
	M 169.6 46.22
	L 169.3 47.18
	M 169.7 47.21
	L 170.3 48.02
	M 169.4 45.24
	L 169.6 46.22
	L 169.7 47.21
	L 169.9 48.2
	M 170 46.05
	L 170.2 47.03
	M 170.6 46.85
	L 171.5 47.31
	M 168.2 43.62
	L 168.8 44.43
	L 169.4 45.24
	L 170 46.05
	L 170.6 46.85
	L 171.2 47.66
	M 168.4 44.61
	L 168.1 45.56
	M 168.2 46.55
	L 168.4 47.53
	M 168.6 45.59
	L 168.2 46.55
	L 167.9 47.5
	M 168.7 46.58
	L 168.4 47.53
	M 168.9 47.57
	L 169.5 48.38
	M 166.5 32.75
	L 166.7 33.74
	L 166.8 34.73
	L 167 35.72
	L 167.2 36.71
	L 167.3 37.69
	L 167.5 38.68
	L 167.6 39.67
	L 167.8 40.66
	L 167.9 41.64
	L 168.1 42.63
	L 168.2 43.62
	L 168.4 44.61
	L 168.6 45.59
	L 168.7 46.58
	L 168.9 47.57
	L 169 48.56
	M 166.2 33.71
	L 165.5 34.41
	M 165.9 34.66
	L 166.1 35.64
	M 165.8 36.6
	L 165.4 37.55
	M 165.6 35.61
	L 165.8 36.6
	L 165.9 37.58
	M 165.3 36.56
	L 164.6 37.27
	M 165.1 38.5
	L 164.8 39.45
	M 165.9 40.29
	L 166 41.28
	M 165.3 39.48
	L 165.9 40.29
	L 166.5 41.1
	M 165.4 40.47
	L 165.1 41.42
	M 165 37.51
	L 165.1 38.5
	L 165.3 39.48
	L 165.4 40.47
	L 165.6 41.46
	M 164.7 38.46
	L 164 39.17
	M 164.4 39.41
	L 164.5 40.4
	M 163.3 41.07
	L 162.4 41.38
	M 162.6 41.78
	L 162.3 42.73
	M 164.1 40.36
	L 163.3 41.07
	L 162.6 41.78
	L 161.9 42.48
	M 163.7 41.31
	L 163 42.02
	M 163.4 42.26
	L 163.6 43.25
	M 163.3 44.2
	L 163 45.15
	M 163.4 45.19
	L 164 46
	M 164.2 46.99
	L 164.3 47.98
	M 164.8 47.8
	L 165.7 48.25
	M 163.6 46.18
	L 164.2 46.99
	L 164.8 47.8
	L 165.4 48.61
	M 163.8 47.17
	L 163.4 48.12
	M 163.6 49.11
	L 163.8 50.09
	M 163.4 51.04
	L 163.1 52
	M 163.3 50.06
	L 163.4 51.04
	L 163.6 52.03
	M 163 51.01
	L 163.1 52
	M 163.9 48.15
	L 163.6 49.11
	L 163.3 50.06
	L 163 51.01
	L 162.7 51.96
	M 164.1 49.14
	L 164.7 49.95
	M 163.9 51.08
	L 164.1 52.07
	M 164.2 50.13
	L 163.9 51.08
	L 163.6 52.03
	M 164.4 51.12
	L 164.1 52.07
	M 164.5 52.11
	L 165.1 52.91
	M 165.3 53.9
	L 165.4 54.89
	M 165.9 54.71
	L 166.8 55.16
	M 166.6 56.51
	L 166.3 57.46
	M 166.5 55.52
	L 166.6 56.51
	L 166.8 57.5
	M 167 56.33
	L 167.9 56.78
	M 168.5 57.59
	L 169.1 58.4
	M 167.6 57.14
	L 168.5 57.59
	L 169.4 58.05
	M 168.2 57.95
	L 168.4 58.93
	M 164.7 53.09
	L 165.3 53.9
	L 165.9 54.71
	L 166.5 55.52
	L 167 56.33
	L 167.6 57.14
	L 168.2 57.95
	L 168.8 58.76
	M 164.8 54.08
	L 164.5 55.03
	M 165 55.07
	L 165.6 55.88
	M 164.8 57.01
	L 165 57.99
	M 165.2 56.06
	L 164.8 57.01
	L 164.5 57.96
	M 165.3 57.04
	L 165 57.99
	M 165.5 58.03
	L 166.1 58.84
	M 166.2 59.83
	L 166.4 60.82
	M 166.8 60.64
	L 167.7 61.09
	M 165.6 59.02
	L 166.2 59.83
	L 166.8 60.64
	L 167.4 61.45
	M 165.8 60.01
	L 166.4 60.82
	M 166.5 61.8
	L 166.7 62.79
	M 167.1 62.61
	L 168 63.07
	M 167.9 64.41
	L 168.4 65.22
	M 167.7 63.42
	L 167.9 64.41
	L 168 65.4
	M 168.3 64.23
	L 168.4 65.22
	M 169.8 65.49
	L 170.4 66.3
	M 168.9 65.04
	L 169.8 65.49
	L 170.7 65.95
	M 169.5 65.85
	L 169.6 66.84
	M 170.9 67.11
	L 171.5 67.92
	M 172.4 68.37
	L 172.6 69.36
	M 171.8 67.57
	L 172.4 68.37
	L 173 69.18
	M 172.7 68.02
	L 173.3 68.83
	M 170.1 66.66
	L 170.9 67.11
	L 171.8 67.57
	L 172.7 68.02
	L 173.6 68.47
	M 170.6 67.47
	L 171.5 67.92
	M 172.1 68.73
	L 172.7 69.54
	M 173 69.18
	L 174 69.18
	M 171.2 68.28
	L 172.1 68.73
	L 173 69.18
	L 173.9 69.64
	M 171.8 69.08
	L 172.7 69.54
	M 165.9 60.99
	L 166.5 61.8
	L 167.1 62.61
	L 167.7 63.42
	L 168.3 64.23
	L 168.9 65.04
	L 169.5 65.85
	L 170.1 66.66
	L 170.6 67.47
	L 171.2 68.28
	L 171.8 69.08
	L 172.4 69.89
	M 166.1 61.98
	L 165.8 62.93
	M 166.3 62.97
	L 166.8 63.78
	M 166.1 64.91
	L 166.3 65.9
	M 166.4 63.96
	L 166.1 64.91
	L 165.8 65.86
	M 166.6 64.95
	L 166.3 65.9
	M 166.4 66.88
	L 165.7 67.59
	M 165.4 68.54
	L 164.4 68.85
	M 164.7 69.25
	L 164.4 70.2
	M 166.1 67.83
	L 165.4 68.54
	L 164.7 69.25
	L 164 69.96
	M 165.8 68.79
	L 165.1 69.49
	M 165.5 69.74
	L 165.6 70.72
	M 166.7 65.93
	L 166.4 66.88
	L 166.1 67.83
	L 165.8 68.79
	L 165.5 69.74
	L 165.2 70.69
	M 166.9 66.92
	L 167.5 67.73
	M 167.6 68.72
	L 167.8 69.7
	M 167 67.91
	L 167.6 68.72
	L 168.2 69.53
	M 167.2 68.9
	L 166.9 69.85
	M 163.1 43.22
	L 163.3 44.2
	L 163.4 45.19
	L 163.6 46.18
	L 163.8 47.17
	L 163.9 48.15
	L 164.1 49.14
	L 164.2 50.13
	L 164.4 51.12
	L 164.5 52.11
	L 164.7 53.09
	L 164.8 54.08
	L 165 55.07
	L 165.2 56.06
	L 165.3 57.04
	L 165.5 58.03
	L 165.6 59.02
	L 165.8 60.01
	L 165.9 60.99
	L 166.1 61.98
	L 166.3 62.97
	L 166.4 63.96
	L 166.6 64.95
	L 166.7 65.93
	L 166.9 66.92
	L 167 67.91
	L 167.2 68.9
	L 167.3 69.88
	M 162.8 44.17
	L 162.1 44.87
	M 162.5 45.12
	L 162.7 46.11
	M 162.4 47.06
	L 162 48.01
	M 162.5 48.04
	L 163.1 48.85
	M 162.2 46.07
	L 162.4 47.06
	L 162.5 48.04
	L 162.7 49.03
	M 161.9 47.02
	L 162 48.01
	M 160.9 48.68
	L 159.9 48.99
	M 160.2 49.39
	L 159.9 50.34
	M 158.5 50.4
	L 157.5 50.25
	M 157.6 50.71
	L 156.8 51.42
	M 159.5 50.09
	L 158.5 50.4
	L 157.6 50.71
	L 156.6 51.02
	M 158.8 50.8
	L 157.8 51.11
	M 158 51.51
	L 157.7 52.46
	M 161.6 47.97
	L 160.9 48.68
	L 160.2 49.39
	L 159.5 50.09
	L 158.8 50.8
	L 158 51.51
	L 157.3 52.21
	M 161.3 48.92
	L 160.6 49.63
	M 161.1 50.86
	L 161.7 51.67
	M 161 49.87
	L 161.1 50.86
	L 161.3 51.85
	M 160.7 50.82
	L 159.9 51.53
	M 160.3 51.78
	L 160.5 52.76
	M 160.2 53.71
	L 159.9 54.67
	M 160 55.65
	L 160.2 56.64
	M 160.3 54.7
	L 160 55.65
	L 159.7 56.6
	M 160.5 55.69
	L 160.2 56.64
	M 160.7 56.68
	L 161.2 57.49
	M 161.4 58.47
	L 162.3 58.93
	M 160.8 57.66
	L 161.4 58.47
	L 162 59.28
	M 161 58.65
	L 161.6 59.46
	M 161.7 60.45
	L 162.6 60.9
	M 162.5 62.25
	L 162.2 63.2
	M 162.3 61.26
	L 162.5 62.25
	L 162.6 63.23
	M 162.9 62.07
	L 163 63.06
	M 163.5 62.88
	L 164.4 63.33
	M 161.1 59.64
	L 161.7 60.45
	L 162.3 61.26
	L 162.9 62.07
	L 163.5 62.88
	L 164.1 63.69
	M 161.3 60.63
	L 161 61.58
	M 161.1 62.57
	L 160.4 63.27
	M 160.8 63.52
	L 161 64.51
	M 161.4 61.62
	L 161.1 62.57
	L 160.8 63.52
	L 160.5 64.47
	M 161.6 62.6
	L 162.2 63.41
	M 162.3 64.4
	L 162.5 65.39
	M 161.8 63.59
	L 162.3 64.4
	L 162.9 65.21
	M 161.9 64.58
	L 162.5 65.39
	M 160 52.73
	L 160.2 53.71
	L 160.3 54.7
	L 160.5 55.69
	L 160.7 56.68
	L 160.8 57.66
	L 161 58.65
	L 161.1 59.64
	L 161.3 60.63
	L 161.4 61.62
	L 161.6 62.6
	L 161.8 63.59
	L 161.9 64.58
	L 162.1 65.57
	M 159.7 53.68
	L 159 54.38
	M 159.6 55.62
	L 159.3 56.57
	M 159.4 54.63
	L 159.6 55.62
	L 159.7 56.6
	M 159.1 55.58
	L 158.4 56.29
	M 158.1 57.24
	L 157.1 57.55
	M 157.4 57.94
	L 157.1 58.9
	M 156.4 59.6
	L 156.5 60.59
	M 156.7 58.65
	L 156.4 59.6
	L 156.1 60.55
	M 156 59.36
	L 155 59.67
	M 155.3 60.07
	L 155 61.02
	M 158.8 56.53
	L 158.1 57.24
	L 157.4 57.94
	L 156.7 58.65
	L 156 59.36
	L 155.3 60.07
	L 154.6 60.77
	M 158.5 57.48
	L 157.8 58.19
	M 157.5 59.14
	L 156.5 59.45
	M 156.8 59.85
	L 156.5 60.8
	M 158.2 58.43
	L 157.5 59.14
	L 156.8 59.85
	L 156.1 60.55
	M 157.9 59.38
	L 157.2 60.09
	M 157.7 61.32
	L 157.4 62.27
	M 157.9 62.31
	L 158.5 63.12
	M 157.6 60.33
	L 157.7 61.32
	L 157.9 62.31
	L 158 63.3
	M 157.3 61.29
	L 156.5 61.99
	M 178.9 -5.288
	L 178.6 -4.337
	L 178.3 -3.386
	L 178 -2.435
	L 177.6 -1.484
	L 177.3 -0.5327
	L 177 0.4184
	L 176.7 1.369
	L 176.4 2.32
	L 176.1 3.272
	L 175.8 4.223
	L 175.5 5.174
	L 175.2 6.125
	L 174.9 7.076
	L 174.6 8.027
	L 174.2 8.978
	L 173.9 9.929
	L 173.6 10.88
	L 173.3 11.83
	L 173 12.78
	L 172.7 13.73
	L 172.4 14.68
	L 172.1 15.64
	L 171.8 16.59
	L 171.5 17.54
	L 171.2 18.49
	L 170.9 19.44
	L 170.5 20.39
	L 170.2 21.34
	L 169.9 22.29
	L 169.6 23.24
	L 169.3 24.19
	L 169 25.15
	L 168.7 26.1
	L 168.4 27.05
	L 168.1 28
	L 167.8 28.95
	L 167.5 29.9
	L 167.1 30.85
	L 166.8 31.8
	L 166.5 32.75
	L 166.2 33.71
	L 165.9 34.66
	L 165.6 35.61
	L 165.3 36.56
	L 165 37.51
	L 164.7 38.46
	L 164.4 39.41
	L 164.1 40.36
	L 163.7 41.31
	L 163.4 42.26
	L 163.1 43.22
	L 162.8 44.17
	L 162.5 45.12
	L 162.2 46.07
	L 161.9 47.02
	L 161.6 47.97
	L 161.3 48.92
	L 161 49.87
	L 160.7 50.82
	L 160.3 51.78
	L 160 52.73
	L 159.7 53.68
	L 159.4 54.63
	L 159.1 55.58
	L 158.8 56.53
	L 158.5 57.48
	L 158.2 58.43
	L 157.9 59.38
	L 157.6 60.33
	L 157.3 61.29
	L 156.9 62.24
	M 186.5 -2.438
	L 185.9 -1.629
	M 186.6 -0.4997
	L 186.5 0.488
	M 186.3 -1.451
	L 186.6 -0.4997
	L 186.9 0.4513
	M 186.2 -0.4631
	L 185.6 0.3459
	M 186 0.5246
	L 186.3 1.476
	M 186.2 2.463
	L 186 3.451
	M 186.5 3.414
	L 187.2 4.122
	M 186.6 5.353
	L 186 6.162
	M 186.5 6.341
	L 186.8 7.292
	M 186.8 4.365
	L 186.6 5.353
	L 186.5 6.341
	L 186.3 7.329
	M 187.1 5.317
	L 186.9 6.304
	M 187.4 6.268
	L 188.1 6.975
	M 188.4 7.926
	L 189.4 8.235
	M 187.7 7.219
	L 188.4 7.926
	L 189.1 8.633
	M 188 8.17
	L 187.9 9.157
	M 188.3 9.121
	L 189 9.828
	M 185.9 1.512
	L 186.2 2.463
	L 186.5 3.414
	L 186.8 4.365
	L 187.1 5.317
	L 187.4 6.268
	L 187.7 7.219
	L 188 8.17
	L 188.3 9.121
	L 188.6 10.07
	M 185.7 2.5
	L 186 3.451
	M 185 4.297
	L 184.8 5.284
	M 185.5 3.488
	L 185 4.297
	L 184.4 5.106
	M 185.4 4.475
	L 184.8 5.284
	M 185.2 5.463
	L 185.5 6.414
	M 185.4 7.402
	L 185.2 8.389
	M 185.1 6.451
	L 185.4 7.402
	L 185.7 8.353
	M 184.9 7.438
	L 185.2 8.389
	M 184.2 9.235
	L 183.3 9.689
	M 182.7 10.5
	L 181.7 10.5
	M 181.8 10.95
	L 181.2 11.76
	M 183.6 10.04
	L 182.7 10.5
	L 181.8 10.95
	L 180.9 11.41
	M 183 10.85
	L 182.1 11.31
	M 182.4 11.66
	L 182.3 12.65
	M 181.7 13.46
	L 181.1 14.27
	M 181.8 12.47
	L 181.7 13.46
	L 181.5 14.45
	M 181.2 13.28
	L 180.3 13.73
	M 179.8 14.54
	L 178.8 14.54
	M 178.9 15
	L 178.3 15.81
	M 177 15.45
	L 176.1 15.91
	M 178 15.45
	L 177 15.45
	L 176 15.45
	M 177.1 15.91
	L 176.1 15.91
	M 175.6 17.17
	L 174.7 17.62
	M 175 17.98
	L 174.9 18.96
	M 176.2 16.36
	L 175.6 17.17
	L 175 17.98
	L 174.4 18.79
	M 175.3 16.81
	L 174.7 17.62
	M 180.6 14.09
	L 179.8 14.54
	L 178.9 15
	L 178 15.45
	L 177.1 15.91
	L 176.2 16.36
	L 175.3 16.81
	L 174.4 17.27
	M 180.1 14.9
	L 179.9 15.89
	M 178.6 16.16
	L 178 16.97
	M 179.5 15.71
	L 178.6 16.16
	L 177.7 16.62
	M 178.9 16.52
	L 178 16.97
	M 178.1 18.31
	L 178.4 19.26
	M 177.4 20.11
	L 176.5 20.56
	M 176.8 20.92
	L 176.7 21.91
	M 178 19.3
	L 177.4 20.11
	L 176.8 20.92
	L 176.2 21.73
	M 177.8 20.29
	L 178.1 21.24
	M 178 22.23
	L 177.8 23.21
	M 178.3 23.18
	L 179 23.89
	M 177.7 21.28
	L 178 22.23
	L 178.3 23.18
	L 178.6 24.13
	M 177.5 22.26
	L 176.9 23.07
	M 177.4 23.25
	L 177.7 24.2
	M 178.3 17.33
	L 178.1 18.31
	L 178 19.3
	L 177.8 20.29
	L 177.7 21.28
	L 177.5 22.26
	L 177.4 23.25
	L 177.2 24.24
	M 177.7 18.13
	L 176.8 18.59
	M 177.1 18.94
	L 177 19.93
	M 176.4 20.74
	L 175.8 21.55
	M 176.2 21.73
	L 176.5 22.68
	M 176.5 19.75
	L 176.4 20.74
	L 176.2 21.73
	L 176.1 22.72
	M 175.9 20.56
	L 175.8 21.55
	M 184.8 8.426
	L 184.2 9.235
	L 183.6 10.04
	L 183 10.85
	L 182.4 11.66
	L 181.8 12.47
	L 181.2 13.28
	L 180.6 14.09
	L 180.1 14.9
	L 179.5 15.71
	L 178.9 16.52
	L 178.3 17.33
	L 177.7 18.13
	L 177.1 18.94
	L 176.5 19.75
	L 175.9 20.56
	L 175.4 21.37
	M 184.6 9.414
	L 184 10.22
	M 184.4 10.4
	L 184.8 11.35
	M 184.6 12.34
	L 184.4 13.33
	M 184.9 13.29
	L 185.6 14
	M 184.3 11.39
	L 184.6 12.34
	L 184.9 13.29
	L 185.2 14.24
	M 184.1 12.38
	L 184.4 13.33
	M 183.4 14.17
	L 183.2 15.16
	M 181.9 15.44
	L 180.9 15.44
	M 182.8 14.98
	L 181.9 15.44
	L 181 15.89
	M 182.2 15.79
	L 181.3 16.25
	M 181.6 16.6
	L 181.5 17.59
	M 184 13.36
	L 183.4 14.17
	L 182.8 14.98
	L 182.2 15.79
	L 181.6 16.6
	L 181 17.41
	M 183.8 14.35
	L 183.2 15.16
	M 183.7 15.34
	L 184 16.29
	M 182.9 17.14
	L 182 17.59
	M 182.3 17.95
	L 182.2 18.93
	M 183.5 16.33
	L 182.9 17.14
	L 182.3 17.95
	L 181.7 18.75
	M 183.4 17.32
	L 182.8 18.12
	M 183.2 18.3
	L 183.5 19.25
	M 183.4 20.24
	L 183.2 21.23
	M 183.7 21.19
	L 184.4 21.9
	M 184.7 22.85
	L 185 23.8
	M 185.4 23.56
	L 186.3 23.87
	M 184 22.14
	L 184.7 22.85
	L 185.4 23.56
	L 186.1 24.27
	M 184.3 23.09
	L 185 23.8
	M 184.4 25.03
	L 183.8 25.84
	M 184.3 26.02
	L 184.6 26.97
	M 183.5 27.82
	L 183.4 28.81
	M 184.1 27.01
	L 183.5 27.82
	L 182.9 28.63
	M 184 28
	L 183.4 28.81
	M 184.1 29.94
	L 184.8 30.64
	M 183.8 28.98
	L 184.1 29.94
	L 184.4 30.89
	M 183.6 29.97
	L 183.1 30.78
	M 183.5 30.96
	L 183.8 31.91
	M 184.6 24.05
	L 184.4 25.03
	L 184.3 26.02
	L 184.1 27.01
	L 184 28
	L 183.8 28.98
	L 183.6 29.97
	L 183.5 30.96
	L 183.3 31.95
	M 184.9 25
	L 184.7 25.98
	M 185 26.94
	L 184.5 27.74
	M 184.9 27.92
	L 185.2 28.87
	M 185.2 25.95
	L 185 26.94
	L 184.9 27.92
	L 184.7 28.91
	M 185.5 26.9
	L 185.4 27.89
	M 186.5 28.56
	L 187.5 28.87
	M 185.8 27.85
	L 186.5 28.56
	L 187.2 29.26
	M 186.1 28.8
	L 186.8 29.51
	M 187.1 30.46
	L 187.5 31.41
	M 188.2 32.12
	L 188 33.11
	M 188.5 33.07
	L 189.2 33.78
	M 187.9 31.17
	L 188.2 32.12
	L 188.5 33.07
	L 188.8 34.02
	M 188.6 31.87
	L 189.5 32.18
	M 190.2 32.89
	L 190.9 33.6
	M 189.3 32.58
	L 190.2 32.89
	L 191.2 33.2
	M 190 33.29
	L 190.3 34.24
	M 190.7 33.99
	L 191.6 34.3
	M 186.4 29.75
	L 187.1 30.46
	L 187.9 31.17
	L 188.6 31.87
	L 189.3 32.58
	L 190 33.29
	L 190.7 33.99
	L 191.4 34.7
	M 186.8 30.7
	L 186.6 31.69
	M 186.9 32.64
	L 186.3 33.45
	M 187.1 31.65
	L 186.9 32.64
	L 186.7 33.63
	M 187.4 32.61
	L 187.2 33.59
	M 187.7 33.56
	L 188.4 34.26
	M 183 19.29
	L 183.4 20.24
	L 183.7 21.19
	L 184 22.14
	L 184.3 23.09
	L 184.6 24.05
	L 184.9 25
	L 185.2 25.95
	L 185.5 26.9
	L 185.8 27.85
	L 186.1 28.8
	L 186.4 29.75
	L 186.8 30.7
	L 187.1 31.65
	L 187.4 32.61
	L 187.7 33.56
	L 188 34.51
	M 182.9 20.28
	L 182.3 21.09
	M 182.1 22.08
	L 181.3 22.53
	M 182.7 21.27
	L 182.1 22.08
	L 181.6 22.88
	M 182.6 22.25
	L 182 23.06
	M 182.4 23.24
	L 182.7 24.19
	M 182.6 25.18
	L 182.4 26.17
	M 182.9 26.13
	L 183.6 26.84
	M 182.3 24.23
	L 182.6 25.18
	L 182.9 26.13
	L 183.2 27.08
	M 182.1 25.22
	L 181.5 26.03
	M 182.3 27.16
	L 183 27.86
	M 182.4 29.09
	L 181.8 29.9
	M 182.3 30.08
	L 182.6 31.03
	M 182.6 28.11
	L 182.4 29.09
	L 182.3 30.08
	L 182.1 31.07
	M 182.9 29.06
	L 182.7 30.05
	M 183.2 30.01
	L 183.9 30.72
	M 181.9 26.2
	L 182.3 27.16
	L 182.6 28.11
	L 182.9 29.06
	L 183.2 30.01
	L 183.5 30.96
	M 181.8 27.19
	L 182.1 28.14
	M 181.9 29.13
	L 182.7 29.84
	M 181.6 28.18
	L 181.9 29.13
	L 182.3 30.08
	M 181.5 29.17
	L 180.9 29.98
	M 181.3 30.16
	L 181.6 31.11
	M 180.6 31.95
	L 179.7 32.41
	M 179.1 33.21
	L 178.1 33.21
	M 178.2 33.67
	L 177.6 34.48
	M 180 32.76
	L 179.1 33.21
	L 178.2 33.67
	L 177.3 34.12
	M 179.4 33.57
	L 178.5 34.02
	M 177.9 34.83
	L 177.3 35.64
	M 176 35.29
	L 175.1 34.83
	M 177 35.29
	L 176 35.29
	L 175 35.29
	M 176.1 35.74
	L 175.1 35.74
	M 178.8 34.38
	L 177.9 34.83
	L 177 35.29
	L 176.1 35.74
	L 175.2 36.19
	M 178.2 35.19
	L 178.1 36.18
	M 177.5 36.98
	L 177.8 37.94
	M 177.6 36
	L 177.5 36.98
	L 177.3 37.97
	M 177.1 36.81
	L 176.2 37.26
	M 175.6 38.07
	L 175 38.88
	M 173.7 38.52
	L 172.8 38.98
	M 174.7 38.52
	L 173.7 38.52
	L 172.7 38.52
	M 173.8 38.98
	L 172.8 38.98
	M 172.3 40.24
	L 171.4 40.69
	M 172.9 39.43
	L 172.3 40.24
	L 171.7 41.05
	M 172 39.89
	L 171 39.89
	M 170.5 41.15
	L 170.4 42.14
	M 169.8 42.94
	L 170.1 43.9
	M 169.9 41.96
	L 169.8 42.94
	L 169.6 43.93
	M 169.4 42.77
	L 169.2 43.75
	M 171.1 40.34
	L 170.5 41.15
	L 169.9 41.96
	L 169.4 42.77
	L 168.8 43.58
	M 170.2 40.79
	L 169.2 40.79
	M 169.3 41.25
	L 168.7 42.06
	M 167.4 41.7
	L 166.6 41.25
	M 166.4 41.7
	L 165.6 42.15
	M 168.4 41.7
	L 167.4 41.7
	L 166.4 41.7
	L 165.4 41.7
	M 167.6 42.15
	L 167 42.96
	M 166.1 43.42
	L 165.2 43.87
	M 166.7 42.61
	L 166.1 43.42
	L 165.5 44.23
	M 165.8 43.06
	L 164.8 43.06
	M 176.5 37.62
	L 175.6 38.07
	L 174.7 38.52
	L 173.8 38.98
	L 172.9 39.43
	L 172 39.89
	L 171.1 40.34
	L 170.2 40.79
	L 169.3 41.25
	L 168.4 41.7
	L 167.6 42.15
	L 166.7 42.61
	L 165.8 43.06
	L 164.9 43.52
	M 175.9 38.42
	L 175 38.88
	M 175.3 39.23
	L 175.1 40.22
	M 173.8 40.5
	L 172.8 40.5
	M 172.9 40.95
	L 172.3 41.76
	M 174.7 40.04
	L 173.8 40.5
	L 172.9 40.95
	L 172 41.4
	M 174.1 40.85
	L 173.2 41.31
	M 173.4 42.65
	L 172.8 43.46
	M 173.2 43.64
	L 173.5 44.59
	M 172.5 45.43
	L 172.3 46.42
	M 173.1 44.62
	L 172.5 45.43
	L 171.9 46.24
	M 172.9 45.61
	L 173.2 46.56
	M 173.5 41.66
	L 173.4 42.65
	L 173.2 43.64
	L 173.1 44.62
	L 172.9 45.61
	L 172.7 46.6
	M 172.9 42.47
	L 172.8 43.46
	M 172.2 44.27
	L 171.6 45.07
	M 172 45.25
	L 172.3 46.2
	M 172.3 43.28
	L 172.2 44.27
	L 172 45.25
	L 171.9 46.24
	M 171.8 44.09
	L 171.6 45.07
	M 181.2 31.14
	L 180.6 31.95
	L 180 32.76
	L 179.4 33.57
	L 178.8 34.38
	L 178.2 35.19
	L 177.6 36
	L 177.1 36.81
	L 176.5 37.62
	L 175.9 38.42
	L 175.3 39.23
	L 174.7 40.04
	L 174.1 40.85
	L 173.5 41.66
	L 172.9 42.47
	L 172.3 43.28
	L 171.8 44.09
	L 171.2 44.9
	M 181 32.13
	L 180.4 32.94
	M 181.2 34.07
	L 181.9 34.78
	M 180.9 33.12
	L 181.2 34.07
	L 181.5 35.02
	M 180.7 34.11
	L 180.1 34.92
	M 180.5 35.09
	L 180.8 36.04
	M 180.7 37.03
	L 181.4 37.74
	M 181.7 38.69
	L 182 39.64
	M 181 37.98
	L 181.7 38.69
	L 182.4 39.4
	M 181.3 38.93
	L 181.2 39.92
	M 181.6 39.89
	L 182.3 40.59
	M 180.4 36.08
	L 180.7 37.03
	L 181 37.98
	L 181.3 38.93
	L 181.6 39.89
	L 181.9 40.84
	M 180.2 37.07
	L 179.6 37.88
	M 180.1 38.06
	L 180.4 39.01
	M 179.3 39.85
	L 179.2 40.84
	M 179.9 39.04
	L 179.3 39.85
	L 178.7 40.66
	M 179.8 40.03
	L 180.1 40.98
	M 179.9 41.97
	L 179.8 42.96
	M 179.6 41.02
	L 179.9 41.97
	L 180.2 42.92
	M 179.4 42.01
	L 179.8 42.96
	M 178.7 43.8
	L 177.8 44.26
	M 178.1 44.61
	L 178 45.6
	M 177.4 46.41
	L 177.7 47.36
	M 177.5 45.42
	L 177.4 46.41
	L 177.2 47.4
	M 176.9 46.23
	L 176.8 47.22
	M 175.5 47.49
	L 174.9 48.3
	M 173.6 47.95
	L 172.7 47.49
	M 172.6 47.95
	L 171.7 48.4
	M 174.6 47.95
	L 173.6 47.95
	L 172.6 47.95
	L 171.6 47.95
	M 173.7 48.4
	L 172.7 48.4
	M 172.8 48.86
	L 172.2 49.67
	M 171.3 50.12
	L 170.4 50.57
	M 171.9 49.31
	L 171.3 50.12
	L 170.7 50.93
	M 171 49.76
	L 170 49.76
	M 170.1 50.22
	L 169.5 51.03
	M 176.3 47.04
	L 175.5 47.49
	L 174.6 47.95
	L 173.7 48.4
	L 172.8 48.86
	L 171.9 49.31
	L 171 49.76
	L 170.1 50.22
	L 169.2 50.67
	M 175.8 47.85
	L 174.9 48.3
	M 175 49.65
	L 175.3 50.6
	M 175.2 48.66
	L 175 49.65
	L 174.9 50.63
	M 174.6 49.47
	L 174.4 50.46
	M 173.8 51.26
	L 173.3 52.07
	M 173.1 53.06
	L 172.9 54.05
	M 173.7 52.25
	L 173.1 53.06
	L 172.5 53.87
	M 173.5 53.24
	L 172.9 54.05
	M 174 50.28
	L 173.8 51.26
	L 173.7 52.25
	L 173.5 53.24
	L 173.4 54.23
	M 173.4 51.09
	L 172.5 51.54
	M 172.8 51.89
	L 172.7 52.88
	M 171.3 53.16
	L 170.3 53.16
	M 172.2 52.7
	L 171.3 53.16
	L 170.5 53.61
	M 171.6 53.51
	L 170.8 53.97
	M 171.1 54.32
	L 170.9 55.31
	M 179.3 43
	L 178.7 43.8
	L 178.1 44.61
	L 177.5 45.42
	L 176.9 46.23
	L 176.3 47.04
	L 175.8 47.85
	L 175.2 48.66
	L 174.6 49.47
	L 174 50.28
	L 173.4 51.09
	L 172.8 51.89
	L 172.2 52.7
	L 171.6 53.51
	L 171.1 54.32
	L 170.5 55.13
	M 179.1 43.98
	L 179.4 44.93
	M 179.3 45.92
	L 179.1 46.91
	M 179 44.97
	L 179.3 45.92
	L 179.6 46.87
	M 178.8 45.96
	L 178.2 46.77
	M 178.1 47.75
	L 177.2 48.21
	M 176.6 49.02
	L 175.6 49.02
	M 175.7 49.47
	L 175.1 50.28
	M 177.5 48.56
	L 176.6 49.02
	L 175.7 49.47
	L 174.8 49.93
	M 176.9 49.37
	L 176 49.83
	M 176.3 50.18
	L 176.2 51.17
	M 178.7 46.95
	L 178.1 47.75
	L 177.5 48.56
	L 176.9 49.37
	L 176.3 50.18
	L 175.7 50.99
	M 178.5 47.93
	L 178.8 48.88
	M 177.8 49.73
	L 176.9 50.18
	M 177.2 50.54
	L 177 51.53
	M 178.3 48.92
	L 177.8 49.73
	L 177.2 50.54
	L 176.6 51.35
	M 178.2 49.91
	L 177.6 50.72
	M 178 50.9
	L 178.3 51.85
	M 178.2 52.84
	L 178 53.82
	M 178.3 54.77
	L 177.8 55.58
	M 178.5 53.79
	L 178.3 54.77
	L 178.2 55.76
	M 178.8 54.74
	L 179.5 55.44
	M 179.8 56.4
	L 180.1 57.35
	M 180.5 57.1
	L 181.5 57.41
	M 179.1 55.69
	L 179.8 56.4
	L 180.5 57.1
	L 181.2 57.81
	M 179.4 56.64
	L 179.3 57.63
	M 180.4 58.3
	L 180.7 59.25
	M 181.1 59
	L 182.1 59.31
	M 182.2 60.66
	L 182 61.65
	M 182.5 61.61
	L 183.2 62.32
	M 181.9 59.71
	L 182.2 60.66
	L 182.5 61.61
	L 182.8 62.57
	M 182.6 60.42
	L 182.9 61.37
	M 184.2 61.44
	L 184.9 62.14
	M 183.3 61.13
	L 184.2 61.44
	L 185.2 61.74
	M 184 61.83
	L 184.3 62.78
	M 184.7 62.54
	L 185.6 62.85
	M 179.7 57.59
	L 180.4 58.3
	L 181.1 59
	L 181.9 59.71
	L 182.6 60.42
	L 183.3 61.13
	L 184 61.83
	L 184.7 62.54
	L 185.4 63.25
	M 180 58.54
	L 180.7 59.25
	M 180.2 60.48
	L 180.5 61.43
	M 180.4 59.49
	L 180.2 60.48
	L 180 61.47
	M 180.7 60.44
	L 181.4 61.15
	M 177.9 51.88
	L 178.2 52.84
	L 178.5 53.79
	L 178.8 54.74
	L 179.1 55.69
	L 179.4 56.64
	L 179.7 57.59
	L 180 58.54
	L 180.4 59.49
	L 180.7 60.44
	L 181 61.39
	M 177.7 52.87
	L 178 53.82
	M 177 54.67
	L 176.1 55.12
	M 176.4 55.48
	L 176.2 56.47
	M 177.6 53.86
	L 177 54.67
	L 176.4 55.48
	L 175.8 56.29
	M 177.4 54.85
	L 176.8 55.66
	M 177.3 55.84
	L 177.6 56.79
	M 177.4 57.77
	L 177.3 58.76
	M 177.7 58.72
	L 178.4 59.43
	M 177.1 56.82
	L 177.4 57.77
	L 177.7 58.72
	L 178 59.68
	M 176.9 57.81
	L 176.4 58.62
	M 176.8 58.8
	L 177.1 59.75
	M 176.9 60.74
	L 177.6 61.44
	M 177.1 62.68
	L 176.5 63.48
	M 176.9 63.66
	L 177.2 64.61
	M 177.2 61.69
	L 177.1 62.68
	L 176.9 63.66
	L 176.8 64.65
	M 177.6 62.64
	L 177.4 63.63
	M 178.6 64.3
	L 178.9 65.25
	M 179.3 65
	L 180.2 65.31
	M 177.9 63.59
	L 178.6 64.3
	L 179.3 65
	L 180 65.71
	M 178.2 64.54
	L 178 65.53
	M 178.5 65.49
	L 179.2 66.2
	M 176.6 59.79
	L 176.9 60.74
	L 177.2 61.69
	L 177.6 62.64
	L 177.9 63.59
	L 178.2 64.54
	L 178.5 65.49
	L 178.8 66.44
	M 176.5 60.77
	L 175.9 61.58
	M 176.3 61.76
	L 176.6 62.71
	M 175.6 63.56
	L 174.7 64.01
	M 176.2 62.75
	L 175.6 63.56
	L 175 64.37
	M 176 63.74
	L 175.4 64.55
	M 176.2 65.68
	L 176 66.66
	M 175.8 64.72
	L 176.2 65.68
	L 176.5 66.63
	M 175.7 65.71
	L 176 66.66
	M 186.6 -3.426
	L 186.5 -2.438
	L 186.3 -1.451
	L 186.2 -0.4631
	L 186 0.5246
	L 185.9 1.512
	L 185.7 2.5
	L 185.5 3.488
	L 185.4 4.475
	L 185.2 5.463
	L 185.1 6.451
	L 184.9 7.438
	L 184.8 8.426
	L 184.6 9.414
	L 184.4 10.4
	L 184.3 11.39
	L 184.1 12.38
	L 184 13.36
	L 183.8 14.35
	L 183.7 15.34
	L 183.5 16.33
	L 183.4 17.32
	L 183.2 18.3
	L 183 19.29
	L 182.9 20.28
	L 182.7 21.27
	L 182.6 22.25
	L 182.4 23.24
	L 182.3 24.23
	L 182.1 25.22
	L 181.9 26.2
	L 181.8 27.19
	L 181.6 28.18
	L 181.5 29.17
	L 181.3 30.16
	L 181.2 31.14
	L 181 32.13
	L 180.9 33.12
	L 180.7 34.11
	L 180.5 35.09
	L 180.4 36.08
	L 180.2 37.07
	L 180.1 38.06
	L 179.9 39.04
	L 179.8 40.03
	L 179.6 41.02
	L 179.4 42.01
	L 179.3 43
	L 179.1 43.98
	L 179 44.97
	L 178.8 45.96
	L 178.7 46.95
	L 178.5 47.93
	L 178.3 48.92
	L 178.2 49.91
	L 178 50.9
	L 177.9 51.88
	L 177.7 52.87
	L 177.6 53.86
	L 177.4 54.85
	L 177.3 55.84
	L 177.1 56.82
	L 176.9 57.81
	L 176.8 58.8
	L 176.6 59.79
	L 176.5 60.77
	L 176.3 61.76
	L 176.2 62.75
	L 176 63.74
	L 175.8 64.72
	L 175.7 65.71
	L 175.5 66.7
	M 0 0
	L 0.9877 0.1564
	L 1.975 0.3129
	L 2.975 0.3129
	L 3.975 0.3129
	L 4.975 0.3129
	L 5.975 0.3129
	L 6.963 0.4693
	L 7.951 0.6257
	L 8.938 0.7822
	L 9.926 0.9386
	L 10.93 0.9386
	L 11.93 0.9386
	L 12.93 0.9386
	L 13.93 0.9386
	L 14.91 0.7822
	L 15.9 0.6257
	L 16.89 0.4693
	L 17.88 0.3129
	L 18.86 0.1564
	L 19.85 2.109e-15
	L 20.84 -0.1564
	L 21.83 -0.3129
	L 22.83 -0.3129
	L 23.83 -0.3129
	L 24.83 -0.3129
	L 25.83 -0.3129
	L 26.82 -0.4693
	L 27.8 -0.6257
	L 28.79 -0.7822
	L 29.78 -0.9386
	L 30.78 -0.9386
	L 31.78 -0.9386
	L 32.78 -0.9386
	L 33.78 -0.9386
	L 34.77 -0.7822
	L 35.75 -0.6257
	L 36.74 -0.4693
	L 37.73 -0.3129
	L 38.73 -0.3129
	L 39.73 -0.3129
	L 40.73 -0.3129
	L 41.73 -0.3129
	L 42.72 -0.4693
	L 43.7 -0.6257
	L 44.69 -0.7822
	L 45.68 -0.9386
	L 46.67 -1.095
	L 47.66 -1.251
	L 48.64 -1.408
	L 49.63 -1.564
	L 50.63 -1.564
	L 51.63 -1.564
	L 52.63 -1.564
	L 53.63 -1.564
	L 54.62 -1.721
	L 55.61 -1.877
	L 56.59 -2.034
	L 57.58 -2.19
	L 58.58 -2.19
	L 59.58 -2.19
	L 60.58 -2.19
	L 61.58 -2.19
	L 62.57 -2.034
	L 63.56 -1.877
	L 64.54 -1.721
	L 65.53 -1.564
	L 66.48 -1.255
	L 67.43 -0.9463
	L 68.39 -0.6373
	L 69.34 -0.3283
	L 70.32 -0.1718
	L 71.31 -0.01541
	L 72.3 0.141
	L 73.29 0.2975
	L 74.29 0.2975
	L 75.29 0.2975
	L 76.29 0.2975
	L 77.29 0.2975
	L 78.27 0.141
	L 79.26 -0.01541
	L 80.25 -0.1718
	L 81.24 -0.3283
	L 82.24 -0.3283
	L 83.24 -0.3283
	L 84.24 -0.3283
	L 85.24 -0.3283
	L 86.23 -0.1718
	L 87.21 -0.01541
	L 88.2 0.141
	L 89.19 0.2975
	L 90.14 0.6065
	L 91.09 0.9155
	L 92.04 1.225
	L 92.99 1.534
	L 93.94 1.843
	L 94.89 2.152
	L 95.85 2.461
	L 96.8 2.77
	L 97.78 2.926
	L 98.77 3.082
	L 99.76 3.239
	L 100.7 3.395
	L 101.7 3.395
	L 102.7 3.395
	L 103.7 3.395
	L 104.7 3.395
	L 105.7 3.239
	L 106.7 3.082
	L 107.7 2.926
	L 108.7 2.77
	L 109.6 2.461
	L 110.6 2.152
	L 111.6 1.843
	L 112.5 1.534
	L 113.5 1.377
	L 114.5 1.221
	L 115.5 1.064
	L 116.5 0.9078
	L 117.4 0.5988
	L 118.4 0.2898
	L 119.3 -0.01926
	L 120.3 -0.3283
	L 121.2 -0.6373
	L 122.2 -0.9463
	L 123.1 -1.255
	L 124.1 -1.564
	L 125 -1.721
	L 126 -1.877
	L 127 -2.034
	L 128 -2.19
	L 129 -2.499
	L 129.9 -2.808
	L 130.9 -3.117
	L 131.8 -3.426
	L 132.8 -3.583
	L 133.8 -3.739
	L 134.8 -3.895
	L 135.8 -4.052
	L 136.8 -4.052
	L 137.8 -4.052
	L 138.8 -4.052
	L 139.8 -4.052
	L 140.8 -4.208
	L 141.7 -4.365
	L 142.7 -4.521
	L 143.7 -4.678
	L 144.7 -4.987
	L 145.6 -5.296
	L 146.6 -5.605
	L 147.5 -5.914
	L 148.5 -6.07
	L 149.5 -6.227
	L 150.5 -6.383
	L 151.5 -6.539
	L 152.4 -6.848
	L 153.4 -7.157
	L 154.3 -7.466
	L 155.3 -7.776
	L 156.3 -7.932
	L 157.3 -8.088
	L 158.2 -8.245
	L 159.2 -8.401
	L 160.2 -8.401
	L 161.2 -8.401
	L 162.2 -8.401
	L 163.2 -8.401
	L 164.2 -8.245
	L 165.2 -8.088
	L 166.2 -7.932
	L 167.2 -7.776
	L 168.2 -7.619
	L 169.2 -7.463
	L 170.1 -7.306
	L 171.1 -7.15
	L 172.1 -6.993
	L 173.1 -6.837
	L 174.1 -6.68
	L 175.1 -6.524
	L 176 -6.215
	L 177 -5.906
	L 177.9 -5.597
	L 178.9 -5.288
	L 179.8 -4.979
	L 180.8 -4.67
	L 181.7 -4.361
	L 182.7 -4.052
	L 183.7 -3.895
	L 184.7 -3.739
	L 185.7 -3.583
	L 186.6 -3.426
	L 187.6 -3.27
	L 188.6 -3.113
	L 189.6 -2.957
	L 190.6 -2.8
	L 191.6 -2.8
	L 192.6 -2.8
	L 193.6 -2.8
	L 194.6 -2.8
	L 195.6 -2.644
	L 196.6 -2.488
	L 197.6 -2.331
	L 198.5 -2.175
	L 199.5 -2.175
	L 200.5 -2.175
	L 201.5 -2.175
	L 202.5 -2.175
	L 203.5 -2.018
	L 204.5 -1.862
	L 205.5 -1.705
	L 206.5 -1.549
	L 207.4 -1.24
	L 208.4 -0.9309
	L 209.3 -0.6219
	L 210.3 -0.3129
	L 211.3 -0.1564
	L 212.3 2.137e-14
	L 213.3 0.1564
	L 214.2 0.3129
	L 215.2 0.6219
	L 216.1 0.9309
"/>
</svg>
