<svg version="1.1" baseProfile="full" xmlns="http://www.w3.org/2000/svg"
width="348.5" height="1024"
viewBox="-36.13 -244 83.39 245"
>
<rect x="-36.13" y="-244" width="100%" height="100%" fill="white" />
<path stroke="green" stroke-width="0.04" stroke-linecap="round" fill="none"
transform="scale(1 -1)"
d="	M 0 1
	L -0.4337 1.901
	M 0 2
	L 0.4337 2.901
	M -0.4337 3.901
	L -1.215 4.525
	M -0.8673 4.802
	L -0.8673 5.802
	M 0 3
	L -0.4337 3.901
	L -0.8673 4.802
	L -1.301 5.703
	M 0 4
	L -0.4337 4.901
	M 0 5
	L 0.4337 5.901
	M 0.4337 6.901
	L 0.4337 7.901
	M 0.8673 7.802
	L 1.649 8.426
	M 0 6
	L 0.4337 6.901
	L 0.8673 7.802
	L 1.301 8.703
	M 0 7
	L -0.4337 7.901
	M 0 8
	L 0.4337 8.901
	M -0.4337 9.901
	L -1.215 10.52
	M -0.8673 10.8
	L -0.8673 11.8
	M -2.082 12.33
	L -3.057 12.55
	M -2.864 12.95
	L -3.298 13.85
	M -1.301 11.7
	L -2.082 12.33
	L -2.864 12.95
	L -3.646 13.57
	M -1.735 12.6
	L -2.516 13.23
	M -2.168 13.51
	L -2.168 14.51
	M -2.602 15.41
	L -3.036 16.31
	M -2.602 16.41
	L -2.168 17.31
	M -2.602 14.41
	L -2.602 15.41
	L -2.602 16.41
	L -2.602 17.41
	M -3.036 15.31
	L -3.817 15.93
	M -3.469 16.21
	L -3.469 17.21
	M 0 9
	L -0.4337 9.901
	L -0.8673 10.8
	L -1.301 11.7
	L -1.735 12.6
	L -2.168 13.51
	L -2.602 14.41
	L -3.036 15.31
	L -3.469 16.21
	L -3.903 17.11
	M 0 10
	L -0.4337 10.9
	M 0 11
	L 0.4337 11.9
	M -0.4337 12.9
	L -1.215 13.52
	M -0.8673 13.8
	L -0.8673 14.8
	M 0 12
	L -0.4337 12.9
	L -0.8673 13.8
	L -1.301 14.7
	M 0 13
	L -0.4337 13.9
	M 0 14
	L 0.4337 14.9
	M 0.4337 15.9
	L 0.4337 16.9
	M 0.8673 16.8
	L 1.649 17.43
	M 0 15
	L 0.4337 15.9
	L 0.8673 16.8
	L 1.301 17.7
	M 0 16
	L -0.4337 16.9
	M 0 17
	L 0.4337 17.9
	M 0.4337 18.9
	L 0.4337 19.9
	M 0.8673 19.8
	L 1.649 20.43
	M 1.301 21.7
	L 0.8673 22.6
	M 1.301 22.7
	L 1.735 23.6
	M 1.301 20.7
	L 1.301 21.7
	L 1.301 22.7
	L 1.301 23.7
	M 1.735 21.6
	L 1.735 22.6
	M 2.168 22.51
	L 2.95 23.13
	M 3.383 24.03
	L 3.817 24.93
	M 4.165 24.65
	L 5.14 24.88
	M 2.602 23.41
	L 3.383 24.03
	L 4.165 24.65
	L 4.947 25.28
	M 3.036 24.31
	L 3.036 25.31
	M 3.469 25.21
	L 4.251 25.83
	M 0 18
	L 0.4337 18.9
	L 0.8673 19.8
	L 1.301 20.7
	L 1.735 21.6
	L 2.168 22.51
	L 2.602 23.41
	L 3.036 24.31
	L 3.469 25.21
	L 3.903 26.11
	M 0 19
	L -0.4337 19.9
	M 0 20
	L 0.4337 20.9
	M -0.4337 21.9
	L -1.215 22.52
	M -0.8673 22.8
	L -0.8673 23.8
	M 0 21
	L -0.4337 21.9
	L -0.8673 22.8
	L -1.301 23.7
	M 0 22
	L -0.4337 22.9
	M 0 23
	L 0.4337 23.9
	M 0.4337 24.9
	L 0.4337 25.9
	M 0.8673 25.8
	L 1.649 26.43
	M 0 24
	L 0.4337 24.9
	L 0.8673 25.8
	L 1.301 26.7
	M 0 25
	L -0.4337 25.9
	M 0 26
	L 0.4337 26.9
	M -0.4337 27.9
	L -1.215 28.52
	M -0.8673 28.8
	L -0.8673 29.8
	M -2.082 30.33
	L -3.057 30.55
	M -2.864 30.95
	L -3.298 31.85
	M -1.301 29.7
	L -2.082 30.33
	L -2.864 30.95
	L -3.646 31.57
	M -1.735 30.6
	L -2.516 31.23
	M -2.168 31.51
	L -2.168 32.51
	M -2.602 33.41
	L -3.036 34.31
	M -2.602 34.41
	L -2.168 35.31
	M -2.602 32.41
	L -2.602 33.41
	L -2.602 34.41
	L -2.602 35.41
	M -3.036 33.31
	L -3.817 33.93
	M -3.469 34.21
	L -3.469 35.21
	M -4.684 35.73
	L -5.659 35.96
	M -5.466 36.36
	L -5.9 37.26
	M -7.222 37.2
	L -8.197 36.98
	M -8.197 37.43
	L -8.979 38.05
	M -6.247 36.98
	L -7.222 37.2
	L -8.197 37.43
	L -9.172 37.65
	M -7.029 37.61
	L -8.004 37.83
	M -7.811 38.23
	L -8.244 39.13
	M -9.026 39.75
	L -9.807 40.38
	M -9.459 40.66
	L -9.459 41.66
	M -8.592 38.85
	L -9.026 39.75
	L -9.459 40.66
	L -9.893 41.56
	M -9.374 39.48
	L -10.35 39.7
	M -10.16 40.1
	L -10.59 41
	M -3.903 35.11
	L -4.684 35.73
	L -5.466 36.36
	L -6.247 36.98
	L -7.029 37.61
	L -7.811 38.23
	L -8.592 38.85
	L -9.374 39.48
	L -10.16 40.1
	L -10.94 40.72
	M -4.337 36.01
	L -5.118 36.63
	M -4.77 36.91
	L -4.77 37.91
	M -5.985 38.44
	L -6.96 38.66
	M -6.767 39.06
	L -7.201 39.96
	M -5.204 37.81
	L -5.985 38.44
	L -6.767 39.06
	L -7.548 39.68
	M -5.638 38.71
	L -6.419 39.34
	M -6.071 39.62
	L -6.071 40.62
	M -6.505 41.52
	L -6.939 42.42
	M -6.505 42.52
	L -6.071 43.42
	M -6.505 40.52
	L -6.505 41.52
	L -6.505 42.52
	L -6.505 43.52
	M -6.939 41.42
	L -7.72 42.04
	M -7.372 42.32
	L -7.372 43.32
	M -7.806 44.22
	L -8.24 45.12
	M -7.806 45.22
	L -7.372 46.12
	M -8.24 47.12
	L -9.021 47.74
	M -8.673 48.02
	L -8.673 49.02
	M -7.806 46.22
	L -8.24 47.12
	L -8.673 48.02
	L -9.107 48.92
	M -7.806 47.22
	L -8.24 48.12
	M -7.806 48.22
	L -7.372 49.12
	M -7.372 50.12
	L -7.372 51.12
	M -6.939 51.02
	L -6.157 51.65
	M -7.806 49.22
	L -7.372 50.12
	L -6.939 51.02
	L -6.505 51.92
	M -7.806 50.22
	L -8.24 51.12
	M -7.806 51.22
	L -7.372 52.12
	M -7.806 43.22
	L -7.806 44.22
	L -7.806 45.22
	L -7.806 46.22
	L -7.806 47.22
	L -7.806 48.22
	L -7.806 49.22
	L -7.806 50.22
	L -7.806 51.22
	L -7.806 52.22
	M -8.24 44.12
	L -9.021 44.74
	M -8.673 45.02
	L -8.673 46.02
	M -9.888 46.55
	L -10.86 46.77
	M -10.67 47.17
	L -11.1 48.07
	M -9.107 45.92
	L -9.888 46.55
	L -10.67 47.17
	L -11.45 47.79
	M -9.54 46.82
	L -10.32 47.45
	M -9.974 47.72
	L -9.974 48.72
	M -10.41 49.63
	L -10.84 50.53
	M -10.41 50.63
	L -9.974 51.53
	M -10.41 48.63
	L -10.41 49.63
	L -10.41 50.63
	L -10.41 51.63
	M -10.84 49.53
	L -11.62 50.15
	M -11.28 50.43
	L -11.28 51.43
	M 0 27
	L -0.4337 27.9
	L -0.8673 28.8
	L -1.301 29.7
	L -1.735 30.6
	L -2.168 31.51
	L -2.602 32.41
	L -3.036 33.31
	L -3.469 34.21
	L -3.903 35.11
	L -4.337 36.01
	L -4.77 36.91
	L -5.204 37.81
	L -5.638 38.71
	L -6.071 39.62
	L -6.505 40.52
	L -6.939 41.42
	L -7.372 42.32
	L -7.806 43.22
	L -8.24 44.12
	L -8.673 45.02
	L -9.107 45.92
	L -9.54 46.82
	L -9.974 47.72
	L -10.41 48.63
	L -10.84 49.53
	L -11.28 50.43
	L -11.71 51.33
	M 0 28
	L -0.4337 28.9
	M 0 29
	L 0.4337 29.9
	M -0.4337 30.9
	L -1.215 31.52
	M -0.8673 31.8
	L -0.8673 32.8
	M 0 30
	L -0.4337 30.9
	L -0.8673 31.8
	L -1.301 32.7
	M 0 31
	L -0.4337 31.9
	M 0 32
	L 0.4337 32.9
	M 0.4337 33.9
	L 0.4337 34.9
	M 0.8673 34.8
	L 1.649 35.43
	M 0 33
	L 0.4337 33.9
	L 0.8673 34.8
	L 1.301 35.7
	M 0 34
	L -0.4337 34.9
	M 0 35
	L 0.4337 35.9
	M -0.4337 36.9
	L -1.215 37.52
	M -0.8673 37.8
	L -0.8673 38.8
	M -2.082 39.33
	L -3.057 39.55
	M -2.864 39.95
	L -3.298 40.85
	M -1.301 38.7
	L -2.082 39.33
	L -2.864 39.95
	L -3.646 40.57
	M -1.735 39.6
	L -2.516 40.23
	M -2.168 40.51
	L -2.168 41.51
	M -2.602 42.41
	L -3.036 43.31
	M -2.602 43.41
	L -2.168 44.31
	M -2.602 41.41
	L -2.602 42.41
	L -2.602 43.41
	L -2.602 44.41
	M -3.036 42.31
	L -3.817 42.93
	M -3.469 43.21
	L -3.469 44.21
	M 0 36
	L -0.4337 36.9
	L -0.8673 37.8
	L -1.301 38.7
	L -1.735 39.6
	L -2.168 40.51
	L -2.602 41.41
	L -3.036 42.31
	L -3.469 43.21
	L -3.903 44.11
	M 0 37
	L -0.4337 37.9
	M 0 38
	L 0.4337 38.9
	M -0.4337 39.9
	L -1.215 40.52
	M -0.8673 40.8
	L -0.8673 41.8
	M 0 39
	L -0.4337 39.9
	L -0.8673 40.8
	L -1.301 41.7
	M 0 40
	L -0.4337 40.9
	M 0 41
	L 0.4337 41.9
	M 0.4337 42.9
	L 0.4337 43.9
	M 0.8673 43.8
	L 1.649 44.43
	M 0 42
	L 0.4337 42.9
	L 0.8673 43.8
	L 1.301 44.7
	M 0 43
	L -0.4337 43.9
	M 0 44
	L 0.4337 44.9
	M 0.4337 45.9
	L 0.4337 46.9
	M 0.8673 46.8
	L 1.649 47.43
	M 1.301 48.7
	L 0.8673 49.6
	M 1.301 49.7
	L 1.735 50.6
	M 1.301 47.7
	L 1.301 48.7
	L 1.301 49.7
	L 1.301 50.7
	M 1.735 48.6
	L 1.735 49.6
	M 2.168 49.51
	L 2.95 50.13
	M 3.383 51.03
	L 3.817 51.93
	M 4.165 51.65
	L 5.14 51.88
	M 2.602 50.41
	L 3.383 51.03
	L 4.165 51.65
	L 4.947 52.28
	M 3.036 51.31
	L 3.036 52.31
	M 3.469 52.21
	L 4.251 52.83
	M 0 45
	L 0.4337 45.9
	L 0.8673 46.8
	L 1.301 47.7
	L 1.735 48.6
	L 2.168 49.51
	L 2.602 50.41
	L 3.036 51.31
	L 3.469 52.21
	L 3.903 53.11
	M 0 46
	L -0.4337 46.9
	M 0 47
	L 0.4337 47.9
	M -0.4337 48.9
	L -1.215 49.52
	M -0.8673 49.8
	L -0.8673 50.8
	M 0 48
	L -0.4337 48.9
	L -0.8673 49.8
	L -1.301 50.7
	M 0 49
	L -0.4337 49.9
	M 0 50
	L 0.4337 50.9
	M 0.4337 51.9
	L 0.4337 52.9
	M 0.8673 52.8
	L 1.649 53.43
	M 0 51
	L 0.4337 51.9
	L 0.8673 52.8
	L 1.301 53.7
	M 0 52
	L -0.4337 52.9
	M 0 53
	L 0.4337 53.9
	M 0.4337 54.9
	L 0.4337 55.9
	M 0.8673 55.8
	L 1.649 56.43
	M 1.301 57.7
	L 0.8673 58.6
	M 1.301 58.7
	L 1.735 59.6
	M 1.301 56.7
	L 1.301 57.7
	L 1.301 58.7
	L 1.301 59.7
	M 1.735 57.6
	L 1.735 58.6
	M 2.168 58.51
	L 2.95 59.13
	M 3.383 60.03
	L 3.817 60.93
	M 4.165 60.65
	L 5.14 60.88
	M 2.602 59.41
	L 3.383 60.03
	L 4.165 60.65
	L 4.947 61.28
	M 3.036 60.31
	L 3.036 61.31
	M 3.469 61.21
	L 4.251 61.83
	M 3.903 63.11
	L 3.469 64.01
	M 3.903 64.11
	L 4.337 65.01
	M 3.469 66.01
	L 2.688 66.63
	M 3.036 66.91
	L 3.036 67.91
	M 3.903 65.11
	L 3.469 66.01
	L 3.036 66.91
	L 2.602 67.81
	M 3.903 66.11
	L 3.469 67.01
	M 3.903 67.11
	L 4.337 68.01
	M 4.337 69.01
	L 4.337 70.01
	M 4.77 69.91
	L 5.552 70.54
	M 3.903 68.11
	L 4.337 69.01
	L 4.77 69.91
	L 5.204 70.81
	M 3.903 69.11
	L 3.469 70.01
	M 3.903 70.11
	L 4.337 71.01
	M 3.903 62.11
	L 3.903 63.11
	L 3.903 64.11
	L 3.903 65.11
	L 3.903 66.11
	L 3.903 67.11
	L 3.903 68.11
	L 3.903 69.11
	L 3.903 70.11
	L 3.903 71.11
	M 4.337 63.01
	L 4.337 64.01
	M 4.77 63.91
	L 5.552 64.54
	M 5.204 65.81
	L 4.77 66.71
	M 5.204 66.81
	L 5.638 67.71
	M 5.204 64.81
	L 5.204 65.81
	L 5.204 66.81
	L 5.204 67.81
	M 5.638 65.71
	L 5.638 66.71
	M 6.071 66.62
	L 6.853 67.24
	M 7.286 68.14
	L 7.72 69.04
	M 8.068 68.76
	L 9.043 68.99
	M 6.505 67.52
	L 7.286 68.14
	L 8.068 68.76
	L 8.849 69.39
	M 6.939 68.42
	L 6.939 69.42
	M 7.372 69.32
	L 8.154 69.94
	M 8.587 70.84
	L 9.021 71.74
	M 9.369 71.47
	L 10.34 71.69
	M 10.58 72.99
	L 10.58 73.99
	M 11.02 73.89
	L 11.8 74.52
	M 10.15 72.09
	L 10.58 72.99
	L 11.02 73.89
	L 11.45 74.79
	M 10.93 72.71
	L 11.37 73.62
	M 11.71 73.34
	L 12.69 73.56
	M 13.47 74.19
	L 14.25 74.81
	M 14.44 74.41
	L 15.42 74.19
	M 12.49 73.96
	L 13.47 74.19
	L 14.44 74.41
	L 15.42 74.63
	M 13.28 74.59
	L 13.71 75.49
	M 14.06 75.21
	L 15.03 75.43
	M 7.806 70.22
	L 8.587 70.84
	L 9.369 71.47
	L 10.15 72.09
	L 10.93 72.71
	L 11.71 73.34
	L 12.49 73.96
	L 13.28 74.59
	L 14.06 75.21
	L 14.84 75.83
	M 8.24 71.12
	L 8.24 72.12
	M 8.673 72.02
	L 9.455 72.65
	M 9.107 73.92
	L 8.673 74.82
	M 9.107 74.92
	L 9.54 75.82
	M 9.107 72.92
	L 9.107 73.92
	L 9.107 74.92
	L 9.107 75.92
	M 9.54 73.82
	L 9.54 74.82
	M 9.974 74.72
	L 10.76 75.35
	M 11.19 76.25
	L 11.62 77.15
	M 11.97 76.87
	L 12.95 77.1
	M 10.41 75.63
	L 11.19 76.25
	L 11.97 76.87
	L 12.75 77.5
	M 10.84 76.53
	L 10.84 77.53
	M 11.28 77.43
	L 12.06 78.05
	M 0 54
	L 0.4337 54.9
	L 0.8673 55.8
	L 1.301 56.7
	L 1.735 57.6
	L 2.168 58.51
	L 2.602 59.41
	L 3.036 60.31
	L 3.469 61.21
	L 3.903 62.11
	L 4.337 63.01
	L 4.77 63.91
	L 5.204 64.81
	L 5.638 65.71
	L 6.071 66.62
	L 6.505 67.52
	L 6.939 68.42
	L 7.372 69.32
	L 7.806 70.22
	L 8.24 71.12
	L 8.673 72.02
	L 9.107 72.92
	L 9.54 73.82
	L 9.974 74.72
	L 10.41 75.63
	L 10.84 76.53
	L 11.28 77.43
	L 11.71 78.33
	M 0 55
	L -0.4337 55.9
	M 0 56
	L 0.4337 56.9
	M -0.4337 57.9
	L -1.215 58.52
	M -0.8673 58.8
	L -0.8673 59.8
	M 0 57
	L -0.4337 57.9
	L -0.8673 58.8
	L -1.301 59.7
	M 0 58
	L -0.4337 58.9
	M 0 59
	L 0.4337 59.9
	M 0.4337 60.9
	L 0.4337 61.9
	M 0.8673 61.8
	L 1.649 62.43
	M 0 60
	L 0.4337 60.9
	L 0.8673 61.8
	L 1.301 62.7
	M 0 61
	L -0.4337 61.9
	M 0 62
	L 0.4337 62.9
	M -0.4337 63.9
	L -1.215 64.52
	M -0.8673 64.8
	L -0.8673 65.8
	M -2.082 66.33
	L -3.057 66.55
	M -2.864 66.95
	L -3.298 67.85
	M -1.301 65.7
	L -2.082 66.33
	L -2.864 66.95
	L -3.646 67.57
	M -1.735 66.6
	L -2.516 67.23
	M -2.168 67.51
	L -2.168 68.51
	M -2.602 69.41
	L -3.036 70.31
	M -2.602 70.41
	L -2.168 71.31
	M -2.602 68.41
	L -2.602 69.41
	L -2.602 70.41
	L -2.602 71.41
	M -3.036 69.31
	L -3.817 69.93
	M -3.469 70.21
	L -3.469 71.21
	M 0 63
	L -0.4337 63.9
	L -0.8673 64.8
	L -1.301 65.7
	L -1.735 66.6
	L -2.168 67.51
	L -2.602 68.41
	L -3.036 69.31
	L -3.469 70.21
	L -3.903 71.11
	M 0 64
	L -0.4337 64.9
	M 0 65
	L 0.4337 65.9
	M -0.4337 66.9
	L -1.215 67.52
	M -0.8673 67.8
	L -0.8673 68.8
	M 0 66
	L -0.4337 66.9
	L -0.8673 67.8
	L -1.301 68.7
	M 0 67
	L -0.4337 67.9
	M 0 68
	L 0.4337 68.9
	M 0.4337 69.9
	L 0.4337 70.9
	M 0.8673 70.8
	L 1.649 71.43
	M 0 69
	L 0.4337 69.9
	L 0.8673 70.8
	L 1.301 71.7
	M 0 70
	L -0.4337 70.9
	M 0 71
	L 0.4337 71.9
	M 0.4337 72.9
	L 0.4337 73.9
	M 0.8673 73.8
	L 1.649 74.43
	M 1.301 75.7
	L 0.8673 76.6
	M 1.301 76.7
	L 1.735 77.6
	M 1.301 74.7
	L 1.301 75.7
	L 1.301 76.7
	L 1.301 77.7
	M 1.735 75.6
	L 1.735 76.6
	M 2.168 76.51
	L 2.95 77.13
	M 3.383 78.03
	L 3.817 78.93
	M 4.165 78.65
	L 5.14 78.88
	M 2.602 77.41
	L 3.383 78.03
	L 4.165 78.65
	L 4.947 79.28
	M 3.036 78.31
	L 3.036 79.31
	M 3.469 79.21
	L 4.251 79.83
	M 0 72
	L 0.4337 72.9
	L 0.8673 73.8
	L 1.301 74.7
	L 1.735 75.6
	L 2.168 76.51
	L 2.602 77.41
	L 3.036 78.31
	L 3.469 79.21
	L 3.903 80.11
	M 0 73
	L -0.4337 73.9
	M 0 74
	L 0.4337 74.9
	M -0.4337 75.9
	L -1.215 76.52
	M -0.8673 76.8
	L -0.8673 77.8
	M 0 75
	L -0.4337 75.9
	L -0.8673 76.8
	L -1.301 77.7
	M 0 76
	L -0.4337 76.9
	M 0 77
	L 0.4337 77.9
	M 0.4337 78.9
	L 0.4337 79.9
	M 0.8673 79.8
	L 1.649 80.43
	M 0 78
	L 0.4337 78.9
	L 0.8673 79.8
	L 1.301 80.7
	M 0 79
	L -0.4337 79.9
	M 0 80
	L 0.4337 80.9
	M -0.4337 81.9
	L -1.215 82.52
	M -0.8673 82.8
	L -0.8673 83.8
	M -2.082 84.33
	L -3.057 84.55
	M -2.864 84.95
	L -3.298 85.85
	M -1.301 83.7
	L -2.082 84.33
	L -2.864 84.95
	L -3.646 85.57
	M -1.735 84.6
	L -2.516 85.23
	M -2.168 85.51
	L -2.168 86.51
	M -2.602 87.41
	L -3.036 88.31
	M -2.602 88.41
	L -2.168 89.31
	M -2.602 86.41
	L -2.602 87.41
	L -2.602 88.41
	L -2.602 89.41
	M -3.036 87.31
	L -3.817 87.93
	M -3.469 88.21
	L -3.469 89.21
	M -4.684 89.73
	L -5.659 89.96
	M -5.466 90.36
	L -5.9 91.26
	M -7.222 91.2
	L -8.197 90.98
	M -8.197 91.43
	L -8.979 92.05
	M -6.247 90.98
	L -7.222 91.2
	L -8.197 91.43
	L -9.172 91.65
	M -7.029 91.61
	L -8.004 91.83
	M -7.811 92.23
	L -8.244 93.13
	M -9.026 93.75
	L -9.807 94.38
	M -9.459 94.66
	L -9.459 95.66
	M -8.592 92.85
	L -9.026 93.75
	L -9.459 94.66
	L -9.893 95.56
	M -9.374 93.48
	L -10.35 93.7
	M -10.16 94.1
	L -10.59 95
	M -3.903 89.11
	L -4.684 89.73
	L -5.466 90.36
	L -6.247 90.98
	L -7.029 91.61
	L -7.811 92.23
	L -8.592 92.85
	L -9.374 93.48
	L -10.16 94.1
	L -10.94 94.72
	M -4.337 90.01
	L -5.118 90.63
	M -4.77 90.91
	L -4.77 91.91
	M -5.985 92.44
	L -6.96 92.66
	M -6.767 93.06
	L -7.201 93.96
	M -5.204 91.81
	L -5.985 92.44
	L -6.767 93.06
	L -7.548 93.68
	M -5.638 92.71
	L -6.419 93.34
	M -6.071 93.62
	L -6.071 94.62
	M -6.505 95.52
	L -6.939 96.42
	M -6.505 96.52
	L -6.071 97.42
	M -6.505 94.52
	L -6.505 95.52
	L -6.505 96.52
	L -6.505 97.52
	M -6.939 95.42
	L -7.72 96.04
	M -7.372 96.32
	L -7.372 97.32
	M -7.806 98.22
	L -8.24 99.12
	M -7.806 99.22
	L -7.372 100.1
	M -8.24 101.1
	L -9.021 101.7
	M -8.673 102
	L -8.673 103
	M -7.806 100.2
	L -8.24 101.1
	L -8.673 102
	L -9.107 102.9
	M -7.806 101.2
	L -8.24 102.1
	M -7.806 102.2
	L -7.372 103.1
	M -7.372 104.1
	L -7.372 105.1
	M -6.939 105
	L -6.157 105.6
	M -7.806 103.2
	L -7.372 104.1
	L -6.939 105
	L -6.505 105.9
	M -7.806 104.2
	L -8.24 105.1
	M -7.806 105.2
	L -7.372 106.1
	M -7.806 97.22
	L -7.806 98.22
	L -7.806 99.22
	L -7.806 100.2
	L -7.806 101.2
	L -7.806 102.2
	L -7.806 103.2
	L -7.806 104.2
	L -7.806 105.2
	L -7.806 106.2
	M -8.24 98.12
	L -9.021 98.74
	M -8.673 99.02
	L -8.673 100
	M -9.888 100.5
	L -10.86 100.8
	M -10.67 101.2
	L -11.1 102.1
	M -9.107 99.92
	L -9.888 100.5
	L -10.67 101.2
	L -11.45 101.8
	M -9.54 100.8
	L -10.32 101.4
	M -9.974 101.7
	L -9.974 102.7
	M -10.41 103.6
	L -10.84 104.5
	M -10.41 104.6
	L -9.974 105.5
	M -10.41 102.6
	L -10.41 103.6
	L -10.41 104.6
	L -10.41 105.6
	M -10.84 103.5
	L -11.62 104.2
	M -11.28 104.4
	L -11.28 105.4
	M -12.49 106
	L -13.47 106.2
	M -13.27 106.6
	L -13.71 107.5
	M -15.03 107.4
	L -16 107.2
	M -16 107.6
	L -16.78 108.3
	M -14.05 107.2
	L -15.03 107.4
	L -16 107.6
	L -16.98 107.9
	M -14.83 107.8
	L -15.81 108
	M -15.62 108.4
	L -16.05 109.3
	M -16.83 110
	L -17.61 110.6
	M -17.27 110.9
	L -17.27 111.9
	M -16.4 109.1
	L -16.83 110
	L -17.27 110.9
	L -17.7 111.8
	M -17.18 109.7
	L -18.15 109.9
	M -17.96 110.3
	L -18.39 111.2
	M -19.72 111.2
	L -20.69 110.9
	M -20.69 111.4
	L -21.47 112
	M -22.64 111.4
	L -23.42 110.8
	M -23.62 111.2
	L -24.59 111.4
	M -21.67 111.6
	L -22.64 111.4
	L -23.62 111.2
	L -24.59 110.9
	M -22.64 111.8
	L -23.62 111.6
	M -23.62 112.1
	L -24.4 112.7
	M -25.37 112.9
	L -26.35 113.1
	M -26.15 113.5
	L -26.59 114.4
	M -24.59 112.3
	L -25.37 112.9
	L -26.15 113.5
	L -26.94 114.2
	M -25.57 112.5
	L -26.54 112.3
	M -26.54 112.7
	L -27.32 113.4
	M -18.74 110.9
	L -19.72 111.2
	L -20.69 111.4
	L -21.67 111.6
	L -22.64 111.8
	L -23.62 112.1
	L -24.59 112.3
	L -25.57 112.5
	L -26.54 112.7
	L -27.52 113
	M -19.52 111.6
	L -20.5 111.8
	M -20.31 112.2
	L -20.74 113.1
	M -22.06 113
	L -23.04 112.8
	M -23.04 113.3
	L -23.82 113.9
	M -21.09 112.8
	L -22.06 113
	L -23.04 113.3
	L -24.01 113.5
	M -21.87 113.4
	L -22.84 113.7
	M -22.65 114.1
	L -23.08 115
	M -23.87 115.6
	L -24.65 116.2
	M -24.3 116.5
	L -24.3 117.5
	M -23.43 114.7
	L -23.87 115.6
	L -24.3 116.5
	L -24.73 117.4
	M -24.21 115.3
	L -25.19 115.5
	M -24.99 115.9
	L -25.43 116.8
	M -26.21 117.5
	L -26.99 118.1
	M -26.64 118.4
	L -26.64 119.4
	M -27.86 119.9
	L -28.83 120.1
	M -28.64 120.5
	L -29.07 121.4
	M -27.08 119.3
	L -27.86 119.9
	L -28.64 120.5
	L -29.42 121.1
	M -27.51 120.2
	L -28.29 120.8
	M -27.94 121.1
	L -27.94 122.1
	M -28.38 123
	L -28.81 123.9
	M -28.38 124
	L -27.94 124.9
	M -28.38 122
	L -28.38 123
	L -28.38 124
	L -28.38 125
	M -28.81 122.9
	L -29.59 123.5
	M -29.25 123.8
	L -29.25 124.8
	M -25.78 116.6
	L -26.21 117.5
	L -26.64 118.4
	L -27.08 119.3
	L -27.51 120.2
	L -27.94 121.1
	L -28.38 122
	L -28.81 122.9
	L -29.25 123.8
	L -29.68 124.7
	M -26.56 117.2
	L -27.53 117.4
	M -27.34 117.8
	L -27.77 118.7
	M -29.1 118.7
	L -30.07 118.4
	M -30.07 118.9
	L -30.85 119.5
	M -28.12 118.4
	L -29.1 118.7
	L -30.07 118.9
	L -31.05 119.1
	M -28.9 119.1
	L -29.88 119.3
	M -29.68 119.7
	L -30.12 120.6
	M -30.9 121.2
	L -31.68 121.8
	M -31.33 122.1
	L -31.33 123.1
	M -30.47 120.3
	L -30.9 121.2
	L -31.33 122.1
	L -31.77 123
	M -31.25 120.9
	L -32.22 121.1
	M -32.03 121.5
	L -32.46 122.5
	M -11.71 105.3
	L -12.49 106
	L -13.27 106.6
	L -14.05 107.2
	L -14.83 107.8
	L -15.62 108.4
	L -16.4 109.1
	L -17.18 109.7
	L -17.96 110.3
	L -18.74 110.9
	L -19.52 111.6
	L -20.31 112.2
	L -21.09 112.8
	L -21.87 113.4
	L -22.65 114.1
	L -23.43 114.7
	L -24.21 115.3
	L -24.99 115.9
	L -25.78 116.6
	L -26.56 117.2
	L -27.34 117.8
	L -28.12 118.4
	L -28.9 119.1
	L -29.68 119.7
	L -30.47 120.3
	L -31.25 120.9
	L -32.03 121.5
	L -32.81 122.2
	M -12.14 106.2
	L -12.92 106.9
	M -12.58 107.1
	L -12.58 108.1
	M -13.79 108.7
	L -14.77 108.9
	M -14.57 109.3
	L -15.01 110.2
	M -13.01 108
	L -13.79 108.7
	L -14.57 109.3
	L -15.35 109.9
	M -13.44 108.9
	L -14.22 109.6
	M -13.88 109.8
	L -13.88 110.8
	M -14.31 111.7
	L -14.74 112.6
	M -14.31 112.7
	L -13.88 113.6
	M -14.31 110.7
	L -14.31 111.7
	L -14.31 112.7
	L -14.31 113.7
	M -14.74 111.6
	L -15.53 112.3
	M -15.18 112.5
	L -15.18 113.5
	M -16.39 114.1
	L -17.37 114.3
	M -17.17 114.7
	L -17.61 115.6
	M -18.93 115.5
	L -19.91 115.3
	M -19.91 115.8
	L -20.69 116.4
	M -17.96 115.3
	L -18.93 115.5
	L -19.91 115.8
	L -20.88 116
	M -18.74 115.9
	L -19.71 116.2
	M -19.52 116.6
	L -19.95 117.5
	M -20.73 118.1
	L -21.52 118.7
	M -21.17 119
	L -21.17 120
	M -20.3 117.2
	L -20.73 118.1
	L -21.17 119
	L -21.6 119.9
	M -21.08 117.8
	L -22.06 118
	M -21.86 118.4
	L -22.3 119.3
	M -15.61 113.4
	L -16.39 114.1
	L -17.17 114.7
	L -17.96 115.3
	L -18.74 115.9
	L -19.52 116.6
	L -20.3 117.2
	L -21.08 117.8
	L -21.86 118.4
	L -22.65 119.1
	M -16.05 114.3
	L -16.83 115
	M -16.48 115.2
	L -16.48 116.2
	M -17.69 116.8
	L -18.67 117
	M -18.48 117.4
	L -18.91 118.3
	M -16.91 116.1
	L -17.69 116.8
	L -18.48 117.4
	L -19.26 118
	M -17.35 117
	L -18.13 117.7
	M -17.78 117.9
	L -17.78 118.9
	M -18.21 119.8
	L -18.65 120.7
	M -18.21 120.8
	L -17.78 121.7
	M -18.21 118.8
	L -18.21 119.8
	L -18.21 120.8
	L -18.21 121.8
	M -18.65 119.7
	L -19.43 120.4
	M -19.08 120.6
	L -19.08 121.6
	M -19.51 122.5
	L -19.95 123.4
	M -19.51 123.5
	L -19.08 124.4
	M -19.95 125.4
	L -20.73 126.1
	M -20.38 126.4
	L -20.38 127.4
	M -19.51 124.5
	L -19.95 125.4
	L -20.38 126.4
	L -20.82 127.3
	M -19.51 125.5
	L -19.95 126.4
	M -19.51 126.5
	L -19.08 127.4
	M -19.08 128.4
	L -19.08 129.4
	M -18.65 129.4
	L -17.87 130
	M -19.51 127.5
	L -19.08 128.4
	L -18.65 129.4
	L -18.21 130.3
	M -19.51 128.5
	L -19.95 129.4
	M -19.51 129.5
	L -19.08 130.4
	M -19.51 121.5
	L -19.51 122.5
	L -19.51 123.5
	L -19.51 124.5
	L -19.51 125.5
	L -19.51 126.5
	L -19.51 127.5
	L -19.51 128.5
	L -19.51 129.5
	L -19.51 130.5
	M -19.95 122.4
	L -20.73 123.1
	M -20.38 123.4
	L -20.38 124.4
	M -21.6 124.9
	L -22.57 125.1
	M -22.38 125.5
	L -22.81 126.4
	M -20.82 124.3
	L -21.6 124.9
	L -22.38 125.5
	L -23.16 126.1
	M -21.25 125.2
	L -22.03 125.8
	M -21.68 126.1
	L -21.68 127.1
	M -22.12 128
	L -22.55 128.9
	M -22.12 129
	L -21.68 129.9
	M -22.12 127
	L -22.12 128
	L -22.12 129
	L -22.12 130
	M -22.55 127.9
	L -23.33 128.5
	M -22.98 128.8
	L -22.98 129.8
	M -23.42 130.7
	L -23.85 131.6
	M -23.42 131.7
	L -22.98 132.6
	M -23.85 133.6
	L -24.63 134.2
	M -24.28 134.5
	L -24.28 135.5
	M -23.42 132.7
	L -23.85 133.6
	L -24.28 134.5
	L -24.72 135.4
	M -23.42 133.7
	L -23.85 134.6
	M -23.42 134.7
	L -22.98 135.6
	M -22.98 136.6
	L -22.98 137.6
	M -22.55 137.5
	L -21.77 138.1
	M -23.42 135.7
	L -22.98 136.6
	L -22.55 137.5
	L -22.12 138.4
	M -23.42 136.7
	L -23.85 137.6
	M -23.42 137.7
	L -22.98 138.6
	M -23.85 139.6
	L -24.63 140.2
	M -24.28 140.5
	L -24.28 141.5
	M -25.5 142
	L -26.47 142.2
	M -26.28 142.6
	L -26.72 143.5
	M -24.72 141.4
	L -25.5 142
	L -26.28 142.6
	L -27.06 143.2
	M -25.15 142.3
	L -25.93 142.9
	M -25.59 143.2
	L -25.59 144.2
	M -26.02 145.1
	L -26.45 146
	M -26.02 146.1
	L -25.59 147
	M -26.02 144.1
	L -26.02 145.1
	L -26.02 146.1
	L -26.02 147.1
	M -26.45 145
	L -27.23 145.6
	M -26.89 145.9
	L -26.89 146.9
	M -23.42 138.7
	L -23.85 139.6
	L -24.28 140.5
	L -24.72 141.4
	L -25.15 142.3
	L -25.59 143.2
	L -26.02 144.1
	L -26.45 145
	L -26.89 145.9
	L -27.32 146.8
	M -23.42 139.7
	L -23.85 140.6
	M -23.42 140.7
	L -22.98 141.6
	M -23.85 142.6
	L -24.63 143.2
	M -24.28 143.5
	L -24.28 144.5
	M -23.42 141.7
	L -23.85 142.6
	L -24.28 143.5
	L -24.72 144.4
	M -23.42 142.7
	L -23.85 143.6
	M -23.42 143.7
	L -22.98 144.6
	M -22.98 145.6
	L -22.98 146.6
	M -22.55 146.5
	L -21.77 147.1
	M -23.42 144.7
	L -22.98 145.6
	L -22.55 146.5
	L -22.12 147.4
	M -23.42 145.7
	L -23.85 146.6
	M -23.42 146.7
	L -22.98 147.6
	M -22.98 148.6
	L -22.98 149.6
	M -22.55 149.5
	L -21.77 150.1
	M -22.12 151.4
	L -22.55 152.3
	M -22.12 152.4
	L -21.68 153.3
	M -22.12 150.4
	L -22.12 151.4
	L -22.12 152.4
	L -22.12 153.4
	M -21.68 151.3
	L -21.68 152.3
	M -21.25 152.2
	L -20.47 152.8
	M -20.03 153.7
	L -19.6 154.6
	M -19.25 154.3
	L -18.28 154.5
	M -20.82 153.1
	L -20.03 153.7
	L -19.25 154.3
	L -18.47 154.9
	M -20.38 154
	L -20.38 155
	M -19.95 154.9
	L -19.17 155.5
	M -23.42 147.7
	L -22.98 148.6
	L -22.55 149.5
	L -22.12 150.4
	L -21.68 151.3
	L -21.25 152.2
	L -20.82 153.1
	L -20.38 154
	L -19.95 154.9
	L -19.51 155.8
	M -23.42 148.7
	L -23.85 149.6
	M -23.42 149.7
	L -22.98 150.6
	M -23.85 151.6
	L -24.63 152.2
	M -24.28 152.5
	L -24.28 153.5
	M -23.42 150.7
	L -23.85 151.6
	L -24.28 152.5
	L -24.72 153.4
	M -23.42 151.7
	L -23.85 152.6
	M -23.42 152.7
	L -22.98 153.6
	M -22.98 154.6
	L -22.98 155.6
	M -22.55 155.5
	L -21.77 156.1
	M -23.42 153.7
	L -22.98 154.6
	L -22.55 155.5
	L -22.12 156.4
	M -23.42 154.7
	L -23.85 155.6
	M -23.42 155.7
	L -22.98 156.6
	M -23.42 129.7
	L -23.42 130.7
	L -23.42 131.7
	L -23.42 132.7
	L -23.42 133.7
	L -23.42 134.7
	L -23.42 135.7
	L -23.42 136.7
	L -23.42 137.7
	L -23.42 138.7
	L -23.42 139.7
	L -23.42 140.7
	L -23.42 141.7
	L -23.42 142.7
	L -23.42 143.7
	L -23.42 144.7
	L -23.42 145.7
	L -23.42 146.7
	L -23.42 147.7
	L -23.42 148.7
	L -23.42 149.7
	L -23.42 150.7
	L -23.42 151.7
	L -23.42 152.7
	L -23.42 153.7
	L -23.42 154.7
	L -23.42 155.7
	L -23.42 156.7
	M -23.85 130.6
	L -24.63 131.2
	M -24.28 131.5
	L -24.28 132.5
	M -25.5 133
	L -26.47 133.2
	M -26.28 133.6
	L -26.72 134.5
	M -24.72 132.4
	L -25.5 133
	L -26.28 133.6
	L -27.06 134.2
	M -25.15 133.3
	L -25.93 133.9
	M -25.59 134.2
	L -25.59 135.2
	M -26.02 136.1
	L -26.45 137
	M -26.02 137.1
	L -25.59 138
	M -26.02 135.1
	L -26.02 136.1
	L -26.02 137.1
	L -26.02 138.1
	M -26.45 136
	L -27.23 136.6
	M -26.89 136.9
	L -26.89 137.9
	M -28.1 138.4
	L -29.08 138.6
	M -28.88 139
	L -29.32 139.9
	M -30.64 139.9
	L -31.61 139.6
	M -31.61 140.1
	L -32.4 140.7
	M -29.67 139.6
	L -30.64 139.9
	L -31.61 140.1
	L -32.59 140.3
	M -30.45 140.3
	L -31.42 140.5
	M -31.23 140.9
	L -31.66 141.8
	M -32.44 142.4
	L -33.22 143
	M -32.88 143.3
	L -32.88 144.3
	M -32.01 141.5
	L -32.44 142.4
	L -32.88 143.3
	L -33.31 144.2
	M -32.79 142.1
	L -33.77 142.4
	M -33.57 142.8
	L -34.01 143.7
	M -27.32 137.8
	L -28.1 138.4
	L -28.88 139
	L -29.67 139.6
	L -30.45 140.3
	L -31.23 140.9
	L -32.01 141.5
	L -32.79 142.1
	L -33.57 142.8
	L -34.35 143.4
	M -27.75 138.7
	L -28.54 139.3
	M -28.19 139.6
	L -28.19 140.6
	M -29.4 141.1
	L -30.38 141.3
	M -30.18 141.7
	L -30.62 142.6
	M -28.62 140.5
	L -29.4 141.1
	L -30.18 141.7
	L -30.97 142.3
	M -29.06 141.4
	L -29.84 142
	M -29.49 142.3
	L -29.49 143.3
	M -29.92 144.2
	L -30.36 145.1
	M -29.92 145.2
	L -29.49 146.1
	M -29.92 143.2
	L -29.92 144.2
	L -29.92 145.2
	L -29.92 146.2
	M -30.36 144.1
	L -31.14 144.7
	M -30.79 145
	L -30.79 146
	M -31.22 146.9
	L -31.66 147.8
	M -31.22 147.9
	L -30.79 148.8
	M -31.66 149.8
	L -32.44 150.4
	M -32.09 150.7
	L -32.09 151.7
	M -31.22 148.9
	L -31.66 149.8
	L -32.09 150.7
	L -32.52 151.6
	M -31.22 149.9
	L -31.66 150.8
	M -31.22 150.9
	L -30.79 151.8
	M -30.79 152.8
	L -30.79 153.8
	M -30.36 153.7
	L -29.57 154.3
	M -31.22 151.9
	L -30.79 152.8
	L -30.36 153.7
	L -29.92 154.6
	M -31.22 152.9
	L -31.66 153.8
	M -31.22 153.9
	L -30.79 154.8
	M -31.22 145.9
	L -31.22 146.9
	L -31.22 147.9
	L -31.22 148.9
	L -31.22 149.9
	L -31.22 150.9
	L -31.22 151.9
	L -31.22 152.9
	L -31.22 153.9
	L -31.22 154.9
	M -31.66 146.8
	L -32.44 147.4
	M -32.09 147.7
	L -32.09 148.7
	M -33.31 149.2
	L -34.28 149.4
	M -34.09 149.8
	L -34.52 150.7
	M -32.52 148.6
	L -33.31 149.2
	L -34.09 149.8
	L -34.87 150.5
	M -32.96 149.5
	L -33.74 150.1
	M -33.39 150.4
	L -33.39 151.4
	M -33.83 152.3
	L -34.26 153.2
	M -33.83 153.3
	L -33.39 154.2
	M -33.83 151.3
	L -33.83 152.3
	L -33.83 153.3
	L -33.83 154.3
	M -34.26 152.2
	L -35.04 152.8
	M -34.69 153.1
	L -34.69 154.1
	M 0 81
	L -0.4337 81.9
	L -0.8673 82.8
	L -1.301 83.7
	L -1.735 84.6
	L -2.168 85.51
	L -2.602 86.41
	L -3.036 87.31
	L -3.469 88.21
	L -3.903 89.11
	L -4.337 90.01
	L -4.77 90.91
	L -5.204 91.81
	L -5.638 92.71
	L -6.071 93.62
	L -6.505 94.52
	L -6.939 95.42
	L -7.372 96.32
	L -7.806 97.22
	L -8.24 98.12
	L -8.673 99.02
	L -9.107 99.92
	L -9.54 100.8
	L -9.974 101.7
	L -10.41 102.6
	L -10.84 103.5
	L -11.28 104.4
	L -11.71 105.3
	L -12.14 106.2
	L -12.58 107.1
	L -13.01 108
	L -13.44 108.9
	L -13.88 109.8
	L -14.31 110.7
	L -14.74 111.6
	L -15.18 112.5
	L -15.61 113.4
	L -16.05 114.3
	L -16.48 115.2
	L -16.91 116.1
	L -17.35 117
	L -17.78 117.9
	L -18.21 118.8
	L -18.65 119.7
	L -19.08 120.6
	L -19.51 121.5
	L -19.95 122.4
	L -20.38 123.4
	L -20.82 124.3
	L -21.25 125.2
	L -21.68 126.1
	L -22.12 127
	L -22.55 127.9
	L -22.98 128.8
	L -23.42 129.7
	L -23.85 130.6
	L -24.28 131.5
	L -24.72 132.4
	L -25.15 133.3
	L -25.59 134.2
	L -26.02 135.1
	L -26.45 136
	L -26.89 136.9
	L -27.32 137.8
	L -27.75 138.7
	L -28.19 139.6
	L -28.62 140.5
	L -29.06 141.4
	L -29.49 142.3
	L -29.92 143.2
	L -30.36 144.1
	L -30.79 145
	L -31.22 145.9
	L -31.66 146.8
	L -32.09 147.7
	L -32.52 148.6
	L -32.96 149.5
	L -33.39 150.4
	L -33.83 151.3
	L -34.26 152.2
	L -34.69 153.1
	L -35.13 154
	M 0 82
	L -0.4337 82.9
	M 0 83
	L 0.4337 83.9
	M -0.4337 84.9
	L -1.215 85.52
	M -0.8673 85.8
	L -0.8673 86.8
	M 0 84
	L -0.4337 84.9
	L -0.8673 85.8
	L -1.301 86.7
	M 0 85
	L -0.4337 85.9
	M 0 86
	L 0.4337 86.9
	M 0.4337 87.9
	L 0.4337 88.9
	M 0.8673 88.8
	L 1.649 89.43
	M 0 87
	L 0.4337 87.9
	L 0.8673 88.8
	L 1.301 89.7
	M 0 88
	L -0.4337 88.9
	M 0 89
	L 0.4337 89.9
	M -0.4337 90.9
	L -1.215 91.52
	M -0.8673 91.8
	L -0.8673 92.8
	M -2.082 93.33
	L -3.057 93.55
	M -2.864 93.95
	L -3.298 94.85
	M -1.301 92.7
	L -2.082 93.33
	L -2.864 93.95
	L -3.646 94.57
	M -1.735 93.6
	L -2.516 94.23
	M -2.168 94.51
	L -2.168 95.51
	M -2.602 96.41
	L -3.036 97.31
	M -2.602 97.41
	L -2.168 98.31
	M -2.602 95.41
	L -2.602 96.41
	L -2.602 97.41
	L -2.602 98.41
	M -3.036 96.31
	L -3.817 96.93
	M -3.469 97.21
	L -3.469 98.21
	M 0 90
	L -0.4337 90.9
	L -0.8673 91.8
	L -1.301 92.7
	L -1.735 93.6
	L -2.168 94.51
	L -2.602 95.41
	L -3.036 96.31
	L -3.469 97.21
	L -3.903 98.11
	M 0 91
	L -0.4337 91.9
	M 0 92
	L 0.4337 92.9
	M -0.4337 93.9
	L -1.215 94.52
	M -0.8673 94.8
	L -0.8673 95.8
	M 0 93
	L -0.4337 93.9
	L -0.8673 94.8
	L -1.301 95.7
	M 0 94
	L -0.4337 94.9
	M 0 95
	L 0.4337 95.9
	M 0.4337 96.9
	L 0.4337 97.9
	M 0.8673 97.8
	L 1.649 98.43
	M 0 96
	L 0.4337 96.9
	L 0.8673 97.8
	L 1.301 98.7
	M 0 97
	L -0.4337 97.9
	M 0 98
	L 0.4337 98.9
	M 0.4337 99.9
	L 0.4337 100.9
	M 0.8673 100.8
	L 1.649 101.4
	M 1.301 102.7
	L 0.8673 103.6
	M 1.301 103.7
	L 1.735 104.6
	M 1.301 101.7
	L 1.301 102.7
	L 1.301 103.7
	L 1.301 104.7
	M 1.735 102.6
	L 1.735 103.6
	M 2.168 103.5
	L 2.95 104.1
	M 3.383 105
	L 3.817 105.9
	M 4.165 105.7
	L 5.14 105.9
	M 2.602 104.4
	L 3.383 105
	L 4.165 105.7
	L 4.947 106.3
	M 3.036 105.3
	L 3.036 106.3
	M 3.469 106.2
	L 4.251 106.8
	M 0 99
	L 0.4337 99.9
	L 0.8673 100.8
	L 1.301 101.7
	L 1.735 102.6
	L 2.168 103.5
	L 2.602 104.4
	L 3.036 105.3
	L 3.469 106.2
	L 3.903 107.1
	M 0 100
	L -0.4337 100.9
	M 0 101
	L 0.4337 101.9
	M -0.4337 102.9
	L -1.215 103.5
	M -0.8673 103.8
	L -0.8673 104.8
	M 0 102
	L -0.4337 102.9
	L -0.8673 103.8
	L -1.301 104.7
	M 0 103
	L -0.4337 103.9
	M 0 104
	L 0.4337 104.9
	M 0.4337 105.9
	L 0.4337 106.9
	M 0.8673 106.8
	L 1.649 107.4
	M 0 105
	L 0.4337 105.9
	L 0.8673 106.8
	L 1.301 107.7
	M 0 106
	L -0.4337 106.9
	M 0 107
	L 0.4337 107.9
	M -0.4337 108.9
	L -1.215 109.5
	M -0.8673 109.8
	L -0.8673 110.8
	M -2.082 111.3
	L -3.057 111.6
	M -2.864 112
	L -3.298 112.9
	M -1.301 110.7
	L -2.082 111.3
	L -2.864 112
	L -3.646 112.6
	M -1.735 111.6
	L -2.516 112.2
	M -2.168 112.5
	L -2.168 113.5
	M -2.602 114.4
	L -3.036 115.3
	M -2.602 115.4
	L -2.168 116.3
	M -2.602 113.4
	L -2.602 114.4
	L -2.602 115.4
	L -2.602 116.4
	M -3.036 114.3
	L -3.817 114.9
	M -3.469 115.2
	L -3.469 116.2
	M -4.684 116.7
	L -5.659 117
	M -5.466 117.4
	L -5.9 118.3
	M -7.222 118.2
	L -8.197 118
	M -8.197 118.4
	L -8.979 119.1
	M -6.247 118
	L -7.222 118.2
	L -8.197 118.4
	L -9.172 118.7
	M -7.029 118.6
	L -8.004 118.8
	M -7.811 119.2
	L -8.244 120.1
	M -9.026 120.8
	L -9.807 121.4
	M -9.459 121.7
	L -9.459 122.7
	M -8.592 119.9
	L -9.026 120.8
	L -9.459 121.7
	L -9.893 122.6
	M -9.374 120.5
	L -10.35 120.7
	M -10.16 121.1
	L -10.59 122
	M -3.903 116.1
	L -4.684 116.7
	L -5.466 117.4
	L -6.247 118
	L -7.029 118.6
	L -7.811 119.2
	L -8.592 119.9
	L -9.374 120.5
	L -10.16 121.1
	L -10.94 121.7
	M -4.337 117
	L -5.118 117.6
	M -4.77 117.9
	L -4.77 118.9
	M -5.985 119.4
	L -6.96 119.7
	M -6.767 120.1
	L -7.201 121
	M -5.204 118.8
	L -5.985 119.4
	L -6.767 120.1
	L -7.548 120.7
	M -5.638 119.7
	L -6.419 120.3
	M -6.071 120.6
	L -6.071 121.6
	M -6.505 122.5
	L -6.939 123.4
	M -6.505 123.5
	L -6.071 124.4
	M -6.505 121.5
	L -6.505 122.5
	L -6.505 123.5
	L -6.505 124.5
	M -6.939 122.4
	L -7.72 123
	M -7.372 123.3
	L -7.372 124.3
	M -7.806 125.2
	L -8.24 126.1
	M -7.806 126.2
	L -7.372 127.1
	M -8.24 128.1
	L -9.021 128.7
	M -8.673 129
	L -8.673 130
	M -7.806 127.2
	L -8.24 128.1
	L -8.673 129
	L -9.107 129.9
	M -7.806 128.2
	L -8.24 129.1
	M -7.806 129.2
	L -7.372 130.1
	M -7.372 131.1
	L -7.372 132.1
	M -6.939 132
	L -6.157 132.6
	M -7.806 130.2
	L -7.372 131.1
	L -6.939 132
	L -6.505 132.9
	M -7.806 131.2
	L -8.24 132.1
	M -7.806 132.2
	L -7.372 133.1
	M -7.806 124.2
	L -7.806 125.2
	L -7.806 126.2
	L -7.806 127.2
	L -7.806 128.2
	L -7.806 129.2
	L -7.806 130.2
	L -7.806 131.2
	L -7.806 132.2
	L -7.806 133.2
	M -8.24 125.1
	L -9.021 125.7
	M -8.673 126
	L -8.673 127
	M -9.888 127.5
	L -10.86 127.8
	M -10.67 128.2
	L -11.1 129.1
	M -9.107 126.9
	L -9.888 127.5
	L -10.67 128.2
	L -11.45 128.8
	M -9.54 127.8
	L -10.32 128.4
	M -9.974 128.7
	L -9.974 129.7
	M -10.41 130.6
	L -10.84 131.5
	M -10.41 131.6
	L -9.974 132.5
	M -10.41 129.6
	L -10.41 130.6
	L -10.41 131.6
	L -10.41 132.6
	M -10.84 130.5
	L -11.62 131.2
	M -11.28 131.4
	L -11.28 132.4
	M 0 108
	L -0.4337 108.9
	L -0.8673 109.8
	L -1.301 110.7
	L -1.735 111.6
	L -2.168 112.5
	L -2.602 113.4
	L -3.036 114.3
	L -3.469 115.2
	L -3.903 116.1
	L -4.337 117
	L -4.77 117.9
	L -5.204 118.8
	L -5.638 119.7
	L -6.071 120.6
	L -6.505 121.5
	L -6.939 122.4
	L -7.372 123.3
	L -7.806 124.2
	L -8.24 125.1
	L -8.673 126
	L -9.107 126.9
	L -9.54 127.8
	L -9.974 128.7
	L -10.41 129.6
	L -10.84 130.5
	L -11.28 131.4
	L -11.71 132.3
	M 0 109
	L -0.4337 109.9
	M 0 110
	L 0.4337 110.9
	M -0.4337 111.9
	L -1.215 112.5
	M -0.8673 112.8
	L -0.8673 113.8
	M 0 111
	L -0.4337 111.9
	L -0.8673 112.8
	L -1.301 113.7
	M 0 112
	L -0.4337 112.9
	M 0 113
	L 0.4337 113.9
	M 0.4337 114.9
	L 0.4337 115.9
	M 0.8673 115.8
	L 1.649 116.4
	M 0 114
	L 0.4337 114.9
	L 0.8673 115.8
	L 1.301 116.7
	M 0 115
	L -0.4337 115.9
	M 0 116
	L 0.4337 116.9
	M -0.4337 117.9
	L -1.215 118.5
	M -0.8673 118.8
	L -0.8673 119.8
	M -2.082 120.3
	L -3.057 120.6
	M -2.864 121
	L -3.298 121.9
	M -1.301 119.7
	L -2.082 120.3
	L -2.864 121
	L -3.646 121.6
	M -1.735 120.6
	L -2.516 121.2
	M -2.168 121.5
	L -2.168 122.5
	M -2.602 123.4
	L -3.036 124.3
	M -2.602 124.4
	L -2.168 125.3
	M -2.602 122.4
	L -2.602 123.4
	L -2.602 124.4
	L -2.602 125.4
	M -3.036 123.3
	L -3.817 123.9
	M -3.469 124.2
	L -3.469 125.2
	M 0 117
	L -0.4337 117.9
	L -0.8673 118.8
	L -1.301 119.7
	L -1.735 120.6
	L -2.168 121.5
	L -2.602 122.4
	L -3.036 123.3
	L -3.469 124.2
	L -3.903 125.1
	M 0 118
	L -0.4337 118.9
	M 0 119
	L 0.4337 119.9
	M -0.4337 120.9
	L -1.215 121.5
	M -0.8673 121.8
	L -0.8673 122.8
	M 0 120
	L -0.4337 120.9
	L -0.8673 121.8
	L -1.301 122.7
	M 0 121
	L -0.4337 121.9
	M 0 122
	L 0.4337 122.9
	M 0.4337 123.9
	L 0.4337 124.9
	M 0.8673 124.8
	L 1.649 125.4
	M 0 123
	L 0.4337 123.9
	L 0.8673 124.8
	L 1.301 125.7
	M 0 124
	L -0.4337 124.9
	M 0 125
	L 0.4337 125.9
	M 0.4337 126.9
	L 0.4337 127.9
	M 0.8673 127.8
	L 1.649 128.4
	M 1.301 129.7
	L 0.8673 130.6
	M 1.301 130.7
	L 1.735 131.6
	M 1.301 128.7
	L 1.301 129.7
	L 1.301 130.7
	L 1.301 131.7
	M 1.735 129.6
	L 1.735 130.6
	M 2.168 130.5
	L 2.95 131.1
	M 3.383 132
	L 3.817 132.9
	M 4.165 132.7
	L 5.14 132.9
	M 2.602 131.4
	L 3.383 132
	L 4.165 132.7
	L 4.947 133.3
	M 3.036 132.3
	L 3.036 133.3
	M 3.469 133.2
	L 4.251 133.8
	M 0 126
	L 0.4337 126.9
	L 0.8673 127.8
	L 1.301 128.7
	L 1.735 129.6
	L 2.168 130.5
	L 2.602 131.4
	L 3.036 132.3
	L 3.469 133.2
	L 3.903 134.1
	M 0 127
	L -0.4337 127.9
	M 0 128
	L 0.4337 128.9
	M -0.4337 129.9
	L -1.215 130.5
	M -0.8673 130.8
	L -0.8673 131.8
	M 0 129
	L -0.4337 129.9
	L -0.8673 130.8
	L -1.301 131.7
	M 0 130
	L -0.4337 130.9
	M 0 131
	L 0.4337 131.9
	M 0.4337 132.9
	L 0.4337 133.9
	M 0.8673 133.8
	L 1.649 134.4
	M 0 132
	L 0.4337 132.9
	L 0.8673 133.8
	L 1.301 134.7
	M 0 133
	L -0.4337 133.9
	M 0 134
	L 0.4337 134.9
	M 0.4337 135.9
	L 0.4337 136.9
	M 0.8673 136.8
	L 1.649 137.4
	M 1.301 138.7
	L 0.8673 139.6
	M 1.301 139.7
	L 1.735 140.6
	M 1.301 137.7
	L 1.301 138.7
	L 1.301 139.7
	L 1.301 140.7
	M 1.735 138.6
	L 1.735 139.6
	M 2.168 139.5
	L 2.95 140.1
	M 3.383 141
	L 3.817 141.9
	M 4.165 141.7
	L 5.14 141.9
	M 2.602 140.4
	L 3.383 141
	L 4.165 141.7
	L 4.947 142.3
	M 3.036 141.3
	L 3.036 142.3
	M 3.469 142.2
	L 4.251 142.8
	M 3.903 144.1
	L 3.469 145
	M 3.903 145.1
	L 4.337 146
	M 3.469 147
	L 2.688 147.6
	M 3.036 147.9
	L 3.036 148.9
	M 3.903 146.1
	L 3.469 147
	L 3.036 147.9
	L 2.602 148.8
	M 3.903 147.1
	L 3.469 148
	M 3.903 148.1
	L 4.337 149
	M 4.337 150
	L 4.337 151
	M 4.77 150.9
	L 5.552 151.5
	M 3.903 149.1
	L 4.337 150
	L 4.77 150.9
	L 5.204 151.8
	M 3.903 150.1
	L 3.469 151
	M 3.903 151.1
	L 4.337 152
	M 3.903 143.1
	L 3.903 144.1
	L 3.903 145.1
	L 3.903 146.1
	L 3.903 147.1
	L 3.903 148.1
	L 3.903 149.1
	L 3.903 150.1
	L 3.903 151.1
	L 3.903 152.1
	M 4.337 144
	L 4.337 145
	M 4.77 144.9
	L 5.552 145.5
	M 5.204 146.8
	L 4.77 147.7
	M 5.204 147.8
	L 5.638 148.7
	M 5.204 145.8
	L 5.204 146.8
	L 5.204 147.8
	L 5.204 148.8
	M 5.638 146.7
	L 5.638 147.7
	M 6.071 147.6
	L 6.853 148.2
	M 7.286 149.1
	L 7.72 150
	M 8.068 149.8
	L 9.043 150
	M 6.505 148.5
	L 7.286 149.1
	L 8.068 149.8
	L 8.849 150.4
	M 6.939 149.4
	L 6.939 150.4
	M 7.372 150.3
	L 8.154 150.9
	M 8.587 151.8
	L 9.021 152.7
	M 9.369 152.5
	L 10.34 152.7
	M 10.58 154
	L 10.58 155
	M 11.02 154.9
	L 11.8 155.5
	M 10.15 153.1
	L 10.58 154
	L 11.02 154.9
	L 11.45 155.8
	M 10.93 153.7
	L 11.37 154.6
	M 11.71 154.3
	L 12.69 154.6
	M 13.47 155.2
	L 14.25 155.8
	M 14.44 155.4
	L 15.42 155.2
	M 12.49 155
	L 13.47 155.2
	L 14.44 155.4
	L 15.42 155.6
	M 13.28 155.6
	L 13.71 156.5
	M 14.06 156.2
	L 15.03 156.4
	M 7.806 151.2
	L 8.587 151.8
	L 9.369 152.5
	L 10.15 153.1
	L 10.93 153.7
	L 11.71 154.3
	L 12.49 155
	L 13.28 155.6
	L 14.06 156.2
	L 14.84 156.8
	M 8.24 152.1
	L 8.24 153.1
	M 8.673 153
	L 9.455 153.6
	M 9.107 154.9
	L 8.673 155.8
	M 9.107 155.9
	L 9.54 156.8
	M 9.107 153.9
	L 9.107 154.9
	L 9.107 155.9
	L 9.107 156.9
	M 9.54 154.8
	L 9.54 155.8
	M 9.974 155.7
	L 10.76 156.3
	M 11.19 157.2
	L 11.62 158.2
	M 11.97 157.9
	L 12.95 158.1
	M 10.41 156.6
	L 11.19 157.2
	L 11.97 157.9
	L 12.75 158.5
	M 10.84 157.5
	L 10.84 158.5
	M 11.28 158.4
	L 12.06 159.1
	M 0 135
	L 0.4337 135.9
	L 0.8673 136.8
	L 1.301 137.7
	L 1.735 138.6
	L 2.168 139.5
	L 2.602 140.4
	L 3.036 141.3
	L 3.469 142.2
	L 3.903 143.1
	L 4.337 144
	L 4.77 144.9
	L 5.204 145.8
	L 5.638 146.7
	L 6.071 147.6
	L 6.505 148.5
	L 6.939 149.4
	L 7.372 150.3
	L 7.806 151.2
	L 8.24 152.1
	L 8.673 153
	L 9.107 153.9
	L 9.54 154.8
	L 9.974 155.7
	L 10.41 156.6
	L 10.84 157.5
	L 11.28 158.4
	L 11.71 159.3
	M 0 136
	L -0.4337 136.9
	M 0 137
	L 0.4337 137.9
	M -0.4337 138.9
	L -1.215 139.5
	M -0.8673 139.8
	L -0.8673 140.8
	M 0 138
	L -0.4337 138.9
	L -0.8673 139.8
	L -1.301 140.7
	M 0 139
	L -0.4337 139.9
	M 0 140
	L 0.4337 140.9
	M 0.4337 141.9
	L 0.4337 142.9
	M 0.8673 142.8
	L 1.649 143.4
	M 0 141
	L 0.4337 141.9
	L 0.8673 142.8
	L 1.301 143.7
	M 0 142
	L -0.4337 142.9
	M 0 143
	L 0.4337 143.9
	M -0.4337 144.9
	L -1.215 145.5
	M -0.8673 145.8
	L -0.8673 146.8
	M -2.082 147.3
	L -3.057 147.6
	M -2.864 148
	L -3.298 148.9
	M -1.301 146.7
	L -2.082 147.3
	L -2.864 148
	L -3.646 148.6
	M -1.735 147.6
	L -2.516 148.2
	M -2.168 148.5
	L -2.168 149.5
	M -2.602 150.4
	L -3.036 151.3
	M -2.602 151.4
	L -2.168 152.3
	M -2.602 149.4
	L -2.602 150.4
	L -2.602 151.4
	L -2.602 152.4
	M -3.036 150.3
	L -3.817 150.9
	M -3.469 151.2
	L -3.469 152.2
	M 0 144
	L -0.4337 144.9
	L -0.8673 145.8
	L -1.301 146.7
	L -1.735 147.6
	L -2.168 148.5
	L -2.602 149.4
	L -3.036 150.3
	L -3.469 151.2
	L -3.903 152.1
	M 0 145
	L -0.4337 145.9
	M 0 146
	L 0.4337 146.9
	M -0.4337 147.9
	L -1.215 148.5
	M -0.8673 148.8
	L -0.8673 149.8
	M 0 147
	L -0.4337 147.9
	L -0.8673 148.8
	L -1.301 149.7
	M 0 148
	L -0.4337 148.9
	M 0 149
	L 0.4337 149.9
	M 0.4337 150.9
	L 0.4337 151.9
	M 0.8673 151.8
	L 1.649 152.4
	M 0 150
	L 0.4337 150.9
	L 0.8673 151.8
	L 1.301 152.7
	M 0 151
	L -0.4337 151.9
	M 0 152
	L 0.4337 152.9
	M 0.4337 153.9
	L 0.4337 154.9
	M 0.8673 154.8
	L 1.649 155.4
	M 1.301 156.7
	L 0.8673 157.6
	M 1.301 157.7
	L 1.735 158.6
	M 1.301 155.7
	L 1.301 156.7
	L 1.301 157.7
	L 1.301 158.7
	M 1.735 156.6
	L 1.735 157.6
	M 2.168 157.5
	L 2.95 158.1
	M 3.383 159
	L 3.817 159.9
	M 4.165 159.7
	L 5.14 159.9
	M 2.602 158.4
	L 3.383 159
	L 4.165 159.7
	L 4.947 160.3
	M 3.036 159.3
	L 3.036 160.3
	M 3.469 160.2
	L 4.251 160.8
	M 0 153
	L 0.4337 153.9
	L 0.8673 154.8
	L 1.301 155.7
	L 1.735 156.6
	L 2.168 157.5
	L 2.602 158.4
	L 3.036 159.3
	L 3.469 160.2
	L 3.903 161.1
	M 0 154
	L -0.4337 154.9
	M 0 155
	L 0.4337 155.9
	M -0.4337 156.9
	L -1.215 157.5
	M -0.8673 157.8
	L -0.8673 158.8
	M 0 156
	L -0.4337 156.9
	L -0.8673 157.8
	L -1.301 158.7
	M 0 157
	L -0.4337 157.9
	M 0 158
	L 0.4337 158.9
	M 0.4337 159.9
	L 0.4337 160.9
	M 0.8673 160.8
	L 1.649 161.4
	M 0 159
	L 0.4337 159.9
	L 0.8673 160.8
	L 1.301 161.7
	M 0 160
	L -0.4337 160.9
	M 0 161
	L 0.4337 161.9
	M 0.4337 162.9
	L 0.4337 163.9
	M 0.8673 163.8
	L 1.649 164.4
	M 1.301 165.7
	L 0.8673 166.6
	M 1.301 166.7
	L 1.735 167.6
	M 1.301 164.7
	L 1.301 165.7
	L 1.301 166.7
	L 1.301 167.7
	M 1.735 165.6
	L 1.735 166.6
	M 2.168 166.5
	L 2.95 167.1
	M 3.383 168
	L 3.817 168.9
	M 4.165 168.7
	L 5.14 168.9
	M 2.602 167.4
	L 3.383 168
	L 4.165 168.7
	L 4.947 169.3
	M 3.036 168.3
	L 3.036 169.3
	M 3.469 169.2
	L 4.251 169.8
	M 3.903 171.1
	L 3.469 172
	M 3.903 172.1
	L 4.337 173
	M 3.469 174
	L 2.688 174.6
	M 3.036 174.9
	L 3.036 175.9
	M 3.903 173.1
	L 3.469 174
	L 3.036 174.9
	L 2.602 175.8
	M 3.903 174.1
	L 3.469 175
	M 3.903 175.1
	L 4.337 176
	M 4.337 177
	L 4.337 178
	M 4.77 177.9
	L 5.552 178.5
	M 3.903 176.1
	L 4.337 177
	L 4.77 177.9
	L 5.204 178.8
	M 3.903 177.1
	L 3.469 178
	M 3.903 178.1
	L 4.337 179
	M 3.903 170.1
	L 3.903 171.1
	L 3.903 172.1
	L 3.903 173.1
	L 3.903 174.1
	L 3.903 175.1
	L 3.903 176.1
	L 3.903 177.1
	L 3.903 178.1
	L 3.903 179.1
	M 4.337 171
	L 4.337 172
	M 4.77 171.9
	L 5.552 172.5
	M 5.204 173.8
	L 4.77 174.7
	M 5.204 174.8
	L 5.638 175.7
	M 5.204 172.8
	L 5.204 173.8
	L 5.204 174.8
	L 5.204 175.8
	M 5.638 173.7
	L 5.638 174.7
	M 6.071 174.6
	L 6.853 175.2
	M 7.286 176.1
	L 7.72 177
	M 8.068 176.8
	L 9.043 177
	M 6.505 175.5
	L 7.286 176.1
	L 8.068 176.8
	L 8.849 177.4
	M 6.939 176.4
	L 6.939 177.4
	M 7.372 177.3
	L 8.154 177.9
	M 8.587 178.8
	L 9.021 179.7
	M 9.369 179.5
	L 10.34 179.7
	M 10.58 181
	L 10.58 182
	M 11.02 181.9
	L 11.8 182.5
	M 10.15 180.1
	L 10.58 181
	L 11.02 181.9
	L 11.45 182.8
	M 10.93 180.7
	L 11.37 181.6
	M 11.71 181.3
	L 12.69 181.6
	M 13.47 182.2
	L 14.25 182.8
	M 14.44 182.4
	L 15.42 182.2
	M 12.49 182
	L 13.47 182.2
	L 14.44 182.4
	L 15.42 182.6
	M 13.28 182.6
	L 13.71 183.5
	M 14.06 183.2
	L 15.03 183.4
	M 7.806 178.2
	L 8.587 178.8
	L 9.369 179.5
	L 10.15 180.1
	L 10.93 180.7
	L 11.71 181.3
	L 12.49 182
	L 13.28 182.6
	L 14.06 183.2
	L 14.84 183.8
	M 8.24 179.1
	L 8.24 180.1
	M 8.673 180
	L 9.455 180.6
	M 9.107 181.9
	L 8.673 182.8
	M 9.107 182.9
	L 9.54 183.8
	M 9.107 180.9
	L 9.107 181.9
	L 9.107 182.9
	L 9.107 183.9
	M 9.54 181.8
	L 9.54 182.8
	M 9.974 182.7
	L 10.76 183.3
	M 11.19 184.2
	L 11.62 185.2
	M 11.97 184.9
	L 12.95 185.1
	M 10.41 183.6
	L 11.19 184.2
	L 11.97 184.9
	L 12.75 185.5
	M 10.84 184.5
	L 10.84 185.5
	M 11.28 185.4
	L 12.06 186.1
	M 11.71 187.3
	L 11.28 188.2
	M 11.71 188.3
	L 12.14 189.2
	M 11.28 190.2
	L 10.49 190.9
	M 10.84 191.1
	L 10.84 192.1
	M 11.71 189.3
	L 11.28 190.2
	L 10.84 191.1
	L 10.41 192
	M 11.71 190.3
	L 11.28 191.2
	M 11.71 191.3
	L 12.14 192.2
	M 12.14 193.2
	L 12.14 194.2
	M 12.58 194.1
	L 13.36 194.8
	M 11.71 192.3
	L 12.14 193.2
	L 12.58 194.1
	L 13.01 195
	M 11.71 193.3
	L 11.28 194.2
	M 11.71 194.3
	L 12.14 195.2
	M 11.28 196.2
	L 10.49 196.9
	M 10.84 197.1
	L 10.84 198.1
	M 9.626 198.7
	L 8.652 198.9
	M 8.845 199.3
	L 8.411 200.2
	M 10.41 198
	L 9.626 198.7
	L 8.845 199.3
	L 8.063 199.9
	M 9.974 198.9
	L 9.193 199.6
	M 9.54 199.8
	L 9.54 200.8
	M 9.107 201.7
	L 8.673 202.6
	M 9.107 202.7
	L 9.54 203.6
	M 9.107 200.7
	L 9.107 201.7
	L 9.107 202.7
	L 9.107 203.7
	M 8.673 201.6
	L 7.892 202.3
	M 8.24 202.5
	L 8.24 203.5
	M 11.71 195.3
	L 11.28 196.2
	L 10.84 197.1
	L 10.41 198
	L 9.974 198.9
	L 9.54 199.8
	L 9.107 200.7
	L 8.673 201.6
	L 8.24 202.5
	L 7.806 203.4
	M 11.71 196.3
	L 11.28 197.2
	M 11.71 197.3
	L 12.14 198.2
	M 11.28 199.2
	L 10.49 199.9
	M 10.84 200.1
	L 10.84 201.1
	M 11.71 198.3
	L 11.28 199.2
	L 10.84 200.1
	L 10.41 201
	M 11.71 199.3
	L 11.28 200.2
	M 11.71 200.3
	L 12.14 201.2
	M 12.14 202.2
	L 12.14 203.2
	M 12.58 203.1
	L 13.36 203.8
	M 11.71 201.3
	L 12.14 202.2
	L 12.58 203.1
	L 13.01 204
	M 11.71 202.3
	L 11.28 203.2
	M 11.71 203.3
	L 12.14 204.2
	M 12.14 205.2
	L 12.14 206.2
	M 12.58 206.1
	L 13.36 206.8
	M 13.01 208
	L 12.58 208.9
	M 13.01 209
	L 13.44 209.9
	M 13.01 207
	L 13.01 208
	L 13.01 209
	L 13.01 210
	M 13.44 207.9
	L 13.44 208.9
	M 13.88 208.8
	L 14.66 209.5
	M 15.09 210.4
	L 15.53 211.3
	M 15.87 211
	L 16.85 211.2
	M 14.31 209.7
	L 15.09 210.4
	L 15.87 211
	L 16.66 211.6
	M 14.74 210.6
	L 14.74 211.6
	M 15.18 211.5
	L 15.96 212.2
	M 11.71 204.3
	L 12.14 205.2
	L 12.58 206.1
	L 13.01 207
	L 13.44 207.9
	L 13.88 208.8
	L 14.31 209.7
	L 14.74 210.6
	L 15.18 211.5
	L 15.61 212.4
	M 11.71 205.3
	L 11.28 206.2
	M 11.71 206.3
	L 12.14 207.2
	M 11.28 208.2
	L 10.49 208.9
	M 10.84 209.1
	L 10.84 210.1
	M 11.71 207.3
	L 11.28 208.2
	L 10.84 209.1
	L 10.41 210
	M 11.71 208.3
	L 11.28 209.2
	M 11.71 209.3
	L 12.14 210.2
	M 12.14 211.2
	L 12.14 212.2
	M 12.58 212.1
	L 13.36 212.8
	M 11.71 210.3
	L 12.14 211.2
	L 12.58 212.1
	L 13.01 213
	M 11.71 211.3
	L 11.28 212.2
	M 11.71 212.3
	L 12.14 213.2
	M 11.71 186.3
	L 11.71 187.3
	L 11.71 188.3
	L 11.71 189.3
	L 11.71 190.3
	L 11.71 191.3
	L 11.71 192.3
	L 11.71 193.3
	L 11.71 194.3
	L 11.71 195.3
	L 11.71 196.3
	L 11.71 197.3
	L 11.71 198.3
	L 11.71 199.3
	L 11.71 200.3
	L 11.71 201.3
	L 11.71 202.3
	L 11.71 203.3
	L 11.71 204.3
	L 11.71 205.3
	L 11.71 206.3
	L 11.71 207.3
	L 11.71 208.3
	L 11.71 209.3
	L 11.71 210.3
	L 11.71 211.3
	L 11.71 212.3
	L 11.71 213.3
	M 12.14 187.2
	L 12.14 188.2
	M 12.58 188.1
	L 13.36 188.8
	M 13.01 190
	L 12.58 190.9
	M 13.01 191
	L 13.44 191.9
	M 13.01 189
	L 13.01 190
	L 13.01 191
	L 13.01 192
	M 13.44 189.9
	L 13.44 190.9
	M 13.88 190.8
	L 14.66 191.5
	M 15.09 192.4
	L 15.53 193.3
	M 15.87 193
	L 16.85 193.2
	M 14.31 191.7
	L 15.09 192.4
	L 15.87 193
	L 16.66 193.6
	M 14.74 192.6
	L 14.74 193.6
	M 15.18 193.5
	L 15.96 194.2
	M 15.61 195.4
	L 15.18 196.3
	M 15.61 196.4
	L 16.05 197.3
	M 15.18 198.3
	L 14.4 199
	M 14.74 199.2
	L 14.74 200.2
	M 15.61 197.4
	L 15.18 198.3
	L 14.74 199.2
	L 14.31 200.1
	M 15.61 198.4
	L 15.18 199.3
	M 15.61 199.4
	L 16.05 200.3
	M 16.05 201.3
	L 16.05 202.3
	M 16.48 202.2
	L 17.26 202.9
	M 15.61 200.4
	L 16.05 201.3
	L 16.48 202.2
	L 16.91 203.1
	M 15.61 201.4
	L 15.18 202.3
	M 15.61 202.4
	L 16.05 203.3
	M 15.61 194.4
	L 15.61 195.4
	L 15.61 196.4
	L 15.61 197.4
	L 15.61 198.4
	L 15.61 199.4
	L 15.61 200.4
	L 15.61 201.4
	L 15.61 202.4
	L 15.61 203.4
	M 16.05 195.3
	L 16.05 196.3
	M 16.48 196.2
	L 17.26 196.9
	M 16.91 198.1
	L 16.48 199
	M 16.91 199.1
	L 17.35 200
	M 16.91 197.1
	L 16.91 198.1
	L 16.91 199.1
	L 16.91 200.1
	M 17.35 198
	L 17.35 199
	M 17.78 198.9
	L 18.56 199.6
	M 19 200.5
	L 19.43 201.4
	M 19.78 201.1
	L 20.75 201.3
	M 18.21 199.8
	L 19 200.5
	L 19.78 201.1
	L 20.56 201.7
	M 18.65 200.7
	L 18.65 201.7
	M 19.08 201.6
	L 19.86 202.3
	M 20.3 203.2
	L 20.73 204.1
	M 21.08 203.8
	L 22.05 204
	M 22.29 205.3
	L 22.29 206.3
	M 22.73 206.2
	L 23.51 206.8
	M 21.86 204.4
	L 22.29 205.3
	L 22.73 206.2
	L 23.16 207.1
	M 22.64 205
	L 23.07 205.9
	M 23.42 205.7
	L 24.4 205.9
	M 25.18 206.5
	L 25.96 207.1
	M 26.15 206.7
	L 27.13 206.5
	M 24.2 206.3
	L 25.18 206.5
	L 26.15 206.7
	L 27.13 207
	M 24.99 206.9
	L 25.42 207.8
	M 25.77 207.5
	L 26.74 207.8
	M 19.51 202.5
	L 20.3 203.2
	L 21.08 203.8
	L 21.86 204.4
	L 22.64 205
	L 23.42 205.7
	L 24.2 206.3
	L 24.99 206.9
	L 25.77 207.5
	L 26.55 208.2
	M 19.95 203.4
	L 19.95 204.4
	M 20.38 204.4
	L 21.16 205
	M 20.82 206.3
	L 20.38 207.2
	M 20.82 207.3
	L 21.25 208.2
	M 20.82 205.3
	L 20.82 206.3
	L 20.82 207.3
	L 20.82 208.3
	M 21.25 206.2
	L 21.25 207.2
	M 21.68 207.1
	L 22.46 207.7
	M 22.9 208.6
	L 23.33 209.5
	M 23.68 209.2
	L 24.65 209.4
	M 22.12 208
	L 22.9 208.6
	L 23.68 209.2
	L 24.46 209.8
	M 22.55 208.9
	L 22.55 209.9
	M 22.98 209.8
	L 23.77 210.4
	M 24.2 211.3
	L 24.63 212.2
	M 24.98 211.9
	L 25.96 212.1
	M 26.2 213.4
	L 26.2 214.4
	M 26.63 214.3
	L 27.41 215
	M 25.76 212.5
	L 26.2 213.4
	L 26.63 214.3
	L 27.06 215.2
	M 26.54 213.2
	L 26.98 214.1
	M 27.33 213.8
	L 28.3 214
	M 29.08 214.6
	L 29.86 215.2
	M 30.06 214.8
	L 31.03 214.6
	M 28.11 214.4
	L 29.08 214.6
	L 30.06 214.8
	L 31.03 215.1
	M 28.89 215
	L 29.32 215.9
	M 29.67 215.6
	L 30.64 215.9
	M 30.88 217.2
	L 30.88 218.2
	M 31.32 218.1
	L 32.1 218.7
	M 31.75 220
	L 31.32 220.9
	M 31.75 221
	L 32.19 221.9
	M 31.75 219
	L 31.75 220
	L 31.75 221
	L 31.75 222
	M 32.19 219.9
	L 32.19 220.9
	M 32.62 220.8
	L 33.4 221.4
	M 33.83 222.3
	L 34.27 223.2
	M 34.62 222.9
	L 35.59 223.2
	M 33.05 221.7
	L 33.83 222.3
	L 34.62 222.9
	L 35.4 223.6
	M 33.49 222.6
	L 33.49 223.6
	M 33.92 223.5
	L 34.7 224.1
	M 30.45 216.3
	L 30.88 217.2
	L 31.32 218.1
	L 31.75 219
	L 32.19 219.9
	L 32.62 220.8
	L 33.05 221.7
	L 33.49 222.6
	L 33.92 223.5
	L 34.35 224.4
	M 31.23 216.9
	L 31.67 217.8
	M 32.01 217.5
	L 32.99 217.7
	M 33.23 219
	L 33.23 220
	M 33.66 219.9
	L 34.44 220.6
	M 32.8 218.1
	L 33.23 219
	L 33.66 219.9
	L 34.1 220.8
	M 33.58 218.8
	L 34.01 219.7
	M 34.36 219.4
	L 35.33 219.6
	M 36.12 220.2
	L 36.9 220.9
	M 37.09 220.5
	L 38.07 220.2
	M 35.14 220
	L 36.12 220.2
	L 37.09 220.5
	L 38.06 220.7
	M 35.92 220.6
	L 36.36 221.5
	M 36.7 221.3
	L 37.68 221.5
	M 38.46 222.1
	L 39.24 222.7
	M 39.43 222.3
	L 40.41 222.1
	M 41.19 223.2
	L 41.62 224.1
	M 41.97 223.8
	L 42.95 224
	M 40.41 222.6
	L 41.19 223.2
	L 41.97 223.8
	L 42.75 224.4
	M 41.38 222.8
	L 42.17 223.4
	M 42.36 223
	L 43.33 222.8
	M 44.31 223
	L 45.28 223.2
	M 45.28 222.8
	L 46.07 222.2
	M 43.33 223.2
	L 44.31 223
	L 45.28 222.8
	L 46.26 222.6
	M 44.31 223.5
	L 45.09 224.1
	M 45.28 223.7
	L 46.26 223.5
	M 37.48 221.9
	L 38.46 222.1
	L 39.43 222.3
	L 40.41 222.6
	L 41.38 222.8
	L 42.36 223
	L 43.33 223.2
	L 44.31 223.5
	L 45.28 223.7
	L 46.26 223.9
	M 38.27 222.5
	L 38.7 223.4
	M 39.05 223.1
	L 40.02 223.4
	M 40.26 224.7
	L 40.26 225.7
	M 40.7 225.6
	L 41.48 226.2
	M 39.83 223.8
	L 40.26 224.7
	L 40.7 225.6
	L 41.13 226.5
	M 40.61 224.4
	L 41.04 225.3
	M 41.39 225
	L 42.37 225.2
	M 43.15 225.9
	L 43.93 226.5
	M 44.12 226.1
	L 45.1 225.9
	M 42.17 225.6
	L 43.15 225.9
	L 44.12 226.1
	L 45.1 226.3
	M 42.96 226.3
	L 43.39 227.2
	M 43.74 226.9
	L 44.71 227.1
	M 23.42 210.7
	L 24.2 211.3
	L 24.98 211.9
	L 25.76 212.5
	L 26.54 213.2
	L 27.33 213.8
	L 28.11 214.4
	L 28.89 215
	L 29.67 215.6
	L 30.45 216.3
	L 31.23 216.9
	L 32.01 217.5
	L 32.8 218.1
	L 33.58 218.8
	L 34.36 219.4
	L 35.14 220
	L 35.92 220.6
	L 36.7 221.3
	L 37.48 221.9
	L 38.27 222.5
	L 39.05 223.1
	L 39.83 223.8
	L 40.61 224.4
	L 41.39 225
	L 42.17 225.6
	L 42.96 226.3
	L 43.74 226.9
	L 44.52 227.5
	M 23.85 211.6
	L 23.85 212.6
	M 24.28 212.5
	L 25.07 213.1
	M 24.72 214.4
	L 24.28 215.3
	M 24.72 215.4
	L 25.15 216.3
	M 24.72 213.4
	L 24.72 214.4
	L 24.72 215.4
	L 24.72 216.4
	M 25.15 214.3
	L 25.15 215.3
	M 25.59 215.2
	L 26.37 215.8
	M 26.8 216.7
	L 27.23 217.6
	M 27.58 217.3
	L 28.56 217.5
	M 26.02 216.1
	L 26.8 216.7
	L 27.58 217.3
	L 28.36 217.9
	M 26.45 217
	L 26.45 218
	M 26.89 217.9
	L 27.67 218.5
	M 27.32 219.8
	L 26.89 220.7
	M 27.32 220.8
	L 27.75 221.7
	M 26.89 222.7
	L 26.11 223.3
	M 26.45 223.6
	L 26.45 224.6
	M 27.32 221.8
	L 26.89 222.7
	L 26.45 223.6
	L 26.02 224.5
	M 27.32 222.8
	L 26.89 223.7
	M 27.32 223.8
	L 27.75 224.7
	M 27.75 225.7
	L 27.75 226.7
	M 28.19 226.6
	L 28.97 227.2
	M 27.32 224.8
	L 27.75 225.7
	L 28.19 226.6
	L 28.62 227.5
	M 27.32 225.8
	L 26.89 226.7
	M 27.32 226.8
	L 27.75 227.7
	M 27.32 218.8
	L 27.32 219.8
	L 27.32 220.8
	L 27.32 221.8
	L 27.32 222.8
	L 27.32 223.8
	L 27.32 224.8
	L 27.32 225.8
	L 27.32 226.8
	L 27.32 227.8
	M 27.75 219.7
	L 27.75 220.7
	M 28.19 220.6
	L 28.97 221.2
	M 28.62 222.5
	L 28.19 223.4
	M 28.62 223.5
	L 29.06 224.4
	M 28.62 221.5
	L 28.62 222.5
	L 28.62 223.5
	L 28.62 224.5
	M 29.06 222.4
	L 29.06 223.4
	M 29.49 223.3
	L 30.27 223.9
	M 30.7 224.8
	L 31.14 225.7
	M 31.49 225.4
	L 32.46 225.6
	M 29.92 224.2
	L 30.7 224.8
	L 31.49 225.4
	L 32.27 226
	M 30.36 225.1
	L 30.36 226.1
	M 30.79 226
	L 31.57 226.6
	M 32 227.5
	L 32.44 228.4
	M 32.79 228.1
	L 33.76 228.3
	M 34 229.7
	L 34 230.7
	M 34.44 230.6
	L 35.22 231.2
	M 33.57 228.7
	L 34 229.7
	L 34.44 230.6
	L 34.87 231.5
	M 34.35 229.4
	L 34.78 230.3
	M 35.13 230
	L 36.11 230.2
	M 36.89 230.8
	L 37.67 231.5
	M 37.86 231.1
	L 38.84 230.8
	M 35.91 230.6
	L 36.89 230.8
	L 37.86 231.1
	L 38.84 231.3
	M 36.69 231.2
	L 37.13 232.1
	M 37.48 231.9
	L 38.45 232.1
	M 31.22 226.9
	L 32 227.5
	L 32.79 228.1
	L 33.57 228.7
	L 34.35 229.4
	L 35.13 230
	L 35.91 230.6
	L 36.69 231.2
	L 37.48 231.9
	L 38.26 232.5
	M 31.66 227.8
	L 31.66 228.8
	M 32.09 228.7
	L 32.87 229.3
	M 32.52 230.6
	L 32.09 231.5
	M 32.52 231.6
	L 32.96 232.5
	M 32.52 229.6
	L 32.52 230.6
	L 32.52 231.6
	L 32.52 232.6
	M 32.96 230.5
	L 32.96 231.5
	M 33.39 231.4
	L 34.17 232
	M 34.61 232.9
	L 35.04 233.8
	M 35.39 233.5
	L 36.36 233.8
	M 33.83 232.3
	L 34.61 232.9
	L 35.39 233.5
	L 36.17 234.2
	M 34.26 233.2
	L 34.26 234.2
	M 34.69 234.1
	L 35.47 234.7
	M 0 162
	L 0.4337 162.9
	L 0.8673 163.8
	L 1.301 164.7
	L 1.735 165.6
	L 2.168 166.5
	L 2.602 167.4
	L 3.036 168.3
	L 3.469 169.2
	L 3.903 170.1
	L 4.337 171
	L 4.77 171.9
	L 5.204 172.8
	L 5.638 173.7
	L 6.071 174.6
	L 6.505 175.5
	L 6.939 176.4
	L 7.372 177.3
	L 7.806 178.2
	L 8.24 179.1
	L 8.673 180
	L 9.107 180.9
	L 9.54 181.8
	L 9.974 182.7
	L 10.41 183.6
	L 10.84 184.5
	L 11.28 185.4
	L 11.71 186.3
	L 12.14 187.2
	L 12.58 188.1
	L 13.01 189
	L 13.44 189.9
	L 13.88 190.8
	L 14.31 191.7
	L 14.74 192.6
	L 15.18 193.5
	L 15.61 194.4
	L 16.05 195.3
	L 16.48 196.2
	L 16.91 197.1
	L 17.35 198
	L 17.78 198.9
	L 18.21 199.8
	L 18.65 200.7
	L 19.08 201.6
	L 19.51 202.5
	L 19.95 203.4
	L 20.38 204.4
	L 20.82 205.3
	L 21.25 206.2
	L 21.68 207.1
	L 22.12 208
	L 22.55 208.9
	L 22.98 209.8
	L 23.42 210.7
	L 23.85 211.6
	L 24.28 212.5
	L 24.72 213.4
	L 25.15 214.3
	L 25.59 215.2
	L 26.02 216.1
	L 26.45 217
	L 26.89 217.9
	L 27.32 218.8
	L 27.75 219.7
	L 28.19 220.6
	L 28.62 221.5
	L 29.06 222.4
	L 29.49 223.3
	L 29.92 224.2
	L 30.36 225.1
	L 30.79 226
	L 31.22 226.9
	L 31.66 227.8
	L 32.09 228.7
	L 32.52 229.6
	L 32.96 230.5
	L 33.39 231.4
	L 33.83 232.3
	L 34.26 233.2
	L 34.69 234.1
	L 35.13 235
	M 0 163
	L -0.4337 163.9
	M 0 164
	L 0.4337 164.9
	M -0.4337 165.9
	L -1.215 166.5
	M -0.8673 166.8
	L -0.8673 167.8
	M 0 165
	L -0.4337 165.9
	L -0.8673 166.8
	L -1.301 167.7
	M 0 166
	L -0.4337 166.9
	M 0 167
	L 0.4337 167.9
	M 0.4337 168.9
	L 0.4337 169.9
	M 0.8673 169.8
	L 1.649 170.4
	M 0 168
	L 0.4337 168.9
	L 0.8673 169.8
	L 1.301 170.7
	M 0 169
	L -0.4337 169.9
	M 0 170
	L 0.4337 170.9
	M -0.4337 171.9
	L -1.215 172.5
	M -0.8673 172.8
	L -0.8673 173.8
	M -2.082 174.3
	L -3.057 174.6
	M -2.864 175
	L -3.298 175.9
	M -1.301 173.7
	L -2.082 174.3
	L -2.864 175
	L -3.646 175.6
	M -1.735 174.6
	L -2.516 175.2
	M -2.168 175.5
	L -2.168 176.5
	M -2.602 177.4
	L -3.036 178.3
	M -2.602 178.4
	L -2.168 179.3
	M -2.602 176.4
	L -2.602 177.4
	L -2.602 178.4
	L -2.602 179.4
	M -3.036 177.3
	L -3.817 177.9
	M -3.469 178.2
	L -3.469 179.2
	M 0 171
	L -0.4337 171.9
	L -0.8673 172.8
	L -1.301 173.7
	L -1.735 174.6
	L -2.168 175.5
	L -2.602 176.4
	L -3.036 177.3
	L -3.469 178.2
	L -3.903 179.1
	M 0 172
	L -0.4337 172.9
	M 0 173
	L 0.4337 173.9
	M -0.4337 174.9
	L -1.215 175.5
	M -0.8673 175.8
	L -0.8673 176.8
	M 0 174
	L -0.4337 174.9
	L -0.8673 175.8
	L -1.301 176.7
	M 0 175
	L -0.4337 175.9
	M 0 176
	L 0.4337 176.9
	M 0.4337 177.9
	L 0.4337 178.9
	M 0.8673 178.8
	L 1.649 179.4
	M 0 177
	L 0.4337 177.9
	L 0.8673 178.8
	L 1.301 179.7
	M 0 178
	L -0.4337 178.9
	M 0 179
	L 0.4337 179.9
	M 0.4337 180.9
	L 0.4337 181.9
	M 0.8673 181.8
	L 1.649 182.4
	M 1.301 183.7
	L 0.8673 184.6
	M 1.301 184.7
	L 1.735 185.6
	M 1.301 182.7
	L 1.301 183.7
	L 1.301 184.7
	L 1.301 185.7
	M 1.735 183.6
	L 1.735 184.6
	M 2.168 184.5
	L 2.95 185.1
	M 3.383 186
	L 3.817 186.9
	M 4.165 186.7
	L 5.14 186.9
	M 2.602 185.4
	L 3.383 186
	L 4.165 186.7
	L 4.947 187.3
	M 3.036 186.3
	L 3.036 187.3
	M 3.469 187.2
	L 4.251 187.8
	M 0 180
	L 0.4337 180.9
	L 0.8673 181.8
	L 1.301 182.7
	L 1.735 183.6
	L 2.168 184.5
	L 2.602 185.4
	L 3.036 186.3
	L 3.469 187.2
	L 3.903 188.1
	M 0 181
	L -0.4337 181.9
	M 0 182
	L 0.4337 182.9
	M -0.4337 183.9
	L -1.215 184.5
	M -0.8673 184.8
	L -0.8673 185.8
	M 0 183
	L -0.4337 183.9
	L -0.8673 184.8
	L -1.301 185.7
	M 0 184
	L -0.4337 184.9
	M 0 185
	L 0.4337 185.9
	M 0.4337 186.9
	L 0.4337 187.9
	M 0.8673 187.8
	L 1.649 188.4
	M 0 186
	L 0.4337 186.9
	L 0.8673 187.8
	L 1.301 188.7
	M 0 187
	L -0.4337 187.9
	M 0 188
	L 0.4337 188.9
	M -0.4337 189.9
	L -1.215 190.5
	M -0.8673 190.8
	L -0.8673 191.8
	M -2.082 192.3
	L -3.057 192.6
	M -2.864 193
	L -3.298 193.9
	M -1.301 191.7
	L -2.082 192.3
	L -2.864 193
	L -3.646 193.6
	M -1.735 192.6
	L -2.516 193.2
	M -2.168 193.5
	L -2.168 194.5
	M -2.602 195.4
	L -3.036 196.3
	M -2.602 196.4
	L -2.168 197.3
	M -2.602 194.4
	L -2.602 195.4
	L -2.602 196.4
	L -2.602 197.4
	M -3.036 195.3
	L -3.817 195.9
	M -3.469 196.2
	L -3.469 197.2
	M -4.684 197.7
	L -5.659 198
	M -5.466 198.4
	L -5.9 199.3
	M -7.222 199.2
	L -8.197 199
	M -8.197 199.4
	L -8.979 200.1
	M -6.247 199
	L -7.222 199.2
	L -8.197 199.4
	L -9.172 199.7
	M -7.029 199.6
	L -8.004 199.8
	M -7.811 200.2
	L -8.244 201.1
	M -9.026 201.8
	L -9.807 202.4
	M -9.459 202.7
	L -9.459 203.7
	M -8.592 200.9
	L -9.026 201.8
	L -9.459 202.7
	L -9.893 203.6
	M -9.374 201.5
	L -10.35 201.7
	M -10.16 202.1
	L -10.59 203
	M -3.903 197.1
	L -4.684 197.7
	L -5.466 198.4
	L -6.247 199
	L -7.029 199.6
	L -7.811 200.2
	L -8.592 200.9
	L -9.374 201.5
	L -10.16 202.1
	L -10.94 202.7
	M -4.337 198
	L -5.118 198.6
	M -4.77 198.9
	L -4.77 199.9
	M -5.985 200.4
	L -6.96 200.7
	M -6.767 201.1
	L -7.201 202
	M -5.204 199.8
	L -5.985 200.4
	L -6.767 201.1
	L -7.548 201.7
	M -5.638 200.7
	L -6.419 201.3
	M -6.071 201.6
	L -6.071 202.6
	M -6.505 203.5
	L -6.939 204.4
	M -6.505 204.5
	L -6.071 205.4
	M -6.505 202.5
	L -6.505 203.5
	L -6.505 204.5
	L -6.505 205.5
	M -6.939 203.4
	L -7.72 204
	M -7.372 204.3
	L -7.372 205.3
	M -7.806 206.2
	L -8.24 207.1
	M -7.806 207.2
	L -7.372 208.1
	M -8.24 209.1
	L -9.021 209.7
	M -8.673 210
	L -8.673 211
	M -7.806 208.2
	L -8.24 209.1
	L -8.673 210
	L -9.107 210.9
	M -7.806 209.2
	L -8.24 210.1
	M -7.806 210.2
	L -7.372 211.1
	M -7.372 212.1
	L -7.372 213.1
	M -6.939 213
	L -6.157 213.6
	M -7.806 211.2
	L -7.372 212.1
	L -6.939 213
	L -6.505 213.9
	M -7.806 212.2
	L -8.24 213.1
	M -7.806 213.2
	L -7.372 214.1
	M -7.806 205.2
	L -7.806 206.2
	L -7.806 207.2
	L -7.806 208.2
	L -7.806 209.2
	L -7.806 210.2
	L -7.806 211.2
	L -7.806 212.2
	L -7.806 213.2
	L -7.806 214.2
	M -8.24 206.1
	L -9.021 206.7
	M -8.673 207
	L -8.673 208
	M -9.888 208.5
	L -10.86 208.8
	M -10.67 209.2
	L -11.1 210.1
	M -9.107 207.9
	L -9.888 208.5
	L -10.67 209.2
	L -11.45 209.8
	M -9.54 208.8
	L -10.32 209.4
	M -9.974 209.7
	L -9.974 210.7
	M -10.41 211.6
	L -10.84 212.5
	M -10.41 212.6
	L -9.974 213.5
	M -10.41 210.6
	L -10.41 211.6
	L -10.41 212.6
	L -10.41 213.6
	M -10.84 211.5
	L -11.62 212.2
	M -11.28 212.4
	L -11.28 213.4
	M 0 189
	L -0.4337 189.9
	L -0.8673 190.8
	L -1.301 191.7
	L -1.735 192.6
	L -2.168 193.5
	L -2.602 194.4
	L -3.036 195.3
	L -3.469 196.2
	L -3.903 197.1
	L -4.337 198
	L -4.77 198.9
	L -5.204 199.8
	L -5.638 200.7
	L -6.071 201.6
	L -6.505 202.5
	L -6.939 203.4
	L -7.372 204.3
	L -7.806 205.2
	L -8.24 206.1
	L -8.673 207
	L -9.107 207.9
	L -9.54 208.8
	L -9.974 209.7
	L -10.41 210.6
	L -10.84 211.5
	L -11.28 212.4
	L -11.71 213.3
	M 0 190
	L -0.4337 190.9
	M 0 191
	L 0.4337 191.9
	M -0.4337 192.9
	L -1.215 193.5
	M -0.8673 193.8
	L -0.8673 194.8
	M 0 192
	L -0.4337 192.9
	L -0.8673 193.8
	L -1.301 194.7
	M 0 193
	L -0.4337 193.9
	M 0 194
	L 0.4337 194.9
	M 0.4337 195.9
	L 0.4337 196.9
	M 0.8673 196.8
	L 1.649 197.4
	M 0 195
	L 0.4337 195.9
	L 0.8673 196.8
	L 1.301 197.7
	M 0 196
	L -0.4337 196.9
	M 0 197
	L 0.4337 197.9
	M -0.4337 198.9
	L -1.215 199.5
	M -0.8673 199.8
	L -0.8673 200.8
	M -2.082 201.3
	L -3.057 201.6
	M -2.864 202
	L -3.298 202.9
	M -1.301 200.7
	L -2.082 201.3
	L -2.864 202
	L -3.646 202.6
	M -1.735 201.6
	L -2.516 202.2
	M -2.168 202.5
	L -2.168 203.5
	M -2.602 204.4
	L -3.036 205.3
	M -2.602 205.4
	L -2.168 206.3
	M -2.602 203.4
	L -2.602 204.4
	L -2.602 205.4
	L -2.602 206.4
	M -3.036 204.3
	L -3.817 204.9
	M -3.469 205.2
	L -3.469 206.2
	M 0 198
	L -0.4337 198.9
	L -0.8673 199.8
	L -1.301 200.7
	L -1.735 201.6
	L -2.168 202.5
	L -2.602 203.4
	L -3.036 204.3
	L -3.469 205.2
	L -3.903 206.1
	M 0 199
	L -0.4337 199.9
	M 0 200
	L 0.4337 200.9
	M -0.4337 201.9
	L -1.215 202.5
	M -0.8673 202.8
	L -0.8673 203.8
	M 0 201
	L -0.4337 201.9
	L -0.8673 202.8
	L -1.301 203.7
	M 0 202
	L -0.4337 202.9
	M 0 203
	L 0.4337 203.9
	M 0.4337 204.9
	L 0.4337 205.9
	M 0.8673 205.8
	L 1.649 206.4
	M 0 204
	L 0.4337 204.9
	L 0.8673 205.8
	L 1.301 206.7
	M 0 205
	L -0.4337 205.9
	M 0 206
	L 0.4337 206.9
	M 0.4337 207.9
	L 0.4337 208.9
	M 0.8673 208.8
	L 1.649 209.4
	M 1.301 210.7
	L 0.8673 211.6
	M 1.301 211.7
	L 1.735 212.6
	M 1.301 209.7
	L 1.301 210.7
	L 1.301 211.7
	L 1.301 212.7
	M 1.735 210.6
	L 1.735 211.6
	M 2.168 211.5
	L 2.95 212.1
	M 3.383 213
	L 3.817 213.9
	M 4.165 213.7
	L 5.14 213.9
	M 2.602 212.4
	L 3.383 213
	L 4.165 213.7
	L 4.947 214.3
	M 3.036 213.3
	L 3.036 214.3
	M 3.469 214.2
	L 4.251 214.8
	M 0 207
	L 0.4337 207.9
	L 0.8673 208.8
	L 1.301 209.7
	L 1.735 210.6
	L 2.168 211.5
	L 2.602 212.4
	L 3.036 213.3
	L 3.469 214.2
	L 3.903 215.1
	M 0 208
	L -0.4337 208.9
	M 0 209
	L 0.4337 209.9
	M -0.4337 210.9
	L -1.215 211.5
	M -0.8673 211.8
	L -0.8673 212.8
	M 0 210
	L -0.4337 210.9
	L -0.8673 211.8
	L -1.301 212.7
	M 0 211
	L -0.4337 211.9
	M 0 212
	L 0.4337 212.9
	M 0.4337 213.9
	L 0.4337 214.9
	M 0.8673 214.8
	L 1.649 215.4
	M 0 213
	L 0.4337 213.9
	L 0.8673 214.8
	L 1.301 215.7
	M 0 214
	L -0.4337 214.9
	M 0 215
	L 0.4337 215.9
	M 0.4337 216.9
	L 0.4337 217.9
	M 0.8673 217.8
	L 1.649 218.4
	M 1.301 219.7
	L 0.8673 220.6
	M 1.301 220.7
	L 1.735 221.6
	M 1.301 218.7
	L 1.301 219.7
	L 1.301 220.7
	L 1.301 221.7
	M 1.735 219.6
	L 1.735 220.6
	M 2.168 220.5
	L 2.95 221.1
	M 3.383 222
	L 3.817 222.9
	M 4.165 222.7
	L 5.14 222.9
	M 2.602 221.4
	L 3.383 222
	L 4.165 222.7
	L 4.947 223.3
	M 3.036 222.3
	L 3.036 223.3
	M 3.469 223.2
	L 4.251 223.8
	M 3.903 225.1
	L 3.469 226
	M 3.903 226.1
	L 4.337 227
	M 3.469 228
	L 2.688 228.6
	M 3.036 228.9
	L 3.036 229.9
	M 3.903 227.1
	L 3.469 228
	L 3.036 228.9
	L 2.602 229.8
	M 3.903 228.1
	L 3.469 229
	M 3.903 229.1
	L 4.337 230
	M 4.337 231
	L 4.337 232
	M 4.77 231.9
	L 5.552 232.5
	M 3.903 230.1
	L 4.337 231
	L 4.77 231.9
	L 5.204 232.8
	M 3.903 231.1
	L 3.469 232
	M 3.903 232.1
	L 4.337 233
	M 3.903 224.1
	L 3.903 225.1
	L 3.903 226.1
	L 3.903 227.1
	L 3.903 228.1
	L 3.903 229.1
	L 3.903 230.1
	L 3.903 231.1
	L 3.903 232.1
	L 3.903 233.1
	M 4.337 225
	L 4.337 226
	M 4.77 225.9
	L 5.552 226.5
	M 5.204 227.8
	L 4.77 228.7
	M 5.204 228.8
	L 5.638 229.7
	M 5.204 226.8
	L 5.204 227.8
	L 5.204 228.8
	L 5.204 229.8
	M 5.638 227.7
	L 5.638 228.7
	M 6.071 228.6
	L 6.853 229.2
	M 7.286 230.1
	L 7.72 231
	M 8.068 230.8
	L 9.043 231
	M 6.505 229.5
	L 7.286 230.1
	L 8.068 230.8
	L 8.849 231.4
	M 6.939 230.4
	L 6.939 231.4
	M 7.372 231.3
	L 8.154 231.9
	M 8.587 232.8
	L 9.021 233.7
	M 9.369 233.5
	L 10.34 233.7
	M 10.58 235
	L 10.58 236
	M 11.02 235.9
	L 11.8 236.5
	M 10.15 234.1
	L 10.58 235
	L 11.02 235.9
	L 11.45 236.8
	M 10.93 234.7
	L 11.37 235.6
	M 11.71 235.3
	L 12.69 235.6
	M 13.47 236.2
	L 14.25 236.8
	M 14.44 236.4
	L 15.42 236.2
	M 12.49 236
	L 13.47 236.2
	L 14.44 236.4
	L 15.42 236.6
	M 13.28 236.6
	L 13.71 237.5
	M 14.06 237.2
	L 15.03 237.4
	M 7.806 232.2
	L 8.587 232.8
	L 9.369 233.5
	L 10.15 234.1
	L 10.93 234.7
	L 11.71 235.3
	L 12.49 236
	L 13.28 236.6
	L 14.06 237.2
	L 14.84 237.8
	M 8.24 233.1
	L 8.24 234.1
	M 8.673 234
	L 9.455 234.6
	M 9.107 235.9
	L 8.673 236.8
	M 9.107 236.9
	L 9.54 237.8
	M 9.107 234.9
	L 9.107 235.9
	L 9.107 236.9
	L 9.107 237.9
	M 9.54 235.8
	L 9.54 236.8
	M 9.974 236.7
	L 10.76 237.3
	M 11.19 238.2
	L 11.62 239.2
	M 11.97 238.9
	L 12.95 239.1
	M 10.41 237.6
	L 11.19 238.2
	L 11.97 238.9
	L 12.75 239.5
	M 10.84 238.5
	L 10.84 239.5
	M 11.28 239.4
	L 12.06 240.1
	M 0 216
	L 0.4337 216.9
	L 0.8673 217.8
	L 1.301 218.7
	L 1.735 219.6
	L 2.168 220.5
	L 2.602 221.4
	L 3.036 222.3
	L 3.469 223.2
	L 3.903 224.1
	L 4.337 225
	L 4.77 225.9
	L 5.204 226.8
	L 5.638 227.7
	L 6.071 228.6
	L 6.505 229.5
	L 6.939 230.4
	L 7.372 231.3
	L 7.806 232.2
	L 8.24 233.1
	L 8.673 234
	L 9.107 234.9
	L 9.54 235.8
	L 9.974 236.7
	L 10.41 237.6
	L 10.84 238.5
	L 11.28 239.4
	L 11.71 240.3
	M 0 217
	L -0.4337 217.9
	M 0 218
	L 0.4337 218.9
	M -0.4337 219.9
	L -1.215 220.5
	M -0.8673 220.8
	L -0.8673 221.8
	M 0 219
	L -0.4337 219.9
	L -0.8673 220.8
	L -1.301 221.7
	M 0 220
	L -0.4337 220.9
	M 0 221
	L 0.4337 221.9
	M 0.4337 222.9
	L 0.4337 223.9
	M 0.8673 223.8
	L 1.649 224.4
	M 0 222
	L 0.4337 222.9
	L 0.8673 223.8
	L 1.301 224.7
	M 0 223
	L -0.4337 223.9
	M 0 224
	L 0.4337 224.9
	M -0.4337 225.9
	L -1.215 226.5
	M -0.8673 226.8
	L -0.8673 227.8
	M -2.082 228.3
	L -3.057 228.6
	M -2.864 229
	L -3.298 229.9
	M -1.301 227.7
	L -2.082 228.3
	L -2.864 229
	L -3.646 229.6
	M -1.735 228.6
	L -2.516 229.2
	M -2.168 229.5
	L -2.168 230.5
	M -2.602 231.4
	L -3.036 232.3
	M -2.602 232.4
	L -2.168 233.3
	M -2.602 230.4
	L -2.602 231.4
	L -2.602 232.4
	L -2.602 233.4
	M -3.036 231.3
	L -3.817 231.9
	M -3.469 232.2
	L -3.469 233.2
	M 0 225
	L -0.4337 225.9
	L -0.8673 226.8
	L -1.301 227.7
	L -1.735 228.6
	L -2.168 229.5
	L -2.602 230.4
	L -3.036 231.3
	L -3.469 232.2
	L -3.903 233.1
	M 0 226
	L -0.4337 226.9
	M 0 227
	L 0.4337 227.9
	M -0.4337 228.9
	L -1.215 229.5
	M -0.8673 229.8
	L -0.8673 230.8
	M 0 228
	L -0.4337 228.9
	L -0.8673 229.8
	L -1.301 230.7
	M 0 229
	L -0.4337 229.9
	M 0 230
	L 0.4337 230.9
	M 0.4337 231.9
	L 0.4337 232.9
	M 0.8673 232.8
	L 1.649 233.4
	M 0 231
	L 0.4337 231.9
	L 0.8673 232.8
	L 1.301 233.7
	M 0 232
	L -0.4337 232.9
	M 0 233
	L 0.4337 233.9
	M 0.4337 234.9
	L 0.4337 235.9
	M 0.8673 235.8
	L 1.649 236.4
	M 1.301 237.7
	L 0.8673 238.6
	M 1.301 238.7
	L 1.735 239.6
	M 1.301 236.7
	L 1.301 237.7
	L 1.301 238.7
	L 1.301 239.7
	M 1.735 237.6
	L 1.735 238.6
	M 2.168 238.5
	L 2.95 239.1
	M 3.383 240
	L 3.817 240.9
	M 4.165 240.7
	L 5.14 240.9
	M 2.602 239.4
	L 3.383 240
	L 4.165 240.7
	L 4.947 241.3
	M 3.036 240.3
	L 3.036 241.3
	M 3.469 241.2
	L 4.251 241.8
	M 0 234
	L 0.4337 234.9
	L 0.8673 235.8
	L 1.301 236.7
	L 1.735 237.6
	L 2.168 238.5
	L 2.602 239.4
	L 3.036 240.3
	L 3.469 241.2
	L 3.903 242.1
	M 0 235
	L -0.4337 235.9
	M 0 236
	L 0.4337 236.9
	M -0.4337 237.9
	L -1.215 238.5
	M -0.8673 238.8
	L -0.8673 239.8
	M 0 237
	L -0.4337 237.9
	L -0.8673 238.8
	L -1.301 239.7
	M 0 238
	L -0.4337 238.9
	M 0 239
	L 0.4337 239.9
	M 0.4337 240.9
	L 0.4337 241.9
	M 0.8673 241.8
	L 1.649 242.4
	M 0 240
	L 0.4337 240.9
	L 0.8673 241.8
	L 1.301 242.7
	M 0 241
	L -0.4337 241.9
	M 0 242
	L 0.4337 242.9
	M 0 0
	L 0 1
	L 0 2
	L 0 3
	L 0 4
	L 0 5
	L 0 6
	L 0 7
	L 0 8
	L 0 9
	L 0 10
	L 0 11
	L 0 12
	L 0 13
	L 0 14
	L 0 15
	L 0 16
	L 0 17
	L 0 18
	L 0 19
	L 0 20
	L 0 21
	L 0 22
	L 0 23
	L 0 24
	L 0 25
	L 0 26
	L 0 27
	L 0 28
	L 0 29
	L 0 30
	L 0 31
	L 0 32
	L 0 33
	L 0 34
	L 0 35
	L 0 36
	L 0 37
	L 0 38
	L 0 39
	L 0 40
	L 0 41
	L 0 42
	L 0 43
	L 0 44
	L 0 45
	L 0 46
	L 0 47
	L 0 48
	L 0 49
	L 0 50
	L 0 51
	L 0 52
	L 0 53
	L 0 54
	L 0 55
	L 0 56
	L 0 57
	L 0 58
	L 0 59
	L 0 60
	L 0 61
	L 0 62
	L 0 63
	L 0 64
	L 0 65
	L 0 66
	L 0 67
	L 0 68
	L 0 69
	L 0 70
	L 0 71
	L 0 72
	L 0 73
	L 0 74
	L 0 75
	L 0 76
	L 0 77
	L 0 78
	L 0 79
	L 0 80
	L 0 81
	L 0 82
	L 0 83
	L 0 84
	L 0 85
	L 0 86
	L 0 87
	L 0 88
	L 0 89
	L 0 90
	L 0 91
	L 0 92
	L 0 93
	L 0 94
	L 0 95
	L 0 96
	L 0 97
	L 0 98
	L 0 99
	L 0 100
	L 0 101
	L 0 102
	L 0 103
	L 0 104
	L 0 105
	L 0 106
	L 0 107
	L 0 108
	L 0 109
	L 0 110
	L 0 111
	L 0 112
	L 0 113
	L 0 114
	L 0 115
	L 0 116
	L 0 117
	L 0 118
	L 0 119
	L 0 120
	L 0 121
	L 0 122
	L 0 123
	L 0 124
	L 0 125
	L 0 126
	L 0 127
	L 0 128
	L 0 129
	L 0 130
	L 0 131
	L 0 132
	L 0 133
	L 0 134
	L 0 135
	L 0 136
	L 0 137
	L 0 138
	L 0 139
	L 0 140
	L 0 141
	L 0 142
	L 0 143
	L 0 144
	L 0 145
	L 0 146
	L 0 147
	L 0 148
	L 0 149
	L 0 150
	L 0 151
	L 0 152
	L 0 153
	L 0 154
	L 0 155
	L 0 156
	L 0 157
	L 0 158
	L 0 159
	L 0 160
	L 0 161
	L 0 162
	L 0 163
	L 0 164
	L 0 165
	L 0 166
	L 0 167
	L 0 168
	L 0 169
	L 0 170
	L 0 171
	L 0 172
	L 0 173
	L 0 174
	L 0 175
	L 0 176
	L 0 177
	L 0 178
	L 0 179
	L 0 180
	L 0 181
	L 0 182
	L 0 183
	L 0 184
	L 0 185
	L 0 186
	L 0 187
	L 0 188
	L 0 189
	L 0 190
	L 0 191
	L 0 192
	L 0 193
	L 0 194
	L 0 195
	L 0 196
	L 0 197
	L 0 198
	L 0 199
	L 0 200
	L 0 201
	L 0 202
	L 0 203
	L 0 204
	L 0 205
	L 0 206
	L 0 207
	L 0 208
	L 0 209
	L 0 210
	L 0 211
	L 0 212
	L 0 213
	L 0 214
	L 0 215
	L 0 216
	L 0 217
	L 0 218
	L 0 219
	L 0 220
	L 0 221
	L 0 222
	L 0 223
	L 0 224
	L 0 225
	L 0 226
	L 0 227
	L 0 228
	L 0 229
	L 0 230
	L 0 231
	L 0 232
	L 0 233
	L 0 234
	L 0 235
	L 0 236
	L 0 237
	L 0 238
	L 0 239
	L 0 240
	L 0 241
	L 0 242
	L 0 243
"/>
</svg>
