<svg version="1.1" baseProfile="full" xmlns="http://www.w3.org/2000/svg"
width="718.8" height="1024"
viewBox="-37.8 -81.8 58.12 82.8"
>
<rect x="-37.8" y="-81.8" width="100%" height="100%" fill="white" />
<path stroke="green" stroke-width="0.04" stroke-linecap="round" fill="none"
transform="scale(1 -1)"
d="	M 8.738 26.98
	L 9.662 26.6
	M 8.738 26.98
	L 9.738 26.98
	L 10.66 27.37
	L 11.59 27.75
	M 7.738 26.98
	L 8.738 26.98
	L 9.738 26.98
	L 10.66 26.6
	M 8.662 27.37
	L 9.662 27.37
	M 8.662 27.37
	L 9.585 27.75
	L 10.29 28.46
	L 11 29.16
	M 7.738 26.98
	L 8.662 27.37
	L 9.585 27.75
	L 10.59 27.75
	M 11.71 29.87
	L 12.63 30.25
	M 11.71 29.87
	L 12.41 30.58
	L 12.8 31.5
	L 13.18 32.43
	M 9.585 27.75
	L 10.29 28.46
	L 11 29.16
	L 11.71 29.87
	L 12.41 30.58
	L 13.34 30.96
	M 10.59 27.75
	L 11.51 27.37
	M 10.59 27.75
	L 11.59 27.75
	L 12.51 28.13
	L 13.43 28.52
	M 5.89 26.22
	L 6.814 26.6
	L 7.738 26.98
	L 8.662 27.37
	L 9.585 27.75
	L 10.59 27.75
	L 11.59 27.75
	L 12.51 27.37
	M 8.228 28.02
	L 9.228 28.02
	M 8.228 28.02
	L 9.152 28.4
	L 9.859 29.11
	L 10.57 29.81
	M 7.304 27.63
	L 8.228 28.02
	L 9.152 28.4
	L 10.15 28.4
	M 8.011 28.34
	L 8.935 28.72
	M 8.011 28.34
	L 8.718 29.05
	L 9.101 29.97
	L 9.484 30.9
	M 7.304 27.63
	L 8.011 28.34
	L 8.718 29.05
	L 9.642 29.43
	M 9.866 31.82
	L 10.57 32.53
	M 9.866 31.82
	L 10.25 32.74
	L 10.25 33.74
	L 10.25 34.74
	M 8.718 29.05
	L 9.101 29.97
	L 9.484 30.9
	L 9.866 31.82
	L 10.25 32.74
	L 10.96 33.45
	M 9.642 29.43
	L 10.64 29.43
	M 9.642 29.43
	L 10.57 29.81
	L 11.27 30.52
	L 11.98 31.23
	M 5.89 26.22
	L 6.597 26.93
	L 7.304 27.63
	L 8.011 28.34
	L 8.718 29.05
	L 9.642 29.43
	L 10.57 29.81
	L 11.57 29.81
	M 11.72 35.3
	L 12.65 35.68
	M 11.72 35.3
	L 12.43 36.01
	L 12.81 36.93
	L 13.19 37.85
	M 11.01 34.59
	L 11.72 35.3
	L 12.43 36.01
	L 13.35 36.39
	M 11.4 35.52
	L 12.1 36.22
	M 11.4 35.52
	L 11.78 36.44
	L 11.78 37.44
	L 11.78 38.44
	M 11.01 34.59
	L 11.4 35.52
	L 11.78 36.44
	L 12.49 37.15
	M 11.78 39.44
	L 12.16 40.36
	M 11.78 39.44
	L 11.78 40.44
	L 11.4 41.36
	L 11.01 42.29
	M 11.78 36.44
	L 11.78 37.44
	L 11.78 38.44
	L 11.78 39.44
	L 11.78 40.44
	L 12.16 41.36
	M 12.49 37.15
	L 13.41 37.53
	M 12.49 37.15
	L 13.19 37.85
	L 13.58 38.78
	L 13.96 39.7
	M 8.718 29.05
	L 9.101 29.97
	L 9.484 30.9
	L 9.866 31.82
	L 10.25 32.74
	L 10.63 33.67
	L 11.01 34.59
	L 11.4 35.52
	L 11.78 36.44
	L 12.49 37.15
	L 13.19 37.85
	L 14.12 38.24
	M 11.57 29.81
	L 12.49 29.43
	M 11.57 29.81
	L 12.57 29.81
	L 13.49 30.2
	L 14.41 30.58
	M 10.57 29.81
	L 11.57 29.81
	L 12.57 29.81
	L 13.49 29.43
	M 11.49 30.2
	L 12.49 30.2
	M 11.49 30.2
	L 12.41 30.58
	L 13.12 31.29
	L 13.83 31.99
	M 10.57 29.81
	L 11.49 30.2
	L 12.41 30.58
	L 13.41 30.58
	M 14.54 32.7
	L 15.46 33.08
	M 14.54 32.7
	L 15.24 33.41
	L 15.62 34.33
	L 16.01 35.25
	M 12.41 30.58
	L 13.12 31.29
	L 13.83 31.99
	L 14.54 32.7
	L 15.24 33.41
	L 16.17 33.79
	M 13.41 30.58
	L 14.34 30.2
	M 13.41 30.58
	L 14.41 30.58
	L 15.34 30.96
	L 16.26 31.34
	M 3.061 23.39
	L 3.769 24.1
	L 4.476 24.81
	L 5.183 25.51
	L 5.89 26.22
	L 6.597 26.93
	L 7.304 27.63
	L 8.011 28.34
	L 8.718 29.05
	L 9.642 29.43
	L 10.57 29.81
	L 11.49 30.2
	L 12.41 30.58
	L 13.41 30.58
	L 14.41 30.58
	L 15.34 30.2
	M 6.93 28.88
	L 7.93 28.88
	M 6.93 28.88
	L 7.854 29.27
	L 8.561 29.97
	L 9.268 30.68
	M 6.006 28.5
	L 6.93 28.88
	L 7.854 29.27
	L 8.854 29.27
	M 6.714 29.21
	L 7.637 29.59
	M 6.714 29.21
	L 7.421 29.91
	L 7.803 30.84
	L 8.186 31.76
	M 6.006 28.5
	L 6.714 29.21
	L 7.421 29.91
	L 8.345 30.3
	M 8.569 32.69
	L 9.276 33.39
	M 8.569 32.69
	L 8.951 33.61
	L 8.951 34.61
	L 8.951 35.61
	M 7.421 29.91
	L 7.803 30.84
	L 8.186 31.76
	L 8.569 32.69
	L 8.951 33.61
	L 9.658 34.32
	M 8.345 30.3
	L 9.345 30.3
	M 8.345 30.3
	L 9.268 30.68
	L 9.975 31.39
	L 10.68 32.09
	M 4.592 27.09
	L 5.299 27.79
	L 6.006 28.5
	L 6.714 29.21
	L 7.421 29.91
	L 8.345 30.3
	L 9.268 30.68
	L 10.27 30.68
	M 6.065 29.64
	L 6.989 30.02
	M 6.065 29.64
	L 6.772 30.35
	L 7.154 31.27
	L 7.537 32.2
	M 5.358 28.93
	L 6.065 29.64
	L 6.772 30.35
	L 7.696 30.73
	M 5.74 29.86
	L 6.447 30.57
	M 5.74 29.86
	L 6.123 30.78
	L 6.123 31.78
	L 6.123 32.78
	M 5.358 28.93
	L 5.74 29.86
	L 6.123 30.78
	L 6.83 31.49
	M 6.123 33.78
	L 6.506 34.71
	M 6.123 33.78
	L 6.123 34.78
	L 5.74 35.71
	L 5.358 36.63
	M 6.123 30.78
	L 6.123 31.78
	L 6.123 32.78
	L 6.123 33.78
	L 6.123 34.78
	L 6.506 35.71
	M 6.83 31.49
	L 7.754 31.87
	M 6.83 31.49
	L 7.537 32.2
	L 7.92 33.12
	L 8.303 34.04
	M 4.592 27.09
	L 4.975 28.01
	L 5.358 28.93
	L 5.74 29.86
	L 6.123 30.78
	L 6.83 31.49
	L 7.537 32.2
	L 8.461 32.58
	M 6.506 37.71
	L 7.213 38.41
	M 6.506 37.71
	L 6.888 38.63
	L 6.888 39.63
	L 6.888 40.63
	M 6.123 36.78
	L 6.506 37.71
	L 6.888 38.63
	L 7.595 39.34
	M 6.123 37.78
	L 6.506 38.71
	M 6.123 37.78
	L 6.123 38.78
	L 5.74 39.71
	L 5.358 40.63
	M 6.123 36.78
	L 6.123 37.78
	L 6.123 38.78
	L 6.506 39.71
	M 4.975 41.55
	L 4.975 42.55
	M 4.975 41.55
	L 4.592 42.48
	L 3.885 43.18
	L 3.178 43.89
	M 6.123 38.78
	L 5.74 39.71
	L 5.358 40.63
	L 4.975 41.55
	L 4.592 42.48
	L 4.592 43.48
	M 6.506 39.71
	L 7.213 40.41
	M 6.506 39.71
	L 6.888 40.63
	L 6.888 41.63
	L 6.888 42.63
	M 6.123 30.78
	L 6.123 31.78
	L 6.123 32.78
	L 6.123 33.78
	L 6.123 34.78
	L 6.123 35.78
	L 6.123 36.78
	L 6.123 37.78
	L 6.123 38.78
	L 6.506 39.71
	L 6.888 40.63
	L 7.595 41.34
	M 8.461 32.58
	L 9.461 32.58
	M 8.461 32.58
	L 9.385 32.96
	L 10.09 33.67
	L 10.8 34.38
	M 7.537 32.2
	L 8.461 32.58
	L 9.385 32.96
	L 10.38 32.96
	M 8.244 32.9
	L 9.168 33.29
	M 8.244 32.9
	L 8.951 33.61
	L 9.334 34.53
	L 9.717 35.46
	M 7.537 32.2
	L 8.244 32.9
	L 8.951 33.61
	L 9.875 33.99
	M 10.1 36.38
	L 10.81 37.09
	M 10.1 36.38
	L 10.48 37.31
	L 10.48 38.31
	L 10.48 39.31
	M 8.951 33.61
	L 9.334 34.53
	L 9.717 35.46
	L 10.1 36.38
	L 10.48 37.31
	L 11.19 38.01
	M 9.875 33.99
	L 10.88 33.99
	M 9.875 33.99
	L 10.8 34.38
	L 11.51 35.08
	L 12.21 35.79
	M 3.061 23.39
	L 3.444 24.31
	L 3.827 25.24
	L 4.21 26.16
	L 4.592 27.09
	L 4.975 28.01
	L 5.358 28.93
	L 5.74 29.86
	L 6.123 30.78
	L 6.83 31.49
	L 7.537 32.2
	L 8.244 32.9
	L 8.951 33.61
	L 9.875 33.99
	L 10.8 34.38
	L 11.8 34.38
	M 7.595 45.34
	L 8.519 45.72
	M 7.595 45.34
	L 8.303 46.04
	L 8.685 46.97
	L 9.068 47.89
	M 6.888 44.63
	L 7.595 45.34
	L 8.303 46.04
	L 9.226 46.43
	M 7.271 45.55
	L 7.978 46.26
	M 7.271 45.55
	L 7.654 46.48
	L 7.654 47.48
	L 7.654 48.48
	M 6.888 44.63
	L 7.271 45.55
	L 7.654 46.48
	L 8.361 47.18
	M 7.654 49.48
	L 8.036 50.4
	M 7.654 49.48
	L 7.654 50.48
	L 7.271 51.4
	L 6.888 52.33
	M 7.654 46.48
	L 7.654 47.48
	L 7.654 48.48
	L 7.654 49.48
	L 7.654 50.48
	L 8.036 51.4
	M 8.361 47.18
	L 9.285 47.57
	M 8.361 47.18
	L 9.068 47.89
	L 9.451 48.82
	L 9.833 49.74
	M 6.123 42.78
	L 6.506 43.71
	L 6.888 44.63
	L 7.271 45.55
	L 7.654 46.48
	L 8.361 47.18
	L 9.068 47.89
	L 9.992 48.27
	M 6.506 45.71
	L 7.213 46.41
	M 6.506 45.71
	L 6.888 46.63
	L 6.888 47.63
	L 6.888 48.63
	M 6.123 44.78
	L 6.506 45.71
	L 6.888 46.63
	L 7.595 47.34
	M 6.123 45.78
	L 6.506 46.71
	M 6.123 45.78
	L 6.123 46.78
	L 5.74 47.71
	L 5.358 48.63
	M 6.123 44.78
	L 6.123 45.78
	L 6.123 46.78
	L 6.506 47.71
	M 4.975 49.55
	L 4.975 50.55
	M 4.975 49.55
	L 4.592 50.48
	L 3.885 51.18
	L 3.178 51.89
	M 6.123 46.78
	L 5.74 47.71
	L 5.358 48.63
	L 4.975 49.55
	L 4.592 50.48
	L 4.592 51.48
	M 6.506 47.71
	L 7.213 48.41
	M 6.506 47.71
	L 6.888 48.63
	L 6.888 49.63
	L 6.888 50.63
	M 6.123 42.78
	L 6.123 43.78
	L 6.123 44.78
	L 6.123 45.78
	L 6.123 46.78
	L 6.506 47.71
	L 6.888 48.63
	L 7.595 49.34
	M 3.827 53.33
	L 4.21 54.25
	M 3.827 53.33
	L 3.827 54.33
	L 3.444 55.25
	L 3.061 56.17
	M 3.827 52.33
	L 3.827 53.33
	L 3.827 54.33
	L 4.21 55.25
	M 3.444 53.25
	L 3.444 54.25
	M 3.444 53.25
	L 3.061 54.17
	L 2.354 54.88
	L 1.647 55.59
	M 3.827 52.33
	L 3.444 53.25
	L 3.061 54.17
	L 3.061 55.17
	M 0.9401 56.29
	L 0.5575 57.22
	M 0.9401 56.29
	L 0.233 57
	L -0.6908 57.38
	L -1.615 57.77
	M 3.061 54.17
	L 2.354 54.88
	L 1.647 55.59
	L 0.9401 56.29
	L 0.233 57
	L -0.1496 57.93
	M 3.061 55.17
	L 3.444 56.1
	M 3.061 55.17
	L 3.061 56.17
	L 2.679 57.1
	L 2.296 58.02
	M 6.123 46.78
	L 5.74 47.71
	L 5.358 48.63
	L 4.975 49.55
	L 4.592 50.48
	L 4.21 51.4
	L 3.827 52.33
	L 3.444 53.25
	L 3.061 54.17
	L 3.061 55.17
	L 3.061 56.17
	L 3.444 57.1
	M 7.595 49.34
	L 8.519 49.72
	M 7.595 49.34
	L 8.303 50.04
	L 8.685 50.97
	L 9.068 51.89
	M 6.888 48.63
	L 7.595 49.34
	L 8.303 50.04
	L 9.226 50.43
	M 7.271 49.55
	L 7.978 50.26
	M 7.271 49.55
	L 7.654 50.48
	L 7.654 51.48
	L 7.654 52.48
	M 6.888 48.63
	L 7.271 49.55
	L 7.654 50.48
	L 8.361 51.18
	M 7.654 53.48
	L 8.036 54.4
	M 7.654 53.48
	L 7.654 54.48
	L 7.271 55.4
	L 6.888 56.33
	M 7.654 50.48
	L 7.654 51.48
	L 7.654 52.48
	L 7.654 53.48
	L 7.654 54.48
	L 8.036 55.4
	M 8.361 51.18
	L 9.285 51.57
	M 8.361 51.18
	L 9.068 51.89
	L 9.451 52.82
	L 9.833 53.74
	M 6.123 30.78
	L 6.123 31.78
	L 6.123 32.78
	L 6.123 33.78
	L 6.123 34.78
	L 6.123 35.78
	L 6.123 36.78
	L 6.123 37.78
	L 6.123 38.78
	L 6.123 39.78
	L 6.123 40.78
	L 6.123 41.78
	L 6.123 42.78
	L 6.123 43.78
	L 6.123 44.78
	L 6.123 45.78
	L 6.123 46.78
	L 6.506 47.71
	L 6.888 48.63
	L 7.271 49.55
	L 7.654 50.48
	L 8.361 51.18
	L 9.068 51.89
	L 9.992 52.27
	M 11.8 34.38
	L 12.72 33.99
	M 11.8 34.38
	L 12.8 34.38
	L 13.72 34.76
	L 14.65 35.14
	M 10.8 34.38
	L 11.8 34.38
	L 12.8 34.38
	L 13.72 33.99
	M 11.72 34.76
	L 12.72 34.76
	M 11.72 34.76
	L 12.65 35.14
	L 13.35 35.85
	L 14.06 36.56
	M 10.8 34.38
	L 11.72 34.76
	L 12.65 35.14
	L 13.65 35.14
	M 14.77 37.26
	L 15.69 37.65
	M 14.77 37.26
	L 15.48 37.97
	L 15.86 38.89
	L 16.24 39.82
	M 12.65 35.14
	L 13.35 35.85
	L 14.06 36.56
	L 14.77 37.26
	L 15.48 37.97
	L 16.4 38.35
	M 13.65 35.14
	L 14.57 34.76
	M 13.65 35.14
	L 14.65 35.14
	L 15.57 35.52
	L 16.49 35.91
	M 8.951 33.61
	L 9.875 33.99
	L 10.8 34.38
	L 11.72 34.76
	L 12.65 35.14
	L 13.65 35.14
	L 14.65 35.14
	L 15.57 34.76
	M 11.29 35.41
	L 12.29 35.41
	M 11.29 35.41
	L 12.21 35.79
	L 12.92 36.5
	L 13.63 37.2
	M 10.37 35.02
	L 11.29 35.41
	L 12.21 35.79
	L 13.21 35.79
	M 11.07 35.73
	L 12 36.11
	M 11.07 35.73
	L 11.78 36.44
	L 12.16 37.36
	L 12.55 38.29
	M 10.37 35.02
	L 11.07 35.73
	L 11.78 36.44
	L 12.7 36.82
	M 12.93 39.21
	L 13.63 39.92
	M 12.93 39.21
	L 13.31 40.13
	L 13.31 41.13
	L 13.31 42.13
	M 11.78 36.44
	L 12.16 37.36
	L 12.55 38.29
	L 12.93 39.21
	L 13.31 40.13
	L 14.02 40.84
	M 12.7 36.82
	L 13.7 36.82
	M 12.7 36.82
	L 13.63 37.2
	L 14.33 37.91
	L 15.04 38.62
	M 8.951 33.61
	L 9.658 34.32
	L 10.37 35.02
	L 11.07 35.73
	L 11.78 36.44
	L 12.7 36.82
	L 13.63 37.2
	L 14.63 37.2
	M 14.78 42.69
	L 15.71 43.07
	M 14.78 42.69
	L 15.49 43.4
	L 15.87 44.32
	L 16.26 45.24
	M 14.08 41.98
	L 14.78 42.69
	L 15.49 43.4
	L 16.41 43.78
	M 14.46 42.91
	L 15.17 43.61
	M 14.46 42.91
	L 14.84 43.83
	L 14.84 44.83
	L 14.84 45.83
	M 14.08 41.98
	L 14.46 42.91
	L 14.84 43.83
	L 15.55 44.54
	M 14.84 46.83
	L 15.22 47.75
	M 14.84 46.83
	L 14.84 47.83
	L 14.46 48.75
	L 14.08 49.68
	M 14.84 43.83
	L 14.84 44.83
	L 14.84 45.83
	L 14.84 46.83
	L 14.84 47.83
	L 15.22 48.75
	M 15.55 44.54
	L 16.47 44.92
	M 15.55 44.54
	L 16.26 45.24
	L 16.64 46.17
	L 17.02 47.09
	M 11.78 36.44
	L 12.16 37.36
	L 12.55 38.29
	L 12.93 39.21
	L 13.31 40.13
	L 13.69 41.06
	L 14.08 41.98
	L 14.46 42.91
	L 14.84 43.83
	L 15.55 44.54
	L 16.26 45.24
	L 17.18 45.63
	M 14.63 37.2
	L 15.55 36.82
	M 14.63 37.2
	L 15.63 37.2
	L 16.55 37.59
	L 17.48 37.97
	M 13.63 37.2
	L 14.63 37.2
	L 15.63 37.2
	L 16.55 36.82
	M 14.55 37.59
	L 15.55 37.59
	M 14.55 37.59
	L 15.48 37.97
	L 16.18 38.68
	L 16.89 39.38
	M 13.63 37.2
	L 14.55 37.59
	L 15.48 37.97
	L 16.48 37.97
	M 17.6 40.09
	L 18.52 40.47
	M 17.6 40.09
	L 18.3 40.8
	L 18.69 41.72
	L 19.07 42.65
	M 15.48 37.97
	L 16.18 38.68
	L 16.89 39.38
	L 17.6 40.09
	L 18.3 40.8
	L 19.23 41.18
	M 16.48 37.97
	L 17.4 37.59
	M 16.48 37.97
	L 17.48 37.97
	L 18.4 38.35
	L 19.32 38.74
	M 0 16
	L 0.3827 16.92
	L 0.7654 17.85
	L 1.148 18.77
	L 1.531 19.7
	L 1.913 20.62
	L 2.296 21.54
	L 2.679 22.47
	L 3.061 23.39
	L 3.444 24.31
	L 3.827 25.24
	L 4.21 26.16
	L 4.592 27.09
	L 4.975 28.01
	L 5.358 28.93
	L 5.74 29.86
	L 6.123 30.78
	L 6.83 31.49
	L 7.537 32.2
	L 8.244 32.9
	L 8.951 33.61
	L 9.658 34.32
	L 10.37 35.02
	L 11.07 35.73
	L 11.78 36.44
	L 12.7 36.82
	L 13.63 37.2
	L 14.55 37.59
	L 15.48 37.97
	L 16.48 37.97
	L 17.48 37.97
	L 18.4 37.59
	M 3.869 29.49
	L 4.869 29.49
	M 3.869 29.49
	L 4.793 29.88
	L 5.5 30.58
	L 6.207 31.29
	M 2.945 29.11
	L 3.869 29.49
	L 4.793 29.88
	L 5.793 29.88
	M 3.652 29.82
	L 4.576 30.2
	M 3.652 29.82
	L 4.359 30.52
	L 4.742 31.45
	L 5.125 32.37
	M 2.945 29.11
	L 3.652 29.82
	L 4.359 30.52
	L 5.283 30.91
	M 5.507 33.3
	L 6.214 34
	M 5.507 33.3
	L 5.89 34.22
	L 5.89 35.22
	L 5.89 36.22
	M 4.359 30.52
	L 4.742 31.45
	L 5.125 32.37
	L 5.507 33.3
	L 5.89 34.22
	L 6.597 34.93
	M 5.283 30.91
	L 6.283 30.91
	M 5.283 30.91
	L 6.207 31.29
	L 6.914 32
	L 7.621 32.7
	M 1.531 27.7
	L 2.238 28.4
	L 2.945 29.11
	L 3.652 29.82
	L 4.359 30.52
	L 5.283 30.91
	L 6.207 31.29
	L 7.207 31.29
	M 3.003 30.25
	L 3.927 30.63
	M 3.003 30.25
	L 3.71 30.96
	L 4.093 31.88
	L 4.476 32.81
	M 2.296 29.54
	L 3.003 30.25
	L 3.71 30.96
	L 4.634 31.34
	M 2.679 30.47
	L 3.386 31.17
	M 2.679 30.47
	L 3.061 31.39
	L 3.061 32.39
	L 3.061 33.39
	M 2.296 29.54
	L 2.679 30.47
	L 3.061 31.39
	L 3.769 32.1
	M 3.061 34.39
	L 3.444 35.31
	M 3.061 34.39
	L 3.061 35.39
	L 2.679 36.31
	L 2.296 37.24
	M 3.061 31.39
	L 3.061 32.39
	L 3.061 33.39
	L 3.061 34.39
	L 3.061 35.39
	L 3.444 36.31
	M 3.769 32.1
	L 4.692 32.48
	M 3.769 32.1
	L 4.476 32.81
	L 4.858 33.73
	L 5.241 34.65
	M 1.531 27.7
	L 1.913 28.62
	L 2.296 29.54
	L 2.679 30.47
	L 3.061 31.39
	L 3.769 32.1
	L 4.476 32.81
	L 5.4 33.19
	M 3.444 38.31
	L 4.151 39.02
	M 3.444 38.31
	L 3.827 39.24
	L 3.827 40.24
	L 3.827 41.24
	M 3.061 37.39
	L 3.444 38.31
	L 3.827 39.24
	L 4.534 39.95
	M 3.061 38.39
	L 3.444 39.31
	M 3.061 38.39
	L 3.061 39.39
	L 2.679 40.31
	L 2.296 41.24
	M 3.061 37.39
	L 3.061 38.39
	L 3.061 39.39
	L 3.444 40.31
	M 1.913 42.16
	L 1.913 43.16
	M 1.913 42.16
	L 1.531 43.09
	L 0.8236 43.79
	L 0.1165 44.5
	M 3.061 39.39
	L 2.679 40.31
	L 2.296 41.24
	L 1.913 42.16
	L 1.531 43.09
	L 1.531 44.09
	M 3.444 40.31
	L 4.151 41.02
	M 3.444 40.31
	L 3.827 41.24
	L 3.827 42.24
	L 3.827 43.24
	M 3.061 31.39
	L 3.061 32.39
	L 3.061 33.39
	L 3.061 34.39
	L 3.061 35.39
	L 3.061 36.39
	L 3.061 37.39
	L 3.061 38.39
	L 3.061 39.39
	L 3.444 40.31
	L 3.827 41.24
	L 4.534 41.95
	M 5.4 33.19
	L 6.4 33.19
	M 5.4 33.19
	L 6.323 33.57
	L 7.031 34.28
	L 7.738 34.98
	M 4.476 32.81
	L 5.4 33.19
	L 6.323 33.57
	L 7.323 33.57
	M 5.183 33.51
	L 6.107 33.9
	M 5.183 33.51
	L 5.89 34.22
	L 6.273 35.14
	L 6.655 36.07
	M 4.476 32.81
	L 5.183 33.51
	L 5.89 34.22
	L 6.814 34.6
	M 7.038 36.99
	L 7.745 37.7
	M 7.038 36.99
	L 7.421 37.91
	L 7.421 38.91
	L 7.421 39.91
	M 5.89 34.22
	L 6.273 35.14
	L 6.655 36.07
	L 7.038 36.99
	L 7.421 37.91
	L 8.128 38.62
	M 6.814 34.6
	L 7.814 34.6
	M 6.814 34.6
	L 7.738 34.98
	L 8.445 35.69
	L 9.152 36.4
	M 0 24
	L 0.3827 24.92
	L 0.7654 25.85
	L 1.148 26.77
	L 1.531 27.7
	L 1.913 28.62
	L 2.296 29.54
	L 2.679 30.47
	L 3.061 31.39
	L 3.769 32.1
	L 4.476 32.81
	L 5.183 33.51
	L 5.89 34.22
	L 6.814 34.6
	L 7.738 34.98
	L 8.738 34.98
	M 1.472 30.55
	L 2.396 30.94
	M 1.472 30.55
	L 2.18 31.26
	L 2.562 32.19
	L 2.945 33.11
	M 0.7654 29.85
	L 1.472 30.55
	L 2.18 31.26
	L 3.103 31.64
	M 1.148 30.77
	L 1.855 31.48
	M 1.148 30.77
	L 1.531 31.7
	L 1.531 32.7
	L 1.531 33.7
	M 0.7654 29.85
	L 1.148 30.77
	L 1.531 31.7
	L 2.238 32.4
	M 1.531 34.7
	L 1.913 35.62
	M 1.531 34.7
	L 1.531 35.7
	L 1.148 36.62
	L 0.7654 37.54
	M 1.531 31.7
	L 1.531 32.7
	L 1.531 33.7
	L 1.531 34.7
	L 1.531 35.7
	L 1.913 36.62
	M 2.238 32.4
	L 3.162 32.79
	M 2.238 32.4
	L 2.945 33.11
	L 3.328 34.03
	L 3.71 34.96
	M 0 28
	L 0.3827 28.92
	L 0.7654 29.85
	L 1.148 30.77
	L 1.531 31.7
	L 2.238 32.4
	L 2.945 33.11
	L 3.869 33.49
	M 0.3827 30.92
	L 1.09 31.63
	M 0.3827 30.92
	L 0.7654 31.85
	L 0.7654 32.85
	L 0.7654 33.85
	M 0 30
	L 0.3827 30.92
	L 0.7654 31.85
	L 1.472 32.55
	M 0 31
	L 0.3827 31.92
	M 0 31
	L 0 32
	L -0.3827 32.92
	L -0.7654 33.85
	M 0 30
	L 0 31
	L 0 32
	L 0.3827 32.92
	M -1.148 34.77
	L -1.148 35.77
	M -1.148 34.77
	L -1.531 35.7
	L -2.238 36.4
	L -2.945 37.11
	M 0 32
	L -0.3827 32.92
	L -0.7654 33.85
	L -1.148 34.77
	L -1.531 35.7
	L -1.531 36.7
	M 0.3827 32.92
	L 1.09 33.63
	M 0.3827 32.92
	L 0.7654 33.85
	L 0.7654 34.85
	L 0.7654 35.85
	M 0 28
	L 0 29
	L 0 30
	L 0 31
	L 0 32
	L 0.3827 32.92
	L 0.7654 33.85
	L 1.472 34.55
	M -2.296 38.54
	L -1.913 39.47
	M -2.296 38.54
	L -2.296 39.54
	L -2.679 40.47
	L -3.061 41.39
	M -2.296 37.54
	L -2.296 38.54
	L -2.296 39.54
	L -1.913 40.47
	M -2.679 38.47
	L -2.679 39.47
	M -2.679 38.47
	L -3.061 39.39
	L -3.769 40.1
	L -4.476 40.81
	M -2.296 37.54
	L -2.679 38.47
	L -3.061 39.39
	L -3.061 40.39
	M -5.183 41.51
	L -5.565 42.44
	M -5.183 41.51
	L -5.89 42.22
	L -6.814 42.6
	L -7.738 42.98
	M -3.061 39.39
	L -3.769 40.1
	L -4.476 40.81
	L -5.183 41.51
	L -5.89 42.22
	L -6.273 43.14
	M -3.061 40.39
	L -2.679 41.31
	M -3.061 40.39
	L -3.061 41.39
	L -3.444 42.31
	L -3.827 43.24
	M 0 32
	L -0.3827 32.92
	L -0.7654 33.85
	L -1.148 34.77
	L -1.531 35.7
	L -1.913 36.62
	L -2.296 37.54
	L -2.679 38.47
	L -3.061 39.39
	L -3.061 40.39
	L -3.061 41.39
	L -2.679 42.31
	M 1.472 34.55
	L 2.396 34.94
	M 1.472 34.55
	L 2.18 35.26
	L 2.562 36.19
	L 2.945 37.11
	M 0.7654 33.85
	L 1.472 34.55
	L 2.18 35.26
	L 3.103 35.64
	M 1.148 34.77
	L 1.855 35.48
	M 1.148 34.77
	L 1.531 35.7
	L 1.531 36.7
	L 1.531 37.7
	M 0.7654 33.85
	L 1.148 34.77
	L 1.531 35.7
	L 2.238 36.4
	M 1.531 38.7
	L 1.913 39.62
	M 1.531 38.7
	L 1.531 39.7
	L 1.148 40.62
	L 0.7654 41.54
	M 1.531 35.7
	L 1.531 36.7
	L 1.531 37.7
	L 1.531 38.7
	L 1.531 39.7
	L 1.913 40.62
	M 2.238 36.4
	L 3.162 36.79
	M 2.238 36.4
	L 2.945 37.11
	L 3.328 38.03
	L 3.71 38.96
	M 0 24
	L 0 25
	L 0 26
	L 0 27
	L 0 28
	L 0 29
	L 0 30
	L 0 31
	L 0 32
	L 0.3827 32.92
	L 0.7654 33.85
	L 1.148 34.77
	L 1.531 35.7
	L 2.238 36.4
	L 2.945 37.11
	L 3.869 37.49
	M -4.21 46.01
	L -3.502 46.72
	M -4.21 46.01
	L -3.827 46.93
	L -3.827 47.93
	L -3.827 48.93
	M -4.592 45.09
	L -4.21 46.01
	L -3.827 46.93
	L -3.12 47.64
	M -4.592 46.09
	L -4.21 47.01
	M -4.592 46.09
	L -4.592 47.09
	L -4.975 48.01
	L -5.358 48.93
	M -4.592 45.09
	L -4.592 46.09
	L -4.592 47.09
	L -4.21 48.01
	M -5.74 49.86
	L -5.74 50.86
	M -5.74 49.86
	L -6.123 50.78
	L -6.83 51.49
	L -7.537 52.2
	M -4.592 47.09
	L -4.975 48.01
	L -5.358 48.93
	L -5.74 49.86
	L -6.123 50.78
	L -6.123 51.78
	M -4.21 48.01
	L -3.502 48.72
	M -4.21 48.01
	L -3.827 48.93
	L -3.827 49.93
	L -3.827 50.93
	M -4.592 43.09
	L -4.592 44.09
	L -4.592 45.09
	L -4.592 46.09
	L -4.592 47.09
	L -4.21 48.01
	L -3.827 48.93
	L -3.12 49.64
	M -5.358 45.93
	L -4.975 46.86
	M -5.358 45.93
	L -5.358 46.93
	L -5.74 47.86
	L -6.123 48.78
	M -5.358 44.93
	L -5.358 45.93
	L -5.358 46.93
	L -4.975 47.86
	M -5.74 45.86
	L -5.74 46.86
	M -5.74 45.86
	L -6.123 46.78
	L -6.83 47.49
	L -7.537 48.2
	M -5.358 44.93
	L -5.74 45.86
	L -6.123 46.78
	L -6.123 47.78
	M -8.244 48.9
	L -8.627 49.83
	M -8.244 48.9
	L -8.951 49.61
	L -9.875 49.99
	L -10.8 50.38
	M -6.123 46.78
	L -6.83 47.49
	L -7.537 48.2
	L -8.244 48.9
	L -8.951 49.61
	L -9.334 50.53
	M -6.123 47.78
	L -5.74 48.71
	M -6.123 47.78
	L -6.123 48.78
	L -6.506 49.71
	L -6.888 50.63
	M -4.592 43.09
	L -4.975 44.01
	L -5.358 44.93
	L -5.74 45.86
	L -6.123 46.78
	L -6.123 47.78
	L -6.123 48.78
	L -5.74 49.71
	M -10.75 51.95
	L -10.75 52.95
	M -10.75 51.95
	L -11.13 52.87
	L -11.84 53.58
	L -12.55 54.29
	M -10.37 51.02
	L -10.75 51.95
	L -11.13 52.87
	L -11.13 53.87
	M -11.07 51.73
	L -11.46 52.66
	M -11.07 51.73
	L -11.78 52.44
	L -12.7 52.82
	L -13.63 53.2
	M -10.37 51.02
	L -11.07 51.73
	L -11.78 52.44
	L -12.16 53.36
	M -14.55 53.59
	L -15.26 54.29
	M -14.55 53.59
	L -15.48 53.97
	L -16.48 53.97
	L -17.48 53.97
	M -11.78 52.44
	L -12.7 52.82
	L -13.63 53.2
	L -14.55 53.59
	L -15.48 53.97
	L -16.18 54.68
	M -12.16 53.36
	L -12.16 54.36
	M -12.16 53.36
	L -12.55 54.29
	L -13.25 54.99
	L -13.96 55.7
	M -6.123 46.78
	L -6.83 47.49
	L -7.537 48.2
	L -8.244 48.9
	L -8.951 49.61
	L -9.658 50.32
	L -10.37 51.02
	L -11.07 51.73
	L -11.78 52.44
	L -12.16 53.36
	L -12.55 54.29
	L -12.55 55.29
	M -5.74 49.71
	L -5.033 50.41
	M -5.74 49.71
	L -5.358 50.63
	L -5.358 51.63
	L -5.358 52.63
	M -6.123 48.78
	L -5.74 49.71
	L -5.358 50.63
	L -4.65 51.34
	M -6.123 49.78
	L -5.74 50.71
	M -6.123 49.78
	L -6.123 50.78
	L -6.506 51.71
	L -6.888 52.63
	M -6.123 48.78
	L -6.123 49.78
	L -6.123 50.78
	L -5.74 51.71
	M -7.271 53.55
	L -7.271 54.55
	M -7.271 53.55
	L -7.654 54.48
	L -8.361 55.18
	L -9.068 55.89
	M -6.123 50.78
	L -6.506 51.71
	L -6.888 52.63
	L -7.271 53.55
	L -7.654 54.48
	L -7.654 55.48
	M -5.74 51.71
	L -5.033 52.41
	M -5.74 51.71
	L -5.358 52.63
	L -5.358 53.63
	L -5.358 54.63
	M 0 32
	L -0.3827 32.92
	L -0.7654 33.85
	L -1.148 34.77
	L -1.531 35.7
	L -1.913 36.62
	L -2.296 37.54
	L -2.679 38.47
	L -3.061 39.39
	L -3.444 40.31
	L -3.827 41.24
	L -4.21 42.16
	L -4.592 43.09
	L -4.975 44.01
	L -5.358 44.93
	L -5.74 45.86
	L -6.123 46.78
	L -6.123 47.78
	L -6.123 48.78
	L -6.123 49.78
	L -6.123 50.78
	L -5.74 51.71
	L -5.358 52.63
	L -4.65 53.34
	M 3.869 37.49
	L 4.869 37.49
	M 3.869 37.49
	L 4.793 37.88
	L 5.5 38.58
	L 6.207 39.29
	M 2.945 37.11
	L 3.869 37.49
	L 4.793 37.88
	L 5.793 37.88
	M 3.652 37.82
	L 4.576 38.2
	M 3.652 37.82
	L 4.359 38.52
	L 4.742 39.45
	L 5.125 40.37
	M 2.945 37.11
	L 3.652 37.82
	L 4.359 38.52
	L 5.283 38.91
	M 5.507 41.3
	L 6.214 42
	M 5.507 41.3
	L 5.89 42.22
	L 5.89 43.22
	L 5.89 44.22
	M 4.359 38.52
	L 4.742 39.45
	L 5.125 40.37
	L 5.507 41.3
	L 5.89 42.22
	L 6.597 42.93
	M 5.283 38.91
	L 6.283 38.91
	M 5.283 38.91
	L 6.207 39.29
	L 6.914 40
	L 7.621 40.7
	M 1.531 35.7
	L 2.238 36.4
	L 2.945 37.11
	L 3.652 37.82
	L 4.359 38.52
	L 5.283 38.91
	L 6.207 39.29
	L 7.207 39.29
	M 3.003 38.25
	L 3.927 38.63
	M 3.003 38.25
	L 3.71 38.96
	L 4.093 39.88
	L 4.476 40.81
	M 2.296 37.54
	L 3.003 38.25
	L 3.71 38.96
	L 4.634 39.34
	M 2.679 38.47
	L 3.386 39.17
	M 2.679 38.47
	L 3.061 39.39
	L 3.061 40.39
	L 3.061 41.39
	M 2.296 37.54
	L 2.679 38.47
	L 3.061 39.39
	L 3.769 40.1
	M 3.061 42.39
	L 3.444 43.31
	M 3.061 42.39
	L 3.061 43.39
	L 2.679 44.31
	L 2.296 45.24
	M 3.061 39.39
	L 3.061 40.39
	L 3.061 41.39
	L 3.061 42.39
	L 3.061 43.39
	L 3.444 44.31
	M 3.769 40.1
	L 4.692 40.48
	M 3.769 40.1
	L 4.476 40.81
	L 4.858 41.73
	L 5.241 42.65
	M 1.531 35.7
	L 1.913 36.62
	L 2.296 37.54
	L 2.679 38.47
	L 3.061 39.39
	L 3.769 40.1
	L 4.476 40.81
	L 5.4 41.19
	M 3.444 46.31
	L 4.151 47.02
	M 3.444 46.31
	L 3.827 47.24
	L 3.827 48.24
	L 3.827 49.24
	M 3.061 45.39
	L 3.444 46.31
	L 3.827 47.24
	L 4.534 47.95
	M 3.061 46.39
	L 3.444 47.31
	M 3.061 46.39
	L 3.061 47.39
	L 2.679 48.31
	L 2.296 49.24
	M 3.061 45.39
	L 3.061 46.39
	L 3.061 47.39
	L 3.444 48.31
	M 1.913 50.16
	L 1.913 51.16
	M 1.913 50.16
	L 1.531 51.09
	L 0.8236 51.79
	L 0.1165 52.5
	M 3.061 47.39
	L 2.679 48.31
	L 2.296 49.24
	L 1.913 50.16
	L 1.531 51.09
	L 1.531 52.09
	M 3.444 48.31
	L 4.151 49.02
	M 3.444 48.31
	L 3.827 49.24
	L 3.827 50.24
	L 3.827 51.24
	M 3.061 39.39
	L 3.061 40.39
	L 3.061 41.39
	L 3.061 42.39
	L 3.061 43.39
	L 3.061 44.39
	L 3.061 45.39
	L 3.061 46.39
	L 3.061 47.39
	L 3.444 48.31
	L 3.827 49.24
	L 4.534 49.95
	M 5.4 41.19
	L 6.4 41.19
	M 5.4 41.19
	L 6.323 41.57
	L 7.031 42.28
	L 7.738 42.98
	M 4.476 40.81
	L 5.4 41.19
	L 6.323 41.57
	L 7.323 41.57
	M 5.183 41.51
	L 6.107 41.9
	M 5.183 41.51
	L 5.89 42.22
	L 6.273 43.14
	L 6.655 44.07
	M 4.476 40.81
	L 5.183 41.51
	L 5.89 42.22
	L 6.814 42.6
	M 7.038 44.99
	L 7.745 45.7
	M 7.038 44.99
	L 7.421 45.91
	L 7.421 46.91
	L 7.421 47.91
	M 5.89 42.22
	L 6.273 43.14
	L 6.655 44.07
	L 7.038 44.99
	L 7.421 45.91
	L 8.128 46.62
	M 6.814 42.6
	L 7.814 42.6
	M 6.814 42.6
	L 7.738 42.98
	L 8.445 43.69
	L 9.152 44.4
	M 0 16
	L 0 17
	L 0 18
	L 0 19
	L 0 20
	L 0 21
	L 0 22
	L 0 23
	L 0 24
	L 0 25
	L 0 26
	L 0 27
	L 0 28
	L 0 29
	L 0 30
	L 0 31
	L 0 32
	L 0.3827 32.92
	L 0.7654 33.85
	L 1.148 34.77
	L 1.531 35.7
	L 1.913 36.62
	L 2.296 37.54
	L 2.679 38.47
	L 3.061 39.39
	L 3.769 40.1
	L 4.476 40.81
	L 5.183 41.51
	L 5.89 42.22
	L 6.814 42.6
	L 7.738 42.98
	L 8.738 42.98
	M -7.712 60.73
	L -6.788 61.11
	M -7.712 60.73
	L -7.005 61.44
	L -6.622 62.36
	L -6.239 63.28
	M -8.419 60.02
	L -7.712 60.73
	L -7.005 61.44
	L -6.081 61.82
	M -8.036 60.94
	L -7.329 61.65
	M -8.036 60.94
	L -7.654 61.87
	L -7.654 62.87
	L -7.654 63.87
	M -8.419 60.02
	L -8.036 60.94
	L -7.654 61.87
	L -6.947 62.58
	M -7.654 64.87
	L -7.271 65.79
	M -7.654 64.87
	L -7.654 65.87
	L -8.036 66.79
	L -8.419 67.72
	M -7.654 61.87
	L -7.654 62.87
	L -7.654 63.87
	L -7.654 64.87
	L -7.654 65.87
	L -7.271 66.79
	M -6.947 62.58
	L -6.023 62.96
	M -6.947 62.58
	L -6.239 63.28
	L -5.857 64.21
	L -5.474 65.13
	M -9.184 58.17
	L -8.802 59.1
	L -8.419 60.02
	L -8.036 60.94
	L -7.654 61.87
	L -6.947 62.58
	L -6.239 63.28
	L -5.316 63.67
	M -8.802 61.1
	L -8.095 61.8
	M -8.802 61.1
	L -8.419 62.02
	L -8.419 63.02
	L -8.419 64.02
	M -9.184 60.17
	L -8.802 61.1
	L -8.419 62.02
	L -7.712 62.73
	M -9.184 61.17
	L -8.802 62.1
	M -9.184 61.17
	L -9.184 62.17
	L -9.567 63.1
	L -9.95 64.02
	M -9.184 60.17
	L -9.184 61.17
	L -9.184 62.17
	L -8.802 63.1
	M -10.33 64.94
	L -10.33 65.94
	M -10.33 64.94
	L -10.72 65.87
	L -11.42 66.58
	L -12.13 67.28
	M -9.184 62.17
	L -9.567 63.1
	L -9.95 64.02
	L -10.33 64.94
	L -10.72 65.87
	L -10.72 66.87
	M -8.802 63.1
	L -8.095 63.8
	M -8.802 63.1
	L -8.419 64.02
	L -8.419 65.02
	L -8.419 66.02
	M -9.184 58.17
	L -9.184 59.17
	L -9.184 60.17
	L -9.184 61.17
	L -9.184 62.17
	L -8.802 63.1
	L -8.419 64.02
	L -7.712 64.73
	M -11.48 68.72
	L -11.1 69.64
	M -11.48 68.72
	L -11.48 69.72
	L -11.86 70.64
	L -12.25 71.56
	M -11.48 67.72
	L -11.48 68.72
	L -11.48 69.72
	L -11.1 70.64
	M -11.86 68.64
	L -11.86 69.64
	M -11.86 68.64
	L -12.25 69.56
	L -12.95 70.27
	L -13.66 70.98
	M -11.48 67.72
	L -11.86 68.64
	L -12.25 69.56
	L -12.25 70.56
	M -14.37 71.69
	L -14.75 72.61
	M -14.37 71.69
	L -15.07 72.39
	L -16 72.78
	L -16.92 73.16
	M -12.25 69.56
	L -12.95 70.27
	L -13.66 70.98
	L -14.37 71.69
	L -15.07 72.39
	L -15.46 73.32
	M -12.25 70.56
	L -11.86 71.49
	M -12.25 70.56
	L -12.25 71.56
	L -12.63 72.49
	L -13.01 73.41
	M -9.184 62.17
	L -9.567 63.1
	L -9.95 64.02
	L -10.33 64.94
	L -10.72 65.87
	L -11.1 66.79
	L -11.48 67.72
	L -11.86 68.64
	L -12.25 69.56
	L -12.25 70.56
	L -12.25 71.56
	L -11.86 72.49
	M -7.712 64.73
	L -6.788 65.11
	M -7.712 64.73
	L -7.005 65.44
	L -6.622 66.36
	L -6.239 67.28
	M -8.419 64.02
	L -7.712 64.73
	L -7.005 65.44
	L -6.081 65.82
	M -8.036 64.94
	L -7.329 65.65
	M -8.036 64.94
	L -7.654 65.87
	L -7.654 66.87
	L -7.654 67.87
	M -8.419 64.02
	L -8.036 64.94
	L -7.654 65.87
	L -6.947 66.58
	M -7.654 68.87
	L -7.271 69.79
	M -7.654 68.87
	L -7.654 69.87
	L -8.036 70.79
	L -8.419 71.72
	M -7.654 65.87
	L -7.654 66.87
	L -7.654 67.87
	L -7.654 68.87
	L -7.654 69.87
	L -7.271 70.79
	M -6.947 66.58
	L -6.023 66.96
	M -6.947 66.58
	L -6.239 67.28
	L -5.857 68.21
	L -5.474 69.13
	M -9.184 54.17
	L -9.184 55.17
	L -9.184 56.17
	L -9.184 57.17
	L -9.184 58.17
	L -9.184 59.17
	L -9.184 60.17
	L -9.184 61.17
	L -9.184 62.17
	L -8.802 63.1
	L -8.419 64.02
	L -8.036 64.94
	L -7.654 65.87
	L -6.947 66.58
	L -6.239 67.28
	L -5.316 67.67
	M -10.33 60.79
	L -9.625 61.5
	M -10.33 60.79
	L -9.95 61.72
	L -9.95 62.72
	L -9.95 63.72
	M -10.72 59.87
	L -10.33 60.79
	L -9.95 61.72
	L -9.243 62.42
	M -10.72 60.87
	L -10.33 61.79
	M -10.72 60.87
	L -10.72 61.87
	L -11.1 62.79
	L -11.48 63.72
	M -10.72 59.87
	L -10.72 60.87
	L -10.72 61.87
	L -10.33 62.79
	M -11.86 64.64
	L -11.86 65.64
	M -11.86 64.64
	L -12.25 65.56
	L -12.95 66.27
	L -13.66 66.98
	M -10.72 61.87
	L -11.1 62.79
	L -11.48 63.72
	L -11.86 64.64
	L -12.25 65.56
	L -12.25 66.56
	M -10.33 62.79
	L -9.625 63.5
	M -10.33 62.79
	L -9.95 63.72
	L -9.95 64.72
	L -9.95 65.72
	M -10.72 57.87
	L -10.72 58.87
	L -10.72 59.87
	L -10.72 60.87
	L -10.72 61.87
	L -10.33 62.79
	L -9.95 63.72
	L -9.243 64.42
	M -11.48 60.72
	L -11.1 61.64
	M -11.48 60.72
	L -11.48 61.72
	L -11.86 62.64
	L -12.25 63.56
	M -11.48 59.72
	L -11.48 60.72
	L -11.48 61.72
	L -11.1 62.64
	M -11.86 60.64
	L -11.86 61.64
	M -11.86 60.64
	L -12.25 61.56
	L -12.95 62.27
	L -13.66 62.98
	M -11.48 59.72
	L -11.86 60.64
	L -12.25 61.56
	L -12.25 62.56
	M -14.37 63.69
	L -14.75 64.61
	M -14.37 63.69
	L -15.07 64.39
	L -16 64.78
	L -16.92 65.16
	M -12.25 61.56
	L -12.95 62.27
	L -13.66 62.98
	L -14.37 63.69
	L -15.07 64.39
	L -15.46 65.32
	M -12.25 62.56
	L -11.86 63.49
	M -12.25 62.56
	L -12.25 63.56
	L -12.63 64.49
	L -13.01 65.41
	M -10.72 57.87
	L -11.1 58.79
	L -11.48 59.72
	L -11.86 60.64
	L -12.25 61.56
	L -12.25 62.56
	L -12.25 63.56
	L -11.86 64.49
	M -16.87 66.73
	L -16.87 67.73
	M -16.87 66.73
	L -17.25 67.65
	L -17.96 68.36
	L -18.67 69.07
	M -16.49 65.81
	L -16.87 66.73
	L -17.25 67.65
	L -17.25 68.65
	M -17.2 66.51
	L -17.58 67.44
	M -17.2 66.51
	L -17.9 67.22
	L -18.83 67.6
	L -19.75 67.99
	M -16.49 65.81
	L -17.2 66.51
	L -17.9 67.22
	L -18.29 68.14
	M -20.67 68.37
	L -21.38 69.08
	M -20.67 68.37
	L -21.6 68.75
	L -22.6 68.75
	L -23.6 68.75
	M -17.9 67.22
	L -18.83 67.6
	L -19.75 67.99
	L -20.67 68.37
	L -21.6 68.75
	L -22.31 69.46
	M -18.29 68.14
	L -18.29 69.14
	M -18.29 68.14
	L -18.67 69.07
	L -19.38 69.78
	L -20.08 70.48
	M -12.25 61.56
	L -12.95 62.27
	L -13.66 62.98
	L -14.37 63.69
	L -15.07 64.39
	L -15.78 65.1
	L -16.49 65.81
	L -17.2 66.51
	L -17.9 67.22
	L -18.29 68.14
	L -18.67 69.07
	L -18.67 70.07
	M -11.86 64.49
	L -11.16 65.2
	M -11.86 64.49
	L -11.48 65.41
	L -11.48 66.41
	L -11.48 67.41
	M -12.25 63.56
	L -11.86 64.49
	L -11.48 65.41
	L -10.77 66.12
	M -12.25 64.56
	L -11.86 65.49
	M -12.25 64.56
	L -12.25 65.56
	L -12.63 66.49
	L -13.01 67.41
	M -12.25 63.56
	L -12.25 64.56
	L -12.25 65.56
	L -11.86 66.49
	M -13.39 68.34
	L -13.39 69.34
	M -13.39 68.34
	L -13.78 69.26
	L -14.48 69.97
	L -15.19 70.67
	M -12.25 65.56
	L -12.63 66.49
	L -13.01 67.41
	L -13.39 68.34
	L -13.78 69.26
	L -13.78 70.26
	M -11.86 66.49
	L -11.16 67.2
	M -11.86 66.49
	L -11.48 67.41
	L -11.48 68.41
	L -11.48 69.41
	M -9.184 54.17
	L -9.567 55.1
	L -9.95 56.02
	L -10.33 56.94
	L -10.72 57.87
	L -11.1 58.79
	L -11.48 59.72
	L -11.86 60.64
	L -12.25 61.56
	L -12.25 62.56
	L -12.25 63.56
	L -12.25 64.56
	L -12.25 65.56
	L -11.86 66.49
	L -11.48 67.41
	L -10.77 68.12
	M -21.5 72.9
	L -21.11 73.82
	M -21.5 72.9
	L -21.5 73.9
	L -21.88 74.82
	L -22.26 75.74
	M -21.5 71.9
	L -21.5 72.9
	L -21.5 73.9
	L -21.11 74.82
	M -21.88 72.82
	L -21.88 73.82
	M -21.88 72.82
	L -22.26 73.74
	L -22.97 74.45
	L -23.68 75.16
	M -21.5 71.9
	L -21.88 72.82
	L -22.26 73.74
	L -22.26 74.74
	M -24.38 75.87
	L -24.77 76.79
	M -24.38 75.87
	L -25.09 76.57
	L -26.01 76.96
	L -26.94 77.34
	M -22.26 73.74
	L -22.97 74.45
	L -23.68 75.16
	L -24.38 75.87
	L -25.09 76.57
	L -25.47 77.5
	M -22.26 74.74
	L -21.88 75.67
	M -22.26 74.74
	L -22.26 75.74
	L -22.64 76.67
	L -23.03 77.59
	M -20.73 70.05
	L -21.11 70.97
	L -21.5 71.9
	L -21.88 72.82
	L -22.26 73.74
	L -22.26 74.74
	L -22.26 75.74
	L -21.88 76.67
	M -22.53 72.39
	L -22.53 73.39
	M -22.53 72.39
	L -22.91 73.31
	L -23.62 74.02
	L -24.32 74.73
	M -22.15 71.46
	L -22.53 72.39
	L -22.91 73.31
	L -22.91 74.31
	M -22.85 72.17
	L -23.24 73.09
	M -22.85 72.17
	L -23.56 72.88
	L -24.48 73.26
	L -25.41 73.64
	M -22.15 71.46
	L -22.85 72.17
	L -23.56 72.88
	L -23.94 73.8
	M -26.33 74.03
	L -27.04 74.73
	M -26.33 74.03
	L -27.26 74.41
	L -28.26 74.41
	L -29.26 74.41
	M -23.56 72.88
	L -24.48 73.26
	L -25.41 73.64
	L -26.33 74.03
	L -27.26 74.41
	L -27.96 75.12
	M -23.94 73.8
	L -23.94 74.8
	M -23.94 73.8
	L -24.32 74.73
	L -25.03 75.43
	L -25.74 76.14
	M -20.73 70.05
	L -21.44 70.76
	L -22.15 71.46
	L -22.85 72.17
	L -23.56 72.88
	L -23.94 73.8
	L -24.32 74.73
	L -24.32 75.73
	M -29.81 75.88
	L -30.19 76.8
	M -29.81 75.88
	L -30.52 76.59
	L -31.44 76.97
	L -32.36 77.35
	M -29.1 75.17
	L -29.81 75.88
	L -30.52 76.59
	L -30.9 77.51
	M -30.03 75.56
	L -30.73 76.26
	M -30.03 75.56
	L -30.95 75.94
	L -31.95 75.94
	L -32.95 75.94
	M -29.1 75.17
	L -30.03 75.56
	L -30.95 75.94
	L -31.66 76.65
	M -33.95 75.94
	L -34.87 76.32
	M -33.95 75.94
	L -34.95 75.94
	L -35.87 75.56
	L -36.8 75.17
	M -30.95 75.94
	L -31.95 75.94
	L -32.95 75.94
	L -33.95 75.94
	L -34.95 75.94
	L -35.87 76.32
	M -31.66 76.65
	L -32.04 77.57
	M -31.66 76.65
	L -32.36 77.35
	L -33.29 77.74
	L -34.21 78.12
	M -23.56 72.88
	L -24.48 73.26
	L -25.41 73.64
	L -26.33 74.03
	L -27.26 74.41
	L -28.18 74.79
	L -29.1 75.17
	L -30.03 75.56
	L -30.95 75.94
	L -31.66 76.65
	L -32.36 77.35
	L -32.75 78.28
	M -24.32 75.73
	L -23.94 76.65
	M -24.32 75.73
	L -24.32 76.73
	L -24.71 77.65
	L -25.09 78.57
	M -24.32 74.73
	L -24.32 75.73
	L -24.32 76.73
	L -23.94 77.65
	M -24.71 75.65
	L -24.71 76.65
	M -24.71 75.65
	L -25.09 76.57
	L -25.8 77.28
	L -26.5 77.99
	M -24.32 74.73
	L -24.71 75.65
	L -25.09 76.57
	L -25.09 77.57
	M -27.21 78.69
	L -27.59 79.62
	M -27.21 78.69
	L -27.92 79.4
	L -28.84 79.78
	L -29.77 80.17
	M -25.09 76.57
	L -25.8 77.28
	L -26.5 77.99
	L -27.21 78.69
	L -27.92 79.4
	L -28.3 80.33
	M -25.09 77.57
	L -24.71 78.5
	M -25.09 77.57
	L -25.09 78.57
	L -25.47 79.5
	L -25.86 80.42
	M -12.25 61.56
	L -12.95 62.27
	L -13.66 62.98
	L -14.37 63.69
	L -15.07 64.39
	L -15.78 65.1
	L -16.49 65.81
	L -17.2 66.51
	L -17.9 67.22
	L -18.61 67.93
	L -19.32 68.64
	L -20.02 69.34
	L -20.73 70.05
	L -21.44 70.76
	L -22.15 71.46
	L -22.85 72.17
	L -23.56 72.88
	L -23.94 73.8
	L -24.32 74.73
	L -24.71 75.65
	L -25.09 76.57
	L -25.09 77.57
	L -25.09 78.57
	L -24.71 79.5
	M -10.77 68.12
	L -9.85 68.5
	M -10.77 68.12
	L -10.07 68.83
	L -9.684 69.75
	L -9.301 70.67
	M -11.48 67.41
	L -10.77 68.12
	L -10.07 68.83
	L -9.142 69.21
	M -11.1 68.34
	L -10.39 69.04
	M -11.1 68.34
	L -10.72 69.26
	L -10.72 70.26
	L -10.72 71.26
	M -11.48 67.41
	L -11.1 68.34
	L -10.72 69.26
	L -10.01 69.97
	M -10.72 72.26
	L -10.33 73.18
	M -10.72 72.26
	L -10.72 73.26
	L -11.1 74.18
	L -11.48 75.11
	M -10.72 69.26
	L -10.72 70.26
	L -10.72 71.26
	L -10.72 72.26
	L -10.72 73.26
	L -10.33 74.18
	M -10.01 69.97
	L -9.084 70.35
	M -10.01 69.97
	L -9.301 70.67
	L -8.918 71.6
	L -8.536 72.52
	M -12.25 65.56
	L -11.86 66.49
	L -11.48 67.41
	L -11.1 68.34
	L -10.72 69.26
	L -10.01 69.97
	L -9.301 70.67
	L -8.377 71.06
	M -11.86 68.49
	L -11.16 69.2
	M -11.86 68.49
	L -11.48 69.41
	L -11.48 70.41
	L -11.48 71.41
	M -12.25 67.56
	L -11.86 68.49
	L -11.48 69.41
	L -10.77 70.12
	M -12.25 68.56
	L -11.86 69.49
	M -12.25 68.56
	L -12.25 69.56
	L -12.63 70.49
	L -13.01 71.41
	M -12.25 67.56
	L -12.25 68.56
	L -12.25 69.56
	L -11.86 70.49
	M -13.39 72.34
	L -13.39 73.34
	M -13.39 72.34
	L -13.78 73.26
	L -14.48 73.97
	L -15.19 74.67
	M -12.25 69.56
	L -12.63 70.49
	L -13.01 71.41
	L -13.39 72.34
	L -13.78 73.26
	L -13.78 74.26
	M -11.86 70.49
	L -11.16 71.2
	M -11.86 70.49
	L -11.48 71.41
	L -11.48 72.41
	L -11.48 73.41
	M -12.25 65.56
	L -12.25 66.56
	L -12.25 67.56
	L -12.25 68.56
	L -12.25 69.56
	L -11.86 70.49
	L -11.48 71.41
	L -10.77 72.12
	M -14.54 76.11
	L -14.16 77.03
	M -14.54 76.11
	L -14.54 77.11
	L -14.92 78.03
	L -15.31 78.96
	M -14.54 75.11
	L -14.54 76.11
	L -14.54 77.11
	L -14.16 78.03
	M -14.92 76.03
	L -14.92 77.03
	M -14.92 76.03
	L -15.31 76.96
	L -16.01 77.66
	L -16.72 78.37
	M -14.54 75.11
	L -14.92 76.03
	L -15.31 76.96
	L -15.31 77.96
	M -17.43 79.08
	L -17.81 80
	M -17.43 79.08
	L -18.14 79.78
	L -19.06 80.17
	L -19.98 80.55
	M -15.31 76.96
	L -16.01 77.66
	L -16.72 78.37
	L -17.43 79.08
	L -18.14 79.78
	L -18.52 80.71
	M -15.31 77.96
	L -14.92 78.88
	M -15.31 77.96
	L -15.31 78.96
	L -15.69 79.88
	L -16.07 80.8
	M -12.25 69.56
	L -12.63 70.49
	L -13.01 71.41
	L -13.39 72.34
	L -13.78 73.26
	L -14.16 74.18
	L -14.54 75.11
	L -14.92 76.03
	L -15.31 76.96
	L -15.31 77.96
	L -15.31 78.96
	L -14.92 79.88
	M -10.77 72.12
	L -9.85 72.5
	M -10.77 72.12
	L -10.07 72.83
	L -9.684 73.75
	L -9.301 74.67
	M -11.48 71.41
	L -10.77 72.12
	L -10.07 72.83
	L -9.142 73.21
	M -11.1 72.34
	L -10.39 73.04
	M -11.1 72.34
	L -10.72 73.26
	L -10.72 74.26
	L -10.72 75.26
	M -11.48 71.41
	L -11.1 72.34
	L -10.72 73.26
	L -10.01 73.97
	M -10.72 76.26
	L -10.33 77.18
	M -10.72 76.26
	L -10.72 77.26
	L -11.1 78.18
	L -11.48 79.11
	M -10.72 73.26
	L -10.72 74.26
	L -10.72 75.26
	L -10.72 76.26
	L -10.72 77.26
	L -10.33 78.18
	M -10.01 73.97
	L -9.084 74.35
	M -10.01 73.97
	L -9.301 74.67
	L -8.918 75.6
	L -8.536 76.52
	M 0 32
	L -0.3827 32.92
	L -0.7654 33.85
	L -1.148 34.77
	L -1.531 35.7
	L -1.913 36.62
	L -2.296 37.54
	L -2.679 38.47
	L -3.061 39.39
	L -3.444 40.31
	L -3.827 41.24
	L -4.21 42.16
	L -4.592 43.09
	L -4.975 44.01
	L -5.358 44.93
	L -5.74 45.86
	L -6.123 46.78
	L -6.506 47.71
	L -6.888 48.63
	L -7.271 49.55
	L -7.654 50.48
	L -8.036 51.4
	L -8.419 52.33
	L -8.802 53.25
	L -9.184 54.17
	L -9.567 55.1
	L -9.95 56.02
	L -10.33 56.94
	L -10.72 57.87
	L -11.1 58.79
	L -11.48 59.72
	L -11.86 60.64
	L -12.25 61.56
	L -12.25 62.56
	L -12.25 63.56
	L -12.25 64.56
	L -12.25 65.56
	L -12.25 66.56
	L -12.25 67.56
	L -12.25 68.56
	L -12.25 69.56
	L -11.86 70.49
	L -11.48 71.41
	L -11.1 72.34
	L -10.72 73.26
	L -10.01 73.97
	L -9.301 74.67
	L -8.377 75.06
	M 8.738 42.98
	L 9.662 42.6
	M 8.738 42.98
	L 9.738 42.98
	L 10.66 43.37
	L 11.59 43.75
	M 7.738 42.98
	L 8.738 42.98
	L 9.738 42.98
	L 10.66 42.6
	M 8.662 43.37
	L 9.662 43.37
	M 8.662 43.37
	L 9.585 43.75
	L 10.29 44.46
	L 11 45.16
	M 7.738 42.98
	L 8.662 43.37
	L 9.585 43.75
	L 10.59 43.75
	M 11.71 45.87
	L 12.63 46.25
	M 11.71 45.87
	L 12.41 46.58
	L 12.8 47.5
	L 13.18 48.43
	M 9.585 43.75
	L 10.29 44.46
	L 11 45.16
	L 11.71 45.87
	L 12.41 46.58
	L 13.34 46.96
	M 10.59 43.75
	L 11.51 43.37
	M 10.59 43.75
	L 11.59 43.75
	L 12.51 44.13
	L 13.43 44.52
	M 5.89 42.22
	L 6.814 42.6
	L 7.738 42.98
	L 8.662 43.37
	L 9.585 43.75
	L 10.59 43.75
	L 11.59 43.75
	L 12.51 43.37
	M 8.228 44.02
	L 9.228 44.02
	M 8.228 44.02
	L 9.152 44.4
	L 9.859 45.11
	L 10.57 45.81
	M 7.304 43.63
	L 8.228 44.02
	L 9.152 44.4
	L 10.15 44.4
	M 8.011 44.34
	L 8.935 44.72
	M 8.011 44.34
	L 8.718 45.05
	L 9.101 45.97
	L 9.484 46.9
	M 7.304 43.63
	L 8.011 44.34
	L 8.718 45.05
	L 9.642 45.43
	M 9.866 47.82
	L 10.57 48.53
	M 9.866 47.82
	L 10.25 48.74
	L 10.25 49.74
	L 10.25 50.74
	M 8.718 45.05
	L 9.101 45.97
	L 9.484 46.9
	L 9.866 47.82
	L 10.25 48.74
	L 10.96 49.45
	M 9.642 45.43
	L 10.64 45.43
	M 9.642 45.43
	L 10.57 45.81
	L 11.27 46.52
	L 11.98 47.23
	M 5.89 42.22
	L 6.597 42.93
	L 7.304 43.63
	L 8.011 44.34
	L 8.718 45.05
	L 9.642 45.43
	L 10.57 45.81
	L 11.57 45.81
	M 11.72 51.3
	L 12.65 51.68
	M 11.72 51.3
	L 12.43 52.01
	L 12.81 52.93
	L 13.19 53.85
	M 11.01 50.59
	L 11.72 51.3
	L 12.43 52.01
	L 13.35 52.39
	M 11.4 51.52
	L 12.1 52.22
	M 11.4 51.52
	L 11.78 52.44
	L 11.78 53.44
	L 11.78 54.44
	M 11.01 50.59
	L 11.4 51.52
	L 11.78 52.44
	L 12.49 53.15
	M 11.78 55.44
	L 12.16 56.36
	M 11.78 55.44
	L 11.78 56.44
	L 11.4 57.36
	L 11.01 58.29
	M 11.78 52.44
	L 11.78 53.44
	L 11.78 54.44
	L 11.78 55.44
	L 11.78 56.44
	L 12.16 57.36
	M 12.49 53.15
	L 13.41 53.53
	M 12.49 53.15
	L 13.19 53.85
	L 13.58 54.78
	L 13.96 55.7
	M 8.718 45.05
	L 9.101 45.97
	L 9.484 46.9
	L 9.866 47.82
	L 10.25 48.74
	L 10.63 49.67
	L 11.01 50.59
	L 11.4 51.52
	L 11.78 52.44
	L 12.49 53.15
	L 13.19 53.85
	L 14.12 54.24
	M 11.57 45.81
	L 12.49 45.43
	M 11.57 45.81
	L 12.57 45.81
	L 13.49 46.2
	L 14.41 46.58
	M 10.57 45.81
	L 11.57 45.81
	L 12.57 45.81
	L 13.49 45.43
	M 11.49 46.2
	L 12.49 46.2
	M 11.49 46.2
	L 12.41 46.58
	L 13.12 47.29
	L 13.83 47.99
	M 10.57 45.81
	L 11.49 46.2
	L 12.41 46.58
	L 13.41 46.58
	M 14.54 48.7
	L 15.46 49.08
	M 14.54 48.7
	L 15.24 49.41
	L 15.62 50.33
	L 16.01 51.25
	M 12.41 46.58
	L 13.12 47.29
	L 13.83 47.99
	L 14.54 48.7
	L 15.24 49.41
	L 16.17 49.79
	M 13.41 46.58
	L 14.34 46.2
	M 13.41 46.58
	L 14.41 46.58
	L 15.34 46.96
	L 16.26 47.34
	M 3.061 39.39
	L 3.769 40.1
	L 4.476 40.81
	L 5.183 41.51
	L 5.89 42.22
	L 6.597 42.93
	L 7.304 43.63
	L 8.011 44.34
	L 8.718 45.05
	L 9.642 45.43
	L 10.57 45.81
	L 11.49 46.2
	L 12.41 46.58
	L 13.41 46.58
	L 14.41 46.58
	L 15.34 46.2
	M 6.93 44.88
	L 7.93 44.88
	M 6.93 44.88
	L 7.854 45.27
	L 8.561 45.97
	L 9.268 46.68
	M 6.006 44.5
	L 6.93 44.88
	L 7.854 45.27
	L 8.854 45.27
	M 6.714 45.21
	L 7.637 45.59
	M 6.714 45.21
	L 7.421 45.91
	L 7.803 46.84
	L 8.186 47.76
	M 6.006 44.5
	L 6.714 45.21
	L 7.421 45.91
	L 8.345 46.3
	M 8.569 48.69
	L 9.276 49.39
	M 8.569 48.69
	L 8.951 49.61
	L 8.951 50.61
	L 8.951 51.61
	M 7.421 45.91
	L 7.803 46.84
	L 8.186 47.76
	L 8.569 48.69
	L 8.951 49.61
	L 9.658 50.32
	M 8.345 46.3
	L 9.345 46.3
	M 8.345 46.3
	L 9.268 46.68
	L 9.975 47.39
	L 10.68 48.09
	M 4.592 43.09
	L 5.299 43.79
	L 6.006 44.5
	L 6.714 45.21
	L 7.421 45.91
	L 8.345 46.3
	L 9.268 46.68
	L 10.27 46.68
	M 6.065 45.64
	L 6.989 46.02
	M 6.065 45.64
	L 6.772 46.35
	L 7.154 47.27
	L 7.537 48.2
	M 5.358 44.93
	L 6.065 45.64
	L 6.772 46.35
	L 7.696 46.73
	M 5.74 45.86
	L 6.447 46.57
	M 5.74 45.86
	L 6.123 46.78
	L 6.123 47.78
	L 6.123 48.78
	M 5.358 44.93
	L 5.74 45.86
	L 6.123 46.78
	L 6.83 47.49
	M 6.123 49.78
	L 6.506 50.71
	M 6.123 49.78
	L 6.123 50.78
	L 5.74 51.71
	L 5.358 52.63
	M 6.123 46.78
	L 6.123 47.78
	L 6.123 48.78
	L 6.123 49.78
	L 6.123 50.78
	L 6.506 51.71
	M 6.83 47.49
	L 7.754 47.87
	M 6.83 47.49
	L 7.537 48.2
	L 7.92 49.12
	L 8.303 50.04
	M 4.592 43.09
	L 4.975 44.01
	L 5.358 44.93
	L 5.74 45.86
	L 6.123 46.78
	L 6.83 47.49
	L 7.537 48.2
	L 8.461 48.58
	M 6.506 53.71
	L 7.213 54.41
	M 6.506 53.71
	L 6.888 54.63
	L 6.888 55.63
	L 6.888 56.63
	M 6.123 52.78
	L 6.506 53.71
	L 6.888 54.63
	L 7.595 55.34
	M 6.123 53.78
	L 6.506 54.71
	M 6.123 53.78
	L 6.123 54.78
	L 5.74 55.71
	L 5.358 56.63
	M 6.123 52.78
	L 6.123 53.78
	L 6.123 54.78
	L 6.506 55.71
	M 4.975 57.55
	L 4.975 58.55
	M 4.975 57.55
	L 4.592 58.48
	L 3.885 59.18
	L 3.178 59.89
	M 6.123 54.78
	L 5.74 55.71
	L 5.358 56.63
	L 4.975 57.55
	L 4.592 58.48
	L 4.592 59.48
	M 6.506 55.71
	L 7.213 56.41
	M 6.506 55.71
	L 6.888 56.63
	L 6.888 57.63
	L 6.888 58.63
	M 6.123 46.78
	L 6.123 47.78
	L 6.123 48.78
	L 6.123 49.78
	L 6.123 50.78
	L 6.123 51.78
	L 6.123 52.78
	L 6.123 53.78
	L 6.123 54.78
	L 6.506 55.71
	L 6.888 56.63
	L 7.595 57.34
	M 8.461 48.58
	L 9.461 48.58
	M 8.461 48.58
	L 9.385 48.96
	L 10.09 49.67
	L 10.8 50.38
	M 7.537 48.2
	L 8.461 48.58
	L 9.385 48.96
	L 10.38 48.96
	M 8.244 48.9
	L 9.168 49.29
	M 8.244 48.9
	L 8.951 49.61
	L 9.334 50.53
	L 9.717 51.46
	M 7.537 48.2
	L 8.244 48.9
	L 8.951 49.61
	L 9.875 49.99
	M 10.1 52.38
	L 10.81 53.09
	M 10.1 52.38
	L 10.48 53.31
	L 10.48 54.31
	L 10.48 55.31
	M 8.951 49.61
	L 9.334 50.53
	L 9.717 51.46
	L 10.1 52.38
	L 10.48 53.31
	L 11.19 54.01
	M 9.875 49.99
	L 10.88 49.99
	M 9.875 49.99
	L 10.8 50.38
	L 11.51 51.08
	L 12.21 51.79
	M 3.061 39.39
	L 3.444 40.31
	L 3.827 41.24
	L 4.21 42.16
	L 4.592 43.09
	L 4.975 44.01
	L 5.358 44.93
	L 5.74 45.86
	L 6.123 46.78
	L 6.83 47.49
	L 7.537 48.2
	L 8.244 48.9
	L 8.951 49.61
	L 9.875 49.99
	L 10.8 50.38
	L 11.8 50.38
	M 7.595 61.34
	L 8.519 61.72
	M 7.595 61.34
	L 8.303 62.04
	L 8.685 62.97
	L 9.068 63.89
	M 6.888 60.63
	L 7.595 61.34
	L 8.303 62.04
	L 9.226 62.43
	M 7.271 61.55
	L 7.978 62.26
	M 7.271 61.55
	L 7.654 62.48
	L 7.654 63.48
	L 7.654 64.48
	M 6.888 60.63
	L 7.271 61.55
	L 7.654 62.48
	L 8.361 63.18
	M 7.654 65.48
	L 8.036 66.4
	M 7.654 65.48
	L 7.654 66.48
	L 7.271 67.4
	L 6.888 68.33
	M 7.654 62.48
	L 7.654 63.48
	L 7.654 64.48
	L 7.654 65.48
	L 7.654 66.48
	L 8.036 67.4
	M 8.361 63.18
	L 9.285 63.57
	M 8.361 63.18
	L 9.068 63.89
	L 9.451 64.82
	L 9.833 65.74
	M 6.123 58.78
	L 6.506 59.71
	L 6.888 60.63
	L 7.271 61.55
	L 7.654 62.48
	L 8.361 63.18
	L 9.068 63.89
	L 9.992 64.27
	M 6.506 61.71
	L 7.213 62.41
	M 6.506 61.71
	L 6.888 62.63
	L 6.888 63.63
	L 6.888 64.63
	M 6.123 60.78
	L 6.506 61.71
	L 6.888 62.63
	L 7.595 63.34
	M 6.123 61.78
	L 6.506 62.71
	M 6.123 61.78
	L 6.123 62.78
	L 5.74 63.71
	L 5.358 64.63
	M 6.123 60.78
	L 6.123 61.78
	L 6.123 62.78
	L 6.506 63.71
	M 4.975 65.55
	L 4.975 66.55
	M 4.975 65.55
	L 4.592 66.48
	L 3.885 67.18
	L 3.178 67.89
	M 6.123 62.78
	L 5.74 63.71
	L 5.358 64.63
	L 4.975 65.55
	L 4.592 66.48
	L 4.592 67.48
	M 6.506 63.71
	L 7.213 64.41
	M 6.506 63.71
	L 6.888 64.63
	L 6.888 65.63
	L 6.888 66.63
	M 6.123 58.78
	L 6.123 59.78
	L 6.123 60.78
	L 6.123 61.78
	L 6.123 62.78
	L 6.506 63.71
	L 6.888 64.63
	L 7.595 65.34
	M 3.827 69.33
	L 4.21 70.25
	M 3.827 69.33
	L 3.827 70.33
	L 3.444 71.25
	L 3.061 72.17
	M 3.827 68.33
	L 3.827 69.33
	L 3.827 70.33
	L 4.21 71.25
	M 3.444 69.25
	L 3.444 70.25
	M 3.444 69.25
	L 3.061 70.17
	L 2.354 70.88
	L 1.647 71.59
	M 3.827 68.33
	L 3.444 69.25
	L 3.061 70.17
	L 3.061 71.17
	M 0.9401 72.29
	L 0.5575 73.22
	M 0.9401 72.29
	L 0.233 73
	L -0.6908 73.38
	L -1.615 73.77
	M 3.061 70.17
	L 2.354 70.88
	L 1.647 71.59
	L 0.9401 72.29
	L 0.233 73
	L -0.1496 73.93
	M 3.061 71.17
	L 3.444 72.1
	M 3.061 71.17
	L 3.061 72.17
	L 2.679 73.1
	L 2.296 74.02
	M 6.123 62.78
	L 5.74 63.71
	L 5.358 64.63
	L 4.975 65.55
	L 4.592 66.48
	L 4.21 67.4
	L 3.827 68.33
	L 3.444 69.25
	L 3.061 70.17
	L 3.061 71.17
	L 3.061 72.17
	L 3.444 73.1
	M 7.595 65.34
	L 8.519 65.72
	M 7.595 65.34
	L 8.303 66.04
	L 8.685 66.97
	L 9.068 67.89
	M 6.888 64.63
	L 7.595 65.34
	L 8.303 66.04
	L 9.226 66.43
	M 7.271 65.55
	L 7.978 66.26
	M 7.271 65.55
	L 7.654 66.48
	L 7.654 67.48
	L 7.654 68.48
	M 6.888 64.63
	L 7.271 65.55
	L 7.654 66.48
	L 8.361 67.18
	M 7.654 69.48
	L 8.036 70.4
	M 7.654 69.48
	L 7.654 70.48
	L 7.271 71.4
	L 6.888 72.33
	M 7.654 66.48
	L 7.654 67.48
	L 7.654 68.48
	L 7.654 69.48
	L 7.654 70.48
	L 8.036 71.4
	M 8.361 67.18
	L 9.285 67.57
	M 8.361 67.18
	L 9.068 67.89
	L 9.451 68.82
	L 9.833 69.74
	M 6.123 46.78
	L 6.123 47.78
	L 6.123 48.78
	L 6.123 49.78
	L 6.123 50.78
	L 6.123 51.78
	L 6.123 52.78
	L 6.123 53.78
	L 6.123 54.78
	L 6.123 55.78
	L 6.123 56.78
	L 6.123 57.78
	L 6.123 58.78
	L 6.123 59.78
	L 6.123 60.78
	L 6.123 61.78
	L 6.123 62.78
	L 6.506 63.71
	L 6.888 64.63
	L 7.271 65.55
	L 7.654 66.48
	L 8.361 67.18
	L 9.068 67.89
	L 9.992 68.27
	M 11.8 50.38
	L 12.72 49.99
	M 11.8 50.38
	L 12.8 50.38
	L 13.72 50.76
	L 14.65 51.14
	M 10.8 50.38
	L 11.8 50.38
	L 12.8 50.38
	L 13.72 49.99
	M 11.72 50.76
	L 12.72 50.76
	M 11.72 50.76
	L 12.65 51.14
	L 13.35 51.85
	L 14.06 52.56
	M 10.8 50.38
	L 11.72 50.76
	L 12.65 51.14
	L 13.65 51.14
	M 14.77 53.26
	L 15.69 53.65
	M 14.77 53.26
	L 15.48 53.97
	L 15.86 54.89
	L 16.24 55.82
	M 12.65 51.14
	L 13.35 51.85
	L 14.06 52.56
	L 14.77 53.26
	L 15.48 53.97
	L 16.4 54.35
	M 13.65 51.14
	L 14.57 50.76
	M 13.65 51.14
	L 14.65 51.14
	L 15.57 51.52
	L 16.49 51.91
	M 8.951 49.61
	L 9.875 49.99
	L 10.8 50.38
	L 11.72 50.76
	L 12.65 51.14
	L 13.65 51.14
	L 14.65 51.14
	L 15.57 50.76
	M 11.29 51.41
	L 12.29 51.41
	M 11.29 51.41
	L 12.21 51.79
	L 12.92 52.5
	L 13.63 53.2
	M 10.37 51.02
	L 11.29 51.41
	L 12.21 51.79
	L 13.21 51.79
	M 11.07 51.73
	L 12 52.11
	M 11.07 51.73
	L 11.78 52.44
	L 12.16 53.36
	L 12.55 54.29
	M 10.37 51.02
	L 11.07 51.73
	L 11.78 52.44
	L 12.7 52.82
	M 12.93 55.21
	L 13.63 55.92
	M 12.93 55.21
	L 13.31 56.13
	L 13.31 57.13
	L 13.31 58.13
	M 11.78 52.44
	L 12.16 53.36
	L 12.55 54.29
	L 12.93 55.21
	L 13.31 56.13
	L 14.02 56.84
	M 12.7 52.82
	L 13.7 52.82
	M 12.7 52.82
	L 13.63 53.2
	L 14.33 53.91
	L 15.04 54.62
	M 8.951 49.61
	L 9.658 50.32
	L 10.37 51.02
	L 11.07 51.73
	L 11.78 52.44
	L 12.7 52.82
	L 13.63 53.2
	L 14.63 53.2
	M 14.78 58.69
	L 15.71 59.07
	M 14.78 58.69
	L 15.49 59.4
	L 15.87 60.32
	L 16.26 61.24
	M 14.08 57.98
	L 14.78 58.69
	L 15.49 59.4
	L 16.41 59.78
	M 14.46 58.91
	L 15.17 59.61
	M 14.46 58.91
	L 14.84 59.83
	L 14.84 60.83
	L 14.84 61.83
	M 14.08 57.98
	L 14.46 58.91
	L 14.84 59.83
	L 15.55 60.54
	M 14.84 62.83
	L 15.22 63.75
	M 14.84 62.83
	L 14.84 63.83
	L 14.46 64.75
	L 14.08 65.68
	M 14.84 59.83
	L 14.84 60.83
	L 14.84 61.83
	L 14.84 62.83
	L 14.84 63.83
	L 15.22 64.75
	M 15.55 60.54
	L 16.47 60.92
	M 15.55 60.54
	L 16.26 61.24
	L 16.64 62.17
	L 17.02 63.09
	M 11.78 52.44
	L 12.16 53.36
	L 12.55 54.29
	L 12.93 55.21
	L 13.31 56.13
	L 13.69 57.06
	L 14.08 57.98
	L 14.46 58.91
	L 14.84 59.83
	L 15.55 60.54
	L 16.26 61.24
	L 17.18 61.63
	M 14.63 53.2
	L 15.55 52.82
	M 14.63 53.2
	L 15.63 53.2
	L 16.55 53.59
	L 17.48 53.97
	M 13.63 53.2
	L 14.63 53.2
	L 15.63 53.2
	L 16.55 52.82
	M 14.55 53.59
	L 15.55 53.59
	M 14.55 53.59
	L 15.48 53.97
	L 16.18 54.68
	L 16.89 55.38
	M 13.63 53.2
	L 14.55 53.59
	L 15.48 53.97
	L 16.48 53.97
	M 17.6 56.09
	L 18.52 56.47
	M 17.6 56.09
	L 18.3 56.8
	L 18.69 57.72
	L 19.07 58.65
	M 15.48 53.97
	L 16.18 54.68
	L 16.89 55.38
	L 17.6 56.09
	L 18.3 56.8
	L 19.23 57.18
	M 16.48 53.97
	L 17.4 53.59
	M 16.48 53.97
	L 17.48 53.97
	L 18.4 54.35
	L 19.32 54.74
	M 0 0
	L 0 1
	L 0 2
	L 0 3
	L 0 4
	L 0 5
	L 0 6
	L 0 7
	L 0 8
	L 0 9
	L 0 10
	L 0 11
	L 0 12
	L 0 13
	L 0 14
	L 0 15
	L 0 16
	L 0 17
	L 0 18
	L 0 19
	L 0 20
	L 0 21
	L 0 22
	L 0 23
	L 0 24
	L 0 25
	L 0 26
	L 0 27
	L 0 28
	L 0 29
	L 0 30
	L 0 31
	L 0 32
	L 0.3827 32.92
	L 0.7654 33.85
	L 1.148 34.77
	L 1.531 35.7
	L 1.913 36.62
	L 2.296 37.54
	L 2.679 38.47
	L 3.061 39.39
	L 3.444 40.31
	L 3.827 41.24
	L 4.21 42.16
	L 4.592 43.09
	L 4.975 44.01
	L 5.358 44.93
	L 5.74 45.86
	L 6.123 46.78
	L 6.83 47.49
	L 7.537 48.2
	L 8.244 48.9
	L 8.951 49.61
	L 9.658 50.32
	L 10.37 51.02
	L 11.07 51.73
	L 11.78 52.44
	L 12.7 52.82
	L 13.63 53.2
	L 14.55 53.59
	L 15.48 53.97
	L 16.48 53.97
	L 17.48 53.97
	L 18.4 53.59
"/>
</svg>
