<svg version="1.1" baseProfile="full" xmlns="http://www.w3.org/2000/svg"
width="1024" height="1024"
viewBox="-1 -82 83 83"
>
<rect x="-1" y="-82" width="100%" height="100%" fill="white" />
<path stroke="green" stroke-width="0.04" stroke-linecap="round" fill="none"
transform="scale(1 -1)"
d="	M 0 0
	L 0 1
	L 0 2
	L 1 2
	L 1 1
	L 2.22e-16 1
	L -2.288e-17 2
	L -2.678e-16 3
	L -5.127e-16 4
	L -7.577e-16 5
	L 1 5
	L 1 4
	L -4.441e-16 4
	L -9.339e-16 5
	L -1.424e-15 6
	L 1 6
	L 2 6
	L 2 5
	L 1 5
	L 1 6
	L 2 6
	L 3 6
	L 3 5
	L 3 4
	L 2 4
	L 2 5
	L 3 5
	L 3 4
	L 3 3
	L 2 3
	L 1 3
	L 1 4
	L 2 4
	L 2 3
	L 1 3
	L 1.332e-15 3
	L -1.373e-16 4
	L -1.607e-15 5
	L 1 5
	L 1 4
	L 0 4
	L -1.715e-15 5
	L -3.429e-15 6
	L -5.144e-15 7
	L -6.858e-15 8
	L 1 8
	L 1 7
	L -4.996e-15 7
	L -6.955e-15 8
	L -8.915e-15 9
	L -1.087e-14 10
	L -1.283e-14 11
	L 1 11
	L 1 10
	L -1.077e-14 10
	L -1.297e-14 11
	L -1.518e-14 12
	L -1.738e-14 13
	L -1.959e-14 14
	L 1 14
	L 1 13
	L -1.721e-14 13
	L -1.966e-14 14
	L -2.211e-14 15
	L 1 15
	L 2 15
	L 2 14
	L 1 14
	L 1 15
	L 2 15
	L 3 15
	L 3 14
	L 3 13
	L 2 13
	L 2 14
	L 3 14
	L 3 13
	L 3 12
	L 2 12
	L 1 12
	L 1 13
	L 2 13
	L 2 12
	L 1 12
	L -1.31e-14 12
	L -1.653e-14 13
	L -1.996e-14 14
	L 1 14
	L 1 13
	L -1.643e-14 13
	L -2.011e-14 14
	L -2.378e-14 15
	L -2.745e-14 16
	L -3.113e-14 17
	L 1 17
	L 1 16
	L -2.731e-14 16
	L -3.123e-14 17
	L -3.515e-14 18
	L 1 18
	L 2 18
	L 2 17
	L 1 17
	L 1 18
	L 2 18
	L 3 18
	L 4 18
	L 5 18
	L 5 17
	L 4 17
	L 4 18
	L 5 18
	L 6 18
	L 6 17
	L 6 16
	L 5 16
	L 5 17
	L 6 17
	L 6 16
	L 6 15
	L 5 15
	L 4 15
	L 4 16
	L 5 16
	L 5 15
	L 4 15
	L 3 15
	L 3 16
	L 3 17
	L 4 17
	L 4 16
	L 3 16
	L 3 17
	L 3 18
	L 4 18
	L 5 18
	L 5 17
	L 4 17
	L 4 18
	L 5 18
	L 6 18
	L 7 18
	L 8 18
	L 8 17
	L 7 17
	L 7 18
	L 8 18
	L 9 18
	L 9 17
	L 9 16
	L 8 16
	L 8 17
	L 9 17
	L 9 16
	L 9 15
	L 9 14
	L 9 13
	L 8 13
	L 8 14
	L 9 14
	L 9 13
	L 9 12
	L 8 12
	L 7 12
	L 7 13
	L 8 13
	L 8 12
	L 7 12
	L 6 12
	L 6 13
	L 6 14
	L 7 14
	L 7 13
	L 6 13
	L 6 14
	L 6 15
	L 7 15
	L 8 15
	L 8 14
	L 7 14
	L 7 15
	L 8 15
	L 9 15
	L 9 14
	L 9 13
	L 8 13
	L 8 14
	L 9 14
	L 9 13
	L 9 12
	L 9 11
	L 9 10
	L 8 10
	L 8 11
	L 9 11
	L 9 10
	L 9 9
	L 8 9
	L 7 9
	L 7 10
	L 8 10
	L 8 9
	L 7 9
	L 6 9
	L 5 9
	L 4 9
	L 4 10
	L 5 10
	L 5 9
	L 4 9
	L 3 9
	L 3 10
	L 3 11
	L 4 11
	L 4 10
	L 3 10
	L 3 11
	L 3 12
	L 4 12
	L 5 12
	L 5 11
	L 4 11
	L 4 12
	L 5 12
	L 6 12
	L 6 11
	L 6 10
	L 5 10
	L 5 11
	L 6 11
	L 6 10
	L 6 9
	L 5 9
	L 4 9
	L 4 10
	L 5 10
	L 5 9
	L 4 9
	L 3 9
	L 2 9
	L 1 9
	L 1 10
	L 2 10
	L 2 9
	L 1 9
	L 2.665e-14 9
	L 1.66e-14 10
	L 6.561e-15 11
	L 1 11
	L 1 10
	L 1.688e-14 10
	L 6.588e-15 11
	L -3.699e-15 12
	L -1.399e-14 13
	L -2.427e-14 14
	L 1 14
	L 1 13
	L -1.388e-14 13
	L -2.441e-14 14
	L -3.494e-14 15
	L 1 15
	L 2 15
	L 2 14
	L 1 14
	L 1 15
	L 2 15
	L 3 15
	L 3 14
	L 3 13
	L 2 13
	L 2 14
	L 3 14
	L 3 13
	L 3 12
	L 2 12
	L 1 12
	L 1 13
	L 2 13
	L 2 12
	L 1 12
	L -1.554e-15 12
	L -1.307e-14 13
	L -2.458e-14 14
	L 1 14
	L 1 13
	L -1.288e-14 13
	L -2.464e-14 14
	L -3.639e-14 15
	L -4.815e-14 16
	L -5.991e-14 17
	L 1 17
	L 1 16
	L -4.807e-14 16
	L -6.007e-14 17
	L -7.208e-14 18
	L -8.408e-14 19
	L -9.608e-14 20
	L 1 20
	L 1 19
	L -8.393e-14 19
	L -9.618e-14 20
	L -1.084e-13 21
	L -1.207e-13 22
	L -1.329e-13 23
	L 1 23
	L 1 22
	L -1.206e-13 22
	L -1.331e-13 23
	L -1.456e-13 24
	L 1 24
	L 2 24
	L 2 23
	L 1 23
	L 1 24
	L 2 24
	L 3 24
	L 3 23
	L 3 22
	L 2 22
	L 2 23
	L 3 23
	L 3 22
	L 3 21
	L 2 21
	L 1 21
	L 1 22
	L 2 22
	L 2 21
	L 1 21
	L -1.061e-13 21
	L -1.196e-13 22
	L -1.331e-13 23
	L 1 23
	L 1 22
	L -1.196e-13 22
	L -1.333e-13 23
	L -1.47e-13 24
	L -1.607e-13 25
	L -1.744e-13 26
	L 1 26
	L 1 25
	L -1.605e-13 25
	L -1.745e-13 26
	L -1.885e-13 27
	L -2.024e-13 28
	L -2.164e-13 29
	L 1 29
	L 1 28
	L -2.023e-13 28
	L -2.165e-13 29
	L -2.307e-13 30
	L -2.449e-13 31
	L -2.591e-13 32
	L 1 32
	L 1 31
	L -2.448e-13 31
	L -2.593e-13 32
	L -2.737e-13 33
	L 1 33
	L 2 33
	L 2 32
	L 1 32
	L 1 33
	L 2 33
	L 3 33
	L 3 32
	L 3 31
	L 2 31
	L 2 32
	L 3 32
	L 3 31
	L 3 30
	L 2 30
	L 1 30
	L 1 31
	L 2 31
	L 2 30
	L 1 30
	L -2.289e-13 30
	L -2.444e-13 31
	L -2.598e-13 32
	L 1 32
	L 1 31
	L -2.442e-13 31
	L -2.599e-13 32
	L -2.756e-13 33
	L -2.913e-13 34
	L -3.07e-13 35
	L 1 35
	L 1 34
	L -2.912e-13 34
	L -3.071e-13 35
	L -3.231e-13 36
	L -3.39e-13 37
	L -3.549e-13 38
	L 1 38
	L 1 37
	L -3.388e-13 37
	L -3.55e-13 38
	L -3.712e-13 39
	L -3.873e-13 40
	L -4.035e-13 41
	L 1 41
	L 1 40
	L -3.871e-13 40
	L -4.035e-13 41
	L -4.2e-13 42
	L 1 42
	L 2 42
	L 2 41
	L 1 41
	L 1 42
	L 2 42
	L 3 42
	L 3 41
	L 3 40
	L 2 40
	L 2 41
	L 3 41
	L 3 40
	L 3 39
	L 2 39
	L 1 39
	L 1 40
	L 2 40
	L 2 39
	L 1 39
	L -3.693e-13 39
	L -3.867e-13 40
	L -4.04e-13 41
	L 1 41
	L 1 40
	L -3.865e-13 40
	L -4.041e-13 41
	L -4.217e-13 42
	L -4.394e-13 43
	L -4.57e-13 44
	L 1 44
	L 1 43
	L -4.392e-13 43
	L -4.571e-13 44
	L -4.75e-13 45
	L 1 45
	L 2 45
	L 2 44
	L 1 44
	L 1 45
	L 2 45
	L 3 45
	L 4 45
	L 5 45
	L 5 44
	L 4 44
	L 4 45
	L 5 45
	L 6 45
	L 6 44
	L 6 43
	L 5 43
	L 5 44
	L 6 44
	L 6 43
	L 6 42
	L 5 42
	L 4 42
	L 4 43
	L 5 43
	L 5 42
	L 4 42
	L 3 42
	L 3 43
	L 3 44
	L 4 44
	L 4 43
	L 3 43
	L 3 44
	L 3 45
	L 4 45
	L 5 45
	L 5 44
	L 4 44
	L 4 45
	L 5 45
	L 6 45
	L 7 45
	L 8 45
	L 8 44
	L 7 44
	L 7 45
	L 8 45
	L 9 45
	L 9 44
	L 9 43
	L 8 43
	L 8 44
	L 9 44
	L 9 43
	L 9 42
	L 9 41
	L 9 40
	L 8 40
	L 8 41
	L 9 41
	L 9 40
	L 9 39
	L 8 39
	L 7 39
	L 7 40
	L 8 40
	L 8 39
	L 7 39
	L 6 39
	L 6 40
	L 6 41
	L 7 41
	L 7 40
	L 6 40
	L 6 41
	L 6 42
	L 7 42
	L 8 42
	L 8 41
	L 7 41
	L 7 42
	L 8 42
	L 9 42
	L 9 41
	L 9 40
	L 8 40
	L 8 41
	L 9 41
	L 9 40
	L 9 39
	L 9 38
	L 9 37
	L 8 37
	L 8 38
	L 9 38
	L 9 37
	L 9 36
	L 8 36
	L 7 36
	L 7 37
	L 8 37
	L 8 36
	L 7 36
	L 6 36
	L 5 36
	L 4 36
	L 4 37
	L 5 37
	L 5 36
	L 4 36
	L 3 36
	L 3 37
	L 3 38
	L 4 38
	L 4 37
	L 3 37
	L 3 38
	L 3 39
	L 4 39
	L 5 39
	L 5 38
	L 4 38
	L 4 39
	L 5 39
	L 6 39
	L 6 38
	L 6 37
	L 5 37
	L 5 38
	L 6 38
	L 6 37
	L 6 36
	L 5 36
	L 4 36
	L 4 37
	L 5 37
	L 5 36
	L 4 36
	L 3 36
	L 2 36
	L 1 36
	L 1 37
	L 2 37
	L 2 36
	L 1 36
	L -2.92e-13 36
	L -3.16e-13 37
	L -3.4e-13 38
	L 1 38
	L 1 37
	L -3.159e-13 37
	L -3.401e-13 38
	L -3.644e-13 39
	L -3.886e-13 40
	L -4.129e-13 41
	L 1 41
	L 1 40
	L -3.885e-13 40
	L -4.13e-13 41
	L -4.375e-13 42
	L 1 42
	L 2 42
	L 2 41
	L 1 41
	L 1 42
	L 2 42
	L 3 42
	L 3 41
	L 3 40
	L 2 40
	L 2 41
	L 3 41
	L 3 40
	L 3 39
	L 2 39
	L 1 39
	L 1 40
	L 2 40
	L 2 39
	L 1 39
	L -3.624e-13 39
	L -3.878e-13 40
	L -4.133e-13 41
	L 1 41
	L 1 40
	L -3.877e-13 40
	L -4.134e-13 41
	L -4.391e-13 42
	L -4.648e-13 43
	L -4.906e-13 44
	L 1 44
	L 1 43
	L -4.647e-13 43
	L -4.907e-13 44
	L -5.167e-13 45
	L -5.426e-13 46
	L -5.686e-13 47
	L 1 47
	L 1 46
	L -5.425e-13 46
	L -5.687e-13 47
	L -5.949e-13 48
	L -6.211e-13 49
	L -6.473e-13 50
	L 1 50
	L 1 49
	L -6.209e-13 49
	L -6.474e-13 50
	L -6.739e-13 51
	L 1 51
	L 2 51
	L 2 50
	L 1 50
	L 1 51
	L 2 51
	L 3 51
	L 3 50
	L 3 49
	L 2 49
	L 2 50
	L 3 50
	L 3 49
	L 3 48
	L 2 48
	L 1 48
	L 1 49
	L 2 49
	L 2 48
	L 1 48
	L -5.931e-13 48
	L -6.205e-13 49
	L -6.479e-13 50
	L 1 50
	L 1 49
	L -6.204e-13 49
	L -6.481e-13 50
	L -6.757e-13 51
	L -7.034e-13 52
	L -7.311e-13 53
	L 1 53
	L 1 52
	L -7.033e-13 52
	L -7.312e-13 53
	L -7.592e-13 54
	L 1 54
	L 2 54
	L 2 53
	L 1 53
	L 1 54
	L 2 54
	L 3 54
	L 4 54
	L 5 54
	L 5 53
	L 4 53
	L 4 54
	L 5 54
	L 6 54
	L 6 53
	L 6 52
	L 5 52
	L 5 53
	L 6 53
	L 6 52
	L 6 51
	L 5 51
	L 4 51
	L 4 52
	L 5 52
	L 5 51
	L 4 51
	L 3 51
	L 3 52
	L 3 53
	L 4 53
	L 4 52
	L 3 52
	L 3 53
	L 3 54
	L 4 54
	L 5 54
	L 5 53
	L 4 53
	L 4 54
	L 5 54
	L 6 54
	L 7 54
	L 8 54
	L 8 53
	L 7 53
	L 7 54
	L 8 54
	L 9 54
	L 10 54
	L 11 54
	L 11 53
	L 10 53
	L 10 54
	L 11 54
	L 12 54
	L 13 54
	L 14 54
	L 14 53
	L 13 53
	L 13 54
	L 14 54
	L 15 54
	L 15 53
	L 15 52
	L 14 52
	L 14 53
	L 15 53
	L 15 52
	L 15 51
	L 14 51
	L 13 51
	L 13 52
	L 14 52
	L 14 51
	L 13 51
	L 12 51
	L 12 52
	L 12 53
	L 13 53
	L 13 52
	L 12 52
	L 12 53
	L 12 54
	L 13 54
	L 14 54
	L 14 53
	L 13 53
	L 13 54
	L 14 54
	L 15 54
	L 16 54
	L 17 54
	L 17 53
	L 16 53
	L 16 54
	L 17 54
	L 18 54
	L 18 53
	L 18 52
	L 17 52
	L 17 53
	L 18 53
	L 18 52
	L 18 51
	L 18 50
	L 18 49
	L 17 49
	L 17 50
	L 18 50
	L 18 49
	L 18 48
	L 17 48
	L 16 48
	L 16 49
	L 17 49
	L 17 48
	L 16 48
	L 15 48
	L 15 49
	L 15 50
	L 16 50
	L 16 49
	L 15 49
	L 15 50
	L 15 51
	L 16 51
	L 17 51
	L 17 50
	L 16 50
	L 16 51
	L 17 51
	L 18 51
	L 18 50
	L 18 49
	L 17 49
	L 17 50
	L 18 50
	L 18 49
	L 18 48
	L 18 47
	L 18 46
	L 17 46
	L 17 47
	L 18 47
	L 18 46
	L 18 45
	L 17 45
	L 16 45
	L 16 46
	L 17 46
	L 17 45
	L 16 45
	L 15 45
	L 14 45
	L 13 45
	L 13 46
	L 14 46
	L 14 45
	L 13 45
	L 12 45
	L 12 46
	L 12 47
	L 13 47
	L 13 46
	L 12 46
	L 12 47
	L 12 48
	L 13 48
	L 14 48
	L 14 47
	L 13 47
	L 13 48
	L 14 48
	L 15 48
	L 15 47
	L 15 46
	L 14 46
	L 14 47
	L 15 47
	L 15 46
	L 15 45
	L 14 45
	L 13 45
	L 13 46
	L 14 46
	L 14 45
	L 13 45
	L 12 45
	L 11 45
	L 10 45
	L 10 46
	L 11 46
	L 11 45
	L 10 45
	L 9 45
	L 9 46
	L 9 47
	L 10 47
	L 10 46
	L 9 46
	L 9 47
	L 9 48
	L 9 49
	L 9 50
	L 10 50
	L 10 49
	L 9 49
	L 9 50
	L 9 51
	L 10 51
	L 11 51
	L 11 50
	L 10 50
	L 10 51
	L 11 51
	L 12 51
	L 12 50
	L 12 49
	L 11 49
	L 11 50
	L 12 50
	L 12 49
	L 12 48
	L 11 48
	L 10 48
	L 10 49
	L 11 49
	L 11 48
	L 10 48
	L 9 48
	L 9 49
	L 9 50
	L 10 50
	L 10 49
	L 9 49
	L 9 50
	L 9 51
	L 9 52
	L 9 53
	L 10 53
	L 10 52
	L 9 52
	L 9 53
	L 9 54
	L 10 54
	L 11 54
	L 11 53
	L 10 53
	L 10 54
	L 11 54
	L 12 54
	L 13 54
	L 14 54
	L 14 53
	L 13 53
	L 13 54
	L 14 54
	L 15 54
	L 15 53
	L 15 52
	L 14 52
	L 14 53
	L 15 53
	L 15 52
	L 15 51
	L 14 51
	L 13 51
	L 13 52
	L 14 52
	L 14 51
	L 13 51
	L 12 51
	L 12 52
	L 12 53
	L 13 53
	L 13 52
	L 12 52
	L 12 53
	L 12 54
	L 13 54
	L 14 54
	L 14 53
	L 13 53
	L 13 54
	L 14 54
	L 15 54
	L 16 54
	L 17 54
	L 17 53
	L 16 53
	L 16 54
	L 17 54
	L 18 54
	L 19 54
	L 20 54
	L 20 53
	L 19 53
	L 19 54
	L 20 54
	L 21 54
	L 22 54
	L 23 54
	L 23 53
	L 22 53
	L 22 54
	L 23 54
	L 24 54
	L 24 53
	L 24 52
	L 23 52
	L 23 53
	L 24 53
	L 24 52
	L 24 51
	L 23 51
	L 22 51
	L 22 52
	L 23 52
	L 23 51
	L 22 51
	L 21 51
	L 21 52
	L 21 53
	L 22 53
	L 22 52
	L 21 52
	L 21 53
	L 21 54
	L 22 54
	L 23 54
	L 23 53
	L 22 53
	L 22 54
	L 23 54
	L 24 54
	L 25 54
	L 26 54
	L 26 53
	L 25 53
	L 25 54
	L 26 54
	L 27 54
	L 27 53
	L 27 52
	L 26 52
	L 26 53
	L 27 53
	L 27 52
	L 27 51
	L 27 50
	L 27 49
	L 26 49
	L 26 50
	L 27 50
	L 27 49
	L 27 48
	L 26 48
	L 25 48
	L 25 49
	L 26 49
	L 26 48
	L 25 48
	L 24 48
	L 24 49
	L 24 50
	L 25 50
	L 25 49
	L 24 49
	L 24 50
	L 24 51
	L 25 51
	L 26 51
	L 26 50
	L 25 50
	L 25 51
	L 26 51
	L 27 51
	L 27 50
	L 27 49
	L 26 49
	L 26 50
	L 27 50
	L 27 49
	L 27 48
	L 27 47
	L 27 46
	L 26 46
	L 26 47
	L 27 47
	L 27 46
	L 27 45
	L 27 44
	L 27 43
	L 26 43
	L 26 44
	L 27 44
	L 27 43
	L 27 42
	L 27 41
	L 27 40
	L 26 40
	L 26 41
	L 27 41
	L 27 40
	L 27 39
	L 26 39
	L 25 39
	L 25 40
	L 26 40
	L 26 39
	L 25 39
	L 24 39
	L 24 40
	L 24 41
	L 25 41
	L 25 40
	L 24 40
	L 24 41
	L 24 42
	L 25 42
	L 26 42
	L 26 41
	L 25 41
	L 25 42
	L 26 42
	L 27 42
	L 27 41
	L 27 40
	L 26 40
	L 26 41
	L 27 41
	L 27 40
	L 27 39
	L 27 38
	L 27 37
	L 26 37
	L 26 38
	L 27 38
	L 27 37
	L 27 36
	L 26 36
	L 25 36
	L 25 37
	L 26 37
	L 26 36
	L 25 36
	L 24 36
	L 23 36
	L 22 36
	L 22 37
	L 23 37
	L 23 36
	L 22 36
	L 21 36
	L 21 37
	L 21 38
	L 22 38
	L 22 37
	L 21 37
	L 21 38
	L 21 39
	L 22 39
	L 23 39
	L 23 38
	L 22 38
	L 22 39
	L 23 39
	L 24 39
	L 24 38
	L 24 37
	L 23 37
	L 23 38
	L 24 38
	L 24 37
	L 24 36
	L 23 36
	L 22 36
	L 22 37
	L 23 37
	L 23 36
	L 22 36
	L 21 36
	L 20 36
	L 19 36
	L 19 37
	L 20 37
	L 20 36
	L 19 36
	L 18 36
	L 18 37
	L 18 38
	L 19 38
	L 19 37
	L 18 37
	L 18 38
	L 18 39
	L 18 40
	L 18 41
	L 19 41
	L 19 40
	L 18 40
	L 18 41
	L 18 42
	L 19 42
	L 20 42
	L 20 41
	L 19 41
	L 19 42
	L 20 42
	L 21 42
	L 21 41
	L 21 40
	L 20 40
	L 20 41
	L 21 41
	L 21 40
	L 21 39
	L 20 39
	L 19 39
	L 19 40
	L 20 40
	L 20 39
	L 19 39
	L 18 39
	L 18 40
	L 18 41
	L 19 41
	L 19 40
	L 18 40
	L 18 41
	L 18 42
	L 18 43
	L 18 44
	L 19 44
	L 19 43
	L 18 43
	L 18 44
	L 18 45
	L 19 45
	L 20 45
	L 20 44
	L 19 44
	L 19 45
	L 20 45
	L 21 45
	L 22 45
	L 23 45
	L 23 44
	L 22 44
	L 22 45
	L 23 45
	L 24 45
	L 24 44
	L 24 43
	L 23 43
	L 23 44
	L 24 44
	L 24 43
	L 24 42
	L 23 42
	L 22 42
	L 22 43
	L 23 43
	L 23 42
	L 22 42
	L 21 42
	L 21 43
	L 21 44
	L 22 44
	L 22 43
	L 21 43
	L 21 44
	L 21 45
	L 22 45
	L 23 45
	L 23 44
	L 22 44
	L 22 45
	L 23 45
	L 24 45
	L 25 45
	L 26 45
	L 26 44
	L 25 44
	L 25 45
	L 26 45
	L 27 45
	L 27 44
	L 27 43
	L 26 43
	L 26 44
	L 27 44
	L 27 43
	L 27 42
	L 27 41
	L 27 40
	L 26 40
	L 26 41
	L 27 41
	L 27 40
	L 27 39
	L 26 39
	L 25 39
	L 25 40
	L 26 40
	L 26 39
	L 25 39
	L 24 39
	L 24 40
	L 24 41
	L 25 41
	L 25 40
	L 24 40
	L 24 41
	L 24 42
	L 25 42
	L 26 42
	L 26 41
	L 25 41
	L 25 42
	L 26 42
	L 27 42
	L 27 41
	L 27 40
	L 26 40
	L 26 41
	L 27 41
	L 27 40
	L 27 39
	L 27 38
	L 27 37
	L 26 37
	L 26 38
	L 27 38
	L 27 37
	L 27 36
	L 27 35
	L 27 34
	L 26 34
	L 26 35
	L 27 35
	L 27 34
	L 27 33
	L 27 32
	L 27 31
	L 26 31
	L 26 32
	L 27 32
	L 27 31
	L 27 30
	L 26 30
	L 25 30
	L 25 31
	L 26 31
	L 26 30
	L 25 30
	L 24 30
	L 24 31
	L 24 32
	L 25 32
	L 25 31
	L 24 31
	L 24 32
	L 24 33
	L 25 33
	L 26 33
	L 26 32
	L 25 32
	L 25 33
	L 26 33
	L 27 33
	L 27 32
	L 27 31
	L 26 31
	L 26 32
	L 27 32
	L 27 31
	L 27 30
	L 27 29
	L 27 28
	L 26 28
	L 26 29
	L 27 29
	L 27 28
	L 27 27
	L 26 27
	L 25 27
	L 25 28
	L 26 28
	L 26 27
	L 25 27
	L 24 27
	L 23 27
	L 22 27
	L 22 28
	L 23 28
	L 23 27
	L 22 27
	L 21 27
	L 21 28
	L 21 29
	L 22 29
	L 22 28
	L 21 28
	L 21 29
	L 21 30
	L 22 30
	L 23 30
	L 23 29
	L 22 29
	L 22 30
	L 23 30
	L 24 30
	L 24 29
	L 24 28
	L 23 28
	L 23 29
	L 24 29
	L 24 28
	L 24 27
	L 23 27
	L 22 27
	L 22 28
	L 23 28
	L 23 27
	L 22 27
	L 21 27
	L 20 27
	L 19 27
	L 19 28
	L 20 28
	L 20 27
	L 19 27
	L 18 27
	L 17 27
	L 16 27
	L 16 28
	L 17 28
	L 17 27
	L 16 27
	L 15 27
	L 14 27
	L 13 27
	L 13 28
	L 14 28
	L 14 27
	L 13 27
	L 12 27
	L 12 28
	L 12 29
	L 13 29
	L 13 28
	L 12 28
	L 12 29
	L 12 30
	L 13 30
	L 14 30
	L 14 29
	L 13 29
	L 13 30
	L 14 30
	L 15 30
	L 15 29
	L 15 28
	L 14 28
	L 14 29
	L 15 29
	L 15 28
	L 15 27
	L 14 27
	L 13 27
	L 13 28
	L 14 28
	L 14 27
	L 13 27
	L 12 27
	L 11 27
	L 10 27
	L 10 28
	L 11 28
	L 11 27
	L 10 27
	L 9 27
	L 9 28
	L 9 29
	L 10 29
	L 10 28
	L 9 28
	L 9 29
	L 9 30
	L 9 31
	L 9 32
	L 10 32
	L 10 31
	L 9 31
	L 9 32
	L 9 33
	L 10 33
	L 11 33
	L 11 32
	L 10 32
	L 10 33
	L 11 33
	L 12 33
	L 12 32
	L 12 31
	L 11 31
	L 11 32
	L 12 32
	L 12 31
	L 12 30
	L 11 30
	L 10 30
	L 10 31
	L 11 31
	L 11 30
	L 10 30
	L 9 30
	L 9 31
	L 9 32
	L 10 32
	L 10 31
	L 9 31
	L 9 32
	L 9 33
	L 9 34
	L 9 35
	L 10 35
	L 10 34
	L 9 34
	L 9 35
	L 9 36
	L 10 36
	L 11 36
	L 11 35
	L 10 35
	L 10 36
	L 11 36
	L 12 36
	L 13 36
	L 14 36
	L 14 35
	L 13 35
	L 13 36
	L 14 36
	L 15 36
	L 15 35
	L 15 34
	L 14 34
	L 14 35
	L 15 35
	L 15 34
	L 15 33
	L 14 33
	L 13 33
	L 13 34
	L 14 34
	L 14 33
	L 13 33
	L 12 33
	L 12 34
	L 12 35
	L 13 35
	L 13 34
	L 12 34
	L 12 35
	L 12 36
	L 13 36
	L 14 36
	L 14 35
	L 13 35
	L 13 36
	L 14 36
	L 15 36
	L 16 36
	L 17 36
	L 17 35
	L 16 35
	L 16 36
	L 17 36
	L 18 36
	L 18 35
	L 18 34
	L 17 34
	L 17 35
	L 18 35
	L 18 34
	L 18 33
	L 18 32
	L 18 31
	L 17 31
	L 17 32
	L 18 32
	L 18 31
	L 18 30
	L 17 30
	L 16 30
	L 16 31
	L 17 31
	L 17 30
	L 16 30
	L 15 30
	L 15 31
	L 15 32
	L 16 32
	L 16 31
	L 15 31
	L 15 32
	L 15 33
	L 16 33
	L 17 33
	L 17 32
	L 16 32
	L 16 33
	L 17 33
	L 18 33
	L 18 32
	L 18 31
	L 17 31
	L 17 32
	L 18 32
	L 18 31
	L 18 30
	L 18 29
	L 18 28
	L 17 28
	L 17 29
	L 18 29
	L 18 28
	L 18 27
	L 17 27
	L 16 27
	L 16 28
	L 17 28
	L 17 27
	L 16 27
	L 15 27
	L 14 27
	L 13 27
	L 13 28
	L 14 28
	L 14 27
	L 13 27
	L 12 27
	L 12 28
	L 12 29
	L 13 29
	L 13 28
	L 12 28
	L 12 29
	L 12 30
	L 13 30
	L 14 30
	L 14 29
	L 13 29
	L 13 30
	L 14 30
	L 15 30
	L 15 29
	L 15 28
	L 14 28
	L 14 29
	L 15 29
	L 15 28
	L 15 27
	L 14 27
	L 13 27
	L 13 28
	L 14 28
	L 14 27
	L 13 27
	L 12 27
	L 11 27
	L 10 27
	L 10 28
	L 11 28
	L 11 27
	L 10 27
	L 9 27
	L 8 27
	L 7 27
	L 7 28
	L 8 28
	L 8 27
	L 7 27
	L 6 27
	L 5 27
	L 4 27
	L 4 28
	L 5 28
	L 5 27
	L 4 27
	L 3 27
	L 3 28
	L 3 29
	L 4 29
	L 4 28
	L 3 28
	L 3 29
	L 3 30
	L 4 30
	L 5 30
	L 5 29
	L 4 29
	L 4 30
	L 5 30
	L 6 30
	L 6 29
	L 6 28
	L 5 28
	L 5 29
	L 6 29
	L 6 28
	L 6 27
	L 5 27
	L 4 27
	L 4 28
	L 5 28
	L 5 27
	L 4 27
	L 3 27
	L 2 27
	L 1 27
	L 1 28
	L 2 28
	L 2 27
	L 1 27
	L 5.311e-13 27
	L 4.611e-13 28
	L 3.91e-13 29
	L 1 29
	L 1 28
	L 4.612e-13 28
	L 3.909e-13 29
	L 3.206e-13 30
	L 2.503e-13 31
	L 1.8e-13 32
	L 1 32
	L 1 31
	L 2.505e-13 31
	L 1.799e-13 32
	L 1.094e-13 33
	L 1 33
	L 2 33
	L 2 32
	L 1 32
	L 1 33
	L 2 33
	L 3 33
	L 3 32
	L 3 31
	L 2 31
	L 2 32
	L 3 32
	L 3 31
	L 3 30
	L 2 30
	L 1 30
	L 1 31
	L 2 31
	L 2 30
	L 1 30
	L 3.229e-13 30
	L 2.513e-13 31
	L 1.798e-13 32
	L 1 32
	L 1 31
	L 2.516e-13 31
	L 1.798e-13 32
	L 1.08e-13 33
	L 3.628e-14 34
	L -3.548e-14 35
	L 1 35
	L 1 34
	L 3.642e-14 34
	L -3.559e-14 35
	L -1.076e-13 36
	L -1.796e-13 37
	L -2.516e-13 38
	L 1 38
	L 1 37
	L -1.794e-13 37
	L -2.517e-13 38
	L -3.239e-13 39
	L -3.962e-13 40
	L -4.684e-13 41
	L 1 41
	L 1 40
	L -3.96e-13 40
	L -4.685e-13 41
	L -5.41e-13 42
	L 1 42
	L 2 42
	L 2 41
	L 1 41
	L 1 42
	L 2 42
	L 3 42
	L 3 41
	L 3 40
	L 2 40
	L 2 41
	L 3 41
	L 3 40
	L 3 39
	L 2 39
	L 1 39
	L 1 40
	L 2 40
	L 2 39
	L 1 39
	L -3.215e-13 39
	L -3.95e-13 40
	L -4.685e-13 41
	L 1 41
	L 1 40
	L -3.949e-13 40
	L -4.686e-13 41
	L -5.424e-13 42
	L -6.161e-13 43
	L -6.898e-13 44
	L 1 44
	L 1 43
	L -6.16e-13 43
	L -6.899e-13 44
	L -7.639e-13 45
	L 1 45
	L 2 45
	L 2 44
	L 1 44
	L 1 45
	L 2 45
	L 3 45
	L 4 45
	L 5 45
	L 5 44
	L 4 44
	L 4 45
	L 5 45
	L 6 45
	L 6 44
	L 6 43
	L 5 43
	L 5 44
	L 6 44
	L 6 43
	L 6 42
	L 5 42
	L 4 42
	L 4 43
	L 5 43
	L 5 42
	L 4 42
	L 3 42
	L 3 43
	L 3 44
	L 4 44
	L 4 43
	L 3 43
	L 3 44
	L 3 45
	L 4 45
	L 5 45
	L 5 44
	L 4 44
	L 4 45
	L 5 45
	L 6 45
	L 7 45
	L 8 45
	L 8 44
	L 7 44
	L 7 45
	L 8 45
	L 9 45
	L 9 44
	L 9 43
	L 8 43
	L 8 44
	L 9 44
	L 9 43
	L 9 42
	L 9 41
	L 9 40
	L 8 40
	L 8 41
	L 9 41
	L 9 40
	L 9 39
	L 8 39
	L 7 39
	L 7 40
	L 8 40
	L 8 39
	L 7 39
	L 6 39
	L 6 40
	L 6 41
	L 7 41
	L 7 40
	L 6 40
	L 6 41
	L 6 42
	L 7 42
	L 8 42
	L 8 41
	L 7 41
	L 7 42
	L 8 42
	L 9 42
	L 9 41
	L 9 40
	L 8 40
	L 8 41
	L 9 41
	L 9 40
	L 9 39
	L 9 38
	L 9 37
	L 8 37
	L 8 38
	L 9 38
	L 9 37
	L 9 36
	L 8 36
	L 7 36
	L 7 37
	L 8 37
	L 8 36
	L 7 36
	L 6 36
	L 5 36
	L 4 36
	L 4 37
	L 5 37
	L 5 36
	L 4 36
	L 3 36
	L 3 37
	L 3 38
	L 4 38
	L 4 37
	L 3 37
	L 3 38
	L 3 39
	L 4 39
	L 5 39
	L 5 38
	L 4 38
	L 4 39
	L 5 39
	L 6 39
	L 6 38
	L 6 37
	L 5 37
	L 5 38
	L 6 38
	L 6 37
	L 6 36
	L 5 36
	L 4 36
	L 4 37
	L 5 37
	L 5 36
	L 4 36
	L 3 36
	L 2 36
	L 1 36
	L 1 37
	L 2 37
	L 2 36
	L 1 36
	L -6.573e-14 36
	L -1.458e-13 37
	L -2.259e-13 38
	L 1 38
	L 1 37
	L -1.457e-13 37
	L -2.26e-13 38
	L -3.063e-13 39
	L -3.867e-13 40
	L -4.67e-13 41
	L 1 41
	L 1 40
	L -3.865e-13 40
	L -4.671e-13 41
	L -5.476e-13 42
	L 1 42
	L 2 42
	L 2 41
	L 1 41
	L 1 42
	L 2 42
	L 3 42
	L 3 41
	L 3 40
	L 2 40
	L 2 41
	L 3 41
	L 3 40
	L 3 39
	L 2 39
	L 1 39
	L 1 40
	L 2 40
	L 2 39
	L 1 39
	L -3.044e-13 39
	L -3.86e-13 40
	L -4.675e-13 41
	L 1 41
	L 1 40
	L -3.858e-13 40
	L -4.676e-13 41
	L -5.494e-13 42
	L -6.312e-13 43
	L -7.13e-13 44
	L 1 44
	L 1 43
	L -6.311e-13 43
	L -7.131e-13 44
	L -7.952e-13 45
	L -8.772e-13 46
	L -9.593e-13 47
	L 1 47
	L 1 46
	L -8.771e-13 46
	L -9.594e-13 47
	L -1.042e-12 48
	L -1.124e-12 49
	L -1.206e-12 50
	L 1 50
	L 1 49
	L -1.124e-12 49
	L -1.206e-12 50
	L -1.289e-12 51
	L 1 51
	L 2 51
	L 2 50
	L 1 50
	L 1 51
	L 2 51
	L 3 51
	L 3 50
	L 3 49
	L 2 49
	L 2 50
	L 3 50
	L 3 49
	L 3 48
	L 2 48
	L 1 48
	L 1 49
	L 2 49
	L 2 48
	L 1 48
	L -1.04e-12 48
	L -1.123e-12 49
	L -1.207e-12 50
	L 1 50
	L 1 49
	L -1.123e-12 49
	L -1.207e-12 50
	L -1.291e-12 51
	L -1.375e-12 52
	L -1.458e-12 53
	L 1 53
	L 1 52
	L -1.374e-12 52
	L -1.458e-12 53
	L -1.542e-12 54
	L -1.626e-12 55
	L -1.71e-12 56
	L 1 56
	L 1 55
	L -1.626e-12 55
	L -1.711e-12 56
	L -1.795e-12 57
	L -1.879e-12 58
	L -1.963e-12 59
	L 1 59
	L 1 58
	L -1.879e-12 58
	L -1.964e-12 59
	L -2.048e-12 60
	L 1 60
	L 2 60
	L 2 59
	L 1 59
	L 1 60
	L 2 60
	L 3 60
	L 3 59
	L 3 58
	L 2 58
	L 2 59
	L 3 59
	L 3 58
	L 3 57
	L 2 57
	L 1 57
	L 1 58
	L 2 58
	L 2 57
	L 1 57
	L -1.793e-12 57
	L -1.879e-12 58
	L -1.964e-12 59
	L 1 59
	L 1 58
	L -1.879e-12 58
	L -1.964e-12 59
	L -2.05e-12 60
	L -2.136e-12 61
	L -2.222e-12 62
	L 1 62
	L 1 61
	L -2.136e-12 61
	L -2.222e-12 62
	L -2.308e-12 63
	L -2.394e-12 64
	L -2.48e-12 65
	L 1 65
	L 1 64
	L -2.394e-12 64
	L -2.48e-12 65
	L -2.566e-12 66
	L -2.652e-12 67
	L -2.738e-12 68
	L 1 68
	L 1 67
	L -2.652e-12 67
	L -2.738e-12 68
	L -2.825e-12 69
	L 1 69
	L 2 69
	L 2 68
	L 1 68
	L 1 69
	L 2 69
	L 3 69
	L 3 68
	L 3 67
	L 2 67
	L 2 68
	L 3 68
	L 3 67
	L 3 66
	L 2 66
	L 1 66
	L 1 67
	L 2 67
	L 2 66
	L 1 66
	L -2.564e-12 66
	L -2.651e-12 67
	L -2.738e-12 68
	L 1 68
	L 1 67
	L -2.651e-12 67
	L -2.738e-12 68
	L -2.826e-12 69
	L -2.914e-12 70
	L -3.002e-12 71
	L 1 71
	L 1 70
	L -2.914e-12 70
	L -3.002e-12 71
	L -3.09e-12 72
	L 1 72
	L 2 72
	L 2 71
	L 1 71
	L 1 72
	L 2 72
	L 3 72
	L 4 72
	L 5 72
	L 5 71
	L 4 71
	L 4 72
	L 5 72
	L 6 72
	L 6 71
	L 6 70
	L 5 70
	L 5 71
	L 6 71
	L 6 70
	L 6 69
	L 5 69
	L 4 69
	L 4 70
	L 5 70
	L 5 69
	L 4 69
	L 3 69
	L 3 70
	L 3 71
	L 4 71
	L 4 70
	L 3 70
	L 3 71
	L 3 72
	L 4 72
	L 5 72
	L 5 71
	L 4 71
	L 4 72
	L 5 72
	L 6 72
	L 7 72
	L 8 72
	L 8 71
	L 7 71
	L 7 72
	L 8 72
	L 9 72
	L 9 71
	L 9 70
	L 8 70
	L 8 71
	L 9 71
	L 9 70
	L 9 69
	L 9 68
	L 9 67
	L 8 67
	L 8 68
	L 9 68
	L 9 67
	L 9 66
	L 8 66
	L 7 66
	L 7 67
	L 8 67
	L 8 66
	L 7 66
	L 6 66
	L 6 67
	L 6 68
	L 7 68
	L 7 67
	L 6 67
	L 6 68
	L 6 69
	L 7 69
	L 8 69
	L 8 68
	L 7 68
	L 7 69
	L 8 69
	L 9 69
	L 9 68
	L 9 67
	L 8 67
	L 8 68
	L 9 68
	L 9 67
	L 9 66
	L 9 65
	L 9 64
	L 8 64
	L 8 65
	L 9 65
	L 9 64
	L 9 63
	L 8 63
	L 7 63
	L 7 64
	L 8 64
	L 8 63
	L 7 63
	L 6 63
	L 5 63
	L 4 63
	L 4 64
	L 5 64
	L 5 63
	L 4 63
	L 3 63
	L 3 64
	L 3 65
	L 4 65
	L 4 64
	L 3 64
	L 3 65
	L 3 66
	L 4 66
	L 5 66
	L 5 65
	L 4 65
	L 4 66
	L 5 66
	L 6 66
	L 6 65
	L 6 64
	L 5 64
	L 5 65
	L 6 65
	L 6 64
	L 6 63
	L 5 63
	L 4 63
	L 4 64
	L 5 64
	L 5 63
	L 4 63
	L 3 63
	L 2 63
	L 1 63
	L 1 64
	L 2 64
	L 2 63
	L 1 63
	L -2.264e-12 63
	L -2.358e-12 64
	L -2.452e-12 65
	L 1 65
	L 1 64
	L -2.358e-12 64
	L -2.452e-12 65
	L -2.546e-12 66
	L -2.641e-12 67
	L -2.735e-12 68
	L 1 68
	L 1 67
	L -2.64e-12 67
	L -2.735e-12 68
	L -2.83e-12 69
	L 1 69
	L 2 69
	L 2 68
	L 1 68
	L 1 69
	L 2 69
	L 3 69
	L 3 68
	L 3 67
	L 2 67
	L 2 68
	L 3 68
	L 3 67
	L 3 66
	L 2 66
	L 1 66
	L 1 67
	L 2 67
	L 2 66
	L 1 66
	L -2.544e-12 66
	L -2.64e-12 67
	L -2.735e-12 68
	L 1 68
	L 1 67
	L -2.64e-12 67
	L -2.736e-12 68
	L -2.831e-12 69
	L -2.927e-12 70
	L -3.023e-12 71
	L 1 71
	L 1 70
	L -2.927e-12 70
	L -3.023e-12 71
	L -3.119e-12 72
	L -3.215e-12 73
	L -3.311e-12 74
	L 1 74
	L 1 73
	L -3.215e-12 73
	L -3.311e-12 74
	L -3.407e-12 75
	L -3.504e-12 76
	L -3.6e-12 77
	L 1 77
	L 1 76
	L -3.504e-12 76
	L -3.6e-12 77
	L -3.697e-12 78
	L 1 78
	L 2 78
	L 2 77
	L 1 77
	L 1 78
	L 2 78
	L 3 78
	L 3 77
	L 3 76
	L 2 76
	L 2 77
	L 3 77
	L 3 76
	L 3 75
	L 2 75
	L 1 75
	L 1 76
	L 2 76
	L 2 75
	L 1 75
	L -3.405e-12 75
	L -3.503e-12 76
	L -3.6e-12 77
	L 1 77
	L 1 76
	L -3.503e-12 76
	L -3.6e-12 77
	L -3.698e-12 78
	L -3.796e-12 79
	L -3.894e-12 80
	L 1 80
	L 1 79
	L -3.796e-12 79
	L -3.894e-12 80
	L -3.992e-12 81
	L 1 81
	L 2 81
	L 2 80
	L 1 80
	L 1 81
	L 2 81
	L 3 81
	L 4 81
	L 5 81
	L 5 80
	L 4 80
	L 4 81
	L 5 81
	L 6 81
	L 6 80
	L 6 79
	L 5 79
	L 5 80
	L 6 80
	L 6 79
	L 6 78
	L 5 78
	L 4 78
	L 4 79
	L 5 79
	L 5 78
	L 4 78
	L 3 78
	L 3 79
	L 3 80
	L 4 80
	L 4 79
	L 3 79
	L 3 80
	L 3 81
	L 4 81
	L 5 81
	L 5 80
	L 4 80
	L 4 81
	L 5 81
	L 6 81
	L 7 81
	L 8 81
	L 8 80
	L 7 80
	L 7 81
	L 8 81
	L 9 81
	L 10 81
	L 11 81
	L 11 80
	L 10 80
	L 10 81
	L 11 81
	L 12 81
	L 13 81
	L 14 81
	L 14 80
	L 13 80
	L 13 81
	L 14 81
	L 15 81
	L 15 80
	L 15 79
	L 14 79
	L 14 80
	L 15 80
	L 15 79
	L 15 78
	L 14 78
	L 13 78
	L 13 79
	L 14 79
	L 14 78
	L 13 78
	L 12 78
	L 12 79
	L 12 80
	L 13 80
	L 13 79
	L 12 79
	L 12 80
	L 12 81
	L 13 81
	L 14 81
	L 14 80
	L 13 80
	L 13 81
	L 14 81
	L 15 81
	L 16 81
	L 17 81
	L 17 80
	L 16 80
	L 16 81
	L 17 81
	L 18 81
	L 18 80
	L 18 79
	L 17 79
	L 17 80
	L 18 80
	L 18 79
	L 18 78
	L 18 77
	L 18 76
	L 17 76
	L 17 77
	L 18 77
	L 18 76
	L 18 75
	L 17 75
	L 16 75
	L 16 76
	L 17 76
	L 17 75
	L 16 75
	L 15 75
	L 15 76
	L 15 77
	L 16 77
	L 16 76
	L 15 76
	L 15 77
	L 15 78
	L 16 78
	L 17 78
	L 17 77
	L 16 77
	L 16 78
	L 17 78
	L 18 78
	L 18 77
	L 18 76
	L 17 76
	L 17 77
	L 18 77
	L 18 76
	L 18 75
	L 18 74
	L 18 73
	L 17 73
	L 17 74
	L 18 74
	L 18 73
	L 18 72
	L 17 72
	L 16 72
	L 16 73
	L 17 73
	L 17 72
	L 16 72
	L 15 72
	L 14 72
	L 13 72
	L 13 73
	L 14 73
	L 14 72
	L 13 72
	L 12 72
	L 12 73
	L 12 74
	L 13 74
	L 13 73
	L 12 73
	L 12 74
	L 12 75
	L 13 75
	L 14 75
	L 14 74
	L 13 74
	L 13 75
	L 14 75
	L 15 75
	L 15 74
	L 15 73
	L 14 73
	L 14 74
	L 15 74
	L 15 73
	L 15 72
	L 14 72
	L 13 72
	L 13 73
	L 14 73
	L 14 72
	L 13 72
	L 12 72
	L 11 72
	L 10 72
	L 10 73
	L 11 73
	L 11 72
	L 10 72
	L 9 72
	L 9 73
	L 9 74
	L 10 74
	L 10 73
	L 9 73
	L 9 74
	L 9 75
	L 9 76
	L 9 77
	L 10 77
	L 10 76
	L 9 76
	L 9 77
	L 9 78
	L 10 78
	L 11 78
	L 11 77
	L 10 77
	L 10 78
	L 11 78
	L 12 78
	L 12 77
	L 12 76
	L 11 76
	L 11 77
	L 12 77
	L 12 76
	L 12 75
	L 11 75
	L 10 75
	L 10 76
	L 11 76
	L 11 75
	L 10 75
	L 9 75
	L 9 76
	L 9 77
	L 10 77
	L 10 76
	L 9 76
	L 9 77
	L 9 78
	L 9 79
	L 9 80
	L 10 80
	L 10 79
	L 9 79
	L 9 80
	L 9 81
	L 10 81
	L 11 81
	L 11 80
	L 10 80
	L 10 81
	L 11 81
	L 12 81
	L 13 81
	L 14 81
	L 14 80
	L 13 80
	L 13 81
	L 14 81
	L 15 81
	L 15 80
	L 15 79
	L 14 79
	L 14 80
	L 15 80
	L 15 79
	L 15 78
	L 14 78
	L 13 78
	L 13 79
	L 14 79
	L 14 78
	L 13 78
	L 12 78
	L 12 79
	L 12 80
	L 13 80
	L 13 79
	L 12 79
	L 12 80
	L 12 81
	L 13 81
	L 14 81
	L 14 80
	L 13 80
	L 13 81
	L 14 81
	L 15 81
	L 16 81
	L 17 81
	L 17 80
	L 16 80
	L 16 81
	L 17 81
	L 18 81
	L 19 81
	L 20 81
	L 20 80
	L 19 80
	L 19 81
	L 20 81
	L 21 81
	L 22 81
	L 23 81
	L 23 80
	L 22 80
	L 22 81
	L 23 81
	L 24 81
	L 24 80
	L 24 79
	L 23 79
	L 23 80
	L 24 80
	L 24 79
	L 24 78
	L 23 78
	L 22 78
	L 22 79
	L 23 79
	L 23 78
	L 22 78
	L 21 78
	L 21 79
	L 21 80
	L 22 80
	L 22 79
	L 21 79
	L 21 80
	L 21 81
	L 22 81
	L 23 81
	L 23 80
	L 22 80
	L 22 81
	L 23 81
	L 24 81
	L 25 81
	L 26 81
	L 26 80
	L 25 80
	L 25 81
	L 26 81
	L 27 81
	L 28 81
	L 29 81
	L 29 80
	L 28 80
	L 28 81
	L 29 81
	L 30 81
	L 31 81
	L 32 81
	L 32 80
	L 31 80
	L 31 81
	L 32 81
	L 33 81
	L 33 80
	L 33 79
	L 32 79
	L 32 80
	L 33 80
	L 33 79
	L 33 78
	L 32 78
	L 31 78
	L 31 79
	L 32 79
	L 32 78
	L 31 78
	L 30 78
	L 30 79
	L 30 80
	L 31 80
	L 31 79
	L 30 79
	L 30 80
	L 30 81
	L 31 81
	L 32 81
	L 32 80
	L 31 80
	L 31 81
	L 32 81
	L 33 81
	L 34 81
	L 35 81
	L 35 80
	L 34 80
	L 34 81
	L 35 81
	L 36 81
	L 37 81
	L 38 81
	L 38 80
	L 37 80
	L 37 81
	L 38 81
	L 39 81
	L 40 81
	L 41 81
	L 41 80
	L 40 80
	L 40 81
	L 41 81
	L 42 81
	L 42 80
	L 42 79
	L 41 79
	L 41 80
	L 42 80
	L 42 79
	L 42 78
	L 41 78
	L 40 78
	L 40 79
	L 41 79
	L 41 78
	L 40 78
	L 39 78
	L 39 79
	L 39 80
	L 40 80
	L 40 79
	L 39 79
	L 39 80
	L 39 81
	L 40 81
	L 41 81
	L 41 80
	L 40 80
	L 40 81
	L 41 81
	L 42 81
	L 43 81
	L 44 81
	L 44 80
	L 43 80
	L 43 81
	L 44 81
	L 45 81
	L 45 80
	L 45 79
	L 44 79
	L 44 80
	L 45 80
	L 45 79
	L 45 78
	L 45 77
	L 45 76
	L 44 76
	L 44 77
	L 45 77
	L 45 76
	L 45 75
	L 44 75
	L 43 75
	L 43 76
	L 44 76
	L 44 75
	L 43 75
	L 42 75
	L 42 76
	L 42 77
	L 43 77
	L 43 76
	L 42 76
	L 42 77
	L 42 78
	L 43 78
	L 44 78
	L 44 77
	L 43 77
	L 43 78
	L 44 78
	L 45 78
	L 45 77
	L 45 76
	L 44 76
	L 44 77
	L 45 77
	L 45 76
	L 45 75
	L 45 74
	L 45 73
	L 44 73
	L 44 74
	L 45 74
	L 45 73
	L 45 72
	L 44 72
	L 43 72
	L 43 73
	L 44 73
	L 44 72
	L 43 72
	L 42 72
	L 41 72
	L 40 72
	L 40 73
	L 41 73
	L 41 72
	L 40 72
	L 39 72
	L 39 73
	L 39 74
	L 40 74
	L 40 73
	L 39 73
	L 39 74
	L 39 75
	L 40 75
	L 41 75
	L 41 74
	L 40 74
	L 40 75
	L 41 75
	L 42 75
	L 42 74
	L 42 73
	L 41 73
	L 41 74
	L 42 74
	L 42 73
	L 42 72
	L 41 72
	L 40 72
	L 40 73
	L 41 73
	L 41 72
	L 40 72
	L 39 72
	L 38 72
	L 37 72
	L 37 73
	L 38 73
	L 38 72
	L 37 72
	L 36 72
	L 36 73
	L 36 74
	L 37 74
	L 37 73
	L 36 73
	L 36 74
	L 36 75
	L 36 76
	L 36 77
	L 37 77
	L 37 76
	L 36 76
	L 36 77
	L 36 78
	L 37 78
	L 38 78
	L 38 77
	L 37 77
	L 37 78
	L 38 78
	L 39 78
	L 39 77
	L 39 76
	L 38 76
	L 38 77
	L 39 77
	L 39 76
	L 39 75
	L 38 75
	L 37 75
	L 37 76
	L 38 76
	L 38 75
	L 37 75
	L 36 75
	L 36 76
	L 36 77
	L 37 77
	L 37 76
	L 36 76
	L 36 77
	L 36 78
	L 36 79
	L 36 80
	L 37 80
	L 37 79
	L 36 79
	L 36 80
	L 36 81
	L 37 81
	L 38 81
	L 38 80
	L 37 80
	L 37 81
	L 38 81
	L 39 81
	L 40 81
	L 41 81
	L 41 80
	L 40 80
	L 40 81
	L 41 81
	L 42 81
	L 42 80
	L 42 79
	L 41 79
	L 41 80
	L 42 80
	L 42 79
	L 42 78
	L 41 78
	L 40 78
	L 40 79
	L 41 79
	L 41 78
	L 40 78
	L 39 78
	L 39 79
	L 39 80
	L 40 80
	L 40 79
	L 39 79
	L 39 80
	L 39 81
	L 40 81
	L 41 81
	L 41 80
	L 40 80
	L 40 81
	L 41 81
	L 42 81
	L 43 81
	L 44 81
	L 44 80
	L 43 80
	L 43 81
	L 44 81
	L 45 81
	L 46 81
	L 47 81
	L 47 80
	L 46 80
	L 46 81
	L 47 81
	L 48 81
	L 49 81
	L 50 81
	L 50 80
	L 49 80
	L 49 81
	L 50 81
	L 51 81
	L 51 80
	L 51 79
	L 50 79
	L 50 80
	L 51 80
	L 51 79
	L 51 78
	L 50 78
	L 49 78
	L 49 79
	L 50 79
	L 50 78
	L 49 78
	L 48 78
	L 48 79
	L 48 80
	L 49 80
	L 49 79
	L 48 79
	L 48 80
	L 48 81
	L 49 81
	L 50 81
	L 50 80
	L 49 80
	L 49 81
	L 50 81
	L 51 81
	L 52 81
	L 53 81
	L 53 80
	L 52 80
	L 52 81
	L 53 81
	L 54 81
	L 54 80
	L 54 79
	L 53 79
	L 53 80
	L 54 80
	L 54 79
	L 54 78
	L 54 77
	L 54 76
	L 53 76
	L 53 77
	L 54 77
	L 54 76
	L 54 75
	L 53 75
	L 52 75
	L 52 76
	L 53 76
	L 53 75
	L 52 75
	L 51 75
	L 51 76
	L 51 77
	L 52 77
	L 52 76
	L 51 76
	L 51 77
	L 51 78
	L 52 78
	L 53 78
	L 53 77
	L 52 77
	L 52 78
	L 53 78
	L 54 78
	L 54 77
	L 54 76
	L 53 76
	L 53 77
	L 54 77
	L 54 76
	L 54 75
	L 54 74
	L 54 73
	L 53 73
	L 53 74
	L 54 74
	L 54 73
	L 54 72
	L 54 71
	L 54 70
	L 53 70
	L 53 71
	L 54 71
	L 54 70
	L 54 69
	L 54 68
	L 54 67
	L 53 67
	L 53 68
	L 54 68
	L 54 67
	L 54 66
	L 53 66
	L 52 66
	L 52 67
	L 53 67
	L 53 66
	L 52 66
	L 51 66
	L 51 67
	L 51 68
	L 52 68
	L 52 67
	L 51 67
	L 51 68
	L 51 69
	L 52 69
	L 53 69
	L 53 68
	L 52 68
	L 52 69
	L 53 69
	L 54 69
	L 54 68
	L 54 67
	L 53 67
	L 53 68
	L 54 68
	L 54 67
	L 54 66
	L 54 65
	L 54 64
	L 53 64
	L 53 65
	L 54 65
	L 54 64
	L 54 63
	L 53 63
	L 52 63
	L 52 64
	L 53 64
	L 53 63
	L 52 63
	L 51 63
	L 50 63
	L 49 63
	L 49 64
	L 50 64
	L 50 63
	L 49 63
	L 48 63
	L 48 64
	L 48 65
	L 49 65
	L 49 64
	L 48 64
	L 48 65
	L 48 66
	L 49 66
	L 50 66
	L 50 65
	L 49 65
	L 49 66
	L 50 66
	L 51 66
	L 51 65
	L 51 64
	L 50 64
	L 50 65
	L 51 65
	L 51 64
	L 51 63
	L 50 63
	L 49 63
	L 49 64
	L 50 64
	L 50 63
	L 49 63
	L 48 63
	L 47 63
	L 46 63
	L 46 64
	L 47 64
	L 47 63
	L 46 63
	L 45 63
	L 45 64
	L 45 65
	L 46 65
	L 46 64
	L 45 64
	L 45 65
	L 45 66
	L 45 67
	L 45 68
	L 46 68
	L 46 67
	L 45 67
	L 45 68
	L 45 69
	L 46 69
	L 47 69
	L 47 68
	L 46 68
	L 46 69
	L 47 69
	L 48 69
	L 48 68
	L 48 67
	L 47 67
	L 47 68
	L 48 68
	L 48 67
	L 48 66
	L 47 66
	L 46 66
	L 46 67
	L 47 67
	L 47 66
	L 46 66
	L 45 66
	L 45 67
	L 45 68
	L 46 68
	L 46 67
	L 45 67
	L 45 68
	L 45 69
	L 45 70
	L 45 71
	L 46 71
	L 46 70
	L 45 70
	L 45 71
	L 45 72
	L 46 72
	L 47 72
	L 47 71
	L 46 71
	L 46 72
	L 47 72
	L 48 72
	L 49 72
	L 50 72
	L 50 71
	L 49 71
	L 49 72
	L 50 72
	L 51 72
	L 51 71
	L 51 70
	L 50 70
	L 50 71
	L 51 71
	L 51 70
	L 51 69
	L 50 69
	L 49 69
	L 49 70
	L 50 70
	L 50 69
	L 49 69
	L 48 69
	L 48 70
	L 48 71
	L 49 71
	L 49 70
	L 48 70
	L 48 71
	L 48 72
	L 49 72
	L 50 72
	L 50 71
	L 49 71
	L 49 72
	L 50 72
	L 51 72
	L 52 72
	L 53 72
	L 53 71
	L 52 71
	L 52 72
	L 53 72
	L 54 72
	L 54 71
	L 54 70
	L 53 70
	L 53 71
	L 54 71
	L 54 70
	L 54 69
	L 54 68
	L 54 67
	L 53 67
	L 53 68
	L 54 68
	L 54 67
	L 54 66
	L 53 66
	L 52 66
	L 52 67
	L 53 67
	L 53 66
	L 52 66
	L 51 66
	L 51 67
	L 51 68
	L 52 68
	L 52 67
	L 51 67
	L 51 68
	L 51 69
	L 52 69
	L 53 69
	L 53 68
	L 52 68
	L 52 69
	L 53 69
	L 54 69
	L 54 68
	L 54 67
	L 53 67
	L 53 68
	L 54 68
	L 54 67
	L 54 66
	L 54 65
	L 54 64
	L 53 64
	L 53 65
	L 54 65
	L 54 64
	L 54 63
	L 54 62
	L 54 61
	L 53 61
	L 53 62
	L 54 62
	L 54 61
	L 54 60
	L 54 59
	L 54 58
	L 53 58
	L 53 59
	L 54 59
	L 54 58
	L 54 57
	L 53 57
	L 52 57
	L 52 58
	L 53 58
	L 53 57
	L 52 57
	L 51 57
	L 51 58
	L 51 59
	L 52 59
	L 52 58
	L 51 58
	L 51 59
	L 51 60
	L 52 60
	L 53 60
	L 53 59
	L 52 59
	L 52 60
	L 53 60
	L 54 60
	L 54 59
	L 54 58
	L 53 58
	L 53 59
	L 54 59
	L 54 58
	L 54 57
	L 54 56
	L 54 55
	L 53 55
	L 53 56
	L 54 56
	L 54 55
	L 54 54
	L 53 54
	L 52 54
	L 52 55
	L 53 55
	L 53 54
	L 52 54
	L 51 54
	L 50 54
	L 49 54
	L 49 55
	L 50 55
	L 50 54
	L 49 54
	L 48 54
	L 48 55
	L 48 56
	L 49 56
	L 49 55
	L 48 55
	L 48 56
	L 48 57
	L 49 57
	L 50 57
	L 50 56
	L 49 56
	L 49 57
	L 50 57
	L 51 57
	L 51 56
	L 51 55
	L 50 55
	L 50 56
	L 51 56
	L 51 55
	L 51 54
	L 50 54
	L 49 54
	L 49 55
	L 50 55
	L 50 54
	L 49 54
	L 48 54
	L 47 54
	L 46 54
	L 46 55
	L 47 55
	L 47 54
	L 46 54
	L 45 54
	L 44 54
	L 43 54
	L 43 55
	L 44 55
	L 44 54
	L 43 54
	L 42 54
	L 41 54
	L 40 54
	L 40 55
	L 41 55
	L 41 54
	L 40 54
	L 39 54
	L 39 55
	L 39 56
	L 40 56
	L 40 55
	L 39 55
	L 39 56
	L 39 57
	L 40 57
	L 41 57
	L 41 56
	L 40 56
	L 40 57
	L 41 57
	L 42 57
	L 42 56
	L 42 55
	L 41 55
	L 41 56
	L 42 56
	L 42 55
	L 42 54
	L 41 54
	L 40 54
	L 40 55
	L 41 55
	L 41 54
	L 40 54
	L 39 54
	L 38 54
	L 37 54
	L 37 55
	L 38 55
	L 38 54
	L 37 54
	L 36 54
	L 36 55
	L 36 56
	L 37 56
	L 37 55
	L 36 55
	L 36 56
	L 36 57
	L 36 58
	L 36 59
	L 37 59
	L 37 58
	L 36 58
	L 36 59
	L 36 60
	L 37 60
	L 38 60
	L 38 59
	L 37 59
	L 37 60
	L 38 60
	L 39 60
	L 39 59
	L 39 58
	L 38 58
	L 38 59
	L 39 59
	L 39 58
	L 39 57
	L 38 57
	L 37 57
	L 37 58
	L 38 58
	L 38 57
	L 37 57
	L 36 57
	L 36 58
	L 36 59
	L 37 59
	L 37 58
	L 36 58
	L 36 59
	L 36 60
	L 36 61
	L 36 62
	L 37 62
	L 37 61
	L 36 61
	L 36 62
	L 36 63
	L 37 63
	L 38 63
	L 38 62
	L 37 62
	L 37 63
	L 38 63
	L 39 63
	L 40 63
	L 41 63
	L 41 62
	L 40 62
	L 40 63
	L 41 63
	L 42 63
	L 42 62
	L 42 61
	L 41 61
	L 41 62
	L 42 62
	L 42 61
	L 42 60
	L 41 60
	L 40 60
	L 40 61
	L 41 61
	L 41 60
	L 40 60
	L 39 60
	L 39 61
	L 39 62
	L 40 62
	L 40 61
	L 39 61
	L 39 62
	L 39 63
	L 40 63
	L 41 63
	L 41 62
	L 40 62
	L 40 63
	L 41 63
	L 42 63
	L 43 63
	L 44 63
	L 44 62
	L 43 62
	L 43 63
	L 44 63
	L 45 63
	L 45 62
	L 45 61
	L 44 61
	L 44 62
	L 45 62
	L 45 61
	L 45 60
	L 45 59
	L 45 58
	L 44 58
	L 44 59
	L 45 59
	L 45 58
	L 45 57
	L 44 57
	L 43 57
	L 43 58
	L 44 58
	L 44 57
	L 43 57
	L 42 57
	L 42 58
	L 42 59
	L 43 59
	L 43 58
	L 42 58
	L 42 59
	L 42 60
	L 43 60
	L 44 60
	L 44 59
	L 43 59
	L 43 60
	L 44 60
	L 45 60
	L 45 59
	L 45 58
	L 44 58
	L 44 59
	L 45 59
	L 45 58
	L 45 57
	L 45 56
	L 45 55
	L 44 55
	L 44 56
	L 45 56
	L 45 55
	L 45 54
	L 44 54
	L 43 54
	L 43 55
	L 44 55
	L 44 54
	L 43 54
	L 42 54
	L 41 54
	L 40 54
	L 40 55
	L 41 55
	L 41 54
	L 40 54
	L 39 54
	L 39 55
	L 39 56
	L 40 56
	L 40 55
	L 39 55
	L 39 56
	L 39 57
	L 40 57
	L 41 57
	L 41 56
	L 40 56
	L 40 57
	L 41 57
	L 42 57
	L 42 56
	L 42 55
	L 41 55
	L 41 56
	L 42 56
	L 42 55
	L 42 54
	L 41 54
	L 40 54
	L 40 55
	L 41 55
	L 41 54
	L 40 54
	L 39 54
	L 38 54
	L 37 54
	L 37 55
	L 38 55
	L 38 54
	L 37 54
	L 36 54
	L 35 54
	L 34 54
	L 34 55
	L 35 55
	L 35 54
	L 34 54
	L 33 54
	L 32 54
	L 31 54
	L 31 55
	L 32 55
	L 32 54
	L 31 54
	L 30 54
	L 30 55
	L 30 56
	L 31 56
	L 31 55
	L 30 55
	L 30 56
	L 30 57
	L 31 57
	L 32 57
	L 32 56
	L 31 56
	L 31 57
	L 32 57
	L 33 57
	L 33 56
	L 33 55
	L 32 55
	L 32 56
	L 33 56
	L 33 55
	L 33 54
	L 32 54
	L 31 54
	L 31 55
	L 32 55
	L 32 54
	L 31 54
	L 30 54
	L 29 54
	L 28 54
	L 28 55
	L 29 55
	L 29 54
	L 28 54
	L 27 54
	L 27 55
	L 27 56
	L 28 56
	L 28 55
	L 27 55
	L 27 56
	L 27 57
	L 27 58
	L 27 59
	L 28 59
	L 28 58
	L 27 58
	L 27 59
	L 27 60
	L 28 60
	L 29 60
	L 29 59
	L 28 59
	L 28 60
	L 29 60
	L 30 60
	L 30 59
	L 30 58
	L 29 58
	L 29 59
	L 30 59
	L 30 58
	L 30 57
	L 29 57
	L 28 57
	L 28 58
	L 29 58
	L 29 57
	L 28 57
	L 27 57
	L 27 58
	L 27 59
	L 28 59
	L 28 58
	L 27 58
	L 27 59
	L 27 60
	L 27 61
	L 27 62
	L 28 62
	L 28 61
	L 27 61
	L 27 62
	L 27 63
	L 27 64
	L 27 65
	L 28 65
	L 28 64
	L 27 64
	L 27 65
	L 27 66
	L 27 67
	L 27 68
	L 28 68
	L 28 67
	L 27 67
	L 27 68
	L 27 69
	L 28 69
	L 29 69
	L 29 68
	L 28 68
	L 28 69
	L 29 69
	L 30 69
	L 30 68
	L 30 67
	L 29 67
	L 29 68
	L 30 68
	L 30 67
	L 30 66
	L 29 66
	L 28 66
	L 28 67
	L 29 67
	L 29 66
	L 28 66
	L 27 66
	L 27 67
	L 27 68
	L 28 68
	L 28 67
	L 27 67
	L 27 68
	L 27 69
	L 27 70
	L 27 71
	L 28 71
	L 28 70
	L 27 70
	L 27 71
	L 27 72
	L 28 72
	L 29 72
	L 29 71
	L 28 71
	L 28 72
	L 29 72
	L 30 72
	L 31 72
	L 32 72
	L 32 71
	L 31 71
	L 31 72
	L 32 72
	L 33 72
	L 33 71
	L 33 70
	L 32 70
	L 32 71
	L 33 71
	L 33 70
	L 33 69
	L 32 69
	L 31 69
	L 31 70
	L 32 70
	L 32 69
	L 31 69
	L 30 69
	L 30 70
	L 30 71
	L 31 71
	L 31 70
	L 30 70
	L 30 71
	L 30 72
	L 31 72
	L 32 72
	L 32 71
	L 31 71
	L 31 72
	L 32 72
	L 33 72
	L 34 72
	L 35 72
	L 35 71
	L 34 71
	L 34 72
	L 35 72
	L 36 72
	L 36 71
	L 36 70
	L 35 70
	L 35 71
	L 36 71
	L 36 70
	L 36 69
	L 36 68
	L 36 67
	L 35 67
	L 35 68
	L 36 68
	L 36 67
	L 36 66
	L 35 66
	L 34 66
	L 34 67
	L 35 67
	L 35 66
	L 34 66
	L 33 66
	L 33 67
	L 33 68
	L 34 68
	L 34 67
	L 33 67
	L 33 68
	L 33 69
	L 34 69
	L 35 69
	L 35 68
	L 34 68
	L 34 69
	L 35 69
	L 36 69
	L 36 68
	L 36 67
	L 35 67
	L 35 68
	L 36 68
	L 36 67
	L 36 66
	L 36 65
	L 36 64
	L 35 64
	L 35 65
	L 36 65
	L 36 64
	L 36 63
	L 35 63
	L 34 63
	L 34 64
	L 35 64
	L 35 63
	L 34 63
	L 33 63
	L 32 63
	L 31 63
	L 31 64
	L 32 64
	L 32 63
	L 31 63
	L 30 63
	L 30 64
	L 30 65
	L 31 65
	L 31 64
	L 30 64
	L 30 65
	L 30 66
	L 31 66
	L 32 66
	L 32 65
	L 31 65
	L 31 66
	L 32 66
	L 33 66
	L 33 65
	L 33 64
	L 32 64
	L 32 65
	L 33 65
	L 33 64
	L 33 63
	L 32 63
	L 31 63
	L 31 64
	L 32 64
	L 32 63
	L 31 63
	L 30 63
	L 29 63
	L 28 63
	L 28 64
	L 29 64
	L 29 63
	L 28 63
	L 27 63
	L 27 64
	L 27 65
	L 28 65
	L 28 64
	L 27 64
	L 27 65
	L 27 66
	L 27 67
	L 27 68
	L 28 68
	L 28 67
	L 27 67
	L 27 68
	L 27 69
	L 28 69
	L 29 69
	L 29 68
	L 28 68
	L 28 69
	L 29 69
	L 30 69
	L 30 68
	L 30 67
	L 29 67
	L 29 68
	L 30 68
	L 30 67
	L 30 66
	L 29 66
	L 28 66
	L 28 67
	L 29 67
	L 29 66
	L 28 66
	L 27 66
	L 27 67
	L 27 68
	L 28 68
	L 28 67
	L 27 67
	L 27 68
	L 27 69
	L 27 70
	L 27 71
	L 28 71
	L 28 70
	L 27 70
	L 27 71
	L 27 72
	L 27 73
	L 27 74
	L 28 74
	L 28 73
	L 27 73
	L 27 74
	L 27 75
	L 27 76
	L 27 77
	L 28 77
	L 28 76
	L 27 76
	L 27 77
	L 27 78
	L 28 78
	L 29 78
	L 29 77
	L 28 77
	L 28 78
	L 29 78
	L 30 78
	L 30 77
	L 30 76
	L 29 76
	L 29 77
	L 30 77
	L 30 76
	L 30 75
	L 29 75
	L 28 75
	L 28 76
	L 29 76
	L 29 75
	L 28 75
	L 27 75
	L 27 76
	L 27 77
	L 28 77
	L 28 76
	L 27 76
	L 27 77
	L 27 78
	L 27 79
	L 27 80
	L 28 80
	L 28 79
	L 27 79
	L 27 80
	L 27 81
	L 28 81
	L 29 81
	L 29 80
	L 28 80
	L 28 81
	L 29 81
	L 30 81
	L 31 81
	L 32 81
	L 32 80
	L 31 80
	L 31 81
	L 32 81
	L 33 81
	L 33 80
	L 33 79
	L 32 79
	L 32 80
	L 33 80
	L 33 79
	L 33 78
	L 32 78
	L 31 78
	L 31 79
	L 32 79
	L 32 78
	L 31 78
	L 30 78
	L 30 79
	L 30 80
	L 31 80
	L 31 79
	L 30 79
	L 30 80
	L 30 81
	L 31 81
	L 32 81
	L 32 80
	L 31 80
	L 31 81
	L 32 81
	L 33 81
	L 34 81
	L 35 81
	L 35 80
	L 34 80
	L 34 81
	L 35 81
	L 36 81
	L 37 81
	L 38 81
	L 38 80
	L 37 80
	L 37 81
	L 38 81
	L 39 81
	L 40 81
	L 41 81
	L 41 80
	L 40 80
	L 40 81
	L 41 81
	L 42 81
	L 42 80
	L 42 79
	L 41 79
	L 41 80
	L 42 80
	L 42 79
	L 42 78
	L 41 78
	L 40 78
	L 40 79
	L 41 79
	L 41 78
	L 40 78
	L 39 78
	L 39 79
	L 39 80
	L 40 80
	L 40 79
	L 39 79
	L 39 80
	L 39 81
	L 40 81
	L 41 81
	L 41 80
	L 40 80
	L 40 81
	L 41 81
	L 42 81
	L 43 81
	L 44 81
	L 44 80
	L 43 80
	L 43 81
	L 44 81
	L 45 81
	L 45 80
	L 45 79
	L 44 79
	L 44 80
	L 45 80
	L 45 79
	L 45 78
	L 45 77
	L 45 76
	L 44 76
	L 44 77
	L 45 77
	L 45 76
	L 45 75
	L 44 75
	L 43 75
	L 43 76
	L 44 76
	L 44 75
	L 43 75
	L 42 75
	L 42 76
	L 42 77
	L 43 77
	L 43 76
	L 42 76
	L 42 77
	L 42 78
	L 43 78
	L 44 78
	L 44 77
	L 43 77
	L 43 78
	L 44 78
	L 45 78
	L 45 77
	L 45 76
	L 44 76
	L 44 77
	L 45 77
	L 45 76
	L 45 75
	L 45 74
	L 45 73
	L 44 73
	L 44 74
	L 45 74
	L 45 73
	L 45 72
	L 44 72
	L 43 72
	L 43 73
	L 44 73
	L 44 72
	L 43 72
	L 42 72
	L 41 72
	L 40 72
	L 40 73
	L 41 73
	L 41 72
	L 40 72
	L 39 72
	L 39 73
	L 39 74
	L 40 74
	L 40 73
	L 39 73
	L 39 74
	L 39 75
	L 40 75
	L 41 75
	L 41 74
	L 40 74
	L 40 75
	L 41 75
	L 42 75
	L 42 74
	L 42 73
	L 41 73
	L 41 74
	L 42 74
	L 42 73
	L 42 72
	L 41 72
	L 40 72
	L 40 73
	L 41 73
	L 41 72
	L 40 72
	L 39 72
	L 38 72
	L 37 72
	L 37 73
	L 38 73
	L 38 72
	L 37 72
	L 36 72
	L 36 73
	L 36 74
	L 37 74
	L 37 73
	L 36 73
	L 36 74
	L 36 75
	L 36 76
	L 36 77
	L 37 77
	L 37 76
	L 36 76
	L 36 77
	L 36 78
	L 37 78
	L 38 78
	L 38 77
	L 37 77
	L 37 78
	L 38 78
	L 39 78
	L 39 77
	L 39 76
	L 38 76
	L 38 77
	L 39 77
	L 39 76
	L 39 75
	L 38 75
	L 37 75
	L 37 76
	L 38 76
	L 38 75
	L 37 75
	L 36 75
	L 36 76
	L 36 77
	L 37 77
	L 37 76
	L 36 76
	L 36 77
	L 36 78
	L 36 79
	L 36 80
	L 37 80
	L 37 79
	L 36 79
	L 36 80
	L 36 81
	L 37 81
	L 38 81
	L 38 80
	L 37 80
	L 37 81
	L 38 81
	L 39 81
	L 40 81
	L 41 81
	L 41 80
	L 40 80
	L 40 81
	L 41 81
	L 42 81
	L 42 80
	L 42 79
	L 41 79
	L 41 80
	L 42 80
	L 42 79
	L 42 78
	L 41 78
	L 40 78
	L 40 79
	L 41 79
	L 41 78
	L 40 78
	L 39 78
	L 39 79
	L 39 80
	L 40 80
	L 40 79
	L 39 79
	L 39 80
	L 39 81
	L 40 81
	L 41 81
	L 41 80
	L 40 80
	L 40 81
	L 41 81
	L 42 81
	L 43 81
	L 44 81
	L 44 80
	L 43 80
	L 43 81
	L 44 81
	L 45 81
	L 46 81
	L 47 81
	L 47 80
	L 46 80
	L 46 81
	L 47 81
	L 48 81
	L 49 81
	L 50 81
	L 50 80
	L 49 80
	L 49 81
	L 50 81
	L 51 81
	L 51 80
	L 51 79
	L 50 79
	L 50 80
	L 51 80
	L 51 79
	L 51 78
	L 50 78
	L 49 78
	L 49 79
	L 50 79
	L 50 78
	L 49 78
	L 48 78
	L 48 79
	L 48 80
	L 49 80
	L 49 79
	L 48 79
	L 48 80
	L 48 81
	L 49 81
	L 50 81
	L 50 80
	L 49 80
	L 49 81
	L 50 81
	L 51 81
	L 52 81
	L 53 81
	L 53 80
	L 52 80
	L 52 81
	L 53 81
	L 54 81
	L 55 81
	L 56 81
	L 56 80
	L 55 80
	L 55 81
	L 56 81
	L 57 81
	L 58 81
	L 59 81
	L 59 80
	L 58 80
	L 58 81
	L 59 81
	L 60 81
	L 60 80
	L 60 79
	L 59 79
	L 59 80
	L 60 80
	L 60 79
	L 60 78
	L 59 78
	L 58 78
	L 58 79
	L 59 79
	L 59 78
	L 58 78
	L 57 78
	L 57 79
	L 57 80
	L 58 80
	L 58 79
	L 57 79
	L 57 80
	L 57 81
	L 58 81
	L 59 81
	L 59 80
	L 58 80
	L 58 81
	L 59 81
	L 60 81
	L 61 81
	L 62 81
	L 62 80
	L 61 80
	L 61 81
	L 62 81
	L 63 81
	L 64 81
	L 65 81
	L 65 80
	L 64 80
	L 64 81
	L 65 81
	L 66 81
	L 67 81
	L 68 81
	L 68 80
	L 67 80
	L 67 81
	L 68 81
	L 69 81
	L 69 80
	L 69 79
	L 68 79
	L 68 80
	L 69 80
	L 69 79
	L 69 78
	L 68 78
	L 67 78
	L 67 79
	L 68 79
	L 68 78
	L 67 78
	L 66 78
	L 66 79
	L 66 80
	L 67 80
	L 67 79
	L 66 79
	L 66 80
	L 66 81
	L 67 81
	L 68 81
	L 68 80
	L 67 80
	L 67 81
	L 68 81
	L 69 81
	L 70 81
	L 71 81
	L 71 80
	L 70 80
	L 70 81
	L 71 81
	L 72 81
	L 72 80
	L 72 79
	L 71 79
	L 71 80
	L 72 80
	L 72 79
	L 72 78
	L 72 77
	L 72 76
	L 71 76
	L 71 77
	L 72 77
	L 72 76
	L 72 75
	L 71 75
	L 70 75
	L 70 76
	L 71 76
	L 71 75
	L 70 75
	L 69 75
	L 69 76
	L 69 77
	L 70 77
	L 70 76
	L 69 76
	L 69 77
	L 69 78
	L 70 78
	L 71 78
	L 71 77
	L 70 77
	L 70 78
	L 71 78
	L 72 78
	L 72 77
	L 72 76
	L 71 76
	L 71 77
	L 72 77
	L 72 76
	L 72 75
	L 72 74
	L 72 73
	L 71 73
	L 71 74
	L 72 74
	L 72 73
	L 72 72
	L 71 72
	L 70 72
	L 70 73
	L 71 73
	L 71 72
	L 70 72
	L 69 72
	L 68 72
	L 67 72
	L 67 73
	L 68 73
	L 68 72
	L 67 72
	L 66 72
	L 66 73
	L 66 74
	L 67 74
	L 67 73
	L 66 73
	L 66 74
	L 66 75
	L 67 75
	L 68 75
	L 68 74
	L 67 74
	L 67 75
	L 68 75
	L 69 75
	L 69 74
	L 69 73
	L 68 73
	L 68 74
	L 69 74
	L 69 73
	L 69 72
	L 68 72
	L 67 72
	L 67 73
	L 68 73
	L 68 72
	L 67 72
	L 66 72
	L 65 72
	L 64 72
	L 64 73
	L 65 73
	L 65 72
	L 64 72
	L 63 72
	L 63 73
	L 63 74
	L 64 74
	L 64 73
	L 63 73
	L 63 74
	L 63 75
	L 63 76
	L 63 77
	L 64 77
	L 64 76
	L 63 76
	L 63 77
	L 63 78
	L 64 78
	L 65 78
	L 65 77
	L 64 77
	L 64 78
	L 65 78
	L 66 78
	L 66 77
	L 66 76
	L 65 76
	L 65 77
	L 66 77
	L 66 76
	L 66 75
	L 65 75
	L 64 75
	L 64 76
	L 65 76
	L 65 75
	L 64 75
	L 63 75
	L 63 76
	L 63 77
	L 64 77
	L 64 76
	L 63 76
	L 63 77
	L 63 78
	L 63 79
	L 63 80
	L 64 80
	L 64 79
	L 63 79
	L 63 80
	L 63 81
	L 64 81
	L 65 81
	L 65 80
	L 64 80
	L 64 81
	L 65 81
	L 66 81
	L 67 81
	L 68 81
	L 68 80
	L 67 80
	L 67 81
	L 68 81
	L 69 81
	L 69 80
	L 69 79
	L 68 79
	L 68 80
	L 69 80
	L 69 79
	L 69 78
	L 68 78
	L 67 78
	L 67 79
	L 68 79
	L 68 78
	L 67 78
	L 66 78
	L 66 79
	L 66 80
	L 67 80
	L 67 79
	L 66 79
	L 66 80
	L 66 81
	L 67 81
	L 68 81
	L 68 80
	L 67 80
	L 67 81
	L 68 81
	L 69 81
	L 70 81
	L 71 81
	L 71 80
	L 70 80
	L 70 81
	L 71 81
	L 72 81
	L 73 81
	L 74 81
	L 74 80
	L 73 80
	L 73 81
	L 74 81
	L 75 81
	L 76 81
	L 77 81
	L 77 80
	L 76 80
	L 76 81
	L 77 81
	L 78 81
	L 78 80
	L 78 79
	L 77 79
	L 77 80
	L 78 80
	L 78 79
	L 78 78
	L 77 78
	L 76 78
	L 76 79
	L 77 79
	L 77 78
	L 76 78
	L 75 78
	L 75 79
	L 75 80
	L 76 80
	L 76 79
	L 75 79
	L 75 80
	L 75 81
	L 76 81
	L 77 81
	L 77 80
	L 76 80
	L 76 81
	L 77 81
	L 78 81
	L 79 81
	L 80 81
	L 80 80
	L 79 80
	L 79 81
	L 80 81
	L 81 81
	L 81 80
	L 81 79
	L 80 79
	L 80 80
	L 81 80
	L 81 79
	L 81 78
	L 81 77
	L 81 76
	L 80 76
	L 80 77
	L 81 77
	L 81 76
	L 81 75
	L 80 75
	L 79 75
	L 79 76
	L 80 76
	L 80 75
	L 79 75
	L 78 75
	L 78 76
	L 78 77
	L 79 77
	L 79 76
	L 78 76
	L 78 77
	L 78 78
	L 79 78
	L 80 78
	L 80 77
	L 79 77
	L 79 78
	L 80 78
	L 81 78
	L 81 77
	L 81 76
	L 80 76
	L 80 77
	L 81 77
	L 81 76
	L 81 75
	L 81 74
	L 81 73
	L 80 73
	L 80 74
	L 81 74
	L 81 73
	L 81 72
	L 81 71
	L 81 70
	L 80 70
	L 80 71
	L 81 71
	L 81 70
	L 81 69
	L 81 68
	L 81 67
	L 80 67
	L 80 68
	L 81 68
	L 81 67
	L 81 66
	L 80 66
	L 79 66
	L 79 67
	L 80 67
	L 80 66
	L 79 66
	L 78 66
	L 78 67
	L 78 68
	L 79 68
	L 79 67
	L 78 67
	L 78 68
	L 78 69
	L 79 69
	L 80 69
	L 80 68
	L 79 68
	L 79 69
	L 80 69
	L 81 69
	L 81 68
	L 81 67
	L 80 67
	L 80 68
	L 81 68
	L 81 67
	L 81 66
	L 81 65
	L 81 64
	L 80 64
	L 80 65
	L 81 65
	L 81 64
	L 81 63
	L 80 63
	L 79 63
	L 79 64
	L 80 64
	L 80 63
	L 79 63
	L 78 63
	L 77 63
	L 76 63
	L 76 64
	L 77 64
	L 77 63
	L 76 63
	L 75 63
	L 75 64
	L 75 65
	L 76 65
	L 76 64
	L 75 64
	L 75 65
	L 75 66
	L 76 66
	L 77 66
	L 77 65
	L 76 65
	L 76 66
	L 77 66
	L 78 66
	L 78 65
	L 78 64
	L 77 64
	L 77 65
	L 78 65
	L 78 64
	L 78 63
	L 77 63
	L 76 63
	L 76 64
	L 77 64
	L 77 63
	L 76 63
	L 75 63
	L 74 63
	L 73 63
	L 73 64
	L 74 64
	L 74 63
	L 73 63
	L 72 63
	L 72 64
	L 72 65
	L 73 65
	L 73 64
	L 72 64
	L 72 65
	L 72 66
	L 72 67
	L 72 68
	L 73 68
	L 73 67
	L 72 67
	L 72 68
	L 72 69
	L 73 69
	L 74 69
	L 74 68
	L 73 68
	L 73 69
	L 74 69
	L 75 69
	L 75 68
	L 75 67
	L 74 67
	L 74 68
	L 75 68
	L 75 67
	L 75 66
	L 74 66
	L 73 66
	L 73 67
	L 74 67
	L 74 66
	L 73 66
	L 72 66
	L 72 67
	L 72 68
	L 73 68
	L 73 67
	L 72 67
	L 72 68
	L 72 69
	L 72 70
	L 72 71
	L 73 71
	L 73 70
	L 72 70
	L 72 71
	L 72 72
	L 73 72
	L 74 72
	L 74 71
	L 73 71
	L 73 72
	L 74 72
	L 75 72
	L 76 72
	L 77 72
	L 77 71
	L 76 71
	L 76 72
	L 77 72
	L 78 72
	L 78 71
	L 78 70
	L 77 70
	L 77 71
	L 78 71
	L 78 70
	L 78 69
	L 77 69
	L 76 69
	L 76 70
	L 77 70
	L 77 69
	L 76 69
	L 75 69
	L 75 70
	L 75 71
	L 76 71
	L 76 70
	L 75 70
	L 75 71
	L 75 72
	L 76 72
	L 77 72
	L 77 71
	L 76 71
	L 76 72
	L 77 72
	L 78 72
	L 79 72
	L 80 72
	L 80 71
	L 79 71
	L 79 72
	L 80 72
	L 81 72
	L 81 71
	L 81 70
	L 80 70
	L 80 71
	L 81 71
	L 81 70
	L 81 69
	L 81 68
	L 81 67
	L 80 67
	L 80 68
	L 81 68
	L 81 67
	L 81 66
	L 80 66
	L 79 66
	L 79 67
	L 80 67
	L 80 66
	L 79 66
	L 78 66
	L 78 67
	L 78 68
	L 79 68
	L 79 67
	L 78 67
	L 78 68
	L 78 69
	L 79 69
	L 80 69
	L 80 68
	L 79 68
	L 79 69
	L 80 69
	L 81 69
	L 81 68
	L 81 67
	L 80 67
	L 80 68
	L 81 68
	L 81 67
	L 81 66
	L 81 65
	L 81 64
	L 80 64
	L 80 65
	L 81 65
	L 81 64
	L 81 63
	L 81 62
	L 81 61
	L 80 61
	L 80 62
	L 81 62
	L 81 61
	L 81 60
	L 81 59
	L 81 58
	L 80 58
	L 80 59
	L 81 59
	L 81 58
	L 81 57
	L 80 57
	L 79 57
	L 79 58
	L 80 58
	L 80 57
	L 79 57
	L 78 57
	L 78 58
	L 78 59
	L 79 59
	L 79 58
	L 78 58
	L 78 59
	L 78 60
	L 79 60
	L 80 60
	L 80 59
	L 79 59
	L 79 60
	L 80 60
	L 81 60
	L 81 59
	L 81 58
	L 80 58
	L 80 59
	L 81 59
	L 81 58
	L 81 57
	L 81 56
	L 81 55
	L 80 55
	L 80 56
	L 81 56
	L 81 55
	L 81 54
	L 81 53
	L 81 52
	L 80 52
	L 80 53
	L 81 53
	L 81 52
	L 81 51
	L 81 50
	L 81 49
	L 80 49
	L 80 50
	L 81 50
	L 81 49
	L 81 48
	L 80 48
	L 79 48
	L 79 49
	L 80 49
	L 80 48
	L 79 48
	L 78 48
	L 78 49
	L 78 50
	L 79 50
	L 79 49
	L 78 49
	L 78 50
	L 78 51
	L 79 51
	L 80 51
	L 80 50
	L 79 50
	L 79 51
	L 80 51
	L 81 51
	L 81 50
	L 81 49
	L 80 49
	L 80 50
	L 81 50
	L 81 49
	L 81 48
	L 81 47
	L 81 46
	L 80 46
	L 80 47
	L 81 47
	L 81 46
	L 81 45
	L 81 44
	L 81 43
	L 80 43
	L 80 44
	L 81 44
	L 81 43
	L 81 42
	L 81 41
	L 81 40
	L 80 40
	L 80 41
	L 81 41
	L 81 40
	L 81 39
	L 80 39
	L 79 39
	L 79 40
	L 80 40
	L 80 39
	L 79 39
	L 78 39
	L 78 40
	L 78 41
	L 79 41
	L 79 40
	L 78 40
	L 78 41
	L 78 42
	L 79 42
	L 80 42
	L 80 41
	L 79 41
	L 79 42
	L 80 42
	L 81 42
	L 81 41
	L 81 40
	L 80 40
	L 80 41
	L 81 41
	L 81 40
	L 81 39
	L 81 38
	L 81 37
	L 80 37
	L 80 38
	L 81 38
	L 81 37
	L 81 36
	L 80 36
	L 79 36
	L 79 37
	L 80 37
	L 80 36
	L 79 36
	L 78 36
	L 77 36
	L 76 36
	L 76 37
	L 77 37
	L 77 36
	L 76 36
	L 75 36
	L 75 37
	L 75 38
	L 76 38
	L 76 37
	L 75 37
	L 75 38
	L 75 39
	L 76 39
	L 77 39
	L 77 38
	L 76 38
	L 76 39
	L 77 39
	L 78 39
	L 78 38
	L 78 37
	L 77 37
	L 77 38
	L 78 38
	L 78 37
	L 78 36
	L 77 36
	L 76 36
	L 76 37
	L 77 37
	L 77 36
	L 76 36
	L 75 36
	L 74 36
	L 73 36
	L 73 37
	L 74 37
	L 74 36
	L 73 36
	L 72 36
	L 72 37
	L 72 38
	L 73 38
	L 73 37
	L 72 37
	L 72 38
	L 72 39
	L 72 40
	L 72 41
	L 73 41
	L 73 40
	L 72 40
	L 72 41
	L 72 42
	L 73 42
	L 74 42
	L 74 41
	L 73 41
	L 73 42
	L 74 42
	L 75 42
	L 75 41
	L 75 40
	L 74 40
	L 74 41
	L 75 41
	L 75 40
	L 75 39
	L 74 39
	L 73 39
	L 73 40
	L 74 40
	L 74 39
	L 73 39
	L 72 39
	L 72 40
	L 72 41
	L 73 41
	L 73 40
	L 72 40
	L 72 41
	L 72 42
	L 72 43
	L 72 44
	L 73 44
	L 73 43
	L 72 43
	L 72 44
	L 72 45
	L 73 45
	L 74 45
	L 74 44
	L 73 44
	L 73 45
	L 74 45
	L 75 45
	L 76 45
	L 77 45
	L 77 44
	L 76 44
	L 76 45
	L 77 45
	L 78 45
	L 78 44
	L 78 43
	L 77 43
	L 77 44
	L 78 44
	L 78 43
	L 78 42
	L 77 42
	L 76 42
	L 76 43
	L 77 43
	L 77 42
	L 76 42
	L 75 42
	L 75 43
	L 75 44
	L 76 44
	L 76 43
	L 75 43
	L 75 44
	L 75 45
	L 76 45
	L 77 45
	L 77 44
	L 76 44
	L 76 45
	L 77 45
	L 78 45
	L 79 45
	L 80 45
	L 80 44
	L 79 44
	L 79 45
	L 80 45
	L 81 45
	L 81 44
	L 81 43
	L 80 43
	L 80 44
	L 81 44
	L 81 43
	L 81 42
	L 81 41
	L 81 40
	L 80 40
	L 80 41
	L 81 41
	L 81 40
	L 81 39
	L 80 39
	L 79 39
	L 79 40
	L 80 40
	L 80 39
	L 79 39
	L 78 39
	L 78 40
	L 78 41
	L 79 41
	L 79 40
	L 78 40
	L 78 41
	L 78 42
	L 79 42
	L 80 42
	L 80 41
	L 79 41
	L 79 42
	L 80 42
	L 81 42
	L 81 41
	L 81 40
	L 80 40
	L 80 41
	L 81 41
	L 81 40
	L 81 39
	L 81 38
	L 81 37
	L 80 37
	L 80 38
	L 81 38
	L 81 37
	L 81 36
	L 81 35
	L 81 34
	L 80 34
	L 80 35
	L 81 35
	L 81 34
	L 81 33
	L 81 32
	L 81 31
	L 80 31
	L 80 32
	L 81 32
	L 81 31
	L 81 30
	L 80 30
	L 79 30
	L 79 31
	L 80 31
	L 80 30
	L 79 30
	L 78 30
	L 78 31
	L 78 32
	L 79 32
	L 79 31
	L 78 31
	L 78 32
	L 78 33
	L 79 33
	L 80 33
	L 80 32
	L 79 32
	L 79 33
	L 80 33
	L 81 33
	L 81 32
	L 81 31
	L 80 31
	L 80 32
	L 81 32
	L 81 31
	L 81 30
	L 81 29
	L 81 28
	L 80 28
	L 80 29
	L 81 29
	L 81 28
	L 81 27
	L 80 27
	L 79 27
	L 79 28
	L 80 28
	L 80 27
	L 79 27
	L 78 27
	L 77 27
	L 76 27
	L 76 28
	L 77 28
	L 77 27
	L 76 27
	L 75 27
	L 75 28
	L 75 29
	L 76 29
	L 76 28
	L 75 28
	L 75 29
	L 75 30
	L 76 30
	L 77 30
	L 77 29
	L 76 29
	L 76 30
	L 77 30
	L 78 30
	L 78 29
	L 78 28
	L 77 28
	L 77 29
	L 78 29
	L 78 28
	L 78 27
	L 77 27
	L 76 27
	L 76 28
	L 77 28
	L 77 27
	L 76 27
	L 75 27
	L 74 27
	L 73 27
	L 73 28
	L 74 28
	L 74 27
	L 73 27
	L 72 27
	L 71 27
	L 70 27
	L 70 28
	L 71 28
	L 71 27
	L 70 27
	L 69 27
	L 68 27
	L 67 27
	L 67 28
	L 68 28
	L 68 27
	L 67 27
	L 66 27
	L 66 28
	L 66 29
	L 67 29
	L 67 28
	L 66 28
	L 66 29
	L 66 30
	L 67 30
	L 68 30
	L 68 29
	L 67 29
	L 67 30
	L 68 30
	L 69 30
	L 69 29
	L 69 28
	L 68 28
	L 68 29
	L 69 29
	L 69 28
	L 69 27
	L 68 27
	L 67 27
	L 67 28
	L 68 28
	L 68 27
	L 67 27
	L 66 27
	L 65 27
	L 64 27
	L 64 28
	L 65 28
	L 65 27
	L 64 27
	L 63 27
	L 63 28
	L 63 29
	L 64 29
	L 64 28
	L 63 28
	L 63 29
	L 63 30
	L 63 31
	L 63 32
	L 64 32
	L 64 31
	L 63 31
	L 63 32
	L 63 33
	L 64 33
	L 65 33
	L 65 32
	L 64 32
	L 64 33
	L 65 33
	L 66 33
	L 66 32
	L 66 31
	L 65 31
	L 65 32
	L 66 32
	L 66 31
	L 66 30
	L 65 30
	L 64 30
	L 64 31
	L 65 31
	L 65 30
	L 64 30
	L 63 30
	L 63 31
	L 63 32
	L 64 32
	L 64 31
	L 63 31
	L 63 32
	L 63 33
	L 63 34
	L 63 35
	L 64 35
	L 64 34
	L 63 34
	L 63 35
	L 63 36
	L 64 36
	L 65 36
	L 65 35
	L 64 35
	L 64 36
	L 65 36
	L 66 36
	L 67 36
	L 68 36
	L 68 35
	L 67 35
	L 67 36
	L 68 36
	L 69 36
	L 69 35
	L 69 34
	L 68 34
	L 68 35
	L 69 35
	L 69 34
	L 69 33
	L 68 33
	L 67 33
	L 67 34
	L 68 34
	L 68 33
	L 67 33
	L 66 33
	L 66 34
	L 66 35
	L 67 35
	L 67 34
	L 66 34
	L 66 35
	L 66 36
	L 67 36
	L 68 36
	L 68 35
	L 67 35
	L 67 36
	L 68 36
	L 69 36
	L 70 36
	L 71 36
	L 71 35
	L 70 35
	L 70 36
	L 71 36
	L 72 36
	L 72 35
	L 72 34
	L 71 34
	L 71 35
	L 72 35
	L 72 34
	L 72 33
	L 72 32
	L 72 31
	L 71 31
	L 71 32
	L 72 32
	L 72 31
	L 72 30
	L 71 30
	L 70 30
	L 70 31
	L 71 31
	L 71 30
	L 70 30
	L 69 30
	L 69 31
	L 69 32
	L 70 32
	L 70 31
	L 69 31
	L 69 32
	L 69 33
	L 70 33
	L 71 33
	L 71 32
	L 70 32
	L 70 33
	L 71 33
	L 72 33
	L 72 32
	L 72 31
	L 71 31
	L 71 32
	L 72 32
	L 72 31
	L 72 30
	L 72 29
	L 72 28
	L 71 28
	L 71 29
	L 72 29
	L 72 28
	L 72 27
	L 71 27
	L 70 27
	L 70 28
	L 71 28
	L 71 27
	L 70 27
	L 69 27
	L 68 27
	L 67 27
	L 67 28
	L 68 28
	L 68 27
	L 67 27
	L 66 27
	L 66 28
	L 66 29
	L 67 29
	L 67 28
	L 66 28
	L 66 29
	L 66 30
	L 67 30
	L 68 30
	L 68 29
	L 67 29
	L 67 30
	L 68 30
	L 69 30
	L 69 29
	L 69 28
	L 68 28
	L 68 29
	L 69 29
	L 69 28
	L 69 27
	L 68 27
	L 67 27
	L 67 28
	L 68 28
	L 68 27
	L 67 27
	L 66 27
	L 65 27
	L 64 27
	L 64 28
	L 65 28
	L 65 27
	L 64 27
	L 63 27
	L 62 27
	L 61 27
	L 61 28
	L 62 28
	L 62 27
	L 61 27
	L 60 27
	L 59 27
	L 58 27
	L 58 28
	L 59 28
	L 59 27
	L 58 27
	L 57 27
	L 57 28
	L 57 29
	L 58 29
	L 58 28
	L 57 28
	L 57 29
	L 57 30
	L 58 30
	L 59 30
	L 59 29
	L 58 29
	L 58 30
	L 59 30
	L 60 30
	L 60 29
	L 60 28
	L 59 28
	L 59 29
	L 60 29
	L 60 28
	L 60 27
	L 59 27
	L 58 27
	L 58 28
	L 59 28
	L 59 27
	L 58 27
	L 57 27
	L 56 27
	L 55 27
	L 55 28
	L 56 28
	L 56 27
	L 55 27
	L 54 27
	L 54 28
	L 54 29
	L 55 29
	L 55 28
	L 54 28
	L 54 29
	L 54 30
	L 54 31
	L 54 32
	L 55 32
	L 55 31
	L 54 31
	L 54 32
	L 54 33
	L 55 33
	L 56 33
	L 56 32
	L 55 32
	L 55 33
	L 56 33
	L 57 33
	L 57 32
	L 57 31
	L 56 31
	L 56 32
	L 57 32
	L 57 31
	L 57 30
	L 56 30
	L 55 30
	L 55 31
	L 56 31
	L 56 30
	L 55 30
	L 54 30
	L 54 31
	L 54 32
	L 55 32
	L 55 31
	L 54 31
	L 54 32
	L 54 33
	L 54 34
	L 54 35
	L 55 35
	L 55 34
	L 54 34
	L 54 35
	L 54 36
	L 54 37
	L 54 38
	L 55 38
	L 55 37
	L 54 37
	L 54 38
	L 54 39
	L 54 40
	L 54 41
	L 55 41
	L 55 40
	L 54 40
	L 54 41
	L 54 42
	L 55 42
	L 56 42
	L 56 41
	L 55 41
	L 55 42
	L 56 42
	L 57 42
	L 57 41
	L 57 40
	L 56 40
	L 56 41
	L 57 41
	L 57 40
	L 57 39
	L 56 39
	L 55 39
	L 55 40
	L 56 40
	L 56 39
	L 55 39
	L 54 39
	L 54 40
	L 54 41
	L 55 41
	L 55 40
	L 54 40
	L 54 41
	L 54 42
	L 54 43
	L 54 44
	L 55 44
	L 55 43
	L 54 43
	L 54 44
	L 54 45
	L 55 45
	L 56 45
	L 56 44
	L 55 44
	L 55 45
	L 56 45
	L 57 45
	L 58 45
	L 59 45
	L 59 44
	L 58 44
	L 58 45
	L 59 45
	L 60 45
	L 60 44
	L 60 43
	L 59 43
	L 59 44
	L 60 44
	L 60 43
	L 60 42
	L 59 42
	L 58 42
	L 58 43
	L 59 43
	L 59 42
	L 58 42
	L 57 42
	L 57 43
	L 57 44
	L 58 44
	L 58 43
	L 57 43
	L 57 44
	L 57 45
	L 58 45
	L 59 45
	L 59 44
	L 58 44
	L 58 45
	L 59 45
	L 60 45
	L 61 45
	L 62 45
	L 62 44
	L 61 44
	L 61 45
	L 62 45
	L 63 45
	L 63 44
	L 63 43
	L 62 43
	L 62 44
	L 63 44
	L 63 43
	L 63 42
	L 63 41
	L 63 40
	L 62 40
	L 62 41
	L 63 41
	L 63 40
	L 63 39
	L 62 39
	L 61 39
	L 61 40
	L 62 40
	L 62 39
	L 61 39
	L 60 39
	L 60 40
	L 60 41
	L 61 41
	L 61 40
	L 60 40
	L 60 41
	L 60 42
	L 61 42
	L 62 42
	L 62 41
	L 61 41
	L 61 42
	L 62 42
	L 63 42
	L 63 41
	L 63 40
	L 62 40
	L 62 41
	L 63 41
	L 63 40
	L 63 39
	L 63 38
	L 63 37
	L 62 37
	L 62 38
	L 63 38
	L 63 37
	L 63 36
	L 62 36
	L 61 36
	L 61 37
	L 62 37
	L 62 36
	L 61 36
	L 60 36
	L 59 36
	L 58 36
	L 58 37
	L 59 37
	L 59 36
	L 58 36
	L 57 36
	L 57 37
	L 57 38
	L 58 38
	L 58 37
	L 57 37
	L 57 38
	L 57 39
	L 58 39
	L 59 39
	L 59 38
	L 58 38
	L 58 39
	L 59 39
	L 60 39
	L 60 38
	L 60 37
	L 59 37
	L 59 38
	L 60 38
	L 60 37
	L 60 36
	L 59 36
	L 58 36
	L 58 37
	L 59 37
	L 59 36
	L 58 36
	L 57 36
	L 56 36
	L 55 36
	L 55 37
	L 56 37
	L 56 36
	L 55 36
	L 54 36
	L 54 37
	L 54 38
	L 55 38
	L 55 37
	L 54 37
	L 54 38
	L 54 39
	L 54 40
	L 54 41
	L 55 41
	L 55 40
	L 54 40
	L 54 41
	L 54 42
	L 55 42
	L 56 42
	L 56 41
	L 55 41
	L 55 42
	L 56 42
	L 57 42
	L 57 41
	L 57 40
	L 56 40
	L 56 41
	L 57 41
	L 57 40
	L 57 39
	L 56 39
	L 55 39
	L 55 40
	L 56 40
	L 56 39
	L 55 39
	L 54 39
	L 54 40
	L 54 41
	L 55 41
	L 55 40
	L 54 40
	L 54 41
	L 54 42
	L 54 43
	L 54 44
	L 55 44
	L 55 43
	L 54 43
	L 54 44
	L 54 45
	L 54 46
	L 54 47
	L 55 47
	L 55 46
	L 54 46
	L 54 47
	L 54 48
	L 54 49
	L 54 50
	L 55 50
	L 55 49
	L 54 49
	L 54 50
	L 54 51
	L 55 51
	L 56 51
	L 56 50
	L 55 50
	L 55 51
	L 56 51
	L 57 51
	L 57 50
	L 57 49
	L 56 49
	L 56 50
	L 57 50
	L 57 49
	L 57 48
	L 56 48
	L 55 48
	L 55 49
	L 56 49
	L 56 48
	L 55 48
	L 54 48
	L 54 49
	L 54 50
	L 55 50
	L 55 49
	L 54 49
	L 54 50
	L 54 51
	L 54 52
	L 54 53
	L 55 53
	L 55 52
	L 54 52
	L 54 53
	L 54 54
	L 55 54
	L 56 54
	L 56 53
	L 55 53
	L 55 54
	L 56 54
	L 57 54
	L 58 54
	L 59 54
	L 59 53
	L 58 53
	L 58 54
	L 59 54
	L 60 54
	L 60 53
	L 60 52
	L 59 52
	L 59 53
	L 60 53
	L 60 52
	L 60 51
	L 59 51
	L 58 51
	L 58 52
	L 59 52
	L 59 51
	L 58 51
	L 57 51
	L 57 52
	L 57 53
	L 58 53
	L 58 52
	L 57 52
	L 57 53
	L 57 54
	L 58 54
	L 59 54
	L 59 53
	L 58 53
	L 58 54
	L 59 54
	L 60 54
	L 61 54
	L 62 54
	L 62 53
	L 61 53
	L 61 54
	L 62 54
	L 63 54
	L 64 54
	L 65 54
	L 65 53
	L 64 53
	L 64 54
	L 65 54
	L 66 54
	L 67 54
	L 68 54
	L 68 53
	L 67 53
	L 67 54
	L 68 54
	L 69 54
	L 69 53
	L 69 52
	L 68 52
	L 68 53
	L 69 53
	L 69 52
	L 69 51
	L 68 51
	L 67 51
	L 67 52
	L 68 52
	L 68 51
	L 67 51
	L 66 51
	L 66 52
	L 66 53
	L 67 53
	L 67 52
	L 66 52
	L 66 53
	L 66 54
	L 67 54
	L 68 54
	L 68 53
	L 67 53
	L 67 54
	L 68 54
	L 69 54
	L 70 54
	L 71 54
	L 71 53
	L 70 53
	L 70 54
	L 71 54
	L 72 54
	L 72 53
	L 72 52
	L 71 52
	L 71 53
	L 72 53
	L 72 52
	L 72 51
	L 72 50
	L 72 49
	L 71 49
	L 71 50
	L 72 50
	L 72 49
	L 72 48
	L 71 48
	L 70 48
	L 70 49
	L 71 49
	L 71 48
	L 70 48
	L 69 48
	L 69 49
	L 69 50
	L 70 50
	L 70 49
	L 69 49
	L 69 50
	L 69 51
	L 70 51
	L 71 51
	L 71 50
	L 70 50
	L 70 51
	L 71 51
	L 72 51
	L 72 50
	L 72 49
	L 71 49
	L 71 50
	L 72 50
	L 72 49
	L 72 48
	L 72 47
	L 72 46
	L 71 46
	L 71 47
	L 72 47
	L 72 46
	L 72 45
	L 71 45
	L 70 45
	L 70 46
	L 71 46
	L 71 45
	L 70 45
	L 69 45
	L 68 45
	L 67 45
	L 67 46
	L 68 46
	L 68 45
	L 67 45
	L 66 45
	L 66 46
	L 66 47
	L 67 47
	L 67 46
	L 66 46
	L 66 47
	L 66 48
	L 67 48
	L 68 48
	L 68 47
	L 67 47
	L 67 48
	L 68 48
	L 69 48
	L 69 47
	L 69 46
	L 68 46
	L 68 47
	L 69 47
	L 69 46
	L 69 45
	L 68 45
	L 67 45
	L 67 46
	L 68 46
	L 68 45
	L 67 45
	L 66 45
	L 65 45
	L 64 45
	L 64 46
	L 65 46
	L 65 45
	L 64 45
	L 63 45
	L 63 46
	L 63 47
	L 64 47
	L 64 46
	L 63 46
	L 63 47
	L 63 48
	L 63 49
	L 63 50
	L 64 50
	L 64 49
	L 63 49
	L 63 50
	L 63 51
	L 64 51
	L 65 51
	L 65 50
	L 64 50
	L 64 51
	L 65 51
	L 66 51
	L 66 50
	L 66 49
	L 65 49
	L 65 50
	L 66 50
	L 66 49
	L 66 48
	L 65 48
	L 64 48
	L 64 49
	L 65 49
	L 65 48
	L 64 48
	L 63 48
	L 63 49
	L 63 50
	L 64 50
	L 64 49
	L 63 49
	L 63 50
	L 63 51
	L 63 52
	L 63 53
	L 64 53
	L 64 52
	L 63 52
	L 63 53
	L 63 54
	L 64 54
	L 65 54
	L 65 53
	L 64 53
	L 64 54
	L 65 54
	L 66 54
	L 67 54
	L 68 54
	L 68 53
	L 67 53
	L 67 54
	L 68 54
	L 69 54
	L 69 53
	L 69 52
	L 68 52
	L 68 53
	L 69 53
	L 69 52
	L 69 51
	L 68 51
	L 67 51
	L 67 52
	L 68 52
	L 68 51
	L 67 51
	L 66 51
	L 66 52
	L 66 53
	L 67 53
	L 67 52
	L 66 52
	L 66 53
	L 66 54
	L 67 54
	L 68 54
	L 68 53
	L 67 53
	L 67 54
	L 68 54
	L 69 54
	L 70 54
	L 71 54
	L 71 53
	L 70 53
	L 70 54
	L 71 54
	L 72 54
	L 73 54
	L 74 54
	L 74 53
	L 73 53
	L 73 54
	L 74 54
	L 75 54
	L 76 54
	L 77 54
	L 77 53
	L 76 53
	L 76 54
	L 77 54
	L 78 54
	L 78 53
	L 78 52
	L 77 52
	L 77 53
	L 78 53
	L 78 52
	L 78 51
	L 77 51
	L 76 51
	L 76 52
	L 77 52
	L 77 51
	L 76 51
	L 75 51
	L 75 52
	L 75 53
	L 76 53
	L 76 52
	L 75 52
	L 75 53
	L 75 54
	L 76 54
	L 77 54
	L 77 53
	L 76 53
	L 76 54
	L 77 54
	L 78 54
	L 79 54
	L 80 54
	L 80 53
	L 79 53
	L 79 54
	L 80 54
	L 81 54
	L 81 53
	L 81 52
	L 80 52
	L 80 53
	L 81 53
	L 81 52
	L 81 51
	L 81 50
	L 81 49
	L 80 49
	L 80 50
	L 81 50
	L 81 49
	L 81 48
	L 80 48
	L 79 48
	L 79 49
	L 80 49
	L 80 48
	L 79 48
	L 78 48
	L 78 49
	L 78 50
	L 79 50
	L 79 49
	L 78 49
	L 78 50
	L 78 51
	L 79 51
	L 80 51
	L 80 50
	L 79 50
	L 79 51
	L 80 51
	L 81 51
	L 81 50
	L 81 49
	L 80 49
	L 80 50
	L 81 50
	L 81 49
	L 81 48
	L 81 47
	L 81 46
	L 80 46
	L 80 47
	L 81 47
	L 81 46
	L 81 45
	L 81 44
	L 81 43
	L 80 43
	L 80 44
	L 81 44
	L 81 43
	L 81 42
	L 81 41
	L 81 40
	L 80 40
	L 80 41
	L 81 41
	L 81 40
	L 81 39
	L 80 39
	L 79 39
	L 79 40
	L 80 40
	L 80 39
	L 79 39
	L 78 39
	L 78 40
	L 78 41
	L 79 41
	L 79 40
	L 78 40
	L 78 41
	L 78 42
	L 79 42
	L 80 42
	L 80 41
	L 79 41
	L 79 42
	L 80 42
	L 81 42
	L 81 41
	L 81 40
	L 80 40
	L 80 41
	L 81 41
	L 81 40
	L 81 39
	L 81 38
	L 81 37
	L 80 37
	L 80 38
	L 81 38
	L 81 37
	L 81 36
	L 80 36
	L 79 36
	L 79 37
	L 80 37
	L 80 36
	L 79 36
	L 78 36
	L 77 36
	L 76 36
	L 76 37
	L 77 37
	L 77 36
	L 76 36
	L 75 36
	L 75 37
	L 75 38
	L 76 38
	L 76 37
	L 75 37
	L 75 38
	L 75 39
	L 76 39
	L 77 39
	L 77 38
	L 76 38
	L 76 39
	L 77 39
	L 78 39
	L 78 38
	L 78 37
	L 77 37
	L 77 38
	L 78 38
	L 78 37
	L 78 36
	L 77 36
	L 76 36
	L 76 37
	L 77 37
	L 77 36
	L 76 36
	L 75 36
	L 74 36
	L 73 36
	L 73 37
	L 74 37
	L 74 36
	L 73 36
	L 72 36
	L 72 37
	L 72 38
	L 73 38
	L 73 37
	L 72 37
	L 72 38
	L 72 39
	L 72 40
	L 72 41
	L 73 41
	L 73 40
	L 72 40
	L 72 41
	L 72 42
	L 73 42
	L 74 42
	L 74 41
	L 73 41
	L 73 42
	L 74 42
	L 75 42
	L 75 41
	L 75 40
	L 74 40
	L 74 41
	L 75 41
	L 75 40
	L 75 39
	L 74 39
	L 73 39
	L 73 40
	L 74 40
	L 74 39
	L 73 39
	L 72 39
	L 72 40
	L 72 41
	L 73 41
	L 73 40
	L 72 40
	L 72 41
	L 72 42
	L 72 43
	L 72 44
	L 73 44
	L 73 43
	L 72 43
	L 72 44
	L 72 45
	L 73 45
	L 74 45
	L 74 44
	L 73 44
	L 73 45
	L 74 45
	L 75 45
	L 76 45
	L 77 45
	L 77 44
	L 76 44
	L 76 45
	L 77 45
	L 78 45
	L 78 44
	L 78 43
	L 77 43
	L 77 44
	L 78 44
	L 78 43
	L 78 42
	L 77 42
	L 76 42
	L 76 43
	L 77 43
	L 77 42
	L 76 42
	L 75 42
	L 75 43
	L 75 44
	L 76 44
	L 76 43
	L 75 43
	L 75 44
	L 75 45
	L 76 45
	L 77 45
	L 77 44
	L 76 44
	L 76 45
	L 77 45
	L 78 45
	L 79 45
	L 80 45
	L 80 44
	L 79 44
	L 79 45
	L 80 45
	L 81 45
	L 81 44
	L 81 43
	L 80 43
	L 80 44
	L 81 44
	L 81 43
	L 81 42
	L 81 41
	L 81 40
	L 80 40
	L 80 41
	L 81 41
	L 81 40
	L 81 39
	L 80 39
	L 79 39
	L 79 40
	L 80 40
	L 80 39
	L 79 39
	L 78 39
	L 78 40
	L 78 41
	L 79 41
	L 79 40
	L 78 40
	L 78 41
	L 78 42
	L 79 42
	L 80 42
	L 80 41
	L 79 41
	L 79 42
	L 80 42
	L 81 42
	L 81 41
	L 81 40
	L 80 40
	L 80 41
	L 81 41
	L 81 40
	L 81 39
	L 81 38
	L 81 37
	L 80 37
	L 80 38
	L 81 38
	L 81 37
	L 81 36
	L 81 35
	L 81 34
	L 80 34
	L 80 35
	L 81 35
	L 81 34
	L 81 33
	L 81 32
	L 81 31
	L 80 31
	L 80 32
	L 81 32
	L 81 31
	L 81 30
	L 80 30
	L 79 30
	L 79 31
	L 80 31
	L 80 30
	L 79 30
	L 78 30
	L 78 31
	L 78 32
	L 79 32
	L 79 31
	L 78 31
	L 78 32
	L 78 33
	L 79 33
	L 80 33
	L 80 32
	L 79 32
	L 79 33
	L 80 33
	L 81 33
	L 81 32
	L 81 31
	L 80 31
	L 80 32
	L 81 32
	L 81 31
	L 81 30
	L 81 29
	L 81 28
	L 80 28
	L 80 29
	L 81 29
	L 81 28
	L 81 27
	L 81 26
	L 81 25
	L 80 25
	L 80 26
	L 81 26
	L 81 25
	L 81 24
	L 81 23
	L 81 22
	L 80 22
	L 80 23
	L 81 23
	L 81 22
	L 81 21
	L 80 21
	L 79 21
	L 79 22
	L 80 22
	L 80 21
	L 79 21
	L 78 21
	L 78 22
	L 78 23
	L 79 23
	L 79 22
	L 78 22
	L 78 23
	L 78 24
	L 79 24
	L 80 24
	L 80 23
	L 79 23
	L 79 24
	L 80 24
	L 81 24
	L 81 23
	L 81 22
	L 80 22
	L 80 23
	L 81 23
	L 81 22
	L 81 21
	L 81 20
	L 81 19
	L 80 19
	L 80 20
	L 81 20
	L 81 19
	L 81 18
	L 81 17
	L 81 16
	L 80 16
	L 80 17
	L 81 17
	L 81 16
	L 81 15
	L 81 14
	L 81 13
	L 80 13
	L 80 14
	L 81 14
	L 81 13
	L 81 12
	L 80 12
	L 79 12
	L 79 13
	L 80 13
	L 80 12
	L 79 12
	L 78 12
	L 78 13
	L 78 14
	L 79 14
	L 79 13
	L 78 13
	L 78 14
	L 78 15
	L 79 15
	L 80 15
	L 80 14
	L 79 14
	L 79 15
	L 80 15
	L 81 15
	L 81 14
	L 81 13
	L 80 13
	L 80 14
	L 81 14
	L 81 13
	L 81 12
	L 81 11
	L 81 10
	L 80 10
	L 80 11
	L 81 11
	L 81 10
	L 81 9
	L 80 9
	L 79 9
	L 79 10
	L 80 10
	L 80 9
	L 79 9
	L 78 9
	L 77 9
	L 76 9
	L 76 10
	L 77 10
	L 77 9
	L 76 9
	L 75 9
	L 75 10
	L 75 11
	L 76 11
	L 76 10
	L 75 10
	L 75 11
	L 75 12
	L 76 12
	L 77 12
	L 77 11
	L 76 11
	L 76 12
	L 77 12
	L 78 12
	L 78 11
	L 78 10
	L 77 10
	L 77 11
	L 78 11
	L 78 10
	L 78 9
	L 77 9
	L 76 9
	L 76 10
	L 77 10
	L 77 9
	L 76 9
	L 75 9
	L 74 9
	L 73 9
	L 73 10
	L 74 10
	L 74 9
	L 73 9
	L 72 9
	L 72 10
	L 72 11
	L 73 11
	L 73 10
	L 72 10
	L 72 11
	L 72 12
	L 72 13
	L 72 14
	L 73 14
	L 73 13
	L 72 13
	L 72 14
	L 72 15
	L 73 15
	L 74 15
	L 74 14
	L 73 14
	L 73 15
	L 74 15
	L 75 15
	L 75 14
	L 75 13
	L 74 13
	L 74 14
	L 75 14
	L 75 13
	L 75 12
	L 74 12
	L 73 12
	L 73 13
	L 74 13
	L 74 12
	L 73 12
	L 72 12
	L 72 13
	L 72 14
	L 73 14
	L 73 13
	L 72 13
	L 72 14
	L 72 15
	L 72 16
	L 72 17
	L 73 17
	L 73 16
	L 72 16
	L 72 17
	L 72 18
	L 73 18
	L 74 18
	L 74 17
	L 73 17
	L 73 18
	L 74 18
	L 75 18
	L 76 18
	L 77 18
	L 77 17
	L 76 17
	L 76 18
	L 77 18
	L 78 18
	L 78 17
	L 78 16
	L 77 16
	L 77 17
	L 78 17
	L 78 16
	L 78 15
	L 77 15
	L 76 15
	L 76 16
	L 77 16
	L 77 15
	L 76 15
	L 75 15
	L 75 16
	L 75 17
	L 76 17
	L 76 16
	L 75 16
	L 75 17
	L 75 18
	L 76 18
	L 77 18
	L 77 17
	L 76 17
	L 76 18
	L 77 18
	L 78 18
	L 79 18
	L 80 18
	L 80 17
	L 79 17
	L 79 18
	L 80 18
	L 81 18
	L 81 17
	L 81 16
	L 80 16
	L 80 17
	L 81 17
	L 81 16
	L 81 15
	L 81 14
	L 81 13
	L 80 13
	L 80 14
	L 81 14
	L 81 13
	L 81 12
	L 80 12
	L 79 12
	L 79 13
	L 80 13
	L 80 12
	L 79 12
	L 78 12
	L 78 13
	L 78 14
	L 79 14
	L 79 13
	L 78 13
	L 78 14
	L 78 15
	L 79 15
	L 80 15
	L 80 14
	L 79 14
	L 79 15
	L 80 15
	L 81 15
	L 81 14
	L 81 13
	L 80 13
	L 80 14
	L 81 14
	L 81 13
	L 81 12
	L 81 11
	L 81 10
	L 80 10
	L 80 11
	L 81 11
	L 81 10
	L 81 9
	L 81 8
	L 81 7
	L 80 7
	L 80 8
	L 81 8
	L 81 7
	L 81 6
	L 81 5
	L 81 4
	L 80 4
	L 80 5
	L 81 5
	L 81 4
	L 81 3
	L 80 3
	L 79 3
	L 79 4
	L 80 4
	L 80 3
	L 79 3
	L 78 3
	L 78 4
	L 78 5
	L 79 5
	L 79 4
	L 78 4
	L 78 5
	L 78 6
	L 79 6
	L 80 6
	L 80 5
	L 79 5
	L 79 6
	L 80 6
	L 81 6
	L 81 5
	L 81 4
	L 80 4
	L 80 5
	L 81 5
	L 81 4
	L 81 3
	L 81 2
	L 81 1
	L 80 1
	L 80 2
	L 81 2
	L 81 1
	L 81 1.233e-11
	L 80 1.203e-11
	L 79 1.174e-11
	L 79 1
	L 80 1
	L 80 1.203e-11
	L 79 1.174e-11
	L 78 1.145e-11
	L 77 1.115e-11
	L 76 1.086e-11
	L 76 1
	L 77 1
	L 77 1.115e-11
	L 76 1.086e-11
	L 75 1.056e-11
	L 75 1
	L 75 2
	L 76 2
	L 76 1
	L 75 1
	L 75 2
	L 75 3
	L 76 3
	L 77 3
	L 77 2
	L 76 2
	L 76 3
	L 77 3
	L 78 3
	L 78 2
	L 78 1
	L 77 1
	L 77 2
	L 78 2
	L 78 1
	L 78 1.145e-11
	L 77 1.115e-11
	L 76 1.086e-11
	L 76 1
	L 77 1
	L 77 1.115e-11
	L 76 1.086e-11
	L 75 1.056e-11
	L 74 1.026e-11
	L 73 9.969e-12
	L 73 1
	L 74 1
	L 74 1.027e-11
	L 73 9.969e-12
	L 72 9.673e-12
	L 71 9.377e-12
	L 70 9.081e-12
	L 70 1
	L 71 1
	L 71 9.377e-12
	L 70 9.081e-12
	L 69 8.785e-12
	L 68 8.488e-12
	L 67 8.192e-12
	L 67 1
	L 68 1
	L 68 8.488e-12
	L 67 8.192e-12
	L 66 7.895e-12
	L 66 1
	L 66 2
	L 67 2
	L 67 1
	L 66 1
	L 66 2
	L 66 3
	L 67 3
	L 68 3
	L 68 2
	L 67 2
	L 67 3
	L 68 3
	L 69 3
	L 69 2
	L 69 1
	L 68 1
	L 68 2
	L 69 2
	L 69 1
	L 69 8.787e-12
	L 68 8.489e-12
	L 67 8.192e-12
	L 67 1
	L 68 1
	L 68 8.489e-12
	L 67 8.191e-12
	L 66 7.894e-12
	L 65 7.596e-12
	L 64 7.298e-12
	L 64 1
	L 65 1
	L 65 7.596e-12
	L 64 7.298e-12
	L 63 7e-12
	L 63 1
	L 63 2
	L 64 2
	L 64 1
	L 63 1
	L 63 2
	L 63 3
	L 63 4
	L 63 5
	L 64 5
	L 64 4
	L 63 4
	L 63 5
	L 63 6
	L 64 6
	L 65 6
	L 65 5
	L 64 5
	L 64 6
	L 65 6
	L 66 6
	L 66 5
	L 66 4
	L 65 4
	L 65 5
	L 66 5
	L 66 4
	L 66 3
	L 65 3
	L 64 3
	L 64 4
	L 65 4
	L 65 3
	L 64 3
	L 63 3
	L 63 4
	L 63 5
	L 64 5
	L 64 4
	L 63 4
	L 63 5
	L 63 6
	L 63 7
	L 63 8
	L 64 8
	L 64 7
	L 63 7
	L 63 8
	L 63 9
	L 64 9
	L 65 9
	L 65 8
	L 64 8
	L 64 9
	L 65 9
	L 66 9
	L 67 9
	L 68 9
	L 68 8
	L 67 8
	L 67 9
	L 68 9
	L 69 9
	L 69 8
	L 69 7
	L 68 7
	L 68 8
	L 69 8
	L 69 7
	L 69 6
	L 68 6
	L 67 6
	L 67 7
	L 68 7
	L 68 6
	L 67 6
	L 66 6
	L 66 7
	L 66 8
	L 67 8
	L 67 7
	L 66 7
	L 66 8
	L 66 9
	L 67 9
	L 68 9
	L 68 8
	L 67 8
	L 67 9
	L 68 9
	L 69 9
	L 70 9
	L 71 9
	L 71 8
	L 70 8
	L 70 9
	L 71 9
	L 72 9
	L 72 8
	L 72 7
	L 71 7
	L 71 8
	L 72 8
	L 72 7
	L 72 6
	L 72 5
	L 72 4
	L 71 4
	L 71 5
	L 72 5
	L 72 4
	L 72 3
	L 71 3
	L 70 3
	L 70 4
	L 71 4
	L 71 3
	L 70 3
	L 69 3
	L 69 4
	L 69 5
	L 70 5
	L 70 4
	L 69 4
	L 69 5
	L 69 6
	L 70 6
	L 71 6
	L 71 5
	L 70 5
	L 70 6
	L 71 6
	L 72 6
	L 72 5
	L 72 4
	L 71 4
	L 71 5
	L 72 5
	L 72 4
	L 72 3
	L 72 2
	L 72 1
	L 71 1
	L 71 2
	L 72 2
	L 72 1
	L 72 9.707e-12
	L 71 9.403e-12
	L 70 9.099e-12
	L 70 1
	L 71 1
	L 71 9.403e-12
	L 70 9.099e-12
	L 69 8.795e-12
	L 68 8.49e-12
	L 67 8.186e-12
	L 67 1
	L 68 1
	L 68 8.49e-12
	L 67 8.186e-12
	L 66 7.881e-12
	L 66 1
	L 66 2
	L 67 2
	L 67 1
	L 66 1
	L 66 2
	L 66 3
	L 67 3
	L 68 3
	L 68 2
	L 67 2
	L 67 3
	L 68 3
	L 69 3
	L 69 2
	L 69 1
	L 68 1
	L 68 2
	L 69 2
	L 69 1
	L 69 8.797e-12
	L 68 8.491e-12
	L 67 8.185e-12
	L 67 1
	L 68 1
	L 68 8.491e-12
	L 67 8.185e-12
	L 66 7.879e-12
	L 65 7.573e-12
	L 64 7.268e-12
	L 64 1
	L 65 1
	L 65 7.573e-12
	L 64 7.267e-12
	L 63 6.961e-12
	L 62 6.655e-12
	L 61 6.349e-12
	L 61 1
	L 62 1
	L 62 6.655e-12
	L 61 6.349e-12
	L 60 6.043e-12
	L 59 5.736e-12
	L 58 5.43e-12
	L 58 1
	L 59 1
	L 59 5.736e-12
	L 58 5.43e-12
	L 57 5.123e-12
	L 57 1
	L 57 2
	L 58 2
	L 58 1
	L 57 1
	L 57 2
	L 57 3
	L 58 3
	L 59 3
	L 59 2
	L 58 2
	L 58 3
	L 59 3
	L 60 3
	L 60 2
	L 60 1
	L 59 1
	L 59 2
	L 60 2
	L 60 1
	L 60 6.044e-12
	L 59 5.737e-12
	L 58 5.429e-12
	L 58 1
	L 59 1
	L 59 5.737e-12
	L 58 5.429e-12
	L 57 5.122e-12
	L 56 4.814e-12
	L 55 4.506e-12
	L 55 1
	L 56 1
	L 56 4.814e-12
	L 55 4.506e-12
	L 54 4.198e-12
	L 53 3.89e-12
	L 52 3.582e-12
	L 52 1
	L 53 1
	L 53 3.89e-12
	L 52 3.581e-12
	L 51 3.273e-12
	L 50 2.965e-12
	L 49 2.657e-12
	L 49 1
	L 50 1
	L 50 2.965e-12
	L 49 2.656e-12
	L 48 2.348e-12
	L 48 1
	L 48 2
	L 49 2
	L 49 1
	L 48 1
	L 48 2
	L 48 3
	L 49 3
	L 50 3
	L 50 2
	L 49 2
	L 49 3
	L 50 3
	L 51 3
	L 51 2
	L 51 1
	L 50 1
	L 50 2
	L 51 2
	L 51 1
	L 51 3.275e-12
	L 50 2.966e-12
	L 49 2.656e-12
	L 49 1
	L 50 1
	L 50 2.966e-12
	L 49 2.656e-12
	L 48 2.346e-12
	L 47 2.037e-12
	L 46 1.727e-12
	L 46 1
	L 47 1
	L 47 2.037e-12
	L 46 1.727e-12
	L 45 1.417e-12
	L 44 1.107e-12
	L 43 7.967e-13
	L 43 1
	L 44 1
	L 44 1.107e-12
	L 43 7.966e-13
	L 42 4.864e-13
	L 41 1.761e-13
	L 40 -1.342e-13
	L 40 1
	L 41 1
	L 41 1.763e-13
	L 40 -1.342e-13
	L 39 -4.447e-13
	L 39 1
	L 39 2
	L 40 2
	L 40 1
	L 39 1
	L 39 2
	L 39 3
	L 40 3
	L 41 3
	L 41 2
	L 40 2
	L 40 3
	L 41 3
	L 42 3
	L 42 2
	L 42 1
	L 41 1
	L 41 2
	L 42 2
	L 42 1
	L 42 4.885e-13
	L 41 1.77e-13
	L 40 -1.345e-13
	L 40 1
	L 41 1
	L 41 1.772e-13
	L 40 -1.345e-13
	L 39 -4.463e-13
	L 38 -7.58e-13
	L 37 -1.07e-12
	L 37 1
	L 38 1
	L 38 -7.578e-13
	L 37 -1.07e-12
	L 36 -1.382e-12
	L 36 1
	L 36 2
	L 37 2
	L 37 1
	L 36 1
	L 36 2
	L 36 3
	L 36 4
	L 36 5
	L 37 5
	L 37 4
	L 36 4
	L 36 5
	L 36 6
	L 37 6
	L 38 6
	L 38 5
	L 37 5
	L 37 6
	L 38 6
	L 39 6
	L 39 5
	L 39 4
	L 38 4
	L 38 5
	L 39 5
	L 39 4
	L 39 3
	L 38 3
	L 37 3
	L 37 4
	L 38 4
	L 38 3
	L 37 3
	L 36 3
	L 36 4
	L 36 5
	L 37 5
	L 37 4
	L 36 4
	L 36 5
	L 36 6
	L 36 7
	L 36 8
	L 37 8
	L 37 7
	L 36 7
	L 36 8
	L 36 9
	L 37 9
	L 38 9
	L 38 8
	L 37 8
	L 37 9
	L 38 9
	L 39 9
	L 40 9
	L 41 9
	L 41 8
	L 40 8
	L 40 9
	L 41 9
	L 42 9
	L 42 8
	L 42 7
	L 41 7
	L 41 8
	L 42 8
	L 42 7
	L 42 6
	L 41 6
	L 40 6
	L 40 7
	L 41 7
	L 41 6
	L 40 6
	L 39 6
	L 39 7
	L 39 8
	L 40 8
	L 40 7
	L 39 7
	L 39 8
	L 39 9
	L 40 9
	L 41 9
	L 41 8
	L 40 8
	L 40 9
	L 41 9
	L 42 9
	L 43 9
	L 44 9
	L 44 8
	L 43 8
	L 43 9
	L 44 9
	L 45 9
	L 45 8
	L 45 7
	L 44 7
	L 44 8
	L 45 8
	L 45 7
	L 45 6
	L 45 5
	L 45 4
	L 44 4
	L 44 5
	L 45 5
	L 45 4
	L 45 3
	L 44 3
	L 43 3
	L 43 4
	L 44 4
	L 44 3
	L 43 3
	L 42 3
	L 42 4
	L 42 5
	L 43 5
	L 43 4
	L 42 4
	L 42 5
	L 42 6
	L 43 6
	L 44 6
	L 44 5
	L 43 5
	L 43 6
	L 44 6
	L 45 6
	L 45 5
	L 45 4
	L 44 4
	L 44 5
	L 45 5
	L 45 4
	L 45 3
	L 45 2
	L 45 1
	L 44 1
	L 44 2
	L 45 2
	L 45 1
	L 45 1.454e-12
	L 44 1.136e-12
	L 43 8.177e-13
	L 43 1
	L 44 1
	L 44 1.136e-12
	L 43 8.176e-13
	L 42 4.993e-13
	L 41 1.809e-13
	L 40 -1.374e-13
	L 40 1
	L 41 1
	L 41 1.81e-13
	L 40 -1.376e-13
	L 39 -4.562e-13
	L 39 1
	L 39 2
	L 40 2
	L 40 1
	L 39 1
	L 39 2
	L 39 3
	L 40 3
	L 41 3
	L 41 2
	L 40 2
	L 40 3
	L 41 3
	L 42 3
	L 42 2
	L 42 1
	L 41 1
	L 41 2
	L 42 2
	L 42 1
	L 42 5.009e-13
	L 41 1.814e-13
	L 40 -1.382e-13
	L 40 1
	L 41 1
	L 41 1.814e-13
	L 40 -1.384e-13
	L 39 -4.582e-13
	L 38 -7.78e-13
	L 37 -1.098e-12
	L 37 1
	L 38 1
	L 38 -7.779e-13
	L 37 -1.098e-12
	L 36 -1.418e-12
	L 35 -1.738e-12
	L 34 -2.058e-12
	L 34 1
	L 35 1
	L 35 -1.738e-12
	L 34 -2.058e-12
	L 33 -2.379e-12
	L 32 -2.699e-12
	L 31 -3.019e-12
	L 31 1
	L 32 1
	L 32 -2.699e-12
	L 31 -3.019e-12
	L 30 -3.34e-12
	L 30 1
	L 30 2
	L 31 2
	L 31 1
	L 30 1
	L 30 2
	L 30 3
	L 31 3
	L 32 3
	L 32 2
	L 31 2
	L 31 3
	L 32 3
	L 33 3
	L 33 2
	L 33 1
	L 32 1
	L 32 2
	L 33 2
	L 33 1
	L 33 -2.377e-12
	L 32 -2.698e-12
	L 31 -3.02e-12
	L 31 1
	L 32 1
	L 32 -2.698e-12
	L 31 -3.02e-12
	L 30 -3.342e-12
	L 29 -3.664e-12
	L 28 -3.985e-12
	L 28 1
	L 29 1
	L 29 -3.663e-12
	L 28 -3.985e-12
	L 27 -4.307e-12
	L 27 1
	L 27 2
	L 28 2
	L 28 1
	L 27 1
	L 27 2
	L 27 3
	L 27 4
	L 27 5
	L 28 5
	L 28 4
	L 27 4
	L 27 5
	L 27 6
	L 28 6
	L 29 6
	L 29 5
	L 28 5
	L 28 6
	L 29 6
	L 30 6
	L 30 5
	L 30 4
	L 29 4
	L 29 5
	L 30 5
	L 30 4
	L 30 3
	L 29 3
	L 28 3
	L 28 4
	L 29 4
	L 29 3
	L 28 3
	L 27 3
	L 27 4
	L 27 5
	L 28 5
	L 28 4
	L 27 4
	L 27 5
	L 27 6
	L 27 7
	L 27 8
	L 28 8
	L 28 7
	L 27 7
	L 27 8
	L 27 9
	L 27 10
	L 27 11
	L 28 11
	L 28 10
	L 27 10
	L 27 11
	L 27 12
	L 27 13
	L 27 14
	L 28 14
	L 28 13
	L 27 13
	L 27 14
	L 27 15
	L 28 15
	L 29 15
	L 29 14
	L 28 14
	L 28 15
	L 29 15
	L 30 15
	L 30 14
	L 30 13
	L 29 13
	L 29 14
	L 30 14
	L 30 13
	L 30 12
	L 29 12
	L 28 12
	L 28 13
	L 29 13
	L 29 12
	L 28 12
	L 27 12
	L 27 13
	L 27 14
	L 28 14
	L 28 13
	L 27 13
	L 27 14
	L 27 15
	L 27 16
	L 27 17
	L 28 17
	L 28 16
	L 27 16
	L 27 17
	L 27 18
	L 28 18
	L 29 18
	L 29 17
	L 28 17
	L 28 18
	L 29 18
	L 30 18
	L 31 18
	L 32 18
	L 32 17
	L 31 17
	L 31 18
	L 32 18
	L 33 18
	L 33 17
	L 33 16
	L 32 16
	L 32 17
	L 33 17
	L 33 16
	L 33 15
	L 32 15
	L 31 15
	L 31 16
	L 32 16
	L 32 15
	L 31 15
	L 30 15
	L 30 16
	L 30 17
	L 31 17
	L 31 16
	L 30 16
	L 30 17
	L 30 18
	L 31 18
	L 32 18
	L 32 17
	L 31 17
	L 31 18
	L 32 18
	L 33 18
	L 34 18
	L 35 18
	L 35 17
	L 34 17
	L 34 18
	L 35 18
	L 36 18
	L 36 17
	L 36 16
	L 35 16
	L 35 17
	L 36 17
	L 36 16
	L 36 15
	L 36 14
	L 36 13
	L 35 13
	L 35 14
	L 36 14
	L 36 13
	L 36 12
	L 35 12
	L 34 12
	L 34 13
	L 35 13
	L 35 12
	L 34 12
	L 33 12
	L 33 13
	L 33 14
	L 34 14
	L 34 13
	L 33 13
	L 33 14
	L 33 15
	L 34 15
	L 35 15
	L 35 14
	L 34 14
	L 34 15
	L 35 15
	L 36 15
	L 36 14
	L 36 13
	L 35 13
	L 35 14
	L 36 14
	L 36 13
	L 36 12
	L 36 11
	L 36 10
	L 35 10
	L 35 11
	L 36 11
	L 36 10
	L 36 9
	L 35 9
	L 34 9
	L 34 10
	L 35 10
	L 35 9
	L 34 9
	L 33 9
	L 32 9
	L 31 9
	L 31 10
	L 32 10
	L 32 9
	L 31 9
	L 30 9
	L 30 10
	L 30 11
	L 31 11
	L 31 10
	L 30 10
	L 30 11
	L 30 12
	L 31 12
	L 32 12
	L 32 11
	L 31 11
	L 31 12
	L 32 12
	L 33 12
	L 33 11
	L 33 10
	L 32 10
	L 32 11
	L 33 11
	L 33 10
	L 33 9
	L 32 9
	L 31 9
	L 31 10
	L 32 10
	L 32 9
	L 31 9
	L 30 9
	L 29 9
	L 28 9
	L 28 10
	L 29 10
	L 29 9
	L 28 9
	L 27 9
	L 27 10
	L 27 11
	L 28 11
	L 28 10
	L 27 10
	L 27 11
	L 27 12
	L 27 13
	L 27 14
	L 28 14
	L 28 13
	L 27 13
	L 27 14
	L 27 15
	L 28 15
	L 29 15
	L 29 14
	L 28 14
	L 28 15
	L 29 15
	L 30 15
	L 30 14
	L 30 13
	L 29 13
	L 29 14
	L 30 14
	L 30 13
	L 30 12
	L 29 12
	L 28 12
	L 28 13
	L 29 13
	L 29 12
	L 28 12
	L 27 12
	L 27 13
	L 27 14
	L 28 14
	L 28 13
	L 27 13
	L 27 14
	L 27 15
	L 27 16
	L 27 17
	L 28 17
	L 28 16
	L 27 16
	L 27 17
	L 27 18
	L 27 19
	L 27 20
	L 28 20
	L 28 19
	L 27 19
	L 27 20
	L 27 21
	L 27 22
	L 27 23
	L 28 23
	L 28 22
	L 27 22
	L 27 23
	L 27 24
	L 28 24
	L 29 24
	L 29 23
	L 28 23
	L 28 24
	L 29 24
	L 30 24
	L 30 23
	L 30 22
	L 29 22
	L 29 23
	L 30 23
	L 30 22
	L 30 21
	L 29 21
	L 28 21
	L 28 22
	L 29 22
	L 29 21
	L 28 21
	L 27 21
	L 27 22
	L 27 23
	L 28 23
	L 28 22
	L 27 22
	L 27 23
	L 27 24
	L 27 25
	L 27 26
	L 28 26
	L 28 25
	L 27 25
	L 27 26
	L 27 27
	L 28 27
	L 29 27
	L 29 26
	L 28 26
	L 28 27
	L 29 27
	L 30 27
	L 31 27
	L 32 27
	L 32 26
	L 31 26
	L 31 27
	L 32 27
	L 33 27
	L 33 26
	L 33 25
	L 32 25
	L 32 26
	L 33 26
	L 33 25
	L 33 24
	L 32 24
	L 31 24
	L 31 25
	L 32 25
	L 32 24
	L 31 24
	L 30 24
	L 30 25
	L 30 26
	L 31 26
	L 31 25
	L 30 25
	L 30 26
	L 30 27
	L 31 27
	L 32 27
	L 32 26
	L 31 26
	L 31 27
	L 32 27
	L 33 27
	L 34 27
	L 35 27
	L 35 26
	L 34 26
	L 34 27
	L 35 27
	L 36 27
	L 37 27
	L 38 27
	L 38 26
	L 37 26
	L 37 27
	L 38 27
	L 39 27
	L 40 27
	L 41 27
	L 41 26
	L 40 26
	L 40 27
	L 41 27
	L 42 27
	L 42 26
	L 42 25
	L 41 25
	L 41 26
	L 42 26
	L 42 25
	L 42 24
	L 41 24
	L 40 24
	L 40 25
	L 41 25
	L 41 24
	L 40 24
	L 39 24
	L 39 25
	L 39 26
	L 40 26
	L 40 25
	L 39 25
	L 39 26
	L 39 27
	L 40 27
	L 41 27
	L 41 26
	L 40 26
	L 40 27
	L 41 27
	L 42 27
	L 43 27
	L 44 27
	L 44 26
	L 43 26
	L 43 27
	L 44 27
	L 45 27
	L 45 26
	L 45 25
	L 44 25
	L 44 26
	L 45 26
	L 45 25
	L 45 24
	L 45 23
	L 45 22
	L 44 22
	L 44 23
	L 45 23
	L 45 22
	L 45 21
	L 44 21
	L 43 21
	L 43 22
	L 44 22
	L 44 21
	L 43 21
	L 42 21
	L 42 22
	L 42 23
	L 43 23
	L 43 22
	L 42 22
	L 42 23
	L 42 24
	L 43 24
	L 44 24
	L 44 23
	L 43 23
	L 43 24
	L 44 24
	L 45 24
	L 45 23
	L 45 22
	L 44 22
	L 44 23
	L 45 23
	L 45 22
	L 45 21
	L 45 20
	L 45 19
	L 44 19
	L 44 20
	L 45 20
	L 45 19
	L 45 18
	L 44 18
	L 43 18
	L 43 19
	L 44 19
	L 44 18
	L 43 18
	L 42 18
	L 41 18
	L 40 18
	L 40 19
	L 41 19
	L 41 18
	L 40 18
	L 39 18
	L 39 19
	L 39 20
	L 40 20
	L 40 19
	L 39 19
	L 39 20
	L 39 21
	L 40 21
	L 41 21
	L 41 20
	L 40 20
	L 40 21
	L 41 21
	L 42 21
	L 42 20
	L 42 19
	L 41 19
	L 41 20
	L 42 20
	L 42 19
	L 42 18
	L 41 18
	L 40 18
	L 40 19
	L 41 19
	L 41 18
	L 40 18
	L 39 18
	L 38 18
	L 37 18
	L 37 19
	L 38 19
	L 38 18
	L 37 18
	L 36 18
	L 36 19
	L 36 20
	L 37 20
	L 37 19
	L 36 19
	L 36 20
	L 36 21
	L 36 22
	L 36 23
	L 37 23
	L 37 22
	L 36 22
	L 36 23
	L 36 24
	L 37 24
	L 38 24
	L 38 23
	L 37 23
	L 37 24
	L 38 24
	L 39 24
	L 39 23
	L 39 22
	L 38 22
	L 38 23
	L 39 23
	L 39 22
	L 39 21
	L 38 21
	L 37 21
	L 37 22
	L 38 22
	L 38 21
	L 37 21
	L 36 21
	L 36 22
	L 36 23
	L 37 23
	L 37 22
	L 36 22
	L 36 23
	L 36 24
	L 36 25
	L 36 26
	L 37 26
	L 37 25
	L 36 25
	L 36 26
	L 36 27
	L 37 27
	L 38 27
	L 38 26
	L 37 26
	L 37 27
	L 38 27
	L 39 27
	L 40 27
	L 41 27
	L 41 26
	L 40 26
	L 40 27
	L 41 27
	L 42 27
	L 42 26
	L 42 25
	L 41 25
	L 41 26
	L 42 26
	L 42 25
	L 42 24
	L 41 24
	L 40 24
	L 40 25
	L 41 25
	L 41 24
	L 40 24
	L 39 24
	L 39 25
	L 39 26
	L 40 26
	L 40 25
	L 39 25
	L 39 26
	L 39 27
	L 40 27
	L 41 27
	L 41 26
	L 40 26
	L 40 27
	L 41 27
	L 42 27
	L 43 27
	L 44 27
	L 44 26
	L 43 26
	L 43 27
	L 44 27
	L 45 27
	L 46 27
	L 47 27
	L 47 26
	L 46 26
	L 46 27
	L 47 27
	L 48 27
	L 49 27
	L 50 27
	L 50 26
	L 49 26
	L 49 27
	L 50 27
	L 51 27
	L 51 26
	L 51 25
	L 50 25
	L 50 26
	L 51 26
	L 51 25
	L 51 24
	L 50 24
	L 49 24
	L 49 25
	L 50 25
	L 50 24
	L 49 24
	L 48 24
	L 48 25
	L 48 26
	L 49 26
	L 49 25
	L 48 25
	L 48 26
	L 48 27
	L 49 27
	L 50 27
	L 50 26
	L 49 26
	L 49 27
	L 50 27
	L 51 27
	L 52 27
	L 53 27
	L 53 26
	L 52 26
	L 52 27
	L 53 27
	L 54 27
	L 54 26
	L 54 25
	L 53 25
	L 53 26
	L 54 26
	L 54 25
	L 54 24
	L 54 23
	L 54 22
	L 53 22
	L 53 23
	L 54 23
	L 54 22
	L 54 21
	L 53 21
	L 52 21
	L 52 22
	L 53 22
	L 53 21
	L 52 21
	L 51 21
	L 51 22
	L 51 23
	L 52 23
	L 52 22
	L 51 22
	L 51 23
	L 51 24
	L 52 24
	L 53 24
	L 53 23
	L 52 23
	L 52 24
	L 53 24
	L 54 24
	L 54 23
	L 54 22
	L 53 22
	L 53 23
	L 54 23
	L 54 22
	L 54 21
	L 54 20
	L 54 19
	L 53 19
	L 53 20
	L 54 20
	L 54 19
	L 54 18
	L 54 17
	L 54 16
	L 53 16
	L 53 17
	L 54 17
	L 54 16
	L 54 15
	L 54 14
	L 54 13
	L 53 13
	L 53 14
	L 54 14
	L 54 13
	L 54 12
	L 53 12
	L 52 12
	L 52 13
	L 53 13
	L 53 12
	L 52 12
	L 51 12
	L 51 13
	L 51 14
	L 52 14
	L 52 13
	L 51 13
	L 51 14
	L 51 15
	L 52 15
	L 53 15
	L 53 14
	L 52 14
	L 52 15
	L 53 15
	L 54 15
	L 54 14
	L 54 13
	L 53 13
	L 53 14
	L 54 14
	L 54 13
	L 54 12
	L 54 11
	L 54 10
	L 53 10
	L 53 11
	L 54 11
	L 54 10
	L 54 9
	L 53 9
	L 52 9
	L 52 10
	L 53 10
	L 53 9
	L 52 9
	L 51 9
	L 50 9
	L 49 9
	L 49 10
	L 50 10
	L 50 9
	L 49 9
	L 48 9
	L 48 10
	L 48 11
	L 49 11
	L 49 10
	L 48 10
	L 48 11
	L 48 12
	L 49 12
	L 50 12
	L 50 11
	L 49 11
	L 49 12
	L 50 12
	L 51 12
	L 51 11
	L 51 10
	L 50 10
	L 50 11
	L 51 11
	L 51 10
	L 51 9
	L 50 9
	L 49 9
	L 49 10
	L 50 10
	L 50 9
	L 49 9
	L 48 9
	L 47 9
	L 46 9
	L 46 10
	L 47 10
	L 47 9
	L 46 9
	L 45 9
	L 45 10
	L 45 11
	L 46 11
	L 46 10
	L 45 10
	L 45 11
	L 45 12
	L 45 13
	L 45 14
	L 46 14
	L 46 13
	L 45 13
	L 45 14
	L 45 15
	L 46 15
	L 47 15
	L 47 14
	L 46 14
	L 46 15
	L 47 15
	L 48 15
	L 48 14
	L 48 13
	L 47 13
	L 47 14
	L 48 14
	L 48 13
	L 48 12
	L 47 12
	L 46 12
	L 46 13
	L 47 13
	L 47 12
	L 46 12
	L 45 12
	L 45 13
	L 45 14
	L 46 14
	L 46 13
	L 45 13
	L 45 14
	L 45 15
	L 45 16
	L 45 17
	L 46 17
	L 46 16
	L 45 16
	L 45 17
	L 45 18
	L 46 18
	L 47 18
	L 47 17
	L 46 17
	L 46 18
	L 47 18
	L 48 18
	L 49 18
	L 50 18
	L 50 17
	L 49 17
	L 49 18
	L 50 18
	L 51 18
	L 51 17
	L 51 16
	L 50 16
	L 50 17
	L 51 17
	L 51 16
	L 51 15
	L 50 15
	L 49 15
	L 49 16
	L 50 16
	L 50 15
	L 49 15
	L 48 15
	L 48 16
	L 48 17
	L 49 17
	L 49 16
	L 48 16
	L 48 17
	L 48 18
	L 49 18
	L 50 18
	L 50 17
	L 49 17
	L 49 18
	L 50 18
	L 51 18
	L 52 18
	L 53 18
	L 53 17
	L 52 17
	L 52 18
	L 53 18
	L 54 18
	L 54 17
	L 54 16
	L 53 16
	L 53 17
	L 54 17
	L 54 16
	L 54 15
	L 54 14
	L 54 13
	L 53 13
	L 53 14
	L 54 14
	L 54 13
	L 54 12
	L 53 12
	L 52 12
	L 52 13
	L 53 13
	L 53 12
	L 52 12
	L 51 12
	L 51 13
	L 51 14
	L 52 14
	L 52 13
	L 51 13
	L 51 14
	L 51 15
	L 52 15
	L 53 15
	L 53 14
	L 52 14
	L 52 15
	L 53 15
	L 54 15
	L 54 14
	L 54 13
	L 53 13
	L 53 14
	L 54 14
	L 54 13
	L 54 12
	L 54 11
	L 54 10
	L 53 10
	L 53 11
	L 54 11
	L 54 10
	L 54 9
	L 54 8
	L 54 7
	L 53 7
	L 53 8
	L 54 8
	L 54 7
	L 54 6
	L 54 5
	L 54 4
	L 53 4
	L 53 5
	L 54 5
	L 54 4
	L 54 3
	L 53 3
	L 52 3
	L 52 4
	L 53 4
	L 53 3
	L 52 3
	L 51 3
	L 51 4
	L 51 5
	L 52 5
	L 52 4
	L 51 4
	L 51 5
	L 51 6
	L 52 6
	L 53 6
	L 53 5
	L 52 5
	L 52 6
	L 53 6
	L 54 6
	L 54 5
	L 54 4
	L 53 4
	L 53 5
	L 54 5
	L 54 4
	L 54 3
	L 54 2
	L 54 1
	L 53 1
	L 53 2
	L 54 2
	L 54 1
	L 54 4.968e-12
	L 53 4.604e-12
	L 52 4.24e-12
	L 52 1
	L 53 1
	L 53 4.605e-12
	L 52 4.24e-12
	L 51 3.876e-12
	L 50 3.511e-12
	L 49 3.147e-12
	L 49 1
	L 50 1
	L 50 3.512e-12
	L 49 3.147e-12
	L 48 2.782e-12
	L 48 1
	L 48 2
	L 49 2
	L 49 1
	L 48 1
	L 48 2
	L 48 3
	L 49 3
	L 50 3
	L 50 2
	L 49 2
	L 49 3
	L 50 3
	L 51 3
	L 51 2
	L 51 1
	L 50 1
	L 50 2
	L 51 2
	L 51 1
	L 51 3.878e-12
	L 50 3.513e-12
	L 49 3.147e-12
	L 49 1
	L 50 1
	L 50 3.513e-12
	L 49 3.147e-12
	L 48 2.781e-12
	L 47 2.415e-12
	L 46 2.049e-12
	L 46 1
	L 47 1
	L 47 2.415e-12
	L 46 2.049e-12
	L 45 1.683e-12
	L 44 1.317e-12
	L 43 9.507e-13
	L 43 1
	L 44 1
	L 44 1.317e-12
	L 43 9.506e-13
	L 42 5.842e-13
	L 41 2.179e-13
	L 40 -1.485e-13
	L 40 1
	L 41 1
	L 41 2.18e-13
	L 40 -1.486e-13
	L 39 -5.151e-13
	L 39 1
	L 39 2
	L 40 2
	L 40 1
	L 39 1
	L 39 2
	L 39 3
	L 40 3
	L 41 3
	L 41 2
	L 40 2
	L 40 3
	L 41 3
	L 42 3
	L 42 2
	L 42 1
	L 41 1
	L 41 2
	L 42 2
	L 42 1
	L 42 5.862e-13
	L 41 2.186e-13
	L 40 -1.49e-13
	L 40 1
	L 41 1
	L 41 2.187e-13
	L 40 -1.491e-13
	L 39 -5.169e-13
	L 38 -8.848e-13
	L 37 -1.253e-12
	L 37 1
	L 38 1
	L 38 -8.846e-13
	L 37 -1.253e-12
	L 36 -1.621e-12
	L 36 1
	L 36 2
	L 37 2
	L 37 1
	L 36 1
	L 36 2
	L 36 3
	L 36 4
	L 36 5
	L 37 5
	L 37 4
	L 36 4
	L 36 5
	L 36 6
	L 37 6
	L 38 6
	L 38 5
	L 37 5
	L 37 6
	L 38 6
	L 39 6
	L 39 5
	L 39 4
	L 38 4
	L 38 5
	L 39 5
	L 39 4
	L 39 3
	L 38 3
	L 37 3
	L 37 4
	L 38 4
	L 38 3
	L 37 3
	L 36 3
	L 36 4
	L 36 5
	L 37 5
	L 37 4
	L 36 4
	L 36 5
	L 36 6
	L 36 7
	L 36 8
	L 37 8
	L 37 7
	L 36 7
	L 36 8
	L 36 9
	L 37 9
	L 38 9
	L 38 8
	L 37 8
	L 37 9
	L 38 9
	L 39 9
	L 40 9
	L 41 9
	L 41 8
	L 40 8
	L 40 9
	L 41 9
	L 42 9
	L 42 8
	L 42 7
	L 41 7
	L 41 8
	L 42 8
	L 42 7
	L 42 6
	L 41 6
	L 40 6
	L 40 7
	L 41 7
	L 41 6
	L 40 6
	L 39 6
	L 39 7
	L 39 8
	L 40 8
	L 40 7
	L 39 7
	L 39 8
	L 39 9
	L 40 9
	L 41 9
	L 41 8
	L 40 8
	L 40 9
	L 41 9
	L 42 9
	L 43 9
	L 44 9
	L 44 8
	L 43 8
	L 43 9
	L 44 9
	L 45 9
	L 45 8
	L 45 7
	L 44 7
	L 44 8
	L 45 8
	L 45 7
	L 45 6
	L 45 5
	L 45 4
	L 44 4
	L 44 5
	L 45 5
	L 45 4
	L 45 3
	L 44 3
	L 43 3
	L 43 4
	L 44 4
	L 44 3
	L 43 3
	L 42 3
	L 42 4
	L 42 5
	L 43 5
	L 43 4
	L 42 4
	L 42 5
	L 42 6
	L 43 6
	L 44 6
	L 44 5
	L 43 5
	L 43 6
	L 44 6
	L 45 6
	L 45 5
	L 45 4
	L 44 4
	L 44 5
	L 45 5
	L 45 4
	L 45 3
	L 45 2
	L 45 1
	L 44 1
	L 44 2
	L 45 2
	L 45 1
	L 45 1.723e-12
	L 44 1.349e-12
	L 43 9.747e-13
	L 43 1
	L 44 1
	L 44 1.349e-12
	L 43 9.747e-13
	L 42 6.003e-13
	L 41 2.258e-13
	L 40 -1.486e-13
	L 40 1
	L 41 1
	L 41 2.26e-13
	L 40 -1.486e-13
	L 39 -5.233e-13
	L 39 1
	L 39 2
	L 40 2
	L 40 1
	L 39 1
	L 39 2
	L 39 3
	L 40 3
	L 41 3
	L 41 2
	L 40 2
	L 40 3
	L 41 3
	L 42 3
	L 42 2
	L 42 1
	L 41 1
	L 41 2
	L 42 2
	L 42 1
	L 42 6.022e-13
	L 41 2.265e-13
	L 40 -1.491e-13
	L 40 1
	L 41 1
	L 41 2.267e-13
	L 40 -1.492e-13
	L 39 -5.251e-13
	L 38 -9.01e-13
	L 37 -1.277e-12
	L 37 1
	L 38 1
	L 38 -9.008e-13
	L 37 -1.277e-12
	L 36 -1.653e-12
	L 35 -2.029e-12
	L 34 -2.405e-12
	L 34 1
	L 35 1
	L 35 -2.029e-12
	L 34 -2.406e-12
	L 33 -2.782e-12
	L 32 -3.158e-12
	L 31 -3.535e-12
	L 31 1
	L 32 1
	L 32 -3.158e-12
	L 31 -3.535e-12
	L 30 -3.912e-12
	L 30 1
	L 30 2
	L 31 2
	L 31 1
	L 30 1
	L 30 2
	L 30 3
	L 31 3
	L 32 3
	L 32 2
	L 31 2
	L 31 3
	L 32 3
	L 33 3
	L 33 2
	L 33 1
	L 32 1
	L 32 2
	L 33 2
	L 33 1
	L 33 -2.78e-12
	L 32 -3.158e-12
	L 31 -3.536e-12
	L 31 1
	L 32 1
	L 32 -3.158e-12
	L 31 -3.536e-12
	L 30 -3.914e-12
	L 29 -4.292e-12
	L 28 -4.669e-12
	L 28 1
	L 29 1
	L 29 -4.291e-12
	L 28 -4.67e-12
	L 27 -5.048e-12
	L 26 -5.426e-12
	L 25 -5.804e-12
	L 25 1
	L 26 1
	L 26 -5.426e-12
	L 25 -5.804e-12
	L 24 -6.182e-12
	L 23 -6.561e-12
	L 22 -6.939e-12
	L 22 1
	L 23 1
	L 23 -6.561e-12
	L 22 -6.939e-12
	L 21 -7.318e-12
	L 21 1
	L 21 2
	L 22 2
	L 22 1
	L 21 1
	L 21 2
	L 21 3
	L 22 3
	L 23 3
	L 23 2
	L 22 2
	L 22 3
	L 23 3
	L 24 3
	L 24 2
	L 24 1
	L 23 1
	L 23 2
	L 24 2
	L 24 1
	L 24 -6.181e-12
	L 23 -6.56e-12
	L 22 -6.94e-12
	L 22 1
	L 23 1
	L 23 -6.56e-12
	L 22 -6.94e-12
	L 21 -7.32e-12
	L 20 -7.7e-12
	L 19 -8.079e-12
	L 19 1
	L 20 1
	L 20 -7.7e-12
	L 19 -8.08e-12
	L 18 -8.46e-12
	L 17 -8.84e-12
	L 16 -9.22e-12
	L 16 1
	L 17 1
	L 17 -8.84e-12
	L 16 -9.22e-12
	L 15 -9.6e-12
	L 14 -9.981e-12
	L 13 -1.036e-11
	L 13 1
	L 14 1
	L 14 -9.98e-12
	L 13 -1.036e-11
	L 12 -1.074e-11
	L 12 1
	L 12 2
	L 13 2
	L 13 1
	L 12 1
	L 12 2
	L 12 3
	L 13 3
	L 14 3
	L 14 2
	L 13 2
	L 13 3
	L 14 3
	L 15 3
	L 15 2
	L 15 1
	L 14 1
	L 14 2
	L 15 2
	L 15 1
	L 15 -9.598e-12
	L 14 -9.98e-12
	L 13 -1.036e-11
	L 13 1
	L 14 1
	L 14 -9.98e-12
	L 13 -1.036e-11
	L 12 -1.074e-11
	L 11 -1.113e-11
	L 10 -1.151e-11
	L 10 1
	L 11 1
	L 11 -1.112e-11
	L 10 -1.151e-11
	L 9 -1.189e-11
	L 9 1
	L 9 2
	L 10 2
	L 10 1
	L 9 1
	L 9 2
	L 9 3
	L 9 4
	L 9 5
	L 10 5
	L 10 4
	L 9 4
	L 9 5
	L 9 6
	L 10 6
	L 11 6
	L 11 5
	L 10 5
	L 10 6
	L 11 6
	L 12 6
	L 12 5
	L 12 4
	L 11 4
	L 11 5
	L 12 5
	L 12 4
	L 12 3
	L 11 3
	L 10 3
	L 10 4
	L 11 4
	L 11 3
	L 10 3
	L 9 3
	L 9 4
	L 9 5
	L 10 5
	L 10 4
	L 9 4
	L 9 5
	L 9 6
	L 9 7
	L 9 8
	L 10 8
	L 10 7
	L 9 7
	L 9 8
	L 9 9
	L 10 9
	L 11 9
	L 11 8
	L 10 8
	L 10 9
	L 11 9
	L 12 9
	L 13 9
	L 14 9
	L 14 8
	L 13 8
	L 13 9
	L 14 9
	L 15 9
	L 15 8
	L 15 7
	L 14 7
	L 14 8
	L 15 8
	L 15 7
	L 15 6
	L 14 6
	L 13 6
	L 13 7
	L 14 7
	L 14 6
	L 13 6
	L 12 6
	L 12 7
	L 12 8
	L 13 8
	L 13 7
	L 12 7
	L 12 8
	L 12 9
	L 13 9
	L 14 9
	L 14 8
	L 13 8
	L 13 9
	L 14 9
	L 15 9
	L 16 9
	L 17 9
	L 17 8
	L 16 8
	L 16 9
	L 17 9
	L 18 9
	L 18 8
	L 18 7
	L 17 7
	L 17 8
	L 18 8
	L 18 7
	L 18 6
	L 18 5
	L 18 4
	L 17 4
	L 17 5
	L 18 5
	L 18 4
	L 18 3
	L 17 3
	L 16 3
	L 16 4
	L 17 4
	L 17 3
	L 16 3
	L 15 3
	L 15 4
	L 15 5
	L 16 5
	L 16 4
	L 15 4
	L 15 5
	L 15 6
	L 16 6
	L 17 6
	L 17 5
	L 16 5
	L 16 6
	L 17 6
	L 18 6
	L 18 5
	L 18 4
	L 17 4
	L 17 5
	L 18 5
	L 18 4
	L 18 3
	L 18 2
	L 18 1
	L 17 1
	L 17 2
	L 18 2
	L 18 1
	L 18 -8.424e-12
	L 17 -8.812e-12
	L 16 -9.2e-12
	L 16 1
	L 17 1
	L 17 -8.812e-12
	L 16 -9.201e-12
	L 15 -9.589e-12
	L 14 -9.977e-12
	L 13 -1.037e-11
	L 13 1
	L 14 1
	L 14 -9.977e-12
	L 13 -1.037e-11
	L 12 -1.075e-11
	L 12 1
	L 12 2
	L 13 2
	L 13 1
	L 12 1
	L 12 2
	L 12 3
	L 13 3
	L 14 3
	L 14 2
	L 13 2
	L 13 3
	L 14 3
	L 15 3
	L 15 2
	L 15 1
	L 14 1
	L 14 2
	L 15 2
	L 15 1
	L 15 -9.587e-12
	L 14 -9.976e-12
	L 13 -1.037e-11
	L 13 1
	L 14 1
	L 14 -9.976e-12
	L 13 -1.037e-11
	L 12 -1.076e-11
	L 11 -1.115e-11
	L 10 -1.154e-11
	L 10 1
	L 11 1
	L 11 -1.115e-11
	L 10 -1.154e-11
	L 9 -1.193e-11
	L 8 -1.232e-11
	L 7 -1.271e-11
	L 7 1
	L 8 1
	L 8 -1.232e-11
	L 7 -1.271e-11
	L 6 -1.31e-11
	L 5 -1.349e-11
	L 4 -1.388e-11
	L 4 1
	L 5 1
	L 5 -1.349e-11
	L 4 -1.388e-11
	L 3 -1.427e-11
	L 3 1
	L 3 2
	L 4 2
	L 4 1
	L 3 1
	L 3 2
	L 3 3
	L 4 3
	L 5 3
	L 5 2
	L 4 2
	L 4 3
	L 5 3
	L 6 3
	L 6 2
	L 6 1
	L 5 1
	L 5 2
	L 6 2
	L 6 1
	L 6 -1.309e-11
	L 5 -1.349e-11
	L 4 -1.388e-11
	L 4 1
	L 5 1
	L 5 -1.349e-11
	L 4 -1.388e-11
	L 3 -1.427e-11
	L 2 -1.466e-11
	L 1 -1.505e-11
	L 1 1
	L 2 1
	L 2 -1.466e-11
	L 1 -1.505e-11
	L 1.618e-11 -1.545e-11
"/>
</svg>
