<svg version="1.1" baseProfile="full" xmlns="http://www.w3.org/2000/svg"
width="1024" height="1024"
viewBox="-14 -4 23 23"
>
<rect x="-14" y="-4" width="100%" height="100%" fill="white" />
<path stroke="green" stroke-width="0.04" stroke-linecap="round" fill="none"
transform="scale(1 -1)"
d="	M 0 0
	L 0 1
	L 0 2
	L 1 2
	L 1 3
	L 2 3
	L 2 2
	L 2 1
	L 2 0
	L 2 -1
	L 1 -1
	L 1 -2
	L 2.22e-16 -2
	L -2.288e-17 -1
	L -2.678e-16 0
	L 1 3.062e-16
	L 2 6.123e-16
	L 2 -1
	L 3 -1
	L 3 -2
	L 2 -2
	L 1 -2
	L 1 -3
	L 1 -4
	L 1.332e-15 -4
	L 1.7e-15 -5
	L -1 -5
	L -1 -4
	L -1 -3
	L 7.772e-16 -3
	L 1 -3
	L 1 -4
	L 2 -4
	L 2 -5
	L 1 -5
	L 2.22e-15 -5
	L 1.486e-15 -4
	L 7.509e-16 -3
	L 1 -3
	L 1 -2
	L 2 -2
	L 2 -3
	L 2 -4
	L 2 -5
	L 2 -6
	L 1 -6
	L 1 -7
	L 4.441e-15 -7
	L 3.461e-15 -6
	L 2.481e-15 -5
	L 1.502e-15 -4
	L 5.22e-16 -3
	L 1 -3
	L 1 -2
	L 2 -2
	L 2 -3
	L 2 -4
	L 2 -5
	L 2 -6
	L 1 -6
	L 1 -7
	L 4.219e-15 -7
	L 2.994e-15 -6
	L 1.77e-15 -5
	L 1 -5
	L 2 -5
	L 2 -6
	L 3 -6
	L 3 -7
	L 2 -7
	L 1 -7
	L 1 -8
	L 1 -9
	L 7.105e-15 -9
	L 8.453e-15 -10
	L -1 -10
	L -1 -9
	L -1 -8
	L 5.551e-15 -8
	L 1 -8
	L 1 -9
	L 2 -9
	L 2 -10
	L 1 -10
	L 8.882e-15 -10
	L 7.167e-15 -9
	L 5.453e-15 -8
	L 1 -8
	L 1 -7
	L 2 -7
	L 2 -8
	L 2 -9
	L 2 -10
	L 2 -11
	L 1 -11
	L 1 -12
	L 1.243e-14 -12
	L 1.048e-14 -11
	L 8.516e-15 -10
	L 1 -10
	L 2 -10
	L 2 -11
	L 3 -11
	L 3 -12
	L 2 -12
	L 1 -12
	L 1.288e-14 -12
	L -1 -12
	L -1 -11
	L -2 -11
	L -2 -10
	L -1 -10
	L 8.438e-15 -10
	L 1.076e-14 -11
	L 1.309e-14 -12
	L -1 -12
	L -1 -13
	L -2 -13
	L -2 -12
	L -2 -11
	L -3 -11
	L -4 -11
	L -4 -10
	L -5 -10
	L -5 -9
	L -4 -9
	L -3 -9
	L -3 -10
	L -3 -11
	L -4 -11
	L -4 -12
	L -5 -12
	L -5 -11
	L -5 -10
	L -4 -10
	L -3 -10
	L -3 -11
	L -2 -11
	L -2 -12
	L -3 -12
	L -4 -12
	L -5 -12
	L -6 -12
	L -6 -11
	L -7 -11
	L -7 -10
	L -6 -10
	L -5 -10
	L -5 -9
	L -5 -8
	L -4 -8
	L -4 -7
	L -3 -7
	L -3 -8
	L -3 -9
	L -3 -10
	L -3 -11
	L -4 -11
	L -4 -12
	L -5 -12
	L -5 -11
	L -5 -10
	L -4 -10
	L -3 -10
	L -3 -11
	L -2 -11
	L -2 -12
	L -3 -12
	L -4 -12
	L -4 -13
	L -4 -14
	L -5 -14
	L -5 -15
	L -6 -15
	L -6 -14
	L -6 -13
	L -5 -13
	L -4 -13
	L -4 -14
	L -3 -14
	L -3 -15
	L -4 -15
	L -5 -15
	L -5 -14
	L -5 -13
	L -4 -13
	L -4 -12
	L -3 -12
	L -3 -13
	L -3 -14
	L -3 -15
	L -3 -16
	L -4 -16
	L -4 -17
	L -5 -17
	L -5 -16
	L -5 -15
	L -4 -15
	L -3 -15
	L -3 -16
	L -2 -16
	L -2 -17
	L -3 -17
	L -4 -17
	L -5 -17
	L -6 -17
	L -6 -16
	L -7 -16
	L -7 -15
	L -6 -15
	L -5 -15
	L -5 -16
	L -5 -17
	L -6 -17
	L -6 -18
	L -7 -18
	L -7 -17
	L -7 -16
	L -8 -16
	L -9 -16
	L -9 -15
	L -10 -15
	L -10 -14
	L -9 -14
	L -8 -14
	L -8 -15
	L -8 -16
	L -9 -16
	L -9 -17
	L -10 -17
	L -10 -16
	L -10 -15
	L -9 -15
	L -8 -15
	L -8 -16
	L -7 -16
	L -7 -17
	L -8 -17
	L -9 -17
	L -10 -17
	L -11 -17
	L -11 -16
	L -12 -16
	L -12 -15
	L -11 -15
	L -10 -15
	L -10 -16
	L -10 -17
	L -11 -17
	L -11 -18
	L -12 -18
	L -12 -17
	L -12 -16
	L -12 -15
	L -12 -14
	L -11 -14
	L -11 -13
	L -10 -13
	L -10 -14
	L -10 -15
	L -11 -15
	L -12 -15
	L -12 -14
	L -13 -14
	L -13 -13
	L -12 -13
	L -11 -13
	L -11 -12
	L -11 -11
	L -10 -11
	L -10 -10
	L -9 -10
	L -9 -11
	L -9 -12
	L -10 -12
	L -11 -12
	L -11 -11
	L -12 -11
	L -12 -10
	L -11 -10
	L -10 -10
	L -10 -11
	L -10 -12
	L -11 -12
	L -11 -13
	L -12 -13
	L -12 -12
	L -12 -11
	L -12 -10
	L -12 -9
	L -11 -9
	L -11 -8
	L -10 -8
	L -10 -9
	L -10 -10
	L -10 -11
	L -10 -12
	L -11 -12
	L -11 -13
	L -12 -13
	L -12 -12
	L -12 -11
	L -12 -10
	L -12 -9
	L -11 -9
	L -11 -8
	L -10 -8
	L -10 -9
	L -10 -10
	L -11 -10
	L -12 -10
	L -12 -9
	L -13 -9
	L -13 -8
	L -12 -8
	L -11 -8
	L -11 -7
	L -11 -6
	L -10 -6
	L -10 -5
	L -9 -5
	L -9 -6
	L -9 -7
	L -10 -7
	L -11 -7
	L -11 -6
	L -12 -6
	L -12 -5
	L -11 -5
	L -10 -5
	L -10 -6
	L -10 -7
	L -11 -7
	L -11 -8
	L -12 -8
	L -12 -7
	L -12 -6
	L -12 -5
	L -12 -4
	L -11 -4
	L -11 -3
	L -10 -3
	L -10 -4
	L -10 -5
	L -11 -5
	L -12 -5
	L -12 -4
	L -13 -4
	L -13 -3
	L -12 -3
	L -11 -3
	L -10 -3
	L -9 -3
	L -9 -4
	L -8 -4
	L -8 -5
	L -9 -5
	L -10 -5
	L -10 -4
	L -10 -3
	L -9 -3
	L -9 -2
	L -8 -2
	L -8 -3
	L -8 -4
	L -7 -4
	L -6 -4
	L -6 -5
	L -5 -5
	L -5 -6
	L -6 -6
	L -7 -6
	L -7 -5
	L -7 -4
	L -6 -4
	L -6 -3
	L -5 -3
	L -5 -4
	L -5 -5
	L -6 -5
	L -7 -5
	L -7 -4
	L -8 -4
	L -8 -3
	L -7 -3
	L -6 -3
	L -5 -3
	L -4 -3
	L -4 -4
	L -3 -4
	L -3 -5
	L -4 -5
	L -5 -5
	L -6 -5
	L -7 -5
	L -7 -4
	L -8 -4
	L -8 -3
	L -7 -3
	L -6 -3
	L -5 -3
	L -4 -3
	L -4 -4
	L -3 -4
	L -3 -5
	L -4 -5
	L -5 -5
	L -5 -4
	L -5 -3
	L -4 -3
	L -4 -2
	L -3 -2
	L -3 -3
	L -3 -4
	L -2 -4
	L -1 -4
	L -1 -5
	L -3.419e-14 -5
	L -2.574e-14 -6
	L -1 -6
	L -2 -6
	L -2 -5
	L -2 -4
	L -1 -4
	L -1 -3
	L -5.129e-14 -3
	L -4.26e-14 -4
	L -3.39e-14 -5
	L -1 -5
	L -2 -5
	L -2 -4
	L -3 -4
	L -3 -3
	L -2 -3
	L -1 -3
	L -5.151e-14 -3
	L 1 -3
	L 1 -4
	L 2 -4
	L 2 -5
	L 1 -5
	L -3.375e-14 -5
	L -4.281e-14 -4
	L -5.188e-14 -3
	L 1 -3
	L 1 -2
	L 2 -2
	L 2 -3
	L 2 -4
	L 2 -5
	L 2 -6
	L 1 -6
	L 1 -7
	L -1.521e-14 -7
	L -2.452e-14 -6
	L -3.382e-14 -5
	L 1 -5
	L 2 -5
	L 2 -6
	L 3 -6
	L 3 -7
	L 2 -7
	L 1 -7
	L 1 -8
	L 1 -9
	L 3.775e-15 -9
	L 1.32e-14 -10
	L -1 -10
	L -1 -9
	L -1 -8
	L -5.995e-15 -8
	L 1 -8
	L 1 -9
	L 2 -9
	L 2 -10
	L 1 -10
	L 1.332e-14 -10
	L 3.526e-15 -9
	L -6.272e-15 -8
	L 1 -8
	L 1 -7
	L 2 -7
	L 2 -8
	L 2 -9
	L 2 -10
	L 2 -11
	L 1 -11
	L 1 -12
	L 3.353e-14 -12
	L 2.349e-14 -11
	L 1.344e-14 -10
	L -1 -10
	L -2 -10
	L -2 -9
	L -3 -9
	L -3 -8
	L -2 -8
	L -1 -8
	L -6.661e-15 -8
	L 1 -8
	L 1 -9
	L 2 -9
	L 2 -10
	L 1 -10
	L 1.377e-14 -10
	L 3.48e-15 -9
	L -6.807e-15 -8
	L 1 -8
	L 1 -7
	L 2 -7
	L 2 -8
	L 2 -9
	L 3 -9
	L 4 -9
	L 4 -10
	L 5 -10
	L 5 -11
	L 4 -11
	L 3 -11
	L 3 -10
	L 3 -9
	L 4 -9
	L 4 -8
	L 5 -8
	L 5 -9
	L 5 -10
	L 4 -10
	L 3 -10
	L 3 -9
	L 2 -9
	L 2 -8
	L 3 -8
	L 4 -8
	L 5 -8
	L 6 -8
	L 6 -9
	L 7 -9
	L 7 -10
	L 6 -10
	L 5 -10
	L 5 -9
	L 5 -8
	L 6 -8
	L 6 -7
	L 7 -7
	L 7 -8
	L 7 -9
	L 7 -10
	L 7 -11
	L 6 -11
	L 6 -12
	L 5 -12
	L 5 -11
	L 5 -10
	L 6 -10
	L 7 -10
	L 7 -11
	L 8 -11
	L 8 -12
	L 7 -12
	L 6 -12
	L 6 -13
	L 6 -14
	L 5 -14
	L 5 -15
	L 4 -15
	L 4 -14
	L 4 -13
	L 5 -13
	L 6 -13
	L 6 -14
	L 7 -14
	L 7 -15
	L 6 -15
	L 5 -15
	L 5 -14
	L 5 -13
	L 6 -13
	L 6 -12
	L 7 -12
	L 7 -13
	L 7 -14
	L 7 -15
	L 7 -16
	L 6 -16
	L 6 -17
	L 5 -17
	L 5 -16
	L 5 -15
	L 6 -15
	L 7 -15
	L 7 -16
	L 8 -16
	L 8 -17
	L 7 -17
	L 6 -17
	L 5 -17
	L 4 -17
	L 4 -16
	L 3 -16
	L 3 -15
	L 4 -15
	L 5 -15
	L 5 -16
	L 5 -17
	L 4 -17
	L 4 -18
	L 3 -18
	L 3 -17
	L 3 -16
	L 2 -16
	L 1 -16
	L 1 -15
	L 7.283e-14 -15
	L 6.034e-14 -14
	L 1 -14
	L 2 -14
	L 2 -15
	L 2 -16
	L 1 -16
	L 1 -17
	L 9.792e-14 -17
	L 8.519e-14 -16
	L 7.245e-14 -15
	L 1 -15
	L 2 -15
	L 2 -16
	L 3 -16
	L 3 -17
	L 2 -17
	L 1 -17
	L 9.814e-14 -17
	L -1 -17
	L -1 -16
	L -2 -16
	L -2 -15
	L -1 -15
	L 7.239e-14 -15
	L 1 -15
	L 2 -15
	L 2 -16
	L 3 -16
	L 3 -17
	L 2 -17
	L 1 -17
	L 9.903e-14 -17
	L -1 -17
	L -1 -16
	L -2 -16
	L -2 -15
	L -1 -15
	L 7.239e-14 -15
	L 8.574e-14 -16
	L 9.908e-14 -17
	L -1 -17
	L -1 -18
	L -2 -18
	L -2 -17
	L -2 -16
	L -3 -16
	L -4 -16
	L -4 -15
	L -5 -15
	L -5 -14
	L -4 -14
	L -3 -14
	L -3 -15
	L -3 -16
	L -4 -16
	L -4 -17
	L -5 -17
	L -5 -16
	L -5 -15
	L -4 -15
	L -3 -15
	L -3 -16
	L -2 -16
	L -2 -17
	L -3 -17
	L -4 -17
	L -5 -17
	L -6 -17
	L -6 -16
	L -7 -16
	L -7 -15
	L -6 -15
	L -5 -15
	L -5 -16
	L -5 -17
	L -6 -17
	L -6 -18
	L -7 -18
	L -7 -17
	L -7 -16
	L -7 -15
	L -7 -14
	L -6 -14
	L -6 -13
	L -5 -13
	L -5 -14
	L -5 -15
	L -6 -15
	L -7 -15
	L -7 -14
	L -8 -14
	L -8 -13
	L -7 -13
	L -6 -13
	L -6 -12
	L -6 -11
	L -5 -11
	L -5 -10
	L -4 -10
	L -4 -11
	L -4 -12
	L -5 -12
	L -6 -12
	L -6 -11
	L -7 -11
	L -7 -10
	L -6 -10
	L -5 -10
	L -5 -11
	L -5 -12
	L -6 -12
	L -6 -13
	L -7 -13
	L -7 -12
	L -7 -11
	L -7 -10
	L -7 -9
	L -6 -9
	L -6 -8
	L -5 -8
	L -5 -9
	L -5 -10
	L -5 -11
	L -5 -12
	L -6 -12
	L -6 -13
	L -7 -13
	L -7 -12
	L -7 -11
	L -7 -10
	L -7 -9
	L -6 -9
	L -6 -8
	L -5 -8
	L -5 -9
	L -5 -10
	L -6 -10
	L -7 -10
	L -7 -9
	L -8 -9
	L -8 -8
	L -7 -8
	L -6 -8
	L -6 -7
	L -6 -6
	L -5 -6
	L -5 -5
	L -4 -5
	L -4 -6
	L -4 -7
	L -5 -7
	L -6 -7
	L -6 -6
	L -7 -6
	L -7 -5
	L -6 -5
	L -5 -5
	L -5 -6
	L -5 -7
	L -6 -7
	L -6 -8
	L -7 -8
	L -7 -7
	L -7 -6
	L -7 -5
	L -7 -4
	L -6 -4
	L -6 -3
	L -5 -3
	L -5 -4
	L -5 -5
	L -6 -5
	L -7 -5
	L -7 -4
	L -8 -4
	L -8 -3
	L -7 -3
	L -6 -3
	L -5 -3
	L -4 -3
	L -4 -4
	L -3 -4
	L -3 -5
	L -4 -5
	L -5 -5
	L -5 -4
	L -5 -3
	L -4 -3
	L -4 -2
	L -3 -2
	L -3 -3
	L -3 -4
	L -2 -4
	L -1 -4
	L -1 -5
	L -7.505e-14 -5
	L -5.852e-14 -6
	L -1 -6
	L -2 -6
	L -2 -5
	L -2 -4
	L -1 -4
	L -1 -3
	L -1.09e-13 -3
	L -9.225e-14 -4
	L -7.547e-14 -5
	L -1 -5
	L -2 -5
	L -2 -4
	L -3 -4
	L -3 -3
	L -2 -3
	L -1 -3
	L -1.092e-13 -3
	L 1 -3
	L 1 -4
	L 2 -4
	L 2 -5
	L 1 -5
	L -7.527e-14 -5
	L -5.825e-14 -6
	L -4.123e-14 -7
	L -1 -7
	L -1 -8
	L -2 -8
	L -2 -7
	L -2 -6
	L -2 -5
	L -2 -4
	L -1 -4
	L -1 -3
	L -1.104e-13 -3
	L -9.309e-14 -4
	L -7.582e-14 -5
	L -1 -5
	L -2 -5
	L -2 -4
	L -3 -4
	L -3 -3
	L -2 -3
	L -1 -3
	L -1 -2
	L -1 -1
	L -1.448e-13 -1
	L -1.622e-13 6.85e-14
	L 1 8.595e-14
	L 1 -1
	L 1 -2
	L -1.271e-13 -2
	L -1 -2
	L -1 -1
	L -2 -1
	L -2 3.331e-14
	L -1 5.1e-14
	L -1.625e-13 6.87e-14
	L -1.448e-13 -1
	L -1.27e-13 -2
	L -1 -2
	L -1 -3
	L -2 -3
	L -2 -2
	L -2 -1
	L -2 3.331e-14
	L -2 1
	L -1 1
	L -1 2
	L -1.983e-13 2
	L -1.803e-13 1
	L -1.623e-13 6.928e-14
	L -1 5.121e-14
	L -2 3.315e-14
	L -2 1
	L -3 1
	L -3 2
	L -2 2
	L -1 2
	L -1.99e-13 2
	L 1 2
	L 1 1
	L 2 1
	L 2 1.061e-13
	L 1 8.783e-14
	L -1.625e-13 6.952e-14
	L -1.809e-13 1
	L -1.993e-13 2
	L 1 2
	L 1 3
	L 2 3
	L 2 2
	L 2 1
	L 3 1
	L 4 1
	L 4 1.434e-13
	L 5 1.619e-13
	L 5 -1
	L 4 -1
	L 3 -1
	L 3 1.248e-13
	L 3 1
	L 4 1
	L 4 2
	L 5 2
	L 5 1
	L 5 1.621e-13
	L 4 1.433e-13
	L 3 1.245e-13
	L 3 1
	L 2 1
	L 2 2
	L 3 2
	L 4 2
	L 5 2
	L 6 2
	L 6 1
	L 7 1
	L 7 2.01e-13
	L 6 1.819e-13
	L 5 1.629e-13
	L 5 1
	L 5 2
	L 6 2
	L 6 3
	L 7 3
	L 7 2
	L 7 1
	L 7 2.007e-13
	L 7 -1
	L 6 -1
	L 6 -2
	L 5 -2
	L 5 -1
	L 5 1.621e-13
	L 6 1.815e-13
	L 7 2.009e-13
	L 7 -1
	L 8 -1
	L 8 -2
	L 7 -2
	L 6 -2
	L 6 -3
	L 6 -4
	L 5 -4
	L 5 -5
	L 4 -5
	L 4 -4
	L 4 -3
	L 5 -3
	L 6 -3
	L 6 -4
	L 7 -4
	L 7 -5
	L 6 -5
	L 5 -5
	L 5 -4
	L 5 -3
	L 6 -3
	L 6 -2
	L 7 -2
	L 7 -3
	L 7 -4
	L 7 -5
	L 7 -6
	L 6 -6
	L 6 -7
	L 5 -7
	L 5 -6
	L 5 -5
	L 5 -4
	L 5 -3
	L 6 -3
	L 6 -2
	L 7 -2
	L 7 -3
	L 7 -4
	L 7 -5
	L 7 -6
	L 6 -6
	L 6 -7
	L 5 -7
	L 5 -6
	L 5 -5
	L 6 -5
	L 7 -5
	L 7 -6
	L 8 -6
	L 8 -7
	L 7 -7
	L 6 -7
	L 6 -8
	L 6 -9
	L 5 -9
	L 5 -10
	L 4 -10
	L 4 -9
	L 4 -8
	L 5 -8
	L 6 -8
	L 6 -9
	L 7 -9
	L 7 -10
	L 6 -10
	L 5 -10
	L 5 -9
	L 5 -8
	L 6 -8
	L 6 -7
	L 7 -7
	L 7 -8
	L 7 -9
	L 7 -10
	L 7 -11
	L 6 -11
	L 6 -12
	L 5 -12
	L 5 -11
	L 5 -10
	L 6 -10
	L 7 -10
	L 7 -11
	L 8 -11
	L 8 -12
	L 7 -12
	L 6 -12
	L 5 -12
	L 4 -12
	L 4 -11
	L 3 -11
	L 3 -10
	L 4 -10
	L 5 -10
	L 5 -11
	L 5 -12
	L 4 -12
	L 4 -13
	L 3 -13
	L 3 -12
	L 3 -11
	L 2 -11
	L 1 -11
	L 1 -10
	L 3.797e-14 -10
	L 1.642e-14 -9
	L 1 -9
	L 2 -9
	L 2 -10
	L 2 -11
	L 1 -11
	L 1 -12
	L 8.171e-14 -12
	L 5.991e-14 -11
	L 3.811e-14 -10
	L 1 -10
	L 2 -10
	L 2 -11
	L 3 -11
	L 3 -12
	L 2 -12
	L 1 -12
	L 8.171e-14 -12
	L -1 -12
	L -1 -11
	L -2 -11
	L -2 -10
	L -1 -10
	L 3.753e-14 -10
	L 1 -10
	L 2 -10
	L 2 -11
	L 3 -11
	L 3 -12
	L 2 -12
	L 1 -12
	L 8.171e-14 -12
	L -1 -12
	L -1 -11
	L -2 -11
	L -2 -10
	L -1 -10
	L 3.73e-14 -10
	L 5.971e-14 -11
	L 8.213e-14 -12
	L -1 -12
	L -1 -13
	L -2 -13
	L -2 -12
	L -2 -11
	L -3 -11
	L -4 -11
	L -4 -10
	L -5 -10
	L -5 -9
	L -4 -9
	L -3 -9
	L -3 -10
	L -3 -11
	L -4 -11
	L -4 -12
	L -5 -12
	L -5 -11
	L -5 -10
	L -4 -10
	L -3 -10
	L -3 -11
	L -2 -11
	L -2 -12
	L -3 -12
	L -4 -12
	L -5 -12
	L -6 -12
	L -6 -11
	L -7 -11
	L -7 -10
	L -6 -10
	L -5 -10
	L -5 -11
	L -5 -12
	L -6 -12
	L -6 -13
	L -7 -13
	L -7 -12
	L -7 -11
	L -7 -10
	L -7 -9
	L -6 -9
	L -6 -8
	L -5 -8
	L -5 -9
	L -5 -10
	L -6 -10
	L -7 -10
	L -7 -9
	L -8 -9
	L -8 -8
	L -7 -8
	L -6 -8
	L -6 -7
	L -6 -6
	L -5 -6
	L -5 -5
	L -4 -5
	L -4 -6
	L -4 -7
	L -5 -7
	L -6 -7
	L -6 -6
	L -7 -6
	L -7 -5
	L -6 -5
	L -5 -5
	L -5 -6
	L -5 -7
	L -6 -7
	L -6 -8
	L -7 -8
	L -7 -7
	L -7 -6
	L -7 -5
	L -7 -4
	L -6 -4
	L -6 -3
	L -5 -3
	L -5 -4
	L -5 -5
	L -4 -5
	L -3 -5
	L -3 -6
	L -2 -6
	L -2 -7
	L -3 -7
	L -4 -7
	L -5 -7
	L -6 -7
	L -6 -6
	L -7 -6
	L -7 -5
	L -6 -5
	L -5 -5
	L -5 -6
	L -5 -7
	L -6 -7
	L -6 -8
	L -7 -8
	L -7 -7
	L -7 -6
	L -8 -6
	L -9 -6
	L -9 -5
	L -10 -5
	L -10 -4
	L -9 -4
	L -8 -4
	L -8 -5
	L -8 -6
	L -9 -6
	L -9 -7
	L -10 -7
	L -10 -6
	L -10 -5
	L -9 -5
	L -8 -5
	L -8 -6
	L -7 -6
	L -7 -7
	L -8 -7
	L -9 -7
	L -10 -7
	L -11 -7
	L -11 -6
	L -12 -6
	L -12 -5
	L -11 -5
	L -10 -5
	L -10 -6
	L -10 -7
	L -11 -7
	L -11 -8
	L -12 -8
	L -12 -7
	L -12 -6
	L -12 -5
	L -12 -4
	L -11 -4
	L -11 -3
	L -10 -3
	L -10 -4
	L -10 -5
	L -11 -5
	L -12 -5
	L -12 -4
	L -13 -4
	L -13 -3
	L -12 -3
	L -11 -3
	L -11 -2
	L -11 -1
	L -10 -1
	L -10 -1.93e-13
	L -9 -1.674e-13
	L -9 -1
	L -9 -2
	L -10 -2
	L -11 -2
	L -11 -1
	L -12 -1
	L -12 -2.447e-13
	L -11 -2.189e-13
	L -10 -1.931e-13
	L -10 -1
	L -10 -2
	L -11 -2
	L -11 -3
	L -12 -3
	L -12 -2
	L -12 -1
	L -12 -2.447e-13
	L -12 1
	L -11 1
	L -11 2
	L -10 2
	L -10 1
	L -10 -1.927e-13
	L -11 -2.189e-13
	L -12 -2.45e-13
	L -12 1
	L -13 1
	L -13 2
	L -12 2
	L -11 2
	L -10 2
	L -9 2
	L -9 1
	L -8 1
	L -8 -1.402e-13
	L -9 -1.666e-13
	L -10 -1.93e-13
	L -10 1
	L -10 2
	L -9 2
	L -9 3
	L -8 3
	L -8 2
	L -8 1
	L -7 1
	L -6 1
	L -6 -8.682e-14
	L -5 -6.031e-14
	L -5 -1
	L -6 -1
	L -7 -1
	L -7 -1.137e-13
	L -7 1
	L -6 1
	L -6 2
	L -5 2
	L -5 1
	L -5 -6.017e-14
	L -6 -8.706e-14
	L -7 -1.139e-13
	L -7 1
	L -8 1
	L -8 2
	L -7 2
	L -6 2
	L -5 2
	L -4 2
	L -4 1
	L -3 1
	L -3 -5.44e-15
	L -4 -3.257e-14
	L -5 -5.969e-14
	L -6 -8.682e-14
	L -7 -1.139e-13
	L -7 1
	L -8 1
	L -8 2
	L -7 2
	L -6 2
	L -5 2
	L -4 2
	L -4 1
	L -3 1
	L -3 -4.552e-15
	L -4 -3.192e-14
	L -5 -5.929e-14
	L -5 1
	L -5 2
	L -4 2
	L -4 3
	L -3 3
	L -3 2
	L -3 1
	L -2 1
	L -1 1
	L -1 5.063e-14
	L -2.061e-13 7.812e-14
	L -1.785e-13 -1
	L -1 -1
	L -2 -1
	L -2 2.287e-14
	L -2 1
	L -1 1
	L -1 2
	L -2.613e-13 2
	L -2.335e-13 1
	L -2.057e-13 7.816e-14
	L -1 5.03e-14
	L -2 2.244e-14
	L -2 1
	L -3 1
	L -3 2
	L -2 2
	L -1 2
	L -2.62e-13 2
	L 1 2
	L 1 1
	L 2 1
	L 2 1.346e-13
	L 1 1.065e-13
	L -2.061e-13 7.835e-14
"/>
</svg>
