<svg version="1.1" baseProfile="full" xmlns="http://www.w3.org/2000/svg"
width="584.6" height="1024"
viewBox="-11.05 -25.57 17.11 29.96"
>
<rect x="-11.05" y="-25.57" width="100%" height="100%" fill="white" />
<path stroke="green" stroke-width="0.04" stroke-linecap="round" fill="none"
transform="scale(1 -1)"
d="	M 0 0
	L 0 1
	L -0.3827 1.924
	L -0.3827 2.924
	L -0.7654 3.848
	L -1.472 4.555
	L -1.855 5.479
	L -1.855 6.479
	L -1.472 7.403
	L -1.472 8.403
	L -1.855 9.327
	L -2.562 10.03
	L -3.486 10.42
	L -4.193 11.12
	L -5.117 11.51
	L -6.117 11.51
	L -7.041 11.12
	L -8.041 11.12
	L -8.965 10.74
	L -9.672 10.03
	L -10.05 9.11
	L -10.05 8.11
	L -9.672 7.186
	L -9.672 6.186
	L -9.289 5.262
	L -8.582 4.555
	L -8.2 3.631
	L -7.492 2.924
	L -7.11 2
	L -7.11 1
	L -7.492 0.07612
	L -7.492 -0.9239
	L -7.11 -1.848
	M 0 0
	L 1 -1.11e-16
	L 1.924 0.3827
	L 2.631 1.09
	L 3.014 2.014
	L 3.014 3.014
	L 2.631 3.938
	L 1.924 4.645
	L 1.541 5.569
	L 1.541 6.569
	L 1.924 7.492
	L 1.924 8.492
	L 2.307 9.416
	L 2.307 10.42
	L 1.924 11.34
	L 1.217 12.05
	L 0.8341 12.97
	L 0.127 13.68
	L -0.2557 14.6
	L -0.9628 15.31
	L -1.345 16.23
	L -1.345 17.23
	L -1.728 18.16
	L -1.728 19.16
	L -2.111 20.08
	L -2.111 21.08
	L -1.728 22
	L -1.021 22.71
	L -0.09719 23.09
	L 0.9028 23.09
	L 1.827 23.48
	L 2.534 24.18
	L 3.458 24.57
	M 0 0
	L -1 -1.11e-16
	L -1.924 0.3827
	L -2.631 1.09
	L -3.014 2.014
	L -3.014 3.014
	L -3.396 3.938
	L -4.103 4.645
	L -4.486 5.569
	L -4.486 6.569
	L -4.869 7.492
	L -5.576 8.2
	L -5.959 9.123
	L -5.959 10.12
	L -6.341 11.05
	L -6.341 12.05
	L -5.959 12.97
	L -5.252 13.68
	L -4.328 14.06
	L -3.621 14.77
	L -2.697 15.15
	L -1.697 15.15
	L -0.7728 14.77
	L -0.06566 14.06
	L 0.8582 13.68
	L 1.565 12.97
	L 1.948 12.05
	L 2.655 11.34
	L 3.579 10.96
	L 4.286 10.25
	L 4.669 9.327
	L 4.669 8.327
	L 5.051 7.403
	M 0 0
	L 1.665e-16 -1
	L -0.3827 -1.924
	L -1.09 -2.631
	L -2.014 -3.014
	L -3.014 -3.014
	L -3.938 -3.396
	L -4.938 -3.396
	L -5.861 -3.014
	L -6.569 -2.307
	L -7.492 -1.924
	L -8.2 -1.217
	L -8.582 -0.2929
	L -8.582 0.7071
	L -8.965 1.631
	L -8.965 2.631
	L -8.582 3.555
	L -7.875 4.262
	L -6.951 4.645
	L -6.244 5.352
	L -5.861 6.276
	L -5.154 6.983
	L -4.772 7.907
	L -4.772 8.907
	L -4.389 9.831
	L -3.682 10.54
	L -3.299 11.46
	L -2.592 12.17
	L -1.668 12.55
	L -0.6682 12.55
	L 0.2557 12.93
	L 1.256 12.93
	L 2.18 13.32
"/>
</svg>
