<svg version="1.1" baseProfile="full" xmlns="http://www.w3.org/2000/svg"
width="444.8" height="1024"
viewBox="-11.62 -28.06 12.62 29.06"
>
<rect x="-11.62" y="-28.06" width="100%" height="100%" fill="white" />
<path stroke="green" stroke-width="0.04" stroke-linecap="round" fill="none"
transform="scale(1 -1)"
d="	M 0 0
	L 0 1
	L -0.3827 1.924
	L -0.3827 2.924
	L -0.7654 3.848
	L -1.472 4.555
	L -1.855 5.479
	L -2.562 6.186
	L -2.945 7.11
	L -2.945 8.11
	L -3.328 9.034
	L -3.328 10.03
	L -3.71 10.96
	L -4.417 11.66
	L -4.8 12.59
	L -4.8 13.59
	L -5.183 14.51
	L -5.89 15.22
	L -6.814 15.6
	L -7.521 16.31
	L -8.445 16.69
	L -9.152 17.4
	L -9.535 18.32
	L -10.24 19.03
	L -10.62 19.95
	L -10.62 20.95
	L -10.24 21.88
	L -10.24 22.88
	L -9.859 23.8
	L -9.152 24.51
	L -8.769 25.43
	L -8.062 26.14
	L -7.679 27.06
"/>
</svg>
