<svg version="1.1" baseProfile="full" xmlns="http://www.w3.org/2000/svg"
width="176.6" height="1024"
viewBox="-4.824 -63.69 11.16 64.69"
>
<rect x="-4.824" y="-63.69" width="100%" height="100%" fill="white" />
<path stroke="green" stroke-width="0.04" stroke-linecap="round" fill="none"
transform="scale(1 -1)"
d="	M 0 1
	L -0.2079 1.978
	M 0 2
	L 0.2079 2.978
	M 0.2079 3.978
	L 0.2079 4.978
	M 0 3
	L 0.2079 3.978
	L 0.4158 4.956
	M 0 4
	L 0.2079 4.978
	M 0.2079 5.978
	L 0.6146 6.892
	M 0.4158 7.956
	L 0.2079 8.934
	M 0.4158 8.956
	L 0.6237 9.934
	M 0.4158 6.956
	L 0.4158 7.956
	L 0.4158 8.956
	L 0.4158 9.956
	M 0.6237 7.934
	L 1.03 8.848
	M 1.238 9.826
	L 1.446 10.8
	M 0.8316 8.913
	L 1.238 9.826
	L 1.645 10.74
	M 1.04 9.891
	L 1.446 10.8
	M 0 5
	L 0.2079 5.978
	L 0.4158 6.956
	L 0.6237 7.934
	L 0.8316 8.913
	L 1.04 9.891
	L 1.247 10.87
	M 0 6
	L 0.2079 6.978
	M 0.2079 7.978
	L 0.2079 8.978
	M 0.4158 8.956
	L 0.8226 9.87
	M 0 7
	L 0.2079 7.978
	L 0.4158 8.956
	L 0.6237 9.934
	M 0 8
	L -0.2079 8.978
	M 0 9
	L 0.2079 9.978
	M -0.2079 10.98
	L -0.2079 11.98
	M -0.8226 12.87
	L -1.41 13.68
	M -1.229 13.78
	L -1.437 14.76
	M -0.4158 11.96
	L -0.8226 12.87
	L -1.229 13.78
	L -1.636 14.7
	M -0.6237 12.93
	L -1.03 13.85
	M -0.8316 14.91
	L -0.6237 15.89
	M -1.04 16.89
	L -1.04 17.89
	M -0.8316 15.91
	L -1.04 16.89
	L -1.247 17.87
	M -0.8316 16.91
	L -1.04 17.89
	M -0.8316 17.91
	L -0.6237 18.89
	M -0.6237 19.89
	L -0.217 20.8
	M -0.8316 18.91
	L -0.6237 19.89
	L -0.4158 20.87
	M -0.8316 19.91
	L -0.6237 20.89
	M -0.8316 13.91
	L -0.8316 14.91
	L -0.8316 15.91
	L -0.8316 16.91
	L -0.8316 17.91
	L -0.8316 18.91
	L -0.8316 19.91
	L -0.8316 20.91
	M -1.04 14.89
	L -1.446 15.8
	M -1.654 16.78
	L -2.242 17.59
	M -1.247 15.87
	L -1.654 16.78
	L -2.061 17.7
	M -1.455 16.85
	L -1.862 17.76
	M 0 10
	L -0.2079 10.98
	L -0.4158 11.96
	L -0.6237 12.93
	L -0.8316 13.91
	L -1.04 14.89
	L -1.247 15.87
	L -1.455 16.85
	L -1.663 17.83
	M 0 11
	L 0.2079 11.98
	M 0.2079 12.98
	L 0.6146 13.89
	M 0 12
	L 0.2079 12.98
	L 0.4158 13.96
	M 0 13
	L -0.2079 13.98
	M -0.2079 14.98
	L -0.6146 15.89
	M -0.4158 16.96
	L -0.6237 17.93
	M -0.4158 15.96
	L -0.4158 16.96
	L -0.4158 17.96
	M -0.6237 16.93
	L -1.03 17.85
	M 0 14
	L -0.2079 14.98
	L -0.4158 15.96
	L -0.6237 16.93
	L -0.8316 17.91
	M 0 15
	L -0.2079 15.98
	M 0 16
	L 0.2079 16.98
	M 0.2079 17.98
	L 0.2079 18.98
	M 0.4158 18.96
	L 0.8226 19.87
	M 0 17
	L 0.2079 17.98
	L 0.4158 18.96
	L 0.6237 19.93
	M 0 18
	L -0.2079 18.98
	M 0.2079 19.98
	L 0.2079 20.98
	M 0.4158 20.96
	L 0.8226 21.87
	M 0.6237 22.93
	L 0.8316 23.91
	M 0.6237 21.93
	L 0.6237 22.93
	L 0.6237 23.93
	M 0.8316 22.91
	L 0.8316 23.91
	M 1.04 23.89
	L 1.446 24.8
	M 1.247 25.87
	L 1.455 26.85
	M 1.04 27.85
	L 0.6328 28.76
	M 1.247 26.87
	L 1.04 27.85
	L 0.8316 28.83
	M 1.247 27.87
	L 1.455 28.85
	M 1.455 29.85
	L 1.455 30.85
	M 1.247 28.87
	L 1.455 29.85
	L 1.663 30.83
	M 1.247 29.87
	L 1.455 30.85
	M 1.247 24.87
	L 1.247 25.87
	L 1.247 26.87
	L 1.247 27.87
	L 1.247 28.87
	L 1.247 29.87
	L 1.247 30.87
	M 1.455 25.85
	L 1.455 26.85
	M 1.663 26.83
	L 2.07 27.74
	M 1.871 28.8
	L 1.663 29.78
	M 1.871 27.8
	L 1.871 28.8
	L 1.871 29.8
	M 2.079 28.78
	L 2.079 29.78
	M 2.287 29.76
	L 2.694 30.67
	M 2.902 31.65
	L 3.11 32.63
	M 3.308 32.56
	L 3.896 33.37
	M 2.495 30.74
	L 2.902 31.65
	L 3.308 32.56
	L 3.715 33.48
	M 2.703 31.72
	L 2.703 32.72
	M 2.911 32.69
	L 3.318 33.61
	M 3.525 34.59
	L 4.113 35.39
	M 4.52 36.31
	L 5.263 36.98
	M 3.932 35.5
	L 4.52 36.31
	L 5.108 37.12
	M 4.339 36.41
	L 4.547 37.39
	M 4.746 37.33
	L 5.333 38.14
	M 3.119 33.67
	L 3.525 34.59
	L 3.932 35.5
	L 4.339 36.41
	L 4.746 37.33
	L 5.152 38.24
	M 3.327 34.65
	L 3.327 35.65
	M 3.534 36.63
	L 3.742 37.61
	M 3.534 35.63
	L 3.534 36.63
	L 3.534 37.63
	M 3.742 36.61
	L 3.742 37.61
	M 3.95 37.58
	L 4.357 38.5
	M 0 19
	L 0.2079 19.98
	L 0.4158 20.96
	L 0.6237 21.93
	L 0.8316 22.91
	L 1.04 23.89
	L 1.247 24.87
	L 1.455 25.85
	L 1.663 26.83
	L 1.871 27.8
	L 2.079 28.78
	L 2.287 29.76
	L 2.495 30.74
	L 2.703 31.72
	L 2.911 32.69
	L 3.119 33.67
	L 3.327 34.65
	L 3.534 35.63
	L 3.742 36.61
	L 3.95 37.58
	L 4.158 38.56
	M 0 20
	L -0.2079 20.98
	M 0 21
	L 0.2079 21.98
	M -0.2079 22.98
	L -0.2079 23.98
	M 0 22
	L -0.2079 22.98
	L -0.4158 23.96
	M 0 23
	L -0.2079 23.98
	M 0 24
	L 0.2079 24.98
	M 0.2079 25.98
	L 0.2079 26.98
	M 0.8226 27.87
	L 1.03 28.85
	M 0.4158 26.96
	L 0.8226 27.87
	L 1.229 28.78
	M 0.6237 27.93
	L 0.6237 28.93
	M 0.8316 28.91
	L 1.238 29.83
	M 0 25
	L 0.2079 25.98
	L 0.4158 26.96
	L 0.6237 27.93
	L 0.8316 28.91
	L 1.04 29.89
	M 0 26
	L 0.2079 26.98
	M -0.2079 27.98
	L -0.2079 28.98
	M 0 27
	L -0.2079 27.98
	L -0.4158 28.96
	M 0 28
	L -0.2079 28.98
	M 0.2079 29.98
	L 0.6146 30.89
	M 0.4158 31.96
	L 0.2079 32.93
	M 0.4158 30.96
	L 0.4158 31.96
	L 0.4158 32.96
	M 0.6237 31.93
	L 1.03 32.85
	M 0.8316 33.91
	L 1.04 34.89
	M 0.6237 35.89
	L 0.217 36.8
	M 0.8316 34.91
	L 0.6237 35.89
	L 0.4158 36.87
	M 0.8316 35.91
	L 0.6237 36.89
	M 0.8316 32.91
	L 0.8316 33.91
	L 0.8316 34.91
	L 0.8316 35.91
	L 0.8316 36.91
	M 1.04 33.89
	L 1.04 34.89
	M 1.654 35.78
	L 1.862 36.76
	M 1.247 34.87
	L 1.654 35.78
	L 2.061 36.7
	M 1.455 35.85
	L 1.455 36.85
	M 1.663 36.83
	L 2.07 37.74
	M 2.278 38.72
	L 2.866 39.53
	M 2.893 40.61
	L 2.893 41.61
	M 2.685 39.63
	L 2.893 40.61
	L 3.101 41.59
	M 3.091 40.54
	L 3.679 41.35
	M 4.086 42.27
	L 4.829 42.94
	M 3.498 41.46
	L 4.086 42.27
	L 4.674 43.08
	M 3.905 42.37
	L 4.113 43.35
	M 1.871 37.8
	L 2.278 38.72
	L 2.685 39.63
	L 3.091 40.54
	L 3.498 41.46
	L 3.905 42.37
	L 4.312 43.28
	M 2.079 38.78
	L 2.079 39.78
	M 2.287 40.76
	L 2.495 41.74
	M 2.287 39.76
	L 2.287 40.76
	L 2.287 41.76
	M 2.495 40.74
	L 2.495 41.74
	M 2.703 42.72
	L 2.495 43.69
	M 2.495 44.69
	L 2.088 45.61
	M 2.703 43.72
	L 2.495 44.69
	L 2.287 45.67
	M 2.703 44.72
	L 2.495 45.69
	M 2.703 45.72
	L 2.911 46.69
	M 2.911 47.69
	L 2.911 48.69
	M 3.119 48.67
	L 3.525 49.59
	M 2.703 46.72
	L 2.911 47.69
	L 3.119 48.67
	L 3.327 49.65
	M 2.703 47.72
	L 2.495 48.69
	M 2.495 49.69
	L 2.495 50.69
	M 2.287 51.67
	L 2.495 52.65
	M 2.287 50.67
	L 2.287 51.67
	L 2.287 52.67
	M 2.079 51.65
	L 2.079 52.65
	M 2.703 48.72
	L 2.495 49.69
	L 2.287 50.67
	L 2.079 51.65
	L 1.871 52.63
	M 2.703 49.72
	L 2.495 50.69
	M 2.911 51.69
	L 2.911 52.69
	M 2.703 50.72
	L 2.911 51.69
	L 3.119 52.67
	M 2.703 51.72
	L 2.911 52.69
	M 2.703 41.72
	L 2.703 42.72
	L 2.703 43.72
	L 2.703 44.72
	L 2.703 45.72
	L 2.703 46.72
	L 2.703 47.72
	L 2.703 48.72
	L 2.703 49.72
	L 2.703 50.72
	L 2.703 51.72
	L 2.703 52.72
	M 2.911 42.69
	L 2.911 43.69
	M 3.525 44.59
	L 3.733 45.56
	M 3.932 45.5
	L 4.52 46.31
	M 3.119 43.67
	L 3.525 44.59
	L 3.932 45.5
	L 4.339 46.41
	M 3.327 44.65
	L 3.327 45.65
	M 3.534 46.63
	L 3.327 47.61
	M 3.742 48.61
	L 3.742 49.61
	M 3.95 49.58
	L 4.357 50.5
	M 3.534 47.63
	L 3.742 48.61
	L 3.95 49.58
	L 4.158 50.56
	M 3.534 48.63
	L 3.327 49.61
	M 3.534 49.63
	L 3.742 50.61
	M 3.534 45.63
	L 3.534 46.63
	L 3.534 47.63
	L 3.534 48.63
	L 3.534 49.63
	L 3.534 50.63
	M 3.742 46.61
	L 3.742 47.61
	M 4.357 48.5
	L 4.565 49.48
	M 3.95 47.58
	L 4.357 48.5
	L 4.764 49.41
	M 4.158 48.56
	L 4.158 49.56
	M 4.366 49.54
	L 4.773 50.45
	M 0 29
	L 0.2079 29.98
	L 0.4158 30.96
	L 0.6237 31.93
	L 0.8316 32.91
	L 1.04 33.89
	L 1.247 34.87
	L 1.455 35.85
	L 1.663 36.83
	L 1.871 37.8
	L 2.079 38.78
	L 2.287 39.76
	L 2.495 40.74
	L 2.703 41.72
	L 2.911 42.69
	L 3.119 43.67
	L 3.327 44.65
	L 3.534 45.63
	L 3.742 46.61
	L 3.95 47.58
	L 4.158 48.56
	L 4.366 49.54
	L 4.574 50.52
	M 0 30
	L -0.2079 30.98
	M -0.2079 31.98
	L -0.2079 32.98
	M 0 31
	L -0.2079 31.98
	L -0.4158 32.96
	M 0 32
	L -0.2079 32.98
	M 0 33
	L 0.2079 33.98
	M -0.2079 34.98
	L -0.6146 35.89
	M -0.4158 35.96
	L -0.4158 36.96
	M -1.03 37.85
	L -1.618 38.66
	M -0.6237 36.93
	L -1.03 37.85
	L -1.437 38.76
	M -0.8316 37.91
	L -0.8316 38.91
	M 0 34
	L -0.2079 34.98
	L -0.4158 35.96
	L -0.6237 36.93
	L -0.8316 37.91
	L -1.04 38.89
	M 0 35
	L 0.2079 35.98
	M -0.2079 36.98
	L -0.2079 37.98
	M 0 36
	L -0.2079 36.98
	L -0.4158 37.96
	M 0 37
	L -0.2079 37.98
	M 0 38
	L 0.2079 38.98
	M 0.2079 39.98
	L 0.2079 40.98
	M 0.4158 40.96
	L 0.8226 41.87
	M 0 39
	L 0.2079 39.98
	L 0.4158 40.96
	L 0.6237 41.93
	M 0 40
	L -0.2079 40.98
	M 0 41
	L 0.2079 41.98
	M 0.2079 42.98
	L 0.6146 43.89
	M 0.4158 44.96
	L 0.2079 45.93
	M 0.4158 45.96
	L 0.6237 46.93
	M 0.4158 43.96
	L 0.4158 44.96
	L 0.4158 45.96
	L 0.4158 46.96
	M 0.6237 44.93
	L 0.6237 45.93
	M 0.8316 45.91
	L 1.238 46.83
	M 1.446 47.8
	L 1.654 48.78
	M 1.853 48.72
	L 2.441 49.53
	M 1.04 46.89
	L 1.446 47.8
	L 1.853 48.72
	L 2.26 49.63
	M 1.247 47.87
	L 1.654 48.78
	M 0 42
	L 0.2079 42.98
	L 0.4158 43.96
	L 0.6237 44.93
	L 0.8316 45.91
	L 1.04 46.89
	L 1.247 47.87
	L 1.455 48.85
	M 0 43
	L -0.2079 43.98
	M 0 44
	L 0.2079 44.98
	M -0.2079 45.98
	L -0.6146 46.89
	M 0 45
	L -0.2079 45.98
	L -0.4158 46.96
	M 0 46
	L 0.2079 46.98
	M -0.2079 47.98
	L -0.6146 48.89
	M -0.8226 49.87
	L -1.41 50.68
	M -0.4158 48.96
	L -0.8226 49.87
	L -1.229 50.78
	M -0.6237 49.93
	L -0.6237 50.93
	M -0.8316 51.91
	L -1.04 52.89
	M -0.8316 50.91
	L -0.8316 51.91
	L -0.8316 52.91
	M -1.04 51.89
	L -1.04 52.89
	M -1.654 53.78
	L -1.862 54.76
	M -2.649 55.5
	L -3.392 56.17
	M -3.237 56.31
	L -3.643 57.23
	M -2.061 54.7
	L -2.649 55.5
	L -3.237 56.31
	L -3.824 57.12
	M -2.468 55.61
	L -3.055 56.42
	M -2.874 56.52
	L -3.082 57.5
	M -1.247 52.87
	L -1.654 53.78
	L -2.061 54.7
	L -2.468 55.61
	L -2.874 56.52
	L -3.281 57.44
	M -1.455 53.85
	L -1.862 54.76
	M -1.663 54.83
	L -1.663 55.83
	M -2.278 56.72
	L -2.866 57.53
	M -1.871 55.8
	L -2.278 56.72
	L -2.685 57.63
	M -2.079 56.78
	L -2.079 57.78
	M -2.287 58.76
	L -2.495 59.74
	M -2.079 60.74
	L -2.079 61.74
	M -1.871 61.72
	L -1.464 62.63
	M -2.287 59.76
	L -2.079 60.74
	L -1.871 61.72
	L -1.663 62.69
	M -2.287 60.76
	L -2.079 61.74
	M -2.287 57.76
	L -2.287 58.76
	L -2.287 59.76
	L -2.287 60.76
	L -2.287 61.76
	M -2.495 58.74
	L -2.902 59.65
	M -2.703 59.72
	L -2.703 60.72
	M -3.318 61.61
	L -3.525 62.59
	M -2.911 60.69
	L -3.318 61.61
	L -3.724 62.52
	M -3.119 61.67
	L -3.119 62.67
	M 0 47
	L -0.2079 47.98
	L -0.4158 48.96
	L -0.6237 49.93
	L -0.8316 50.91
	L -1.04 51.89
	L -1.247 52.87
	L -1.455 53.85
	L -1.663 54.83
	L -1.871 55.8
	L -2.079 56.78
	L -2.287 57.76
	L -2.495 58.74
	L -2.703 59.72
	L -2.911 60.69
	L -3.119 61.67
	L -3.327 62.65
	M 0 48
	L -0.2079 48.98
	M 0 49
	L 0.2079 49.98
	M -0.2079 50.98
	L -0.6146 51.89
	M -0.4158 51.96
	L -0.4158 52.96
	M 0 50
	L -0.2079 50.98
	L -0.4158 51.96
	L -0.6237 52.93
	M 0 51
	L 0.2079 51.98
	M 0.2079 52.98
	L 0.6146 53.89
	M 0 52
	L 0.2079 52.98
	L 0.4158 53.96
	M 0 53
	L -0.2079 53.98
	M 0.2079 54.98
	L 0.2079 55.98
	M 0.8226 56.87
	L 1.03 57.85
	M 0.4158 55.96
	L 0.8226 56.87
	L 1.229 57.78
	M 0.6237 56.93
	L 0.6237 57.93
	M 0 54
	L 0.2079 54.98
	L 0.4158 55.96
	L 0.6237 56.93
	L 0.8316 57.91
	M 0 55
	L -0.2079 55.98
	M 0.2079 56.98
	L 0.2079 57.98
	M 0.4158 57.96
	L 0.8226 58.87
	M 0 56
	L 0.2079 56.98
	L 0.4158 57.96
	L 0.6237 58.93
	M 0 57
	L 0.2079 57.98
	M 0 0
	L 0 1
	L 0 2
	L 0 3
	L 0 4
	L 0 5
	L 0 6
	L 0 7
	L 0 8
	L 0 9
	L 0 10
	L 0 11
	L 0 12
	L 0 13
	L 0 14
	L 0 15
	L 0 16
	L 0 17
	L 0 18
	L 0 19
	L 0 20
	L 0 21
	L 0 22
	L 0 23
	L 0 24
	L 0 25
	L 0 26
	L 0 27
	L 0 28
	L 0 29
	L 0 30
	L 0 31
	L 0 32
	L 0 33
	L 0 34
	L 0 35
	L 0 36
	L 0 37
	L 0 38
	L 0 39
	L 0 40
	L 0 41
	L 0 42
	L 0 43
	L 0 44
	L 0 45
	L 0 46
	L 0 47
	L 0 48
	L 0 49
	L 0 50
	L 0 51
	L 0 52
	L 0 53
	L 0 54
	L 0 55
	L 0 56
	L 0 57
	L 0 58
"/>
</svg>
